<svg xmlns="http://www.w3.org/2000/svg" version="1.1" width="800" height="800"><g><path class="major_road" style="fill:none;stroke:#ccc;stroke-linejoin:round;stroke-linecap:round;" d="M59.98921227378014,32.45341940224171L4.780986823112471,-225.43198223412037"></path></g><g></g><g></g><g><path class="minor_road" style="fill:none;stroke:#ccc;stroke-linejoin:round;stroke-linecap:round;" d="M677.0477602133324,32.45341940224171L720.0048897137749,-17.31720632314682L743.2096435768981,-225.43198223412037"></path></g><g><path class="minor_road" style="fill:none;stroke:#ccc;stroke-linejoin:round;stroke-linecap:round;" d="M64.23198378667439,52.28978610038757L-144.34982206577115,72.00636083632708"></path><path class="minor_road" style="fill:none;stroke:#ccc;stroke-linejoin:round;stroke-linecap:round;" d="M97.32411027910712,185.71791323274374L111.66303755378613,182.44779605418444"></path><path class="major_road" style="fill:none;stroke:#ccc;stroke-linejoin:round;stroke-linecap:round;" d="M111.66303755378613,245.76585433632135L97.32411027910712,185.71791323274374L64.23198378667439,52.28978610038757L59.98921227378014,32.45341940224171"></path></g><g><path class="minor_road" style="fill:none;stroke:#ccc;stroke-linejoin:round;stroke-linecap:round;" d="M111.66303755378613,182.44779605418444L367.6013317688921,124.20853345096111"></path><path class="major_road" style="fill:none;stroke:#ccc;stroke-linejoin:round;stroke-linecap:round;" d="M121.50567094044527,286.9956212416291L111.66303755378613,245.76585433632135"></path></g><g><path class="minor_road" style="fill:none;stroke:#ccc;stroke-linejoin:round;stroke-linecap:round;" d="M367.6013317688921,124.20853345096111L525.6128803271058,88.24917162209749L571.4333213582286,222.1563485711813L598.0904534471119,276.6821932345629L598.940499057775,286.9956212416291"></path><path class="minor_road" style="fill:none;stroke:#ccc;stroke-linejoin:round;stroke-linecap:round;" d="M525.6128803271058,88.24917162209749L623.6141913884421,54.43393398821354"></path></g><g><path class="path" style="fill:none;stroke:#ccc;stroke-linejoin:round;stroke-linecap:round;" d="M879.6195944675492,271.83092848211527L878.8217446400085,271.72312262654305L877.8001985991141,286.9956212416291"></path><path class="path" style="fill:none;stroke:#ccc;stroke-linejoin:round;stroke-linecap:round;" d="M878.8217446400085,271.72312262654305L879.6195944675492,261.804980032146"></path><path class="minor_road" style="fill:none;stroke:#ccc;stroke-linejoin:round;stroke-linecap:round;" d="M623.6141913884421,54.43393398821354L672.708053674658,37.48438263684511L677.0477602133324,32.45341940224171"></path></g><g></g><g><path class="minor_road" style="fill:none;stroke:#ccc;stroke-linejoin:round;stroke-linecap:round;" d="M152.32355259733595,544.8786021322012L181.65758270578226,538.9852427616715"></path><path class="major_road" style="fill:none;stroke:#ccc;stroke-linejoin:round;stroke-linecap:round;" d="M183.53663089778274,544.8786021322012L181.65758270578226,538.9852427616715L121.50567094044527,286.9956212416291"></path></g><g><path class="path" style="fill:none;stroke:#ccc;stroke-linejoin:round;stroke-linecap:round;" d="M415.42758217956,544.8786021322012L443.2926738204478,538.9852427616715"></path><path class="minor_road" style="fill:none;stroke:#ccc;stroke-linejoin:round;stroke-linecap:round;" d="M443.2926738204478,538.9852427616715L444.76906882844196,544.8786021322012"></path><path class="minor_road" style="fill:none;stroke:#ccc;stroke-linejoin:round;stroke-linecap:round;" d="M598.940499057775,286.9956212416291L609.0068286577807,409.23534855246544"></path></g><g><path class="path" style="fill:none;stroke:#ccc;stroke-linejoin:round;stroke-linecap:round;" d="M877.8001985991141,286.9956212416291L867.8979128888968,435.76750212162733L879.6195944675492,526.0965115278959"></path></g><g><path class="minor_road" style="fill:none;stroke:#ccc;stroke-linejoin:round;stroke-linecap:round;" d="M-144.34982206577115,604.49492726475L111.66303755378613,553.0478512570262"></path></g><g><path class="path" style="fill:none;stroke:#ccc;stroke-linejoin:round;stroke-linecap:round;" d="M198.20364595200954,590.8276179358363L367.6013317688921,555.0003255754709"></path><path class="minor_road" style="fill:none;stroke:#ccc;stroke-linejoin:round;stroke-linecap:round;" d="M111.66303755378613,553.0478512570262L152.32355259733595,544.8786021322012"></path><path class="major_road" style="fill:none;stroke:#ccc;stroke-linejoin:round;stroke-linecap:round;" d="M244.13593508978374,799.4184146374464L198.20364595200954,590.8276179358363L183.53663089778274,544.8786021322012"></path></g><g><path class="path" style="fill:none;stroke:#ccc;stroke-linejoin:round;stroke-linecap:round;" d="M367.6013317688921,555.0003255754709L415.42758217956,544.8786021322012"></path><path class="minor_road" style="fill:none;stroke:#ccc;stroke-linejoin:round;stroke-linecap:round;" d="M444.76906882844196,544.8786021322012L472.0972895573286,654.3248777836561L623.6141913884421,640.1065768226981"></path></g><g><path class="minor_road" style="fill:none;stroke:#ccc;stroke-linejoin:round;stroke-linecap:round;" d="M623.6141913884421,640.1065768226981L792.4750062933235,624.2592159733176L879.6195944675492,607.1181877925992"></path><path class="minor_road" style="fill:none;stroke:#ccc;stroke-linejoin:round;stroke-linecap:round;" d="M792.4750062933235,624.2592159733176L804.6440802986617,799.4184146374464"></path></g><g></g><g><path class="minor_road" style="fill:none;stroke:#ccc;stroke-linejoin:round;stroke-linecap:round;" d="M367.6013317688921,866.1855082660913L261.099564600896,876.4509117379785"></path><path class="major_road" style="fill:none;stroke:#ccc;stroke-linejoin:round;stroke-linecap:round;" d="M303.84045442844945,1053.9570403173566L261.099564600896,876.4509117379785"></path><path class="major_road" style="fill:none;stroke:#ccc;stroke-linejoin:round;stroke-linecap:round;" d="M261.099564600896,876.4509117379785L244.13593508978374,799.4184146374464"></path></g><g><path class="minor_road" style="fill:none;stroke:#ccc;stroke-linejoin:round;stroke-linecap:round;" d="M623.6141913884421,841.5341581180692L367.6013317688921,866.1855082660913"></path></g><g><path class="minor_road" style="fill:none;stroke:#ccc;stroke-linejoin:round;stroke-linecap:round;" d="M804.6440802986617,799.4184146374464L806.3441715200024,823.9260440915823"></path><path class="minor_road" style="fill:none;stroke:#ccc;stroke-linejoin:round;stroke-linecap:round;" d="M879.6195944675492,808.1026931777596L806.3441715200024,823.9260440915823L623.6141913884421,841.5341581180692"></path><path class="minor_road" style="fill:none;stroke:#ccc;stroke-linejoin:round;stroke-linecap:round;" d="M879.6195944675492,1044.9254312738776L694.1456074524467,1018.2498345375061"></path></g><path class="waypath" style="fill:none;stroke:orange; stroke-width:5;stroke-linejoin:round; stroke-linecap:round}" d="M196.51101127111906,298.662609487772L536.6783863466626,234.21863919496536L555.0960412444401,243.2024686038494L603.4889887288955,498.3426068946719L247.0663554844432,565.9006410315633L196.51101127111906,298.662609487772"></path><path class="center" style="fill:none; stroke:red; stroke-width:1;stroke-linejoin:round; stroke-linecap:round}" d="M400,400m0,4.5a4.5,4.5 0 1,1 0,-9a4.5,4.5 0 1,1 0,9z"></path></svg>
