<svg xmlns="http://www.w3.org/2000/svg" version="1.1" width="800" height="800"><g></g><g><path class="path" style="fill:none;stroke:#ccc;stroke-linejoin:round;stroke-linecap:round;" d="M276.55697294222045,169.93042269349098L345.6791028622174,149.33065747097135L429.6770309688836,148.0132300928235L440.5262973155477,151.0672661922872"></path><path class="path" style="fill:none;stroke:#ccc;stroke-linejoin:round;stroke-linecap:round;" d="M254.18735160888536,234.78365181759L276.55697294222045,169.93042269349098L342.62192127999515,-21.45636685937643"></path></g><g><path class="path" style="fill:none;stroke:#ccc;stroke-linejoin:round;stroke-linecap:round;" d="M440.5262973155477,151.0672661922872L510.2822331733296,170.58913585916162L580.8583884799918,213.1659258902073L608.9322632533258,234.78365181759"></path><path class="minor_road" style="fill:none;stroke:#ccc;stroke-linejoin:round;stroke-linecap:round;" d="M696.5093307733296,228.19653491675854L675.3700386133278,234.12494019791484L675.4818867199938,234.78365181759"></path></g><g><path class="minor_road" style="fill:none;stroke:#ccc;stroke-linejoin:round;stroke-linecap:round;" d="M952.5296469333298,28.18695618584752L770.4782119822194,69.92560305073857L750.2709873777712,-21.45636685937643"></path><path class="minor_road" style="fill:none;stroke:#ccc;stroke-linejoin:round;stroke-linecap:round;" d="M952.5296469333298,155.85791033878922L696.5093307733296,228.19653491675854"></path></g><g><path class="path" style="fill:none;stroke:#ccc;stroke-linejoin:round;stroke-linecap:round;" d="M165.49180302221794,489.3445604108274L184.54326385777313,434.97136410698295"></path></g><g><path class="path" style="fill:none;stroke:#ccc;stroke-linejoin:round;stroke-linecap:round;" d="M184.54326385777313,434.97136410698295L221.82596607999585,328.5001880787313L254.18735160888536,234.78365181759"></path></g><g><path class="path" style="fill:none;stroke:#ccc;stroke-linejoin:round;stroke-linecap:round;" d="M608.9322632533258,234.78365181759L621.6456647111045,244.54455845057964L648.3773622044391,284.12709502875805L682.379186631104,354.12995794042945L696.5093307733296,363.3518785908818"></path><path class="path" style="fill:none;stroke:#ccc;stroke-linejoin:round;stroke-linecap:round;" d="M648.3773622044391,284.12709502875805L623.2115382044394,411.7369696646929"></path><path class="minor_road" style="fill:none;stroke:#ccc;stroke-linejoin:round;stroke-linecap:round;" d="M675.4818867199938,234.78365181759L684.4670179555542,278.977176733315L696.5093307733296,292.27114990726113"></path><path class="minor_road" style="fill:none;stroke:#ccc;stroke-linejoin:round;stroke-linecap:round;" d="M623.2115382044394,411.7369696646929L595.5850558577731,489.3445604108274"></path></g><g><path class="path" style="fill:none;stroke:#ccc;stroke-linejoin:round;stroke-linecap:round;" d="M696.5093307733296,363.3518785908818L722.4208088177766,380.1189990788698L764.4011315199932,386.1072538867593L952.5296469333298,353.7107796482742"></path><path class="minor_road" style="fill:none;stroke:#ccc;stroke-linejoin:round;stroke-linecap:round;" d="M696.5093307733296,292.27114990726113L725.4407076977732,324.0089876204729"></path></g><g><path class="path" style="fill:none;stroke:#ccc;stroke-linejoin:round;stroke-linecap:round;" d="M74.74570581332955,745.5199025161564L133.91335423999408,579.2876495718956L165.49180302221794,489.3445604108274"></path><path class="minor_road" style="fill:none;stroke:#ccc;stroke-linejoin:round;stroke-linecap:round;" d="M-71.47705230222346,507.3092490360141L133.91335423999408,579.2876495718956"></path><path class="minor_road" style="fill:none;stroke:#ccc;stroke-linejoin:round;stroke-linecap:round;" d="M133.91335423999408,579.2876495718956L184.54326385777313,596.9528685994446"></path></g><g><path class="minor_road" style="fill:none;stroke:#ccc;stroke-linejoin:round;stroke-linecap:round;" d="M184.54326385777313,596.9528685994446L440.5262973155477,686.0572568513453"></path></g><g><path class="minor_road" style="fill:none;stroke:#ccc;stroke-linejoin:round;stroke-linecap:round;" d="M513.1530012444382,720.7887272536755L504.7271105422187,745.5199025161564"></path><path class="minor_road" style="fill:none;stroke:#ccc;stroke-linejoin:round;stroke-linecap:round;" d="M440.5262973155477,686.0572568513453L471.91833258666156,696.9557574987411"></path><path class="minor_road" style="fill:none;stroke:#ccc;stroke-linejoin:round;stroke-linecap:round;" d="M471.91833258666156,696.9557574987411L513.1530012444382,720.7887272536755"></path><path class="minor_road" style="fill:none;stroke:#ccc;stroke-linejoin:round;stroke-linecap:round;" d="M513.1530012444382,720.7887272536755L578.9942533688845,745.5199025161564"></path><path class="minor_road" style="fill:none;stroke:#ccc;stroke-linejoin:round;stroke-linecap:round;" d="M595.5850558577731,489.3445604108274L513.1530012444382,720.7887272536755"></path></g><g></g><g><path class="path" style="fill:none;stroke:#ccc;stroke-linejoin:round;stroke-linecap:round;" d="M-16.447783822226484,1001.7527217529714L74.74570581332955,745.5199025161564"></path></g><g><path class="minor_road" style="fill:none;stroke:#ccc;stroke-linejoin:round;stroke-linecap:round;" d="M440.5262973155477,934.3862986527383L417.5974354488826,1001.7527217529714"></path></g><g><path class="minor_road" style="fill:none;stroke:#ccc;stroke-linejoin:round;stroke-linecap:round;" d="M504.7271105422187,745.5199025161564L440.5262973155477,934.3862986527383"></path><path class="minor_road" style="fill:none;stroke:#ccc;stroke-linejoin:round;stroke-linecap:round;" d="M578.9942533688845,745.5199025161564L696.5093307733296,789.6527189277112"></path></g><g><path class="minor_road" style="fill:none;stroke:#ccc;stroke-linejoin:round;stroke-linecap:round;" d="M696.5093307733296,789.6527189277112L952.5296469333298,885.7027267552912"></path></g><path class="waypath" style="fill:none;stroke:orange; stroke-width:5;stroke-linejoin:round; stroke-linecap:round}" d="M204.48950954665997,521.0222867392004L497.4942663111069,620.007459320128L595.5104904533291,314.008578568697L573.513696142214,305.9842956289649L586.4880765155503,267.00061878189445L326.5157939199926,179.99076749756932L204.48950954665997,521.0222867392004"></path><path class="center" style="fill:none; stroke:red; stroke-width:1;stroke-linejoin:round; stroke-linecap:round}" d="M400,400m0,4.5a4.5,4.5 0 1,1 0,-9a4.5,4.5 0 1,1 0,9z"></path></svg>
