<svg xmlns="http://www.w3.org/2000/svg" version="1.1" width="800" height="800"><g></g><g><path class="minor_road" style="fill:none;stroke:#ccc;stroke-linejoin:round;stroke-linecap:round;" d="M187.4736842524144,-5.9822932332754135L268.4815396408958,65.87457412481308"></path></g><g><path class="minor_road" style="fill:none;stroke:#ccc;stroke-linejoin:round;stroke-linecap:round;" d="M268.4815396408958,65.87457412481308L474.3864474737784,248.54750448465347"></path></g><g></g><g><path class="path" style="fill:none;stroke:#ccc;stroke-linejoin:round;stroke-linecap:round;" d="M1036.5052054186817,188.4552364051342L979.3582794524555,248.54750448465347"></path><path class="path" style="fill:none;stroke:#ccc;stroke-linejoin:round;stroke-linecap:round;" d="M917.140905984008,148.48954693973064L859.9492407751095,100.4013148099184L952.9024739555607,-5.9822932332754135"></path><path class="rail" style="fill:none;stroke:#ccc;stroke-linejoin:round;stroke-linecap:round;" d="M1033.7015462115523,16.66017258167267L1036.5052054186817,19.056200429797173"></path></g><g><path class="minor_road" style="fill:none;stroke:#ccc;stroke-linejoin:round;stroke-linecap:round;" d="M-243.52926651731832,290.21433286368847L6.205186047998723,503.100668951869"></path></g><g></g><g><path class="minor_road" style="fill:none;stroke:#ccc;stroke-linejoin:round;stroke-linecap:round;" d="M474.3864474737784,248.54750448465347L524.4943992604385,293.01767840981483"></path></g><g><path class="minor_road" style="fill:none;stroke:#ccc;stroke-linejoin:round;stroke-linecap:round;" d="M524.4943992604385,293.01767840981483L761.2992106951133,503.100668951869"></path><path class="path" style="fill:none;stroke:#ccc;stroke-linejoin:round;stroke-linecap:round;" d="M780.4923457991099,457.7200936973095L744.8649955555447,495.193811878562"></path><path class="path" style="fill:none;stroke:#ccc;stroke-linejoin:round;stroke-linecap:round;" d="M744.8649955555447,495.193811878562L737.6768905671197,503.100668951869"></path></g><g><path class="path" style="fill:none;stroke:#ccc;stroke-linejoin:round;stroke-linecap:round;" d="M979.3582794524555,248.54750448465347L780.4923457991099,457.7200936973095"></path><path class="rail" style="fill:none;stroke:#ccc;stroke-linejoin:round;stroke-linecap:round;" d="M803.6821865813399,276.70076863467693L976.360750193795,424.0560327768326L1036.5052054186817,479.4759367406368"></path></g><g><path class="minor_road" style="fill:none;stroke:#ccc;stroke-linejoin:round;stroke-linecap:round;" d="M6.205186047998723,503.100668951869L12.468680021353066,508.44378715753555"></path></g><g><path class="minor_road" style="fill:none;stroke:#ccc;stroke-linejoin:round;stroke-linecap:round;" d="M12.468680021353066,508.44378715753555L268.4815396408958,726.6728052645922"></path></g><g><path class="path" style="fill:none;stroke:#ccc;stroke-linejoin:round;stroke-linecap:round;" d="M524.4943992604385,716.8731145560741L481.09733387379674,757.629279717803"></path><path class="minor_road" style="fill:none;stroke:#ccc;stroke-linejoin:round;stroke-linecap:round;" d="M268.4815396408958,726.6728052645922L304.80980468622874,757.629279717803"></path></g><g><path class="minor_road" style="fill:none;stroke:#ccc;stroke-linejoin:round;stroke-linecap:round;" d="M761.2992106951133,503.100668951869L780.4923457991099,520.1123897582293"></path><path class="path" style="fill:none;stroke:#ccc;stroke-linejoin:round;stroke-linecap:round;" d="M652.8363733902224,596.3296585232019L524.4943992604385,716.8731145560741"></path><path class="path" style="fill:none;stroke:#ccc;stroke-linejoin:round;stroke-linecap:round;" d="M737.6768905671197,503.100668951869L652.8363733902224,596.3296585232019"></path></g><g><path class="minor_road" style="fill:none;stroke:#ccc;stroke-linejoin:round;stroke-linecap:round;" d="M780.4923457991099,520.1123897582293L1036.5052054186817,747.2545489519835"></path></g><g></g><g><path class="path" style="fill:none;stroke:#ccc;stroke-linejoin:round;stroke-linecap:round;" d="M268.4815396408958,975.2827580571175L228.09691659378586,1018.866113781929"></path></g><g><path class="path" style="fill:none;stroke:#ccc;stroke-linejoin:round;stroke-linecap:round;" d="M481.09733387379674,757.629279717803L397.2261669546715,836.41011326015L268.4815396408958,975.2827580571175"></path><path class="minor_road" style="fill:none;stroke:#ccc;stroke-linejoin:round;stroke-linecap:round;" d="M304.80980468622874,757.629279717803L397.2261669546715,836.41011326015L524.4943992604385,939.3666096031666"></path></g><g><path class="minor_road" style="fill:none;stroke:#ccc;stroke-linejoin:round;stroke-linecap:round;" d="M524.4943992604385,939.3666096031666L622.7716023182438,1018.866113781929"></path></g><g></g><path class="waypath" style="fill:none;stroke:orange; stroke-width:5;stroke-linejoin:round; stroke-linecap:round}" d="M210.15648028443684,518.8425008356571L351.5324871111079,349.2043754905462L392.39432874668273,383.4674644321203L490.0750085689069,286.189016059041L442.94967296000686,238.02896393835545L489.1802237155789,195.6193482428789L589.9926505244512,277.0841321647167L493.803278791107,399.52079613506794L455.32753009776934,445.52436035871506L306.793244444445,604.3802691400051L231.63131676442572,537.771032333374L210.15648028443684,518.8425008356571"></path><path class="center" style="fill:none; stroke:red; stroke-width:1;stroke-linejoin:round; stroke-linecap:round}" d="M400,400m0,4.5a4.5,4.5 0 1,1 0,-9a4.5,4.5 0 1,1 0,9z"></path></svg>
