<svg xmlns="http://www.w3.org/2000/svg" version="1.1" width="800" height="800"><g><path class="minor_road" style="fill:none;stroke:#ccc;stroke-linejoin:round;stroke-linecap:round;" d="M-122.1442446222245,-10.29908823221922L64.00828757333147,-29.41776179149747"></path><path class="minor_road" style="fill:none;stroke:#ccc;stroke-linejoin:round;stroke-linecap:round;" d="M52.52521528888974,-148.44529100507498L98.56935253333359,-150.24329390749335L133.83878883555735,-152.76049819216132"></path><path class="major_road" style="fill:none;stroke:#ccc;stroke-linejoin:round;stroke-linecap:round;" d="M52.04054015999645,-159.65284442529082L52.52521528888974,-148.44529100507498L64.00828757333147,-29.41776179149747L77.57919118221616,96.56146429106593"></path></g><g><path class="minor_road" style="fill:none;stroke:#ccc;stroke-linejoin:round;stroke-linecap:round;" d="M254.709309439997,-159.65284442529082L256.4615964444456,-137.83707623183727L389.85910499555393,-144.78935211524367"></path><path class="minor_road" style="fill:none;stroke:#ccc;stroke-linejoin:round;stroke-linecap:round;" d="M133.83878883555735,-152.76049819216132L140.62424063999788,-153.23996570333838L162.21092522666368,-138.49634370207787"></path></g><g><path class="minor_road" style="fill:none;stroke:#ccc;stroke-linejoin:round;stroke-linecap:round;" d="M510.87875640888524,-159.65284442529082L511.58712775111053,-144.54961842298508L522.212697884439,96.56146429106593"></path><path class="minor_road" style="fill:none;stroke:#ccc;stroke-linejoin:round;stroke-linecap:round;" d="M389.85910499555393,-144.78935211524367L395.2278141155548,-145.0290857926011L417.7465662577779,-146.16782081127167L471.0981131377739,-145.0290857926011L511.58712775111053,-144.54961842298508"></path><path class="rail" style="fill:none;stroke:#ccc;stroke-linejoin:round;stroke-linecap:round;" d="M599.1269125688923,-159.65284442529082L603.6381195377799,0.3090728186070919L604.9430141155535,96.56146429106593"></path><path class="rail" style="fill:none;stroke:#ccc;stroke-linejoin:round;stroke-linecap:round;" d="M583.6173084444454,96.56146429106593L581.1566500977788,-15.213604927062988L578.6214263466682,-159.65284442529082"></path></g><g><path class="minor_road" style="fill:none;stroke:#ccc;stroke-linejoin:round;stroke-linecap:round;" d="M780.6563896888911,-159.65284442529082L783.7508539733353,96.56146429106593"></path></g><g><path class="path" style="fill:none;stroke:#ccc;stroke-linejoin:round;stroke-linecap:round;" d="M-122.1442446222245,221.52125420421362L88.16747861332988,219.84314090386033"></path><path class="major_road" style="fill:none;stroke:#ccc;stroke-linejoin:round;stroke-linecap:round;" d="M77.57919118221616,96.56146429106593L84.96116622221598,165.30440274253488"></path><path class="major_road" style="fill:none;stroke:#ccc;stroke-linejoin:round;stroke-linecap:round;" d="M84.96116622221598,165.30440274253488L88.16747861332988,219.84314090386033L90.36715804444248,352.7733668871224"></path></g><g></g><g><path class="minor_road" style="fill:none;stroke:#ccc;stroke-linejoin:round;stroke-linecap:round;" d="M522.212697884439,96.56146429106593L533.54663936,352.7733668871224"></path><path class="rail" style="fill:none;stroke:#ccc;stroke-linejoin:round;stroke-linecap:round;" d="M604.9430141155535,96.56146429106593L606.2851913955528,194.9111598469317L608.3357400177774,352.7733668871224"></path><path class="rail" style="fill:none;stroke:#ccc;stroke-linejoin:round;stroke-linecap:round;" d="M588.5386251377786,352.7733668871224L588.0912327111109,323.586307849735L585.816987875558,195.87008261308074L583.6173084444454,96.56146429106593"></path></g><g><path class="minor_road" style="fill:none;stroke:#ccc;stroke-linejoin:round;stroke-linecap:round;" d="M783.7508539733353,96.56146429106593L786.845318257776,352.7733668871224"></path></g><g><path class="path" style="fill:none;stroke:#ccc;stroke-linejoin:round;stroke-linecap:round;" d="M90.73998506666612,375.4277772344649L133.83878883555735,374.828454464674"></path><path class="major_road" style="fill:none;stroke:#ccc;stroke-linejoin:round;stroke-linecap:round;" d="M90.36715804444248,352.7733668871224L90.73998506666612,375.4277772344649L80.07713223110841,608.9828634820879"></path></g><g><path class="path" style="fill:none;stroke:#ccc;stroke-linejoin:round;stroke-linecap:round;" d="M133.83878883555735,374.828454464674L304.7799785244424,372.55102775618434"></path></g><g><path class="minor_road" style="fill:none;stroke:#ccc;stroke-linejoin:round;stroke-linecap:round;" d="M560.017357937777,389.0923331230879L634.8437412977764,389.15226536616683"></path><path class="path" style="fill:none;stroke:#ccc;stroke-linejoin:round;stroke-linecap:round;" d="M508.34353265777463,596.1574628464878L412.154160924445,595.7379402928054"></path><path class="path" style="fill:none;stroke:#ccc;stroke-linejoin:round;stroke-linecap:round;" d="M508.34353265777463,596.1574628464878L532.092613973331,595.1386223472655"></path><path class="path" style="fill:none;stroke:#ccc;stroke-linejoin:round;stroke-linecap:round;" d="M535.0752301511093,388.0135526359081L532.8382680177747,414.8032552227378L532.092613973331,595.1386223472655L530.0793480533321,608.9828634820879"></path><path class="minor_road" style="fill:none;stroke:#ccc;stroke-linejoin:round;stroke-linecap:round;" d="M533.54663936,352.7733668871224L535.0752301511093,388.0135526359081"></path><path class="minor_road" style="fill:none;stroke:#ccc;stroke-linejoin:round;stroke-linecap:round;" d="M634.8437412977764,389.15226536616683L645.8421384533285,389.6916555799544"></path><path class="minor_road" style="fill:none;stroke:#ccc;stroke-linejoin:round;stroke-linecap:round;" d="M535.0752301511093,388.0135526359081L560.017357937777,389.0923331230879"></path><path class="rail" style="fill:none;stroke:#ccc;stroke-linejoin:round;stroke-linecap:round;" d="M608.3357400177774,352.7733668871224L609.5287864888887,446.0878410600126L610.7963983644404,557.3216334991157L611.09465998222,608.9828634820879"></path><path class="rail" style="fill:none;stroke:#ccc;stroke-linejoin:round;stroke-linecap:round;" d="M590.7010218666692,608.9828634820879L591.3348278044468,523.579965274781L588.5386251377786,352.7733668871224"></path></g><g><path class="minor_road" style="fill:none;stroke:#ccc;stroke-linejoin:round;stroke-linecap:round;" d="M786.845318257776,352.7733668871224L787.4045587911096,396.5239308066666"></path><path class="minor_road" style="fill:none;stroke:#ccc;stroke-linejoin:round;stroke-linecap:round;" d="M747.4002193066699,608.9828634820879L746.8782614755582,497.03009754419327L901.8251719111067,501.8246579542756"></path><path class="minor_road" style="fill:none;stroke:#ccc;stroke-linejoin:round;stroke-linecap:round;" d="M645.8421384533285,389.6916555799544L787.4045587911096,396.5239308066666L901.8251719111067,384.83714320883155"></path></g><g><path class="minor_road" style="fill:none;stroke:#ccc;stroke-linejoin:round;stroke-linecap:round;" d="M65.01492053332913,756.8940575309098L-122.1442446222245,754.6166627258062"></path><path class="major_road" style="fill:none;stroke:#ccc;stroke-linejoin:round;stroke-linecap:round;" d="M58.154903324444604,814.2483850158751L51.70499583999481,863.5118803828955"></path><path class="major_road" style="fill:none;stroke:#ccc;stroke-linejoin:round;stroke-linecap:round;" d="M80.07713223110841,608.9828634820879L80.03984952889004,609.761976391077L65.01492053332913,756.8940575309098L58.154903324444604,814.2483850158751"></path></g><g><path class="path" style="fill:none;stroke:#ccc;stroke-linejoin:round;stroke-linecap:round;" d="M280.62078748444765,863.5118803828955L284.1999268977779,817.904194906354L288.4874376533335,770.4984909370542L290.0160284444428,754.3170055001974L294.5645181155487,743.1697543822229L304.4817169066664,736.6372234039009L314.3616329955512,734.4796898774803L326.62764202666585,735.678319633007"></path><path class="path" style="fill:none;stroke:#ccc;stroke-linejoin:round;stroke-linecap:round;" d="M330.28134684444376,775.3529347032309L288.4874376533335,770.4984909370542"></path></g><g><path class="path" style="fill:none;stroke:#ccc;stroke-linejoin:round;stroke-linecap:round;" d="M545.663517582223,830.5496974736452L624.665563591112,839.9589064717293"></path><path class="path" style="fill:none;stroke:#ccc;stroke-linejoin:round;stroke-linecap:round;" d="M530.0793480533321,608.9828634820879L517.738773617777,694.5652890689671L517.6642082133294,827.313408266753L517.515077404445,863.5118803828955"></path><path class="path" style="fill:none;stroke:#ccc;stroke-linejoin:round;stroke-linecap:round;" d="M517.6642082133294,827.313408266753L545.663517582223,830.5496974736452"></path><path class="path" style="fill:none;stroke:#ccc;stroke-linejoin:round;stroke-linecap:round;" d="M624.665563591112,839.9589064717293L645.8421384533285,842.8356066681445"></path><path class="rail" style="fill:none;stroke:#ccc;stroke-linejoin:round;stroke-linecap:round;" d="M611.09465998222,608.9828634820879L611.579335111106,699.3598147779703L608.6340016355571,758.2724806070328L599.089629866663,858.477658662945L598.4558239288854,863.5118803828955"></path><path class="rail" style="fill:none;stroke:#ccc;stroke-linejoin:round;stroke-linecap:round;" d="M578.7332744533305,863.5118803828955L579.7771901155538,855.0615791045129L587.2337305600013,756.6543317735195L590.1044986311135,692.1080943122506L590.7010218666692,608.9828634820879"></path></g><g><path class="path" style="fill:none;stroke:#ccc;stroke-linejoin:round;stroke-linecap:round;" d="M645.8421384533285,842.8356066681445L663.77511822222,845.2328565903008"></path><path class="minor_road" style="fill:none;stroke:#ccc;stroke-linejoin:round;stroke-linecap:round;" d="M663.77511822222,845.2328565903008L661.0534809600031,863.5118803828955"></path><path class="minor_road" style="fill:none;stroke:#ccc;stroke-linejoin:round;stroke-linecap:round;" d="M748.5932657777739,863.5118803828955L747.4002193066699,608.9828634820879"></path></g><path class="waypath" style="fill:none;stroke:orange; stroke-width:5;stroke-linejoin:round; stroke-linecap:round}" d="M410.25274311110843,439.25557823851705L421.1765748622238,439.25557823851705L420.76646513777814,416.36149214953184L426.582566684443,410.5480693206191L429.0805077333316,403.8955942504108L429.4906174577736,395.1454894505441L428.67039800888597,389.33206210657954L424.4947353599964,385.1368044875562L421.5866845866658,382.61964961513877L421.1765748622238,352.65350223332644L409.20882744888513,352.65350223332644L406.6736036977745,140.55217023938894L379.9046235022215,140.07270787656307L370.5093825422191,140.55217023938894L375.8408089600016,659.924815826118L385.0496364088867,659.8049525022507L389.1507336533359,659.7450208514929L412.86253226666304,659.5052942484617L412.7506841600007,649.7963646277785L412.2660090311074,609.4623175859451L412.116878222223,595.7379402928054L410.25274311110843,439.25557823851705"></path><path class="center" style="fill:none; stroke:red; stroke-width:1;stroke-linejoin:round; stroke-linecap:round}" d="M400,400m0,4.5a4.5,4.5 0 1,1 0,-9a4.5,4.5 0 1,1 0,9z"></path></svg>
