<svg xmlns="http://www.w3.org/2000/svg" version="1.1" width="800" height="800"><g></g><g></g><g></g><g><path class="minor_road" style="fill:none;stroke:#ccc;stroke-linejoin:round;stroke-linecap:round;" d="M644.447765390214,-206.88905802369118L655.6847718400022,47.64533310383558"></path><path class="rail" style="fill:none;stroke:#ccc;stroke-linejoin:round;stroke-linecap:round;" d="M809.9158543928861,-206.88905802369118L812.5927524124418,-10.23761298507452L813.3309499164461,47.64533310383558"></path><path class="rail" style="fill:none;stroke:#ccc;stroke-linejoin:round;stroke-linecap:round;" d="M772.5958694684523,47.64533310383558L771.5966930488867,-8.223875157535076L767.2197038079976,-206.88905802369118"></path></g><g></g><g></g><g></g><g><path class="minor_road" style="fill:none;stroke:#ccc;stroke-linejoin:round;stroke-linecap:round;" d="M655.6847718400022,47.64533310383558L667.0709090986638,305.52276085317135"></path><path class="rail" style="fill:none;stroke:#ccc;stroke-linejoin:round;stroke-linecap:round;" d="M813.3309499164461,47.64533310383558L816.6341973333328,305.52276085317135"></path><path class="rail" style="fill:none;stroke:#ccc;stroke-linejoin:round;stroke-linecap:round;" d="M777.099619896886,305.52276085317135L776.1526392604501,247.1846021413803L772.5958694684523,47.64533310383558"></path></g><g><path class="path" style="fill:none;stroke:#ccc;stroke-linejoin:round;stroke-linecap:round;" d="M-132.33733540977846,349.6449224501848L123.6680676693286,346.2048095539212"></path></g><g><path class="path" style="fill:none;stroke:#ccc;stroke-linejoin:round;stroke-linecap:round;" d="M123.6680676693286,346.2048095539212L209.54504396799894,345.0421232357621"></path></g><g></g><g><path class="minor_road" style="fill:none;stroke:#ccc;stroke-linejoin:round;stroke-linecap:round;" d="M720.0198027946608,378.1367204412818L869.6651129742168,378.34049006551504"></path><path class="path" style="fill:none;stroke:#ccc;stroke-linejoin:round;stroke-linecap:round;" d="M670.1877430044478,376.0630646273494L665.6989056568855,429.64246977865696L665.1396651235555,560.0667481571436"></path><path class="minor_road" style="fill:none;stroke:#ccc;stroke-linejoin:round;stroke-linecap:round;" d="M667.0709090986638,305.52276085317135L670.1877430044478,376.0630646273494"></path><path class="minor_road" style="fill:none;stroke:#ccc;stroke-linejoin:round;stroke-linecap:round;" d="M869.6651129742168,378.34049006551504L891.6991899875502,379.40728406608105"></path><path class="minor_road" style="fill:none;stroke:#ccc;stroke-linejoin:round;stroke-linecap:round;" d="M670.1877430044478,376.0630646273494L720.0198027946608,378.1367204412818"></path><path class="rail" style="fill:none;stroke:#ccc;stroke-linejoin:round;stroke-linecap:round;" d="M816.6341973333328,305.52276085317135L819.0202902755555,492.2116413936019L819.8032270222175,560.0667481571436"></path><path class="rail" style="fill:none;stroke:#ccc;stroke-linejoin:round;stroke-linecap:round;" d="M781.2379998435499,560.0667481571436L777.099619896886,305.52276085317135"></path></g><g></g><g></g><g><path class="path" style="fill:none;stroke:#ccc;stroke-linejoin:round;stroke-linecap:round;" d="M616.6646956942132,792.3628711104393L424.2934087679969,791.4878669306636"></path><path class="path" style="fill:none;stroke:#ccc;stroke-linejoin:round;stroke-linecap:round;" d="M616.6646956942132,792.3628711104393L635.6937869084431,791.4998532831669"></path></g><g><path class="path" style="fill:none;stroke:#ccc;stroke-linejoin:round;stroke-linecap:round;" d="M635.6937869084431,791.4998532831669L664.1554017848903,790.2173128947616"></path><path class="path" style="fill:none;stroke:#ccc;stroke-linejoin:round;stroke-linecap:round;" d="M665.1396651235555,560.0667481571436L664.1554017848903,790.2173128947616L660.1586961066641,817.9537405893207"></path><path class="rail" style="fill:none;stroke:#ccc;stroke-linejoin:round;stroke-linecap:round;" d="M819.8032270222175,560.0667481571436L821.5704271075592,714.6552533656359L822.1520372622108,817.9537405893207"></path><path class="rail" style="fill:none;stroke:#ccc;stroke-linejoin:round;stroke-linecap:round;" d="M781.3945871928881,817.9537405893207L782.6547425279932,647.2078761160374L781.2379998435499,560.0667481571436"></path></g><path class="waypath" style="fill:none;stroke:orange; stroke-width:5;stroke-linejoin:round; stroke-linecap:round}" d="M420.50548622221686,478.5111564770341L442.3531497244476,478.5111564770341L441.5329302755563,432.7229842990637L453.165133368886,421.0961386412382L458.16101546666323,407.7911885008216L458.98123491554725,390.29097890108824L457.34079601777194,378.6641242131591L448.9894707199928,370.27360897511244L443.1733691733316,365.23929923027754L442.3531497244476,305.30700446665287L418.41765489777026,305.30700446665287L413.34720739554905,-118.89565952122211L359.809247004443,-119.85458424687386L341.0187650844382,-118.89565952122211L351.6816179200032,919.849631652236L370.09927281777345,919.6099050045013L378.30146730667184,919.4900417029858L425.7250645333261,919.0105884969234L425.50136832000135,899.5927292555571L424.5320180622148,818.9246351718903L424.23375644444604,791.4758805856109L420.50548622221686,478.5111564770341"></path><path class="center" style="fill:none; stroke:red; stroke-width:1;stroke-linejoin:round; stroke-linecap:round}" d="M400,400m0,4.5a4.5,4.5 0 1,1 0,-9a4.5,4.5 0 1,1 0,9z"></path></svg>
