<svg xmlns="http://www.w3.org/2000/svg" version="1.1" width="800" height="800"><g><path class="major_road" style="fill:none;stroke:#ccc;stroke-linejoin:round;stroke-linecap:round;" d="M-82.17718783999953,-232.7344470769167L-66.89127992888825,-159.3801278397441L-28.52737934222023,23.46544175967574"></path></g><g></g><g><path class="minor_road" style="fill:none;stroke:#ccc;stroke-linejoin:round;stroke-linecap:round;" d="M566.7282443377771,-8.836587123572826L576.2353334044456,23.46544175967574"></path><path class="major_road" style="fill:none;stroke:#ccc;stroke-linejoin:round;stroke-linecap:round;" d="M619.4459852799991,-34.84604076296091L566.7282443377771,-8.836587123572826L515.7255076977781,9.92136750370264L469.3085434311106,23.46544175967574"></path></g><g><path class="path" style="fill:none;stroke:#ccc;stroke-linejoin:round;stroke-linecap:round;" d="M875.4290187377774,-3.203206419944763L828.9747717688879,12.498337905853987"></path><path class="minor_road" style="fill:none;stroke:#ccc;stroke-linejoin:round;stroke-linecap:round;" d="M818.4237670400034,-133.130836032331L780.3208453688894,-232.7344470769167"></path><path class="major_road" style="fill:none;stroke:#ccc;stroke-linejoin:round;stroke-linecap:round;" d="M875.4290187377774,-160.27907665073872L818.4237670400034,-133.130836032331L619.4459852799991,-34.84604076296091"></path></g><g><path class="minor_road" style="fill:none;stroke:#ccc;stroke-linejoin:round;stroke-linecap:round;" d="M-148.5776804977795,78.66047124564648L-118.08043008000095,71.9483780823648L-24.053455075558304,44.92020047083497"></path><path class="major_road" style="fill:none;stroke:#ccc;stroke-linejoin:round;stroke-linecap:round;" d="M107.44263566222071,129.24083453416824L2.3426980977783387,159.92461113259196"></path><path class="major_road" style="fill:none;stroke:#ccc;stroke-linejoin:round;stroke-linecap:round;" d="M-28.52737934222023,23.46544175967574L-24.053455075558304,44.92020047083497L2.3426980977783387,159.92461113259196L28.925264782221348,279.72285379469395"></path></g><g><path class="major_road" style="fill:none;stroke:#ccc;stroke-linejoin:round;stroke-linecap:round;" d="M363.46295182222457,54.448984544724226L107.44263566222071,129.24083453416824"></path></g><g><path class="minor_road" style="fill:none;stroke:#ccc;stroke-linejoin:round;stroke-linecap:round;" d="M576.2353334044456,23.46544175967574L619.4459852799991,169.8129302188754"></path><path class="major_road" style="fill:none;stroke:#ccc;stroke-linejoin:round;stroke-linecap:round;" d="M469.3085434311106,23.46544175967574L363.46295182222457,54.448984544724226"></path></g><g><path class="minor_road" style="fill:none;stroke:#ccc;stroke-linejoin:round;stroke-linecap:round;" d="M619.4459852799991,169.8129302188754L651.8446535111107,279.72285379469395"></path></g><g><path class="minor_road" style="fill:none;stroke:#ccc;stroke-linejoin:round;stroke-linecap:round;" d="M77.01995064888979,496.3052350692451L16.137297919998673,501.99843994528055L-0.602635377781553,496.7846628986299L-17.044307057778497,480.6039691641927L-29.347598791111523,431.3426869288087L-46.57220721777776,347.2027729190886L-38.8546878577763,330.6024885699153L-21.55551402666606,323.2911688014865L35.63615118222515,309.8671011701226"></path><path class="major_road" style="fill:none;stroke:#ccc;stroke-linejoin:round;stroke-linecap:round;" d="M28.925264782221348,279.72285379469395L35.63615118222515,309.8671011701226L77.01995064888979,496.3052350692451L84.77475271110961,535.9179306700826"></path></g><g><path class="path" style="fill:none;stroke:#ccc;stroke-linejoin:round;stroke-linecap:round;" d="M340.3103937422238,535.9179306700826L363.46295182222457,529.8651624396443"></path></g><g><path class="path" style="fill:none;stroke:#ccc;stroke-linejoin:round;stroke-linecap:round;" d="M363.46295182222457,529.8651624396443L619.4459852799991,463.2846233919263"></path></g><g><path class="path" style="fill:none;stroke:#ccc;stroke-linejoin:round;stroke-linecap:round;" d="M619.4459852799991,463.2846233919263L676.8240640000004,448.3024814836681L699.0072718222218,439.43304961174726"></path><path class="path" style="fill:none;stroke:#ccc;stroke-linejoin:round;stroke-linecap:round;" d="M839.302080284444,535.9179306700826L875.4290187377774,533.4009381011128"></path><path class="path" style="fill:none;stroke:#ccc;stroke-linejoin:round;stroke-linecap:round;" d="M722.4580915199986,502.178225338459L875.4290187377774,453.4563392326236"></path><path class="minor_road" style="fill:none;stroke:#ccc;stroke-linejoin:round;stroke-linecap:round;" d="M651.8446535111107,279.72285379469395L699.0072718222218,439.43304961174726L702.4745631288897,435.17811843007803"></path><path class="minor_road" style="fill:none;stroke:#ccc;stroke-linejoin:round;stroke-linecap:round;" d="M702.4745631288897,435.17811843007803L722.4580915199986,502.178225338459L729.951914666668,535.9179306700826"></path></g><g><path class="path" style="fill:none;stroke:#ccc;stroke-linejoin:round;stroke-linecap:round;" d="M96.03412878222298,589.8534297905862L107.44263566222071,587.8158684298396"></path><path class="minor_road" style="fill:none;stroke:#ccc;stroke-linejoin:round;stroke-linecap:round;" d="M-50.93428337777732,792.1106019206345L-53.357659022218286,780.2448892183602L-83.14653809777519,616.1619290113449L-78.11337329777962,589.913358066231"></path><path class="minor_road" style="fill:none;stroke:#ccc;stroke-linejoin:round;stroke-linecap:round;" d="M-78.11337329777962,589.913358066231L-59.956697315556085,580.2649043984711L87.57095537777786,550.1209557801485"></path><path class="major_road" style="fill:none;stroke:#ccc;stroke-linejoin:round;stroke-linecap:round;" d="M84.77475271110961,535.9179306700826L87.57095537777786,550.1209557801485L96.03412878222298,589.8534297905862L107.44263566222071,634.0804595090449"></path><path class="rail" style="fill:none;stroke:#ccc;stroke-linejoin:round;stroke-linecap:round;" d="M-148.5776804977795,707.4923763275146L-138.88417792000473,792.1106019206345"></path></g><g><path class="path" style="fill:none;stroke:#ccc;stroke-linejoin:round;stroke-linecap:round;" d="M107.44263566222071,587.8158684298396L123.47419761777564,584.939310953021L214.66768725333532,568.5788845382631L340.3103937422238,535.9179306700826"></path><path class="path" style="fill:none;stroke:#ccc;stroke-linejoin:round;stroke-linecap:round;" d="M363.46295182222457,670.1571975983679L309.3657508977776,699.7017332836986L277.0416480711101,735.838312573731L264.32824661333507,783.3012096434832L264.9620525511091,792.1106019206345"></path><path class="major_road" style="fill:none;stroke:#ccc;stroke-linejoin:round;stroke-linecap:round;" d="M107.44263566222071,634.0804595090449L114.45178367999688,661.2279097214341L129.8495396977778,792.1106019206345"></path></g><g><path class="path" style="fill:none;stroke:#ccc;stroke-linejoin:round;stroke-linecap:round;" d="M619.4459852799991,683.3413757011294L577.8757723022209,719.8375445641577L543.0164457244464,792.1106019206345"></path><path class="path" style="fill:none;stroke:#ccc;stroke-linejoin:round;stroke-linecap:round;" d="M619.4459852799991,656.1939474791288L590.3654775466639,641.0920551978052L492.49838421333334,636.0580892413855L395.48879303111244,652.6581877321005L363.46295182222457,670.1571975983679"></path></g><g><path class="path" style="fill:none;stroke:#ccc;stroke-linejoin:round;stroke-linecap:round;" d="M731.592353564447,543.4089785851538L839.302080284444,535.9179306700826"></path><path class="path" style="fill:none;stroke:#ccc;stroke-linejoin:round;stroke-linecap:round;" d="M638.8702731377743,666.3217991292477L619.4459852799991,683.3413757011294"></path><path class="path" style="fill:none;stroke:#ccc;stroke-linejoin:round;stroke-linecap:round;" d="M660.6806539377758,792.1106019206345L654.6781388800009,710.1891368478537L663.104029582224,649.9014933742583"></path><path class="path" style="fill:none;stroke:#ccc;stroke-linejoin:round;stroke-linecap:round;" d="M739.7945480533344,605.8542740121484L663.104029582224,649.9014933742583L638.8702731377743,666.3217991292477L619.4459852799991,656.1939474791288"></path><path class="minor_road" style="fill:none;stroke:#ccc;stroke-linejoin:round;stroke-linecap:round;" d="M739.7945480533344,605.8542740121484L750.6810971022205,704.1364072933793L754.0365403022224,792.1106019206345"></path><path class="minor_road" style="fill:none;stroke:#ccc;stroke-linejoin:round;stroke-linecap:round;" d="M729.951914666668,535.9179306700826L731.592353564447,543.4089785851538L739.7945480533344,605.8542740121484"></path></g><g><path class="path" style="fill:none;stroke:#ccc;stroke-linejoin:round;stroke-linecap:round;" d="M66.46894592000172,1048.360794879496L66.24524970666607,1028.2851533703506L43.72649756444662,976.2681985683739L51.74227854222045,939.2929526604712L60.76469247999921,895.3061280883849L76.2742966044425,843.8282692320645L107.44263566222071,819.3178226612508"></path><path class="minor_road" style="fill:none;stroke:#ccc;stroke-linejoin:round;stroke-linecap:round;" d="M0.10573596444373834,1048.360794879496L-2.727749404442875,1027.1465344503522L-50.93428337777732,792.1106019206345"></path><path class="rail" style="fill:none;stroke:#ccc;stroke-linejoin:round;stroke-linecap:round;" d="M-138.88417792000473,792.1106019206345L-119.34804195555625,962.6047423891723L-112.1151977244408,1048.360794879496"></path><path class="rail" style="fill:none;stroke:#ccc;stroke-linejoin:round;stroke-linecap:round;" d="M-131.57676828444164,1048.360794879496L-144.58843135999996,925.2099852114916L-148.5776804977795,887.3956834562123"></path></g><g><path class="path" style="fill:none;stroke:#ccc;stroke-linejoin:round;stroke-linecap:round;" d="M107.44263566222071,819.3178226612508L110.01514211555696,817.2802784331143L131.3035650844431,806.313493669033"></path><path class="path" style="fill:none;stroke:#ccc;stroke-linejoin:round;stroke-linecap:round;" d="M264.9620525511091,792.1106019206345L270.6663059911116,870.1964512132108L262.4268288000021,948.0423670746386L229.0588103111113,1014.2022318504751L202.40167822222065,1048.360794879496"></path><path class="major_road" style="fill:none;stroke:#ccc;stroke-linejoin:round;stroke-linecap:round;" d="M129.8495396977778,792.1106019206345L130.37149752888945,796.4853330738842L131.3035650844431,806.313493669033L145.73197084444473,961.7058305591345L149.311110257775,1048.360794879496"></path></g><g><path class="path" style="fill:none;stroke:#ccc;stroke-linejoin:round;stroke-linecap:round;" d="M543.0164457244464,792.1106019206345L542.3453570844431,793.5488697737455L536.2309939199986,835.0188936516643L549.0189607822213,886.1971310265362L546.3346062222226,970.8747298493981L529.8556518400001,1023.7906047329307L509.9466888533316,1048.360794879496"></path><path class="path" style="fill:none;stroke:#ccc;stroke-linejoin:round;stroke-linecap:round;" d="M580.4109960533315,1048.360794879496L590.6264564622215,1043.0272676721215L619.4459852799991,1026.487333998084"></path></g><g><path class="path" style="fill:none;stroke:#ccc;stroke-linejoin:round;stroke-linecap:round;" d="M619.4459852799991,1026.487333998084L624.1808884622224,1023.7306774109602L665.8256668444446,985.3172381594777L673.8414478222257,899.0216391831636L661.0161982577774,796.6051887087524L660.6806539377758,792.1106019206345"></path><path class="minor_road" style="fill:none;stroke:#ccc;stroke-linejoin:round;stroke-linecap:round;" d="M754.0365403022224,792.1106019206345L763.8046082844448,1048.360794879496"></path></g><path class="waypath" style="fill:none;stroke:orange; stroke-width:5;stroke-linejoin:round; stroke-linecap:round}" d="M218.73150179555523,350.49885703995824L241.62308096000197,439.0135493762791L277.75001941333176,540.2327745221555L581.2684982044448,457.1119819059968L521.541609244443,259.7665047161281L356.93847893333077,309.927030056715L218.73150179555523,350.49885703995824"></path><path class="center" style="fill:none; stroke:red; stroke-width:1;stroke-linejoin:round; stroke-linecap:round}" d="M400,400m0,4.5a4.5,4.5 0 1,1 0,-9a4.5,4.5 0 1,1 0,9z"></path></svg>
