<svg xmlns="http://www.w3.org/2000/svg" version="1.1" width="800" height="800"><g><path class="minor_road" style="fill:none;stroke:#ccc;stroke-linejoin:round;stroke-linecap:round;" d="M-9.177656888889032,43.21828570589423L165.23082410665666,212.71862095221877"></path><path class="major_road" style="fill:none;stroke:#ccc;stroke-linejoin:round;stroke-linecap:round;" d="M210.93941703110613,212.71862095221877L246.8426592711039,177.6930286064744"></path></g><g><path class="minor_road" style="fill:none;stroke:#ccc;stroke-linejoin:round;stroke-linecap:round;" d="M259.07138559998566,212.71862095221877L296.9506110577713,174.87900471314788L283.93894798222027,141.46993286162615"></path><path class="minor_road" style="fill:none;stroke:#ccc;stroke-linejoin:round;stroke-linecap:round;" d="M456.9306862933299,-27.31236518919468L490.1495739733291,4.121096812188625L502.8256927288894,16.15561268106103"></path><path class="minor_road" style="fill:none;stroke:#ccc;stroke-linejoin:round;stroke-linecap:round;" d="M456.9306862933299,-27.31236518919468L439.4823816533317,-43.47815973684192"></path><path class="major_road" style="fill:none;stroke:#ccc;stroke-linejoin:round;stroke-linecap:round;" d="M246.8426592711039,177.6930286064744L283.93894798222027,141.46993286162615L456.9306862933299,-27.31236518919468L472.66398663110886,-43.47815973684192"></path></g><g><path class="minor_road" style="fill:none;stroke:#ccc;stroke-linejoin:round;stroke-linecap:round;" d="M502.8256927288894,16.15561268106103L710.2666478933388,212.71862095221877"></path></g><g></g><g><path class="minor_road" style="fill:none;stroke:#ccc;stroke-linejoin:round;stroke-linecap:round;" d="M161.94994631110603,263.43080918490887L191.32871566222457,280.4346387013793L246.8426592711039,224.93266309052706"></path><path class="minor_road" style="fill:none;stroke:#ccc;stroke-linejoin:round;stroke-linecap:round;" d="M-9.177656888889032,444.1258923821151L-7.01526016000571,446.2214214578271L11.92435256887984,468.9129973910749"></path><path class="minor_road" style="fill:none;stroke:#ccc;stroke-linejoin:round;stroke-linecap:round;" d="M165.23082410665666,212.71862095221877L188.12240327111067,234.99128193035722"></path><path class="major_road" style="fill:none;stroke:#ccc;stroke-linejoin:round;stroke-linecap:round;" d="M-9.177656888889032,448.73605612292886L-7.01526016000571,446.2214214578271L161.94994631110603,263.43080918490887L188.12240327111067,234.99128193035722L210.93941703110613,212.71862095221877"></path></g><g><path class="minor_road" style="fill:none;stroke:#ccc;stroke-linejoin:round;stroke-linecap:round;" d="M246.8426592711039,224.93266309052706L259.07138559998566,212.71862095221877"></path></g><g><path class="minor_road" style="fill:none;stroke:#ccc;stroke-linejoin:round;stroke-linecap:round;" d="M710.2666478933388,212.71862095221877L758.8087261866676,258.70086880773306"></path></g><g><path class="minor_road" style="fill:none;stroke:#ccc;stroke-linejoin:round;stroke-linecap:round;" d="M758.8087261866676,258.70086880773306L980.6780871111041,468.9129973910749"></path></g><g><path class="minor_road" style="fill:none;stroke:#ccc;stroke-linejoin:round;stroke-linecap:round;" d="M11.92435256887984,468.9129973910749L225.66608440888376,725.1648413091898"></path></g><g></g><g></g><g><path class="minor_road" style="fill:none;stroke:#ccc;stroke-linejoin:round;stroke-linecap:round;" d="M980.6780871111041,468.9129973910749L1014.8290423466533,501.30384224653244"></path></g><g><path class="minor_road" style="fill:none;stroke:#ccc;stroke-linejoin:round;stroke-linecap:round;" d="M225.66608440888376,725.1648413091898L246.8426592711039,750.5504070557654"></path><path class="minor_road" style="fill:none;stroke:#ccc;stroke-linejoin:round;stroke-linecap:round;" d="M-9.177656888889032,829.9400192908943L73.29168042666424,926.272956687957L101.10457628443692,961.5969442650676L116.76331121777184,981.354408916086"></path></g><g><path class="minor_road" style="fill:none;stroke:#ccc;stroke-linejoin:round;stroke-linecap:round;" d="M246.8426592711039,750.5504070557654L439.4078162488877,981.354408916086"></path></g><g></g><g></g><path class="waypath" style="fill:none;stroke:orange; stroke-width:5;stroke-linejoin:round; stroke-linecap:round}" d="M438.8112930133284,582.4304661229253L600.208110933323,406.94519267976284L534.0313144888787,346.0549519062042L505.9201570133373,376.6497702896595L333.0775495111084,217.62818755581975L199.7918890666624,362.5198779925704L438.8112930133284,582.4304661229253"></path><path class="center" style="fill:none; stroke:red; stroke-width:1;stroke-linejoin:round; stroke-linecap:round}" d="M400,400m0,4.5a4.5,4.5 0 1,1 0,-9a4.5,4.5 0 1,1 0,9z"></path></svg>
