<svg xmlns="http://www.w3.org/2000/svg" version="1.1" width="800" height="800"><g></g><g></g><g></g><g><path class="minor_road" style="fill:none;stroke:#ccc;stroke-linejoin:round;stroke-linecap:round;" d="M784.4890514773433,44.36519140005112L776.8684671431547,-210.1881030201912"></path></g><g><path class="path" style="fill:none;stroke:#ccc;stroke-linejoin:round;stroke-linecap:round;" d="M-162.4766718862229,83.68033351004124L-101.27338791824877,93.2512536495924"></path></g><g></g><g></g><g><path class="minor_road" style="fill:none;stroke:#ccc;stroke-linejoin:round;stroke-linecap:round;" d="M792.0947227306315,298.8939046561718L784.4890514773433,44.36519140005112"></path></g><g><path class="minor_road" style="fill:none;stroke:#ccc;stroke-linejoin:round;stroke-linecap:round;" d="M-162.4766718862229,454.88270005583763L-97.11263835016871,451.2126602232456"></path></g><g></g><g><path class="path" style="fill:none;stroke:#ccc;stroke-linejoin:round;stroke-linecap:round;" d="M599.969501639076,553.4220240265131L605.5469938915339,483.8352321535349"></path><path class="path" style="fill:none;stroke:#ccc;stroke-linejoin:round;stroke-linecap:round;" d="M566.0273295360385,402.1828352063894L605.5469938915339,402.1828352063894"></path></g><g><path class="path" style="fill:none;stroke:#ccc;stroke-linejoin:round;stroke-linecap:round;" d="M605.5469938915339,483.8352321535349L612.1087494826643,402.1828352063894"></path><path class="path" style="fill:none;stroke:#ccc;stroke-linejoin:round;stroke-linecap:round;" d="M605.5469938915339,402.1828352063894L612.1087494826643,402.1828352063894L642.1138682310702,405.39711989462376L795.3756005262258,408.2036221176386"></path><path class="minor_road" style="fill:none;stroke:#ccc;stroke-linejoin:round;stroke-linecap:round;" d="M775.6157683484489,553.4220240265131L795.3756005262258,408.2036221176386L792.0947227306315,298.8939046561718"></path></g><g></g><g></g><g><path class="path" style="fill:none;stroke:#ccc;stroke-linejoin:round;stroke-linecap:round;" d="M380.0761239324347,671.1749602109194L370.7554483769345,814.6659402549267"></path><path class="path" style="fill:none;stroke:#ccc;stroke-linejoin:round;stroke-linecap:round;" d="M380.0761239324347,671.1749602109194L470.37482871464454,603.938984721899L596.3008837404777,599.1175664067268L599.969501639076,553.4220240265131"></path></g><g><path class="path" style="fill:none;stroke:#ccc;stroke-linejoin:round;stroke-linecap:round;" d="M748.0862210275955,755.8495332747698L861.5449404302635,770.2178183495998"></path><path class="minor_road" style="fill:none;stroke:#ccc;stroke-linejoin:round;stroke-linecap:round;" d="M741.3753346275771,814.6659402549267L748.0862210275955,755.8495332747698"></path><path class="minor_road" style="fill:none;stroke:#ccc;stroke-linejoin:round;stroke-linecap:round;" d="M748.0862210275955,755.8495332747698L775.6157683484489,553.4220240265131"></path></g><path class="waypath" style="fill:none;stroke:orange; stroke-width:5;stroke-linejoin:round; stroke-linecap:round}" d="M264.14183310227236,229.93061861395836L597.4491909689386,248.16091758012772L591.6330894221901,353.4648218154907L568.6669448533212,352.02558921277523L565.9825902933371,402.1588479876518L562.701712497801,462.12683060765266L587.308295964438,463.3261898905039L581.4921944177477,570.3089878708124L246.39526684448356,551.8388710319996L247.58831331552938,530.4902905672789L253.4044148622197,424.2270694077015L202.69993983994937,421.58847792446613L206.57734087115387,351.3059729337692L257.281815893366,353.9445660710335L264.14183310227236,229.93061861395836"></path><path class="center" style="fill:none; stroke:red; stroke-width:1;stroke-linejoin:round; stroke-linecap:round}" d="M400,400m0,4.5a4.5,4.5 0 1,1 0,-9a4.5,4.5 0 1,1 0,9z"></path></svg>
