<svg xmlns="http://www.w3.org/2000/svg" version="1.1" width="800" height="800"><g></g><g></g><g></g><g></g><g></g><g></g><g></g><g></g><g></g><g></g><g><path class="minor_road" style="fill:none;stroke:#ccc;stroke-linejoin:round;stroke-linecap:round;" d="M565.4158932195278,758.0379410237074L712.0711306809098,676.2781426310539"></path></g><g><path class="minor_road" style="fill:none;stroke:#ccc;stroke-linejoin:round;stroke-linecap:round;" d="M712.0711306809098,676.2781426310539L968.0989033813239,533.527735516429"></path></g><g><path class="minor_road" style="fill:none;stroke:#ccc;stroke-linejoin:round;stroke-linecap:round;" d="M108.89666104892967,1012.5876860022545L200.07523760356707,961.7544415593147"></path></g><g><path class="minor_road" style="fill:none;stroke:#ccc;stroke-linejoin:round;stroke-linecap:round;" d="M200.07523760356707,961.7544415593147L456.07318414223846,819.0044077038765"></path></g><g><path class="minor_road" style="fill:none;stroke:#ccc;stroke-linejoin:round;stroke-linecap:round;" d="M456.07318414223846,819.0044077038765L565.4158932195278,758.0379410237074"></path></g><g></g><path class="waypath" style="fill:none;stroke:orange; stroke-width:5;stroke-linejoin:round; stroke-linecap:round}" d="M378.97255594667513,646.9806670099497L541.226876017754,556.1895847022533L521.2433476266451,520.4959723502398L747.7730463288608,393.77157635986805L657.399776142207,232.3115468621254L590.5891737599741,269.6821386963129L500.66329600004246,108.94059190154076L467.7053872356191,127.38635516166687L446.82707399112405,90.25527003407478L384.78865749330726,124.99080164730549L400.74565404444,153.2583295851946L241.62308096000925,242.3728613257408L232.07870919111883,225.36444820463657L160.04852849780582,265.849258095026L169.59290026669623,282.8576648682356L75.34222904889612,335.5597535222769L102.18577464885311,383.4707210510969L87.57095537777059,435.4540971517563L104.72099840000737,466.11709079146385L150.0567643022514,478.8134840428829L172.4263856355683,518.8190909177065L127.9854045867105,506.3622568398714L120.82712576002814,493.42631220817566L60.42914815997938,527.4430521577597L68.03481941332575,541.0976560860872L52.22695367108099,597.1533805727959L88.1674786133226,661.114364311099L154.3815577600035,679.7995884716511L203.14733226667158,652.4904136359692L213.73561969777802,614.640844270587L267.1244492800324,709.7438513040543L378.97255594667513,646.9806670099497"></path><path class="center" style="fill:none; stroke:red; stroke-width:1;stroke-linejoin:round; stroke-linecap:round}" d="M400,400m0,4.5a4.5,4.5 0 1,1 0,-9a4.5,4.5 0 1,1 0,9z"></path></svg>
