<svg xmlns="http://www.w3.org/2000/svg" version="1.1" width="800" height="800"><g><path class="path" style="fill:none;stroke:#ccc;stroke-linejoin:round;stroke-linecap:round;" d="M-46.952490780451626,-35.565710723400116L54.19548034844047,-110.69628776609898L136.11303367110668,-140.6357495561242L209.06036883911293,-117.320167273283"></path></g><g><path class="path" style="fill:none;stroke:#ccc;stroke-linejoin:round;stroke-linecap:round;" d="M209.06036883911293,-117.320167273283L286.1535404942115,-92.67261969298124"></path></g><g><path class="minor_road" style="fill:none;stroke:#ccc;stroke-linejoin:round;stroke-linecap:round;" d="M497.55391863465775,-36.609690234065056L475.54966778311064,32.040920317173004"></path></g><g><path class="rail" style="fill:none;stroke:#ccc;stroke-linejoin:round;stroke-linecap:round;" d="M972.7890673208749,-222.48636209219694L977.016925752876,-220.27839792519808"></path><path class="rail" style="fill:none;stroke:#ccc;stroke-linejoin:round;stroke-linecap:round;" d="M837.0203789084335,-222.48636209219694L879.2915066880014,-207.01861486583948L977.016925752876,-149.82758762687445"></path></g><g><path class="minor_road" style="fill:none;stroke:#ccc;stroke-linejoin:round;stroke-linecap:round;" d="M209.06036883911293,162.20204868912697L-34.35839396978554,111.5512031018734L-46.952490780451626,111.19121112674475"></path><path class="minor_road" style="fill:none;stroke:#ccc;stroke-linejoin:round;stroke-linecap:round;" d="M209.06036883911293,249.5839465484023L185.1919828764294,289.9269287660718"></path></g><g><path class="path" style="fill:none;stroke:#ccc;stroke-linejoin:round;stroke-linecap:round;" d="M465.06577191822,91.12765526771545L457.4973833671029,88.3797155097127"></path><path class="minor_road" style="fill:none;stroke:#ccc;stroke-linejoin:round;stroke-linecap:round;" d="M465.06577191822,64.75222786515951L457.4973833671029,88.3797155097127L442.6290417208802,135.07067289948463L374.23765276443737,175.78573109954596L255.07467992177408,171.77782513946295L209.06036883911293,162.20204868912697"></path><path class="minor_road" style="fill:none;stroke:#ccc;stroke-linejoin:round;stroke-linecap:round;" d="M255.07467992177408,171.77782513946295L209.06036883911293,249.5839465484023"></path></g><g><path class="path" style="fill:none;stroke:#ccc;stroke-linejoin:round;stroke-linecap:round;" d="M721.0115226737689,193.4013141989708L680.1496810382159,169.2938833013177L465.06577191822,91.12765526771545"></path><path class="minor_road" style="fill:none;stroke:#ccc;stroke-linejoin:round;stroke-linecap:round;" d="M475.54966778311064,32.040920317173004L465.06577191822,64.75222786515951"></path></g><g><path class="path" style="fill:none;stroke:#ccc;stroke-linejoin:round;stroke-linecap:round;" d="M867.562368568877,289.9269287660718L802.1983350328883,241.30415172874928L721.0115226737689,193.4013141989708"></path></g><g><path class="path" style="fill:none;stroke:#ccc;stroke-linejoin:round;stroke-linecap:round;" d="M28.589720462216064,544.4638190120459L83.93216364087857,461.1382772773504L209.06036883911293,505.4409860819578"></path><path class="path" style="fill:none;stroke:#ccc;stroke-linejoin:round;stroke-linecap:round;" d="M83.93216364087857,461.1382772773504L-46.952490780451626,436.1189905703068"></path><path class="minor_road" style="fill:none;stroke:#ccc;stroke-linejoin:round;stroke-linecap:round;" d="M185.1919828764294,289.9269287660718L83.93216364087857,461.1382772773504"></path></g><g><path class="path" style="fill:none;stroke:#ccc;stroke-linejoin:round;stroke-linecap:round;" d="M209.06036883911293,505.4409860819578L319.3127758506598,544.4638190120459"></path></g><g></g><g><path class="path" style="fill:none;stroke:#ccc;stroke-linejoin:round;stroke-linecap:round;" d="M977.016925752876,376.2166516408324L958.1295088071056,357.3171620666981L867.562368568877,289.9269287660718"></path></g><g><path class="path" style="fill:none;stroke:#ccc;stroke-linejoin:round;stroke-linecap:round;" d="M-46.952490780451626,658.1962581276894L28.589720462216064,544.4638190120459M209.06036883911293,744.5333966016769L15.361817713768687,802.3474039956927"></path></g><g><path class="path" style="fill:none;stroke:#ccc;stroke-linejoin:round;stroke-linecap:round;" d="M319.3127758506598,544.4638190120459L407.86665016887855,575.8188609853387L344.09831628799293,704.2267495244741L209.06036883911293,744.5333966016769"></path></g><g></g><g></g><path class="waypath" style="fill:none;stroke:orange; stroke-width:5;stroke-linejoin:round; stroke-linecap:round}" d="M225.59151900443976,454.35847169160843L340.4222418488862,216.28476414829493L541.3760068266565,288.8829554915428L482.693033528878,435.51900750398636L574.4084809955457,476.4378354623914L525.5681410844409,574.3549061194062L521.3924784355477,583.8346131965518L436.1642211555445,546.5157568529248L225.59151900443976,454.35847169160843"></path><path class="center" style="fill:none; stroke:red; stroke-width:1;stroke-linejoin:round; stroke-linecap:round}" d="M400,400m0,4.5a4.5,4.5 0 1,1 0,-9a4.5,4.5 0 1,1 0,9z"></path></svg>
