<svg xmlns="http://www.w3.org/2000/svg" version="1.1" width="800" height="800"><g></g><g></g><g><path class="minor_road" style="fill:none;stroke:#ccc;stroke-linejoin:round;stroke-linecap:round;" d="M764.7068496782304,-198.74617311358452L733.0240093297762,-208.3875828459859L634.56039276089,-206.37546242028475L566.7729835804348,-175.5588891133666L535.955101923566,-113.86591029912233L515.4570722417702,-31.81232041120529L510.0958196622232,26.059879034757614"></path><path class="minor_road" style="fill:none;stroke:#ccc;stroke-linejoin:round;stroke-linecap:round;" d="M566.7729835804348,-175.5588891133666L546.2749538986682,-224.79594863206148L546.6403243804525,-228.47286051511765"></path></g><g><path class="minor_road" style="fill:none;stroke:#ccc;stroke-linejoin:round;stroke-linecap:round;" d="M893.876499797334,26.059879034757614L897.3288780231087,9.244370445609093L889.0968573724531,-103.68555743992329L827.5356594631157,-179.64301227033138L764.7068496782304,-198.74617311358452"></path></g><g></g><g><path class="minor_road" style="fill:none;stroke:#ccc;stroke-linejoin:round;stroke-linecap:round;" d="M507.2921604551084,56.39724714308977L322.41469667555066,181.72285602986813"></path><path class="minor_road" style="fill:none;stroke:#ccc;stroke-linejoin:round;stroke-linecap:round;" d="M508.6939900586585,41.19862303882837L507.2921604551084,56.39724714308977L508.6939900586585,58.75668643414974"></path></g><g><path class="minor_road" style="fill:none;stroke:#ccc;stroke-linejoin:round;stroke-linecap:round;" d="M510.0958196622232,26.059879034757614L508.6939900586585,41.19862303882837M508.6939900586585,58.75668643414974L531.8689177600027,97.52573269605637L587.2635567217658,136.5821953713894L652.9780476586602,163.24261660128832L728.937825166242,185.74706806242466L764.7068496782304,182.9564686641097"></path></g><g><path class="minor_road" style="fill:none;stroke:#ccc;stroke-linejoin:round;stroke-linecap:round;" d="M852.1198733084457,228.8875605687499L874.5566035057709,120.04218804836273M874.5566035057709,120.04218804836273L893.876499797334,26.059879034757614M764.7068496782304,182.9564686641097L806.9034120533324,179.65086579322815L874.5566035057709,120.04218804836273"></path></g><g><path class="minor_road" style="fill:none;stroke:#ccc;stroke-linejoin:round;stroke-linecap:round;" d="M-3.324272640005802,535.6128444746137L18.314607729771524,416.4321315661073"></path></g><g></g><g></g><g><path class="path" style="fill:none;stroke:#ccc;stroke-linejoin:round;stroke-linecap:round;" d="M993.2349012195627,538.4752863049507L1020.7122527573374,366.1416491493583"></path></g><g></g><g><path class="path" style="fill:none;stroke:#ccc;stroke-linejoin:round;stroke-linecap:round;" d="M508.6939900586585,756.4635632187128L499.64920649955457,749.0140578523278L488.2630692409002,743.9239611625671L468.43612819911505,743.7802407965064L314.9805258524284,772.2488460838795L291.47005383111537,782.908101297915L275.6994707911217,796.3698992878199"></path></g><g><path class="path" style="fill:none;stroke:#ccc;stroke-linejoin:round;stroke-linecap:round;" d="M764.7068496782304,636.6006592661142L760.5535566506733,638.1576330959797L675.6161044479959,681.8247434645891L622.2347314062208,712.9043029248714L573.4018480355444,750.9542828276753L535.2840132835554,784.0458868592978L521.0942168177717,796.3698992878199"></path><path class="path" style="fill:none;stroke:#ccc;stroke-linejoin:round;stroke-linecap:round;" d="M760.5535566506733,638.1576330959797L764.7068496782304,648.1821483597159"></path><path class="path" style="fill:none;stroke:#ccc;stroke-linejoin:round;stroke-linecap:round;" d="M535.2840132835554,784.0458868592978L511.43799694221525,758.7271586731076L508.6939900586585,756.4635632187128"></path><path class="major_road" style="fill:none;stroke:#ccc;stroke-linejoin:round;stroke-linecap:round;" d="M580.7390838328865,796.3698992878199L639.3773178880074,748.8104539886117L693.3030183822266,714.581041648984L741.9345751608926,688.6634457036853L764.7068496782304,678.722774900496"></path><path class="major_road" style="fill:none;stroke:#ccc;stroke-linejoin:round;stroke-linecap:round;" d="M764.7068496782304,759.8170379474759L704.674242559995,796.3698992878199"></path></g><g><path class="path" style="fill:none;stroke:#ccc;stroke-linejoin:round;stroke-linecap:round;" d="M798.6415652408905,796.3698992878199L820.5712506880081,783.5069357901812L913.2038526293327,752.9663679003716"></path><path class="path" style="fill:none;stroke:#ccc;stroke-linejoin:round;stroke-linecap:round;" d="M816.8877197084366,617.1863891333342L764.7068496782304,636.6006592661142"></path><path class="path" style="fill:none;stroke:#ccc;stroke-linejoin:round;stroke-linecap:round;" d="M764.7068496782304,648.1821483597159L775.4218982968887,674.051856637001L803.0856633457734,741.1094369068742L820.5712506880081,783.5069357901812"></path><path class="path" style="fill:none;stroke:#ccc;stroke-linejoin:round;stroke-linecap:round;" d="M1020.7122527573374,559.650165066123L988.6267592248914,567.3512077108026L993.2349012195627,538.4752863049507"></path><path class="major_road" style="fill:none;stroke:#ccc;stroke-linejoin:round;stroke-linecap:round;" d="M764.7068496782304,678.722774900496L775.4218982968887,674.051856637001L804.2265140337695,661.3924685195088L846.0204232248798,646.1940128952265L973.4228732586635,644.9843641519547"></path><path class="major_road" style="fill:none;stroke:#ccc;stroke-linejoin:round;stroke-linecap:round;" d="M973.4228732586635,644.9843641519547L873.348643953781,710.7005890607834L828.5422924231243,729.0488994717598L803.0856633457734,741.1094369068742L769.2627958897792,757.0504213050008L764.7068496782304,759.8170379474759"></path><path class="major_road" style="fill:none;stroke:#ccc;stroke-linejoin:round;stroke-linecap:round;" d="M973.4228732586635,644.9843641519547L1020.7122527573374,633.3310140147805"></path></g><g><path class="path" style="fill:none;stroke:#ccc;stroke-linejoin:round;stroke-linecap:round;" d="M252.6811304391158,1026.645177014172L219.8798090240016,1050.8978607580066M85.87832069688011,1050.8978607580066L80.67365546665678,1045.6161661073565L-3.324272640005802,927.9096955060959"></path><path class="path" style="fill:none;stroke:#ccc;stroke-linejoin:round;stroke-linecap:round;" d="M181.35186454755603,872.9966897517443L179.67414294755145,858.3971266895533L177.9964213475614,842.7915188521147L195.0793555057753,817.3290977403522L219.8648959431157,808.5621654093266L245.51539507199777,815.2571316212416L252.01749833957,822.2275606617332L252.6811304391158,822.9461615607142M252.6811304391158,886.18300216645L252.48726038755558,886.5303255170584L227.2990667662234,897.7764150127769L202.3793086008809,893.692372135818L181.35186454755603,872.9966897517443"></path><path class="path" style="fill:none;stroke:#ccc;stroke-linejoin:round;stroke-linecap:round;" d="M252.6811304391158,821.4730297327042L252.01749833957,822.2275606617332"></path><path class="path" style="fill:none;stroke:#ccc;stroke-linejoin:round;stroke-linecap:round;" d="M-3.324272640005802,830.6112370416522L-2.317639679997228,830.4555402323604L22.728879672882613,841.1147840619087L56.760530261322856,861.475131675601L79.8683490986732,870.5893789604306L105.7276313600014,875.6076038330793L129.30521224533732,872.5295996144414L154.68727591821516,865.3555735573173L179.67414294755145,858.3971266895533"></path></g><g><path class="path" style="fill:none;stroke:#ccc;stroke-linejoin:round;stroke-linecap:round;" d="M477.5331075413269,1050.8978607580066L508.6939900586585,1025.663092814386"></path><path class="path" style="fill:none;stroke:#ccc;stroke-linejoin:round;stroke-linecap:round;" d="M508.6939900586585,807.1369399353862L274.85688172088703,1010.2491590455174L252.6811304391158,1026.645177014172"></path><path class="path" style="fill:none;stroke:#ccc;stroke-linejoin:round;stroke-linecap:round;" d="M252.6811304391158,822.9461615607142L262.1285671822261,833.1383163779974L266.34896907377697,862.4811722040176L252.6811304391158,886.18300216645"></path><path class="path" style="fill:none;stroke:#ccc;stroke-linejoin:round;stroke-linecap:round;" d="M275.6994707911217,796.3698992878199L273.58181330490333,798.1783789992332L252.6811304391158,821.4730297327042"></path><path class="minor_road" style="fill:none;stroke:#ccc;stroke-linejoin:round;stroke-linecap:round;" d="M472.65653009068046,890.2790222838521L508.6939900586585,895.3691053017974"></path><path class="major_road" style="fill:none;stroke:#ccc;stroke-linejoin:round;stroke-linecap:round;" d="M289.20326553599443,1050.8978607580066L472.65653009068046,890.2790222838521L508.6939900586585,858.7564268857241"></path><path class="major_road" style="fill:none;stroke:#ccc;stroke-linejoin:round;stroke-linecap:round;" d="M508.6939900586585,950.3419718593359L472.25387690665957,981.9723041728139L387.4282728106773,1050.8978607580066"></path></g><g><path class="path" style="fill:none;stroke:#ccc;stroke-linejoin:round;stroke-linecap:round;" d="M508.6939900586585,1025.663092814386L603.8767288319941,948.5574504733086L677.9649146879965,880.3024581447244L764.7068496782304,818.3590924367309"></path><path class="path" style="fill:none;stroke:#ccc;stroke-linejoin:round;stroke-linecap:round;" d="M521.0942168177717,796.3698992878199L508.6939900586585,807.1369399353862"></path><path class="minor_road" style="fill:none;stroke:#ccc;stroke-linejoin:round;stroke-linecap:round;" d="M508.6939900586585,895.3691053017974L563.1491049244651,903.070100620389"></path><path class="minor_road" style="fill:none;stroke:#ccc;stroke-linejoin:round;stroke-linecap:round;" d="M634.6125885439978,1050.8978607580066L619.3490502542118,968.7860148996115L603.8767288319941,948.5574504733086L588.3372985457827,924.8436709195375L563.1491049244651,903.070100620389"></path><path class="major_road" style="fill:none;stroke:#ccc;stroke-linejoin:round;stroke-linecap:round;" d="M508.6939900586585,858.7564268857241L570.9933854720148,804.27451223135L580.7390838328865,796.3698992878199"></path><path class="major_road" style="fill:none;stroke:#ccc;stroke-linejoin:round;stroke-linecap:round;" d="M704.674242559995,796.3698992878199L699.3950119253423,799.5796513408422L628.7964869973366,851.2949588149786L563.1491049244651,903.070100620389"></path><path class="major_road" style="fill:none;stroke:#ccc;stroke-linejoin:round;stroke-linecap:round;" d="M563.1491049244651,903.070100620389L508.6939900586585,950.3419718593359"></path></g><g><path class="path" style="fill:none;stroke:#ccc;stroke-linejoin:round;stroke-linecap:round;" d="M764.7068496782304,818.3590924367309L781.0515863324399,806.6818259432912L798.6415652408905,796.3698992878199"></path></g><path class="waypath" style="fill:none;stroke:orange; stroke-width:5;stroke-linejoin:round; stroke-linecap:round}" d="M110.3134037333366,225.25858652591705L45.7397634844383,582.7652665451169L754.2602365155471,357.6022032946348L477.69715143111534,310.2938884496689L255.3431153777783,233.16328213363886L144.46435896889307,217.3538897484541L110.3134037333366,225.25858652591705"></path><path class="center" style="fill:none; stroke:red; stroke-width:1;stroke-linejoin:round; stroke-linecap:round}" d="M400,400m0,4.5a4.5,4.5 0 1,1 0,-9a4.5,4.5 0 1,1 0,9z"></path></svg>
