<svg xmlns="http://www.w3.org/2000/svg" version="1.1" width="800" height="800"><g><path class="path" style="fill:none;stroke:#ccc;stroke-linejoin:round;stroke-linecap:round;" d="M87.60823807999986,18.443682737648487L86.11692999111983,10.010549243539572L65.9469880888937,-11.177346538752317"></path><path class="minor_road" style="fill:none;stroke:#ccc;stroke-linejoin:round;stroke-linecap:round;" d="M-158.12205226666993,245.02592074498534L-148.11164671999722,-11.177346538752317"></path></g><g><path class="minor_road" style="fill:none;stroke:#ccc;stroke-linejoin:round;stroke-linecap:round;" d="M350.6004195555579,164.26704120635986L256.6107272533336,182.51360804401338L238.75231288888608,245.02592074498534"></path><path class="minor_road" style="fill:none;stroke:#ccc;stroke-linejoin:round;stroke-linecap:round;" d="M320.34550670222234,-11.177346538752317L350.6004195555579,-3.4944796692579985M350.6004195555579,50.16542283073068L347.114486897779,67.15167904086411L350.6004195555579,66.31137003935874"></path><path class="minor_road" style="fill:none;stroke:#ccc;stroke-linejoin:round;stroke-linecap:round;" d="M314.56668785777583,-11.177346538752317L306.178079857782,40.23175435513258L294.117125688892,62.04980218783021L278.92442453333206,71.503278369084L250.64549489778437,72.22354295291007"></path><path class="major_road" style="fill:none;stroke:#ccc;stroke-linejoin:round;stroke-linecap:round;" d="M195.9890534399965,245.02592074498534L226.80320682666934,164.20701956376433L245.98515712000517,91.790716227144L250.64549489778437,72.22354295291007L256.3311069866686,46.35401614382863L266.416077937778,-5.325162393972278L267.16173198221804,-11.177346538752317"></path></g><g><path class="minor_road" style="fill:none;stroke:#ccc;stroke-linejoin:round;stroke-linecap:round;" d="M596.4611993600047,245.02592074498534L581.1193673955568,172.52001442946494L559.6072482133386,127.02356168627739L498.6127473777815,135.54665542393923L350.6004195555579,164.26704120635986"></path><path class="minor_road" style="fill:none;stroke:#ccc;stroke-linejoin:round;stroke-linecap:round;" d="M350.6004195555579,-3.4944796692579985L351.2528668444502,-3.344423720613122M351.2528668444502,-3.344423720613122L361.1141415822276,-0.8534951861947775L350.6004195555579,50.16542283073068M350.6004195555579,66.31137003935874L502.88161678221513,29.697856307029724L514.8866468977867,8.179868333041668L507.5605959111126,-11.177346538752317M352.5018373688872,-11.177346538752317L351.2528668444502,-3.344423720613122"></path><path class="rail" style="fill:none;stroke:#ccc;stroke-linejoin:round;stroke-linecap:round;" d="M599.7980012088883,-11.177346538752317L603.6008368355542,0.6770751364529133L606.6207357155654,11.5411183424294"></path></g><g><path class="minor_road" style="fill:none;stroke:#ccc;stroke-linejoin:round;stroke-linecap:round;" d="M861.820832426667,-11.177346538752317L862.6037691733363,-8.296270955353975"></path><path class="rail" style="fill:none;stroke:#ccc;stroke-linejoin:round;stroke-linecap:round;" d="M606.6207357155654,11.5411183424294L628.4497578666706,90.38020007498562L648.5264930133344,164.9873008877039L668.0999116800012,245.02592074498534"></path><path class="rail" style="fill:none;stroke:#ccc;stroke-linejoin:round;stroke-linecap:round;" d="M611.7843899733343,-11.177346538752317L624.4418673777836,31.018345398828387L650.6143243377737,125.67307098954916L679.3965704533257,245.02592074498534"></path><path class="rail" style="fill:none;stroke:#ccc;stroke-linejoin:round;stroke-linecap:round;" d="M688.3257776355604,245.02592074498534L656.6914048000035,113.87877991050482L621.5710993066677,-11.177346538752317"></path><path class="rail" style="fill:none;stroke:#ccc;stroke-linejoin:round;stroke-linecap:round;" d="M698.8208583111045,245.02592074498534L686.349794417787,192.89733418636024L662.414299591117,99.53354697488248L630.2206862222229,-11.177346538752317"></path><path class="highway" style="fill:none;stroke:#ccc;stroke-linejoin:round;stroke-linecap:round;" d="M794.1340865422244,245.02592074498534L716.4182937600053,-11.177346538752317"></path><path class="highway" style="fill:none;stroke:#ccc;stroke-linejoin:round;stroke-linecap:round;" d="M761.1761777777865,-11.177346538752317L764.1215112533318,-1.6337860021740198L840.5883335111066,245.02592074498534"></path></g><g><path class="minor_road" style="fill:none;stroke:#ccc;stroke-linejoin:round;stroke-linecap:round;" d="M-88.8694328888887,476.52605458162725L-49.8903677155613,411.01377628557384L-81.89756757333816,396.9989695008844L-94.3872728177812,401.0203502215445L-103.27919729777932,396.788897337392L-161.38428871111682,369.20939563959837"></path><path class="minor_road" style="fill:none;stroke:#ccc;stroke-linejoin:round;stroke-linecap:round;" d="M-129.37708885333268,452.0077536813915L-103.27919729777932,396.788897337392"></path><path class="minor_road" style="fill:none;stroke:#ccc;stroke-linejoin:round;stroke-linecap:round;" d="M-161.38428871111682,329.56563983112574L-160.78776547555753,313.5400464627892L-158.12205226666993,245.02592074498534"></path><path class="minor_road" style="fill:none;stroke:#ccc;stroke-linejoin:round;stroke-linecap:round;" d="M-160.78776547555753,313.5400464627892L-161.38428871111682,313.51003597304225"></path><path class="major_road" style="fill:none;stroke:#ccc;stroke-linejoin:round;stroke-linecap:round;" d="M70.53276046222891,500.41409969329834L94.6173860977724,454.76869061775506"></path></g><g><path class="minor_road" style="fill:none;stroke:#ccc;stroke-linejoin:round;stroke-linecap:round;" d="M238.75231288888608,245.02592074498534L223.61553578666644,298.02461320348084L257.7851323733339,476.2559633795172"></path><path class="minor_road" style="fill:none;stroke:#ccc;stroke-linejoin:round;stroke-linecap:round;" d="M114.7314039466728,417.9161383640021L257.7851323733339,476.2559633795172L262.33362204443984,500.41409969329834"></path><path class="major_road" style="fill:none;stroke:#ccc;stroke-linejoin:round;stroke-linecap:round;" d="M94.6173860977724,454.76869061775506L111.26411263999762,423.19794349744916L114.7314039466728,417.9161383640021L117.54624796444114,411.7640332020819L147.44697514666768,359.1559181381017L181.48608227555815,281.0686553064734L187.60044544000266,267.0537148937583L195.9890534399965,245.02592074498534"></path></g><g><path class="minor_road" style="fill:none;stroke:#ccc;stroke-linejoin:round;stroke-linecap:round;" d="M606.6207357155654,292.95283332280815L596.4611993600047,245.02592074498534"></path></g><g><path class="minor_road" style="fill:none;stroke:#ccc;stroke-linejoin:round;stroke-linecap:round;" d="M651.043075413334,500.41409969329834L629.6055216355599,401.5005150102079L606.6207357155654,292.95283332280815"></path><path class="rail" style="fill:none;stroke:#ccc;stroke-linejoin:round;stroke-linecap:round;" d="M668.0999116800012,245.02592074498534L675.2581905066618,274.34628740511835L692.1845373155593,350.06276643276215L712.4476859733404,450.4172136634588L720.8549353244525,500.41409969329834"></path><path class="rail" style="fill:none;stroke:#ccc;stroke-linejoin:round;stroke-linecap:round;" d="M679.3965704533257,245.02592074498534L690.0034992355577,289.0214523486793L710.6394749155588,393.09762885794044L728.5165306311101,496.9629399832338L729.0198471111071,500.41409969329834"></path><path class="rail" style="fill:none;stroke:#ccc;stroke-linejoin:round;stroke-linecap:round;" d="M742.1992823466644,500.41409969329834L740.5029193955561,490.1506482530385L725.3847836444475,413.53463936038315L703.4811960888837,307.8080412633717L688.3257776355604,245.02592074498534"></path><path class="rail" style="fill:none;stroke:#ccc;stroke-linejoin:round;stroke-linecap:round;" d="M750.0472911644465,500.41409969329834L708.7566984533332,286.5605873465538L698.8208583111045,245.02592074498534"></path><path class="highway" style="fill:none;stroke:#ccc;stroke-linejoin:round;stroke-linecap:round;" d="M854.1778784711132,500.41409969329834L820.0269232355568,330.4359430540353L794.1340865422244,245.02592074498534"></path><path class="highway" style="fill:none;stroke:#ccc;stroke-linejoin:round;stroke-linecap:round;" d="M840.5883335111066,245.02592074498534L861.597136213335,312.81979463249445L862.6037691733363,317.92157760448754"></path></g><g><path class="path" style="fill:none;stroke:#ccc;stroke-linejoin:round;stroke-linecap:round;" d="M-13.390602239996952,737.0415312685072L70.60732586667291,704.0009661018848L94.6173860977724,698.3891636952758"></path><path class="minor_road" style="fill:none;stroke:#ccc;stroke-linejoin:round;stroke-linecap:round;" d="M-18.442408391107165,616.1024695113301L-72.27863039999647,616.1024695113301"></path><path class="minor_road" style="fill:none;stroke:#ccc;stroke-linejoin:round;stroke-linecap:round;" d="M-148.6336045511125,756.6077500823885L-159.12868522666395,741.8130504060537L-161.38428871111682,728.6988711431623"></path><path class="minor_road" style="fill:none;stroke:#ccc;stroke-linejoin:round;stroke-linecap:round;" d="M-71.43976960000145,597.0762266144156L-72.27863039999647,616.1024695113301L-73.95635200000106,654.5750120040029L-83.4261583644402,664.0580869093537L-142.426034631113,661.7773479800671L-161.38428871111682,659.6466573178768"></path><path class="major_road" style="fill:none;stroke:#ccc;stroke-linejoin:round;stroke-linecap:round;" d="M-80.77908650666359,756.6077500823885L-73.28526335999777,746.7646251097322L-38.090392462218006,684.0745556540787L14.627348480004002,598.0965620800853L67.99753671110375,505.18570167571306L70.53276046222891,500.41409969329834"></path></g><g><path class="path" style="fill:none;stroke:#ccc;stroke-linejoin:round;stroke-linecap:round;" d="M94.6173860977724,698.3891636952758L109.1203572622253,694.998073425144L291.50733653333737,654.9351288918406"></path><path class="minor_road" style="fill:none;stroke:#ccc;stroke-linejoin:round;stroke-linecap:round;" d="M262.33362204443984,500.41409969329834L291.50733653333737,654.9351288918406L294.750931626666,672.100689580664L310.7079281777842,756.6077500823885"></path><path class="minor_road" style="fill:none;stroke:#ccc;stroke-linejoin:round;stroke-linecap:round;" d="M95.62401905778097,714.0241796206683L135.72156529778294,725.1277308966964L249.4338070755548,756.6077500823885"></path><path class="minor_road" style="fill:none;stroke:#ccc;stroke-linejoin:round;stroke-linecap:round;" d="M127.51937080888456,756.6077500823885L135.72156529778294,725.1277308966964"></path><path class="minor_road" style="fill:none;stroke:#ccc;stroke-linejoin:round;stroke-linecap:round;" d="M294.750931626666,672.100689580664L350.6004195555579,660.3068713620305"></path></g><g><path class="minor_road" style="fill:none;stroke:#ccc;stroke-linejoin:round;stroke-linecap:round;" d="M563.6337800533365,610.520640751347L606.6207357155654,600.9474990088493"></path><path class="minor_road" style="fill:none;stroke:#ccc;stroke-linejoin:round;stroke-linecap:round;" d="M402.5911478044509,649.3533160351217L525.1207486577769,623.5148944854736"></path><path class="minor_road" style="fill:none;stroke:#ccc;stroke-linejoin:round;stroke-linecap:round;" d="M446.4169642666602,756.6077500823885L431.2615458133296,679.7531615905464"></path><path class="minor_road" style="fill:none;stroke:#ccc;stroke-linejoin:round;stroke-linecap:round;" d="M498.6313887288925,756.6077500823885L482.63710947555955,670.5101752541959L431.2615458133296,679.7531615905464L410.1222536533314,683.504371792078L402.5911478044509,649.3533160351217"></path><path class="minor_road" style="fill:none;stroke:#ccc;stroke-linejoin:round;stroke-linecap:round;" d="M350.6004195555579,660.3068713620305L402.5911478044509,649.3533160351217"></path></g><g><path class="path" style="fill:none;stroke:#ccc;stroke-linejoin:round;stroke-linecap:round;" d="M653.4291683555566,590.4740541055799L668.6032281599983,677.5024349745363L682.1927731199976,756.6077500823885"></path><path class="minor_road" style="fill:none;stroke:#ccc;stroke-linejoin:round;stroke-linecap:round;" d="M606.6207357155654,600.9474990088493L653.4291683555566,590.4740541055799L640.1006023111113,541.0476882886142L651.602315946664,503.0249764546752L651.043075413334,500.41409969329834"></path><path class="rail" style="fill:none;stroke:#ccc;stroke-linejoin:round;stroke-linecap:round;" d="M720.8549353244525,500.41409969329834L729.5604462933334,552.3014303296804L743.746514488892,653.3746222984046L754.6144221866707,744.1537950374186L755.937958115559,756.6077500823885"></path><path class="rail" style="fill:none;stroke:#ccc;stroke-linejoin:round;stroke-linecap:round;" d="M729.0198471111071,500.41409969329834L758.6595953777796,701.3301085568964L765.7433087999962,756.6077500823885"></path><path class="rail" style="fill:none;stroke:#ccc;stroke-linejoin:round;stroke-linecap:round;" d="M785.2794447644483,756.6077500823885L776.4061616355539,701.3901278413832L758.5291059200026,598.8167988359928L742.1992823466644,500.41409969329834"></path><path class="rail" style="fill:none;stroke:#ccc;stroke-linejoin:round;stroke-linecap:round;" d="M793.9663143822254,756.6077500823885L772.7151741155612,632.8779518604279L752.0791984355528,510.947633927688L750.0472911644465,500.41409969329834"></path><path class="highway" style="fill:none;stroke:#ccc;stroke-linejoin:round;stroke-linecap:round;" d="M862.6037691733363,542.3381178509444L854.1778784711132,500.41409969329834"></path></g><g><path class="minor_road" style="fill:none;stroke:#ccc;stroke-linejoin:round;stroke-linecap:round;" d="M31.609619342227234,940.0246808379889L94.6173860977724,956.649719113484"></path><path class="minor_road" style="fill:none;stroke:#ccc;stroke-linejoin:round;stroke-linecap:round;" d="M-161.38428871111682,938.3141613043845L-137.39286983111379,972.0143573898822L-58.782292195552145,1012.8265937138349M94.6173860977724,923.3696131333709L10.619457991117088,902.0030820611864L-13.390602239996952,941.0149815194309L94.6173860977724,992.9006347786635"></path><path class="minor_road" style="fill:none;stroke:#ccc;stroke-linejoin:round;stroke-linecap:round;" d="M-110.23242126221885,795.3499808385968L-131.9495953066653,780.1952096577734L-148.6336045511125,756.6077500823885"></path><path class="major_road" style="fill:none;stroke:#ccc;stroke-linejoin:round;stroke-linecap:round;" d="M-161.38428871111682,885.0778847914189L-123.41185649777617,833.731989312917L-110.23242126221885,795.3499808385968L-80.77908650666359,756.6077500823885"></path></g><g><path class="minor_road" style="fill:none;stroke:#ccc;stroke-linejoin:round;stroke-linecap:round;" d="M337.7006045866656,895.2810204140842L340.3476764444422,880.1263603419065L344.1318707200044,855.5487669054419L334.60614030222496,820.0477203503251"></path><path class="minor_road" style="fill:none;stroke:#ccc;stroke-linejoin:round;stroke-linecap:round;" d="M94.6173860977724,956.649719113484L146.9250173155524,970.453887110576"></path><path class="minor_road" style="fill:none;stroke:#ccc;stroke-linejoin:round;stroke-linecap:round;" d="M340.3476764444422,880.1263603419065L350.6004195555579,883.2173121813685"></path><path class="minor_road" style="fill:none;stroke:#ccc;stroke-linejoin:round;stroke-linecap:round;" d="M310.7079281777842,756.6077500823885L311.4162995200022,760.3589391317219L318.611861048892,798.4109424762428L334.60614030222496,820.0477203503251L350.6004195555579,823.858910670504"></path><path class="minor_road" style="fill:none;stroke:#ccc;stroke-linejoin:round;stroke-linecap:round;" d="M134.58444288000464,1012.8265937138349L134.77085639110737,1012.196405697614M134.77085639110737,1012.196405697614L146.9250173155524,970.453887110576L156.11520341334108,939.0043709669262L94.6173860977724,923.3696131333709M94.6173860977724,992.9006347786635L134.77085639110737,1012.196405697614"></path><path class="minor_road" style="fill:none;stroke:#ccc;stroke-linejoin:round;stroke-linecap:round;" d="M249.4338070755548,756.6077500823885L281.60877909333067,765.520573573187L311.4162995200022,760.3589391317219"></path><path class="minor_road" style="fill:none;stroke:#ccc;stroke-linejoin:round;stroke-linecap:round;" d="M120.11875441778102,784.9967231396586L127.51937080888456,756.6077500823885"></path></g><g><path class="path" style="fill:none;stroke:#ccc;stroke-linejoin:round;stroke-linecap:round;" d="M528.681246720007,1012.8265937138349L531.1046223644444,1010.4258773121983"></path><path class="minor_road" style="fill:none;stroke:#ccc;stroke-linejoin:round;stroke-linecap:round;" d="M457.4526441244452,812.5753834638745L446.4169642666602,756.6077500823885"></path><path class="minor_road" style="fill:none;stroke:#ccc;stroke-linejoin:round;stroke-linecap:round;" d="M507.3368996977806,803.4525248575956L498.6313887288925,756.6077500823885"></path><path class="minor_road" style="fill:none;stroke:#ccc;stroke-linejoin:round;stroke-linecap:round;" d="M350.6004195555579,883.2173121813685L366.6133401600091,888.0187893770635L550.1188004977812,895.0109375081956L547.8631970133283,974.7751889973879L545.9617792000063,1010.8159937541932L545.924496497777,1012.8265937138349"></path><path class="minor_road" style="fill:none;stroke:#ccc;stroke-linejoin:round;stroke-linecap:round;" d="M350.6004195555579,823.858910670504L370.13655552000273,828.5403713490814L457.4526441244452,812.5753834638745L507.3368996977806,803.4525248575956"></path></g><g><path class="path" style="fill:none;stroke:#ccc;stroke-linejoin:round;stroke-linecap:round;" d="M682.1927731199976,756.6077500823885L693.6012799999953,823.0186483301222"></path><path class="rail" style="fill:none;stroke:#ccc;stroke-linejoin:round;stroke-linecap:round;" d="M755.937958115559,756.6077500823885L764.2147180088868,834.2121388539672L772.305064391112,941.0449906289577L777.1145329777792,1012.8265937138349"></path><path class="rail" style="fill:none;stroke:#ccc;stroke-linejoin:round;stroke-linecap:round;" d="M765.7433087999962,756.6077500823885L772.7151741155612,811.1649419087917L783.3966683022227,915.2071220688522L788.2247782400009,1012.8265937138349"></path><path class="rail" style="fill:none;stroke:#ccc;stroke-linejoin:round;stroke-linecap:round;" d="M826.0667209955573,1012.8265937138349L815.0869651911125,934.3529573641717L795.1966435555587,818.3371857628226L785.2794447644483,756.6077500823885"></path><path class="rail" style="fill:none;stroke:#ccc;stroke-linejoin:round;stroke-linecap:round;" d="M834.6603838577794,1012.8265937138349L827.0360712533293,960.1607805602252L794.4696308622297,759.5186728704721L793.9663143822254,756.6077500823885"></path></g><path class="waypath" style="fill:none;stroke:orange; stroke-width:5;stroke-linejoin:round; stroke-linecap:round}" d="M522.2499805866682,544.2287469822913L524.9156937955631,556.5928548462689L533.1738123377872,554.8222672697157L544.0603613866697,605.2088983561844L472.10474609777884,620.7539917323738L474.58404579555645,632.2177364863455L446.5660950755555,638.2797127999365L444.4409810488942,628.5265317615122L371.25503658667003,644.4017059449106L357.5350021688937,581.1709874048829L336.56348216889455,585.7324918694794L326.60900067556213,539.9673285633326L342.4914318222218,536.5161788780242L323.94328746666724,451.1974786054343L308.8251517155586,454.49859899282455L284.05079608889355,340.7595356274396L297.90131996445416,337.75849208049476L286.9588468622169,287.55093551054597L272.71685461333254,290.642021747306L255.95827996444132,213.8148163035512L295.608433777772,205.17172859236598L297.6216996977819,214.38501981645823L305.973024995561,212.55436635762453L300.2501302044475,186.35498742572963L441.0855378488923,155.56390038877726L446.3051161600015,188.60579515248537L449.9961036800014,196.73871064186096L522.2499805866682,544.2287469822913"></path><path class="center" style="fill:none; stroke:red; stroke-width:1;stroke-linejoin:round; stroke-linecap:round}" d="M400,400m0,4.5a4.5,4.5 0 1,1 0,-9a4.5,4.5 0 1,1 0,9z"></path></svg>
