<svg xmlns="http://www.w3.org/2000/svg" version="1.1" width="800" height="800"><g></g><g><path class="minor_road" style="fill:none;stroke:#ccc;stroke-linejoin:round;stroke-linecap:round;" d="M304.4817169066664,188.13136583194137L390.45562823112414,168.985082346946"></path><path class="minor_road" style="fill:none;stroke:#ccc;stroke-linejoin:round;stroke-linecap:round;" d="M180.10662229332956,224.1431478522718L227.45565411554708,214.11987330019474"></path></g><g><path class="path" style="fill:none;stroke:#ccc;stroke-linejoin:round;stroke-linecap:round;" d="M484.0724935111066,148.03819254040718L497.3451355022262,224.1431478522718"></path><path class="minor_road" style="fill:none;stroke:#ccc;stroke-linejoin:round;stroke-linecap:round;" d="M390.45562823112414,168.985082346946L484.0724935111066,148.03819254040718L457.41536142221594,49.18546090647578L480.4187886933214,-26.85996276140213L479.3003076266614,-32.081716284155846"></path><path class="rail" style="fill:none;stroke:#ccc;stroke-linejoin:round;stroke-linecap:round;" d="M618.9240274488984,-32.081716284155846L636.3350493866601,71.69294498860836L646.4386616888805,143.77678890153766"></path><path class="rail" style="fill:none;stroke:#ccc;stroke-linejoin:round;stroke-linecap:round;" d="M635.2538510222075,-32.081716284155846L646.4386616888805,43.90370195731521"></path></g><g><path class="rail" style="fill:none;stroke:#ccc;stroke-linejoin:round;stroke-linecap:round;" d="M646.4386616888805,143.77678890153766L657.7353204622195,224.1431478522718"></path><path class="rail" style="fill:none;stroke:#ccc;stroke-linejoin:round;stroke-linecap:round;" d="M646.4386616888805,43.90370195731521L673.0585110755492,224.1431478522718"></path><path class="rail" style="fill:none;stroke:#ccc;stroke-linejoin:round;stroke-linecap:round;" d="M704.6369598577876,224.1431478522718L694.2723686399986,164.7236820012331L661.6127214933222,-32.081716284155846"></path><path class="rail" style="fill:none;stroke:#ccc;stroke-linejoin:round;stroke-linecap:round;" d="M721.1531969422213,224.1431478522718L681.372553671099,-11.01464781537652L677.3087391288864,-32.081716284155846"></path><path class="highway" style="fill:none;stroke:#ccc;stroke-linejoin:round;stroke-linecap:round;" d="M902.421695146666,51.766320031136274L885.5699137422198,-32.081716284155846"></path></g><g><path class="minor_road" style="fill:none;stroke:#ccc;stroke-linejoin:round;stroke-linecap:round;" d="M-17.60354759110487,265.79671639949083L134.4353120711021,233.74628170207143"></path><path class="minor_road" style="fill:none;stroke:#ccc;stroke-linejoin:round;stroke-linecap:round;" d="M70.0480853333138,480.3055844940245L39.73724842665251,326.5964075103402"></path><path class="minor_road" style="fill:none;stroke:#ccc;stroke-linejoin:round;stroke-linecap:round;" d="M134.4353120711021,309.55090069025755L39.73724842665251,326.5964075103402L-2.541335893343785,334.0988279134035L-17.60354759110487,265.79671639949083"></path><path class="minor_road" style="fill:none;stroke:#ccc;stroke-linejoin:round;stroke-linecap:round;" d="M-121.58500408889086,287.7038270533085L-17.60354759110487,265.79671639949083"></path></g><g><path class="minor_road" style="fill:none;stroke:#ccc;stroke-linejoin:round;stroke-linecap:round;" d="M134.4353120711021,233.74628170207143L180.10662229332956,224.1431478522718"></path><path class="minor_road" style="fill:none;stroke:#ccc;stroke-linejoin:round;stroke-linecap:round;" d="M174.47693425777834,480.3055844940245L142.48837575111247,308.11043483763933L134.4353120711021,309.55090069025755"></path></g><g><path class="path" style="fill:none;stroke:#ccc;stroke-linejoin:round;stroke-linecap:round;" d="M497.3451355022262,224.1431478522718L514.4206131199899,322.0949542783201L541.5997030399885,480.3055844940245"></path></g><g><path class="rail" style="fill:none;stroke:#ccc;stroke-linejoin:round;stroke-linecap:round;" d="M657.7353204622195,224.1431478522718L664.7071857777773,273.8393289260566L686.4430011733348,455.3976744040847L689.0900730311114,480.3055844940245"></path><path class="rail" style="fill:none;stroke:#ccc;stroke-linejoin:round;stroke-linecap:round;" d="M673.0585110755492,224.1431478522718L694.5333475555526,369.75030144304037L708.7007743999857,480.3055844940245"></path><path class="rail" style="fill:none;stroke:#ccc;stroke-linejoin:round;stroke-linecap:round;" d="M747.7730463288899,480.3055844940245L730.0264800711011,369.8703400120139L704.6369598577876,224.1431478522718"></path><path class="rail" style="fill:none;stroke:#ccc;stroke-linejoin:round;stroke-linecap:round;" d="M765.1467855644441,480.3055844940245L722.6445050311158,232.8459880501032L721.1531969422213,224.1431478522718"></path></g><g><path class="minor_road" style="fill:none;stroke:#ccc;stroke-linejoin:round;stroke-linecap:round;" d="M92.11944504888379,592.2408512569964L70.0480853333138,480.3055844940245"></path><path class="minor_road" style="fill:none;stroke:#ccc;stroke-linejoin:round;stroke-linecap:round;" d="M-121.58500408889086,733.5247086919844L-111.51867448889243,736.525632314384"></path><path class="minor_road" style="fill:none;stroke:#ccc;stroke-linejoin:round;stroke-linecap:round;" d="M-121.58500408889086,614.8079056702554L-82.51273216000118,624.1708270274103L92.11944504888379,592.2408512569964L134.4353120711021,584.4984267018735"></path></g><g><path class="minor_road" style="fill:none;stroke:#ccc;stroke-linejoin:round;stroke-linecap:round;" d="M191.88795619555458,573.9951340444386L174.47693425777834,480.3055844940245"></path><path class="minor_road" style="fill:none;stroke:#ccc;stroke-linejoin:round;stroke-linecap:round;" d="M134.4353120711021,584.4984267018735L191.88795619555458,573.9951340444386"></path></g><g><path class="path" style="fill:none;stroke:#ccc;stroke-linejoin:round;stroke-linecap:round;" d="M541.5997030399885,480.3055844940245L564.416716799984,613.1273809894919"></path></g><g><path class="rail" style="fill:none;stroke:#ccc;stroke-linejoin:round;stroke-linecap:round;" d="M689.0900730311114,480.3055844940245L705.6435928177671,635.5143620371819L713.2865467733209,736.525632314384"></path><path class="rail" style="fill:none;stroke:#ccc;stroke-linejoin:round;stroke-linecap:round;" d="M708.7007743999857,480.3055844940245L722.6445050311158,589.4199681468308L737.7439994311135,736.525632314384"></path><path class="rail" style="fill:none;stroke:#ccc;stroke-linejoin:round;stroke-linecap:round;" d="M790.3498922666622,736.525632314384L767.6074439111107,603.7644558548927L747.7730463288899,480.3055844940245"></path><path class="rail" style="fill:none;stroke:#ccc;stroke-linejoin:round;stroke-linecap:round;" d="M806.7915639466519,736.525632314384L766.1534185244527,486.1274300701916L765.1467855644441,480.3055844940245"></path></g><g><path class="minor_road" style="fill:none;stroke:#ccc;stroke-linejoin:round;stroke-linecap:round;" d="M-111.51867448889243,736.525632314384L-89.55916287998843,743.1276630833745L134.4353120711021,751.7103007026017"></path></g><g><path class="path" style="fill:none;stroke:#ccc;stroke-linejoin:round;stroke-linecap:round;" d="M234.57665024000744,992.7432717569172L239.4234015288821,987.941838953644"></path><path class="minor_road" style="fill:none;stroke:#ccc;stroke-linejoin:round;stroke-linecap:round;" d="M134.4353120711021,751.7103007026017L277.45175779555575,757.1119593456388L272.94055082665,916.6404623240232L269.1377152000059,988.7220718376338L269.06314979554736,992.7432717569172"></path></g><g></g><g><path class="rail" style="fill:none;stroke:#ccc;stroke-linejoin:round;stroke-linecap:round;" d="M713.2865467733209,736.525632314384L721.8242855822173,849.180065587163L731.4432227555517,992.7432717569172"></path><path class="rail" style="fill:none;stroke:#ccc;stroke-linejoin:round;stroke-linecap:round;" d="M737.7439994311135,736.525632314384L744.0074934044387,797.5043284669518L753.6637132799951,992.7432717569172"></path><path class="rail" style="fill:none;stroke:#ccc;stroke-linejoin:round;stroke-linecap:round;" d="M829.3475987911079,992.7432717569172L807.3880871822184,835.795999057591L790.3498922666622,736.525632314384"></path><path class="rail" style="fill:none;stroke:#ccc;stroke-linejoin:round;stroke-linecap:round;" d="M846.5349245155521,992.7432717569172L831.2862993066519,887.411645449698L806.7915639466519,736.525632314384"></path></g><path class="waypath" style="fill:none;stroke:orange; stroke-width:5;stroke-linejoin:round; stroke-linecap:round}" d="M280.4716566755378,203.73647722229362L421.1392921599909,174.0267382338643L455.10383388443734,334.6390021108091L488.0617426489043,327.6167368106544L519.5656260266551,476.6444232314825L482.693033528878,484.4468974620104L506.51668024888204,597.1623913273215L369.76372849776817,626.0314071588218L280.4716566755378,203.73647722229362"></path><path class="center" style="fill:none; stroke:red; stroke-width:1;stroke-linejoin:round; stroke-linecap:round}" d="M400,400m0,4.5a4.5,4.5 0 1,1 0,-9a4.5,4.5 0 1,1 0,9z"></path></svg>
