<svg xmlns="http://www.w3.org/2000/svg" version="1.1" width="800" height="800"><g><path class="path" style="fill:none;stroke:#ccc;stroke-linejoin:round;stroke-linecap:round;" d="M154.99672234666286,-32.04986350238323L150.75581496889208,-30.639313351362944"></path><path class="path" style="fill:none;stroke:#ccc;stroke-linejoin:round;stroke-linecap:round;" d="M-30.438117831112322,171.8766438672319L-25.684573297781753,97.11930533032864L-41.1755360711104,7.880597568117082"></path><path class="path" style="fill:none;stroke:#ccc;stroke-linejoin:round;stroke-linecap:round;" d="M-23.960248320003302,209.87022380065173L-23.68994872889016,205.1285405587405L-32.190404835553636,204.3782739220187L-30.438117831112322,171.8766438672319L26.86539548444489,173.9023732636124"></path><path class="path" style="fill:none;stroke:#ccc;stroke-linejoin:round;stroke-linecap:round;" d="M37.96632007111111,-44.114580972120166L43.39095324444497,-46.335451691411436"></path><path class="minor_road" style="fill:none;stroke:#ccc;stroke-linejoin:round;stroke-linecap:round;" d="M102.96871139555151,-13.367600615136325L103.5745553066663,8.870978073216975L95.57741567999983,13.627803632989526L59.31066709333027,11.887135989032686L50.567873422223784,1.6381959347054362L43.568046079999476,-11.626926523633301L43.22318108444597,-21.365703676827252"></path><path class="minor_road" style="fill:none;stroke:#ccc;stroke-linejoin:round;stroke-linecap:round;" d="M-15.189492622223042,-31.374600098468363L-17.342568675554503,-46.335451691411436"></path><path class="minor_road" style="fill:none;stroke:#ccc;stroke-linejoin:round;stroke-linecap:round;" d="M36.55889806222331,-46.335451691411436L37.96632007111111,-44.114580972120166L43.22318108444597,-21.365703676827252L48.72237966222019,-11.116729027591646L63.47700906666432,-4.619217209517956L102.96871139555151,-13.367600615136325L154.04601344000184,-10.336427047848701"></path><path class="minor_road" style="fill:none;stroke:#ccc;stroke-linejoin:round;stroke-linecap:round;" d="M-24.687261013335956,61.87113076914102L20.89084245333288,57.009299281053245"></path><path class="minor_road" style="fill:none;stroke:#ccc;stroke-linejoin:round;stroke-linecap:round;" d="M25.579142257778585,209.87022380065173L26.86539548444489,173.9023732636124L28.07708330666719,140.125132586807L54.32410567111219,140.8754063025117L55.32141795555435,119.62762281298637L67.81112319999738,119.62762281298637L69.29311061333283,59.47022676188499"></path><path class="minor_road" style="fill:none;stroke:#ccc;stroke-linejoin:round;stroke-linecap:round;" d="M94.71991352889017,186.89703787397593L93.98358015999838,209.87022380065173"></path><path class="minor_road" style="fill:none;stroke:#ccc;stroke-linejoin:round;stroke-linecap:round;" d="M148.21127054222234,-46.335451691411436L150.75581496889208,-30.639313351362944L154.04601344000184,-10.336427047848701L154.99672234666286,-1.738105408847332"></path><path class="minor_road" style="fill:none;stroke:#ccc;stroke-linejoin:round;stroke-linecap:round;" d="M154.99672234666286,63.82186465058476L69.29311061333283,59.47022676188499L20.89084245333288,57.009299281053245L22.978673777779477,69.64405168499798L23.565876337779628,99.130051381886L-25.684573297781753,97.11930533032864"></path></g><g><path class="path" style="fill:none;stroke:#ccc;stroke-linejoin:round;stroke-linecap:round;" d="M203.7531761777791,54.51835958100855L204.4895095466636,5.614726485684514L175.74454613333364,-32.13989862985909L171.5782041599996,-33.820554530248046L166.49843598222287,-35.89136326406151L154.99672234666286,-32.04986350238323"></path><path class="path" style="fill:none;stroke:#ccc;stroke-linejoin:round;stroke-linecap:round;" d="M279.4929857422212,96.5791047969833L278.7473316977812,92.36253804992884L262.3709047466691,75.15111577138305"></path><path class="minor_road" style="fill:none;stroke:#ccc;stroke-linejoin:round;stroke-linecap:round;" d="M410.9890764800002,169.490784031339L363.9942303288881,178.61406745016575L355.0650231466643,209.87022380065173"></path><path class="minor_road" style="fill:none;stroke:#ccc;stroke-linejoin:round;stroke-linecap:round;" d="M171.5782041599996,-33.820554530248046L170.80458808888943,-46.335451691411436"></path><path class="minor_road" style="fill:none;stroke:#ccc;stroke-linejoin:round;stroke-linecap:round;" d="M263.9927022933334,61.8561251219362L331.50235534222156,65.60753594525158L341.4941195377796,54.12821231409907L343.50738545777494,15.12837882898748L345.75366826666504,-33.13028509449214L378.3014673066682,-34.16568927466869"></path><path class="minor_road" style="fill:none;stroke:#ccc;stroke-linejoin:round;stroke-linecap:round;" d="M393.09337941333433,81.06332675553858L410.9890764800002,85.61002359353006M410.9890764800002,112.4399748435244L409.24611015111077,120.93310294859111L410.9890764800002,120.51294844783843"></path><path class="minor_road" style="fill:none;stroke:#ccc;stroke-linejoin:round;stroke-linecap:round;" d="M403.53253603556004,-19.309905185364187L410.9890764800002,-18.34953238070011M410.9890764800002,1.0379647091031075L403.20631239111026,0.21264668367803097"></path><path class="minor_road" style="fill:none;stroke:#ccc;stroke-linejoin:round;stroke-linecap:round;" d="M160.65437240888787,49.146329899318516L179.7524366222242,48.96626179572195M179.7524366222242,48.96626179572195L190.99317134221928,48.86122206132859L197.7413404444451,54.36830294318497L203.7531761777791,54.51835958100855L245.23950307555424,55.61377293523401L245.23950307555424,78.10722190607339L178.7551243377784,75.85637978743762L179.7524366222242,48.96626179572195"></path><path class="minor_road" style="fill:none;stroke:#ccc;stroke-linejoin:round;stroke-linecap:round;" d="M162.31345265777782,64.18200007453561L154.99672234666286,63.82186465058476"></path><path class="minor_road" style="fill:none;stroke:#ccc;stroke-linejoin:round;stroke-linecap:round;" d="M154.99672234666286,-1.738105408847332L160.65437240888787,49.146329899318516L162.31345265777782,64.18200007453561"></path><path class="minor_road" style="fill:none;stroke:#ccc;stroke-linejoin:round;stroke-linecap:round;" d="M156.6278405688863,209.87022380065173L162.31345265777782,64.18200007453561"></path><path class="minor_road" style="fill:none;stroke:#ccc;stroke-linejoin:round;stroke-linecap:round;" d="M403.7003081955554,-46.335451691411436L403.53253603556004,-19.309905185364187L403.41136725333126,-2.218290625140071L403.20631239111026,0.21264668367803097L399.608531626669,41.05826605297625L393.09337941333433,81.06332675553858L388.7779066311123,107.47314060572535L382.74742954666726,118.38216452207416L375.1510789688873,123.10890261270106L361.01161415111346,123.46903490461409"></path><path class="major_road" style="fill:none;stroke:#ccc;stroke-linejoin:round;stroke-linecap:round;" d="M333.6833934222195,209.87022380065173L349.09047011555595,169.46077321004122L358.68144526222386,133.25262154173106L361.01161415111346,123.46903490461409L363.8544201955556,110.53427150007337L368.8969056711103,84.69468223117292L373.361509262224,50.0016533434391L375.9806190933341,16.448884728364646L378.3014673066682,-34.16568927466869L378.3107879822237,-37.331926234066486L378.12437447111006,-46.335451691411436"></path></g><g><path class="minor_road" style="fill:none;stroke:#ccc;stroke-linejoin:round;stroke-linecap:round;" d="M533.9194663822236,209.87022380065173L526.2485503999997,173.61727064289153L515.4924908088906,150.86904427129775L484.995240391112,155.13059114012867L410.9890764800002,169.490784031339"></path><path class="minor_road" style="fill:none;stroke:#ccc;stroke-linejoin:round;stroke-linecap:round;" d="M666.9907512888894,68.45860678888857L662.9735401244434,68.63867438025773L666.9907512888894,83.20912795048207"></path><path class="minor_road" style="fill:none;stroke:#ccc;stroke-linejoin:round;stroke-linecap:round;" d="M662.9735401244434,68.63867438025773L657.259966008889,59.920396328903735L654.0163709155568,11.421957490965724L653.2520755199985,-29.82899744156748"></path><path class="minor_road" style="fill:none;stroke:#ccc;stroke-linejoin:round;stroke-linecap:round;" d="M447.5074833066683,-37.932160896249115L450.00542435555326,-30.144120286218822L450.24776191999626,-13.322583176195621"></path><path class="minor_road" style="fill:none;stroke:#ccc;stroke-linejoin:round;stroke-linecap:round;" d="M447.5074833066683,-37.932160896249115L418.7438785422237,-40.88831736706197L418.49222030222154,-46.335451691411436M445.12139036444205,-46.335451691411436L447.5074833066683,-37.932160896249115"></path><path class="minor_road" style="fill:none;stroke:#ccc;stroke-linejoin:round;stroke-linecap:round;" d="M410.9890764800002,-18.34953238070011L450.24776191999626,-13.322583176195621L453.9853528177773,-9.06093362532556L453.48203633777666,0.9329242380335927L447.7498208711113,4.924460971727967L410.9890764800002,1.0379647091031075"></path><path class="minor_road" style="fill:none;stroke:#ccc;stroke-linejoin:round;stroke-linecap:round;" d="M410.9890764800002,85.61002359353006L411.31530012444637,85.6850515678525M411.31530012444637,85.6850515678525L416.2459374933351,86.93051583506167L410.9890764800002,112.4399748435244M410.9890764800002,120.51294844783843L487.12967509332884,102.20619158167392L493.1321901511146,91.44719759467989L472.990210275555,38.17717234604061L419.7318701511067,32.92517547123134L411.31530012444637,85.6850515678525"></path><path class="rail" style="fill:none;stroke:#ccc;stroke-linejoin:round;stroke-linecap:round;" d="M498.5568233244412,-46.335451691411436L500.4023170844448,-41.8036757260561L536.8927618844427,66.17775020748377L547.9098003911131,102.86643612757325L560.9960288711081,150.19379892293364L575.3871519288841,209.87022380065173"></path><path class="rail" style="fill:none;stroke:#ccc;stroke-linejoin:round;stroke-linecap:round;" d="M585.0992958577735,209.87022380065173L578.8637639111148,183.80593052133918L566.8960164977798,137.1240369156003L541.6369857422214,50.24174411408603L525.0834659555512,-0.08746898360550404L508.46470143999977,-46.335451691411436"></path><path class="rail" style="fill:none;stroke:#ccc;stroke-linejoin:round;stroke-linecap:round;" d="M579.8517555200015,209.87022380065173L564.034569102223,144.29665338341147L546.1761547377791,80.68818661663681L529.8742931911111,29.74396396894008L513.5724316444466,-20.975552092306316L503.80436366222057,-46.335451691411436"></path><path class="rail" style="fill:none;stroke:#ccc;stroke-linejoin:round;stroke-linecap:round;" d="M492.57294961777734,-46.335451691411436L508.7629630577758,-1.5280243875458837L523.489630435557,44.04439835064113L537.4892851199984,87.69580099638551L549.9137456355566,132.54736346565187L559.9521132088885,169.850913872011L569.7388225422219,209.87022380065173"></path><path class="highway" style="fill:none;stroke:#ccc;stroke-linejoin:round;stroke-linecap:round;" d="M570.027763484446,-46.335451691411436L599.2853640533358,26.98291127383709L617.7496223288872,86.54037042707205L655.9830334577746,209.87022380065173"></path><path class="highway" style="fill:none;stroke:#ccc;stroke-linejoin:round;stroke-linecap:round;" d="M632.7559099733335,209.87022380065173L578.4909368888912,30.95942703075707L548.6274924088866,-46.335451691411436"></path></g><g><path class="minor_road" style="fill:none;stroke:#ccc;stroke-linejoin:round;stroke-linecap:round;" d="M692.1099719111116,209.87022380065173L688.7358873599987,198.6912501193583L682.2766592000007,177.26358219143003L667.223768177777,127.37046684231609"></path><path class="minor_road" style="fill:none;stroke:#ccc;stroke-linejoin:round;stroke-linecap:round;" d="M698.9606684444443,169.1306541711092L682.2766592000007,177.26358219143003"></path><path class="minor_road" style="fill:none;stroke:#ccc;stroke-linejoin:round;stroke-linecap:round;" d="M711.2173567999998,186.6269411686808L688.7358873599987,198.6912501193583"></path><path class="minor_road" style="fill:none;stroke:#ccc;stroke-linejoin:round;stroke-linecap:round;" d="M721.4700999111155,203.86809256393462L710.4530614044415,209.87022380065173"></path><path class="minor_road" style="fill:none;stroke:#ccc;stroke-linejoin:round;stroke-linecap:round;" d="M724.8441844622212,65.78760361205786L666.9907512888894,68.45860678888857M666.9907512888894,83.20912795048207L672.974624995557,104.8771804831922"></path><path class="minor_road" style="fill:none;stroke:#ccc;stroke-linejoin:round;stroke-linecap:round;" d="M808.1710239288914,209.87022380065173L789.7813310577767,178.08887876849622L768.8004903822184,141.98581124376506L743.0008604444447,106.18266344536096L733.1023030044416,89.06130959559232L724.8441844622212,65.78760361205786L718.1892221155576,29.44384960178286L715.3743780977784,-1.5880475351586938L717.4249267199957,-46.335451691411436"></path><path class="minor_road" style="fill:none;stroke:#ccc;stroke-linejoin:round;stroke-linecap:round;" d="M912.7117209600037,67.8583814483136L922.9924260977787,65.59253030549735"></path><path class="major_road" style="fill:none;stroke:#ccc;stroke-linejoin:round;stroke-linecap:round;" d="M911.1178854400023,-46.14037518110126L902.962294328885,-40.07800023816526L898.6747835733368,-36.88175027538091L890.5844371911116,-15.76853113155812"></path><path class="major_road" style="fill:none;stroke:#ccc;stroke-linejoin:round;stroke-linecap:round;" d="M852.3230640355578,-43.64939868450165L850.2631947377777,-46.335451691411436"></path><path class="major_road" style="fill:none;stroke:#ccc;stroke-linejoin:round;stroke-linecap:round;" d="M922.9924260977787,-41.908716855570674L911.1178854400023,-46.14037518110126"></path><path class="major_road" style="fill:none;stroke:#ccc;stroke-linejoin:round;stroke-linecap:round;" d="M886.2037196799974,-46.335451691411436L890.5844371911116,-15.76853113155812"></path><path class="major_road" style="fill:none;stroke:#ccc;stroke-linejoin:round;stroke-linecap:round;" d="M868.3359846399981,-46.335451691411436L868.3080226133316,-46.24541637580842"></path><path class="major_road" style="fill:none;stroke:#ccc;stroke-linejoin:round;stroke-linecap:round;" d="M868.3080226133316,-46.24541637580842L852.3230640355578,-43.64939868450165"></path><path class="major_road" style="fill:none;stroke:#ccc;stroke-linejoin:round;stroke-linecap:round;" d="M890.5844371911116,-15.76853113155812L890.5844371911116,-3.6138290967792273L912.7117209600037,67.8583814483136L919.6183415466658,92.54260501079261L922.9924260977787,114.82585465442389"></path><path class="major_road" style="fill:none;stroke:#ccc;stroke-linejoin:round;stroke-linecap:round;" d="M916.3747464533335,209.87022380065173L916.328143075556,200.05673647951335L911.4627504355558,141.49063068255782L900.4736739555592,86.63040398620069L888.2635889777812,46.04015438258648L862.1284147199985,-21.545773652382195L852.3230640355578,-43.64939868450165"></path><path class="major_road" style="fill:none;stroke:#ccc;stroke-linejoin:round;stroke-linecap:round;" d="M911.1178854400023,-46.14037518110126L908.8156785777755,-46.335451691411436"></path><path class="major_road" style="fill:none;stroke:#ccc;stroke-linejoin:round;stroke-linecap:round;" d="M869.2587315200035,-46.335451691411436L868.3080226133316,-46.24541637580842"></path></g><g><path class="path" style="fill:none;stroke:#ccc;stroke-linejoin:round;stroke-linecap:round;" d="M-10.426627413333335,465.6611384693533L-6.008627200000774,465.36104329582304L9.631466382223152,459.0890511823818"></path><path class="path" style="fill:none;stroke:#ccc;stroke-linejoin:round;stroke-linecap:round;" d="M110.97517169777711,331.90741072874516L112.81134478222157,267.3703731652349"></path><path class="path" style="fill:none;stroke:#ccc;stroke-linejoin:round;stroke-linecap:round;" d="M53.5598102755539,282.87072184402496L44.82633728000292,240.16590055078268"></path><path class="path" style="fill:none;stroke:#ccc;stroke-linejoin:round;stroke-linecap:round;" d="M-61.42936405333239,332.1174814635888L-75.93233521777802,359.27657201886177L-87.32220074666839,380.6136379567906L-101.00495246221908,406.2420367160812"></path><path class="path" style="fill:none;stroke:#ccc;stroke-linejoin:round;stroke-linecap:round;" d="M-101.00495246221908,260.8731206841767L-100.25929841777906,259.8677715966478"></path><path class="path" style="fill:none;stroke:#ccc;stroke-linejoin:round;stroke-linecap:round;" d="M-101.00495246221908,264.17426590714604L-100.25929841777906,259.8677715966478L-101.00495246221908,252.84532904345542"></path><path class="path" style="fill:none;stroke:#ccc;stroke-linejoin:round;stroke-linecap:round;" d="M-90.9945469155573,463.6054862802848L-86.39013319111473,465.6611384693533M-13.343998862223089,465.6611384693533L-15.189492622223042,461.5498334672302L-25.255822222221468,439.11766941752285L-15.692809102223691,419.8964721141383L-14.42519722666475,417.3756553279236"></path><path class="path" style="fill:none;stroke:#ccc;stroke-linejoin:round;stroke-linecap:round;" d="M-46.00364600889225,405.61183134745806L-87.32220074666839,380.6136379567906"></path><path class="path" style="fill:none;stroke:#ccc;stroke-linejoin:round;stroke-linecap:round;" d="M-75.93233521777802,359.27657201886177L-37.00919409777998,376.1121528139338L-21.49958997333306,360.6270212130621L-19.756623644443607,342.3059043623507"></path><path class="path" style="fill:none;stroke:#ccc;stroke-linejoin:round;stroke-linecap:round;" d="M-70.24672312888652,435.36646420601755L-15.189492622223042,461.5498334672302"></path><path class="path" style="fill:none;stroke:#ccc;stroke-linejoin:round;stroke-linecap:round;" d="M-37.00919409777998,376.1121528139338L-37.00919409777998,385.11512012872845L-46.00364600889225,405.61183134745806L-15.692809102223691,419.8964721141383"></path><path class="path" style="fill:none;stroke:#ccc;stroke-linejoin:round;stroke-linecap:round;" d="M-14.42519722666475,417.3756553279236L-3.193783182225161,412.3640287183225L32.066332444443105,396.63890093099326L25.103787804444437,379.11314324103296L10.56353393777681,342.62100998312235L-19.756623644443607,342.3059043623507L-23.68994872889016,342.2608892740682L-36.68297045333384,342.1258440054953"></path><path class="path" style="fill:none;stroke:#ccc;stroke-linejoin:round;stroke-linecap:round;" d="M5.763386026668741,284.1161500727758L-21.741927537776064,283.1258095735684L-28.67651015111187,282.87072184402496L-27.427539626667567,269.62115202564746L-27.17588138666906,264.8795103598386L-23.960248320003302,209.87022380065173"></path><path class="path" style="fill:none;stroke:#ccc;stroke-linejoin:round;stroke-linecap:round;" d="M32.066332444443105,396.63890093099326L39.718607075556065,413.8795209880918"></path><path class="path" style="fill:none;stroke:#ccc;stroke-linejoin:round;stroke-linecap:round;" d="M-23.68994872889016,342.2608892740682L-22.440978204445855,301.37205992732197L-21.741927537776064,283.1258095735684"></path><path class="path" style="fill:none;stroke:#ccc;stroke-linejoin:round;stroke-linecap:round;" d="M117.45304120888977,415.1549350116402L115.29996515555467,465.6611384693533"></path><path class="path" style="fill:none;stroke:#ccc;stroke-linejoin:round;stroke-linecap:round;" d="M10.56353393777681,342.62100998312235L9.566221653334651,304.37308326829225L13.480905386666564,302.69251036271453L53.5598102755539,282.87072184402496L79.5644950755559,283.87606754060835L75.82690417777849,354.56500274594873L25.103787804444437,379.11314324103296"></path><path class="path" style="fill:none;stroke:#ccc;stroke-linejoin:round;stroke-linecap:round;" d="M13.480905386666564,302.69251036271453L5.763386026668741,284.1161500727758L-1.8236438755557174,265.82483791559935"></path><path class="path" style="fill:none;stroke:#ccc;stroke-linejoin:round;stroke-linecap:round;" d="M-3.193783182225161,412.3640287183225L3.4798205155566393,428.0441056918353L9.062905173334002,450.11619118601084L9.631466382223152,459.0890511823818L10.032255431109661,465.6611384693533"></path><path class="minor_road" style="fill:none;stroke:#ccc;stroke-linejoin:round;stroke-linecap:round;" d="M-27.427539626667567,269.62115202564746L-6.1763993599961395,268.1206328673288L-1.8236438755557174,265.82483791559935L25.066505102222436,251.6449107863009L25.29952199110994,239.475658794865"></path><path class="minor_road" style="fill:none;stroke:#ccc;stroke-linejoin:round;stroke-linecap:round;" d="M53.06581447111239,218.37823577504605L25.30884266666908,217.38788572140038L-6.931374079998932,216.24748245161027"></path><path class="minor_road" style="fill:none;stroke:#ccc;stroke-linejoin:round;stroke-linecap:round;" d="M110.97517169777711,331.90741072874516L107.46127701333171,414.3896866226569"></path><path class="minor_road" style="fill:none;stroke:#ccc;stroke-linejoin:round;stroke-linecap:round;" d="M22.987994453334977,465.6611384693533L22.727015537777334,458.143750436604L47.46408846222039,413.83450636826456"></path><path class="minor_road" style="fill:none;stroke:#ccc;stroke-linejoin:round;stroke-linecap:round;" d="M140.06500010666423,268.39072633720934L112.81134478222157,267.3703731652349L99.56666481777575,266.8752017142251L100.31231886222304,242.14659389201552"></path><path class="minor_road" style="fill:none;stroke:#ccc;stroke-linejoin:round;stroke-linecap:round;" d="M25.29952199110994,239.475658794865L25.30884266666908,217.38788572140038L25.579142257778585,209.87022380065173"></path><path class="minor_road" style="fill:none;stroke:#ccc;stroke-linejoin:round;stroke-linecap:round;" d="M93.98358015999838,209.87022380065173L92.96762652444522,241.89150463230908"></path><path class="minor_road" style="fill:none;stroke:#ccc;stroke-linejoin:round;stroke-linecap:round;" d="M154.99672234666286,271.96196124795824L154.28835100444485,271.63184717670083"></path><path class="minor_road" style="fill:none;stroke:#ccc;stroke-linejoin:round;stroke-linecap:round;" d="M148.9662452622215,416.4903682600707L117.45304120888977,415.1549350116402L107.46127701333171,414.3896866226569L98.45750442666758,413.6994625143707L47.46408846222039,413.83450636826456L39.718607075556065,413.8795209880918L3.4798205155566393,428.0441056918353"></path><path class="minor_road" style="fill:none;stroke:#ccc;stroke-linejoin:round;stroke-linecap:round;" d="M154.99672234666286,417.18059208709747L148.9662452622215,416.4903682600707"></path><path class="minor_road" style="fill:none;stroke:#ccc;stroke-linejoin:round;stroke-linecap:round;" d="M154.99672234666286,244.11228141468018L100.31231886222304,242.14659389201552L92.96762652444522,241.89150463230908L44.82633728000292,240.16590055078268L25.29952199110994,239.475658794865L-0.6212767288889154,238.54533284157515L-11.824728746665642,241.35131557192653"></path><path class="minor_road" style="fill:none;stroke:#ccc;stroke-linejoin:round;stroke-linecap:round;" d="M154.99672234666286,451.7066989997402L148.9662452622215,416.4903682600707L154.28835100444485,271.63184717670083L154.99672234666286,252.14008334372193"></path></g><g><path class="path" style="fill:none;stroke:#ccc;stroke-linejoin:round;stroke-linecap:round;" d="M228.9935655822228,455.8780290624127L270.99252963555773,439.3577464791015L290.2490453333339,434.85630014073104L381.44253496888996,414.82482787407935"></path><path class="minor_road" style="fill:none;stroke:#ccc;stroke-linejoin:round;stroke-linecap:round;" d="M383.06433251555427,423.4076082184911L410.9890764800002,417.5106991091743"></path><path class="minor_road" style="fill:none;stroke:#ccc;stroke-linejoin:round;stroke-linecap:round;" d="M355.0650231466643,209.87022380065173L347.4966345955545,236.36957002989948L364.58143288888823,325.48524511791766"></path><path class="minor_road" style="fill:none;stroke:#ccc;stroke-linejoin:round;stroke-linecap:round;" d="M293.0545686755577,296.3153326101601L364.58143288888823,325.48524511791766L381.44253496888996,414.82482787407935L383.06433251555427,423.4076082184911L391.0428307911134,465.6611384693533"></path><path class="minor_road" style="fill:none;stroke:#ccc;stroke-linejoin:round;stroke-linecap:round;" d="M226.4676625066677,395.4084981838241L199.54955150222304,395.4084981838241"></path><path class="minor_road" style="fill:none;stroke:#ccc;stroke-linejoin:round;stroke-linecap:round;" d="M191.25415025777693,325.6202907189727L210.74368284444063,292.864151570946L194.7400829155522,285.85674817860126L188.49523029333068,287.8674385389313L184.04926805333162,285.75171209685504L154.99672234666286,271.96196124795824"></path><path class="minor_road" style="fill:none;stroke:#ccc;stroke-linejoin:round;stroke-linecap:round;" d="M171.00032227555494,313.3611402688548L184.04926805333162,285.75171209685504"></path><path class="minor_road" style="fill:none;stroke:#ccc;stroke-linejoin:round;stroke-linecap:round;" d="M283.50087623111176,444.3693532384932L303.54964935111275,449.9211288765073L360.4057702399987,465.6611384693533"></path><path class="minor_road" style="fill:none;stroke:#ccc;stroke-linejoin:round;stroke-linecap:round;" d="M299.44855210666356,465.6611384693533L303.54964935111275,449.9211288765073"></path><path class="minor_road" style="fill:none;stroke:#ccc;stroke-linejoin:round;stroke-linecap:round;" d="M155.2949839644425,244.12728665955365L154.99672234666286,244.11228141468018"></path><path class="minor_road" style="fill:none;stroke:#ccc;stroke-linejoin:round;stroke-linecap:round;" d="M161.37206442666502,465.6611384693533L156.1245240888893,458.2637886311859L154.99672234666286,451.7066989997402M154.99672234666286,252.14008334372193L155.2949839644425,244.12728665955365L156.6278405688863,209.87022380065173"></path><path class="minor_road" style="fill:none;stroke:#ccc;stroke-linejoin:round;stroke-linecap:round;" d="M199.96898190222055,385.8953767353669L199.54955150222304,395.4084981838241L198.71069070222075,414.6447694301605L193.97578752000118,419.3863068828359L164.47584938666478,418.2459374181926L154.99672234666286,417.18059208709747"></path><path class="major_road" style="fill:none;stroke:#ccc;stroke-linejoin:round;stroke-linecap:round;" d="M195.29932344888948,465.6611384693533L199.0462350222224,460.73957598302513L216.64367047111227,429.3945412551984L243.00254094222328,386.4055444682017L269.68763505777315,339.9501142660156L291.3209230222201,298.95623517688364L293.0545686755577,296.3153326101601L294.46199068444184,293.2392800292L309.4123542755551,266.9352224972099L326.43190784000035,227.89159108139575L329.4890894222226,220.8841208750382L333.6833934222195,209.87022380065173"></path></g><g><path class="path" style="fill:none;stroke:#ccc;stroke-linejoin:round;stroke-linecap:round;" d="M562.4034508799996,382.594290480949L569.9904807822204,426.1084809154272L576.7852532622201,465.6611384693533"></path><path class="minor_road" style="fill:none;stroke:#ccc;stroke-linejoin:round;stroke-linecap:round;" d="M517.5057567288895,392.61758380383253L562.4034508799996,382.594290480949L555.7391678577769,357.88110757246614L561.4900246755533,338.86975165549666L550.4916275200012,288.107520933263L533.9194663822236,209.87022380065173"></path><path class="minor_road" style="fill:none;stroke:#ccc;stroke-linejoin:round;stroke-linecap:round;" d="M485.0045610666675,465.6611384693533L477.00742144000105,422.612351055257L451.31963960888606,427.23384422343224L440.749993528887,429.10944932419807L436.9844406044467,412.0339214457199"></path><path class="minor_road" style="fill:none;stroke:#ccc;stroke-linejoin:round;stroke-linecap:round;" d="M410.9890764800002,417.5106991091743L436.9844406044467,412.0339214457199"></path><path class="minor_road" style="fill:none;stroke:#ccc;stroke-linejoin:round;stroke-linecap:round;" d="M458.8973488355514,465.6611384693533L451.31963960888606,427.23384422343224"></path><path class="minor_road" style="fill:none;stroke:#ccc;stroke-linejoin:round;stroke-linecap:round;" d="M436.9844406044467,412.0339214457199L498.2492410311097,399.1147106708959"></path><path class="rail" style="fill:none;stroke:#ccc;stroke-linejoin:round;stroke-linecap:round;" d="M575.3871519288841,209.87022380065173L580.6906163200001,231.8679896024987L591.0086041600007,283.9060778571293L599.9471320177763,335.83873341977596L615.0186643911111,438.0223177066073L618.5605211022194,465.6611384693533"></path><path class="rail" style="fill:none;stroke:#ccc;stroke-linejoin:round;stroke-linecap:round;" d="M632.672023893334,465.6611384693533L622.0464537600019,403.796239358373L611.7284659199977,342.83108039200306L590.0672159288879,230.63755710143596L585.0992958577735,209.87022380065173"></path><path class="rail" style="fill:none;stroke:#ccc;stroke-linejoin:round;stroke-linecap:round;" d="M628.3285890844454,465.6611384693533L623.8919475199982,438.05232734885067L614.9534196622226,386.76566284615546L605.9403263999993,332.4325875546783L598.381258524445,294.12458310835063L587.4294647466631,241.2612840598449L579.8517555200015,209.87022380065173"></path><path class="rail" style="fill:none;stroke:#ccc;stroke-linejoin:round;stroke-linecap:round;" d="M569.7388225422219,209.87022380065173L573.3179619555522,224.53040713071823L581.7811353600009,262.38864664454013L591.9127096888915,312.56587025988847L600.469089848888,363.5079785929993L607.5621239466673,414.04457457736135L612.9960777955566,459.43416094686836L613.6578457600008,465.6611384693533"></path><path class="highway" style="fill:none;stroke:#ccc;stroke-linejoin:round;stroke-linecap:round;" d="M655.9830334577746,209.87022380065173L666.4874348088888,243.76716074440628L666.9907512888894,246.31805223040283"></path><path class="highway" style="fill:none;stroke:#ccc;stroke-linejoin:round;stroke-linecap:round;" d="M666.9907512888894,358.52632235363126L645.7023283199997,252.5752349551767L632.7559099733335,209.87022380065173"></path></g><g><path class="minor_road" style="fill:none;stroke:#ccc;stroke-linejoin:round;stroke-linecap:round;" d="M746.7104893155556,429.3945412551984L748.6025864533367,437.70721650123596L753.3281689600008,461.65486683510244"></path><path class="minor_road" style="fill:none;stroke:#ccc;stroke-linejoin:round;stroke-linecap:round;" d="M779.9666596977768,351.50398146826774L745.9089112177753,346.7623967817053L729.2435433244427,346.94245701562613L712.7459475911091,272.68221007753164L699.9952634311121,250.42948709148914L701.4492888177774,240.7811159659177L694.7104403911108,218.45326229091734L692.1099719111116,209.87022380065173"></path><path class="minor_road" style="fill:none;stroke:#ccc;stroke-linejoin:round;stroke-linecap:round;" d="M748.6025864533367,437.70721650123596L765.6501020444448,433.941005686298"></path><path class="minor_road" style="fill:none;stroke:#ccc;stroke-linejoin:round;stroke-linecap:round;" d="M731.2102058666678,377.11748475488275L725.2449735111113,351.93912673555315L729.2435433244427,346.94245701562613"></path><path class="minor_road" style="fill:none;stroke:#ccc;stroke-linejoin:round;stroke-linecap:round;" d="M754.1111057066701,465.6611384693533L753.3281689600008,461.65486683510244L769.5834271288877,457.90367403253913"></path><path class="minor_road" style="fill:none;stroke:#ccc;stroke-linejoin:round;stroke-linecap:round;" d="M710.4530614044415,209.87022380065173L694.7104403911108,218.45326229091734"></path><path class="minor_road" style="fill:none;stroke:#ccc;stroke-linejoin:round;stroke-linecap:round;" d="M732.2168388266655,221.3943009627983L701.4492888177774,240.7811159659177"></path><path class="minor_road" style="fill:none;stroke:#ccc;stroke-linejoin:round;stroke-linecap:round;" d="M884.4607533511116,315.1167359948158L865.474537244445,312.37080401647836L857.9620727466645,320.6386067830026L837.475227875555,324.1197838904336L830.3169490488908,307.53916146140546"></path><path class="minor_road" style="fill:none;stroke:#ccc;stroke-linejoin:round;stroke-linecap:round;" d="M865.4279338666638,284.026119120419L857.5706043733335,291.558704377152L830.3169490488908,307.53916146140546L792.1487826488883,328.6513135014102L779.9666596977768,351.50398146826774L779.8641322666626,364.16819782182574L777.2636637866672,394.2531197872013L764.2706420622198,425.4632725371048L765.6501020444448,433.941005686298L769.5834271288877,457.90367403253913L770.8603596800021,465.6611384693533"></path><path class="minor_road" style="fill:none;stroke:#ccc;stroke-linejoin:round;stroke-linecap:round;" d="M915.4706409244427,309.0546770421788L894.3499901155519,302.5574643071741L865.4279338666638,284.026119120419L841.8373040355582,260.37794876564294L824.4635648000003,238.02014877926558L808.1710239288914,209.87022380065173"></path><path class="major_road" style="fill:none;stroke:#ccc;stroke-linejoin:round;stroke-linecap:round;" d="M910.5027208533284,465.6611384693533L915.4706409244427,309.0546770421788L916.607763342221,259.14752140827477L916.3747464533335,209.87022380065173"></path><path class="highway" style="fill:none;stroke:#ccc;stroke-linejoin:round;stroke-linecap:round;" d="M683.9823428266645,465.6611384693533L677.6908868266655,411.76383366808295L666.9907512888894,358.52632235363126"></path><path class="highway" style="fill:none;stroke:#ccc;stroke-linejoin:round;stroke-linecap:round;" d="M666.9907512888894,246.31805223040283L699.2868920888868,410.15831164456904L707.8246308977759,465.6611384693533"></path></g><g><path class="path" style="fill:none;stroke:#ccc;stroke-linejoin:round;stroke-linecap:round;" d="M115.29996515555467,465.6611384693533L114.48906638221888,484.6121217990294L41.00486030222237,514.1113306488842L38.73993614222127,501.62744910269976L22.99731512888684,501.62744910269976L23.314218097777484,488.61837993375957"></path><path class="path" style="fill:none;stroke:#ccc;stroke-linejoin:round;stroke-linecap:round;" d="M143.96104248888878,625.2648830190301L141.58427022222168,640.3743039509282"></path><path class="path" style="fill:none;stroke:#ccc;stroke-linejoin:round;stroke-linecap:round;" d="M137.75347256888926,664.0511643178761L140.32597902222187,647.2012905087322"></path><path class="path" style="fill:none;stroke:#ccc;stroke-linejoin:round;stroke-linecap:round;" d="M125.32901205333474,641.9197542546317L137.51113500444262,643.8853264637291"></path><path class="path" style="fill:none;stroke:#ccc;stroke-linejoin:round;stroke-linecap:round;" d="M128.4887210666675,622.77415102534L143.96104248888878,625.2648830190301L154.99672234666286,627.0504071982577M154.99672234666286,660.1200309665874L153.93416533333584,666.6769200609997L137.75347256888926,664.0511643178761L122.21590641777584,661.5454421779141L125.32901205333474,641.9197542546317L128.4887210666675,622.77415102534"></path><path class="path" style="fill:none;stroke:#ccc;stroke-linejoin:round;stroke-linecap:round;" d="M144.3618315377753,644.6355447135866L154.99672234666286,646.3010289371014"></path><path class="path" style="fill:none;stroke:#ccc;stroke-linejoin:round;stroke-linecap:round;" d="M141.58427022222168,640.3743039509282L140.3819030755585,640.3743039509282L139.2447806577802,640.7794220279902L138.1729029688904,641.7547061806545L137.63230378666776,642.8500251406804L137.51113500444262,643.8853264637291L137.75347256888926,645.0706712622195L138.2567890488899,645.9409242738038L139.16089457777343,646.7511597359553L140.32597902222187,647.2012905087322L141.53766684444417,647.231299225241L142.92644750222098,646.6911422992125L143.79327032888978,645.8508981047198L144.3618315377753,644.6355447135866L144.45503829333393,643.4351954758167L144.11949397333228,642.2648547599092L143.77462897777514,641.6946887001395L142.87984412444348,640.884452634491L141.58427022222168,640.3743039509282"></path><path class="path" style="fill:none;stroke:#ccc;stroke-linejoin:round;stroke-linecap:round;" d="M-86.39013319111473,465.6611384693533L-22.748560497777362,494.1251054368913L-13.250792106668086,465.85620032344013L-13.343998862223089,465.6611384693533"></path><path class="path" style="fill:none;stroke:#ccc;stroke-linejoin:round;stroke-linecap:round;" d="M-13.250792106668086,465.85620032344013L-10.426627413333335,465.6611384693533"></path><path class="path" style="fill:none;stroke:#ccc;stroke-linejoin:round;stroke-linecap:round;" d="M10.032255431109661,465.6611384693533L10.815192177778954,478.37015685997903L13.32245390222306,488.1382292723283L23.314218097777484,488.61837993375957L23.472669582220988,479.4054831713438"></path><path class="minor_road" style="fill:none;stroke:#ccc;stroke-linejoin:round;stroke-linecap:round;" d="M-42.24741375999656,599.6072990214452L-46.7679414044469,631.431691436097"></path><path class="minor_road" style="fill:none;stroke:#ccc;stroke-linejoin:round;stroke-linecap:round;" d="M-101.00495246221908,557.789731413126L-94.9371926755557,557.5796676315367L-95.06768213333271,512.3857954982668"></path><path class="minor_road" style="fill:none;stroke:#ccc;stroke-linejoin:round;stroke-linecap:round;" d="M143.42976398222163,540.249383569695L154.99672234666286,556.5143440803513"></path><path class="minor_road" style="fill:none;stroke:#ccc;stroke-linejoin:round;stroke-linecap:round;" d="M9.370487466669147,721.8775738030672L14.972213475553872,688.4181387731805L23.53791431110949,637.1933760121465"></path><path class="minor_road" style="fill:none;stroke:#ccc;stroke-linejoin:round;stroke-linecap:round;" d="M52.62774272000024,694.1947794221342L14.972213475553872,688.4181387731805"></path><path class="minor_road" style="fill:none;stroke:#ccc;stroke-linejoin:round;stroke-linecap:round;" d="M23.472669582220988,479.4054831713438L22.987994453334977,465.6611384693533"></path><path class="minor_road" style="fill:none;stroke:#ccc;stroke-linejoin:round;stroke-linecap:round;" d="M-69.8179720533335,673.3388329595327L-40.392599324444745,677.0448942976072L-46.21802154666511,721.8775738030672M-75.82048711111202,721.8775738030672L-69.8179720533335,673.3388329595327M-69.8179720533335,673.3388329595327L-100.25929841777906,668.6124765099958L-98.49769073777861,659.6098837209865L-93.4738466133349,623.9594994960353"></path><path class="minor_road" style="fill:none;stroke:#ccc;stroke-linejoin:round;stroke-linecap:round;" d="M65.39706823110828,710.7144442331046L63.54225379555646,721.8775738030672"></path><path class="minor_road" style="fill:none;stroke:#ccc;stroke-linejoin:round;stroke-linecap:round;" d="M52.62774272000024,694.1947794221342L52.53453596444524,699.0261478414759L54.10040945777655,703.5724323904142L57.101666986665805,707.3234899640083L61.22140558222236,709.7991868313402L65.39706823110828,710.7144442331046L70.17857479110899,710.1442838991061L74.47540622222368,707.9986801082268L77.77492536888894,704.5026948601007L79.9652841244424,698.4859950244427L79.6949845333329,693.6846347292885L77.7935667199963,689.2883862499148L74.47540622222368,685.7773871291429L70.69121194666877,683.7968227257952L65.94698808889007,683.0316045042127L61.22140558222236,683.9618697827682L57.120308337776805,686.4675836805254L54.10040945777655,690.1886421423405L52.62774272000024,694.1947794221342"></path><path class="minor_road" style="fill:none;stroke:#ccc;stroke-linejoin:round;stroke-linecap:round;" d="M79.9652841244424,698.4859950244427L154.99672234666286,709.1540053123608"></path><path class="minor_road" style="fill:none;stroke:#ccc;stroke-linejoin:round;stroke-linecap:round;" d="M68.17462954666553,575.5851108878851L77.54190848000144,601.5728834336624L78.5765034666656,618.6179275456816L70.69121194666877,683.7968227257952"></path><path class="minor_road" style="fill:none;stroke:#ccc;stroke-linejoin:round;stroke-linecap:round;" d="M-101.00495246221908,622.7591466121376L-93.4738466133349,623.9594994960353L-46.7679414044469,631.431691436097L-30.801624177780468,633.9674334246665L-20.819180657781544,634.6276264516637L-14.62093141333753,632.8421042580158L-9.63436999111218,628.1457285219803L-7.38808718222208,620.4634711351246L-8.702302435551246,611.325774807483L-10.77149240889048,605.1289392895997L-11.992500906668283,595.8261732133105L-11.610353208889137,584.3927562180907"></path><path class="major_road" style="fill:none;stroke:#ccc;stroke-linejoin:round;stroke-linecap:round;" d="M19.036028017773788,581.2868246678263L68.17462954666553,575.5851108878851L76.41410673778228,573.7095461003482L92.24993450666807,568.9080978967249L119.38242104888923,556.3192848218605L143.42976398222163,540.249383569695L151.83701333333374,534.1725202752277L154.99672234666286,529.8962058238685"></path><path class="major_road" style="fill:none;stroke:#ccc;stroke-linejoin:round;stroke-linecap:round;" d="M19.036028017773788,581.2868246678263L0.599731768885249,584.7528641363606L-11.610353208889137,584.3927562180907L-23.15867022222301,584.7528641363606L-42.1448863288897,585.2180034955963L-101.00495246221908,588.3989556962624"></path><path class="major_road" style="fill:none;stroke:#ccc;stroke-linejoin:round;stroke-linecap:round;" d="M-101.00495246221908,579.8163831504062L19.036028017773788,581.2868246678263"></path></g><g><path class="path" style="fill:none;stroke:#ccc;stroke-linejoin:round;stroke-linecap:round;" d="M154.99672234666286,627.0504071982577L160.21630065777936,627.890653707087L157.1870811022236,646.6461292216554L154.99672234666286,660.1200309665874"></path><path class="path" style="fill:none;stroke:#ccc;stroke-linejoin:round;stroke-linecap:round;" d="M154.99672234666286,646.3010289371014L157.1870811022236,646.6461292216554"></path><path class="path" style="fill:none;stroke:#ccc;stroke-linejoin:round;stroke-linecap:round;" d="M194.7400829155522,636.2631043531001L189.3900151466696,672.3335447181016L217.3147591111083,676.474731146358L222.66482687999815,640.4193170750514L194.7400829155522,636.2631043531001"></path><path class="path" style="fill:none;stroke:#ccc;stroke-linejoin:round;stroke-linecap:round;" d="M249.33127964444793,658.0644374331459L270.7315507200001,661.0052863825113L269.6783143822213,668.6724937548861L282.21462300444546,670.382985021919L279.9403781688852,687.0527502661571L246.0131191466644,682.4314332939684L249.33127964444793,658.0644374331459"></path><path class="minor_road" style="fill:none;stroke:#ccc;stroke-linejoin:round;stroke-linecap:round;" d="M405.86270492444237,527.4204435991123L410.9890764800002,528.9659195188433"></path><path class="minor_road" style="fill:none;stroke:#ccc;stroke-linejoin:round;stroke-linecap:round;" d="M323.3374435555561,663.4659957541153L325.25750272000005,621.6188111798838L334.7459504355538,607.6196777299047L410.9890764800002,609.0300954775885"></path><path class="minor_road" style="fill:none;stroke:#ccc;stroke-linejoin:round;stroke-linecap:round;" d="M189.12903623111197,608.1448333086446L248.87456654222478,639.1889583393931L279.3811376355552,645.6858501257375L305.87981824000235,660.8852517576888L323.3374435555561,663.4659957541153L329.4890894222226,659.6098837209865L340.73914481777683,660.1350352969021"></path><path class="minor_road" style="fill:none;stroke:#ccc;stroke-linejoin:round;stroke-linecap:round;" d="M251.4936763733349,557.3696038471535L309.1513753599975,572.5842069834471"></path><path class="minor_road" style="fill:none;stroke:#ccc;stroke-linejoin:round;stroke-linecap:round;" d="M270.7408713955556,603.6134895542637L296.6616701155508,615.4069805936888"></path><path class="minor_road" style="fill:none;stroke:#ccc;stroke-linejoin:round;stroke-linecap:round;" d="M404.53916899555406,534.9977736352012L405.86270492444237,527.4204435991123L407.75480206222346,515.13164688088L402.99193685333375,497.3811236033216"></path><path class="minor_road" style="fill:none;stroke:#ccc;stroke-linejoin:round;stroke-linecap:round;" d="M391.0428307911134,465.6611384693533L391.3970164622224,467.53673299402L394.9947972266673,486.56273466628045L402.99193685333375,497.3811236033216L410.9890764800002,499.28671876341105"></path><path class="minor_road" style="fill:none;stroke:#ccc;stroke-linejoin:round;stroke-linecap:round;" d="M323.3374435555561,663.4659957541153L321.52923249777814,721.8775738030672"></path><path class="minor_road" style="fill:none;stroke:#ccc;stroke-linejoin:round;stroke-linecap:round;" d="M154.99672234666286,556.5143440803513L166.99243178666438,573.3644421231002L290.2490453333339,637.3584241997451L296.6616701155508,615.4069805936888L303.07429489777496,593.455466276966M303.07429489777496,593.455466276966L309.1513753599975,572.5842069834471L313.7464684088918,556.8594489116222L240.99859569777982,538.3588044587523L228.9935655822228,557.8647541878745L303.07429489777496,593.455466276966"></path><path class="minor_road" style="fill:none;stroke:#ccc;stroke-linejoin:round;stroke-linecap:round;" d="M295.7482439111118,479.85562499798834L299.44855210666356,465.6611384693533"></path><path class="minor_road" style="fill:none;stroke:#ccc;stroke-linejoin:round;stroke-linecap:round;" d="M360.4057702399987,465.6611384693533L376.4932562488866,470.11755021475255L391.3970164622224,467.53673299402"></path><path class="minor_road" style="fill:none;stroke:#ccc;stroke-linejoin:round;stroke-linecap:round;" d="M180.57265607111185,485.03225384745747L169.71406904888863,477.45486825704575L161.37206442666502,465.6611384693533"></path><path class="minor_road" style="fill:none;stroke:#ccc;stroke-linejoin:round;stroke-linecap:round;" d="M154.99672234666286,709.1540053123608L244.6523005155541,721.8775738030672"></path><path class="major_road" style="fill:none;stroke:#ccc;stroke-linejoin:round;stroke-linecap:round;" d="M154.99672234666286,529.8962058238685L173.9829384533332,504.22325808461756L180.57265607111185,485.03225384745747L195.29932344888948,465.6611384693533"></path></g><g><path class="path" style="fill:none;stroke:#ccc;stroke-linejoin:round;stroke-linecap:round;" d="M576.7852532622201,465.6611384693533L582.4895067022189,498.8665875932202"></path><path class="path" style="fill:none;stroke:#ccc;stroke-linejoin:round;stroke-linecap:round;" d="M453.23969877333366,618.6179275456816L453.7430152533343,608.369899972342L457.99324330666786,605.113934838213L487.2415231999985,606.3593041757122L501.24117788444346,592.5702020842582"></path><path class="minor_road" style="fill:none;stroke:#ccc;stroke-linejoin:round;stroke-linecap:round;" d="M464.4151887644439,493.6449551600963L458.8973488355514,465.6611384693533"></path><path class="minor_road" style="fill:none;stroke:#ccc;stroke-linejoin:round;stroke-linecap:round;" d="M410.9890764800002,528.9659195188433L418.9955367822258,531.3666581166908L510.7482669511119,534.8627321822569L509.62046520888543,574.744857926853L508.6697563022244,592.7652603052557L507.98002631111376,632.4369857124984"></path><path class="minor_road" style="fill:none;stroke:#ccc;stroke-linejoin:round;stroke-linecap:round;" d="M489.3573165511116,489.08352585695684L485.0045610666675,465.6611384693533"></path><path class="minor_road" style="fill:none;stroke:#ccc;stroke-linejoin:round;stroke-linecap:round;" d="M481.4906663822221,632.106889099814L507.98002631111376,632.4369857124984L543.4918001777769,632.8721130359918"></path><path class="minor_road" style="fill:none;stroke:#ccc;stroke-linejoin:round;stroke-linecap:round;" d="M652.8792484977748,696.2053493075073L651.7141640533337,721.8775738030672"></path><path class="minor_road" style="fill:none;stroke:#ccc;stroke-linejoin:round;stroke-linecap:round;" d="M410.9890764800002,499.28671876341105L420.75714446222264,501.62744910269976L464.4151887644439,493.6449551600963L489.3573165511116,489.08352585695684"></path><path class="minor_road" style="fill:none;stroke:#ccc;stroke-linejoin:round;stroke-linecap:round;" d="M410.9890764800002,609.0300954775885L429.0059423288876,609.36019320786L429.74227569777577,631.3566694725305"></path><path class="rail" style="fill:none;stroke:#ccc;stroke-linejoin:round;stroke-linecap:round;" d="M613.6578457600008,465.6611384693533L617.7962257066647,504.46333285514265L621.8413988977773,557.8797587426379L624.702846293334,600.5975935263559L627.2753527466666,654.9435351146385L627.8811966577778,721.8775738030672"></path><path class="rail" style="fill:none;stroke:#ccc;stroke-linejoin:round;stroke-linecap:round;" d="M666.9907512888894,701.3217968568206L661.5381560888891,652.6478704828769L649.2069023288859,567.4376537082717L632.9236821333361,467.1165998633951L632.672023893334,465.6611384693533"></path><path class="rail" style="fill:none;stroke:#ccc;stroke-linejoin:round;stroke-linecap:round;" d="M665.0054473955533,721.8775738030672L664.5860169955522,717.3463056730106L657.2133626311115,656.7440558597445L650.8659825777759,609.135126573965L643.2323492977775,554.5337421102449L633.2871884800006,496.5258563095704L628.3285890844454,465.6611384693533"></path><path class="rail" style="fill:none;stroke:#ccc;stroke-linejoin:round;stroke-linecap:round;" d="M618.5605211022194,465.6611384693533L622.0464537600019,492.9397343825549L627.3872008533326,544.9608244625852L631.6747116088882,631.5367221897468L633.7345809066683,676.0846194894984L633.4642813155551,713.8353210091591L633.3058298311116,721.8775738030672"></path></g><g><path class="path" style="fill:none;stroke:#ccc;stroke-linejoin:round;stroke-linecap:round;" d="M891.5165047466653,702.7471994496882L922.9924260977787,704.1726017426699"></path><path class="path" style="fill:none;stroke:#ccc;stroke-linejoin:round;stroke-linecap:round;" d="M887.7602724977769,703.0022714585066L888.011930737779,716.5060701910406L892.0105005511105,715.9959271689877L891.5165047466653,702.7471994496882"></path><path class="path" style="fill:none;stroke:#ccc;stroke-linejoin:round;stroke-linecap:round;" d="M920.6715778844409,695.8452472826466L922.9924260977787,695.8602515337989"></path><path class="minor_road" style="fill:none;stroke:#ccc;stroke-linejoin:round;stroke-linecap:round;" d="M800.9661417244424,472.87842337135226L789.9770652444422,471.6180248921737L782.1010943999972,483.5167774008587"></path><path class="minor_road" style="fill:none;stroke:#ccc;stroke-linejoin:round;stroke-linecap:round;" d="M764.0562665244433,516.6771255843341L754.1111057066701,465.6611384693533"></path><path class="minor_road" style="fill:none;stroke:#ccc;stroke-linejoin:round;stroke-linecap:round;" d="M779.2116849777776,639.6240852326155L773.9641446399983,614.6267502661794L784.4778666666643,610.140424137935L800.6119560533334,606.1942552393302"></path><path class="minor_road" style="fill:none;stroke:#ccc;stroke-linejoin:round;stroke-linecap:round;" d="M772.4635158755555,574.8798985891044L767.9616295822234,557.8797587426379L782.9772379022215,554.623769486323L793.4257151999991,556.3642985001206"></path><path class="minor_road" style="fill:none;stroke:#ccc;stroke-linejoin:round;stroke-linecap:round;" d="M824.2212272355537,581.1367796296254L825.9735142399986,587.6337267654017L798.2258631111108,594.1756811290979"></path><path class="minor_road" style="fill:none;stroke:#ccc;stroke-linejoin:round;stroke-linecap:round;" d="M770.8603596800021,465.6611384693533L771.5500896711092,469.83245998620987L782.1010943999972,483.5167774008587L798.0114875733343,504.1632393915206L799.3257028266635,533.9624557700008L793.4257151999991,556.3642985001206L791.8878037333343,562.1710601802915L798.2258631111108,594.1756811290979L800.6119560533334,606.1942552393302L802.6252219733287,616.3522595250979"></path><path class="major_road" style="fill:none;stroke:#ccc;stroke-linejoin:round;stroke-linecap:round;" d="M903.1207458133285,721.8775738030672L903.9502859377753,693.084464456886L909.2351089777767,505.6937159122899L910.5027208533284,465.6611384693533"></path><path class="major_road" style="fill:none;stroke:#ccc;stroke-linejoin:round;stroke-linecap:round;" d="M922.9924260977787,625.2348742019385L920.6715778844409,695.8452472826466L920.0657339733334,721.8775738030672"></path><path class="rail" style="fill:none;stroke:#ccc;stroke-linejoin:round;stroke-linecap:round;" d="M669.2929581511089,721.8775738030672L666.9907512888894,701.3217968568206"></path><path class="highway" style="fill:none;stroke:#ccc;stroke-linejoin:round;stroke-linecap:round;" d="M707.8246308977759,465.6611384693533L711.5249390933313,489.75873762276024L727.4446529422203,627.1704424191266L731.2661299200045,721.8775738030672"></path><path class="highway" style="fill:none;stroke:#ccc;stroke-linejoin:round;stroke-linecap:round;" d="M705.9138924088875,721.8775738030672L700.8154828799998,609.8253308869898L683.9823428266645,465.6611384693533"></path></g><g><path class="path" style="fill:none;stroke:#ccc;stroke-linejoin:round;stroke-linecap:round;" d="M107.54516309333121,772.3965081581846L116.03629852444283,773.6118387607858M116.03629852444283,773.6118387607858L119.04687672889122,776.612654148601L122.29047182222348,777.3628577860072L125.67387704888824,773.9719366766512L125.00278840889223,770.7910710992292L121.79647601777833,768.4804413979873L118.40375011555443,769.8758217673749L116.03629852444283,773.6118387607858"></path><path class="path" style="fill:none;stroke:#ccc;stroke-linejoin:round;stroke-linecap:round;" d="M105.59714190222076,753.3563003642485L104.7209984000001,759.4029599837959L101.51468600888984,781.1738909967244L100.68514588444668,786.8004125123844L123.24118072888814,790.1013029702008L125.67387704888824,773.9719366766512L126.3170036622214,769.1556254802272L128.16249742222135,756.6872152611613L105.59714190222076,753.3563003642485"></path><path class="path" style="fill:none;stroke:#ccc;stroke-linejoin:round;stroke-linecap:round;" d="M108.85937834666402,778.0830532023683L101.51468600888984,781.1738909967244"></path><path class="path" style="fill:none;stroke:#ccc;stroke-linejoin:round;stroke-linecap:round;" d="M110.82604088888911,764.3693190803751L104.7209984000001,759.4029599837959"></path><path class="path" style="fill:none;stroke:#ccc;stroke-linejoin:round;stroke-linecap:round;" d="M123.24118072888814,790.1013029702008L111.00313372444361,783.3644839283079L108.85937834666402,778.0830532023683L107.2469014755552,774.1069733919576L107.54516309333121,772.3965081581846L108.2535344355565,767.6252081273124L110.82604088888911,764.3693190803751L112.99775829333521,761.6085640192032L121.48889372444683,758.8628119481727L128.16249742222135,756.6872152611613"></path><path class="minor_road" style="fill:none;stroke:#ccc;stroke-linejoin:round;stroke-linecap:round;" d="M-5.402783288885985,977.6642747651786L62.00434232889165,855.3685814449564L135.50718975999916,897.3643687507138L148.13670513777834,870.89760047663"></path><path class="minor_road" style="fill:none;stroke:#ccc;stroke-linejoin:round;stroke-linecap:round;" d="M-48.74392462222022,803.1097966264933L-21.751248213335202,806.860799415037L51.2389620622198,840.6197315789759L23.491310933331988,895.368862029165L-10.007197013335826,954.3635960444808L-63.75021226666286,923.3659179909155L-46.50696248888926,893.1182898338884L-58.260334364444134,887.6268905606121L-70.49838136888866,911.1078427964821L-78.89631004444163,933.5684606982395"></path><path class="minor_road" style="fill:none;stroke:#ccc;stroke-linejoin:round;stroke-linecap:round;" d="M-11.051112675555487,977.6642747651786L-74.00295537777492,941.6104541849345L-64.9432587377778,971.7378379590809L-63.153689031110844,977.6642747651786"></path><path class="minor_road" style="fill:none;stroke:#ccc;stroke-linejoin:round;stroke-linecap:round;" d="M-64.9432587377778,971.7378379590809L-53.82369280000057,977.6642747651786"></path><path class="minor_road" style="fill:none;stroke:#ccc;stroke-linejoin:round;stroke-linecap:round;" d="M154.99672234666286,924.6712441574782L128.740379306666,911.6179712116718L135.50718975999916,897.3643687507138"></path><path class="minor_road" style="fill:none;stroke:#ccc;stroke-linejoin:round;stroke-linecap:round;" d="M4.346643342225434,751.9009001022205L9.370487466669147,721.8775738030672"></path><path class="minor_road" style="fill:none;stroke:#ccc;stroke-linejoin:round;stroke-linecap:round;" d="M154.99672234666286,853.0129687059671L144.50164167111143,848.6168230036274L124.25713436444494,835.1282899975777L126.74575473777804,819.6291974233463"></path><path class="minor_road" style="fill:none;stroke:#ccc;stroke-linejoin:round;stroke-linecap:round;" d="M92.19401045333507,977.6642747651786L128.740379306666,911.6179712116718"></path><path class="minor_road" style="fill:none;stroke:#ccc;stroke-linejoin:round;stroke-linecap:round;" d="M154.99672234666286,973.26820947323L152.4801399466669,977.6642747651786"></path><path class="minor_road" style="fill:none;stroke:#ccc;stroke-linejoin:round;stroke-linecap:round;" d="M-101.00495246221908,907.987056363374L-86.50198129778073,921.0403362615034L-65.2601617066648,870.6125270146877"></path><path class="minor_road" style="fill:none;stroke:#ccc;stroke-linejoin:round;stroke-linecap:round;" d="M-46.21802154666511,721.8775738030672L-47.998270577780204,735.6063975933939L-55.50141440000152,734.3610518807545L-75.99757994666652,723.3629888612777L-75.82048711111202,721.8775738030672"></path><path class="minor_road" style="fill:none;stroke:#ccc;stroke-linejoin:round;stroke-linecap:round;" d="M-74.00295537777492,941.6104541849345L-78.89631004444163,933.5684606982395L-86.50198129778073,921.0403362615034"></path><path class="minor_road" style="fill:none;stroke:#ccc;stroke-linejoin:round;stroke-linecap:round;" d="M63.54225379555646,721.8775738030672L50.05523626667127,802.824720332399L35.990336853334156,815.1580102397129"></path><path class="major_road" style="fill:none;stroke:#ccc;stroke-linejoin:round;stroke-linecap:round;" d="M154.99672234666286,874.9936546711251L148.13670513777834,870.89760047663L122.28115114666434,855.4436009489L55.43326606222399,822.9150680080056L35.990336853334156,815.1580102397129L-52.13665052444412,783.6345569780096L-101.00495246221908,766.439884644933"></path></g><g><path class="path" style="fill:none;stroke:#ccc;stroke-linejoin:round;stroke-linecap:round;" d="M410.24342243555657,749.1101317191496L410.9890764800002,745.2540681520477"></path><path class="path" style="fill:none;stroke:#ccc;stroke-linejoin:round;stroke-linecap:round;" d="M318.8821606399979,778.8782688844949L330.7567012977779,779.3734031310305L374.24697344000015,781.1138747399673L383.99640007111157,772.1114305760711L393.50348913777634,781.609008828178L410.9890764800002,782.1641591181979"></path><path class="path" style="fill:none;stroke:#ccc;stroke-linejoin:round;stroke-linecap:round;" d="M410.24342243555657,815.593125898391L410.4950806755551,827.1911985911429"></path><path class="path" style="fill:none;stroke:#ccc;stroke-linejoin:round;stroke-linecap:round;" d="M384.7420541155552,747.3696519332007L359.5016647111079,746.6344491327181L348.99726336000094,749.8753425218165L339.2478367288895,756.3721287883818L331.25069710222306,768.6304823085666L330.7567012977779,779.3734031310305L330.9990388622209,786.875432766974L334.7459504355538,796.6130549199879L341.9974360177803,804.6252020020038L350.25555456000075,810.866868108511L356.4910865066631,814.092726957053L382.4957713066651,814.8579304572195"></path><path class="path" style="fill:none;stroke:#ccc;stroke-linejoin:round;stroke-linecap:round;" d="M359.5016647111079,746.6344491327181L355.49377422222096,734.0309602059424"></path><path class="path" style="fill:none;stroke:#ccc;stroke-linejoin:round;stroke-linecap:round;" d="M356.4910865066631,814.092726957053L355.9784493511106,825.8558458182961"></path><path class="path" style="fill:none;stroke:#ccc;stroke-linejoin:round;stroke-linecap:round;" d="M383.4930835911073,792.1118445573375L374.24697344000015,781.1138747399673"></path><path class="path" style="fill:none;stroke:#ccc;stroke-linejoin:round;stroke-linecap:round;" d="M383.99640007111157,772.1114305760711L384.7420541155552,747.3696519332007L410.24342243555657,749.1101317191496L410.9890764800002,749.3952102633193M410.9890764800002,815.2030222052708L410.24342243555657,815.593125898391L382.4957713066651,814.8579304572195L383.4930835911073,792.1118445573375L393.50348913777634,781.609008828178"></path><path class="minor_road" style="fill:none;stroke:#ccc;stroke-linejoin:round;stroke-linecap:round;" d="M170.5063264711098,932.3681623479351L154.99672234666286,924.6712441574782"></path><path class="minor_road" style="fill:none;stroke:#ccc;stroke-linejoin:round;stroke-linecap:round;" d="M189.24088433777433,913.3734128223732L154.99672234666286,973.26820947323"></path><path class="minor_road" style="fill:none;stroke:#ccc;stroke-linejoin:round;stroke-linecap:round;" d="M316.2630508088878,845.4660001108423L285.71919701333536,846.9663921501487L270.21891356444394,838.4741688659415L228.7232659911133,812.4872997207567L215.22692778666533,811.4670280115679L197.21006193777794,848.4667838551104L170.20806485333378,852.9079413684085L159.9926044444437,855.1135151395574L154.99672234666286,853.0129687059671"></path><path class="minor_road" style="fill:none;stroke:#ccc;stroke-linejoin:round;stroke-linecap:round;" d="M321.1936881777765,732.7406016876921L318.8821606399979,778.8782688844949L316.5799537777748,824.9105959460139L316.2630508088878,845.4660001108423L314.8556288,936.6742316940799L306.6534343111125,965.6013447931036"></path><path class="minor_road" style="fill:none;stroke:#ccc;stroke-linejoin:round;stroke-linecap:round;" d="M199.2512898844434,873.6132996864617L225.9550253511079,889.2473039217293L250.4963640888891,903.6059499196708L259.99413247999837,884.3560550138354L263.0047106844431,886.6216339301318L272.2415001599984,871.3627203097567L285.98949660444487,879.3597756633535"></path><path class="minor_road" style="fill:none;stroke:#ccc;stroke-linejoin:round;stroke-linecap:round;" d="M263.5359891911103,977.6642747651786L280.35048789333086,949.4423864828423"></path><path class="minor_road" style="fill:none;stroke:#ccc;stroke-linejoin:round;stroke-linecap:round;" d="M347.73897216000114,919.6149793276563L342.99474830222243,952.6081649921834L375.47730261333345,964.9711911501363"></path><path class="minor_road" style="fill:none;stroke:#ccc;stroke-linejoin:round;stroke-linecap:round;" d="M354.24480369777666,848.1066898759454L383.99640007111157,852.1127343224362L410.9890764800002,850.5073160426691"></path><path class="minor_road" style="fill:none;stroke:#ccc;stroke-linejoin:round;stroke-linecap:round;" d="M321.52923249777814,721.8775738030672L321.1936881777765,732.7406016876921"></path><path class="minor_road" style="fill:none;stroke:#ccc;stroke-linejoin:round;stroke-linecap:round;" d="M369.4561462044403,977.6642747651786L375.47730261333345,964.9711911501363L380.21220579555666,954.9787469906732L384.7420541155552,933.2833898570389L386.7087166577803,915.6539858616889L392.95356928000183,888.3920858055353L404.95859939555885,877.1692135892808L410.9890764800002,875.5638012122363"></path><path class="minor_road" style="fill:none;stroke:#ccc;stroke-linejoin:round;stroke-linecap:round;" d="M316.5799537777748,824.9105959460139L355.9784493511106,825.8558458182961L410.4950806755551,827.1911985911429L410.9890764800002,827.2062025526538"></path><path class="minor_road" style="fill:none;stroke:#ccc;stroke-linejoin:round;stroke-linecap:round;" d="M225.9550253511079,889.2473039217293L214.42534968888867,910.4926878921688"></path><path class="minor_road" style="fill:none;stroke:#ccc;stroke-linejoin:round;stroke-linecap:round;" d="M410.9890764800002,941.2203577049077L407.5031438222213,939.1198378140107L394.24914318222363,931.1228525862098L384.7420541155552,933.2833898570389"></path><path class="minor_road" style="fill:none;stroke:#ccc;stroke-linejoin:round;stroke-linecap:round;" d="M407.5031438222213,939.1198378140107L409.7401059555559,885.6163771543652L410.9890764800002,885.1362544605508"></path><path class="minor_road" style="fill:none;stroke:#ccc;stroke-linejoin:round;stroke-linecap:round;" d="M244.6523005155541,721.8775738030672L321.1936881777765,732.7406016876921L355.49377422222096,734.0309602059424L362.8571079111098,734.3010352114215L410.9890764800002,736.1165391514078"></path><path class="major_road" style="fill:none;stroke:#ccc;stroke-linejoin:round;stroke-linecap:round;" d="M329.93648184889025,977.6642747651786L325.67693311999756,975.5337588367984L306.6534343111125,965.6013447931036L280.35048789333086,949.4423864828423L214.42534968888867,910.4926878921688L154.99672234666286,874.9936546711251"></path></g><g><path class="path" style="fill:none;stroke:#ccc;stroke-linejoin:round;stroke-linecap:round;" d="M410.9890764800002,745.2540681520477L412.7413634844452,736.176555801183"></path><path class="path" style="fill:none;stroke:#ccc;stroke-linejoin:round;stroke-linecap:round;" d="M410.9890764800002,749.3952102633193L422.74244835555146,753.8664405895397L431.74622094222286,762.868908858858L436.24810723555856,772.3815040756017L437.2360988444416,783.0043865088373L434.756799146664,793.6122483424842L429.9939339377779,802.8847363945097L420.5054862222205,810.1166681582108L410.9890764800002,815.2030222052708"></path><path class="path" style="fill:none;stroke:#ccc;stroke-linejoin:round;stroke-linecap:round;" d="M410.9890764800002,782.1641591181979L437.2360988444416,783.0043865088373L448.62596437333195,783.3494798652828"></path><path class="minor_road" style="fill:none;stroke:#ccc;stroke-linejoin:round;stroke-linecap:round;" d="M417.01023288888973,873.9733923180029L417.49490801777574,882.6156097687781L428.7542840888891,880.8601602362469L428.2509676088921,951.6179216345772L410.9890764800002,941.2203577049077"></path><path class="minor_road" style="fill:none;stroke:#ccc;stroke-linejoin:round;stroke-linecap:round;" d="M651.7141640533337,721.8775738030672L651.4811471644425,727.1590480878949L653.8765607822206,806.185619065538L652.4784594488883,914.6787409037352L647.9858938311081,977.6642747651786"></path><path class="minor_road" style="fill:none;stroke:#ccc;stroke-linejoin:round;stroke-linecap:round;" d="M410.9890764800002,885.1362544605508L417.49490801777574,882.6156097687781"></path><path class="minor_road" style="fill:none;stroke:#ccc;stroke-linejoin:round;stroke-linecap:round;" d="M410.9890764800002,875.5638012122363L417.01023288888973,873.9733923180029L445.0841076622237,869.2471750155091"></path><path class="minor_road" style="fill:none;stroke:#ccc;stroke-linejoin:round;stroke-linecap:round;" d="M484.50124458666687,966.6065897736698L443.61144092444374,965.1212277347222"></path><path class="minor_road" style="fill:none;stroke:#ccc;stroke-linejoin:round;stroke-linecap:round;" d="M410.9890764800002,827.2062025526538L449.62327665777775,828.136448145844"></path><path class="minor_road" style="fill:none;stroke:#ccc;stroke-linejoin:round;stroke-linecap:round;" d="M445.71791360000134,888.872208269313L558.7031426844478,892.3530951188877L569.9904807822204,889.3673345260322L574.501687751108,883.8759322306141L574.501687751108,878.864648681134"></path><path class="minor_road" style="fill:none;stroke:#ccc;stroke-linejoin:round;stroke-linecap:round;" d="M445.71791360000134,888.872208269313L443.61144092444374,965.1212277347222L443.26657592889023,977.6642747651786"></path><path class="minor_road" style="fill:none;stroke:#ccc;stroke-linejoin:round;stroke-linecap:round;" d="M450.0986311111119,856.8689713040367L468.74930289777694,861.8802710296586L575.9929958400025,865.6312414659187"></path><path class="minor_road" style="fill:none;stroke:#ccc;stroke-linejoin:round;stroke-linecap:round;" d="M468.74930289777694,861.8802710296586L469.3365054577771,843.6055135251954M469.3365054577771,843.6055135251954L469.9982734222249,822.8700560936704L577.4936246044454,826.110913223587L577.2419663644432,848.1066898759454L469.3365054577771,843.6055135251954"></path><path class="minor_road" style="fill:none;stroke:#ccc;stroke-linejoin:round;stroke-linecap:round;" d="M410.9890764800002,850.5073160426691L413.5056588799998,850.3572769314051L417.01023288888973,873.9733923180029"></path><path class="minor_road" style="fill:none;stroke:#ccc;stroke-linejoin:round;stroke-linecap:round;" d="M447.64729343999716,737.4969219835475L448.62596437333195,783.3494798652828L449.2504496355541,810.6868201280013L449.62327665777775,828.136448145844L450.0986311111119,856.8689713040367L450.2197998933334,863.4256711006165L445.0841076622237,869.2471750155091L445.71791360000134,888.872208269313"></path><path class="minor_road" style="fill:none;stroke:#ccc;stroke-linejoin:round;stroke-linecap:round;" d="M410.9890764800002,736.1165391514078L412.7413634844452,736.176555801183L447.64729343999716,737.4969219835475"></path><path class="rail" style="fill:none;stroke:#ccc;stroke-linejoin:round;stroke-linecap:round;" d="M666.9907512888894,743.5736039644107L665.0054473955533,721.8775738030672"></path><path class="rail" style="fill:none;stroke:#ccc;stroke-linejoin:round;stroke-linecap:round;" d="M633.3058298311116,721.8775738030672L632.1687074133333,777.4678862867877L627.7786692266673,863.1255934443325L623.7987407644432,914.6787409037352L617.7216603022207,965.9614325640723L616.0159766755569,977.6642747651786"></path><path class="rail" style="fill:none;stroke:#ccc;stroke-linejoin:round;stroke-linecap:round;" d="M627.8811966577778,721.8775738030672L627.9184793599998,725.9287050114945L627.0050531555571,780.7237690733746L624.9731458844435,829.3367648562416L621.4685718755536,882.1054791817442L613.8349385955553,955.3088279590011L611.0294152533315,977.6642747651786"></path></g><g><path class="minor_road" style="fill:none;stroke:#ccc;stroke-linejoin:round;stroke-linecap:round;" d="M790.2194028088852,748.6450035469607L817.221399893333,748.6450035469607L818.3212396088893,790.1313110617921L820.4649949866653,870.1173994019628L775.2224358399981,867.1166251907125"></path><path class="minor_road" style="fill:none;stroke:#ccc;stroke-linejoin:round;stroke-linecap:round;" d="M818.3212396088893,790.1313110617921L901.1540832711107,790.9115212960169"></path><path class="minor_road" style="fill:none;stroke:#ccc;stroke-linejoin:round;stroke-linecap:round;" d="M790.2194028088852,958.3695780280977L826.4675100444438,961.2802900578827L828.9654510933324,936.8842837912962L836.2169366755552,938.1295924950391L837.2235696355565,932.6382294967771"></path><path class="minor_road" style="fill:none;stroke:#ccc;stroke-linejoin:round;stroke-linecap:round;" d="M906.5600750933299,976.2539333086461L915.1723793066631,977.6642747651786M922.9924260977787,764.6844051852822L919.0870630399986,764.7294174842536"></path><path class="minor_road" style="fill:none;stroke:#ccc;stroke-linejoin:round;stroke-linecap:round;" d="M922.9924260977787,869.8323259055614L916.0671641599984,869.142147924751"></path><path class="minor_road" style="fill:none;stroke:#ccc;stroke-linejoin:round;stroke-linecap:round;" d="M786.7148287999989,888.872208269313L835.461961955556,893.3733547227457L833.2249998222178,920.1251071067527L838.9758566400014,921.1153550418094L837.2235696355565,932.6382294967771L892.7281925688876,939.0448192348704"></path><path class="major_road" style="fill:none;stroke:#ccc;stroke-linejoin:round;stroke-linecap:round;" d="M886.9586944000002,977.6642747651786L892.7281925688876,939.0448192348704L899.2153827555558,858.3993686195463L901.1540832711107,790.9115212960169L903.1207458133285,721.8775738030672"></path><path class="major_road" style="fill:none;stroke:#ccc;stroke-linejoin:round;stroke-linecap:round;" d="M920.0657339733334,721.8775738030672L919.0870630399986,764.7294174842536"></path><path class="major_road" style="fill:none;stroke:#ccc;stroke-linejoin:round;stroke-linecap:round;" d="M919.0870630399986,764.7294174842536L916.0671641599984,869.142147924751"></path><path class="major_road" style="fill:none;stroke:#ccc;stroke-linejoin:round;stroke-linecap:round;" d="M916.0671641599984,869.142147924751L911.9660669155564,932.203121307306L906.5600750933299,976.2539333086461L906.2897755022204,977.6642747651786"></path><path class="rail" style="fill:none;stroke:#ccc;stroke-linejoin:round;stroke-linecap:round;" d="M677.457869937778,977.6642747651786L677.9145830400012,968.8271304005757L678.4085788444463,896.3591135563329L676.5910471111092,823.9503419753164L674.4472917333333,781.4289600709453L671.222337991112,739.0723585737869L669.2929581511089,721.8775738030672"></path><path class="rail" style="fill:none;stroke:#ccc;stroke-linejoin:round;stroke-linecap:round;" d="M672.6670427022254,977.6642747651786L673.4220174222246,962.2855356726795L673.5152241777796,907.8670260868967L672.5924772977778,859.8847539154813L671.501958257777,814.1377389281988L669.0133378844439,765.5996552146971L666.9907512888894,743.5736039644107"></path><path class="highway" style="fill:none;stroke:#ccc;stroke-linejoin:round;stroke-linecap:round;" d="M707.3119937422198,977.6642747651786L712.0935003022205,857.364099885337L705.9138924088875,721.8775738030672"></path><path class="highway" style="fill:none;stroke:#ccc;stroke-linejoin:round;stroke-linecap:round;" d="M731.2661299200045,721.8775738030672L736.8864972800002,861.3551350031048L731.1263197866683,977.6642747651786"></path></g><path class="waypath" style="fill:none;stroke:orange; stroke-width:5;stroke-linejoin:round; stroke-linecap:round}" d="M174.52353763555584,503.32297762390226L180.52605269333435,483.71183874458075L198.62680462222124,460.93463797774166L217.37068316444493,428.3291976675391L270.48921315555344,338.6296710539609L301.62026951110965,280.0197407063097L309.6267298133316,266.1249418761581L326.43190784000035,227.87658579926938L348.6244363377773,169.26570287253708L356.69614136888777,137.8893164359033L505.621895395554,109.6039279429242L538.8780657777752,100.81067449133843L578.9756120177772,258.92244321107864L608.8204151466671,439.28272239584476L621.8227575466626,592.4351617759094L625.4857830399997,699.1761902878061L560.8748600888866,691.088897915557L431.87671039999987,691.944140791893L432.3054614755565,676.2196581400931L434.3746514488921,600.072437370196L316.0020718933338,593.410452847369L328.00710200888716,547.7066627200693L174.52353763555584,503.32297762390226"></path><path class="center" style="fill:none; stroke:red; stroke-width:1;stroke-linejoin:round; stroke-linecap:round}" d="M400,400m0,4.5a4.5,4.5 0 1,1 0,-9a4.5,4.5 0 1,1 0,9z"></path></svg>
