<svg xmlns="http://www.w3.org/2000/svg" version="1.1" width="800" height="800"><g><path class="minor_road" style="fill:none;stroke:#ccc;stroke-linejoin:round;stroke-linecap:round;" d="M9.23999800888123,21.2060516923666L-178.73938659556734,57.699185367673635L-214.4562153244624,182.72381076961756"></path><path class="major_road" style="fill:none;stroke:#ccc;stroke-linejoin:round;stroke-linecap:round;" d="M-246.74303544890427,43.05392049252987L-238.35442744889588,21.08600840717554L-213.33773425778782,-73.44824150204659"></path></g><g><path class="minor_road" style="fill:none;stroke:#ccc;stroke-linejoin:round;stroke-linecap:round;" d="M265.2603141688742,-28.49191288650036L9.23999800888123,21.2060516923666"></path></g><g><path class="minor_road" style="fill:none;stroke:#ccc;stroke-linejoin:round;stroke-linecap:round;" d="M500.9615576177748,182.72381076961756L470.277893688879,37.711998138576746L427.25365532444266,-53.28090734779835L305.2646536533284,-36.23471987247467L265.2603141688742,-28.49191288650036"></path></g><g><path class="rail" style="fill:none;stroke:#ccc;stroke-linejoin:round;stroke-linecap:round;" d="M579.2179495822056,-73.44824150204659L605.0921449244343,22.646571055054665L644.2389822577679,182.72381076961756"></path><path class="rail" style="fill:none;stroke:#ccc;stroke-linejoin:round;stroke-linecap:round;" d="M604.4210562844382,-73.44824150204659L609.2678075733129,-55.98188874125481L666.8322998044168,182.72381076961756"></path><path class="rail" style="fill:none;stroke:#ccc;stroke-linejoin:round;stroke-linecap:round;" d="M684.6907141688862,182.72381076961756L622.8759938844305,-73.44824150204659"></path><path class="rail" style="fill:none;stroke:#ccc;stroke-linejoin:round;stroke-linecap:round;" d="M705.6808755199745,182.72381076961756L680.7387477333396,78.46663765236735L641.7783239111013,-73.44824150204659"></path></g><g><path class="highway" style="fill:none;stroke:#ccc;stroke-linejoin:round;stroke-linecap:round;" d="M896.3073319822142,182.72381076961756L818.5728978488769,-73.44824150204659"></path><path class="highway" style="fill:none;stroke:#ccc;stroke-linejoin:round;stroke-linecap:round;" d="M909.8036701866513,-73.44824150204659L989.2158259199787,182.72381076961756"></path></g><g><path class="minor_road" style="fill:none;stroke:#ccc;stroke-linejoin:round;stroke-linecap:round;" d="M-214.4562153244624,182.72381076961756L-244.72976952890167,288.72119568660855L-216.24578503111843,437.27289598062634"></path></g><g></g><g><path class="minor_road" style="fill:none;stroke:#ccc;stroke-linejoin:round;stroke-linecap:round;" d="M521.2806303288962,278.57763592526317L500.9615576177748,182.72381076961756"></path></g><g><path class="minor_road" style="fill:none;stroke:#ccc;stroke-linejoin:round;stroke-linecap:round;" d="M554.8723450311081,437.27289598062634L521.2806303288962,278.57763592526317"></path><path class="rail" style="fill:none;stroke:#ccc;stroke-linejoin:round;stroke-linecap:round;" d="M644.2389822577679,182.72381076961756L658.555539911089,241.36454408988357L692.408233528884,392.79750214517117L701.3933647644299,437.27289598062634"></path><path class="rail" style="fill:none;stroke:#ccc;stroke-linejoin:round;stroke-linecap:round;" d="M666.8322998044168,182.72381076961756L688.0461573688808,270.7148739770055L721.0786315377627,437.27289598062634"></path><path class="rail" style="fill:none;stroke:#ccc;stroke-linejoin:round;stroke-linecap:round;" d="M741.6959658666601,437.27289598062634L715.0015510755329,308.2880518063903L684.6907141688862,182.72381076961756"></path><path class="rail" style="fill:none;stroke:#ccc;stroke-linejoin:round;stroke-linecap:round;" d="M758.6595953777723,437.27289598062634L725.5525558044319,265.7931439727545L705.6808755199745,182.72381076961756"></path></g><g><path class="highway" style="fill:none;stroke:#ccc;stroke-linejoin:round;stroke-linecap:round;" d="M964.9075040711032,437.27289598062634L948.093005368879,353.5438553877175L896.3073319822142,182.72381076961756"></path><path class="highway" style="fill:none;stroke:#ccc;stroke-linejoin:round;stroke-linecap:round;" d="M989.2158259199787,182.72381076961756L1031.2334313244355,318.3115585446358L1033.246697244438,328.51512448862195"></path></g><g><path class="minor_road" style="fill:none;stroke:#ccc;stroke-linejoin:round;stroke-linecap:round;" d="M-216.24578503111843,437.27289598062634L-176.39057635556674,645.1838960386813"></path><path class="minor_road" style="fill:none;stroke:#ccc;stroke-linejoin:round;stroke-linecap:round;" d="M-246.74303544890427,616.4941930100322L-176.39057635556674,645.1838960386813L-167.29359701335488,693.5001686662436"></path></g><g></g><g></g><g><path class="minor_road" style="fill:none;stroke:#ccc;stroke-linejoin:round;stroke-linecap:round;" d="M610.1253097244335,693.5001686662436L567.2502021688852,495.67299930006266L554.8723450311081,437.27289598062634"></path><path class="rail" style="fill:none;stroke:#ccc;stroke-linejoin:round;stroke-linecap:round;" d="M701.3933647644299,437.27289598062634L732.9345308444463,593.5063966065645L749.7490295466705,693.5001686662436"></path><path class="rail" style="fill:none;stroke:#ccc;stroke-linejoin:round;stroke-linecap:round;" d="M721.0786315377627,437.27289598062634L729.3181087288831,478.86722699552774L765.0722201599856,686.5978492461145L766.0788531199796,693.5001686662436"></path><path class="rail" style="fill:none;stroke:#ccc;stroke-linejoin:round;stroke-linecap:round;" d="M777.2636637866526,613.4331559576094L758.8087261866604,519.7412480004132L741.6959658666601,437.27289598062634"></path><path class="rail" style="fill:none;stroke:#ccc;stroke-linejoin:round;stroke-linecap:round;" d="M777.2636637866526,533.6660106256604L758.6595953777723,437.27289598062634"></path></g><g><path class="rail" style="fill:none;stroke:#ccc;stroke-linejoin:round;stroke-linecap:round;" d="M792.4377235910943,693.5001686662436L789.0449976888776,672.9732657857239L777.2636637866526,613.4331559576094"></path><path class="rail" style="fill:none;stroke:#ccc;stroke-linejoin:round;stroke-linecap:round;" d="M808.1337412266585,693.5001686662436L777.2636637866526,533.6660106256604"></path><path class="highway" style="fill:none;stroke:#ccc;stroke-linejoin:round;stroke-linecap:round;" d="M1016.3949158399919,693.5001686662436L964.9075040711032,437.27289598062634"></path></g><g><path class="minor_road" style="fill:none;stroke:#ccc;stroke-linejoin:round;stroke-linecap:round;" d="M-167.29359701335488,693.5001686662436L-118.90064952889225,949.7250328026712"></path></g><g></g><g><path class="minor_road" style="fill:none;stroke:#ccc;stroke-linejoin:round;stroke-linecap:round;" d="M435.3067190044385,913.7132507823408L521.2806303288962,894.5669672973454"></path><path class="minor_road" style="fill:none;stroke:#ccc;stroke-linejoin:round;stroke-linecap:round;" d="M310.93162439110165,949.7250328026712L358.28065621331916,939.7017582505941"></path></g><g><path class="path" style="fill:none;stroke:#ccc;stroke-linejoin:round;stroke-linecap:round;" d="M614.8974956088787,873.6200774908066L628.1701375999983,949.7250328026712"></path><path class="minor_road" style="fill:none;stroke:#ccc;stroke-linejoin:round;stroke-linecap:round;" d="M521.2806303288962,894.5669672973454L614.8974956088787,873.6200774908066L588.240363519988,774.7673458568752L611.2437907910935,698.7219221889973L610.1253097244335,693.5001686662436"></path><path class="rail" style="fill:none;stroke:#ccc;stroke-linejoin:round;stroke-linecap:round;" d="M749.7490295466705,693.5001686662436L767.1600514844322,797.2748299390078L777.2636637866526,869.358673851937"></path><path class="rail" style="fill:none;stroke:#ccc;stroke-linejoin:round;stroke-linecap:round;" d="M766.0788531199796,693.5001686662436L777.2636637866526,769.4855869077146"></path></g><g><path class="rail" style="fill:none;stroke:#ccc;stroke-linejoin:round;stroke-linecap:round;" d="M777.2636637866526,869.358673851937L788.5603225599916,949.7250328026712"></path><path class="rail" style="fill:none;stroke:#ccc;stroke-linejoin:round;stroke-linecap:round;" d="M777.2636637866526,769.4855869077146L803.8835131733213,949.7250328026712"></path><path class="rail" style="fill:none;stroke:#ccc;stroke-linejoin:round;stroke-linecap:round;" d="M835.4619619555597,949.7250328026712L825.0973707377707,890.3055669516325L792.4377235910943,693.5001686662436"></path><path class="rail" style="fill:none;stroke:#ccc;stroke-linejoin:round;stroke-linecap:round;" d="M851.9781990399933,949.7250328026712L812.1975557688711,714.5672371350229L808.1337412266585,693.5001686662436"></path><path class="highway" style="fill:none;stroke:#ccc;stroke-linejoin:round;stroke-linecap:round;" d="M1033.246697244438,777.3482049815357L1016.3949158399919,693.5001686662436"></path></g><path class="waypath" style="fill:none;stroke:orange; stroke-width:5;stroke-linejoin:round; stroke-linecap:round}" d="M353.9185800533305,782.6299624070525L200.64939121776843,69.88355958461761L444.77652536887035,17.36466635018587L507.9707056355546,311.10903910547495L467.33256021332636,319.87210416793823L495.10817336887703,449.03695563971996L537.0139306666533,440.03384921327233L599.350608782217,729.8123420402408L353.9185800533305,782.6299624070525"></path><path class="center" style="fill:none; stroke:red; stroke-width:1;stroke-linejoin:round; stroke-linecap:round}" d="M400,400m0,4.5a4.5,4.5 0 1,1 0,-9a4.5,4.5 0 1,1 0,9z"></path></svg>
