<svg xmlns="http://www.w3.org/2000/svg" version="1.1" width="800" height="800"><g><path class="minor_road" style="fill:none;stroke:#ccc;stroke-linejoin:round;stroke-linecap:round;" d="M-182.90013616354554,28.323186591267586L73.05307113245362,33.05258709192276"></path></g><g><path class="minor_road" style="fill:none;stroke:#ccc;stroke-linejoin:round;stroke-linecap:round;" d="M73.05307113245362,33.05258709192276L217.1283456000092,35.71737602353096L221.5277044622344,165.52364882826805"></path></g><g><path class="path" style="fill:none;stroke:#ccc;stroke-linejoin:round;stroke-linecap:round;" d="M411.0505929386709,109.80325777828693L415.06966823825496,27.807033725082874L449.093862286245,1.7593126744031906L585.0638772906968,7.557032287120819"></path></g><g><path class="path" style="fill:none;stroke:#ccc;stroke-linejoin:round;stroke-linecap:round;" d="M585.0638772906968,7.557032287120819L683.0651883520186,11.73427090793848L785.3390970880573,-89.0116908699274"></path></g><g></g><g><path class="minor_road" style="fill:none;stroke:#ccc;stroke-linejoin:round;stroke-linecap:round;" d="M221.5277044622344,165.52364882826805L223.09357795555843,211.6771825477481"></path></g><g></g><g><path class="minor_road" style="fill:none;stroke:#ccc;stroke-linejoin:round;stroke-linecap:round;" d="M637.0508772693574,217.70294662564993L841.0841934506607,220.22368436306715"></path></g><g></g><g></g><g></g><g></g><g></g><g></g><g></g><g></g><path class="waypath" style="fill:none;stroke:orange; stroke-width:5;stroke-linejoin:round; stroke-linecap:round}" d="M301.5736661333649,164.37131042778492L386.0562693689135,166.53194493055344L386.8764888177975,132.56195950508118L435.6422633244656,133.7623127102852L434.8966092800256,164.01120468974113L513.339414755581,165.93176870048046L511.2515834311198,247.55567629635334L500.51416519112536,576.2107028886676L497.2332873955602,667.5567627251148L286.73515064892126,659.994611158967L290.53798627556534,553.7642757892609L299.26213859554264,256.3182355761528L301.5736661333649,164.37131042778492"></path><path class="center" style="fill:none; stroke:red; stroke-width:1;stroke-linejoin:round; stroke-linecap:round}" d="M400,400m0,4.5a4.5,4.5 0 1,1 0,-9a4.5,4.5 0 1,1 0,9z"></path></svg>
