<svg xmlns="http://www.w3.org/2000/svg" version="1.1" width="800" height="800"><g><path class="minor_road" style="fill:none;stroke:#ccc;stroke-linejoin:round;stroke-linecap:round;" d="M-55.139772188442294,-2.1369919031858444L-53.98400841957482,0.0791420042514801L24.50353629865276,252.40636505186558"></path></g><g></g><g></g><g><path class="major_road" style="fill:none;stroke:#ccc;stroke-linejoin:round;stroke-linecap:round;" d="M821.2050566257822,252.40636505186558L769.8294929635449,-2.1369919031858444"></path></g><g><path class="minor_road" style="fill:none;stroke:#ccc;stroke-linejoin:round;stroke-linecap:round;" d="M24.50353629865276,252.40636505186558L104.72099840000737,510.2906734123826"></path><path class="minor_road" style="fill:none;stroke:#ccc;stroke-linejoin:round;stroke-linecap:round;" d="M-121.4358732799883,455.6544721648097L-102.64539135998348,510.2906734123826"></path></g><g></g><g></g><g><path class="path" style="fill:none;stroke:#ccc;stroke-linejoin:round;stroke-linecap:round;" d="M882.3039490275551,510.2906734123826L744.5219946951111,499.10229548066854L733.4714017564402,466.61525797098875"></path><path class="path" style="fill:none;stroke:#ccc;stroke-linejoin:round;stroke-linecap:round;" d="M733.4714017564402,466.61525797098875L718.6701689742185,405.9296117872L673.1181633991073,423.55073707550764L693.3477576248988,482.6910732164979"></path><path class="path" style="fill:none;stroke:#ccc;stroke-linejoin:round;stroke-linecap:round;" d="M693.3477576248988,482.6910732164979L700.4985799111164,510.2906734123826"></path><path class="major_road" style="fill:none;stroke:#ccc;stroke-linejoin:round;stroke-linecap:round;" d="M863.6775109973387,510.2906734123826L864.7587093617622,490.4654411673546L860.8067429262155,451.5456742718816L852.4330480071076,407.1394920870662L821.2050566257822,252.40636505186558"></path></g><g><path class="minor_road" style="fill:none;stroke:#ccc;stroke-linejoin:round;stroke-linecap:round;" d="M104.72099840000737,510.2906734123826L130.02104012800555,591.603997759521L134.56952979911875,604.0980644002557"></path><path class="minor_road" style="fill:none;stroke:#ccc;stroke-linejoin:round;stroke-linecap:round;" d="M-102.64539135998348,510.2906734123826L-52.97737545956625,654.7091872170568L-11.973859555553645,764.8196619898081"></path><path class="minor_road" style="fill:none;stroke:#ccc;stroke-linejoin:round;stroke-linecap:round;" d="M-121.4358732799883,678.4993934631348L-52.97737545956625,654.7091872170568L130.02104012800555,591.603997759521"></path></g><g><path class="minor_road" style="fill:none;stroke:#ccc;stroke-linejoin:round;stroke-linecap:round;" d="M134.56952979911875,604.0980644002557L193.10337228799472,764.8196619898081"></path><path class="minor_road" style="fill:none;stroke:#ccc;stroke-linejoin:round;stroke-linecap:round;" d="M390.5823894186615,632.9673733487725L389.91130077866546,627.5049658641219L390.5823894186615,626.702375240624"></path></g><g><path class="minor_road" style="fill:none;stroke:#ccc;stroke-linejoin:round;stroke-linecap:round;" d="M418.8053950008907,764.8196619898081L417.3737392355397,736.8967590779066L413.48888166398683,709.0936313867569L398.6205400177714,656.5180099233985L391.25347805867204,638.4297802969813L390.5823894186615,632.9673733487725M390.5823894186615,626.702375240624L397.2858192782005,618.6644894182682L528.0362559715722,579.4812765046954L541.8979646577645,582.3682093769312L549.3321354808722,591.603997759521L581.6189556053141,667.5027133226395L592.1401341724413,685.3872911185026L630.5189478399843,731.4702988341451"></path><path class="major_road" style="fill:none;stroke:#ccc;stroke-linejoin:round;stroke-linecap:round;" d="M524.024637212453,764.8196619898081L630.5860567040072,731.4702988341451L646.5952490382188,726.4631010219455"></path></g><g><path class="path" style="fill:none;stroke:#ccc;stroke-linejoin:round;stroke-linecap:round;" d="M902.533543253332,511.93179504573345L882.3039490275551,510.2906734123826"></path><path class="path" style="fill:none;stroke:#ccc;stroke-linejoin:round;stroke-linecap:round;" d="M700.4985799111164,510.2906734123826L712.1680657066754,555.2957207486033L713.3089163946715,705.6077578365803"></path><path class="major_road" style="fill:none;stroke:#ccc;stroke-linejoin:round;stroke-linecap:round;" d="M646.5952490382188,726.4631010219455L713.3089163946715,705.6077578365803"></path><path class="major_road" style="fill:none;stroke:#ccc;stroke-linejoin:round;stroke-linecap:round;" d="M713.3089163946715,705.6077578365803L853.9094430150872,670.9766103252769L902.533543253332,660.950224198401"></path><path class="major_road" style="fill:none;stroke:#ccc;stroke-linejoin:round;stroke-linecap:round;" d="M713.3089163946715,705.6077578365803L790.8793066382059,655.0445980504155L824.3666297742166,618.9999004751444L849.0850613475632,577.5406825244427L861.9475936142262,542.2386306971312L863.6775109973387,510.2906734123826"></path></g><g><path class="major_road" style="fill:none;stroke:#ccc;stroke-linejoin:round;stroke-linecap:round;" d="M-121.4358732799883,860.9026091396809L-25.17939268266491,856.9256098344922L134.56952979911875,860.0760641396046"></path><path class="path" style="fill:none;stroke:#ccc;stroke-linejoin:round;stroke-linecap:round;" d="M62.382761756452965,1022.7135285288095L34.838301354669966,935.3634826764464L1.343521678223624,829.3980583995581"></path><path class="path" style="fill:none;stroke:#ccc;stroke-linejoin:round;stroke-linecap:round;" d="M1.4106305422174046,829.3980583995581L-36.036115569775575,837.7713229134679L-60.4115462826594,843.4014142006636L-121.4358732799883,858.5547421053052"></path><path class="path" style="fill:none;stroke:#ccc;stroke-linejoin:round;stroke-linecap:round;" d="M-121.4358732799883,974.0313479676843L-41.18858501689101,952.2417457178235L34.90541021866375,935.3634826764464"></path><path class="path" style="fill:none;stroke:#ccc;stroke-linejoin:round;stroke-linecap:round;" d="M-95.38272096711444,869.9946035146713L-60.4115462826594,843.4014142006636"></path><path class="path" style="fill:none;stroke:#ccc;stroke-linejoin:round;stroke-linecap:round;" d="M-41.18858501689101,952.2417457178235L-36.036115569775575,837.7713229134679"></path><path class="path" style="fill:none;stroke:#ccc;stroke-linejoin:round;stroke-linecap:round;" d="M-121.4358732799883,878.2959883213043L-95.38272096711444,869.9946035146713"></path><path class="minor_road" style="fill:none;stroke:#ccc;stroke-linejoin:round;stroke-linecap:round;" d="M-11.973859555553645,764.8196619898081L16.614516508445377,841.5925977230072L42.40668990579434,908.0396121293306"></path><path class="major_road" style="fill:none;stroke:#ccc;stroke-linejoin:round;stroke-linecap:round;" d="M-2.295270058675669,1022.7135285288095L22.311313408004935,986.142002761364L86.68362706489279,919.9586191698909L134.56952979911875,896.6237165629864"></path><path class="major_road" style="fill:none;stroke:#ccc;stroke-linejoin:round;stroke-linecap:round;" d="M-121.4358732799883,949.5944102704525L-117.1483625244291,948.6959932297468L42.40668990579434,908.0396121293306L134.56952979911875,883.3510878309608"></path></g><g><path class="major_road" style="fill:none;stroke:#ccc;stroke-linejoin:round;stroke-linecap:round;" d="M134.56952979911875,860.0760641396046L390.5823894186615,865.1072075366974"></path><path class="path" style="fill:none;stroke:#ccc;stroke-linejoin:round;stroke-linecap:round;" d="M240.13922941156488,1007.644098341465L211.73726685866131,1018.161554813385L194.9302246968873,1022.7135285288095"></path><path class="path" style="fill:none;stroke:#ccc;stroke-linejoin:round;stroke-linecap:round;" d="M211.73726685866131,1018.161554813385L214.22029482664948,1022.7135285288095"></path><path class="path" style="fill:none;stroke:#ccc;stroke-linejoin:round;stroke-linecap:round;" d="M390.5823894186615,960.9863369986415L240.13922941156488,1007.644098341465"></path><path class="path" style="fill:none;stroke:#ccc;stroke-linejoin:round;stroke-linecap:round;" d="M390.5823894186615,996.8990410417318L318.5522087253339,1022.7135285288095"></path><path class="minor_road" style="fill:none;stroke:#ccc;stroke-linejoin:round;stroke-linecap:round;" d="M193.10337228799472,764.8196619898081L226.94115282487473,857.728197067976"></path><path class="major_road" style="fill:none;stroke:#ccc;stroke-linejoin:round;stroke-linecap:round;" d="M134.56952979911875,896.6237165629864L195.12409474844753,867.10768584162"></path><path class="major_road" style="fill:none;stroke:#ccc;stroke-linejoin:round;stroke-linecap:round;" d="M195.1912036124413,867.10768584162L227.00826168889762,857.728197067976L390.5823894186615,806.5901897773147"></path><path class="major_road" style="fill:none;stroke:#ccc;stroke-linejoin:round;stroke-linecap:round;" d="M134.56952979911875,883.3510878309608L195.1912036124413,867.10768584162"></path></g><g><path class="major_road" style="fill:none;stroke:#ccc;stroke-linejoin:round;stroke-linecap:round;" d="M390.5823894186615,865.1072075366974L471.56787518577767,866.7123817205429L646.5952490382188,872.7617319226265"></path><path class="path" style="fill:none;stroke:#ccc;stroke-linejoin:round;stroke-linecap:round;" d="M464.33503095466585,938.106649979949L390.5823894186615,960.9863369986415"></path><path class="path" style="fill:none;stroke:#ccc;stroke-linejoin:round;stroke-linecap:round;" d="M646.5952490382188,895.3299947604537L464.33503095466585,938.106649979949L477.59275986489956,969.1918768659234L399.4929552497633,993.7126579731703L390.5823894186615,996.8990410417318"></path><path class="path" style="fill:none;stroke:#ccc;stroke-linejoin:round;stroke-linecap:round;" d="M415.53943028624053,1022.7135285288095L399.4929552497633,993.7126579731703"></path><path class="minor_road" style="fill:none;stroke:#ccc;stroke-linejoin:round;stroke-linecap:round;" d="M420.4607469795592,797.2466274276376L418.8053950008907,764.8196619898081"></path><path class="major_road" style="fill:none;stroke:#ccc;stroke-linejoin:round;stroke-linecap:round;" d="M390.5823894186615,806.5901897773147L420.4607469795592,797.2466274276376L524.024637212453,764.8196619898081"></path></g><g><path class="major_road" style="fill:none;stroke:#ccc;stroke-linejoin:round;stroke-linecap:round;" d="M646.5952490382188,872.7617319226265L829.6607734897843,879.0985752344131L902.533543253332,877.3975701257586"></path><path class="path" style="fill:none;stroke:#ccc;stroke-linejoin:round;stroke-linecap:round;" d="M902.533543253332,794.9586522877216L877.8225682204356,802.541312970221L864.4231650417787,820.8930244743824L872.4613156408741,842.3233116492629"></path><path class="path" style="fill:none;stroke:#ccc;stroke-linejoin:round;stroke-linecap:round;" d="M902.533543253332,834.8364878594875L896.374440846208,836.7650937661529L872.4613156408741,842.3233116492629L646.5952490382188,895.3299947604537"></path></g><path class="waypath" style="fill:none;stroke:orange; stroke-width:5;stroke-linejoin:round; stroke-linecap:round}" d="M262.3522633955581,570.2215280681849L275.25207836444315,606.8771852776408L382.55169536000176,569.0236303508282L392.69259036445874,598.0127475634217L519.9757357511116,553.0915883183479L512.5191953066533,531.8887883201241L605.0548622222123,499.18614845722914L598.642237439999,480.9780767336488L607.813782186684,477.7437475696206L555.3943028622161,378.7971405312419L623.1742555022065,355.31825832277536L560.9121427911159,193.12203069031239L429.9752925866633,239.36118162423372L447.19990101334406,288.3554723635316L310.4469492622302,336.51118717342615L292.9986446222174,286.9179877266288L176.90030990222294,327.88628616183996L262.3522633955581,570.2215280681849"></path><path class="center" style="fill:none; stroke:red; stroke-width:1;stroke-linejoin:round; stroke-linecap:round}" d="M400,400m0,4.5a4.5,4.5 0 1,1 0,-9a4.5,4.5 0 1,1 0,9z"></path></svg>
