<svg xmlns="http://www.w3.org/2000/svg" version="1.1" width="800" height="800"><g></g><g></g><g><path class="major_road" style="fill:none;stroke:#ccc;stroke-linejoin:round;stroke-linecap:round;" d="M536.9691914239957,154.45246198028326L500.88699221334537,81.84893064200878L415.7183872569003,-103.42806351929903"></path></g><g><path class="minor_road" style="fill:none;stroke:#ccc;stroke-linejoin:round;stroke-linecap:round;" d="M706.0611590826593,154.45246198028326L651.2630433564482,5.357955940067768L646.8338583324512,-103.42806351929903"></path></g><g></g><g></g><g><path class="major_road" style="fill:none;stroke:#ccc;stroke-linejoin:round;stroke-linecap:round;" d="M590.8501526755572,262.8910986855626L536.9691914239957,154.45246198028326"></path></g><g><path class="minor_road" style="fill:none;stroke:#ccc;stroke-linejoin:round;stroke-linecap:round;" d="M820.3848371768836,408.99465723335743L751.2030549333431,277.30411548167467L706.0611590826593,154.45246198028326"></path><path class="major_road" style="fill:none;stroke:#ccc;stroke-linejoin:round;stroke-linecap:round;" d="M663.4544869831007,408.99465723335743L590.8501526755572,262.8910986855626"></path></g><g></g><g></g><g></g><g><path class="minor_road" style="fill:none;stroke:#ccc;stroke-linejoin:round;stroke-linecap:round;" d="M846.8555557546497,459.37427919358015L820.3848371768836,408.99465723335743"></path><path class="minor_road" style="fill:none;stroke:#ccc;stroke-linejoin:round;stroke-linecap:round;" d="M776.070617315534,663.5237057879567L786.4352085333376,656.4906822070479"></path><path class="major_road" style="fill:none;stroke:#ccc;stroke-linejoin:round;stroke-linecap:round;" d="M789.5147597368632,663.5237057879567L786.4352085333376,656.4906822070479L663.4544869831007,408.99465723335743"></path></g><g></g><g></g><g><path class="minor_road" style="fill:none;stroke:#ccc;stroke-linejoin:round;stroke-linecap:round;" d="M590.8501526755572,780.3459223881364L587.15916515555,773.3129138574004L590.8501526755572,771.4350525662303"></path></g><g><path class="minor_road" style="fill:none;stroke:#ccc;stroke-linejoin:round;stroke-linecap:round;" d="M664.8712296675367,921.4125724434853L590.8501526755572,780.3459223881364M590.8501526755572,771.4350525662303L695.8084159715509,717.9817641228437L776.070617315534,663.5237057879567"></path><path class="major_road" style="fill:none;stroke:#ccc;stroke-linejoin:round;stroke-linecap:round;" d="M846.8555557546497,794.6989982277155L789.5147597368632,663.5237057879567"></path></g><path class="waypath" style="fill:none;stroke:orange; stroke-width:5;stroke-linejoin:round; stroke-linecap:round}" d="M354.962495715532,71.78968582302332L231.78044757331372,119.8730985596776L185.25163519999478,149.89530742168427L164.2241911466699,208.5043529048562L165.71549923554994,265.5584041401744L357.94511189332115,656.0840107500553L409.0224139377824,708.712056748569L473.59605418666615,728.2083427011967L526.1646643199783,713.1375946253538L563.745628159988,689.0961546227336L575.7506582755595,666.6096240207553L635.8503742577741,629.052312888205L544.2094921955431,445.81053940951824L526.1646643199783,453.34595081210136L400,205.51409700512886L416.55351978665567,194.9883949160576L354.962495715532,71.78968582302332"></path><path class="center" style="fill:none; stroke:red; stroke-width:1;stroke-linejoin:round; stroke-linecap:round}" d="M400,400m0,4.5a4.5,4.5 0 1,1 0,-9a4.5,4.5 0 1,1 0,9z"></path></svg>
