<svg xmlns="http://www.w3.org/2000/svg" version="1.1" width="800" height="800"><g><path class="minor_road" style="fill:none;stroke:#ccc;stroke-linejoin:round;stroke-linecap:round;" d="M-1.4526809884409886,112.28347525000572L-71.46213922131574,1.7012053057551384"></path><path class="minor_road" style="fill:none;stroke:#ccc;stroke-linejoin:round;stroke-linecap:round;" d="M-71.46213922131574,1.7012053057551384L-166.31679021510354,60.14330395311117"></path><path class="minor_road" style="fill:none;stroke:#ccc;stroke-linejoin:round;stroke-linecap:round;" d="M-71.46213922131574,1.7012053057551384L89.69606940443919,-105.61053562164307"></path></g><g><path class="minor_road" style="fill:none;stroke:#ccc;stroke-linejoin:round;stroke-linecap:round;" d="M89.69606940443919,-105.61053562164307L144.7178813440114,-142.2477731704712"></path></g><g><path class="minor_road" style="fill:none;stroke:#ccc;stroke-linejoin:round;stroke-linecap:round;" d="M452.50150126936205,-142.2477731704712L601.7143321031181,43.66977898031473"></path></g><g><path class="minor_road" style="fill:none;stroke:#ccc;stroke-linejoin:round;stroke-linecap:round;" d="M857.6600828586961,90.70617232471704L679.5606143431214,-142.2477731704712"></path><path class="minor_road" style="fill:none;stroke:#ccc;stroke-linejoin:round;stroke-linecap:round;" d="M601.7143321031181,43.66977898031473L656.7883398257982,112.28347525000572"></path></g><g><path class="minor_road" style="fill:none;stroke:#ccc;stroke-linejoin:round;stroke-linecap:round;" d="M89.69606940443919,256.2557438611984L-1.4526809884409886,112.28347525000572"></path></g><g><path class="minor_road" style="fill:none;stroke:#ccc;stroke-linejoin:round;stroke-linecap:round;" d="M161.81572858312575,370.16812597215176L89.69606940443919,256.2557438611984"></path></g><g></g><g><path class="minor_road" style="fill:none;stroke:#ccc;stroke-linejoin:round;stroke-linecap:round;" d="M656.7883398257982,112.28347525000572L857.6600828586961,362.5603964701295"></path></g><g></g><g><path class="minor_road" style="fill:none;stroke:#ccc;stroke-linejoin:round;stroke-linecap:round;" d="M322.9590241280239,624.7089655175805L161.81572858312575,370.16812597215176"></path></g><g></g><g></g><g></g><g><path class="minor_road" style="fill:none;stroke:#ccc;stroke-linejoin:round;stroke-linecap:round;" d="M345.70892902402557,660.6508127897978L322.9590241280239,624.7089655175805"></path></g><g><path class="minor_road" style="fill:none;stroke:#ccc;stroke-linejoin:round;stroke-linecap:round;" d="M486.21997715912585,882.591195255518L345.70892902402557,660.6508127897978"></path></g><g></g><path class="waypath" style="fill:none;stroke:orange; stroke-width:5;stroke-linejoin:round; stroke-linecap:round}" d="M191.14230215111456,249.40278270840645L456.9679689955665,656.1461025476456L608.8576978489145,551.6750589981675L497.0841565866722,374.6009757742286L514.3087650133384,363.45894726365805L434.598347662235,248.9235546067357L383.7447418311349,175.84122241288424L361.52425130669144,143.97250263392925L191.14230215111456,249.40278270840645"></path><path class="center" style="fill:none; stroke:red; stroke-width:1;stroke-linejoin:round; stroke-linecap:round}" d="M400,400m0,4.5a4.5,4.5 0 1,1 0,-9a4.5,4.5 0 1,1 0,9z"></path></svg>
