<svg xmlns="http://www.w3.org/2000/svg" version="1.1" width="800" height="800"><g></g><g></g><g></g><g></g><g><path class="minor_road" style="fill:none;stroke:#ccc;stroke-linejoin:round;stroke-linecap:round;" d="M50.50449282844784,449.887415394187L19.992329329747008,366.42236683517694"></path></g><g><path class="minor_road" style="fill:none;stroke:#ccc;stroke-linejoin:round;stroke-linecap:round;" d="M105.64560941510717,449.887415394187L169.83150956087047,422.6924329325557L181.62775654398138,449.887415394187"></path></g><g></g><g></g><g><path class="minor_road" style="fill:none;stroke:#ccc;stroke-linejoin:round;stroke-linecap:round;" d="M86.70599668621435,548.8478183969855L57.90138094933354,470.1130011975765L50.50449282844784,449.887415394187"></path><path class="minor_road" style="fill:none;stroke:#ccc;stroke-linejoin:round;stroke-linecap:round;" d="M57.90138094933354,470.1130011975765L86.70599668621435,457.91059124469757"></path></g><g><path class="minor_road" style="fill:none;stroke:#ccc;stroke-linejoin:round;stroke-linecap:round;" d="M143.62176989865839,704.4250883385539L86.70599668621435,548.8478183969855"></path><path class="minor_road" style="fill:none;stroke:#ccc;stroke-linejoin:round;stroke-linecap:round;" d="M86.70599668621435,457.91059124469757L105.64560941510717,449.887415394187M181.62775654398138,449.887415394187L268.6977793137776,650.7059548795223"></path></g><g><path class="major_road" style="fill:none;stroke:#ccc;stroke-linejoin:round;stroke-linecap:round;" d="M546.6328678400023,704.4250883385539L598.7242593848787,679.5054522901773"></path></g><g><path class="path" style="fill:none;stroke:#ccc;stroke-linejoin:round;stroke-linecap:round;" d="M720.5715867875551,621.2238756343722L640.4137770097586,704.4250883385539"></path><path class="path" style="fill:none;stroke:#ccc;stroke-linejoin:round;stroke-linecap:round;" d="M720.5715867875551,621.2238756343722L760.1210773049097,704.4250883385539"></path><path class="major_road" style="fill:none;stroke:#ccc;stroke-linejoin:round;stroke-linecap:round;" d="M598.7242593848787,679.5054522901773L720.5715867875551,621.2238756343722L854.7371190044505,534.7893209457397"></path></g><g><path class="major_road" style="fill:none;stroke:#ccc;stroke-linejoin:round;stroke-linecap:round;" d="M-120.85426312533673,962.3025377988815L86.70599668621435,873.4855384007096"></path></g><g><path class="minor_road" style="fill:none;stroke:#ccc;stroke-linejoin:round;stroke-linecap:round;" d="M189.39001514663687,829.5499894469976L143.62176989865839,704.4250883385539"></path><path class="major_road" style="fill:none;stroke:#ccc;stroke-linejoin:round;stroke-linecap:round;" d="M86.70599668621435,873.4855384007096L189.39001514663687,829.5499894469976L342.7188563057862,777.423629924655"></path></g><g><path class="path" style="fill:none;stroke:#ccc;stroke-linejoin:round;stroke-linecap:round;" d="M598.7242593848787,747.6901478245854L468.0409315555589,883.3288209214807L472.62670392889413,962.3025377988815"></path><path class="major_road" style="fill:none;stroke:#ccc;stroke-linejoin:round;stroke-linecap:round;" d="M342.7188563057862,777.423629924655L520.0204749937402,717.1423609703779L546.6328678400023,704.4250883385539"></path></g><g><path class="path" style="fill:none;stroke:#ccc;stroke-linejoin:round;stroke-linecap:round;" d="M640.4137770097586,704.4250883385539L598.7242593848787,747.6901478245854"></path><path class="path" style="fill:none;stroke:#ccc;stroke-linejoin:round;stroke-linecap:round;" d="M760.1210773049097,704.4250883385539L788.4932136959687,764.1076302602887"></path><path class="path" style="fill:none;stroke:#ccc;stroke-linejoin:round;stroke-linecap:round;" d="M854.7371190044505,880.6584415137768L846.9674038613448,875.425455532968L788.4932136959687,764.1076302602887"></path></g><path class="waypath" style="fill:none;stroke:orange; stroke-width:5;stroke-linejoin:round; stroke-linecap:round}" d="M228.20130816000164,337.13173273950815L421.5494018844038,231.99187836050987L494.5489328355761,366.2307683005929L521.0196514133131,351.741126999259L571.8732572444424,445.38485645502806L345.9400817777787,568.1273532658815L311.0434724977822,504.0617918148637L283.901665279991,518.7908901572227L250.64549489776255,457.5992441251874L283.901665279991,439.5171594619751L228.20130816000164,337.13173273950815"></path><path class="center" style="fill:none; stroke:red; stroke-width:1;stroke-linejoin:round; stroke-linecap:round}" d="M400,400m0,4.5a4.5,4.5 0 1,1 0,-9a4.5,4.5 0 1,1 0,9z"></path></svg>
