<svg xmlns="http://www.w3.org/2000/svg" version="1.1" width="800" height="800"><g><path class="path" style="fill:none;stroke:#ccc;stroke-linejoin:round;stroke-linecap:round;" d="M-119.25483520000125,93.92278143949807L24.37677511110087,118.17062985897064L58.471806293324335,116.6420275811106"></path><path class="minor_road" style="fill:none;stroke:#ccc;stroke-linejoin:round;stroke-linecap:round;" d="M-88.51524721777241,227.33037280477583L-94.01444579556119,204.58133863285184L-119.25483520000125,93.92278143949807"></path><path class="minor_road" style="fill:none;stroke:#ccc;stroke-linejoin:round;stroke-linecap:round;" d="M-197.5298685155576,100.57670705206692L-157.28319146666036,100.03719969652593L-119.25483520000125,93.92278143949807"></path><path class="minor_road" style="fill:none;stroke:#ccc;stroke-linejoin:round;stroke-linecap:round;" d="M-119.25483520000125,93.92278143949807L-95.63624334221822,86.63942671567202L-68.34530531553901,74.74027502536774L-9.214939591111033,44.55774547345936L58.471806293324335,0.7375092022120953"></path></g><g><path class="path" style="fill:none;stroke:#ccc;stroke-linejoin:round;stroke-linecap:round;" d="M58.471806293324335,116.6420275811106L96.36967310222099,114.96356214769185"></path><path class="path" style="fill:none;stroke:#ccc;stroke-linejoin:round;stroke-linecap:round;" d="M107.36807025778398,109.98810981214046L109.82872860445059,108.87912320159376L145.9743084088841,92.54403969831765L301.2008391111158,82.9527888931334L314.4548397511244,81.69393672049046"></path><path class="path" style="fill:none;stroke:#ccc;stroke-linejoin:round;stroke-linecap:round;" d="M109.82872860445059,108.87912320159376L185.40076600889734,-28.036457119509578"></path><path class="minor_road" style="fill:none;stroke:#ccc;stroke-linejoin:round;stroke-linecap:round;" d="M66.43166321777971,-4.717550588771701L98.9608209066646,-28.036457119509578"></path><path class="minor_road" style="fill:none;stroke:#ccc;stroke-linejoin:round;stroke-linecap:round;" d="M58.471806293324335,0.7375092022120953L58.807350613336894,0.49772640503942966"></path><path class="path" style="fill:none;stroke:#ccc;stroke-linejoin:round;stroke-linecap:round;" d="M96.36967310222099,114.96356214769185L107.36807025778398,109.98810981214046"></path><path class="minor_road" style="fill:none;stroke:#ccc;stroke-linejoin:round;stroke-linecap:round;" d="M58.807350613336894,0.49772640503942966L66.43166321777971,-4.717550588771701"></path></g><g><path class="path" style="fill:none;stroke:#ccc;stroke-linejoin:round;stroke-linecap:round;" d="M314.4548397511244,81.69393672049046L457.9746019555605,67.96644600108266L561.9746998044429,89.3669386152178L570.4565145600063,92.39417645148933"></path><path class="minor_road" style="fill:none;stroke:#ccc;stroke-linejoin:round;stroke-linecap:round;" d="M480.8661811200145,227.33037280477583L477.1938349511038,179.94400191493332L465.9903829333198,106.33145091682673L457.9746019555605,67.96644600108266L451.5806185244437,37.574092077091336L444.83244942223246,-28.036457119509578"></path></g><g><path class="path" style="fill:none;stroke:#ccc;stroke-linejoin:round;stroke-linecap:round;" d="M570.4565145600063,92.39417645148933L633.9862391466595,114.96356214769185L685.1940306488832,145.35574363917112L721.9734163911053,190.19457807205617"></path><path class="minor_road" style="fill:none;stroke:#ccc;stroke-linejoin:round;stroke-linecap:round;" d="M770.3104398222058,227.33037280477583L765.1840682666807,214.14253152906895L755.9752408177737,202.21351867355406L701.1883099022234,28.582258401438594L693.1725289244496,-24.199924770742655L692.501440284439,-28.036457119509578"></path><path class="minor_road" style="fill:none;stroke:#ccc;stroke-linejoin:round;stroke-linecap:round;" d="M755.9752408177737,202.21351867355406L750.7929452089011,198.16724309138954L721.9734163911053,190.19457807205617L691.569372728889,199.75578105822206L662.7871266133297,214.14253152906895L654.4171599644469,227.33037280477583"></path></g><g><path class="minor_road" style="fill:none;stroke:#ccc;stroke-linejoin:round;stroke-linecap:round;" d="M-51.139338240012876,483.56160370260477L-62.02588728889532,337.35843337886035L-88.51524721777241,227.33037280477583"></path></g><g></g><g><path class="minor_road" style="fill:none;stroke:#ccc;stroke-linejoin:round;stroke-linecap:round;" d="M526.8357529600034,483.56160370260477L510.1890264177782,452.1811045203358L501.2038951822178,422.2092136349529L492.2187639466574,364.183445693925L489.90723640889337,343.95229604654014"></path><path class="minor_road" style="fill:none;stroke:#ccc;stroke-linejoin:round;stroke-linecap:round;" d="M489.90723640889337,343.95229604654014L480.8661811200145,227.33037280477583"></path></g><g><path class="minor_road" style="fill:none;stroke:#ccc;stroke-linejoin:round;stroke-linecap:round;" d="M792.4004408889014,308.5552049987018L781.1969888711174,271.77929846942425L776.3688789333391,242.94595928117633L770.3104398222058,227.33037280477583"></path><path class="minor_road" style="fill:none;stroke:#ccc;stroke-linejoin:round;stroke-linecap:round;" d="M804.3122642488888,364.3632780034095L803.6038929066563,354.952050762251L792.4004408889014,308.5552049987018"></path><path class="minor_road" style="fill:none;stroke:#ccc;stroke-linejoin:round;stroke-linecap:round;" d="M662.7871266133297,433.3587647341192L672.3874224355532,452.5407668091357L705.9977784888761,471.7527137231082L742.7771642311127,458.9547427352518L777.9720351288852,441.36125950701535L800.3789391644532,418.9422735404223L806.7729225955554,396.55322271212935L804.3122642488888,364.3632780034095"></path><path class="minor_road" style="fill:none;stroke:#ccc;stroke-linejoin:round;stroke-linecap:round;" d="M654.4171599644469,227.33037280477583L651.6023159466713,231.76628018915653L643.5865349688975,260.5696707237512L645.1896911644435,286.165972976014L647.0911089777946,330.6746511552483"></path><path class="minor_road" style="fill:none;stroke:#ccc;stroke-linejoin:round;stroke-linecap:round;" d="M826.4581893688737,362.0854019392282L804.3122642488888,364.3632780034095"></path></g><g><path class="minor_road" style="fill:none;stroke:#ccc;stroke-linejoin:round;stroke-linecap:round;" d="M37.20202467555646,724.5626299958676L36.9410457599879,739.7580500654876"></path><path class="minor_road" style="fill:none;stroke:#ccc;stroke-linejoin:round;stroke-linecap:round;" d="M-197.5298685155576,530.9469198137522L-174.02312476442603,527.7699208464473L-94.01444579556119,511.76502799987793L-55.63190385776397,497.34861967898905L-50.82243527111132,487.7576535176486L-51.139338240012876,483.56160370260477"></path></g><g></g><g><path class="minor_road" style="fill:none;stroke:#ccc;stroke-linejoin:round;stroke-linecap:round;" d="M570.4565145600063,542.3361553139985L558.1905055288953,536.1919636614621L536.2123525688949,501.21497600339353L526.8357529600034,483.56160370260477"></path></g><g><path class="minor_road" style="fill:none;stroke:#ccc;stroke-linejoin:round;stroke-linecap:round;" d="M826.4581893688737,709.7568197902292L816.1868049066688,706.1902355793864L727.21163605334,647.2065900098532L666.1984938666719,593.1979672685266L596.2002204444434,555.1939913276583L570.4565145600063,542.3361553139985"></path><path class="minor_road" style="fill:none;stroke:#ccc;stroke-linejoin:round;stroke-linecap:round;" d="M774.7470813866676,597.7836133483797L797.1353440711246,612.1699440144002L826.4581893688737,622.7498816754669"></path></g><g><path class="minor_road" style="fill:none;stroke:#ccc;stroke-linejoin:round;stroke-linecap:round;" d="M36.9410457599879,739.7580500654876L35.58022712888487,818.9417994823307L36.28859847111744,883.8889146968722L37.20202467555646,964.57036408782L35.93441280000843,995.9796551503241"></path></g><g></g><g></g><g></g><path class="waypath" style="fill:none;stroke:orange; stroke-width:5;stroke-linejoin:round; stroke-linecap:round}" d="M551.1999988622265,199.18630520254374L451.1891501511127,186.17827136814594L458.7016146488895,270.8801308032125L433.4985079466569,275.6457187347114L414.5029711644456,296.6262747105211L223.50368768000044,321.65303855761886L241.54851555556525,613.7884052693844L303.56829070221283,577.2830659411848L529.1845631999895,564.4851939696819L558.1905055288953,536.1919636614621L536.1937112177693,501.1850042529404L576.4963123200141,486.6486976221204L556.1958809599892,322.192537156865L558.1905055288953,229.1886585112661L551.1999988622265,199.18630520254374"></path><path class="center" style="fill:none; stroke:red; stroke-width:1;stroke-linejoin:round; stroke-linecap:round}" d="M400,400m0,4.5a4.5,4.5 0 1,1 0,-9a4.5,4.5 0 1,1 0,9z"></path></svg>
