<svg xmlns="http://www.w3.org/2000/svg" version="1.1" width="800" height="800"><g><path class="minor_road" style="fill:none;stroke:#ccc;stroke-linejoin:round;stroke-linecap:round;" d="M-229.56316626488479,45.79541748017073L-110.80284660622056,10.789346985518932L1.1943908693356207,-0.19647784531116486L26.44223681422227,1.3968862146139145"></path></g><g><path class="minor_road" style="fill:none;stroke:#ccc;stroke-linejoin:round;stroke-linecap:round;" d="M26.44223681422227,1.3968862146139145L99.52378971022335,6.033215917646885L254.72422252089018,50.57550546526909"></path></g><g><path class="minor_road" style="fill:none;stroke:#ccc;stroke-linejoin:round;stroke-linecap:round;" d="M349.7876566471132,-207.31023917347193L348.90032833422447,-201.02062068134546L331.55641526044565,-118.22534824162722L293.72192904533586,50.57550546526909"></path></g><g></g><g></g><g></g><g><path class="minor_road" style="fill:none;stroke:#ccc;stroke-linejoin:round;stroke-linecap:round;" d="M254.72422252089018,50.57550546526909L282.3879875697785,58.5183574706316"></path></g><g><path class="minor_road" style="fill:none;stroke:#ccc;stroke-linejoin:round;stroke-linecap:round;" d="M291.36566226488867,61.094093546271324L536.3204724053321,104.63000489026308L538.4008471893358,105.00138980150223"></path><path class="minor_road" style="fill:none;stroke:#ccc;stroke-linejoin:round;stroke-linecap:round;" d="M282.3879875697785,58.5183574706316L291.36566226488867,61.094093546271324"></path><path class="minor_road" style="fill:none;stroke:#ccc;stroke-linejoin:round;stroke-linecap:round;" d="M293.72192904533586,50.57550546526909L291.36566226488867,61.094093546271324"></path></g><g><path class="minor_road" style="fill:none;stroke:#ccc;stroke-linejoin:round;stroke-linecap:round;" d="M538.4008471893358,105.00138980150223L794.4062502684465,150.41814938932657"></path></g><g><path class="minor_road" style="fill:none;stroke:#ccc;stroke-linejoin:round;stroke-linecap:round;" d="M794.4062502684465,150.41814938932657L1050.419109888,195.83487117290497"></path></g><g></g><g></g><g></g><g></g><g></g><g><path class="path" style="fill:none;stroke:#ccc;stroke-linejoin:round;stroke-linecap:round;" d="M26.44223681422227,630.6642256528139L-229.56316626488479,574.190276093781"></path></g><g><path class="path" style="fill:none;stroke:#ccc;stroke-linejoin:round;stroke-linecap:round;" d="M282.3879875697785,687.0422765389085L218.01567391289063,672.9178191870451L26.44223681422227,630.6642256528139"></path><path class="path" style="fill:none;stroke:#ccc;stroke-linejoin:round;stroke-linecap:round;" d="M193.38672082488847,817.528608687222L218.01567391289063,672.9178191870451"></path></g><g><path class="path" style="fill:none;stroke:#ccc;stroke-linejoin:round;stroke-linecap:round;" d="M538.4008471893358,743.2166088744998L282.3879875697785,687.0422765389085"></path></g><g><path class="path" style="fill:none;stroke:#ccc;stroke-linejoin:round;stroke-linecap:round;" d="M549.8391802311126,817.528608687222L547.9750451200016,745.3250919729471L538.4008471893358,743.2166088744998"></path></g><g></g><path class="waypath" style="fill:none;stroke:orange; stroke-width:5;stroke-linejoin:round; stroke-linecap:round}" d="M550.2492899555546,212.63102196902037L553.3810369422245,193.82220796495676L792.2885927822244,238.5081058293581L789.0822803911105,257.9159106388688L725.9253828266665,642.3567458689213L723.9121169066675,654.6961856111884L484.40803783111187,613.6046424731612L488.80739669333343,597.9107796400785L371.66514631111204,579.2218989208341L248.18483655111413,559.4548065960407L250.94375651555674,542.3233207836747L7.785972622223198,498.2366752177477L16.211863324442675,449.35796136409044L64.08285297777911,170.58073458075523L68.40764643555667,145.30262599140406L305.5256325688897,188.67074821144342L307.8371601066683,173.93517464399338L423.3389715911144,192.38459134101868L550.2492899555546,212.63102196902037"></path><path class="center" style="fill:none; stroke:red; stroke-width:1;stroke-linejoin:round; stroke-linecap:round}" d="M400,400m0,4.5a4.5,4.5 0 1,1 0,-9a4.5,4.5 0 1,1 0,9z"></path></svg>
