<svg xmlns="http://www.w3.org/2000/svg" version="1.1" width="800" height="800"><g><path class="rail" style="fill:none;stroke:#ccc;stroke-linejoin:round;stroke-linecap:round;" d="M-18.10313580087677,-65.27101074159145L53.33052165688423,34.48655745387077"></path><path class="path" style="fill:none;stroke:#ccc;stroke-linejoin:round;stroke-linecap:round;" d="M231.6462298453407,34.48655745387077L237.90972381866595,17.045759588479996"></path><path class="path" style="fill:none;stroke:#ccc;stroke-linejoin:round;stroke-linecap:round;" d="M1.134738545777509,34.48655745387077L-2.697923242667457,27.107758715748787"></path><path class="path" style="fill:none;stroke:#ccc;stroke-linejoin:round;stroke-linecap:round;" d="M-2.697923242667457,27.107758715748787L-18.10313580087677,34.12720037996769"></path><path class="path" style="fill:none;stroke:#ccc;stroke-linejoin:round;stroke-linecap:round;" d="M-18.10313580087677,-11.96634304523468L221.02811625244794,-118.64757604897022L237.90972381866595,-113.44886988401413"></path><path class="minor_road" style="fill:none;stroke:#ccc;stroke-linejoin:round;stroke-linecap:round;" d="M-18.10313580087677,-47.303142324090004L237.90972381866595,-159.85391901433468"></path></g><g><path class="path" style="fill:none;stroke:#ccc;stroke-linejoin:round;stroke-linecap:round;" d="M237.90972381866595,17.045759588479996L280.09882965333236,-100.41616997122765"></path><path class="path" style="fill:none;stroke:#ccc;stroke-linejoin:round;stroke-linecap:round;" d="M237.90972381866595,-113.44886988401413L280.09882965333236,-100.41616997122765L409.2311970702285,34.48655745387077"></path><path class="minor_road" style="fill:none;stroke:#ccc;stroke-linejoin:round;stroke-linecap:round;" d="M347.75947764622106,-208.12764859199524L375.4232426951203,-220.05833050608635"></path><path class="minor_road" style="fill:none;stroke:#ccc;stroke-linejoin:round;stroke-linecap:round;" d="M347.75947764622106,-208.12764859199524L411.09533218132856,34.48655745387077"></path><path class="minor_road" style="fill:none;stroke:#ccc;stroke-linejoin:round;stroke-linecap:round;" d="M237.90972381866595,-159.85391901433468L347.75947764622106,-208.12764859199524"></path></g><g></g><g></g><g><path class="rail" style="fill:none;stroke:#ccc;stroke-linejoin:round;stroke-linecap:round;" d="M53.33052165688423,34.48655745387077L235.58328320000146,289.0068948119879"></path><path class="rail" style="fill:none;stroke:#ccc;stroke-linejoin:round;stroke-linecap:round;" d="M124.22730820266588,289.0068948119879L-18.10313580087677,90.33063179254532"></path><path class="path" style="fill:none;stroke:#ccc;stroke-linejoin:round;stroke-linecap:round;" d="M140.21413091555587,289.0068948119879L231.6462298453407,34.48655745387077"></path><path class="path" style="fill:none;stroke:#ccc;stroke-linejoin:round;stroke-linecap:round;" d="M133.72694072889863,289.0068948119879L1.134738545777509,34.48655745387077"></path></g><g><path class="path" style="fill:none;stroke:#ccc;stroke-linejoin:round;stroke-linecap:round;" d="M409.2311970702285,34.48655745387077L411.7962469831109,37.14579972624779"></path><path class="minor_road" style="fill:none;stroke:#ccc;stroke-linejoin:round;stroke-linecap:round;" d="M411.09533218132856,34.48655745387077L411.7962469831109,37.14579972624779L493.90767035733734,165.38828098773956"></path></g><g><path class="minor_road" style="fill:none;stroke:#ccc;stroke-linejoin:round;stroke-linecap:round;" d="M493.90767035733734,165.38828098773956L573.0961298773327,289.0068948119879"></path></g><g></g><g><path class="rail" style="fill:none;stroke:#ccc;stroke-linejoin:round;stroke-linecap:round;" d="M235.58328320000146,289.0068948119879L237.90972381866595,292.2650579214096"></path><path class="rail" style="fill:none;stroke:#ccc;stroke-linejoin:round;stroke-linecap:round;" d="M237.90972381866595,447.6984916329384L124.22730820266588,289.0068948119879"></path><path class="path" style="fill:none;stroke:#ccc;stroke-linejoin:round;stroke-linecap:round;" d="M237.90972381866595,511.615875184536L137.55960251732904,296.3856758624315L140.21413091555587,289.0068948119879"></path><path class="path" style="fill:none;stroke:#ccc;stroke-linejoin:round;stroke-linecap:round;" d="M137.55960251732904,296.3856758624315L133.72694072889863,289.0068948119879"></path></g><g><path class="rail" style="fill:none;stroke:#ccc;stroke-linejoin:round;stroke-linecap:round;" d="M237.90972381866595,292.2650579214096L417.8509578240046,543.5505959093571"></path><path class="rail" style="fill:none;stroke:#ccc;stroke-linejoin:round;stroke-linecap:round;" d="M306.569548231113,543.5505959093571L237.90972381866595,447.6984916329384"></path><path class="path" style="fill:none;stroke:#ccc;stroke-linejoin:round;stroke-linecap:round;" d="M252.7929785457818,543.5505959093571L237.90972381866595,511.615875184536"></path></g><g><path class="minor_road" style="fill:none;stroke:#ccc;stroke-linejoin:round;stroke-linecap:round;" d="M573.0961298773327,289.0068948119879L731.5774404835538,536.4593158662319L736.1855824782251,543.5505959093571"></path></g><g></g><g><path class="path" style="fill:none;stroke:#ccc;stroke-linejoin:round;stroke-linecap:round;" d="M217.31475911110465,804.777698084712L237.90972381866595,727.1331340074539"></path><path class="path" style="fill:none;stroke:#ccc;stroke-linejoin:round;stroke-linecap:round;" d="M58.49044764444989,804.777698084712L-18.10313580087677,655.693378329277"></path></g><g><path class="rail" style="fill:none;stroke:#ccc;stroke-linejoin:round;stroke-linecap:round;" d="M417.8509578240046,543.5505959093571L493.90767035733734,649.7759987860918"></path><path class="rail" style="fill:none;stroke:#ccc;stroke-linejoin:round;stroke-linecap:round;" d="M493.7138003057771,804.777698084712L306.569548231113,543.5505959093571"></path><path class="path" style="fill:none;stroke:#ccc;stroke-linejoin:round;stroke-linecap:round;" d="M493.90767035733734,785.7079491019249L462.9928536746738,804.777698084712"></path><path class="path" style="fill:none;stroke:#ccc;stroke-linejoin:round;stroke-linecap:round;" d="M237.90972381866595,727.1331340074539L274.34238043022924,589.7636898308992L252.7929785457818,543.5505959093571"></path></g><g><path class="rail" style="fill:none;stroke:#ccc;stroke-linejoin:round;stroke-linecap:round;" d="M493.90767035733734,649.7759987860918L604.9057314133388,804.777698084712"></path><path class="path" style="fill:none;stroke:#ccc;stroke-linejoin:round;stroke-linecap:round;" d="M749.9205299768801,627.8313818573952L729.9668277475575,640.1452831625938L493.90767035733734,785.7079491019249"></path><path class="minor_road" style="fill:none;stroke:#ccc;stroke-linejoin:round;stroke-linecap:round;" d="M736.1855824782251,543.5505959093571L749.9205299768801,564.6567339897156"></path></g><g><path class="path" style="fill:none;stroke:#ccc;stroke-linejoin:round;stroke-linecap:round;" d="M779.2694731662195,609.7198824882507L749.9205299768801,627.8313818573952"></path><path class="minor_road" style="fill:none;stroke:#ccc;stroke-linejoin:round;stroke-linecap:round;" d="M749.9205299768801,564.6567339897156L779.2694731662195,609.7198824882507L904.2112648533221,804.777698084712"></path></g><path class="waypath" style="fill:none;stroke:orange; stroke-width:5;stroke-linejoin:round; stroke-linecap:round}" d="M259.8170396444475,475.7042763829231L243.26351985777728,428.0297540128231L242.51786581333727,377.7199339568615L259.2205164088955,326.45180781185627L292.0292943644454,283.80820789933205L337.2159294577723,254.58056238293648L389.70997418666957,242.36244589090347L443.09880376889487,248.11214791238308L491.5663166577724,271.590094730258L529.445542115558,309.6818547695875L552.2625558755681,358.3147114664316L557.6312649955653,411.97852823138237L544.6568846222217,464.20489601790905L517.3659465955425,506.6088550686836L478.14454385777935,538.2321359664202L431.01920824889385,555.9603348225355L380.61299484444316,557.8768966495991L332.1454819555511,544.2213926613331L290.3888554666628,515.7125278115273L259.8170396444475,475.7042763829231"></path><path class="center" style="fill:none; stroke:red; stroke-width:1;stroke-linejoin:round; stroke-linecap:round}" d="M400,400m0,4.5a4.5,4.5 0 1,1 0,-9a4.5,4.5 0 1,1 0,9z"></path></svg>
