<svg xmlns="http://www.w3.org/2000/svg" version="1.1" width="800" height="800"><g><path class="minor_road" style="fill:none;stroke:#ccc;stroke-linejoin:round;stroke-linecap:round;" d="M-191.66157118577394,-85.11807252466679L-44.916855239105644,-166.75952345132828"></path></g><g><path class="path" style="fill:none;stroke:#ccc;stroke-linejoin:round;stroke-linecap:round;" d="M320.2448434062535,-32.83222508430481L205.83168682668475,-166.75952345132828"></path></g><g><path class="path" style="fill:none;stroke:#ccc;stroke-linejoin:round;stroke-linecap:round;" d="M428.9761161671486,94.45468784868717L320.2448434062535,-32.83222508430481"></path></g><g></g><g></g><g></g><g><path class="path" style="fill:none;stroke:#ccc;stroke-linejoin:round;stroke-linecap:round;" d="M576.2427899448958,266.86145809292793L428.9761161671486,94.45468784868717"></path></g><g><path class="path" style="fill:none;stroke:#ccc;stroke-linejoin:round;stroke-linecap:round;" d="M646.3939224462083,349.0041836798191L576.2427899448958,266.86145809292793"></path></g><g></g><g></g><g></g><g><path class="path" style="fill:none;stroke:#ccc;stroke-linejoin:round;stroke-linecap:round;" d="M832.2407364835963,536.4345917403698L672.029508494219,379.00453566014767L646.3939224462083,349.0041836798191"></path></g><g></g><g></g><g></g><g><path class="major_road" style="fill:none;stroke:#ccc;stroke-linejoin:round;stroke-linecap:round;" d="M789.425281251577,858.0775128155947L832.2407364835963,826.8591301888227"></path></g><path class="waypath" style="fill:none;stroke:orange; stroke-width:5;stroke-linejoin:round; stroke-linecap:round}" d="M130.37149752888945,292.03693218529224L158.40808960000868,362.0218533575535L232.37697080892394,334.0756615251303L260.41356288001407,408.1211114823818L232.37697080892394,417.9142155945301L262.3522633955872,478.10595831274986L292.3275559822505,464.01345010101795L304.40715150226606,506.0521133542061L248.3339673599694,536.147964566946L306.345852017781,657.96442091465L372.2616695466859,630.0183046758175L396.271729777829,686.1493855714798L490.2241393777949,641.9610902518034L478.29367466669646,598.0116328597069L537.6477366045001,564.8106724172831L556.2890877155878,590.1293914169073L608.335740017792,570.0655013471842L602.2213768533838,542.1193627119064L669.6285024711397,508.67952927947044L644.2762649599754,464.01345010101795L654.2680291555589,443.94953694939613L642.3375644444895,410.03196109831333L614.3009723733703,400L597.5983217777975,370.62068016827106L566.2808519111422,383.9966316521168L551.6660326400015,362.7384222596884L555.5434336711478,344.8241976797581L536.3055593244499,312.100873246789L516.3220309333119,309.9511653780937L502.3037348978105,283.9158121943474L480.2323751822114,290.1260804980993L438.32661788447876,222.0519662797451L453.5379603911424,210.8257047533989L398.35956110223196,114.08872275054455L153.63590371556347,238.77192810177803L166.46115327998996,266.00157465040684L130.37149752888945,292.03693218529224"></path><path class="center" style="fill:none; stroke:red; stroke-width:1;stroke-linejoin:round; stroke-linecap:round}" d="M400,400m0,4.5a4.5,4.5 0 1,1 0,-9a4.5,4.5 0 1,1 0,9z"></path></svg>
