<svg xmlns="http://www.w3.org/2000/svg" version="1.1" width="800" height="800"><g></g><g><path class="minor_road" style="fill:none;stroke:#ccc;stroke-linejoin:round;stroke-linecap:round;" d="M392.46889415121404,-93.42579926550388L420.9528786489973,-36.498387321829796"></path></g><g><path class="minor_road" style="fill:none;stroke:#ccc;stroke-linejoin:round;stroke-linecap:round;" d="M420.9528786489973,-36.498387321829796L519.8713441849686,161.13074862957"></path></g><g></g><g></g><g></g><g><path class="minor_road" style="fill:none;stroke:#ccc;stroke-linejoin:round;stroke-linecap:round;" d="M519.8713441849686,161.13074862957L647.2887072996236,415.66275402903557"></path></g><g></g><g></g><g></g><g><path class="minor_road" style="fill:none;stroke:#ccc;stroke-linejoin:round;stroke-linecap:round;" d="M647.2887072996236,415.66275402903557L676.9806513493531,474.98481567204"></path></g><g><path class="minor_road" style="fill:none;stroke:#ccc;stroke-linejoin:round;stroke-linecap:round;" d="M676.9806513493531,474.98481567204L774.7060704142787,670.194166123867"></path></g><g></g><g></g><g><path class="minor_road" style="fill:none;stroke:#ccc;stroke-linejoin:round;stroke-linecap:round;" d="M676.9806513493531,929.8500819057226L661.7096565191168,901.5423004031181"></path><path class="major_road" style="fill:none;stroke:#ccc;stroke-linejoin:round;stroke-linecap:round;" d="M661.7096565191168,901.5423004031181L676.9806513493531,892.7290471047163"></path><path class="major_road" style="fill:none;stroke:#ccc;stroke-linejoin:round;stroke-linecap:round;" d="M556.9750894365134,931.4307192564011L661.7096565191168,901.5423004031181"></path></g><g><path class="minor_road" style="fill:none;stroke:#ccc;stroke-linejoin:round;stroke-linecap:round;" d="M774.7060704142787,670.194166123867L839.2051452586893,799.0642380565405"></path><path class="minor_road" style="fill:none;stroke:#ccc;stroke-linejoin:round;stroke-linecap:round;" d="M677.830696960038,931.4307192564011L676.9806513493531,929.8500819057226"></path><path class="major_road" style="fill:none;stroke:#ccc;stroke-linejoin:round;stroke-linecap:round;" d="M676.9806513493531,892.7290471047163L839.2051452586893,799.0642380565405L932.9785978880827,745.22669441998"></path></g><path class="waypath" style="fill:none;stroke:orange; stroke-width:5;stroke-linejoin:round; stroke-linecap:round}" d="M412.8252495644847,712.5361800938845L455.62579171563266,696.4902831017971L462.0384164978168,713.254653096199L608.7831324444851,655.5373112559319L254.29919971560594,86.98394073545933L191.36599836451933,127.9371257275343L229.09609301335877,217.02821205556393L214.48127374227624,228.76332281529903L335.42635975114536,534.3547434061766L412.8252495644847,712.5361800938845"></path><path class="center" style="fill:none; stroke:red; stroke-width:1;stroke-linejoin:round; stroke-linecap:round}" d="M400,400m0,4.5a4.5,4.5 0 1,1 0,-9a4.5,4.5 0 1,1 0,9z"></path></svg>
