<svg xmlns="http://www.w3.org/2000/svg" version="1.1" width="800" height="800"><g></g><g></g><g><path class="minor_road" style="fill:none;stroke:#ccc;stroke-linejoin:round;stroke-linecap:round;" d="M608.7831324444414,-185.4882539883256L669.3451539342204,-29.622646413743496L708.8424486684526,69.05126852542162"></path></g><g></g><g></g><g></g><g><path class="minor_road" style="fill:none;stroke:#ccc;stroke-linejoin:round;stroke-linecap:round;" d="M708.8424486684526,69.05126852542162L720.7207175964431,98.71931054443121L721.9286771484476,109.39548812806606M721.9286771484476,209.83053790032864L711.4000420408847,326.9326358810067"></path></g><g><path class="path" style="fill:none;stroke:#ccc;stroke-linejoin:round;stroke-linecap:round;" d="M977.9340802275547,150.90195439010859L953.6854107022373,151.16556350141764L856.094209365343,152.37576888501644L763.521259747562,153.4421874433756L726.9469288675609,153.90949445217848"></path><path class="minor_road" style="fill:none;stroke:#ccc;stroke-linejoin:round;stroke-linecap:round;" d="M721.9286771484476,109.39548812806606L726.9469288675609,153.90949445217848L721.9286771484476,209.83053790032864"></path></g><g><path class="path" style="fill:none;stroke:#ccc;stroke-linejoin:round;stroke-linecap:round;" d="M141.66069976177823,581.4697686135769L142.85374623288226,578.4502699524164L199.98575911822263,581.4697686135769"></path></g><g></g><g><path class="minor_road" style="fill:none;stroke:#ccc;stroke-linejoin:round;stroke-linecap:round;" d="M711.4000420408847,326.9326358810067L688.5308324977814,581.4697686135769"></path></g><g></g><g><path class="path" style="fill:none;stroke:#ccc;stroke-linejoin:round;stroke-linecap:round;" d="M-46.03533630578022,611.32924618572L29.521788017780636,612.9468338117003L128.38805777067319,615.0317244231701L141.66069976177823,581.4697686135769M199.98575911822263,581.4697686135769L209.9775233137916,581.9969826489687"></path></g><g><path class="path" style="fill:none;stroke:#ccc;stroke-linejoin:round;stroke-linecap:round;" d="M209.9775233137916,581.9969826489687L465.9829263928841,595.5008493959904"></path></g><g><path class="path" style="fill:none;stroke:#ccc;stroke-linejoin:round;stroke-linecap:round;" d="M465.9829263928841,595.5008493959904L686.2267615004384,607.123518191278"></path><path class="minor_road" style="fill:none;stroke:#ccc;stroke-linejoin:round;stroke-linecap:round;" d="M688.5308324977814,581.4697686135769L686.2267615004384,607.123518191278L662.6939198577747,839.3487148359418"></path></g><g></g><path class="waypath" style="fill:none;stroke:orange; stroke-width:5;stroke-linejoin:round; stroke-linecap:round}" d="M613.5553183289012,264.9606984183192L637.3416823466687,293.47834272682667L636.8197245155461,340.20890413224697L659.1147804444481,343.56391724199057L649.4958432711137,533.3614668026567L623.1742555022211,555.7680784091353L597.4491909688804,577.8152166903019L449.51142855112266,574.2205751761794L450.9281712355587,540.3111120387912L377.18298624000454,537.7948612719774L373.45471601777535,570.0268264561892L192.18621781334514,559.362721145153L191.81339079112513,523.5361048057675L145.5082746311091,523.7757477983832L140.88521955555188,222.18420401215553L329.7593890133285,226.0185129866004L327.5224268800084,257.17226354032755L613.5553183289012,264.9606984183192"></path><path class="center" style="fill:none; stroke:red; stroke-width:1;stroke-linejoin:round; stroke-linecap:round}" d="M400,400m0,4.5a4.5,4.5 0 1,1 0,-9a4.5,4.5 0 1,1 0,9z"></path></svg>
