<svg xmlns="http://www.w3.org/2000/svg" version="1.1" width="800" height="800"><g><path class="minor_road" style="fill:none;stroke:#ccc;stroke-linejoin:round;stroke-linecap:round;" d="M25.636930446285987,-64.73422802984715L13.706465735129314,-65.33311367034912L-147.5785040782066,35.95037077367306L-167.77081560177612,59.25897391140461"></path></g><g><path class="minor_road" style="fill:none;stroke:#ccc;stroke-linejoin:round;stroke-linecap:round;" d="M196.88383829334634,-195.26740907132626L201.670937258692,-56.08632047474384"></path><path class="minor_road" style="fill:none;stroke:#ccc;stroke-linejoin:round;stroke-linecap:round;" d="M281.6497900657705,-51.486879616975784L201.670937258692,-56.08632047474384L25.636930446285987,-64.73422802984715"></path></g><g><path class="minor_road" style="fill:none;stroke:#ccc;stroke-linejoin:round;stroke-linecap:round;" d="M537.6477366045001,-36.826163202524185L281.6497900657705,-51.486879616975784"></path></g><g><path class="path" style="fill:none;stroke:#ccc;stroke-linejoin:round;stroke-linecap:round;" d="M673.8936436053482,-29.016697376966476L670.3741565155797,59.25897391140461"></path><path class="minor_road" style="fill:none;stroke:#ccc;stroke-linejoin:round;stroke-linecap:round;" d="M793.6605962240428,-28.777143239974976L673.8936436053482,-29.016697376966476L537.6477366045001,-36.826163202524185"></path></g><g><path class="minor_road" style="fill:none;stroke:#ccc;stroke-linejoin:round;stroke-linecap:round;" d="M1049.6734558435855,-28.298034876585007L793.6605962240428,-28.777143239974976"></path></g><g><path class="minor_road" style="fill:none;stroke:#ccc;stroke-linejoin:round;stroke-linecap:round;" d="M-167.77081560177612,59.25897391140461L-230.37592917331494,131.58029155433178"></path><path class="major_road" style="fill:none;stroke:#ccc;stroke-linejoin:round;stroke-linecap:round;" d="M-96.79946365152136,313.8087188899517L-230.37592917331494,196.85868386924267"></path></g><g></g><g></g><g><path class="path" style="fill:none;stroke:#ccc;stroke-linejoin:round;stroke-linecap:round;" d="M670.3741565155797,59.25897391140461L660.2481745920377,313.8087188899517"></path></g><g></g><g><path class="path" style="fill:none;stroke:#ccc;stroke-linejoin:round;stroke-linecap:round;" d="M-210.2880092159612,568.3339150547981L-51.672480881767115,353.31106823682785"></path><path class="major_road" style="fill:none;stroke:#ccc;stroke-linejoin:round;stroke-linecap:round;" d="M25.636930446285987,436.3162614405155L-51.672480881767115,353.31106823682785L-96.79946365152136,313.8087188899517"></path></g><g><path class="major_road" style="fill:none;stroke:#ccc;stroke-linejoin:round;stroke-linecap:round;" d="M148.5803692942136,568.3339150547981L25.636930446285987,436.3162614405155"></path></g><g></g><g><path class="path" style="fill:none;stroke:#ccc;stroke-linejoin:round;stroke-linecap:round;" d="M660.2481745920377,313.8087188899517L650.1072795875953,568.3339150547981"></path></g><g></g><g><path class="path" style="fill:none;stroke:#ccc;stroke-linejoin:round;stroke-linecap:round;" d="M-230.37592917331494,595.5710703134537L-210.2880092159612,568.3339150547981"></path></g><g><path class="major_road" style="fill:none;stroke:#ccc;stroke-linejoin:round;stroke-linecap:round;" d="M281.6497900657705,730.0798773169518L226.32225996803027,651.7940948903561L148.5803692942136,568.3339150547981"></path></g><g><path class="path" style="fill:none;stroke:#ccc;stroke-linejoin:round;stroke-linecap:round;" d="M537.6477366045001,808.6530662924051L529.1771066595975,822.8824731558561"></path><path class="major_road" style="fill:none;stroke:#ccc;stroke-linejoin:round;stroke-linecap:round;" d="M347.25243289599894,822.8824731558561L281.6497900657705,730.0798773169518"></path></g><g><path class="path" style="fill:none;stroke:#ccc;stroke-linejoin:round;stroke-linecap:round;" d="M650.1072795875953,568.3339150547981L647.9150566969474,623.4071005880833L537.6477366045001,808.6530662924051"></path></g><g></g><path class="waypath" style="fill:none;stroke:orange; stroke-width:5;stroke-linejoin:round; stroke-linecap:round}" d="M287.4062392888882,233.03128081560135L520.9450860089273,239.02012018859386L512.4446299022529,566.9684638828039L279.0549139911309,560.9796424210072L287.4062392888882,233.03128081560135"></path><path class="center" style="fill:none; stroke:red; stroke-width:1;stroke-linejoin:round; stroke-linecap:round}" d="M400,400m0,4.5a4.5,4.5 0 1,1 0,-9a4.5,4.5 0 1,1 0,9z"></path></svg>
