<svg xmlns="http://www.w3.org/2000/svg" version="1.1" width="800" height="800"><g><path class="path" style="fill:none;stroke:#ccc;stroke-linejoin:round;stroke-linecap:round;" d="M128.62666706489108,45.17324475944042L-127.25197482667863,42.17396040260792"></path><path class="path" style="fill:none;stroke:#ccc;stroke-linejoin:round;stroke-linecap:round;" d="M-127.25197482667863,54.45902858674526L-95.87485263645067,112.42917563021183"></path></g><g><path class="path" style="fill:none;stroke:#ccc;stroke-linejoin:round;stroke-linecap:round;" d="M384.62461360356247,48.17252904176712L128.62666706489108,45.17324475944042"></path></g><g><path class="path" style="fill:none;stroke:#ccc;stroke-linejoin:round;stroke-linecap:round;" d="M640.6374732231197,51.19580748677254L384.62461360356247,48.17252904176712"></path></g><g><path class="path" style="fill:none;stroke:#ccc;stroke-linejoin:round;stroke-linecap:round;" d="M686.7188931697892,51.72368152439594L640.6374732231197,51.19580748677254"></path><path class="path" style="fill:none;stroke:#ccc;stroke-linejoin:round;stroke-linecap:round;" d="M726.6412107093347,-35.615507677197456L672.864641023989,-142.12622338533401"></path><path class="path" style="fill:none;stroke:#ccc;stroke-linejoin:round;stroke-linecap:round;" d="M896.6503328426625,-106.51866459846497L865.0346013582312,-109.82987916469574L795.7782537102175,-90.8023940473795L759.0622485617787,-67.7678641229868L726.6412107093347,-35.615507677197456L701.8705833528802,4.718890354037285L686.7188931697892,51.72368152439594L683.6467985066702,97.96063606441021L685.8986737208907,112.42917563021183"></path></g><g><path class="path" style="fill:none;stroke:#ccc;stroke-linejoin:round;stroke-linecap:round;" d="M-95.87485263645067,112.42917563021183L41.922014776893775,366.95998644828796"></path></g><g></g><g></g><g><path class="path" style="fill:none;stroke:#ccc;stroke-linejoin:round;stroke-linecap:round;" d="M685.8986737208907,112.42917563021183L690.3427718257881,140.958346799016L718.7372778382123,201.90373365581036L756.5270248106535,242.64594572782516L802.7426624853397,271.0311174839735L859.2781521350989,286.0515011996031L896.6503328426625,284.6598363518715"></path></g><g><path class="path" style="fill:none;stroke:#ccc;stroke-linejoin:round;stroke-linecap:round;" d="M41.922014776893775,366.95998644828796L50.12420926577761,382.1003279685974L128.62666706489108,491.05793783068657"></path></g><g><path class="path" style="fill:none;stroke:#ccc;stroke-linejoin:round;stroke-linecap:round;" d="M128.62666706489108,491.05793783068657L194.12491832890373,581.9718345999718L279.57687182222435,621.4902031570673"></path></g><g></g><g></g><g></g><g><path class="path" style="fill:none;stroke:#ccc;stroke-linejoin:round;stroke-linecap:round;" d="M279.57687182222435,621.4902031570673L384.62461360356247,670.0783416628838"></path></g><g><path class="path" style="fill:none;stroke:#ccc;stroke-linejoin:round;stroke-linecap:round;" d="M384.62461360356247,670.0783416628838L514.1745472853363,730.0156796574593L640.6374732231197,758.4967010617256"></path></g><g><path class="path" style="fill:none;stroke:#ccc;stroke-linejoin:round;stroke-linecap:round;" d="M640.6374732231197,758.4967010617256L896.6503328426625,816.2025387436152"></path></g><path class="waypath" style="fill:none;stroke:orange; stroke-width:5;stroke-linejoin:round; stroke-linecap:round}" d="M224.77129955556302,286.0275069922209L606.6953011200094,370.48713432252407L574.930438826661,513.9723739624023L193.1555680711026,429.27291586995125L224.77129955556302,286.0275069922209"></path><path class="center" style="fill:none; stroke:red; stroke-width:1;stroke-linejoin:round; stroke-linecap:round}" d="M400,400m0,4.5a4.5,4.5 0 1,1 0,-9a4.5,4.5 0 1,1 0,9z"></path></svg>
