<svg xmlns="http://www.w3.org/2000/svg" version="1.1" width="800" height="800"><g><path class="path" style="fill:none;stroke:#ccc;stroke-linejoin:round;stroke-linecap:round;" d="M2.439633123554813,-204.98380483686924L53.34543473777558,49.54805213212967"></path><path class="path" style="fill:none;stroke:#ccc;stroke-linejoin:round;stroke-linecap:round;" d="M2.439633123554813,-204.98380483686924L-102.78706562844854,-185.7441458851099"></path></g><g><path class="path" style="fill:none;stroke:#ccc;stroke-linejoin:round;stroke-linecap:round;" d="M290.3515727644408,49.54805213212967L286.720237567999,28.580154672265053"></path><path class="path" style="fill:none;stroke:#ccc;stroke-linejoin:round;stroke-linecap:round;" d="M174.3650861511087,49.54805213212967L286.720237567999,28.580154672265053L409.23119707022124,5.7398999854922295"></path><path class="path" style="fill:none;stroke:#ccc;stroke-linejoin:round;stroke-linecap:round;" d="M252.08460720355288,-170.8973269984126L207.74801772088722,-185.30006150901318L188.86805731555432,-204.98380483686924"></path><path class="path" style="fill:none;stroke:#ccc;stroke-linejoin:round;stroke-linecap:round;" d="M282.9695977244428,7.21617528796196L252.08460720355288,-170.8973269984126"></path><path class="path" style="fill:none;stroke:#ccc;stroke-linejoin:round;stroke-linecap:round;" d="M252.08460720355288,-170.8973269984126L286.98867302399594,-193.94170404225588L292.3424690631109,-204.98380483686924"></path><path class="path" style="fill:none;stroke:#ccc;stroke-linejoin:round;stroke-linecap:round;" d="M286.720237567999,28.580154672265053L282.9695977244428,7.21617528796196"></path></g><g><path class="path" style="fill:none;stroke:#ccc;stroke-linejoin:round;stroke-linecap:round;" d="M571.3512994133325,49.54805213212967L580.9105842631088,9.628625057637691L583.5203734186634,-26.750168696045876L588.5460816782197,-96.47125704586506L580.9105842631088,-182.88760323822498L575.0944827164421,-204.98380483686924"></path><path class="path" style="fill:none;stroke:#ccc;stroke-linejoin:round;stroke-linecap:round;" d="M409.23119707022124,5.7398999854922295L583.5203734186634,-26.750168696045876"></path></g><g></g><g><path class="path" style="fill:none;stroke:#ccc;stroke-linejoin:round;stroke-linecap:round;" d="M53.34543473777558,49.54805213212967L57.70005435733219,71.32009057700634L104.32580175644034,304.01870999485254L106.17502378666359,307.43932907283306"></path><path class="path" style="fill:none;stroke:#ccc;stroke-linejoin:round;stroke-linecap:round;" d="M57.70005435733219,71.32009057700634L153.21833745066397,53.49678523093462"></path></g><g><path class="path" style="fill:none;stroke:#ccc;stroke-linejoin:round;stroke-linecap:round;" d="M409.23119707022124,280.9985380321741L333.1372018346665,296.3133146241307L277.87678060088547,307.43932907283306"></path><path class="path" style="fill:none;stroke:#ccc;stroke-linejoin:round;stroke-linecap:round;" d="M328.04438471110916,267.1720275878906L290.3515727644408,49.54805213212967"></path><path class="path" style="fill:none;stroke:#ccc;stroke-linejoin:round;stroke-linecap:round;" d="M333.1372018346665,296.3133146241307L328.04438471110916,267.1720275878906"></path><path class="path" style="fill:none;stroke:#ccc;stroke-linejoin:round;stroke-linecap:round;" d="M153.21833745066397,53.49678523093462L174.3650861511087,49.54805213212967"></path></g><g><path class="path" style="fill:none;stroke:#ccc;stroke-linejoin:round;stroke-linecap:round;" d="M552.7770571662186,165.03337384015322L506.95661613510856,234.7541277781129L446.9389220977755,273.4011590182781L409.23119707022124,280.9985380321741"></path><path class="path" style="fill:none;stroke:#ccc;stroke-linejoin:round;stroke-linecap:round;" d="M645.5587899164402,307.43932907283306L638.5123591964439,277.9619869887829L608.2388049919955,220.35150043666363L552.7770571662186,165.03337384015322L562.7539082808871,85.44670620560646L571.3512994133325,49.54805213212967"></path></g><g></g><g><path class="path" style="fill:none;stroke:#ccc;stroke-linejoin:round;stroke-linecap:round;" d="M106.17502378666359,307.43932907283306L123.07900097421953,338.58495619148016L-102.78706562844854,379.42830846458673"></path><path class="path" style="fill:none;stroke:#ccc;stroke-linejoin:round;stroke-linecap:round;" d="M141.16111155199724,437.9867962524295L-102.78706562844854,482.89879736304283"></path><path class="path" style="fill:none;stroke:#ccc;stroke-linejoin:round;stroke-linecap:round;" d="M153.21833745066397,332.5118603631854L123.07900097421953,338.58495619148016L141.16111155199724,437.9867962524295L153.21833745066397,503.1103859990835"></path></g><g><path class="path" style="fill:none;stroke:#ccc;stroke-linejoin:round;stroke-linecap:round;" d="M277.87678060088547,307.43932907283306L153.21833745066397,332.5118603631854M153.21833745066397,503.1103859990835L164.11234303999845,561.9687938392162"></path><path class="minor_road" style="fill:none;stroke:#ccc;stroke-linejoin:round;stroke-linecap:round;" d="M409.23119707022124,547.7582868337631L401.3272641991098,550.3147381320596L384.40091739021955,561.9687938392162"></path></g><g><path class="path" style="fill:none;stroke:#ccc;stroke-linejoin:round;stroke-linecap:round;" d="M430.7284031715535,540.8090594932437L423.9653209884418,500.87798999994993"></path><path class="path" style="fill:none;stroke:#ccc;stroke-linejoin:round;stroke-linecap:round;" d="M646.0807477475537,547.6382656395435L650.6366939591098,482.4667205438018L659.7485863822203,406.7692129909992L653.7162451626646,341.59749951958656L645.5587899164402,307.43932907283306"></path><path class="minor_road" style="fill:none;stroke:#ccc;stroke-linejoin:round;stroke-linecap:round;" d="M517.3435769742209,561.9687938392162L513.9284814506664,558.8242393955588L484.51988593777605,544.42169765383L461.68050255644084,539.5968453064561L430.7284031715535,540.8090594932437L409.23119707022124,547.7582868337631"></path><path class="minor_road" style="fill:none;stroke:#ccc;stroke-linejoin:round;stroke-linecap:round;" d="M645.9539865599982,561.9687938392162L646.0136388835544,555.6076720580459L646.0807477475537,547.6382656395435"></path></g><g></g><g><path class="path" style="fill:none;stroke:#ccc;stroke-linejoin:round;stroke-linecap:round;" d="M153.21833745066397,584.6287838220596L-102.78706562844854,630.7648784443736"></path></g><g><path class="path" style="fill:none;stroke:#ccc;stroke-linejoin:round;stroke-linecap:round;" d="M167.825700181329,582.0003215074539L153.21833745066397,584.6287838220596"></path><path class="path" style="fill:none;stroke:#ccc;stroke-linejoin:round;stroke-linecap:round;" d="M164.11234303999845,561.9687938392162L167.825700181329,582.0003215074539"></path><path class="path" style="fill:none;stroke:#ccc;stroke-linejoin:round;stroke-linecap:round;" d="M167.825700181329,582.0003215074539L373.99904347021766,569.1340565159917"></path><path class="minor_road" style="fill:none;stroke:#ccc;stroke-linejoin:round;stroke-linecap:round;" d="M384.40091739021955,561.9687938392162L373.99904347021766,569.1340565159917L355.3054965759984,591.8420519903302L343.0469440853303,618.8347890228033L338.6997810062185,642.7549757137895L340.10161060977407,670.5518277361989L345.99973410133134,691.5794887393713L357.45298022399766,713.5553061887622L370.18129476266586,729.1580111384392L401.0588287431092,751.6018943190575L409.23119707022124,753.4862199276686"></path></g><g><path class="minor_road" style="fill:none;stroke:#ccc;stroke-linejoin:round;stroke-linecap:round;" d="M556.9303501937757,684.9543361514807L562.2170373688878,651.4564960971475L559.5401393493303,626.6121514514089L552.4415128462206,605.3084168955684L536.4994293759974,579.587897054851L517.3435769742209,561.9687938392162M409.23119707022124,753.4862199276686L449.8917121137765,762.8478366136551L476.41462647466506,759.8353165313601L502.333561059555,750.1256392076612L512.6534130346627,743.164435595274L522.0262843733308,736.791332885623L535.4927964159979,723.4690254032612L547.9526754986618,705.5859228298068L556.9303501937757,684.9543361514807"></path><path class="minor_road" style="fill:none;stroke:#ccc;stroke-linejoin:round;stroke-linecap:round;" d="M656.7510571235525,819.8576469942927L656.8703617706651,798.4219652563334L659.8828041102206,740.6800058186054L645.2083325155527,639.2743671536446L645.9539865599982,561.9687938392162"></path></g><g></g><path class="waypath" style="fill:none;stroke:orange; stroke-width:5;stroke-linejoin:round; stroke-linecap:round}" d="M516.8439887644417,482.5747397467494L508.64179427555246,496.37719132751226L493.8778441955528,503.0983838811517L473.2232271644425,503.93853286653757L457.7136230399956,493.9767652079463L423.9354948266646,500.8179793506861L395.8243373511086,506.57900109887123L387.1001850311095,523.8620627298951L369.1299225599996,534.5439522564411L350.63770225777444,531.5434217080474L336.61940622221846,518.7011490538716L231.8550129777759,540.0649280175567L211.4986575644416,444.6479852646589L183.01467306666564,449.6888845413923L167.65419975110854,372.15500139445066L168.02702677332854,370.95478562265635L477.24975900444224,305.30294244736433L472.9249655466647,285.85941979289055L588.5013424355529,260.0547339320183L632.42036565333,456.770147010684L516.8439887644417,482.5747397467494"></path><path class="center" style="fill:none; stroke:red; stroke-width:1;stroke-linejoin:round; stroke-linecap:round}" d="M400,400m0,4.5a4.5,4.5 0 1,1 0,-9a4.5,4.5 0 1,1 0,9z"></path></svg>
