<svg xmlns="http://www.w3.org/2000/svg" version="1.1" width="800" height="800"><g></g><g><path class="path" style="fill:none;stroke:#ccc;stroke-linejoin:round;stroke-linecap:round;" d="M176.5274828799993,-182.00645757466555L207.05455945955327,-21.31266687065363L231.7804475733319,75.88228146731853"></path></g><g><path class="minor_road" style="fill:none;stroke:#ccc;stroke-linejoin:round;stroke-linecap:round;" d="M522.8539603626668,-182.00645757466555L548.7803514879961,75.88228146731853"></path></g><g><path class="path" style="fill:none;stroke:#ccc;stroke-linejoin:round;stroke-linecap:round;" d="M891.9676254435544,75.88228146731853L894.9726112426615,60.80754925310612L916.335599615999,7.854224003851414"></path></g><g></g><g><path class="path" style="fill:none;stroke:#ccc;stroke-linejoin:round;stroke-linecap:round;" d="M231.7804475733319,75.88228146731853L282.8130103751064,276.5028442963958L307.80733394488925,330.4145518243313"></path></g><g><path class="minor_road" style="fill:none;stroke:#ccc;stroke-linejoin:round;stroke-linecap:round;" d="M548.7803514879961,75.88228146731853L574.363741752888,330.4145518243313"></path></g><g><path class="path" style="fill:none;stroke:#ccc;stroke-linejoin:round;stroke-linecap:round;" d="M905.4863332693312,330.4145518243313L888.6047257031096,310.3908942565322L869.4488733013277,188.75091127306223L891.9676254435544,75.88228146731853"></path><path class="path" style="fill:none;stroke:#ccc;stroke-linejoin:round;stroke-linecap:round;" d="M858.443019605329,330.4145518243313L869.4488733013277,188.75091127306223"></path></g><g><path class="path" style="fill:none;stroke:#ccc;stroke-linejoin:round;stroke-linecap:round;" d="M-62.93931349333798,588.3008695021272L-107.63381691733593,340.8757416307926"></path></g><g><path class="path" style="fill:none;stroke:#ccc;stroke-linejoin:round;stroke-linecap:round;" d="M307.80733394488925,330.4145518243313L404.3173369173346,538.5834636315703"></path></g><g><path class="path" style="fill:none;stroke:#ccc;stroke-linejoin:round;stroke-linecap:round;" d="M404.3173369173346,538.5834636315703L417.6496312319978,567.3426338210702L433.7408455111072,588.3008695021272"></path><path class="path" style="fill:none;stroke:#ccc;stroke-linejoin:round;stroke-linecap:round;" d="M417.6496312319978,567.3426338210702L451.7707603057752,588.3008695021272"></path><path class="minor_road" style="fill:none;stroke:#ccc;stroke-linejoin:round;stroke-linecap:round;" d="M574.363741752888,330.4145518243313L600.2901328782173,588.3008695021272"></path></g><g><path class="path" style="fill:none;stroke:#ccc;stroke-linejoin:round;stroke-linecap:round;" d="M916.335599615999,343.29631446301937L905.4863332693312,330.4145518243313"></path><path class="path" style="fill:none;stroke:#ccc;stroke-linejoin:round;stroke-linecap:round;" d="M838.4072954311087,588.3008695021272L858.443019605329,330.4145518243313"></path></g><g><path class="path" style="fill:none;stroke:#ccc;stroke-linejoin:round;stroke-linecap:round;" d="M-16.969741653338133,842.8427329808474L-62.93931349333798,588.3008695021272"></path></g><g><path class="major_road" style="fill:none;stroke:#ccc;stroke-linejoin:round;stroke-linecap:round;" d="M302.81145184711204,842.8427329808474L404.3173369173346,761.1910283267498"></path></g><g><path class="path" style="fill:none;stroke:#ccc;stroke-linejoin:round;stroke-linecap:round;" d="M433.7408455111072,588.3008695021272L558.384375580441,750.670004375279L660.3301965368846,835.6889269426465"></path><path class="path" style="fill:none;stroke:#ccc;stroke-linejoin:round;stroke-linecap:round;" d="M451.7707603057752,588.3008695021272L546.7223463253322,646.6459669992328"></path><path class="minor_road" style="fill:none;stroke:#ccc;stroke-linejoin:round;stroke-linecap:round;" d="M600.2901328782173,588.3008695021272L601.1178088675515,596.5451590046287"></path><path class="major_road" style="fill:none;stroke:#ccc;stroke-linejoin:round;stroke-linecap:round;" d="M546.7223463253322,646.6459669992328L601.1178088675515,596.5451590046287L660.3301965368846,595.8860952332616"></path><path class="major_road" style="fill:none;stroke:#ccc;stroke-linejoin:round;stroke-linecap:round;" d="M404.3173369173346,761.1910283267498L546.7223463253322,646.6459669992328"></path></g><g><path class="path" style="fill:none;stroke:#ccc;stroke-linejoin:round;stroke-linecap:round;" d="M660.3301965368846,835.6889269426465L665.6914491164425,840.1585579812527L668.1297378417767,842.8427329808474"></path><path class="path" style="fill:none;stroke:#ccc;stroke-linejoin:round;stroke-linecap:round;" d="M837.967359544884,593.9328697621822L838.4072954311087,588.3008695021272"></path><path class="major_road" style="fill:none;stroke:#ccc;stroke-linejoin:round;stroke-linecap:round;" d="M660.3301965368846,595.8860952332616L837.967359544884,593.9328697621822L916.335599615999,610.6611052826047"></path></g><path class="waypath" style="fill:none;stroke:orange; stroke-width:5;stroke-linejoin:round; stroke-linecap:round}" d="M297.3234380799986,204.07725251466036L475.2364930844378,186.70180670917034L502.67656191999777,613.2973596677184L297.3234380799986,204.07725251466036"></path><path class="center" style="fill:none; stroke:red; stroke-width:1;stroke-linejoin:round; stroke-linecap:round}" d="M400,400m0,4.5a4.5,4.5 0 1,1 0,-9a4.5,4.5 0 1,1 0,9z"></path></svg>
