<svg xmlns="http://www.w3.org/2000/svg" version="1.1" width="800" height="800"><g><path class="rail" style="fill:none;stroke:#ccc;stroke-linejoin:round;stroke-linecap:round;" d="M-144.10375623111122,-0.6210189536213875L91.63476992000005,-132.0274302624166L111.916559928889,-143.64151253551245"></path><path class="rail" style="fill:none;stroke:#ccc;stroke-linejoin:round;stroke-linecap:round;" d="M-144.10375623111122,20.75117128714919L99.09131036444433,-114.84578154981136L111.916559928889,-122.14947758615017"></path><path class="path" style="fill:none;stroke:#ccc;stroke-linejoin:round;stroke-linecap:round;" d="M-83.74306133333357,-204.82505839690566L-98.24603249777783,-197.880539432168L-144.10375623111122,-178.42392246052623"></path><path class="path" style="fill:none;stroke:#ccc;stroke-linejoin:round;stroke-linecap:round;" d="M-53.39494172444438,-142.3244514130056L-78.97087544888882,-195.96481037512422L-83.74306133333357,-204.82505839690566"></path><path class="path" style="fill:none;stroke:#ccc;stroke-linejoin:round;stroke-linecap:round;" d="M58.825991964444256,32.24545155093074L-31.99467064888904,-139.3311309143901L-47.83981909333352,-131.84783110022545L-53.39494172444438,-142.3244514130056"></path><path class="path" style="fill:none;stroke:#ccc;stroke-linejoin:round;stroke-linecap:round;" d="M-83.74306133333357,-204.82505839690566L-47.951667199999974,-223.98236121237278"></path><path class="minor_road" style="fill:none;stroke:#ccc;stroke-linejoin:round;stroke-linecap:round;" d="M-93.95852174222227,-223.98236121237278L-83.74306133333357,-204.82505839690566"></path><path class="major_road" style="fill:none;stroke:#ccc;stroke-linejoin:round;stroke-linecap:round;" d="M-85.45806563555607,-124.72373158484697L-53.39494172444438,-142.3244514130056"></path><path class="major_road" style="fill:none;stroke:#ccc;stroke-linejoin:round;stroke-linecap:round;" d="M-53.39494172444438,-142.3244514130056L109.30677077333303,-223.98236121237278"></path><path class="major_road" style="fill:none;stroke:#ccc;stroke-linejoin:round;stroke-linecap:round;" d="M-144.10375623111122,-91.97684428468347L-85.45806563555607,-124.72373158484697"></path></g><g><path class="rail" style="fill:none;stroke:#ccc;stroke-linejoin:round;stroke-linecap:round;" d="M111.916559928889,-143.64151253551245L252.39778190222205,-223.98236121237278"></path><path class="rail" style="fill:none;stroke:#ccc;stroke-linejoin:round;stroke-linecap:round;" d="M111.916559928889,-122.14947758615017L290.0533111466666,-223.98236121237278"></path><path class="path" style="fill:none;stroke:#ccc;stroke-linejoin:round;stroke-linecap:round;" d="M303.54964935111093,32.24545155093074L263.95541959111097,-43.125984851270914L168.8472462222221,-223.98236121237278"></path><path class="path" style="fill:none;stroke:#ccc;stroke-linejoin:round;stroke-linecap:round;" d="M123.25050140444455,32.24545155093074L263.95541959111097,-43.125984851270914"></path></g><g><path class="path" style="fill:none;stroke:#ccc;stroke-linejoin:round;stroke-linecap:round;" d="M510.43136398222236,-19.598580058664083L538.430673351111,32.24545155093074"></path><path class="path" style="fill:none;stroke:#ccc;stroke-linejoin:round;stroke-linecap:round;" d="M623.9199095466665,-81.08117932453752L510.43136398222236,-19.598580058664083"></path><path class="path" style="fill:none;stroke:#ccc;stroke-linejoin:round;stroke-linecap:round;" d="M510.43136398222236,-19.598580058664083L414.5775365688887,32.24545155093074"></path></g><g><path class="path" style="fill:none;stroke:#ccc;stroke-linejoin:round;stroke-linecap:round;" d="M828.7510755555554,-192.13335267454386L623.9199095466665,-81.08117932453752"></path><path class="path" style="fill:none;stroke:#ccc;stroke-linejoin:round;stroke-linecap:round;" d="M811.6010325333332,-223.98236121237278L828.7510755555554,-192.13335267454386L879.9029430044445,-94.91029327735305"></path><path class="path" style="fill:none;stroke:#ccc;stroke-linejoin:round;stroke-linecap:round;" d="M828.7510755555554,-192.13335267454386L879.9029430044445,-219.79170006886125"></path></g><g><path class="path" style="fill:none;stroke:#ccc;stroke-linejoin:round;stroke-linecap:round;" d="M73.03070151111115,59.125286005437374L58.825991964444256,32.24545155093074"></path><path class="path" style="fill:none;stroke:#ccc;stroke-linejoin:round;stroke-linecap:round;" d="M-144.10375623111122,109.59225337579846L-121.92054840888886,128.80918795615435L-91.05047096888893,148.26557211205363L-58.31625841777759,185.08299957588315L111.916559928889,166.7640906497836"></path><path class="path" style="fill:none;stroke:#ccc;stroke-linejoin:round;stroke-linecap:round;" d="M-144.10375623111122,175.80381521955132L-91.05047096888893,148.26557211205363L73.03070151111115,59.125286005437374L111.916559928889,38.351785987615585"></path></g><g><path class="path" style="fill:none;stroke:#ccc;stroke-linejoin:round;stroke-linecap:round;" d="M357.19945784888887,134.8556349761784L328.15623281777744,79.00078133493662"></path><path class="path" style="fill:none;stroke:#ccc;stroke-linejoin:round;stroke-linecap:round;" d="M367.8995933866663,57.50890472903848L328.15623281777744,79.00078133493662"></path><path class="path" style="fill:none;stroke:#ccc;stroke-linejoin:round;stroke-linecap:round;" d="M328.15623281777744,79.00078133493662L303.54964935111093,32.24545155093074"></path><path class="path" style="fill:none;stroke:#ccc;stroke-linejoin:round;stroke-linecap:round;" d="M111.916559928889,166.7640906497836L149.68393728,162.69322033971548L201.35776256000008,288.4708596840501"></path><path class="path" style="fill:none;stroke:#ccc;stroke-linejoin:round;stroke-linecap:round;" d="M111.916559928889,38.351785987615585L123.25050140444455,32.24545155093074"></path></g><g><path class="path" style="fill:none;stroke:#ccc;stroke-linejoin:round;stroke-linecap:round;" d="M538.430673351111,32.24545155093074L623.9199095466665,190.5906429886818"></path><path class="path" style="fill:none;stroke:#ccc;stroke-linejoin:round;stroke-linecap:round;" d="M414.5775365688887,32.24545155093074L367.8995933866663,57.50890472903848"></path></g><g><path class="path" style="fill:none;stroke:#ccc;stroke-linejoin:round;stroke-linecap:round;" d="M623.9199095466665,190.5906429886818L676.7494985955555,288.4708596840501"></path></g><g><path class="minor_road" style="fill:none;stroke:#ccc;stroke-linejoin:round;stroke-linecap:round;" d="M111.916559928889,477.82468040660024L-16.596914631111304,544.6938632391393"></path></g><g><path class="path" style="fill:none;stroke:#ccc;stroke-linejoin:round;stroke-linecap:round;" d="M201.35776256000008,288.4708596840501L249.71342734222208,406.1661173738539"></path><path class="minor_road" style="fill:none;stroke:#ccc;stroke-linejoin:round;stroke-linecap:round;" d="M249.71342734222208,406.1661173738539L111.916559928889,477.82468040660024"></path></g><g><path class="path" style="fill:none;stroke:#ccc;stroke-linejoin:round;stroke-linecap:round;" d="M593.6463553422223,544.6938632391393L623.9199095466665,528.2908738255501"></path></g><g><path class="path" style="fill:none;stroke:#ccc;stroke-linejoin:round;stroke-linecap:round;" d="M676.7494985955555,288.4708596840501L677.8306969599998,290.50628555193543L778.6804064711109,489.37863328680396L688.1952881777777,544.6938632391393"></path><path class="path" style="fill:none;stroke:#ccc;stroke-linejoin:round;stroke-linecap:round;" d="M623.9199095466665,528.2908738255501L640.2870158222222,519.4308608621359L654.7899869866667,544.6938632391393"></path></g><g><path class="path" style="fill:none;stroke:#ccc;stroke-linejoin:round;stroke-linecap:round;" d="M-144.10375623111122,610.3057222925127L-70.3212885333337,572.5908955745399"></path><path class="minor_road" style="fill:none;stroke:#ccc;stroke-linejoin:round;stroke-linecap:round;" d="M-16.596914631111304,544.6938632391393L-70.3212885333337,572.5908955745399L25.681669688888633,767.8094593733549L-31.882822542222584,799.2382605522871"></path><path class="minor_road" style="fill:none;stroke:#ccc;stroke-linejoin:round;stroke-linecap:round;" d="M111.916559928889,728.9574247002602L103.82621354666617,713.9314303472638"></path></g><g><path class="path" style="fill:none;stroke:#ccc;stroke-linejoin:round;stroke-linecap:round;" d="M367.8995933866663,711.1177970208228L357.75869838222206,690.7638451866806"></path><path class="path" style="fill:none;stroke:#ccc;stroke-linejoin:round;stroke-linecap:round;" d="M367.8995933866663,746.258260525763L267.0871665777777,799.2382605522871"></path><path class="path" style="fill:none;stroke:#ccc;stroke-linejoin:round;stroke-linecap:round;" d="M144.50164167111097,789.3606412224472L367.8995933866663,667.1173232495785"></path><path class="minor_road" style="fill:none;stroke:#ccc;stroke-linejoin:round;stroke-linecap:round;" d="M125.78572515555561,799.2382605522871L144.50164167111097,789.3606412224472L111.916559928889,728.9574247002602"></path></g><g><path class="path" style="fill:none;stroke:#ccc;stroke-linejoin:round;stroke-linecap:round;" d="M623.9199095466665,696.7503031827509L448.0946858666664,789.0613193623722L437.95379086222215,799.2382605522871"></path><path class="path" style="fill:none;stroke:#ccc;stroke-linejoin:round;stroke-linecap:round;" d="M623.9199095466665,615.4540914334357L381.8060413155556,738.9547948427498L367.8995933866663,711.1177970208228"></path><path class="path" style="fill:none;stroke:#ccc;stroke-linejoin:round;stroke-linecap:round;" d="M447.42359722666674,799.2382605522871L448.0946858666664,789.0613193623722"></path><path class="path" style="fill:none;stroke:#ccc;stroke-linejoin:round;stroke-linecap:round;" d="M381.8060413155556,738.9547948427498L367.8995933866663,746.258260525763"></path><path class="path" style="fill:none;stroke:#ccc;stroke-linejoin:round;stroke-linecap:round;" d="M367.8995933866663,667.1173232495785L430.3108369066665,632.9345933198929L593.6463553422223,544.6938632391393"></path></g><g><path class="path" style="fill:none;stroke:#ccc;stroke-linejoin:round;stroke-linecap:round;" d="M879.9029430044445,560.4981940686703L707.5450106311109,652.8695355914533L623.9199095466665,696.7503031827509"></path><path class="path" style="fill:none;stroke:#ccc;stroke-linejoin:round;stroke-linecap:round;" d="M677.010477511111,588.3353454396129L623.9199095466665,615.4540914334357"></path><path class="path" style="fill:none;stroke:#ccc;stroke-linejoin:round;stroke-linecap:round;" d="M783.0424826311109,799.2382605522871L707.5450106311109,652.8695355914533"></path><path class="path" style="fill:none;stroke:#ccc;stroke-linejoin:round;stroke-linecap:round;" d="M688.1952881777777,544.6938632391393L663.476856604444,559.7798155918717L677.010477511111,588.3353454396129L707.5450106311109,652.8695355914533"></path><path class="path" style="fill:none;stroke:#ccc;stroke-linejoin:round;stroke-linecap:round;" d="M654.7899869866667,544.6938632391393L663.476856604444,559.7798155918717"></path></g><g><path class="path" style="fill:none;stroke:#ccc;stroke-linejoin:round;stroke-linecap:round;" d="M111.916559928889,982.123233359307L-24.314433991110945,1055.396607041359"></path><path class="path" style="fill:none;stroke:#ccc;stroke-linejoin:round;stroke-linecap:round;" d="M111.916559928889,880.7135175913572L-144.10375623111122,1015.1681125126779"></path><path class="minor_road" style="fill:none;stroke:#ccc;stroke-linejoin:round;stroke-linecap:round;" d="M-31.882822542222584,799.2382605522871L-144.10375623111122,860.359692171216"></path><path class="minor_road" style="fill:none;stroke:#ccc;stroke-linejoin:round;stroke-linecap:round;" d="M-144.10375623111122,941.1163983717561L-77.66598087111151,906.5149626880884L111.916559928889,806.5417101085186"></path></g><g><path class="path" style="fill:none;stroke:#ccc;stroke-linejoin:round;stroke-linecap:round;" d="M367.8995933866663,844.4358064085245L111.916559928889,982.123233359307"></path><path class="path" style="fill:none;stroke:#ccc;stroke-linejoin:round;stroke-linecap:round;" d="M322.1164350577774,1055.396607041359L367.8995933866663,1049.829274278134"></path><path class="path" style="fill:none;stroke:#ccc;stroke-linejoin:round;stroke-linecap:round;" d="M267.0871665777777,799.2382605522871L111.916559928889,880.7135175913572"></path><path class="minor_road" style="fill:none;stroke:#ccc;stroke-linejoin:round;stroke-linecap:round;" d="M111.916559928889,806.5417101085186L125.78572515555561,799.2382605522871"></path></g><g><path class="path" style="fill:none;stroke:#ccc;stroke-linejoin:round;stroke-linecap:round;" d="M437.95379086222215,799.2382605522871L421.69853269333316,815.5213585458696L367.8995933866663,844.4358064085245"></path><path class="path" style="fill:none;stroke:#ccc;stroke-linejoin:round;stroke-linecap:round;" d="M415.6214522311111,1055.396607041359L430.87007744000016,1042.1667068973184L447.42359722666674,799.2382605522871"></path><path class="path" style="fill:none;stroke:#ccc;stroke-linejoin:round;stroke-linecap:round;" d="M367.8995933866663,1049.829274278134L430.87007744000016,1042.1667068973184L623.9199095466665,1015.4674318805337"></path></g><g><path class="path" style="fill:none;stroke:#ccc;stroke-linejoin:round;stroke-linecap:round;" d="M879.9029430044445,986.6130290664732L876.5474998044444,980.4470427632332L783.0424826311109,799.2382605522871"></path><path class="path" style="fill:none;stroke:#ccc;stroke-linejoin:round;stroke-linecap:round;" d="M623.9199095466665,1015.4674318805337L876.5474998044444,980.4470427632332L879.9029430044445,980.0878590606153"></path></g><path class="waypath" style="fill:none;stroke:orange; stroke-width:5;stroke-linejoin:round; stroke-linecap:round}" d="M351.0105292799999,481.65604355186224L190.73219242666664,183.10743156448007L247.92385763555558,152.3963103480637L288.15189333333365,227.28828217834234L316.67316053333343,212.02254919335246L293.5951678577776,168.97912278398871L357.1621751466664,134.8556349761784L425.98604344888895,97.91840802133083L448.54207829333313,139.8843621686101L491.19348963555535,117.01561911404133L469.9423493688887,77.44426715373993L457.005251697778,84.38871430978179L435.15758819555526,43.73972699791193L511.9972374755557,2.4920182079076767L535.8208841955554,46.8527590893209L520.9078033066667,54.87480169162154L627.5736143644442,253.5692691616714L638.7584250311113,247.58271397650242L659.2266285511109,285.71704799309373L646.5132270933334,292.541711255908L669.7403505777779,335.8244043290615L697.2177021155555,386.94937801361084L724.13581312,437.11641370505095L738.8251977955556,429.21421371400356L760.7847094044446,470.1020874157548L681.9690769066665,512.4266593828797L658.7792361244444,469.2639764174819L672.7229667555555,461.78084136918187L647.4825773511113,414.72684114426374L596.0697309866669,442.3246806226671L599.0150644622222,447.83227214962244L521.3179130311112,489.55822836980224L527.3577107911112,500.75298626348376L473.297792568889,529.7276324182749L467.40712561777787,518.772346265614L392.3943287466666,559.061437100172L365.1033907199999,508.2959756106138L335.7619040711111,524.0404625535011L344.78431800888893,540.8625089228153L410.1781777066665,662.6274750046432L357.72141568000006,690.7638451866806L158.85548202666678,797.562058724463L92.04487964444434,673.0439218133688L70.42091235555517,684.6576566696167L39.178007893333415,626.4692035093904L310.0368395377777,481.05739310756326L319.46936319999986,498.5978460647166L351.0105292799999,481.65604355186224"></path><path class="center" style="fill:none; stroke:red; stroke-width:1;stroke-linejoin:round; stroke-linecap:round}" d="M400,400m0,4.5a4.5,4.5 0 1,1 0,-9a4.5,4.5 0 1,1 0,9z"></path></svg>
