<svg xmlns="http://www.w3.org/2000/svg" version="1.1" width="800" height="800"><g><path class="rail" style="fill:none;stroke:#ccc;stroke-linejoin:round;stroke-linecap:round;" d="M117.658096071111,216.12272577546537L127.94812188444439,210.3755856435746"></path><path class="rail" style="fill:none;stroke:#ccc;stroke-linejoin:round;stroke-linecap:round;" d="M98.94217955555564,216.12272577546537L105.33616298666652,212.29129929468036L127.94812188444439,199.6894905231893"></path><path class="path" style="fill:none;stroke:#ccc;stroke-linejoin:round;stroke-linecap:round;" d="M127.94812188444439,110.78803876973689L113.35194396444444,116.98421932570636L75.19309823999993,124.55732507444918L17.293061688888656,132.63929100893438L-24.090737777777804,158.3518841303885L-75.29852928000014,190.08097768202424L-91.74020096000004,184.60322434827685L-113.9793328355554,145.1214289907366L-122.06967921777778,129.61603764258325L-128.0349115733336,118.15161534398794"></path><path class="path" style="fill:none;stroke:#ccc;stroke-linejoin:round;stroke-linecap:round;" d="M-128.0349115733336,-20.559677500277758L-91.66563555555558,-40.07635576277971M58.67686115555557,-40.07635576277971L66.58079402666681,-25.34904381632805"></path><path class="path" style="fill:none;stroke:#ccc;stroke-linejoin:round;stroke-linecap:round;" d="M75.60320796444466,-7.957665411755443L80.52452465777765,1.0523171033710241"></path><path class="path" style="fill:none;stroke:#ccc;stroke-linejoin:round;stroke-linecap:round;" d="M70.92422883555537,-17.32685618661344L75.60320796444466,-7.957665411755443"></path><path class="path" style="fill:none;stroke:#ccc;stroke-linejoin:round;stroke-linecap:round;" d="M80.52452465777765,1.0523171033710241L83.78676110222227,-8.286933980882168"></path><path class="path" style="fill:none;stroke:#ccc;stroke-linejoin:round;stroke-linecap:round;" d="M80.52452465777765,1.0523171033710241L117.02429013333335,68.25282963179052"></path><path class="path" style="fill:none;stroke:#ccc;stroke-linejoin:round;stroke-linecap:round;" d="M75.90146958222226,-23.64283187314868L66.58079402666681,-25.34904381632805"></path><path class="path" style="fill:none;stroke:#ccc;stroke-linejoin:round;stroke-linecap:round;" d="M66.58079402666681,-25.34904381632805L70.92422883555537,-17.32685618661344"></path><path class="path" style="fill:none;stroke:#ccc;stroke-linejoin:round;stroke-linecap:round;" d="M83.78676110222227,-8.286933980882168L79.81615331555531,-15.979847529903054L75.90146958222226,-23.64283187314868"></path><path class="path" style="fill:none;stroke:#ccc;stroke-linejoin:round;stroke-linecap:round;" d="M117.02429013333335,68.25282963179052L82.29545301333314,87.08088717982173L75.1185328355557,96.92893873341382"></path><path class="path" style="fill:none;stroke:#ccc;stroke-linejoin:round;stroke-linecap:round;" d="M79.81615331555531,-15.979847529903054L85.93051648000005,-19.272535590454936L93.55482908444424,-23.37343000434339L105.22431488000007,-29.719342045485973L124.4062651733334,-40.07635576277971"></path><path class="path" style="fill:none;stroke:#ccc;stroke-linejoin:round;stroke-linecap:round;" d="M17.293061688888656,132.63929100893438L27.78814236444441,115.12835877761245L37.85447196444443,106.56745040044188L43.14861568000015,102.37679399177432"></path><path class="path" style="fill:none;stroke:#ccc;stroke-linejoin:round;stroke-linecap:round;" d="M43.14861568000015,102.37679399177432L49.729012622221944,99.89233280159533L59.6462114133335,97.76707044802606L75.1185328355557,96.92893873341382L75.19309823999993,124.55732507444918L52.15238826666655,109.53084236755967"></path><path class="path" style="fill:none;stroke:#ccc;stroke-linejoin:round;stroke-linecap:round;" d="M52.15238826666655,109.53084236755967L47.69710535111108,105.93885202147067"></path><path class="path" style="fill:none;stroke:#ccc;stroke-linejoin:round;stroke-linecap:round;" d="M47.69710535111108,105.93885202147067L43.14861568000015,102.37679399177432"></path><path class="path" style="fill:none;stroke:#ccc;stroke-linejoin:round;stroke-linecap:round;" d="M81.38202680888867,180.05339476838708L102.91278734222237,216.12272577546537"></path><path class="path" style="fill:none;stroke:#ccc;stroke-linejoin:round;stroke-linecap:round;" d="M-128.0349115733336,114.32016135938466L-120.42924031999996,116.14608878083527L-115.73161984000012,126.263518281281L-111.16448881777796,135.33327859267592L-113.9793328355554,145.1214289907366"></path><path class="path" style="fill:none;stroke:#ccc;stroke-linejoin:round;stroke-linecap:round;" d="M-122.06967921777778,129.61603764258325L-115.73161984000012,126.263518281281"></path><path class="path" style="fill:none;stroke:#ccc;stroke-linejoin:round;stroke-linecap:round;" d="M-115.73161984000012,126.263518281281L-111.3695436800001,124.01852718181908"></path><path class="path" style="fill:none;stroke:#ccc;stroke-linejoin:round;stroke-linecap:round;" d="M-24.090737777777804,158.3518841303885L-92.33672419555569,34.60771459713578L-128.0349115733336,54.30388631299138"></path><path class="minor_road" style="fill:none;stroke:#ccc;stroke-linejoin:round;stroke-linecap:round;" d="M84.84931811555543,-40.07635576277971L93.55482908444424,-23.37343000434339L127.94812188444439,41.07333033531904"></path><path class="major_road" style="fill:none;stroke:#ccc;stroke-linejoin:round;stroke-linecap:round;" d="M17.34898574222234,216.12272577546537L81.38202680888867,180.05339476838708L127.94812188444439,154.01157785765827"></path></g><g><path class="rail" style="fill:none;stroke:#ccc;stroke-linejoin:round;stroke-linecap:round;" d="M127.94812188444439,210.3755856435746L249.54565518222216,142.57710922509432L362.99691804444456,77.77162826992571L383.94979669333316,68.10316293872893"></path><path class="rail" style="fill:none;stroke:#ccc;stroke-linejoin:round;stroke-linecap:round;" d="M127.94812188444439,199.6894905231893L245.81738496000003,133.9862848687917L359.25000647111096,69.12089645303786L383.94979669333316,57.746223436668515"></path><path class="path" style="fill:none;stroke:#ccc;stroke-linejoin:round;stroke-linecap:round;" d="M173.3025291377778,128.8377742934972L160.5145622755556,102.01759481243789L158.12846933333321,97.58747080154717"></path><path class="path" style="fill:none;stroke:#ccc;stroke-linejoin:round;stroke-linecap:round;" d="M229.41299598222213,216.12272577546537L184.00266467555548,130.33443454280496L176.08009045333324,134.07608444988728L173.3025291377778,128.8377742934972"></path><path class="path" style="fill:none;stroke:#ccc;stroke-linejoin:round;stroke-linecap:round;" d="M227.5861435733334,60.44022579304874L295.6084337777777,23.98134875483811"></path><path class="path" style="fill:none;stroke:#ccc;stroke-linejoin:round;stroke-linecap:round;" d="M158.12846933333321,97.58747080154717L150.87698375111108,101.059730283916L127.94812188444439,110.78803876973689"></path><path class="path" style="fill:none;stroke:#ccc;stroke-linejoin:round;stroke-linecap:round;" d="M351.77482467555546,216.12272577546537L331.9777097955555,178.43700757436454L278.1974118400001,76.21509561687708"></path><path class="path" style="fill:none;stroke:#ccc;stroke-linejoin:round;stroke-linecap:round;" d="M158.12846933333321,97.58747080154717L227.5861435733334,60.44022579304874L173.78720426666678,-40.07635576277971"></path><path class="path" style="fill:none;stroke:#ccc;stroke-linejoin:round;stroke-linecap:round;" d="M261.6252507022223,216.12272577546537L331.9777097955555,178.43700757436454"></path><path class="minor_road" style="fill:none;stroke:#ccc;stroke-linejoin:round;stroke-linecap:round;" d="M260.786389902222,-40.07635576277971L295.6084337777777,23.98134875483811L298.94523562666654,30.117701875045896"></path><path class="minor_road" style="fill:none;stroke:#ccc;stroke-linejoin:round;stroke-linecap:round;" d="M127.94812188444439,41.07333033531904L158.12846933333321,97.58747080154717"></path><path class="minor_road" style="fill:none;stroke:#ccc;stroke-linejoin:round;stroke-linecap:round;" d="M383.94979669333316,-14.423304364085197L298.94523562666654,30.117701875045896"></path><path class="major_road" style="fill:none;stroke:#ccc;stroke-linejoin:round;stroke-linecap:round;" d="M127.94812188444439,154.01157785765827L157.27096718222197,137.6381342075765"></path><path class="major_road" style="fill:none;stroke:#ccc;stroke-linejoin:round;stroke-linecap:round;" d="M173.3025291377778,128.8377742934972L278.1974118400001,76.21509561687708"></path><path class="major_road" style="fill:none;stroke:#ccc;stroke-linejoin:round;stroke-linecap:round;" d="M157.27096718222197,137.6381342075765L173.3025291377778,128.8377742934972"></path><path class="major_road" style="fill:none;stroke:#ccc;stroke-linejoin:round;stroke-linecap:round;" d="M278.1974118400001,76.21509561687708L383.94979669333316,18.563395665958524"></path></g><g><path class="rail" style="fill:none;stroke:#ccc;stroke-linejoin:round;stroke-linecap:round;" d="M383.94979669333316,57.746223436668515L464.6109229511112,20.509069681167603L599.6861531022221,-38.93887988477945L603.9923052088888,-40.07635576277971"></path><path class="rail" style="fill:none;stroke:#ccc;stroke-linejoin:round;stroke-linecap:round;" d="M383.94979669333316,68.10316293872893L468.35783452444446,29.129898875951767L603.4330646755556,-30.31801314651966L639.8955474488888,-40.07635576277971"></path><path class="path" style="fill:none;stroke:#ccc;stroke-linejoin:round;stroke-linecap:round;" d="M455.2156819911112,190.20070997066796L469.2153366755555,216.12272577546537"></path><path class="path" style="fill:none;stroke:#ccc;stroke-linejoin:round;stroke-linecap:round;" d="M614.3755377777777,103.93332366272807L455.2156819911112,190.20070997066796"></path><path class="path" style="fill:none;stroke:#ccc;stroke-linejoin:round;stroke-linecap:round;" d="M455.2156819911112,190.20070997066796L407.28876828444436,216.12272577546537"></path><path class="path" style="fill:none;stroke:#ccc;stroke-linejoin:round;stroke-linecap:round;" d="M536.8647998577777,-40.07635576277971L614.3755377777777,103.93332366272807L639.9514715022223,152.54485336132348"></path><path class="path" style="fill:none;stroke:#ccc;stroke-linejoin:round;stroke-linecap:round;" d="M614.3755377777777,103.93332366272807L639.9514715022223,90.10414996556938"></path><path class="minor_road" style="fill:none;stroke:#ccc;stroke-linejoin:round;stroke-linecap:round;" d="M432.88334336,-40.07635576277971L383.94979669333316,-14.423304364085197"></path><path class="major_road" style="fill:none;stroke:#ccc;stroke-linejoin:round;stroke-linecap:round;" d="M383.94979669333316,18.563395665958524L491.56631665777775,-40.07635576277971"></path></g><g><path class="path" style="fill:none;stroke:#ccc;stroke-linejoin:round;stroke-linecap:round;" d="M639.9514715022223,152.54485336132348L672.6670427022221,214.68594096973538"></path><path class="path" style="fill:none;stroke:#ccc;stroke-linejoin:round;stroke-linecap:round;" d="M805.0952009955555,216.12272577546537L861.6530602666667,184.87262210063636L771.27979008,18.982463935390115"></path><path class="path" style="fill:none;stroke:#ccc;stroke-linejoin:round;stroke-linecap:round;" d="M639.9514715022223,90.10414996556938L771.27979008,18.982463935390115L850.63602176,-25.34904381632805"></path><path class="minor_road" style="fill:none;stroke:#ccc;stroke-linejoin:round;stroke-linecap:round;" d="M850.63602176,-25.34904381632805L872.5955333688888,-38.849079163745046"></path><path class="minor_road" style="fill:none;stroke:#ccc;stroke-linejoin:round;stroke-linecap:round;" d="M872.5955333688888,-38.849079163745046L895.953146311111,11.558966940268874M895.953146311111,80.52549330331385L847.3551439644444,-9.633941877633333L846.2739455999999,-18.284729089587927L850.63602176,-25.34904381632805"></path><path class="minor_road" style="fill:none;stroke:#ccc;stroke-linejoin:round;stroke-linecap:round;" d="M872.5955333688888,-38.849079163745046L874.5342338844445,-40.07635576277971"></path></g><g><path class="rail" style="fill:none;stroke:#ccc;stroke-linejoin:round;stroke-linecap:round;" d="M-128.0349115733336,392.1277207545936L-120.54108842666665,382.99826576560736L-39.50713514666677,310.0821372587234L109.06443320888889,220.91200737655163L117.658096071111,216.12272577546537"></path><path class="rail" style="fill:none;stroke:#ccc;stroke-linejoin:round;stroke-linecap:round;" d="M-128.0349115733336,378.95735750347376L-124.28800000000001,374.40759270079434L-43.254046719999906,301.4614854864776L98.94217955555564,216.12272577546537"></path><path class="path" style="fill:none;stroke:#ccc;stroke-linejoin:round;stroke-linecap:round;" d="M-35.89071303111132,311.69850885495543L-26.364982613333495,325.97644968889654L-15.869901937777968,339.9550481662154L-1.3296480711110235,354.89147910289466L8.38249585777794,362.43452018871903L22.624488106666604,369.19930744357407L35.39381361777782,372.1925750784576L49.39346830222212,374.4375253673643L57.63294549333341,374.4375253673643"></path><path class="path" style="fill:none;stroke:#ccc;stroke-linejoin:round;stroke-linecap:round;" d="M102.91278734222237,216.12272577546537L116.74466986666653,239.2908599153161L126.04670407111098,253.14981541410089L127.94812188444439,254.79612668789923"></path><path class="path" style="fill:none;stroke:#ccc;stroke-linejoin:round;stroke-linecap:round;" d="M-31.789615786666673,421.79092418029904L-15.869901937777968,413.1404103580862L-8.61841635555561,407.4532183576375L-1.366930773333479,399.7006738651544L3.367972408888818,390.48142603971064L5.884554808888879,381.47170056030154L6.108251022222021,373.2102859225124L3.945854293333241,363.90122213587165L-1.3296480711110235,354.89147910289466"></path><path class="path" style="fill:none;stroke:#ccc;stroke-linejoin:round;stroke-linecap:round;" d="M60.261376000000155,323.1927013974637L71.12928369777774,344.71435358189046"></path><path class="path" style="fill:none;stroke:#ccc;stroke-linejoin:round;stroke-linecap:round;" d="M126.68051000888886,288.5604304652661L125.86029056000007,303.43705199472606L122.63533681777767,319.21164101548493L116.11086392888865,334.2079601623118L105.87676216888894,349.68318640999496"></path><path class="path" style="fill:none;stroke:#ccc;stroke-linejoin:round;stroke-linecap:round;" d="M-1.3296480711110235,354.89147910289466L60.261376000000155,323.1927013974637L126.68051000888886,288.5604304652661L127.94812188444439,287.90190760977566"></path><path class="minor_road" style="fill:none;stroke:#ccc;stroke-linejoin:round;stroke-linecap:round;" d="M-7.108466915555482,472.34693161956966L-31.789615786666673,421.79092418029904L-56.95543978666683,370.33674922399223L-102.29120568888902,282.09493195451796"></path><path class="major_road" style="fill:none;stroke:#ccc;stroke-linejoin:round;stroke-linecap:round;" d="M-128.0349115733336,222.76785354316235L-102.29120568888902,282.09493195451796"></path><path class="major_road" style="fill:none;stroke:#ccc;stroke-linejoin:round;stroke-linecap:round;" d="M-102.29120568888902,282.09493195451796L-118.75151872000015,297.0314262025058L-128.0349115733336,302.5091344229877"></path><path class="major_road" style="fill:none;stroke:#ccc;stroke-linejoin:round;stroke-linecap:round;" d="M-102.29120568888902,282.09493195451796L-52.4069501155559,255.4247182160616L17.34898574222234,216.12272577546537"></path></g><g><path class="path" style="fill:none;stroke:#ccc;stroke-linejoin:round;stroke-linecap:round;" d="M236.51535075555557,229.5626430027187L229.41299598222213,216.12272577546537"></path><path class="path" style="fill:none;stroke:#ccc;stroke-linejoin:round;stroke-linecap:round;" d="M378.59972892444443,267.4278174880892L364.0781164088887,239.5003906674683"></path><path class="path" style="fill:none;stroke:#ccc;stroke-linejoin:round;stroke-linecap:round;" d="M383.94979669333316,228.75445236451924L364.0781164088887,239.5003906674683"></path><path class="path" style="fill:none;stroke:#ccc;stroke-linejoin:round;stroke-linecap:round;" d="M364.0781164088887,239.5003906674683L351.77482467555546,216.12272577546537"></path><path class="path" style="fill:none;stroke:#ccc;stroke-linejoin:round;stroke-linecap:round;" d="M127.94812188444439,254.79612668789923L139.03972579555557,264.4045939780772L154.47476451555553,274.1327860560268L170.8418707911112,292.5414997879416L274.84196864,281.34661016985774L324.85671367111104,403.08305868692696"></path><path class="path" style="fill:none;stroke:#ccc;stroke-linejoin:round;stroke-linecap:round;" d="M127.94812188444439,287.90190760977566L154.47476451555553,274.1327860560268L236.51535075555557,229.5626430027187L261.6252507022223,216.12272577546537"></path><path class="minor_road" style="fill:none;stroke:#ccc;stroke-linejoin:round;stroke-linecap:round;" d="M324.85671367111104,403.08305868692696L191.70154268444435,472.34693161956966"></path></g><g><path class="path" style="fill:none;stroke:#ccc;stroke-linejoin:round;stroke-linecap:round;" d="M469.2153366755555,216.12272577546537L538.9153484799999,345.2531427759677L589.3402032355555,444.689316643402L544.0976440888888,472.34693161956966"></path><path class="path" style="fill:none;stroke:#ccc;stroke-linejoin:round;stroke-linecap:round;" d="M407.28876828444436,216.12272577546537L383.94979669333316,228.75445236451924"></path><path class="path" style="fill:none;stroke:#ccc;stroke-linejoin:round;stroke-linecap:round;" d="M496.8231776711111,472.34693161956966L520.1435079111111,459.71543043106794L527.3949934933333,472.34693161956966"></path></g><g><path class="path" style="fill:none;stroke:#ccc;stroke-linejoin:round;stroke-linecap:round;" d="M895.953146311111,343.00818768516183L654.6967802311112,472.34693161956966"></path><path class="path" style="fill:none;stroke:#ccc;stroke-linejoin:round;stroke-linecap:round;" d="M752.15376384,245.3971832934767L805.0952009955555,216.12272577546537"></path></g><g><path class="path" style="fill:none;stroke:#ccc;stroke-linejoin:round;stroke-linecap:round;" d="M35.69207523555565,552.3262128643692L127.94812188444439,505.1528611462563"></path><path class="path" style="fill:none;stroke:#ccc;stroke-linejoin:round;stroke-linecap:round;" d="M127.94812188444439,707.584056256339L117.73266147555546,712.9718039557338"></path><path class="minor_road" style="fill:none;stroke:#ccc;stroke-linejoin:round;stroke-linecap:round;" d="M127.94812188444439,630.179846085608L87.1049215999999,652.449315790087"></path><path class="minor_road" style="fill:none;stroke:#ccc;stroke-linejoin:round;stroke-linecap:round;" d="M103.30425571555543,683.3990292176604L127.94812188444439,670.558199185878"></path><path class="minor_road" style="fill:none;stroke:#ccc;stroke-linejoin:round;stroke-linecap:round;" d="M113.25873720888876,703.3037884961814L103.30425571555543,683.3990292176604L87.1049215999999,652.449315790087L83.09703111111116,642.8411216177046L35.69207523555565,552.3262128643692L-6.139116657777777,474.29254095070064L-7.108466915555482,472.34693161956966"></path><path class="minor_road" style="fill:none;stroke:#ccc;stroke-linejoin:round;stroke-linecap:round;" d="M48.68509696000001,727.6983035206795L113.25873720888876,703.3037884961814"></path><path class="minor_road" style="fill:none;stroke:#ccc;stroke-linejoin:round;stroke-linecap:round;" d="M124.59267868444454,727.6983035206795L124.31305841777771,727.0697337407619L117.73266147555546,712.9718039557338L113.25873720888876,703.3037884961814"></path></g><g><path class="path" style="fill:none;stroke:#ccc;stroke-linejoin:round;stroke-linecap:round;" d="M383.94979669333316,622.2179032042623L187.84278300444453,727.6983035206795"></path><path class="path" style="fill:none;stroke:#ccc;stroke-linejoin:round;stroke-linecap:round;" d="M383.94979669333316,555.5588985104114L378.87934919111103,545.3819225933403"></path><path class="path" style="fill:none;stroke:#ccc;stroke-linejoin:round;stroke-linecap:round;" d="M361.0582175288887,727.6983035206795L383.94979669333316,724.914637139067"></path><path class="path" style="fill:none;stroke:#ccc;stroke-linejoin:round;stroke-linecap:round;" d="M127.94812188444439,505.1528611462563L164.83935573333315,486.29544778726995"></path><path class="path" style="fill:none;stroke:#ccc;stroke-linejoin:round;stroke-linecap:round;" d="M383.94979669333316,573.1291302628815L127.94812188444439,707.584056256339"></path><path class="path" style="fill:none;stroke:#ccc;stroke-linejoin:round;stroke-linecap:round;" d="M272.2508208355555,594.6803206112236L383.94979669333316,533.5586616247892"></path><path class="minor_road" style="fill:none;stroke:#ccc;stroke-linejoin:round;stroke-linecap:round;" d="M191.70154268444435,472.34693161956966L164.83935573333315,486.29544778726995L212.84083484444432,583.9047296866775L127.94812188444439,630.179846085608"></path><path class="minor_road" style="fill:none;stroke:#ccc;stroke-linejoin:round;stroke-linecap:round;" d="M127.94812188444439,670.558199185878L161.16700956444424,653.2574813440442L272.2508208355555,594.6803206112236L251.91310677333308,556.9657151736319"></path></g><g><path class="path" style="fill:none;stroke:#ccc;stroke-linejoin:round;stroke-linecap:round;" d="M639.9514715022223,480.24909703433514L553.7725053155555,526.4347677957267L424.0473429333332,594.5306596811861L410.8492663466666,607.7606792729348L383.94979669333316,622.2179032042623"></path><path class="path" style="fill:none;stroke:#ccc;stroke-linejoin:round;stroke-linecap:round;" d="M538.5052387555555,494.16767271980643L390.9030206577778,569.4773974213749L383.94979669333316,555.5588985104114"></path><path class="path" style="fill:none;stroke:#ccc;stroke-linejoin:round;stroke-linecap:round;" d="M407.81072611555555,727.6983035206795L415.4350387200001,721.0833534486592L424.0473429333332,594.5306596811861"></path><path class="path" style="fill:none;stroke:#ccc;stroke-linejoin:round;stroke-linecap:round;" d="M639.9514715022223,693.3065145332366L638.2737499022222,690.2235213816166L553.7725053155555,526.4347677957267"></path><path class="path" style="fill:none;stroke:#ccc;stroke-linejoin:round;stroke-linecap:round;" d="M544.0976440888888,472.34693161956966L531.738428302222,479.88990779593587L538.5052387555555,494.16767271980643L553.7725053155555,526.4347677957267"></path><path class="path" style="fill:none;stroke:#ccc;stroke-linejoin:round;stroke-linecap:round;" d="M383.94979669333316,724.914637139067L415.4350387200001,721.0833534486592L638.2737499022222,690.2235213816166L639.9514715022223,690.0439295303077"></path><path class="path" style="fill:none;stroke:#ccc;stroke-linejoin:round;stroke-linecap:round;" d="M390.9030206577778,569.4773974213749L383.94979669333316,573.1291302628815"></path><path class="path" style="fill:none;stroke:#ccc;stroke-linejoin:round;stroke-linecap:round;" d="M383.94979669333316,533.5586616247892L415.15541845333325,516.4672966599464L496.8231776711111,472.34693161956966M527.3949934933333,472.34693161956966L531.738428302222,479.88990779593587"></path></g><g><path class="path" style="fill:none;stroke:#ccc;stroke-linejoin:round;stroke-linecap:round;" d="M817.100231111111,727.6983035206795L842.7134475377777,666.3976479340345L895.953146311111,517.3353349734098"></path><path class="path" style="fill:none;stroke:#ccc;stroke-linejoin:round;stroke-linecap:round;" d="M654.6967802311112,472.34693161956966L639.9514715022223,480.24909703433514"></path><path class="path" style="fill:none;stroke:#ccc;stroke-linejoin:round;stroke-linecap:round;" d="M658.9283669333333,727.6983035206795L639.9514715022223,693.3065145332366"></path><path class="path" style="fill:none;stroke:#ccc;stroke-linejoin:round;stroke-linecap:round;" d="M639.9514715022223,690.0439295303077L842.7134475377777,666.3976479340345L895.953146311111,660.2017167489976"></path></g><g><path class="path" style="fill:none;stroke:#ccc;stroke-linejoin:round;stroke-linecap:round;" d="M127.94812188444439,766.5797778535634L119.72728604444433,776.9062478020787L108.09508295111118,798.9060925208032L65.53687836444442,983.9129077941179"></path><path class="minor_road" style="fill:none;stroke:#ccc;stroke-linejoin:round;stroke-linecap:round;" d="M-112.33889393777758,788.5796392131597L48.68509696000001,727.6983035206795"></path><path class="minor_road" style="fill:none;stroke:#ccc;stroke-linejoin:round;stroke-linecap:round;" d="M-112.33889393777758,788.5796392131597L-128.0349115733336,804.6829166151583"></path><path class="minor_road" style="fill:none;stroke:#ccc;stroke-linejoin:round;stroke-linecap:round;" d="M127.94812188444439,734.9418198317289L124.59267868444454,727.6983035206795"></path><path class="major_road" style="fill:none;stroke:#ccc;stroke-linejoin:round;stroke-linecap:round;" d="M-2.9514456177778357,983.9129077941179L-12.45853468444443,962.45212604478L-33.001303608888975,915.9985470753163L-62.02588728888895,851.0770111251622L-78.52348302222208,822.9711881838739L-88.77622613333347,809.2624697312713L-112.33889393777758,788.5796392131597"></path><path class="major_road" style="fill:none;stroke:#ccc;stroke-linejoin:round;stroke-linecap:round;" d="M-128.0349115733336,774.2722504157573L-112.33889393777758,788.5796392131597"></path></g><g><path class="path" style="fill:none;stroke:#ccc;stroke-linejoin:round;stroke-linecap:round;" d="M383.94979669333316,810.0406942907721L327.33601336888887,797.4693690501153L136.3553712355556,753.3798440117389"></path><path class="path" style="fill:none;stroke:#ccc;stroke-linejoin:round;stroke-linecap:round;" d="M187.84278300444453,727.6983035206795L137.23151473777762,754.936299463734"></path><path class="path" style="fill:none;stroke:#ccc;stroke-linejoin:round;stroke-linecap:round;" d="M130.59519374222214,983.9129077941179L222.92580579555556,898.0097153428942L327.35465471999987,797.4693690501153L383.94979669333316,748.4111581295729"></path><path class="path" style="fill:none;stroke:#ccc;stroke-linejoin:round;stroke-linecap:round;" d="M137.23151473777762,754.936299463734L361.0582175288887,727.6983035206795"></path><path class="path" style="fill:none;stroke:#ccc;stroke-linejoin:round;stroke-linecap:round;" d="M137.23151473777762,754.936299463734L127.94812188444439,766.5797778535634"></path><path class="minor_road" style="fill:none;stroke:#ccc;stroke-linejoin:round;stroke-linecap:round;" d="M183.16380387555546,830.1248589381576L212.46800782222226,879.4820918142796L222.92580579555556,898.0097153428942L244.19558741333321,935.7832414712757L290.92945464888885,983.9129077941179"></path><path class="minor_road" style="fill:none;stroke:#ccc;stroke-linejoin:round;stroke-linecap:round;" d="M183.16380387555546,830.1248589381576L136.3553712355556,753.3798440117389L137.23151473777762,754.936299463734"></path><path class="minor_road" style="fill:none;stroke:#ccc;stroke-linejoin:round;stroke-linecap:round;" d="M137.23151473777762,754.936299463734L135.0318353066666,750.1472052186728L127.94812188444439,734.9418198317289"></path></g><g><path class="path" style="fill:none;stroke:#ccc;stroke-linejoin:round;stroke-linecap:round;" d="M639.9514715022223,866.7911041695625L383.94979669333316,810.0406942907721"></path><path class="path" style="fill:none;stroke:#ccc;stroke-linejoin:round;stroke-linecap:round;" d="M383.94979669333316,748.4111581295729L407.81072611555555,727.6983035206795"></path></g><g><path class="path" style="fill:none;stroke:#ccc;stroke-linejoin:round;stroke-linecap:round;" d="M748.8915273955555,890.9458747692406L817.100231111111,727.6983035206795"></path><path class="path" style="fill:none;stroke:#ccc;stroke-linejoin:round;stroke-linecap:round;" d="M895.953146311111,921.1168293152004L748.8915273955555,890.9458747692406L639.9514715022223,866.7911041695625"></path><path class="path" style="fill:none;stroke:#ccc;stroke-linejoin:round;stroke-linecap:round;" d="M748.8915273955555,890.9458747692406L658.9283669333333,727.6983035206795"></path><path class="path" style="fill:none;stroke:#ccc;stroke-linejoin:round;stroke-linecap:round;" d="M748.8915273955555,890.9458747692406L745.125974471111,983.9129077941179"></path><path class="path" style="fill:none;stroke:#ccc;stroke-linejoin:round;stroke-linecap:round;" d="M748.8915273955555,890.9458747692406L792.3258754844444,983.9129077941179"></path><path class="path" style="fill:none;stroke:#ccc;stroke-linejoin:round;stroke-linecap:round;" d="M748.8915273955555,890.9458747692406L672.4060637866667,983.9129077941179"></path></g><path class="waypath" style="fill:none;stroke:orange; stroke-width:5;stroke-linejoin:round; stroke-linecap:round}" d="M375.50526463999995,440.8280217759311L295.3660962133333,291.55371578224003L323.9619288177778,276.19815517403185L344.0759466666668,313.64414108917117L358.3365802666667,306.01127459667623L346.7975839288888,284.48956139199436L378.5810875733332,267.4278174880892L412.9930217244445,248.95920401066542L424.27103914666657,269.94218108430505L445.5967448177777,258.50780955702066L434.97117468444435,238.72213357686996L428.502625848889,242.1943571548909L417.57879409777763,221.86986349895597L455.99861873777786,201.24600910395384L467.9104420977777,223.42637954466045L460.45390165333333,227.43740084581077L513.7868071822221,326.7846345808357L519.3792125155557,323.7913569882512L529.6133142755555,342.85852399654686L523.2566135466667,346.270855627954L534.870175288889,367.91220216453075L548.6088510577778,393.4746890068054L562.06790656,418.5582068525255L569.4125988977778,414.6071068570018L580.3923547022223,435.0510437078774L540.9845384533332,456.21332969143987L529.3896180622222,434.63198820874095L536.3614833777777,430.89042068459094L523.7412886755557,407.3634205721319L498.0348654933334,421.16234031133354L499.5075322311111,423.9161360748112L460.6589565155556,444.7791141849011L463.6788553955556,450.3764931317419L436.6488962844445,464.86381620913744L433.70356280888893,459.386173132807L396.1971643733333,479.530718550086L382.55169535999994,454.1479878053069L367.88095203555554,462.02023127675056L372.39215900444447,470.43125446140766L405.08908885333324,531.3137375023216L378.86070784000003,545.3819225933403L279.4277410133334,598.7810293622315L246.02243982222217,536.5219609066844L235.2104561777776,542.3288283348083L219.5890039466667,513.2346017546952L355.01841976888886,440.52869655378163L359.73468159999993,449.2989230323583L375.50526463999995,440.8280217759311"></path><path class="center" style="fill:none; stroke:red; stroke-width:1;stroke-linejoin:round; stroke-linecap:round}" d="M400,400m0,4.5a4.5,4.5 0 1,1 0,-9a4.5,4.5 0 1,1 0,9z"></path></svg>
