<svg xmlns="http://www.w3.org/2000/svg" version="1.1" width="800" height="800"><g><path class="rail" style="fill:none;stroke:#ccc;stroke-linejoin:round;stroke-linecap:round;" d="M70.21585749333326,-137.06234932504594L17.46083384888891,-12.278355841524899L-60.51593784888894,118.72966002952307"></path><path class="path" style="fill:none;stroke:#ccc;stroke-linejoin:round;stroke-linecap:round;" d="M-71.70074851555557,85.71222504042089L-49.15403434666666,-52.94478514418006L-35.480603306666694,-137.06234932504594"></path><path class="path" style="fill:none;stroke:#ccc;stroke-linejoin:round;stroke-linecap:round;" d="M-12.850003057777826,70.89473856054246L-11.731521991111094,70.47565766889602L2.277453368888814,61.73482173588127L24.28356835555553,55.104351399466395L86.27538147555549,38.01177739072591L92.29653788444455,38.80504140723497L97.1246478222223,42.5019498411566L100.64786318222218,48.00989067647606"></path><path class="path" style="fill:none;stroke:#ccc;stroke-linejoin:round;stroke-linecap:round;" d="M-50.915642026666774,83.79643062222749L-31.910784568888857,78.79740202240646L-12.850003057777826,70.89473856054246"></path><path class="path" style="fill:none;stroke:#ccc;stroke-linejoin:round;stroke-linecap:round;" d="M109.5025049599999,67.58699223585427L91.09417073777774,59.29516861308366L65.99359146666666,56.60107212793082L37.873113315555656,63.81526144128293L27.27550520888883,59.968692569062114"></path><path class="path" style="fill:none;stroke:#ccc;stroke-linejoin:round;stroke-linecap:round;" d="M24.28356835555553,55.104351399466395L27.27550520888883,59.968692569062114L48.78762439111108,112.05434380564839"></path><path class="path" style="fill:none;stroke:#ccc;stroke-linejoin:round;stroke-linecap:round;" d="M109.5025049599999,78.87223780620843L48.78762439111108,112.05434380564839L36.08354360888893,118.72966002952307"></path><path class="path" style="fill:none;stroke:#ccc;stroke-linejoin:round;stroke-linecap:round;" d="M-74.07752078222222,105.13954747188836L-72.57689201777771,92.10319160297513"></path><path class="path" style="fill:none;stroke:#ccc;stroke-linejoin:round;stroke-linecap:round;" d="M-74.07752078222222,105.13954747188836L-62.081811342222295,102.77474538702518L-50.915642026666774,83.79643062222749"></path><path class="path" style="fill:none;stroke:#ccc;stroke-linejoin:round;stroke-linecap:round;" d="M100.64786318222218,48.00989067647606L109.5025049599999,44.537493710406125"></path><path class="path" style="fill:none;stroke:#ccc;stroke-linejoin:round;stroke-linecap:round;" d="M-72.57689201777771,92.10319160297513L-74.69268536888899,91.3249009149149L-75.8204871111111,90.57654440030456L-76.81779939555554,89.34923953562975L-77.5727741155556,87.70285461470485L-77.81511168000009,86.20614070724696L-77.5727741155556,84.0808063885197L-76.81779939555554,82.58409168664366L-75.56882887111101,81.20711386948824L-74.32917902222232,80.33901901450008L-72.94039836444449,79.71039853338152L-71.57957973333339,79.71039853338152L-69.70612394666671,79.94987301062793L-68.56900152888886,80.96763943880796L-67.07769343999985,82.44938734639436L-66.57437696,83.96106922253966L-66.33203939555551,85.71222504042089L-66.57437696,87.20893906056881L-67.58100992000004,88.45121144503355L-69.3146555733332,89.34923953562975L-70.81528433777794,89.58871367014945L-72.19474432000004,89.45400947146118L-73.69537308444444,88.7206198880449L-74.44102712888889,87.46338040847331L-74.58083726222219,85.47275076899678L-73.82586254222213,83.82636491395533L-72.57689201777771,82.83853320870548L-71.70074851555557,82.83853320870548L-69.95778218666669,83.07800757605582L-69.20280746666663,84.57472216989845L-69.20280746666663,85.96666644886136L-69.95778218666669,86.83476058673114L-70.95509447111112,87.0892019495368L-71.70074851555557,86.58031921461225L-71.70074851555557,85.71222504042089"></path><path class="path" style="fill:none;stroke:#ccc;stroke-linejoin:round;stroke-linecap:round;" d="M40.32445098666665,-35.29818926472217L26.27819292444451,-31.586273298598826L41.35904597333342,25.25967153068632L37.01561116444441,26.427118834108114L14.002863217777872,32.518795744515955L-7.956648391111116,38.34105680510402"></path><path class="path" style="fill:none;stroke:#ccc;stroke-linejoin:round;stroke-linecap:round;" d="M14.002863217777872,32.518795744515955L10.65674069333329,40.54124156944454"></path><path class="path" style="fill:none;stroke:#ccc;stroke-linejoin:round;stroke-linecap:round;" d="M10.65674069333329,40.54124156944454L12.614082560000043,48.29426793381572L2.277453368888814,61.73482173588127"></path><path class="path" style="fill:none;stroke:#ccc;stroke-linejoin:round;stroke-linecap:round;" d="M-53.90757888000019,73.88817276619375L-56.38687857777779,61.63005137722939"></path><path class="path" style="fill:none;stroke:#ccc;stroke-linejoin:round;stroke-linecap:round;" d="M109.5025049599999,53.0688106790185L100.64786318222218,48.00989067647606"></path><path class="path" style="fill:none;stroke:#ccc;stroke-linejoin:round;stroke-linecap:round;" d="M-74.07752078222222,105.13954747188836L-107.10999495111116,106.47161917295307L-125.12686079999992,118.69972589146346L-125.14550215111115,118.72966002952307"></path><path class="minor_road" style="fill:none;stroke:#ccc;stroke-linejoin:round;stroke-linecap:round;" d="M-51.74518215111107,118.72966002952307L-51.91295431111098,116.7989078015089L-50.915642026666774,83.79643062222749"></path><path class="minor_road" style="fill:none;stroke:#ccc;stroke-linejoin:round;stroke-linecap:round;" d="M-12.850003057777826,70.89473856054246L2.939221333333194,118.72966002952307"></path></g><g><path class="path" style="fill:none;stroke:#ccc;stroke-linejoin:round;stroke-linecap:round;" d="M335.42635975111114,-45.94002406671643L365.4948590933333,-62.14977056719363"></path><path class="path" style="fill:none;stroke:#ccc;stroke-linejoin:round;stroke-linecap:round;" d="M109.5025049599999,44.537493710406125L188.42066488888895,13.630089430138469L197.26598599111117,12.492574545554817L203.9861930666666,13.884533521719277L238.1557896533334,-2.8638949748128653L266.0246095644445,-17.008042199537158L292.55125219555555,-32.39451289176941L303.3725565155555,-35.163482604548335L339.68590847999997,-54.501399694010615L365.4948590933333,-68.40617424808443"></path><path class="path" style="fill:none;stroke:#ccc;stroke-linejoin:round;stroke-linecap:round;" d="M182.29698104888882,104.93000807985663L180.84295566222215,106.30698111094534L179.9388501333333,107.92342735826969L179.51941973333328,110.30319474637508L180.25575310222223,113.10203961003572L181.37423416888896,114.71848424617201L183.80693048888884,116.26009312923998L186.0345719466667,116.61930291634053L188.56979569777786,115.99068577587605L190.10770716444438,115.0178258055821L191.39396039111114,113.47621664311737L192.20485916444443,111.2311541326344L192.04640768000002,108.44727559760213L191.29143295999995,106.7559939948842L189.63235271111103,105.01981067936867L188.07579989333328,104.21158725768328L186.22098545777783,103.82244261540473L184.09587143111116,104.07688334397972L182.29698104888882,104.93000807985663"></path><path class="path" style="fill:none;stroke:#ccc;stroke-linejoin:round;stroke-linecap:round;" d="M188.56979569777786,115.99068577587605L190.098386488889,118.72966002952307"></path><path class="path" style="fill:none;stroke:#ccc;stroke-linejoin:round;stroke-linecap:round;" d="M269.9206519466667,118.72966002952307L218.72218112000007,21.50288462638855L216.42929493333338,17.132436704821885"></path><path class="path" style="fill:none;stroke:#ccc;stroke-linejoin:round;stroke-linecap:round;" d="M156.1804481422222,54.52063022367656L182.29698104888882,104.93000807985663"></path><path class="path" style="fill:none;stroke:#ccc;stroke-linejoin:round;stroke-linecap:round;" d="M120.81780508444444,72.67583207041025L109.5025049599999,67.58699223585427"></path><path class="path" style="fill:none;stroke:#ccc;stroke-linejoin:round;stroke-linecap:round;" d="M120.81780508444444,72.67583207041025L109.5025049599999,78.87223780620843"></path><path class="path" style="fill:none;stroke:#ccc;stroke-linejoin:round;stroke-linecap:round;" d="M120.81780508444444,72.67583207041025L156.1804481422222,54.52063022367656L218.72218112000007,21.50288462638855L256.46159644444447,3.2577427281066775"></path><path class="path" style="fill:none;stroke:#ccc;stroke-linejoin:round;stroke-linecap:round;" d="M275.01906147555553,-30.97260996233672L289.13988494222224,-38.53114998433739L292.55125219555555,-32.39451289176941"></path><path class="path" style="fill:none;stroke:#ccc;stroke-linejoin:round;stroke-linecap:round;" d="M203.9861930666666,13.884533521719277L153.02073912888886,41.16986565478146L114.40518030222222,55.88264621887356L109.5025049599999,53.0688106790185"></path><path class="path" style="fill:none;stroke:#ccc;stroke-linejoin:round;stroke-linecap:round;" d="M284.3490577066667,56.19695756305009L326.0497601422222,34.22506299801171L365.4948590933333,13.465449130162597"></path><path class="path" style="fill:none;stroke:#ccc;stroke-linejoin:round;stroke-linecap:round;" d="M292.55125219555555,-32.39451289176941L296.0185435022222,-25.778924939222634L297.7987925333333,-18.504779072478414L326.0497601422222,34.22506299801171L358.53231445333336,94.63263573590666L365.4948590933333,107.69892095960677"></path><path class="path" style="fill:none;stroke:#ccc;stroke-linejoin:round;stroke-linecap:round;" d="M180.25575310222223,113.10203961003572L170.08689607111114,118.72966002952307"></path><path class="minor_road" style="fill:none;stroke:#ccc;stroke-linejoin:round;stroke-linecap:round;" d="M365.4948590933333,11.175451807677746L338.56742741333335,-39.95305448491126L335.42635975111114,-45.94002406671643"></path><path class="minor_road" style="fill:none;stroke:#ccc;stroke-linejoin:round;stroke-linecap:round;" d="M316.82229134222223,117.87653701938689L284.3490577066667,56.19695756305009L256.46159644444447,3.2577427281066775L297.7987925333333,-18.504779072478414L338.56742741333335,-39.95305448491126"></path><path class="minor_road" style="fill:none;stroke:#ccc;stroke-linejoin:round;stroke-linecap:round;" d="M365.4948590933333,91.01059118751436L358.53231445333336,94.63263573590666L316.82229134222223,117.87653701938689L315.256417848889,118.72966002952307"></path><path class="minor_road" style="fill:none;stroke:#ccc;stroke-linejoin:round;stroke-linecap:round;" d="M146.2632493511112,118.72966002952307L120.81780508444444,72.67583207041025"></path></g><g><path class="path" style="fill:none;stroke:#ccc;stroke-linejoin:round;stroke-linecap:round;" d="M389.4396745955555,-43.2608545338735L377.98456433777784,-64.73914268426597"></path><path class="path" style="fill:none;stroke:#ccc;stroke-linejoin:round;stroke-linecap:round;" d="M377.98456433777784,-64.73914268426597L376.26956003555557,-67.95714986789972"></path><path class="path" style="fill:none;stroke:#ccc;stroke-linejoin:round;stroke-linecap:round;" d="M439.9577361066667,51.51222031097859L434.30008604444447,40.91542258113623"></path><path class="path" style="fill:none;stroke:#ccc;stroke-linejoin:round;stroke-linecap:round;" d="M410.6814941866667,-92.23444366082549L408.93852785777784,-96.58999687153846L398.4807298844445,-92.14463846664876"></path><path class="path" style="fill:none;stroke:#ccc;stroke-linejoin:round;stroke-linecap:round;" d="M434.30008604444447,40.91542258113623L425.6877818311111,24.765751460567117"></path><path class="path" style="fill:none;stroke:#ccc;stroke-linejoin:round;stroke-linecap:round;" d="M465.91581752888885,-76.35391064081341L441.92439864888894,-111.60245759692043"></path><path class="path" style="fill:none;stroke:#ccc;stroke-linejoin:round;stroke-linecap:round;" d="M425.6877818311111,24.765751460567117L389.4396745955555,-43.2608545338735"></path><path class="path" style="fill:none;stroke:#ccc;stroke-linejoin:round;stroke-linecap:round;" d="M365.4948590933333,107.69892095960677L371.37620536888886,118.72966002952307"></path><path class="path" style="fill:none;stroke:#ccc;stroke-linejoin:round;stroke-linecap:round;" d="M365.4948590933333,-68.40617424808443L388.8524720355556,-81.00880386121571L410.6814941866667,-92.23444366082549L441.92439864888894,-111.60245759692043"></path><path class="path" style="fill:none;stroke:#ccc;stroke-linejoin:round;stroke-linecap:round;" d="M365.4948590933333,-62.14977056719363L376.26956003555557,-67.95714986789972L412.5363086222223,-87.51967269554734"></path><path class="path" style="fill:none;stroke:#ccc;stroke-linejoin:round;stroke-linecap:round;" d="M365.4948590933333,13.465449130162597L366.44556800000004,12.971528202295303"></path><path class="minor_road" style="fill:none;stroke:#ccc;stroke-linejoin:round;stroke-linecap:round;" d="M514.4485751466667,11.355059469118714L502.47150705777784,17.83589940238744L475.5254340266667,32.35415589995682L468.69337884444445,36.02113332878798L439.9577361066667,51.51222031097859L398.49005056,73.85823843162507L365.4948590933333,91.01059118751436"></path><path class="minor_road" style="fill:none;stroke:#ccc;stroke-linejoin:round;stroke-linecap:round;" d="M468.69337884444445,36.02113332878798L510.85079438222226,118.72966002952307"></path><path class="minor_road" style="fill:none;stroke:#ccc;stroke-linejoin:round;stroke-linecap:round;" d="M592.3134987377778,118.72966002952307L581.9023041422222,96.63822982367128"></path><path class="minor_road" style="fill:none;stroke:#ccc;stroke-linejoin:round;stroke-linecap:round;" d="M594.3826887111111,91.0405254503712L600.4597691733334,88.2865729490295L602.9670308977778,87.70285461470485L604.6913558755556,88.36140863131732L605.9030436977778,89.94792486168444M605.9030436977778,89.94792486168444L619.11044096,118.72966002952307M621.4965339022222,83.00317183509469L605.9030436977778,89.94792486168444"></path><path class="minor_road" style="fill:none;stroke:#ccc;stroke-linejoin:round;stroke-linecap:round;" d="M562.5152989866667,105.34908685646951L581.9023041422222,96.63822982367128M581.9023041422222,96.63822982367128L594.3826887111111,91.0405254503712L582.8623337244444,65.55145524069667L581.9116248177777,63.77035986818373L579.9636036266667,62.72265649680048L577.9130550044445,63.351278539747L572.3113289955556,65.98550362046808L570.6522487466666,67.04817367903888L569.8413499733333,69.09867740795016L570.2794217244445,71.34375377744436L581.9023041422222,96.63822982367128"></path><path class="minor_road" style="fill:none;stroke:#ccc;stroke-linejoin:round;stroke-linecap:round;" d="M412.5363086222223,-87.51967269554734L475.5254340266667,32.35415589995682"></path><path class="minor_road" style="fill:none;stroke:#ccc;stroke-linejoin:round;stroke-linecap:round;" d="M398.49005056,73.85823843162507L366.44556800000004,12.971528202295303L365.4948590933333,11.175451807677746"></path><path class="minor_road" style="fill:none;stroke:#ccc;stroke-linejoin:round;stroke-linecap:round;" d="M569.0024891733334,118.72966002952307L562.5152989866667,105.34908685646951L541.4226102044445,61.794690515846014"></path><path class="minor_road" style="fill:none;stroke:#ccc;stroke-linejoin:round;stroke-linecap:round;" d="M578.8358018844444,-137.06234932504594L620.9652553955556,-42.258037155494094L621.1423482311111,-38.635921883396804L619.9586224355555,-23.997806197963655L618.8774240711111,-7.713313574902713L618.9333481244445,-4.225922689773142L619.1570443377777,3.0032982397824526L619.9306604088889,8.69087868090719L621.37536512,14.273683292791247L621.4965339022222,14.647865747101605"></path><path class="minor_road" style="fill:none;stroke:#ccc;stroke-linejoin:round;stroke-linecap:round;" d="M465.91581752888885,-76.35391064081341L566.0851177244444,-137.06234932504594"></path><path class="minor_road" style="fill:none;stroke:#ccc;stroke-linejoin:round;stroke-linecap:round;" d="M621.4965339022222,23.433663812465966L541.4226102044445,61.794690515846014"></path><path class="minor_road" style="fill:none;stroke:#ccc;stroke-linejoin:round;stroke-linecap:round;" d="M541.4226102044445,61.794690515846014L514.4485751466667,11.355059469118714L465.91581752888885,-76.35391064081341"></path><path class="minor_road" style="fill:none;stroke:#ccc;stroke-linejoin:round;stroke-linecap:round;" d="M621.4965339022222,14.243748695589602L621.37536512,14.273683292791247"></path></g><g><path class="path" style="fill:none;stroke:#ccc;stroke-linejoin:round;stroke-linecap:round;" d="M860.1337901511112,66.82366593461484L852.5001568711111,48.743284637108445"></path><path class="path" style="fill:none;stroke:#ccc;stroke-linejoin:round;stroke-linecap:round;" d="M664.0174557866667,118.72966002952307L663.719194168889,117.96633944381028"></path><path class="minor_road" style="fill:none;stroke:#ccc;stroke-linejoin:round;stroke-linecap:round;" d="M670.8867936711111,-137.06234932504594L735.7493748622222,-27.664815871976316"></path><path class="minor_road" style="fill:none;stroke:#ccc;stroke-linejoin:round;stroke-linecap:round;" d="M806.2323234133333,69.08371022995561L790.3685336177778,30.812528065405786L789.6694829511111,28.283060285262764L790.2473648355556,25.888297027908266L792.3817995377779,24.18202769011259L834.69766656,6.909768473356962"></path><path class="minor_road" style="fill:none;stroke:#ccc;stroke-linejoin:round;stroke-linecap:round;" d="M626.5856227555555,118.72966002952307L641.08859392,111.68016669433564L628.8691882666667,84.15564211644232L627.7134244977779,82.58409168664366L626.0170615466667,81.68606270756572L623.7521373866667,81.9854057142511L621.4965339022222,83.00317183509469"></path><path class="minor_road" style="fill:none;stroke:#ccc;stroke-linejoin:round;stroke-linecap:round;" d="M621.4965339022222,14.647865747101605L623.957192248889,22.266215996816754L663.719194168889,117.96633944381028"></path><path class="minor_road" style="fill:none;stroke:#ccc;stroke-linejoin:round;stroke-linecap:round;" d="M785.3912928711111,118.72966002952307L770.1240263111112,81.04247519746423"></path><path class="minor_road" style="fill:none;stroke:#ccc;stroke-linejoin:round;stroke-linecap:round;" d="M877.4982087111111,-23.41407831106335L831.00667904,-1.7114101946353912"></path><path class="minor_road" style="fill:none;stroke:#ccc;stroke-linejoin:round;stroke-linecap:round;" d="M877.4982087111111,113.32654582988471L860.1337901511112,66.82366593461484"></path><path class="minor_road" style="fill:none;stroke:#ccc;stroke-linejoin:round;stroke-linecap:round;" d="M623.957192248889,22.266215996816754L621.4965339022222,23.433663812465966"></path><path class="minor_road" style="fill:none;stroke:#ccc;stroke-linejoin:round;stroke-linecap:round;" d="M807.7329521777779,-57.25541091803461L831.00667904,-1.7114101946353912L834.69766656,6.909768473356962L844.596224,29.989328597672284L846.8611481600001,35.272770749405026L848.3617769244445,38.984648341313004L852.5001568711111,48.743284637108445"></path><path class="minor_road" style="fill:none;stroke:#ccc;stroke-linejoin:round;stroke-linecap:round;" d="M877.4982087111111,-84.54113652650267L807.7329521777779,-57.25541091803461L735.7493748622222,-27.664815871976316L705.3453312,-14.059471525251865L621.4965339022222,14.243748695589602"></path><path class="major_road" style="fill:none;stroke:#ccc;stroke-linejoin:round;stroke-linecap:round;" d="M788.7001326933333,75.20528339874L806.2323234133333,69.08371022995561L829.3662401422223,59.39993901178241L834.8374766933333,57.16982592176646L840.9518398577778,54.370958123356104L852.5001568711111,48.743284637108445L864.6077144177779,42.51691707782447L870.6195501511112,39.43366565555334L875.4010567111111,37.09877529926598L877.4982087111111,36.29054383933544"></path><path class="major_road" style="fill:none;stroke:#ccc;stroke-linejoin:round;stroke-linecap:round;" d="M696.3881619911111,105.1694816686213L770.1240263111112,81.04247519746423L788.7001326933333,75.20528339874"></path><path class="major_road" style="fill:none;stroke:#ccc;stroke-linejoin:round;stroke-linecap:round;" d="M662.1533206755556,118.72966002952307L663.719194168889,117.96633944381028L696.3881619911111,105.1694816686213"></path></g><g><path class="rail" style="fill:none;stroke:#ccc;stroke-linejoin:round;stroke-linecap:round;" d="M-121.75277624888895,321.18620532006025L-116.08580551111106,374.9311457714066"></path><path class="rail" style="fill:none;stroke:#ccc;stroke-linejoin:round;stroke-linecap:round;" d="M-60.51593784888894,118.72966002952307L-74.62744064000003,142.42248978745192L-119.8047550577777,273.9962720889598L-121.75277624888895,321.18620532006025"></path><path class="minor_road" style="fill:none;stroke:#ccc;stroke-linejoin:round;stroke-linecap:round;" d="M-65.84736426666655,229.06600392237306L-74.1707275377778,209.56419987045228"></path><path class="path" style="fill:none;stroke:#ccc;stroke-linejoin:round;stroke-linecap:round;" d="M-9.792821475555456,374.9311457714066L-7.910045013333388,373.79369109869003L32.46712149333325,353.40927388705313"></path><path class="path" style="fill:none;stroke:#ccc;stroke-linejoin:round;stroke-linecap:round;" d="M100.8063146666666,261.2595738749951L109.5025049599999,256.589944133535"></path><path class="path" style="fill:none;stroke:#ccc;stroke-linejoin:round;stroke-linecap:round;" d="M13.033512959999939,315.48391863238066L3.656913351111143,297.19466252904385L-0.23912903111113337,289.8011195547879"></path><path class="path" style="fill:none;stroke:#ccc;stroke-linejoin:round;stroke-linecap:round;" d="M91.92371086222215,289.81608624756336L100.8063146666666,261.2595738749951L90.66541966222223,239.76727716904134"></path><path class="path" style="fill:none;stroke:#ccc;stroke-linejoin:round;stroke-linecap:round;" d="M93.57347043555546,374.9311457714066L105.44801109333343,368.8996405368671"></path><path class="path" style="fill:none;stroke:#ccc;stroke-linejoin:round;stroke-linecap:round;" d="M13.033512959999939,315.48391863238066L32.46712149333325,353.40927388705313L43.856987022222256,374.9311457714066"></path><path class="path" style="fill:none;stroke:#ccc;stroke-linejoin:round;stroke-linecap:round;" d="M-136.19050268444448,175.75395628530532L-134.65259121777774,149.80122540798038L-144.73756216888899,131.1972174635157"></path><path class="path" style="fill:none;stroke:#ccc;stroke-linejoin:round;stroke-linecap:round;" d="M36.08354360888893,118.72966002952307L14.571424426666681,129.99985399097204L8.186761671111071,134.60970220156014"></path><path class="path" style="fill:none;stroke:#ccc;stroke-linejoin:round;stroke-linecap:round;" d="M109.5025049599999,294.0217260401696L97.23649592888887,300.7866643210873"></path><path class="path" style="fill:none;stroke:#ccc;stroke-linejoin:round;stroke-linecap:round;" d="M-125.14550215111115,118.72966002952307L-144.73756216888899,131.1972174635157L-146.49916984888876,132.3197455285117"></path><path class="path" style="fill:none;stroke:#ccc;stroke-linejoin:round;stroke-linecap:round;" d="M-73.43439416888884,316.1873505814001L-83.3049895822221,314.87028644979L-90.27685489777775,316.12748403660953"></path><path class="path" style="fill:none;stroke:#ccc;stroke-linejoin:round;stroke-linecap:round;" d="M-90.27685489777775,316.12748403660953L-115.86210929777769,325.316992694512L-128.044232248889,332.2165993768722L-136.74974321777768,339.89446151442826L-140.18907249777783,348.75467375386506L-142.5938067911111,368.2261470677331"></path><path class="path" style="fill:none;stroke:#ccc;stroke-linejoin:round;stroke-linecap:round;" d="M109.5025049599999,325.9455905556679L108.35606186666655,323.74549779389054L97.23649592888887,300.7866643210873L91.92371086222215,289.81608624756336"></path><path class="path" style="fill:none;stroke:#ccc;stroke-linejoin:round;stroke-linecap:round;" d="M-56.45212330666675,325.07752682920545L-73.43439416888884,316.1873505814001"></path><path class="path" style="fill:none;stroke:#ccc;stroke-linejoin:round;stroke-linecap:round;" d="M108.35606186666655,323.74549779389054L109.5025049599999,324.02986356336623"></path><path class="path" style="fill:none;stroke:#ccc;stroke-linejoin:round;stroke-linecap:round;" d="M-49.620068124444515,230.2932836599648L32.68149703111112,200.26976713072509"></path><path class="minor_road" style="fill:none;stroke:#ccc;stroke-linejoin:round;stroke-linecap:round;" d="M-54.960815217777736,258.6703244475648L-65.84736426666655,229.06600392237306"></path><path class="minor_road" style="fill:none;stroke:#ccc;stroke-linejoin:round;stroke-linecap:round;" d="M-146.49916984888876,224.62085471395403L-139.28496696888885,225.11476032529026L-136.19050268444448,175.75395628530532"></path><path class="minor_road" style="fill:none;stroke:#ccc;stroke-linejoin:round;stroke-linecap:round;" d="M2.939221333333194,118.72966002952307L8.186761671111071,134.60970220156014L32.68149703111112,200.26976713072509"></path><path class="minor_road" style="fill:none;stroke:#ccc;stroke-linejoin:round;stroke-linecap:round;" d="M-54.960815217777736,258.6703244475648L-49.620068124444515,230.2932836599648L-46.17141816888875,209.41453116573393L-47.70932963555549,184.40484464913607L-49.070148266666706,149.54678638279438L-51.74518215111107,118.72966002952307"></path><path class="minor_road" style="fill:none;stroke:#ccc;stroke-linejoin:round;stroke-linecap:round;" d="M32.68149703111112,200.26976713072509L34.92777983999986,205.52314371615648L55.601038222222314,258.6703244475648"></path><path class="minor_road" style="fill:none;stroke:#ccc;stroke-linejoin:round;stroke-linecap:round;" d="M109.5025049599999,229.61977651529014L90.66541966222223,239.76727716904134L64.5768487822221,253.85102520603687L55.601038222222314,258.6703244475648"></path><path class="minor_road" style="fill:none;stroke:#ccc;stroke-linejoin:round;stroke-linecap:round;" d="M-146.49916984888876,256.00624019280076L-104.94759822222215,260.8255379125476L-54.92353251555562,267.30614097230136"></path><path class="minor_road" style="fill:none;stroke:#ccc;stroke-linejoin:round;stroke-linecap:round;" d="M-142.29554517333338,374.9311457714066L-142.5938067911111,368.2261470677331"></path><path class="minor_road" style="fill:none;stroke:#ccc;stroke-linejoin:round;stroke-linecap:round;" d="M-54.960815217777736,258.6703244475648L-54.92353251555562,267.30614097230136L-56.45212330666675,325.07752682920545"></path><path class="major_road" style="fill:none;stroke:#ccc;stroke-linejoin:round;stroke-linecap:round;" d="M-59.04327111111115,354.80116334278136L-58.65180273777787,335.62898361403495L-56.45212330666675,325.07752682920545"></path><path class="major_road" style="fill:none;stroke:#ccc;stroke-linejoin:round;stroke-linecap:round;" d="M92.87441976888897,343.38167480006814L105.44801109333343,368.8996405368671L108.06712092444445,374.9311457714066"></path><path class="major_road" style="fill:none;stroke:#ccc;stroke-linejoin:round;stroke-linecap:round;" d="M-146.49916984888876,368.27104663383216L-142.5938067911111,368.2261470677331L-94.22882133333349,370.2017277283594"></path><path class="major_road" style="fill:none;stroke:#ccc;stroke-linejoin:round;stroke-linecap:round;" d="M55.601038222222314,258.6703244475648L92.87441976888897,343.38167480006814"></path><path class="major_road" style="fill:none;stroke:#ccc;stroke-linejoin:round;stroke-linecap:round;" d="M-83.10925539555558,374.9311457714066L-94.22882133333349,370.2017277283594"></path><path class="major_road" style="fill:none;stroke:#ccc;stroke-linejoin:round;stroke-linecap:round;" d="M-94.22882133333349,370.2017277283594L-77.73122560000013,368.37581229023635L-72.29727175111111,367.64245267398655L-67.14293816888903,364.7539130039513L-62.37075228444439,358.7373653193936L-59.04327111111115,354.80116334278136"></path><path class="major_road" style="fill:none;stroke:#ccc;stroke-linejoin:round;stroke-linecap:round;" d="M-56.45212330666675,325.07752682920545L-0.23912903111113337,289.8011195547879L26.045176035555528,273.36766944639385L55.601038222222314,258.6703244475648"></path><path class="major_road" style="fill:none;stroke:#ccc;stroke-linejoin:round;stroke-linecap:round;" d="M-54.765081031111094,374.9311457714066L-59.04327111111115,354.80116334278136"></path></g><g><path class="rail" style="fill:none;stroke:#ccc;stroke-linejoin:round;stroke-linecap:round;" d="M232.3490087822222,374.9311457714066L298.2927883377778,338.15833749622107L355.018419768889,305.75559701863676L365.4948590933333,300.92136435303837"></path><path class="rail" style="fill:none;stroke:#ccc;stroke-linejoin:round;stroke-linecap:round;" d="M222.99105052444452,374.9311457714066L226.18804223999996,373.0154325310141L296.4286532266667,333.86292531806976L353.1449639822222,301.43023111019284L365.4948590933333,295.74289460200816"></path><path class="path" style="fill:none;stroke:#ccc;stroke-linejoin:round;stroke-linecap:round;" d="M182.16649159111103,333.1894283881411L187.4140319288889,324.43396227248013L192.4471967288889,320.15350808389485L195.09426858666677,318.05817987956107"></path><path class="path" style="fill:none;stroke:#ccc;stroke-linejoin:round;stroke-linecap:round;" d="M170.08689607111114,118.72966002952307L151.8370133333333,128.8024903126061"></path><path class="path" style="fill:none;stroke:#ccc;stroke-linejoin:round;stroke-linecap:round;" d="M213.42803740444435,258.8798591187224L216.48521898666672,257.23351508844644L220.29737528888882,255.1830678815022L226.13211818666673,252.01011186093092L249.26603491555557,239.51284149475396"></path><path class="path" style="fill:none;stroke:#ccc;stroke-linejoin:round;stroke-linecap:round;" d="M252.5841954133333,315.6635182844475L248.95845262222224,317.3996480256319L230.19593272888892,325.3618925465271L211.11650986666666,329.1484454208985L182.16649159111103,333.1894283881411L161.4745918577778,346.04572494886816L135.87069610666663,361.910271724686L127.64986026666668,359.17139505781233L116.530294328889,339.4304973790422L112.48512113777781,331.67780170496553L109.5025049599999,325.9455905556679"></path><path class="path" style="fill:none;stroke:#ccc;stroke-linejoin:round;stroke-linecap:round;" d="M140.10228280888884,213.12631405796856L145.0795235555555,222.33092823904008L151.41758293333328,234.07988928072155"></path><path class="path" style="fill:none;stroke:#ccc;stroke-linejoin:round;stroke-linecap:round;" d="M109.5025049599999,256.589944133535L151.41758293333328,234.07988928072155L186.0345719466667,215.4910779092461L206.8103577600001,254.19526097550988"></path><path class="path" style="fill:none;stroke:#ccc;stroke-linejoin:round;stroke-linecap:round;" d="M211.32156472888903,262.8909501777962L213.78222307555552,267.3959414353594"></path><path class="path" style="fill:none;stroke:#ccc;stroke-linejoin:round;stroke-linecap:round;" d="M208.98207516444438,258.2063547903672L211.32156472888903,262.8909501777962"></path><path class="path" style="fill:none;stroke:#ccc;stroke-linejoin:round;stroke-linecap:round;" d="M213.78222307555552,267.3959414353594L215.41334129777783,262.7263158932328"></path><path class="path" style="fill:none;stroke:#ccc;stroke-linejoin:round;stroke-linecap:round;" d="M213.78222307555552,267.3959414353594L232.03210581333337,300.99619769956917"></path><path class="path" style="fill:none;stroke:#ccc;stroke-linejoin:round;stroke-linecap:round;" d="M211.47069553777783,255.04836694709957L206.8103577600001,254.19526097550988"></path><path class="path" style="fill:none;stroke:#ccc;stroke-linejoin:round;stroke-linecap:round;" d="M206.8103577600001,254.19526097550988L208.98207516444438,258.2063547903672"></path><path class="path" style="fill:none;stroke:#ccc;stroke-linejoin:round;stroke-linecap:round;" d="M215.41334129777783,262.7263158932328L213.42803740444435,258.8798591187224L211.47069553777783,255.04836694709957"></path><path class="path" style="fill:none;stroke:#ccc;stroke-linejoin:round;stroke-linecap:round;" d="M252.09952028444445,230.48785238340497L256.19129685333337,229.82931207865477L258.60535182222225,230.6375206215307L260.4601662577777,232.19407014362514L261.4015544888889,233.99008837807924L261.9607950222222,236.69908165745437L261.6345713777779,238.46516509447247L260.58133504,240.47071692161262L258.1393180444445,242.58103574160486L256.6666513066667,242.9252720847726L254.29919971555557,243.00010606646538L252.13680298666668,242.25176618155092L249.26603491555557,239.51284149475396L248.82796316444444,237.80662556365132L248.9118492444444,234.66359509620816L250.2726678755556,232.08930240105838L252.09952028444445,230.48785238340497"></path><path class="path" style="fill:none;stroke:#ccc;stroke-linejoin:round;stroke-linecap:round;" d="M287.3130325333334,297.0898957801983L321.32417763555554,278.86045726109296"></path><path class="path" style="fill:none;stroke:#ccc;stroke-linejoin:round;stroke-linecap:round;" d="M161.4745918577778,346.04572494886816L127.35159864888885,284.1736401822418L109.5025049599999,294.0217260401696"></path><path class="path" style="fill:none;stroke:#ccc;stroke-linejoin:round;stroke-linecap:round;" d="M190.098386488889,118.72966002952307L219.13229084444447,170.5304907001555L252.09952028444445,230.48785238340497"></path><path class="path" style="fill:none;stroke:#ccc;stroke-linejoin:round;stroke-linecap:round;" d="M279.94037816888886,137.75277874339372L269.9206519466667,118.72966002952307"></path><path class="path" style="fill:none;stroke:#ccc;stroke-linejoin:round;stroke-linecap:round;" d="M232.03210581333337,300.99619769956917L214.66768725333327,310.41022647358477L211.07922716444455,315.3342522503808"></path><path class="path" style="fill:none;stroke:#ccc;stroke-linejoin:round;stroke-linecap:round;" d="M197.36851342222224,319.83920889440924L195.09426858666677,318.05817987956107"></path><path class="path" style="fill:none;stroke:#ccc;stroke-linejoin:round;stroke-linecap:round;" d="M115.65415082666664,330.0015420243144L117.83518890666664,328.87904647458345"></path><path class="path" style="fill:none;stroke:#ccc;stroke-linejoin:round;stroke-linecap:round;" d="M195.09426858666677,318.05817987956107L198.38446705777767,316.81594928447157L203.34306645333345,315.75331810768694L211.07922716444455,315.3342522503808L211.11650986666666,329.1484454208985L199.59615487999997,321.63520406745374"></path><path class="path" style="fill:none;stroke:#ccc;stroke-linejoin:round;stroke-linecap:round;" d="M199.59615487999997,321.63520406745374L197.36851342222224,319.83920889440924"></path><path class="path" style="fill:none;stroke:#ccc;stroke-linejoin:round;stroke-linecap:round;" d="M261.4015544888889,233.99008837807924L288.850944,219.11305639706552"></path><path class="path" style="fill:none;stroke:#ccc;stroke-linejoin:round;stroke-linecap:round;" d="M260.1712253155556,331.2886700304225L253.7772418844445,317.87858028989285L252.5841954133333,315.6635182844475"></path><path class="path" style="fill:none;stroke:#ccc;stroke-linejoin:round;stroke-linecap:round;" d="M288.22645873777776,374.9311457714066L265.52129308444444,332.0370001550764L261.5600059733333,333.90782510861754L260.1712253155556,331.2886700304225"></path><path class="path" style="fill:none;stroke:#ccc;stroke-linejoin:round;stroke-linecap:round;" d="M112.48512113777781,331.67780170496553L115.65415082666664,330.0015420243144"></path><path class="path" style="fill:none;stroke:#ccc;stroke-linejoin:round;stroke-linecap:round;" d="M109.5025049599999,324.02986356336623L113.30534058666672,324.94282727409154L115.65415082666664,330.0015420243144L117.93771633777772,334.53642218001187L116.530294328889,339.4304973790422"></path><path class="path" style="fill:none;stroke:#ccc;stroke-linejoin:round;stroke-linecap:round;" d="M252.5841954133333,315.6635182844475L287.3130325333334,297.0898957801983L258.1393180444445,242.58103574160486"></path><path class="path" style="fill:none;stroke:#ccc;stroke-linejoin:round;stroke-linecap:round;" d="M349.40737308444443,374.9311457714066L339.50881564444444,356.0882866708562L312.61866666666674,304.97733069211245"></path><path class="path" style="fill:none;stroke:#ccc;stroke-linejoin:round;stroke-linecap:round;" d="M304.33258609777783,374.9311457714066L339.50881564444444,356.0882866708562"></path><path class="path" style="fill:none;stroke:#ccc;stroke-linejoin:round;stroke-linecap:round;" d="M214.21097415111103,356.89648026786745L224.97635441777788,374.9311457714066"></path><path class="minor_road" style="fill:none;stroke:#ccc;stroke-linejoin:round;stroke-linecap:round;" d="M184.87880817777773,187.23359296191484L220.29737528888882,255.1830678815022L252.5841954133333,315.6635182844475"></path><path class="minor_road" style="fill:none;stroke:#ccc;stroke-linejoin:round;stroke-linecap:round;" d="M252.32321649777782,152.6299880631268L288.850944,219.11305639706552L321.32417763555554,278.86045726109296L322.99257855999997,281.92863382119685"></path><path class="minor_road" style="fill:none;stroke:#ccc;stroke-linejoin:round;stroke-linecap:round;" d="M365.4948590933333,259.6581307016313L322.99257855999997,281.92863382119685"></path><path class="minor_road" style="fill:none;stroke:#ccc;stroke-linejoin:round;stroke-linecap:round;" d="M184.87880817777773,187.23359296191484L140.10228280888884,213.12631405796856L109.5025049599999,229.61977651529014"></path><path class="minor_road" style="fill:none;stroke:#ccc;stroke-linejoin:round;stroke-linecap:round;" d="M184.87880817777773,187.23359296191484L151.8370133333333,128.8024903126061L146.2632493511112,118.72966002952307"></path><path class="minor_road" style="fill:none;stroke:#ccc;stroke-linejoin:round;stroke-linecap:round;" d="M315.256417848889,118.72966002952307L279.94037816888886,137.75277874339372L252.32321649777782,152.6299880631268L219.13229084444447,170.5304907001555L184.87880817777773,187.23359296191484"></path><path class="major_road" style="fill:none;stroke:#ccc;stroke-linejoin:round;stroke-linecap:round;" d="M182.19445361777787,374.9311457714066L214.21097415111103,356.89648026786745L252.15544433777768,335.68884998746216"></path><path class="major_road" style="fill:none;stroke:#ccc;stroke-linejoin:round;stroke-linecap:round;" d="M312.61866666666674,304.97733069211245L365.4948590933333,276.15148071665317"></path><path class="major_road" style="fill:none;stroke:#ccc;stroke-linejoin:round;stroke-linecap:round;" d="M260.1712253155556,331.2886700304225L312.61866666666674,304.97733069211245"></path><path class="major_road" style="fill:none;stroke:#ccc;stroke-linejoin:round;stroke-linecap:round;" d="M252.15544433777768,335.68884998746216L260.1712253155556,331.2886700304225"></path></g><g><path class="rail" style="fill:none;stroke:#ccc;stroke-linejoin:round;stroke-linecap:round;" d="M365.4948590933333,300.92136435303837L407.6988780088889,281.4347323216498L475.2364930844445,251.71077631041408L530.6199472355556,236.86371657717973L579.8144728177779,233.49618341121823L621.4965339022222,231.55049682967365"></path><path class="rail" style="fill:none;stroke:#ccc;stroke-linejoin:round;stroke-linecap:round;" d="M365.4948590933333,295.74289460200816L405.8254222222223,277.1243177242577L473.36303729777774,247.40034294128418L528.7371707733333,232.56824064813554L579.2552322844444,227.778856636025L621.4965339022222,225.11476032529026"></path><path class="path" style="fill:none;stroke:#ccc;stroke-linejoin:round;stroke-linecap:round;" d="M576.0675612444445,374.9311457714066L604.34649088,359.3060939339921L559.1598557866666,276.36101485136896"></path><path class="path" style="fill:none;stroke:#ccc;stroke-linejoin:round;stroke-linecap:round;" d="M401.1278017422223,361.9701378690079L377.1643448888889,374.9311457714066"></path><path class="path" style="fill:none;stroke:#ccc;stroke-linejoin:round;stroke-linecap:round;" d="M436.8166684444445,237.29775406233966L480.70772963555555,318.83644471503794L509.85348209777777,374.2127533685416"></path><path class="path" style="fill:none;stroke:#ccc;stroke-linejoin:round;stroke-linecap:round;" d="M413.1235111822222,149.72639040183276L393.65261994666673,160.5175899080932L374.2656147911111,170.87473067454994"></path><path class="path" style="fill:none;stroke:#ccc;stroke-linejoin:round;stroke-linecap:round;" d="M401.1278017422223,361.9701378690079L408.12762908444444,374.9311457714066"></path><path class="path" style="fill:none;stroke:#ccc;stroke-linejoin:round;stroke-linecap:round;" d="M613.0613225244444,245.36485957168043L608.1959298844445,234.02002201229334L587.3828613688888,186.81451920978725L592.7981738666667,184.25517538841814L599.3692501333334,181.60602902434766"></path><path class="path" style="fill:none;stroke:#ccc;stroke-linejoin:round;stroke-linecap:round;" d="M480.70772963555555,318.83644471503794L401.1278017422223,361.9701378690079"></path><path class="path" style="fill:none;stroke:#ccc;stroke-linejoin:round;stroke-linecap:round;" d="M480.70772963555555,318.83644471503794L559.1598557866666,276.36101485136896L598.8379716266667,254.19526097550988"></path><path class="path" style="fill:none;stroke:#ccc;stroke-linejoin:round;stroke-linecap:round;" d="M371.37620536888886,118.72966002952307L393.65261994666673,160.5175899080932L428.33485368888887,226.70124477148056L429.2389592177778,228.45236396696419L434.53310293333334,238.52503232471645"></path><path class="minor_road" style="fill:none;stroke:#ccc;stroke-linejoin:round;stroke-linecap:round;" d="M510.85079438222226,118.72966002952307L535.7369981155556,167.55206583999097L428.33485368888887,226.70124477148056L365.4948590933333,259.6581307016313"></path><path class="minor_road" style="fill:none;stroke:#ccc;stroke-linejoin:round;stroke-linecap:round;" d="M609.817727431111,247.44524330180138L611.8496347022223,246.14313269592822L613.0613225244444,245.36485957168043L621.4965339022222,240.09654685016721"></path><path class="minor_road" style="fill:none;stroke:#ccc;stroke-linejoin:round;stroke-linecap:round;" d="M620.4712595911112,121.69313913211226L598.5956340622222,132.05033880844712L592.3134987377778,118.72966002952307"></path><path class="minor_road" style="fill:none;stroke:#ccc;stroke-linejoin:round;stroke-linecap:round;" d="M619.11044096,118.72966002952307L620.4712595911112,121.69313913211226L621.4965339022222,121.18425896856934"></path><path class="minor_road" style="fill:none;stroke:#ccc;stroke-linejoin:round;stroke-linecap:round;" d="M609.817727431111,247.44524330180138L621.4965339022222,272.64926635380834M621.4965339022222,307.13252953533083L597.197532728889,262.05281194485724L596.6569335466667,257.72741833887994L598.8379716266667,254.19526097550988"></path><path class="minor_road" style="fill:none;stroke:#ccc;stroke-linejoin:round;stroke-linecap:round;" d="M598.8379716266667,254.19526097550988L609.817727431111,247.44524330180138"></path><path class="minor_road" style="fill:none;stroke:#ccc;stroke-linejoin:round;stroke-linecap:round;" d="M621.4965339022222,205.6578456228599L613.3409427911112,206.73546081408858"></path><path class="minor_road" style="fill:none;stroke:#ccc;stroke-linejoin:round;stroke-linecap:round;" d="M621.4965339022222,224.02218119986355L613.3409427911112,206.73546081408858L599.3692501333334,181.60602902434766L595.9578828799999,173.50891425926238L593.5997519644445,168.0459755808115L591.5864860444444,164.24436636082828L587.2150892088889,155.87782522011548"></path><path class="minor_road" style="fill:none;stroke:#ccc;stroke-linejoin:round;stroke-linecap:round;" d="M587.2150892088889,155.87782522011548L582.2751311644445,145.95470499247313L579.4696078222223,140.31213999912143L576.9996288,135.22335059475154L569.0024891733334,118.72966002952307"></path><path class="major_road" style="fill:none;stroke:#ccc;stroke-linejoin:round;stroke-linecap:round;" d="M587.2150892088889,155.87782522011548L600.2081109333333,149.02294129692018L605.9123643733334,145.99960602540523L612.2411030755557,142.7517641633749L621.4965339022222,138.29159171879292"></path><path class="major_road" style="fill:none;stroke:#ccc;stroke-linejoin:round;stroke-linecap:round;" d="M365.4948590933333,276.15148071665317L434.53310293333334,238.52503232471645L436.8166684444445,237.29775406233966L563.32619776,168.13577735051513L568.27547648,165.44172382168472L572.1715188622222,163.46608389541507L587.2150892088889,155.87782522011548"></path></g><g><path class="rail" style="fill:none;stroke:#ccc;stroke-linejoin:round;stroke-linecap:round;" d="M621.4965339022222,231.55049682967365L628.9344329955555,231.19129309151322"></path><path class="rail" style="fill:none;stroke:#ccc;stroke-linejoin:round;stroke-linecap:round;" d="M621.4965339022222,225.11476032529026L628.1048928711111,224.69568890240043"></path><path class="path" style="fill:none;stroke:#ccc;stroke-linejoin:round;stroke-linecap:round;" d="M675.8826757688889,354.9957285122946L677.7002075022223,374.9311457714066"></path><path class="path" style="fill:none;stroke:#ccc;stroke-linejoin:round;stroke-linecap:round;" d="M793.4723185777779,350.65542724821717L802.2803569777778,360.20408639032394L828.4528139377778,354.1127019254491L834.6137804800001,351.97248447407037"></path><path class="path" style="fill:none;stroke:#ccc;stroke-linejoin:round;stroke-linecap:round;" d="M735.3858685155556,374.9311457714066L793.4723185777779,350.65542724821717L818.1441467733334,340.3434590343386L877.4982087111111,317.81871375627816"></path><path class="path" style="fill:none;stroke:#ccc;stroke-linejoin:round;stroke-linecap:round;" d="M685.8371572622223,173.70348459668458L664.0174557866667,118.72966002952307"></path><path class="minor_road" style="fill:none;stroke:#ccc;stroke-linejoin:round;stroke-linecap:round;" d="M685.8371572622223,173.70348459668458L727.9106867200001,158.18274097982794"></path><path class="minor_road" style="fill:none;stroke:#ccc;stroke-linejoin:round;stroke-linecap:round;" d="M621.4965339022222,240.09654685016721L627.3592388266667,236.4446458723396"></path><path class="minor_road" style="fill:none;stroke:#ccc;stroke-linejoin:round;stroke-linecap:round;" d="M621.4965339022222,272.64926635380834L652.9724552533334,340.56795778125525L653.5969405155556,343.7259060544893L653.0470206577778,346.120557801798L651.4811471644445,348.06621172931045L648.0884212622223,348.7995734484866L644.7143367111112,348.08117829449475L642.1045475555557,345.34229607880116L621.4965339022222,307.13252953533083"></path><path class="minor_road" style="fill:none;stroke:#ccc;stroke-linejoin:round;stroke-linecap:round;" d="M697.4973223822223,195.58512876089662L685.8371572622223,173.70348459668458"></path><path class="minor_road" style="fill:none;stroke:#ccc;stroke-linejoin:round;stroke-linecap:round;" d="M621.4965339022222,121.18425896856934L626.5856227555555,118.72966002952307"></path><path class="minor_road" style="fill:none;stroke:#ccc;stroke-linejoin:round;stroke-linecap:round;" d="M674.0837853866667,335.4942842675373L627.3592388266667,236.4446458723396L621.4965339022222,224.02218119986355"></path><path class="minor_road" style="fill:none;stroke:#ccc;stroke-linejoin:round;stroke-linecap:round;" d="M701.3094786844445,205.7476468961686L697.4973223822223,195.58512876089662L621.4965339022222,205.6578456228599"></path><path class="minor_road" style="fill:none;stroke:#ccc;stroke-linejoin:round;stroke-linecap:round;" d="M793.3325084444444,220.3403379302472L709.5023524977778,227.71898931637406"></path><path class="minor_road" style="fill:none;stroke:#ccc;stroke-linejoin:round;stroke-linecap:round;" d="M813.0084545422222,186.91928765177727L785.3912928711111,118.72966002952307"></path><path class="minor_road" style="fill:none;stroke:#ccc;stroke-linejoin:round;stroke-linecap:round;" d="M674.0837853866667,335.4942842675373L675.8826757688889,354.9957285122946"></path><path class="minor_road" style="fill:none;stroke:#ccc;stroke-linejoin:round;stroke-linecap:round;" d="M877.4982087111111,277.91755394637585L741.3417801955557,329.9416756015271L674.0837853866667,335.4942842675373"></path><path class="minor_road" style="fill:none;stroke:#ccc;stroke-linejoin:round;stroke-linecap:round;" d="M741.3417801955557,329.9416756015271L709.5023524977778,227.71898931637406L707.2560696888889,221.7023208346218"></path><path class="major_road" style="fill:none;stroke:#ccc;stroke-linejoin:round;stroke-linecap:round;" d="M621.4965339022222,138.29159171879292L662.1533206755556,118.72966002952307"></path><path class="rail" style="fill:none;stroke:#ccc;stroke-linejoin:round;stroke-linecap:round;" d="M877.4982087111111,191.1249908450991L781.0478580622223,202.99374067690223L702.8194281244445,213.14128092117608L628.1048928711111,224.69568890240043"></path><path class="rail" style="fill:none;stroke:#ccc;stroke-linejoin:round;stroke-linecap:round;" d="M628.9344329955555,231.19129309151322L729.33675008,216.53875783551484L796.7625170488889,206.30142138153315L850.0581398755556,198.6832765424624L877.4982087111111,195.34565834328532"></path><path class="minor_road" style="fill:none;stroke:#ccc;stroke-linejoin:round;stroke-linecap:round;" d="M707.2560696888889,221.7023208346218L701.3094786844445,205.7476468961686"></path></g><g><path class="rail" style="fill:none;stroke:#ccc;stroke-linejoin:round;stroke-linecap:round;" d="M-116.08580551111106,374.9311457714066L-107.06339157333332,460.4492345759645L-106.29909617777776,530.4313886230811L-126.79526172444446,630.7189346440136"></path><path class="rail" style="fill:none;stroke:#ccc;stroke-linejoin:round;stroke-linecap:round;" d="M-36.61772572444454,604.7080696038902L1.391989191111179,580.3433719389141L41.66662826666675,546.1608116580173L82.19292558222219,496.1887134173885L109.5025049599999,462.9336432609707"></path><path class="rail" style="fill:none;stroke:#ccc;stroke-linejoin:round;stroke-linecap:round;" d="M-38.500502186666836,600.3978591505438L-0.6305974044445293,576.9011779082939L39.79317248000007,541.8505642330274L80.31014911999989,491.89340068772435L109.5025049599999,456.3484616354108"></path><path class="path" style="fill:none;stroke:#ccc;stroke-linejoin:round;stroke-linecap:round;" d="M33.986391608888994,405.95664555672556L54.38935040000001,394.82160541787744"></path><path class="path" style="fill:none;stroke:#ccc;stroke-linejoin:round;stroke-linecap:round;" d="M54.38935040000001,394.82160541787744L93.57347043555546,374.9311457714066"></path><path class="path" style="fill:none;stroke:#ccc;stroke-linejoin:round;stroke-linecap:round;" d="M54.38935040000001,394.82160541787744L75.69641472000012,438.0895157177001"></path><path class="path" style="fill:none;stroke:#ccc;stroke-linejoin:round;stroke-linecap:round;" d="M-117.33477603555548,501.2772337142378L-144.56046933333334,566.8888732381165"></path><path class="path" style="fill:none;stroke:#ccc;stroke-linejoin:round;stroke-linecap:round;" d="M43.856987022222256,374.9311457714066L54.38935040000001,394.82160541787744"></path><path class="path" style="fill:none;stroke:#ccc;stroke-linejoin:round;stroke-linecap:round;" d="M-10.43594808888895,453.7742525478825L2.8832972799998515,438.553473145701L19.557985848888848,417.19643243122846L23.22101134222214,413.9038203526288L33.986391608888994,405.95664555672556"></path><path class="path" style="fill:none;stroke:#ccc;stroke-linejoin:round;stroke-linecap:round;" d="M-47.96098787555559,397.97952859383076L-9.792821475555456,374.9311457714066"></path><path class="path" style="fill:none;stroke:#ccc;stroke-linejoin:round;stroke-linecap:round;" d="M-7.779555555555476,458.9526024032384L-24.407640746666743,459.10226563643664L-51.52148593777781,474.05360599420965L-82.14922581333337,487.5681527303532L-96.77336576000005,499.3016909882426L-110.12057315555546,502.8786201979965L-117.33477603555548,501.2772337142378L-130.46760789333337,499.8105429606512L-146.49916984888876,482.43472340423614"></path><path class="minor_road" style="fill:none;stroke:#ccc;stroke-linejoin:round;stroke-linecap:round;" d="M-88.63641599999994,562.7282998599112L-74.86977820444451,539.2763873869553L-82.14922581333337,487.5681527303532"></path><path class="minor_road" style="fill:none;stroke:#ccc;stroke-linejoin:round;stroke-linecap:round;" d="M-140.59918222222223,413.2003984712064L-142.29554517333338,374.9311457714066"></path><path class="minor_road" style="fill:none;stroke:#ccc;stroke-linejoin:round;stroke-linecap:round;" d="M-36.850742613333296,576.6916529992595L-66.15494655999987,601.8196302624419L-134.93221148444457,630.7189346440136"></path><path class="minor_road" style="fill:none;stroke:#ccc;stroke-linejoin:round;stroke-linecap:round;" d="M-144.56046933333334,566.8888732381165L-146.49916984888876,570.4208687897772"></path><path class="minor_road" style="fill:none;stroke:#ccc;stroke-linejoin:round;stroke-linecap:round;" d="M-11.750163342222208,594.4563493076712L-36.850742613333296,576.6916529992595L-49.862405688888884,570.7501225201413L-88.63641599999994,562.7282998599112L-144.56046933333334,566.8888732381165L-146.49916984888876,566.4099584445357"></path><path class="minor_road" style="fill:none;stroke:#ccc;stroke-linejoin:round;stroke-linecap:round;" d="M-146.49916984888876,413.78408897295594L-140.59918222222223,413.2003984712064L-126.10553173333324,411.7935545006767"></path><path class="major_road" style="fill:none;stroke:#ccc;stroke-linejoin:round;stroke-linecap:round;" d="M9.17475327999989,565.3024678602815L22.009323520000066,576.916143973358L33.958429582222266,587.736600201577L58.32267548444452,606.7584118172526L82.61235598222231,629.5216587977484L83.93589191111107,630.7189346440136"></path><path class="major_road" style="fill:none;stroke:#ccc;stroke-linejoin:round;stroke-linecap:round;" d="M109.5025049599999,418.12435009516776L75.69641472000012,438.0895157177001L27.07045034666669,466.2711306139827"></path><path class="major_road" style="fill:none;stroke:#ccc;stroke-linejoin:round;stroke-linecap:round;" d="M12.875061475555412,496.772396819666L2.9858247111111496,478.8428172012791L-7.779555555555476,458.9526024032384"></path><path class="major_road" style="fill:none;stroke:#ccc;stroke-linejoin:round;stroke-linecap:round;" d="M-32.71236266666665,630.7189346440136L-29.589936355555437,624.0141871999949L-22.15203726222228,609.5720191076398L-11.750163342222208,594.4563493076712"></path><path class="major_road" style="fill:none;stroke:#ccc;stroke-linejoin:round;stroke-linecap:round;" d="M27.07045034666669,466.2711306139827L18.551352888888914,473.0658307624981L15.345040497777745,478.5135590378195L14.673951857777638,481.14762389753014L13.788487680000003,488.4810945689678L12.875061475555412,496.772396819666"></path><path class="major_road" style="fill:none;stroke:#ccc;stroke-linejoin:round;stroke-linecap:round;" d="M9.17475327999989,565.3024678602815L15.745829546666641,553.3295852029696L18.970783288888924,542.5390067100525L19.921492195555516,531.6286818524823L18.290373973333203,516.4080760600045L15.177268337777832,503.0881473729387L12.875061475555412,496.772396819666"></path><path class="major_road" style="fill:none;stroke:#ccc;stroke-linejoin:round;stroke-linecap:round;" d="M-7.779555555555476,458.9526024032384L-9.653011342222158,455.4205491691828L-10.43594808888895,453.7742525478825L-26.55139612444441,428.6756630418822L-38.65895367111102,412.5269093737006L-47.96098787555559,397.97952859383076L-50.188629333333324,394.8964377399534"></path><path class="major_road" style="fill:none;stroke:#ccc;stroke-linejoin:round;stroke-linecap:round;" d="M27.07045034666669,466.2711306139827L19.203800177777794,465.9269055360928L12.194652159999919,465.552747823298L7.543635057777919,464.4452408757061L-7.779555555555476,458.9526024032384"></path><path class="major_road" style="fill:none;stroke:#ccc;stroke-linejoin:round;stroke-linecap:round;" d="M108.06712092444445,374.9311457714066L109.5025049599999,378.2537096552551"></path><path class="major_road" style="fill:none;stroke:#ccc;stroke-linejoin:round;stroke-linecap:round;" d="M-50.188629333333324,394.8964377399534L-63.96458780444448,384.22534067649394L-69.73408597333332,380.5884833065793L-80.34101475555553,376.11349977273494L-83.10925539555558,374.9311457714066"></path><path class="major_road" style="fill:none;stroke:#ccc;stroke-linejoin:round;stroke-linecap:round;" d="M-50.188629333333324,394.8964377399534L-53.991464960000144,378.58297265600413L-54.765081031111094,374.9311457714066"></path><path class="major_road" style="fill:none;stroke:#ccc;stroke-linejoin:round;stroke-linecap:round;" d="M-11.750163342222208,594.4563493076712L1.5224786488887503,576.3923316905275L9.17475327999989,565.3024678602815"></path><path class="rail" style="fill:none;stroke:#ccc;stroke-linejoin:round;stroke-linecap:round;" d="M-87.98396871111106,630.7189346440136L-76.02554197333336,623.0264336746186L-38.500502186666836,600.3978591505438"></path><path class="rail" style="fill:none;stroke:#ccc;stroke-linejoin:round;stroke-linecap:round;" d="M-80.64859704888897,630.7189346440136L-61.48528810666676,618.6563708921894L-36.61772572444454,604.7080696038902"></path></g><g><path class="rail" style="fill:none;stroke:#ccc;stroke-linejoin:round;stroke-linecap:round;" d="M109.5025049599999,462.9336432609707L113.24941653333337,458.3689157664776L153.7663931733333,421.9108515130356L228.05217735111114,377.3257865719497L232.3490087822222,374.9311457714066"></path><path class="rail" style="fill:none;stroke:#ccc;stroke-linejoin:round;stroke-linecap:round;" d="M109.5025049599999,456.3484616354108L111.37596074666669,454.0735792340711L151.89293738666674,417.6005256269127L222.99105052444452,374.9311457714066"></path><path class="path" style="fill:none;stroke:#ccc;stroke-linejoin:round;stroke-linecap:round;" d="M224.97635441777788,374.9311457714066L231.89229567999996,386.51521284133196L236.5433127822222,393.44469059072435L243.03982364444448,399.0720798727125L250.75734300444446,403.9361759116873L258.9408961422223,413.1405327776447L310.9409450666667,407.5430879686028L335.9483175822222,468.4113122271374"></path><path class="path" style="fill:none;stroke:#ccc;stroke-linejoin:round;stroke-linecap:round;" d="M365.4948590933333,577.978734485805L267.44135224888896,630.7189346440136"></path><path class="path" style="fill:none;stroke:#ccc;stroke-linejoin:round;stroke-linecap:round;" d="M365.4948590933333,544.6492321388796L362.9596353422222,539.560744180344"></path><path class="path" style="fill:none;stroke:#ccc;stroke-linejoin:round;stroke-linecap:round;" d="M191.36599836444452,543.0328893158585L255.93963861333327,510.0175067773089"></path><path class="path" style="fill:none;stroke:#ccc;stroke-linejoin:round;stroke-linecap:round;" d="M309.64537116444444,564.2099431892857L365.4948590933333,533.6491136960685"></path><path class="path" style="fill:none;stroke:#ccc;stroke-linejoin:round;stroke-linecap:round;" d="M365.4948590933333,553.4343480151147L232.38629148444443,623.3556848615408"></path><path class="path" style="fill:none;stroke:#ccc;stroke-linejoin:round;stroke-linecap:round;" d="M291.7776361244445,381.65110438503325L288.22645873777776,374.9311457714066"></path><path class="path" style="fill:none;stroke:#ccc;stroke-linejoin:round;stroke-linecap:round;" d="M362.8198252088889,400.5836916277185L355.55901895111106,386.61997821740806"></path><path class="path" style="fill:none;stroke:#ccc;stroke-linejoin:round;stroke-linecap:round;" d="M365.4948590933333,381.2470090659335L355.55901895111106,386.61997821740806"></path><path class="path" style="fill:none;stroke:#ccc;stroke-linejoin:round;stroke-linecap:round;" d="M355.55901895111106,386.61997821740806L349.40737308444443,374.9311457714066"></path><path class="path" style="fill:none;stroke:#ccc;stroke-linejoin:round;stroke-linecap:round;" d="M354.04906951111104,630.7189346440136L365.4948590933333,629.3271014532074"></path><path class="path" style="fill:none;stroke:#ccc;stroke-linejoin:round;stroke-linecap:round;" d="M236.86021575111113,411.14999811630696L236.45010602666673,418.58830888103694L234.83762915555553,426.47560339141637L231.57539271111102,433.9737629648298L226.45834183111117,441.7113760886714"></path><path class="path" style="fill:none;stroke:#ccc;stroke-linejoin:round;stroke-linecap:round;" d="M157.62515285333336,477.7652449738234L165.5850097777777,473.439988062717L169.2107525688889,470.59639206249267L172.83649535999996,466.7201198162511L175.2039469511111,462.1104959035292L176.46223815111114,457.6056331638247L176.5740862577777,453.4749258449301L175.49288789333332,448.82039395160973L172.8551367111112,444.31552243512124"></path><path class="path" style="fill:none;stroke:#ccc;stroke-linejoin:round;stroke-linecap:round;" d="M203.65064874666677,428.46613358240575L209.08460259555557,439.22695967461914"></path><path class="path" style="fill:none;stroke:#ccc;stroke-linejoin:round;stroke-linecap:round;" d="M155.57460423111104,422.7190373111516L160.33746943999995,429.8580077281222L165.5850097777777,436.8473069667816L172.8551367111112,444.31552243512124L177.71120867555567,448.0870429780334L184.8322048,451.46943660546094L191.2168675555556,452.9660704229027L198.21669489777776,454.08854556735605L202.3364334933334,454.08854556735605"></path><path class="path" style="fill:none;stroke:#ccc;stroke-linejoin:round;stroke-linecap:round;" d="M172.8551367111112,444.31552243512124L203.65064874666677,428.46613358240575L236.86021575111113,411.14999811630696L250.75734300444446,403.9361759116873L291.7776361244445,381.65110438503325L304.33258609777783,374.9311457714066"></path><path class="minor_road" style="fill:none;stroke:#ccc;stroke-linejoin:round;stroke-linecap:round;" d="M225.1720886044444,608.5692974925041L254.10346552888882,593.498523555696L309.64537116444444,564.2099431892857L299.47651413333324,545.3526404704899"></path><path class="minor_road" style="fill:none;stroke:#ccc;stroke-linejoin:round;stroke-linecap:round;" d="M335.9483175822222,468.4113122271374L255.93963861333327,510.0175067773089L279.94037816888886,558.8221477270126L217.07242154666665,593.0944407787174"></path><path class="minor_road" style="fill:none;stroke:#ccc;stroke-linejoin:round;stroke-linecap:round;" d="M235.81630008888897,630.7189346440136L235.67648995555555,630.4046497540548L232.38629148444443,623.3556848615408L230.14932935111108,618.5216771317646"></path><path class="minor_road" style="fill:none;stroke:#ccc;stroke-linejoin:round;stroke-linecap:round;" d="M197.8625092266667,630.7189346440136L230.14932935111108,618.5216771317646"></path><path class="minor_road" style="fill:none;stroke:#ccc;stroke-linejoin:round;stroke-linecap:round;" d="M230.14932935111108,618.5216771317646L225.1720886044444,608.5692974925041L217.07242154666665,593.0944407787174L215.06847630222228,588.2903436925262L191.36599836444452,543.0328893158585L170.4504024177778,504.0160533590242L157.62515285333336,477.7652449738234L145.04224085333328,452.03815749567L122.37435790222219,407.9172488609329"></path><path class="major_road" style="fill:none;stroke:#ccc;stroke-linejoin:round;stroke-linecap:round;" d="M122.37435790222219,407.9172488609329L114.14420138666662,415.3854959849268L109.5025049599999,418.12435009516776"></path><path class="major_road" style="fill:none;stroke:#ccc;stroke-linejoin:round;stroke-linecap:round;" d="M122.37435790222219,407.9172488609329L147.31648568888875,394.5821419917047L182.19445361777787,374.9311457714066"></path><path class="major_road" style="fill:none;stroke:#ccc;stroke-linejoin:round;stroke-linecap:round;" d="M109.5025049599999,378.2537096552551L122.37435790222219,407.9172488609329"></path></g><g><path class="path" style="fill:none;stroke:#ccc;stroke-linejoin:round;stroke-linecap:round;" d="M408.12762908444444,374.9311457714066L442.97763498666666,439.49635427165776L468.19006236444443,489.2144412053749L439.3891748977777,506.81473678164184L442.77258012444446,513.9536192435771L450.40621340444443,530.0871667815372"></path><path class="path" style="fill:none;stroke:#ccc;stroke-linejoin:round;stroke-linecap:round;" d="M582.0700763022222,630.7189346440136L594.8766845155556,600.0686068506911L621.4965339022222,525.5374503703788"></path><path class="path" style="fill:none;stroke:#ccc;stroke-linejoin:round;stroke-linecap:round;" d="M442.77258012444446,513.9536192435771L368.9714710755556,551.6084815943614L365.4948590933333,544.6492321388796"></path><path class="path" style="fill:none;stroke:#ccc;stroke-linejoin:round;stroke-linecap:round;" d="M377.4253238044445,630.7189346440136L381.23748010666674,627.4114596080035L385.5436322133333,564.135112724267"></path><path class="path" style="fill:none;stroke:#ccc;stroke-linejoin:round;stroke-linecap:round;" d="M502.98414421333337,630.7189346440136L492.6568356977778,611.9815435744822L450.40621340444443,530.0871667815372"></path><path class="path" style="fill:none;stroke:#ccc;stroke-linejoin:round;stroke-linecap:round;" d="M621.4965339022222,438.3738767262548L450.40621340444443,530.0871667815372L385.5436322133333,564.135112724267L378.94459392,570.7501225201413L365.4948590933333,577.978734485805"></path><path class="path" style="fill:none;stroke:#ccc;stroke-linejoin:round;stroke-linecap:round;" d="M377.1643448888889,374.9311457714066L365.4948590933333,381.2470090659335"></path><path class="path" style="fill:none;stroke:#ccc;stroke-linejoin:round;stroke-linecap:round;" d="M549.5968426666667,389.56837453041226L576.0675612444445,374.9311457714066"></path><path class="path" style="fill:none;stroke:#ccc;stroke-linejoin:round;stroke-linecap:round;" d="M365.4948590933333,629.3271014532074L381.23748010666674,627.4114596080035L492.6568356977778,611.9815435744822L594.8766845155556,600.0686068506911L621.4965339022222,596.9706412581727"></path><path class="path" style="fill:none;stroke:#ccc;stroke-linejoin:round;stroke-linecap:round;" d="M368.9714710755556,551.6084815943614L365.4948590933333,553.4343480151147"></path><path class="path" style="fill:none;stroke:#ccc;stroke-linejoin:round;stroke-linecap:round;" d="M365.4948590933333,533.6491136960685L381.0976699733333,525.1034312136471L433.59171470222225,496.7274980992079L439.3891748977777,506.81473678164184"></path></g><g><path class="path" style="fill:none;stroke:#ccc;stroke-linejoin:round;stroke-linecap:round;" d="M679.8346422044444,398.159126075916L735.3858685155556,374.9311457714066"></path><path class="path" style="fill:none;stroke:#ccc;stroke-linejoin:round;stroke-linecap:round;" d="M621.4965339022222,525.5374503703788L659.9909239466667,417.7352233491838"></path><path class="path" style="fill:none;stroke:#ccc;stroke-linejoin:round;stroke-linecap:round;" d="M679.8346422044444,398.159126075916L659.9909239466667,417.7352233491838L621.4965339022222,438.3738767262548"></path><path class="path" style="fill:none;stroke:#ccc;stroke-linejoin:round;stroke-linecap:round;" d="M679.8346422044444,398.159126075916L688.130043448889,413.45482767093927L769.4249756444444,579.7447296213359L797.8996394666667,630.7189346440136"></path><path class="path" style="fill:none;stroke:#ccc;stroke-linejoin:round;stroke-linecap:round;" d="M769.4249756444444,579.7447296213359L877.4982087111111,518.2788504809141"></path><path class="path" style="fill:none;stroke:#ccc;stroke-linejoin:round;stroke-linecap:round;" d="M769.4249756444444,579.7447296213359L853.6465999644445,630.7189346440136"></path><path class="path" style="fill:none;stroke:#ccc;stroke-linejoin:round;stroke-linecap:round;" d="M769.4249756444444,579.7447296213359L877.4982087111111,580.1188810737804"></path><path class="path" style="fill:none;stroke:#ccc;stroke-linejoin:round;stroke-linecap:round;" d="M621.4965339022222,596.9706412581727L769.4249756444444,579.7447296213359"></path><path class="path" style="fill:none;stroke:#ccc;stroke-linejoin:round;stroke-linecap:round;" d="M677.7002075022223,374.9311457714066L679.8346422044444,398.159126075916"></path></g><g><path class="rail" style="fill:none;stroke:#ccc;stroke-linejoin:round;stroke-linecap:round;" d="M-126.79526172444446,630.7189346440136L-127.60616049777786,634.7298072017729L-146.49916984888876,668.418050441891"></path><path class="path" style="fill:none;stroke:#ccc;stroke-linejoin:round;stroke-linecap:round;" d="M-125.07093674666658,668.9717873912305L-101.94634069333335,653.4821017179638"></path><path class="path" style="fill:none;stroke:#ccc;stroke-linejoin:round;stroke-linecap:round;" d="M31.00377543111108,749.4277921346948L8.112196266666501,725.9166581686586"></path><path class="path" style="fill:none;stroke:#ccc;stroke-linejoin:round;stroke-linecap:round;" d="M-19.579530808888876,759.5445887055248L2.4172635022222266,779.0747526921332"></path><path class="path" style="fill:none;stroke:#ccc;stroke-linejoin:round;stroke-linecap:round;" d="M31.432526506666704,829.8828485505655L44.07136256000001,831.7535370569676L67.30780672000014,859.0355999590829"></path><path class="path" style="fill:none;stroke:#ccc;stroke-linejoin:round;stroke-linecap:round;" d="M-111.40682638222233,639.2345530427992L-136.96411875555555,655.7718835566193L-146.49916984888876,642.122976552695"></path><path class="path" style="fill:none;stroke:#ccc;stroke-linejoin:round;stroke-linecap:round;" d="M-6.567867733333401,791.2567577119917L-75.07483306666666,712.8216248229146"></path><path class="path" style="fill:none;stroke:#ccc;stroke-linejoin:round;stroke-linecap:round;" d="M-70.87120839111117,700.7292745737359L-125.07093674666658,668.9717873912305"></path><path class="path" style="fill:none;stroke:#ccc;stroke-linejoin:round;stroke-linecap:round;" d="M-11.405298346666655,886.9311346290633L-55.50141439999993,842.1994522474706"></path><path class="minor_road" style="fill:none;stroke:#ccc;stroke-linejoin:round;stroke-linecap:round;" d="M-9.96991431111121,681.6478614937514L19.874888817777787,714.5277220169082"></path><path class="minor_road" style="fill:none;stroke:#ccc;stroke-linejoin:round;stroke-linecap:round;" d="M64.40907662222219,715.5304280659184L45.17120227555563,693.7851429674774"></path><path class="minor_road" style="fill:none;stroke:#ccc;stroke-linejoin:round;stroke-linecap:round;" d="M45.17120227555563,693.7851429674774L38.087488853333184,693.7851429674774L29.997142471111033,692.2735961442813L24.423378488888943,687.2001840565354L4.197512533333452,666.4575219629332L-9.96991431111121,681.6478614937514L-29.198467982222155,698.8435843605548L-13.51177102222232,717.5508054746315L-32.74032469333338,736.2729410342872L-18.572897848888942,750.9542919872329L8.112196266666501,725.9166581686586L19.874888817777787,714.5277220169082L45.17120227555563,693.7851429674774"></path><path class="minor_road" style="fill:none;stroke:#ccc;stroke-linejoin:round;stroke-linecap:round;" d="M31.432526506666704,829.8828485505655L1.0284828444443974,781.8882889486849"></path><path class="minor_road" style="fill:none;stroke:#ccc;stroke-linejoin:round;stroke-linecap:round;" d="M109.5025049599999,669.2112411912531L64.40907662222219,715.5304280659184L31.00377543111108,749.4277921346948L2.4172635022222266,779.0747526921332L1.0284828444443974,781.8882889486849L-6.567867733333401,791.2567577119917L-55.50141439999993,842.1994522474706L-88.8414708622222,876.9192847125232"></path><path class="minor_road" style="fill:none;stroke:#ccc;stroke-linejoin:round;stroke-linecap:round;" d="M-134.93221148444457,630.7189346440136L-146.49916984888876,635.5828656125814"></path><path class="minor_road" style="fill:none;stroke:#ccc;stroke-linejoin:round;stroke-linecap:round;" d="M38.69333276444445,886.9311346290633L67.30780672000014,859.0355999590829L89.77063480888899,837.1411170857027L95.9222806755555,834.9561545876786L102.35354680888895,838.9818726247177L109.5025049599999,845.0877898707986"></path><path class="major_road" style="fill:none;stroke:#ccc;stroke-linejoin:round;stroke-linecap:round;" d="M83.93589191111107,630.7189346440136L109.5025049599999,654.0059080915526"></path><path class="major_road" style="fill:none;stroke:#ccc;stroke-linejoin:round;stroke-linecap:round;" d="M-130.74722816000008,781.6338734850287L-115.10713457777763,803.4237754242495L-95.90654293333341,856.5064390832558L-88.8414708622222,876.9192847125232"></path><path class="major_road" style="fill:none;stroke:#ccc;stroke-linejoin:round;stroke-linecap:round;" d="M-88.8414708622222,876.9192847125232L-84.11588835555551,886.9311346290633"></path><path class="major_road" style="fill:none;stroke:#ccc;stroke-linejoin:round;stroke-linecap:round;" d="M-146.49916984888876,796.5545762078837L-130.74722816000008,781.6338734850287L-116.93398698666681,766.8328633317724L-88.71098140444451,732.7859284700826L-80.94685866666669,722.0255651688203L-75.07483306666666,712.8216248229146L-70.87120839111117,700.7292745737359L-44.26067967999995,655.5473951725289L-32.71236266666665,630.7189346440136"></path><path class="rail" style="fill:none;stroke:#ccc;stroke-linejoin:round;stroke-linecap:round;" d="M-146.49916984888876,670.4983052369207L-145.68827107555558,669.8547732438892L-126.68341361777789,655.6222246326506L-87.98396871111106,630.7189346440136"></path><path class="rail" style="fill:none;stroke:#ccc;stroke-linejoin:round;stroke-linecap:round;" d="M-146.49916984888876,676.7989291958511L-130.70994545777785,664.6765833897516L-97.79864007111121,641.5243396572769L-80.64859704888897,630.7189346440136"></path><path class="path" style="fill:none;stroke:#ccc;stroke-linejoin:round;stroke-linecap:round;" d="M-101.94634069333335,653.4821017179638L-111.40682638222233,639.2345530427992"></path></g><g><path class="path" style="fill:none;stroke:#ccc;stroke-linejoin:round;stroke-linecap:round;" d="M305.29261568000004,886.9311346290633L219.8313415111112,818.3593960525468L197.42443747555558,797.3327864864841"></path><path class="path" style="fill:none;stroke:#ccc;stroke-linejoin:round;stroke-linecap:round;" d="M267.44135224888896,630.7189346440136L242.1357181155555,644.3379326155409"></path><path class="path" style="fill:none;stroke:#ccc;stroke-linejoin:round;stroke-linecap:round;" d="M197.42443747555558,797.3327864864841L284.9828636444445,715.874640555121L337.19728810666663,665.6044674087316L365.4948590933333,641.0753619484603"></path><path class="path" style="fill:none;stroke:#ccc;stroke-linejoin:round;stroke-linecap:round;" d="M365.4948590933333,819.8709149574861L363.82645816888885,819.7511906977743L339.8350392888889,814.1391137754545L309.4216749511111,807.7338576773182L280.63010815999996,804.5461929384619L197.42443747555558,797.3327864864841"></path><path class="path" style="fill:none;stroke:#ccc;stroke-linejoin:round;stroke-linecap:round;" d="M365.4948590933333,671.89013002906L337.18796743111113,665.6044674087316L241.6976463644445,643.5597048895434"></path><path class="path" style="fill:none;stroke:#ccc;stroke-linejoin:round;stroke-linecap:round;" d="M242.1357181155555,644.3379326155409L354.04906951111104,630.7189346440136"></path><path class="path" style="fill:none;stroke:#ccc;stroke-linejoin:round;stroke-linecap:round;" d="M192.32602794666673,799.9966594707221L197.42443747555558,797.3327864864841"></path><path class="path" style="fill:none;stroke:#ccc;stroke-linejoin:round;stroke-linecap:round;" d="M242.1357181155555,644.3379326155409L233.38360376888886,655.3229067847133L227.5675022222223,666.3228291440755L197.42443747555558,797.3327864864841"></path><path class="minor_road" style="fill:none;stroke:#ccc;stroke-linejoin:round;stroke-linecap:round;" d="M265.1018626844444,681.9322123527527L241.6976463644445,643.5597048895434L242.1357181155555,644.3379326155409"></path><path class="minor_road" style="fill:none;stroke:#ccc;stroke-linejoin:round;stroke-linecap:round;" d="M265.1018626844444,681.9322123527527L279.75396465777783,706.6108287908137L284.9828636444445,715.874640555121L295.6177544533333,734.7614036193117L319.0965361777778,758.9459621077403L349.17435619555556,784.552167955786L365.4948590933333,796.0008496083319"></path><path class="minor_road" style="fill:none;stroke:#ccc;stroke-linejoin:round;stroke-linecap:round;" d="M244.32607687111113,855.5037537468597L222.75803363555565,885.0155650777742L221.0616706844445,886.9311346290633"></path><path class="minor_road" style="fill:none;stroke:#ccc;stroke-linejoin:round;stroke-linecap:round;" d="M117.3505137777779,661.1596024902537L197.8625092266667,630.7189346440136"></path><path class="minor_road" style="fill:none;stroke:#ccc;stroke-linejoin:round;stroke-linecap:round;" d="M109.5025049599999,845.0877898707986L124.93754367999998,858.2573967101052"></path><path class="minor_road" style="fill:none;stroke:#ccc;stroke-linejoin:round;stroke-linecap:round;" d="M117.3505137777779,661.1596024902537L109.5025049599999,669.2112411912531"></path><path class="minor_road" style="fill:none;stroke:#ccc;stroke-linejoin:round;stroke-linecap:round;" d="M242.1357181155555,644.3379326155409L241.0358784,641.9433854930103L235.81630008888897,630.7189346440136"></path><path class="minor_road" style="fill:none;stroke:#ccc;stroke-linejoin:round;stroke-linecap:round;" d="M128.0972526933333,886.9311346290633L129.62584348444454,878.4457560507581L129.15980970666658,869.5114042432979L124.93754367999998,858.2573967101052L146.16072192000001,842.2443486945704L164.42924600888887,828.7155386656523L178.77376568888894,816.8628423493356L194.18084238222218,803.5584655366838"></path><path class="major_road" style="fill:none;stroke:#ccc;stroke-linejoin:round;stroke-linecap:round;" d="M109.5025049599999,654.0059080915526L117.3505137777779,661.1596024902537"></path><path class="major_road" style="fill:none;stroke:#ccc;stroke-linejoin:round;stroke-linecap:round;" d="M282.80182556444447,886.9311346290633L270.14434816000005,876.3805300369859L244.32607687111113,855.5037537468597L223.96972145777772,837.9791847094893L205.9994589866668,820.2450532475486L194.18084238222218,803.5584655366838L192.32602794666673,799.9966594707221L179.12795136,774.8394804960117L167.29069340444448,748.0958459060639L157.0193089422222,724.8690564213321L142.50701710222222,692.408288446255L134.25821923555566,678.3553769756109L129.13184767999996,671.5010177493095L117.3505137777779,661.1596024902537"></path></g><g><path class="path" style="fill:none;stroke:#ccc;stroke-linejoin:round;stroke-linecap:round;" d="M547.9657244444445,712.3427202682942L573.7839957333333,767.611077003181L606.4809255822222,825.2435388453305"></path><path class="path" style="fill:none;stroke:#ccc;stroke-linejoin:round;stroke-linecap:round;" d="M621.4965339022222,824.1360902572051L606.4809255822222,825.2435388453305"></path><path class="path" style="fill:none;stroke:#ccc;stroke-linejoin:round;stroke-linecap:round;" d="M621.4965339022222,727.4281975412741L547.9657244444445,712.3427202682942L365.4948590933333,671.89013002906"></path><path class="path" style="fill:none;stroke:#ccc;stroke-linejoin:round;stroke-linecap:round;" d="M606.4809255822222,825.2435388453305L621.4965339022222,819.4518800443038"></path><path class="path" style="fill:none;stroke:#ccc;stroke-linejoin:round;stroke-linecap:round;" d="M365.4948590933333,641.0753619484603L377.4253238044445,630.7189346440136"></path><path class="path" style="fill:none;stroke:#ccc;stroke-linejoin:round;stroke-linecap:round;" d="M547.9657244444445,712.3427202682942L502.98414421333337,630.7189346440136"></path><path class="path" style="fill:none;stroke:#ccc;stroke-linejoin:round;stroke-linecap:round;" d="M547.9657244444445,712.3427202682942L543.3147073422222,827.1441596522927L541.0404625066667,862.7769604763016L539.7169265777777,879.7926422450691L538.4027113244445,886.9311346290633"></path><path class="path" style="fill:none;stroke:#ccc;stroke-linejoin:round;stroke-linecap:round;" d="M547.9657244444445,712.3427202682942L582.0700763022222,630.7189346440136"></path><path class="path" style="fill:none;stroke:#ccc;stroke-linejoin:round;stroke-linecap:round;" d="M606.4809255822222,825.2435388453305L592.85409792,828.8352627623826L583.2444814222222,834.3575346013531L567.8280840533334,843.0524847265333L555.3943028622223,850.0862572761253L541.0404625066667,862.7769604763016"></path><path class="path" style="fill:none;stroke:#ccc;stroke-linejoin:round;stroke-linecap:round;" d="M606.4809255822222,825.2435388453305L543.3147073422222,827.1441596522927L459.1396864,820.3348464323208"></path><path class="path" style="fill:none;stroke:#ccc;stroke-linejoin:round;stroke-linecap:round;" d="M459.1396864,820.3348464323208L403.8867217066666,822.7891930798069L365.4948590933333,819.8709149574861"></path><path class="path" style="fill:none;stroke:#ccc;stroke-linejoin:round;stroke-linecap:round;" d="M547.9657244444445,712.3427202682942L459.1396864,820.3348464323208L439.0722719288889,847.9761262731627L407.68023665777775,886.9311346290633"></path><path class="path" style="fill:none;stroke:#ccc;stroke-linejoin:round;stroke-linecap:round;" d="M543.8366651733334,886.9311346290633L539.7169265777777,879.7926422450691"></path><path class="minor_road" style="fill:none;stroke:#ccc;stroke-linejoin:round;stroke-linecap:round;" d="M365.4948590933333,796.0008496083319L375.6916781511111,803.1543951919302L403.8867217066666,822.7891930798069L439.0722719288889,847.9761262731627L494.12950243555565,886.9311346290633"></path></g><g><path class="path" style="fill:none;stroke:#ccc;stroke-linejoin:round;stroke-linecap:round;" d="M762.4437896533334,886.9311346290633L760.7847094044445,885.5243882928044L757.3174180977778,881.7980056386441L745.3217086577778,868.8529255902395L733.2048304355556,856.1173373283818L725.7110072888889,849.4277767492458L716.3437283555556,844.5340672088787L699.9020566755556,837.2009790660813L675.2022664533333,832.9208464231342L652.6928349866666,826.1265044845641L636.9968173511111,822.9987104358152L621.4965339022222,824.1360902572051"></path><path class="path" style="fill:none;stroke:#ccc;stroke-linejoin:round;stroke-linecap:round;" d="M877.4982087111111,783.3848503194749L852.8357011911112,776.8897716021165"></path><path class="path" style="fill:none;stroke:#ccc;stroke-linejoin:round;stroke-linecap:round;" d="M797.8996394666667,630.7189346440136L800.1925256533334,634.8196028266102L819.3931172977778,671.6207446083426L827.3902569244444,696.4191247541457L852.8357011911112,776.8897716021165L873.3318667377778,806.3869572672993L877.4982087111111,813.2411810401827"></path><path class="path" style="fill:none;stroke:#ccc;stroke-linejoin:round;stroke-linecap:round;" d="M621.4965339022222,819.4518800443038L694.3282926933334,791.4064136575907L761.8286250666667,756.2072447473183L821.4343452444444,876.5451495284215L822.0215478044445,878.311067420058L821.4995899733334,880.1518118521199L819.8498304000001,883.8033684436232L817.6221889422222,886.9311346290633"></path><path class="path" style="fill:none;stroke:#ccc;stroke-linejoin:round;stroke-linecap:round;" d="M663.3090844444445,886.9311346290633L662.4981856711112,883.3244758890942L662.5727510755555,876.9192847125232L663.1226709333334,873.3425515117124L665.2571056355556,870.7086379919201L701.5797782755556,863.7646793108433L720.7151251911112,860.0981465512887L724.4620367644445,860.7865569340065L727.5005769955555,862.6422715336084L731.163602488889,865.45577334892L739.1607421155556,871.4419435653836L749.8515569777778,880.4960160404444L760.7847094044445,885.5243882928044"></path><path class="path" style="fill:none;stroke:#ccc;stroke-linejoin:round;stroke-linecap:round;" d="M714.2745383822222,886.9311346290633L714.1626902755556,886.1978307254612L713.5941290666667,885.6590767866L713.1746986666667,885.5094229048118L712.6061374577778,885.6291460106149L711.80455936,885.8685922110453"></path><path class="path" style="fill:none;stroke:#ccc;stroke-linejoin:round;stroke-linecap:round;" d="M852.8357011911112,776.8897716021165L761.8286250666667,756.2072447473183L621.4965339022222,727.4281975412741"></path><path class="path" style="fill:none;stroke:#ccc;stroke-linejoin:round;stroke-linecap:round;" d="M853.6465999644445,630.7189346440136L875.4010567111111,643.9039210099727L877.4982087111111,644.9665010981262"></path><path class="path" style="fill:none;stroke:#ccc;stroke-linejoin:round;stroke-linecap:round;" d="M711.80455936,885.8685922110453L709.2320529066667,886.422311520204"></path><path class="path" style="fill:none;stroke:#ccc;stroke-linejoin:round;stroke-linecap:round;" d="M707.0789768533334,873.5969635564834L712.2333104355556,872.6092461431399L714.0788041955556,872.2201453056186L715.5794329600001,871.8609752813354L716.5674245688889,871.2174622770399L717.4994921244445,870.3793987315148L718.3663149511111,869.2420266186818L719.0094415644445,868.0298271868378L719.35430656,866.9822472538799L719.6618888533334,865.6802548253909L720.0440365511112,867.8951383456588L720.3329774933334,868.8978218622506L720.7524078933334,869.8855398129672L721.4421378844445,870.783465096727L722.4860535466667,871.8609752813354L724.2010578488889,873.4772402402014L726.5125853866667,875.0336431730539L729.9612353422223,876.9791463389993L733.5124127288889,878.8348565334454L736.3925014755556,880.4211890418082L738.3312019911111,881.4388361191377L738.1913918577778,881.8578672260046L738.3312019911111,882.3367598829791L738.9556872533334,882.6510331733152L739.8504721066668,882.5313100162894L740.2046577777778,882.2170367231593L740.6986535822223,881.7980056386441L741.2672147911112,881.7531094513834L741.6773245155556,881.827936431393L742.0967549155556,882.0374519741163L742.5348266666667,882.4714484382421L742.7305608533334,883.070064201951L742.6187127466667,884.0877108843997L742.6559954488889,886.9311346290633"></path><path class="path" style="fill:none;stroke:#ccc;stroke-linejoin:round;stroke-linecap:round;" d="M713.1746986666667,885.5094229048118L713.6873358222223,884.8808765718713L713.65005312,884.2373647959903L713.5102429866668,883.6237837420776L713.3331501511111,882.8904794780537L712.3078758400001,878.4607214545831L712.2053484088889,878.0267247380689L711.7393146311111,877.8621052848175L711.1427913955556,877.9070014990866L710.4903441066667,878.056655545719L709.8938208711112,878.2661712048575L708.3186267022222,878.7450641170144L707.0976182044444,879.1042337799445L705.4198966044445,879.6729190377519L705.0284282311111,879.6729190377519L704.7208459377778,879.2389223976061"></path><path class="path" style="fill:none;stroke:#ccc;stroke-linejoin:round;stroke-linecap:round;" d="M704.1616054044445,876.7845960473642L704.7208459377778,879.2389223976061"></path><path class="path" style="fill:none;stroke:#ccc;stroke-linejoin:round;stroke-linecap:round;" d="M708.3186267022222,878.7450641170144L707.0789768533334,873.5969635564834L706.5104156444445,871.3671164670959L705.3826139022223,868.1046543158591L704.6556012088889,867.5808643763885L703.900626488889,867.5808643763885L703.0151623111111,867.6257606577128L702.0830947555555,867.8652074895799L699.9300187022222,868.4039628375322L680.244751928889,873.1031048679724"></path></g><path class="waypath" style="fill:none;stroke:orange; stroke-width:5;stroke-linejoin:round; stroke-linecap:round}" d="M131.01462414222226,411.97315162047744L238.09054492444443,628.4141784543172L440.63814542222224,529.6232155775651L657.0362697955557,416.1038840543479L668.9853758577779,337.215442372486L616.5192931555556,236.22014370094985L592.7888531911111,184.25517538841814L587.4760681244445,172.7905006557703L586.4880765155556,171.59314448013902L585.0713338311111,171.75778096728027L447.18125966222226,244.227383303456L436.3413139911111,250.09436411596835L321.48262912000007,311.8320579882711L311.43494087111117,317.1152819748968L271.1975844977778,338.26310361456126L131.01462414222226,411.97315162047744"></path><path class="center" style="fill:none; stroke:red; stroke-width:1;stroke-linejoin:round; stroke-linecap:round}" d="M400.00000000000006,400m0,4.5a4.5,4.5 0 1,1 0,-9a4.5,4.5 0 1,1 0,9z"></path></svg>
