<svg xmlns="http://www.w3.org/2000/svg" version="1.1" width="800" height="800"><g></g><g><path class="minor_road" style="fill:none;stroke:#ccc;stroke-linejoin:round;stroke-linecap:round;" d="M195.63113949872786,165.97600032389164L262.3075241529732,111.50710028409958"></path></g><g><path class="minor_road" style="fill:none;stroke:#ccc;stroke-linejoin:round;stroke-linecap:round;" d="M262.3075241529732,111.50710028409958L354.05279778136173,36.54633176326752L479.5314603805309,-95.25901137292385"></path></g><g></g><g></g><g><path class="minor_road" style="fill:none;stroke:#ccc;stroke-linejoin:round;stroke-linecap:round;" d="M-243.67839732614812,420.5157680809498L6.249925290758256,296.1013724654913"></path></g><g><path class="minor_road" style="fill:none;stroke:#ccc;stroke-linejoin:round;stroke-linecap:round;" d="M6.249925290758256,296.1013724654913L83.30581424356205,257.73323997855186L195.63113949872786,165.97600032389164"></path></g><g></g><g></g><g></g><g><path class="minor_road" style="fill:none;stroke:#ccc;stroke-linejoin:round;stroke-linecap:round;" d="M-249.74802124797134,425.9386488199234L-113.35298343817703,521.9187944233418L-6.7244550826144405,578.3070905655622L6.249925290758256,579.9627464711666"></path><path class="minor_road" style="fill:none;stroke:#ccc;stroke-linejoin:round;stroke-linecap:round;" d="M-249.74802124797134,423.5391440987587L-243.67839732614812,420.5157680809498"></path></g><g><path class="minor_road" style="fill:none;stroke:#ccc;stroke-linejoin:round;stroke-linecap:round;" d="M6.249925290758256,579.9627464711666L262.3075241529732,612.1880442500114"></path></g><g><path class="minor_road" style="fill:none;stroke:#ccc;stroke-linejoin:round;stroke-linecap:round;" d="M262.3075241529732,612.1880442500114L518.3054706916446,644.437327504158"></path></g><g><path class="minor_road" style="fill:none;stroke:#ccc;stroke-linejoin:round;stroke-linecap:round;" d="M518.3054706916446,644.437327504158L761.4483415040886,675.0309468209743"></path></g><g></g><g></g><g></g><g></g><g><path class="minor_road" style="fill:none;stroke:#ccc;stroke-linejoin:round;stroke-linecap:round;" d="M761.4483415040886,675.0309468209743L774.3034172301996,676.66260625422"></path></g><g><path class="minor_road" style="fill:none;stroke:#ccc;stroke-linejoin:round;stroke-linecap:round;" d="M774.3034172301996,676.66260625422L1030.3162768498296,708.8878754973412"></path></g><path class="waypath" style="fill:none;stroke:orange; stroke-width:5;stroke-linejoin:round; stroke-linecap:round}" d="M308.88107576896437,302.3400919139385L213.58648888894822,413.19727812707424L384.34126506670145,560.0468838065863L586.4135111112264,325.1354099661112L487.39065400895197,239.95288129150867L380.76212565333117,364.247365668416L308.88107576896437,302.3400919139385"></path><path class="center" style="fill:none; stroke:red; stroke-width:1;stroke-linejoin:round; stroke-linecap:round}" d="M400,400m0,4.5a4.5,4.5 0 1,1 0,-9a4.5,4.5 0 1,1 0,9z"></path></svg>
