<svg xmlns="http://www.w3.org/2000/svg" version="1.1" width="800" height="800"><g></g><g></g><g></g><g><path class="minor_road" style="fill:none;stroke:#ccc;stroke-linejoin:round;stroke-linecap:round;" d="M777.2711203270883,222.39909027516842L763.7002167182218,-38.84834563732147"></path></g><g></g><g></g><g></g><g><path class="minor_road" style="fill:none;stroke:#ccc;stroke-linejoin:round;stroke-linecap:round;" d="M790.4841099946643,476.93313367664814L777.2711203270883,222.39909027516842"></path></g><g></g><g></g><g></g><g><path class="minor_road" style="fill:none;stroke:#ccc;stroke-linejoin:round;stroke-linecap:round;" d="M803.6970996622113,731.4665835648775L790.4841099946643,476.93313367664814"></path></g><g></g><g><path class="minor_road" style="fill:none;stroke:#ccc;stroke-linejoin:round;stroke-linecap:round;" d="M464.02185625600396,909.138587012887L429.33403010843904,910.4571610838175L430.2437280426675,985.999439701438"></path></g><g><path class="minor_road" style="fill:none;stroke:#ccc;stroke-linejoin:round;stroke-linecap:round;" d="M720.0347158755467,899.5489571988583L464.02185625600396,909.138587012887"></path></g><g><path class="minor_road" style="fill:none;stroke:#ccc;stroke-linejoin:round;stroke-linecap:round;" d="M812.0782511217985,892.7642935961485L761.43342842313,897.9906422495842L720.0347158755467,899.5489571988583"></path><path class="minor_road" style="fill:none;stroke:#ccc;stroke-linejoin:round;stroke-linecap:round;" d="M819.0426598968916,985.999439701438L812.0782511217985,892.7642935961485L803.6970996622113,731.4665835648775"></path></g><path class="waypath" style="fill:none;stroke:orange; stroke-width:5;stroke-linejoin:round; stroke-linecap:round}" d="M117.99364039112697,311.0557360500097L122.02017223110306,527.0631085038185L682.006359608873,519.1516362577677L667.9880635733425,273.1764856725931L117.99364039112697,311.0557360500097"></path><path class="center" style="fill:none; stroke:red; stroke-width:1;stroke-linejoin:round; stroke-linecap:round}" d="M400,400m0,4.5a4.5,4.5 0 1,1 0,-9a4.5,4.5 0 1,1 0,9z"></path></svg>
