<svg xmlns="http://www.w3.org/2000/svg" version="1.1" width="800" height="800"><g><path class="path" style="fill:none;stroke:#ccc;stroke-linejoin:round;stroke-linecap:round;" d="M26.352758328896016,-17.675721168518066L-83.89964868267998,-32.32264116406441L-112.45819858490722,165.67387381196022"></path></g><g><path class="path" style="fill:none;stroke:#ccc;stroke-linejoin:round;stroke-linecap:round;" d="M282.36561794846784,-10.184731841087341L207.60634345244034,6.400747522711754L26.352758328896016,-17.675721168518066"></path></g><g><path class="path" style="fill:none;stroke:#ccc;stroke-linejoin:round;stroke-linecap:round;" d="M294.0276472035621,-12.769482135772705L282.36561794846784,-10.184731841087341"></path><path class="path" style="fill:none;stroke:#ccc;stroke-linejoin:round;stroke-linecap:round;" d="M354.4405378844531,-3.6510578244924545L345.19442773333867,73.10163271427155"></path><path class="minor_road" style="fill:none;stroke:#ccc;stroke-linejoin:round;stroke-linecap:round;" d="M506.09165744358324,19.252697348594666L354.4405378844531,-3.6510578244924545L294.0276472035621,-12.769482135772705L293.61008093866985,-95.55332143604755"></path></g><g></g><g></g><g><path class="path" style="fill:none;stroke:#ccc;stroke-linejoin:round;stroke-linecap:round;" d="M-112.45819858490722,165.67387381196022L-149.18911681423197,420.2231994718313"></path></g><g></g><g></g><g></g><g></g><g><path class="path" style="fill:none;stroke:#ccc;stroke-linejoin:round;stroke-linecap:round;" d="M-149.18911681423197,420.2231994718313L-185.90512196268537,674.7479993253946M-195.792494592024,674.7479993253946L-229.6601012906467,669.578531101346"></path></g><g></g><g></g><g></g><g></g><g><path class="path" style="fill:none;stroke:#ccc;stroke-linejoin:round;stroke-linecap:round;" d="M-185.90512196268537,674.7479993253946L-186.11390509511693,676.2318280488253L-195.792494592024,674.7479993253946"></path></g><g></g><g></g><g></g><g></g><path class="waypath" style="fill:none;stroke:orange; stroke-width:5;stroke-linejoin:round; stroke-linecap:round}" d="M249.67614464001963,58.7179863601923L345.2689931378118,73.07769986987114L655.0136831999989,122.37936855852604L626.6788295111328,302.3542031496763L437.58096384000964,272.6775221377611L427.8874612622312,334.4241558909416L483.5132529777766,343.27929043769836L467.1088639999798,447.14757162332535L407.7548020622053,437.81379003822803L363.16469020443037,741.2809474617243L144.98631680000108,711.8437128216028L216.56910506667919,258.5571630001068L174.66334776891745,251.85597495734692L190.6203443200211,149.66280667483807L234.31567132446798,156.60332936048508L249.67614464001963,58.7179863601923"></path><path class="center" style="fill:none; stroke:red; stroke-width:1;stroke-linejoin:round; stroke-linecap:round}" d="M400,400m0,4.5a4.5,4.5 0 1,1 0,-9a4.5,4.5 0 1,1 0,9z"></path></svg>
