<svg xmlns="http://www.w3.org/2000/svg" version="1.1" width="800" height="800"><g><path class="path" style="fill:none;stroke:#ccc;stroke-linejoin:round;stroke-linecap:round;" d="M-20.47431566222076,-195.80499483644962L26.613737244442746,-143.22816543281078L90.29259263999847,-110.44994302093983L99.83696440888525,-107.8779308758676"></path><path class="path" style="fill:none;stroke:#ccc;stroke-linejoin:round;stroke-linecap:round;" d="M-30.018687431111175,60.438802134245634L-24.761826417779957,31.668318197131157L12.520875804442767,29.75427244603634L63.59817784888946,15.458739057183266L99.83696440888525,-22.343711644411087"></path><path class="path" style="fill:none;stroke:#ccc;stroke-linejoin:round;stroke-linecap:round;" d="M-24.761826417779957,31.668318197131157L-53.58135523555757,25.98599449917674"></path><path class="path" style="fill:none;stroke:#ccc;stroke-linejoin:round;stroke-linecap:round;" d="M-53.58135523555757,25.98599449917674L-67.5623685688879,22.995297335088253L-139.10787413333674,10.853063516318798L-156.14606904888933,8.340876545757055"></path><path class="path" style="fill:none;stroke:#ccc;stroke-linejoin:round;stroke-linecap:round;" d="M-143.05984056889065,38.24784941598773L-139.10787413333674,10.853063516318798L-125.87251484444641,-65.7089291960001L-124.08294513777946,-74.32216680049896L-111.03399936000278,-192.57501605898142"></path><path class="path" style="fill:none;stroke:#ccc;stroke-linejoin:round;stroke-linecap:round;" d="M-101.22864867555472,60.438802134245634L-98.80527303111012,45.54514582455158L-143.05984056889065,38.24784941598773L-156.14606904888933,36.09454846382141"></path><path class="path" style="fill:none;stroke:#ccc;stroke-linejoin:round;stroke-linecap:round;" d="M-74.16140686222207,60.438802134245634L-67.5623685688879,22.995297335088253L-69.8366134044445,-12.175325777381659L-83.59393052444284,-42.620680660009384L-106.52279239111158,-59.96677228435874L-125.87251484444641,-65.7089291960001L-141.71766328889134,-65.82855747267604L-156.14606904888933,-61.70138205960393"></path><path class="path" style="fill:none;stroke:#ccc;stroke-linejoin:round;stroke-linecap:round;" d="M-156.14606904888933,-184.3206275589764L-111.03399936000278,-192.57501605898142L-99.62549248000141,-195.80499483644962"></path></g><g><path class="path" style="fill:none;stroke:#ccc;stroke-linejoin:round;stroke-linecap:round;" d="M99.83696440888525,-107.8779308758676L126.2704002844439,-100.87966651469469L163.32940629333098,-91.01032238826156"></path><path class="path" style="fill:none;stroke:#ccc;stroke-linejoin:round;stroke-linecap:round;" d="M99.83696440888525,-22.343711644411087L101.88751303110985,-24.49701737239957L126.2704002844439,-100.87966651469469"></path><path class="path" style="fill:none;stroke:#ccc;stroke-linejoin:round;stroke-linecap:round;" d="M145.4709919288871,60.438802134245634L163.32940629333098,-91.01032238826156L177.2358542222246,-142.68983663618565L197.44307882666544,-195.80499483644962"></path><path class="path" style="fill:none;stroke:#ccc;stroke-linejoin:round;stroke-linecap:round;" d="M163.32940629333098,-91.01032238826156L309.3284681955556,-115.83322501555085L355.8199978666671,-118.22579514235258"></path></g><g><path class="path" style="fill:none;stroke:#ccc;stroke-linejoin:round;stroke-linecap:round;" d="M611.8403140266637,-193.77130445837975L578.9942533688882,-191.61798537522554"></path><path class="path" style="fill:none;stroke:#ccc;stroke-linejoin:round;stroke-linecap:round;" d="M355.8199978666671,-118.22579514235258L493.76599608888864,-125.46332103386521L547.378521884446,-154.41344376280904L578.9942533688882,-191.61798537522554"></path><path class="path" style="fill:none;stroke:#ccc;stroke-linejoin:round;stroke-linecap:round;" d="M578.9942533688882,-191.61798537522554L580.8211057777808,-195.80499483644962"></path></g><g><path class="path" style="fill:none;stroke:#ccc;stroke-linejoin:round;stroke-linecap:round;" d="M867.8606301866675,-18.096914749592543L809.3267876977807,-40.168303076177835L783.2288961422237,-65.94818575307727L767.3464649955567,-109.07421556860209L739.1234594133348,-162.1893084011972L698.5225966933358,-185.45710119605064L639.8396233955536,-195.68536598980427L611.8403140266637,-193.77130445837975"></path></g><g><path class="path" style="fill:none;stroke:#ccc;stroke-linejoin:round;stroke-linecap:round;" d="M-156.14606904888933,207.40107168257236L-83.78034403555284,217.92825315520167L-58.98734705777679,221.57687760517L99.83696440888525,240.7171946130693"></path><path class="path" style="fill:none;stroke:#ccc;stroke-linejoin:round;stroke-linecap:round;" d="M-58.98734705777679,221.57687760517L-33.63510954666344,80.35681172087789L-30.018687431111175,60.438802134245634"></path><path class="path" style="fill:none;stroke:#ccc;stroke-linejoin:round;stroke-linecap:round;" d="M-156.14606904888933,105.95711502805352L-153.42443178666872,93.69529049098492"></path><path class="path" style="fill:none;stroke:#ccc;stroke-linejoin:round;stroke-linecap:round;" d="M-156.14606904888933,93.27659395709634L-153.42443178666872,93.69529049098492L-107.93953507555489,101.23182719945908L-101.22864867555472,60.438802134245634"></path><path class="path" style="fill:none;stroke:#ccc;stroke-linejoin:round;stroke-linecap:round;" d="M-86.31556778666709,128.9854047447443L-74.16140686222207,60.438802134245634M-156.14606904888933,117.44135544076562L-86.31556778666709,128.9854047447443"></path><path class="path" style="fill:none;stroke:#ccc;stroke-linejoin:round;stroke-linecap:round;" d="M-73.67673173333242,316.6203821785748L-58.98734705777679,221.57687760517"></path></g><g><path class="path" style="fill:none;stroke:#ccc;stroke-linejoin:round;stroke-linecap:round;" d="M99.83696440888525,240.7171946130693L123.84702463999929,243.58824100345373L271.5238081422249,258.72104305773973L264.5146601244451,316.6203821785748"></path><path class="path" style="fill:none;stroke:#ccc;stroke-linejoin:round;stroke-linecap:round;" d="M271.5238081422249,258.72104305773973L306.345852017781,261.3528338521719M306.345852017781,261.3528338521719L355.8199978666671,266.55660128220916M355.8199978666671,190.65327460691333L315.0700043377801,186.1672558002174L306.345852017781,261.3528338521719"></path><path class="path" style="fill:none;stroke:#ccc;stroke-linejoin:round;stroke-linecap:round;" d="M116.12950527999783,316.6203821785748L118.21733660444443,294.6688909828663L123.84702463999929,243.58824100345373L145.4709919288871,60.438802134245634"></path><path class="path" style="fill:none;stroke:#ccc;stroke-linejoin:round;stroke-linecap:round;" d="M118.21733660444443,294.6688909828663L164.82071438222192,309.44278482347727L175.1853056,316.6203821785748"></path></g><g><path class="path" style="fill:none;stroke:#ccc;stroke-linejoin:round;stroke-linecap:round;" d="M355.8199978666671,266.55660128220916L381.20951808000245,269.24820474535227L438.73672760888803,275.4089850001037L446.93892209777914,200.7019540965557L355.8199978666671,190.65327460691333"></path><path class="path" style="fill:none;stroke:#ccc;stroke-linejoin:round;stroke-linecap:round;" d="M381.20951808000245,269.24820474535227L376.1390705777776,316.6203821785748"></path></g><g><path class="minor_road" style="fill:none;stroke:#ccc;stroke-linejoin:round;stroke-linecap:round;" d="M747.2510884977783,316.6203821785748L760.6355785955566,187.00464602932334L867.8606301866675,185.50930630415678"></path></g><g><path class="path" style="fill:none;stroke:#ccc;stroke-linejoin:round;stroke-linecap:round;" d="M86.60160511999857,546.3623148053885L12.148048782222759,536.0745111815631L-49.92765041777602,505.92883175984025L-109.6545393777742,473.689665582031L-149.84529237333118,462.08594896644354L-156.14606904888933,461.18875416368246"></path><path class="path" style="fill:none;stroke:#ccc;stroke-linejoin:round;stroke-linecap:round;" d="M-109.6545393777742,473.689665582031L-96.49374549333152,436.6056054793298L-84.97339050666778,389.5925149694085L-73.67673173333242,316.6203821785748"></path><path class="path" style="fill:none;stroke:#ccc;stroke-linejoin:round;stroke-linecap:round;" d="M82.57507328000065,572.859372548759L86.60160511999857,546.3623148053885L99.83696440888525,459.8728684335947"></path><path class="path" style="fill:none;stroke:#ccc;stroke-linejoin:round;stroke-linecap:round;" d="M86.60160511999857,546.3623148053885L99.83696440888525,551.0875256210566"></path></g><g><path class="path" style="fill:none;stroke:#ccc;stroke-linejoin:round;stroke-linecap:round;" d="M264.5146601244451,316.6203821785748L257.6173602133349,373.682214114815"></path><path class="path" style="fill:none;stroke:#ccc;stroke-linejoin:round;stroke-linecap:round;" d="M99.83696440888525,459.8728684335947L107.25622215111434,411.4243037030101L116.12950527999783,316.6203821785748"></path><path class="path" style="fill:none;stroke:#ccc;stroke-linejoin:round;stroke-linecap:round;" d="M99.83696440888525,551.0875256210566L130.9680207644451,562.0930767916143L151.24981077333723,572.859372548759"></path><path class="path" style="fill:none;stroke:#ccc;stroke-linejoin:round;stroke-linecap:round;" d="M175.1853056,316.6203821785748L257.6173602133349,373.682214114815L262.79965582222576,374.340159073472"></path></g><g><path class="path" style="fill:none;stroke:#ccc;stroke-linejoin:round;stroke-linecap:round;" d="M376.1390705777776,316.6203821785748L371.3296019911104,361.4205097556114L364.65599829333223,360.70275127515197"></path><path class="minor_road" style="fill:none;stroke:#ccc;stroke-linejoin:round;stroke-linecap:round;" d="M611.8403140266637,333.00922241806984L592.0804818488905,332.5905295498669"></path></g><g><path class="minor_road" style="fill:none;stroke:#ccc;stroke-linejoin:round;stroke-linecap:round;" d="M714.8524202666667,572.859372548759L723.2783109688862,335.5811928063631L611.8403140266637,333.00922241806984"></path><path class="minor_road" style="fill:none;stroke:#ccc;stroke-linejoin:round;stroke-linecap:round;" d="M769.6207098311133,572.859372548759L778.1957313422208,511.55124274268746L848.2499288177751,488.2242108993232"></path><path class="minor_road" style="fill:none;stroke:#ccc;stroke-linejoin:round;stroke-linecap:round;" d="M737.5203032177778,572.859372548759L745.1259744711133,337.2559640854597L747.2510884977783,316.6203821785748"></path></g><g><path class="path" style="fill:none;stroke:#ccc;stroke-linejoin:round;stroke-linecap:round;" d="M-84.30230186666813,829.0361472405493L-92.31808284444196,825.1483551636338L-119.16162844444261,777.0593120455742L-150.44181560889047,771.4967680126429"></path><path class="path" style="fill:none;stroke:#ccc;stroke-linejoin:round;stroke-linecap:round;" d="M65.49959566222242,687.4603466838598L74.07461717333354,628.7244168668985L82.57507328000065,572.859372548759"></path><path class="major_road" style="fill:none;stroke:#ccc;stroke-linejoin:round;stroke-linecap:round;" d="M-156.14606904888933,650.3167641870677L-40.45784405333325,672.507219709456L65.49959566222242,687.4603466838598L99.83696440888525,690.5705960579216"></path></g><g><path class="path" style="fill:none;stroke:#ccc;stroke-linejoin:round;stroke-linecap:round;" d="M151.24981077333723,572.859372548759L196.58557667555942,596.7246463485062L279.16676209777506,605.1582343615592L355.8199978666671,613.4721944704652"></path><path class="minor_road" style="fill:none;stroke:#ccc;stroke-linejoin:round;stroke-linecap:round;" d="M204.71320575999925,699.9611545540392L196.51101127111178,760.9099875092506L155.16449450666914,829.0361472405493"></path><path class="major_road" style="fill:none;stroke:#ccc;stroke-linejoin:round;stroke-linecap:round;" d="M99.83696440888525,690.5705960579216L204.71320575999925,699.9611545540392L217.46388992000357,699.7219046875834L355.8199978666671,697.2097810469568"></path></g><g><path class="path" style="fill:none;stroke:#ccc;stroke-linejoin:round;stroke-linecap:round;" d="M355.8199978666671,613.4721944704652L437.50639843555473,622.3244657665491L437.61824654222073,643.9766307473183L435.15758819555776,695.7742817290127"></path><path class="minor_road" style="fill:none;stroke:#ccc;stroke-linejoin:round;stroke-linecap:round;" d="M595.5850558577804,696.9107187017798L606.0242124800025,820.5428161434829L603.9363811555559,829.0361472405493"></path><path class="major_road" style="fill:none;stroke:#ccc;stroke-linejoin:round;stroke-linecap:round;" d="M355.8199978666671,697.2097810469568L435.15758819555776,695.7742817290127L595.5850558577804,696.9107187017798L611.8403140266637,696.7910937666893"></path></g><g><path class="minor_road" style="fill:none;stroke:#ccc;stroke-linejoin:round;stroke-linecap:round;" d="M710.4530614044452,696.0733441002667L714.8524202666667,572.859372548759"></path><path class="minor_road" style="fill:none;stroke:#ccc;stroke-linejoin:round;stroke-linecap:round;" d="M752.3215360000031,696.6116563528776L769.6207098311133,572.859372548759"></path><path class="minor_road" style="fill:none;stroke:#ccc;stroke-linejoin:round;stroke-linecap:round;" d="M733.4937713777799,696.4322189427912L737.5203032177778,572.859372548759"></path><path class="major_road" style="fill:none;stroke:#ccc;stroke-linejoin:round;stroke-linecap:round;" d="M611.8403140266637,696.7910937666893L710.4530614044452,696.0733441002667L733.4937713777799,696.4322189427912L752.3215360000031,696.6116563528776L867.8606301866675,697.6882808096707"></path></g><path class="waypath" style="fill:none;stroke:orange; stroke-width:5;stroke-linejoin:round; stroke-linecap:round}" d="M243.89732579555493,551.8052790910006L242.89069283555727,560.8968214429915L305.1528055466697,567.715476218611L306.19672120888936,558.2650594897568L314.0260886755532,559.1024383306503L313.2058692266655,566.6388466246426L405.9652323555565,576.8668260015547L405.44327452444486,581.4724061004817L515.8746385066661,593.5545735917985L557.1465898666684,217.92825315520167L452.94143715555765,206.50386853143573L442.35314972444394,302.8633189238608L415.1740598044453,299.87265207991004L406.4499074844425,379.0653996616602L363.1646902044449,374.28034588322043L364.65599829333223,360.70275127515197L371.81427712000004,295.56609125062823L345.9400817777787,292.75486367568374L346.87214933333235,284.08192570507526L273.57435676444584,276.00711892545223L262.7623731199965,374.340159073472L256.08876942222196,434.9308402761817L243.89732579555493,551.8052790910006"></path><path class="center" style="fill:none; stroke:red; stroke-width:1;stroke-linejoin:round; stroke-linecap:round}" d="M400,400m0,4.5a4.5,4.5 0 1,1 0,-9a4.5,4.5 0 1,1 0,9z"></path></svg>
