<svg xmlns="http://www.w3.org/2000/svg" version="1.1" width="800" height="800"><g><path class="path" style="fill:none;stroke:#ccc;stroke-linejoin:round;stroke-linecap:round;" d="M104.90741191110283,-167.3084857724607L91.78390072890033,-158.5658336468041L33.063644728885265,-108.56510296463966L-70.54498474666616,87.72430511564016"></path><path class="minor_road" style="fill:none;stroke:#ccc;stroke-linejoin:round;stroke-linecap:round;" d="M-33.15043441778107,-168.4462283886969L-50.03949852443475,-137.12838339805603L-100.78125624889799,-168.4462283886969"></path></g><g><path class="path" style="fill:none;stroke:#ccc;stroke-linejoin:round;stroke-linecap:round;" d="M106.65969891555142,-168.4462283886969L104.90741191110283,-167.3084857724607"></path><path class="path" style="fill:none;stroke:#ccc;stroke-linejoin:round;stroke-linecap:round;" d="M235.84426211557002,-168.4462283886969L255.79050780445687,-138.5655303746462L259.7797569422255,-86.5887628942728L237.8202453333506,16.645905766636133L214.8168180622306,87.72430511564016"></path></g><g><path class="major_road" style="fill:none;stroke:#ccc;stroke-linejoin:round;stroke-linecap:round;" d="M470.0914801777835,-154.4340332634747L616.9480442311178,66.586434841156"></path><path class="major_road" style="fill:none;stroke:#ccc;stroke-linejoin:round;stroke-linecap:round;" d="M460.0997159822291,-168.4462283886969L470.0914801777835,-154.4340332634747"></path></g><g><path class="minor_road" style="fill:none;stroke:#ccc;stroke-linejoin:round;stroke-linecap:round;" d="M733.1582270577928,-168.4462283886969L771.783106560004,-110.24177268519998L872.8937949866668,40.65809001401067"></path><path class="major_road" style="fill:none;stroke:#ccc;stroke-linejoin:round;stroke-linecap:round;" d="M616.9480442311178,66.586434841156L631.0036229688849,87.72430511564016"></path></g><g><path class="path" style="fill:none;stroke:#ccc;stroke-linejoin:round;stroke-linecap:round;" d="M-70.54498474666616,87.72430511564016L-77.36771925332141,100.65851794555783L-151.11290424889012,259.10212778300047"></path></g><g><path class="path" style="fill:none;stroke:#ccc;stroke-linejoin:round;stroke-linecap:round;" d="M196.39916316444578,338.6229882463813L193.45382968889317,343.95231473073363"></path><path class="path" style="fill:none;stroke:#ccc;stroke-linejoin:round;stroke-linecap:round;" d="M214.8168180622306,87.72430511564016L207.8076700444508,109.40108425542712L169.14550784000312,229.58114698901772L157.5133047466661,272.5153012126684L163.77679872002045,317.4254321306944L196.39916316444578,338.6229882463813L203.8184209066676,343.95231473073363"></path></g><g></g><g><path class="minor_road" style="fill:none;stroke:#ccc;stroke-linejoin:round;stroke-linecap:round;" d="M809.2895049955696,343.95231473073363L872.8937949866668,296.2278595417738"></path><path class="major_road" style="fill:none;stroke:#ccc;stroke-linejoin:round;stroke-linecap:round;" d="M631.0036229688849,87.72430511564016L645.245615217791,109.16156193241477L763.8046082844521,343.95231473073363"></path></g><g><path class="path" style="fill:none;stroke:#ccc;stroke-linejoin:round;stroke-linecap:round;" d="M104.90741191110283,508.50224316865206L59.79534222223447,549.4599314592779L31.796032853337238,561.4358520917594L7.785972622223198,557.4239192567766L-47.206013155548135,519.2207084782422L-71.58890040886763,507.84356639534235L-137.87754495999252,459.2810803465545L-151.11290424889012,444.1913630217314"></path><path class="path" style="fill:none;stroke:#ccc;stroke-linejoin:round;stroke-linecap:round;" d="M31.796032853337238,561.4358520917594L58.60229575111589,600.1779193617404"></path><path class="path" style="fill:none;stroke:#ccc;stroke-linejoin:round;stroke-linecap:round;" d="M-47.206013155548135,519.2207084782422L-123.03902947554889,600.1779193617404"></path></g><g><path class="path" style="fill:none;stroke:#ccc;stroke-linejoin:round;stroke-linecap:round;" d="M193.45382968889317,343.95231473073363L151.69720319999033,420.1196538284421L117.99364039111242,496.6460587903857L104.90741191110283,508.50224316865206"></path><path class="path" style="fill:none;stroke:#ccc;stroke-linejoin:round;stroke-linecap:round;" d="M203.8184209066676,343.95231473073363L233.64458268447197,365.26961029320955L360.9277280711249,489.46048997342587"></path></g><g><path class="path" style="fill:none;stroke:#ccc;stroke-linejoin:round;stroke-linecap:round;" d="M360.9277280711249,489.46048997342587L474.41627363555017,600.1779193617404"></path></g><g><path class="minor_road" style="fill:none;stroke:#ccc;stroke-linejoin:round;stroke-linecap:round;" d="M776.3315962311317,368.7426512539387L809.2895049955696,343.95231473073363"></path><path class="major_road" style="fill:none;stroke:#ccc;stroke-linejoin:round;stroke-linecap:round;" d="M763.8046082844521,343.95231473073363L776.3315962311317,368.7426512539387L812.1229903644562,463.4127871952951L872.8937949866668,573.5914061628282"></path></g><g><path class="path" style="fill:none;stroke:#ccc;stroke-linejoin:round;stroke-linecap:round;" d="M58.60229575111589,600.1779193617404L67.81112319999374,613.4112867563963L95.81043256889097,689.4581154026091L104.90741191110283,718.3199271783233"></path><path class="path" style="fill:none;stroke:#ccc;stroke-linejoin:round;stroke-linecap:round;" d="M-123.03902947554889,600.1779193617404L-151.11290424889012,630.117655467242"></path></g><g><path class="path" style="fill:none;stroke:#ccc;stroke-linejoin:round;stroke-linecap:round;" d="M104.90741191110283,718.3199271783233L119.78321009778301,765.4448530301452L139.4684768711013,856.4011190272868"></path></g><g><path class="path" style="fill:none;stroke:#ccc;stroke-linejoin:round;stroke-linecap:round;" d="M474.41627363555017,600.1779193617404L588.2776462222391,711.2541752457619L616.9480442311178,738.7986215986311"></path><path class="path" style="fill:none;stroke:#ccc;stroke-linejoin:round;stroke-linecap:round;" d="M588.2776462222391,711.2541752457619L438.9604238222091,856.4011190272868"></path></g><g><path class="path" style="fill:none;stroke:#ccc;stroke-linejoin:round;stroke-linecap:round;" d="M616.9480442311178,738.7986215986311L739.4217210311326,856.4011190272868"></path></g><path class="waypath" style="fill:none;stroke:orange; stroke-width:5;stroke-linejoin:round; stroke-linecap:round}" d="M249.97440625779564,288.1440351456404L492.0882744888804,542.2743765562773L550.0255937422335,487.06529995799065L466.3632099555689,399.22156071290374L451.8602387911087,413.0538247078657L419.12602624000283,378.68273155391216L407.6056712533464,389.6407677009702L281.8883993600175,257.7248819246888L249.97440625779564,288.1440351456404"></path><path class="center" style="fill:none; stroke:red; stroke-width:1;stroke-linejoin:round; stroke-linecap:round}" d="M400,400m0,4.5a4.5,4.5 0 1,1 0,-9a4.5,4.5 0 1,1 0,9z"></path></svg>
