<svg xmlns="http://www.w3.org/2000/svg" version="1.1" width="800" height="800"><g><path class="minor_road" style="fill:none;stroke:#ccc;stroke-linejoin:round;stroke-linecap:round;" d="M-58.57723733333114,33.796337030828L-86.91209102222638,46.96921583265066"></path><path class="minor_road" style="fill:none;stroke:#ccc;stroke-linejoin:round;stroke-linecap:round;" d="M169.10822513778112,6.6122852228581905L-86.91209102222638,-42.7861161082983"></path></g><g><path class="path" style="fill:none;stroke:#ccc;stroke-linejoin:round;stroke-linecap:round;" d="M266.7143395555322,25.89260669797659L246.2461360355519,50.86120154336095"></path><path class="minor_road" style="fill:none;stroke:#ccc;stroke-linejoin:round;stroke-linecap:round;" d="M352.8373816888925,50.86120154336095L293.5206024533254,31.700651183724403L266.7143395555322,25.89260669797659L230.6992492088757,18.467888232320547L169.10822513778112,6.6122852228581905"></path><path class="minor_road" style="fill:none;stroke:#ccc;stroke-linejoin:round;stroke-linecap:round;" d="M293.5206024533254,31.700651183724403L284.871015537763,-28.954554721713066L276.3332767288957,-95.53771973028779L292.51396949334594,-125.8953857421875L317.26968376888544,-145.53507720306516L355.70814976001566,-167.27048391848803L393.2518308977742,-171.5217638388276L425.12854129777406,-169.00692211091518"></path><path class="rail" style="fill:none;stroke:#ccc;stroke-linejoin:round;stroke-linecap:round;" d="M425.12854129777406,-192.05964656546712L356.5283692088851,-205.35239524394274"></path></g><g><path class="minor_road" style="fill:none;stroke:#ccc;stroke-linejoin:round;stroke-linecap:round;" d="M425.12854129777406,-169.00692211091518L431.24290446222585,-168.52790465950966L457.75090574221394,-154.03763093426824L488.8819620977738,-136.07449236884713L514.9425709510833,-110.08783946931362L556.7737628444302,-92.06485280767083L681.1115747555596,-56.4979306422174"></path><path class="rail" style="fill:none;stroke:#ccc;stroke-linejoin:round;stroke-linecap:round;" d="M681.1115747555596,-146.61286554858088L673.4686207999912,-147.87028535082936L480.94074652444397,-181.34162421524525L425.12854129777406,-192.05964656546712"></path><path class="rail" style="fill:none;stroke:#ccc;stroke-linejoin:round;stroke-linecap:round;" d="M681.1115747555596,-164.03711653128266L572.0969534577598,-185.65278354659677L453.7616566044453,-205.35239524394274"></path></g><g><path class="minor_road" style="fill:none;stroke:#ccc;stroke-linejoin:round;stroke-linecap:round;" d="M681.1115747555596,-56.4979306422174L937.0946082133305,16.731461856514215"></path><path class="rail" style="fill:none;stroke:#ccc;stroke-linejoin:round;stroke-linecap:round;" d="M937.0946082133305,-101.8248075582087L862.9393134933343,-116.43480771034956L681.1115747555596,-146.61286554858088"></path><path class="rail" style="fill:none;stroke:#ccc;stroke-linejoin:round;stroke-linecap:round;" d="M937.0946082133305,-113.74033987522125L784.869335039999,-143.4992548674345L681.1115747555596,-164.03711653128266"></path></g><g><path class="path" style="fill:none;stroke:#ccc;stroke-linejoin:round;stroke-linecap:round;" d="M169.10822513778112,145.226715862751L126.45681379555026,197.3790904842317L-86.91209102222638,277.3738136291504"></path><path class="minor_road" style="fill:none;stroke:#ccc;stroke-linejoin:round;stroke-linecap:round;" d="M-86.91209102222638,143.07116206735373L-23.568779946668656,114.68968791887164"></path></g><g><path class="path" style="fill:none;stroke:#ccc;stroke-linejoin:round;stroke-linecap:round;" d="M246.2461360355519,50.86120154336095L169.10822513778112,145.226715862751"></path><path class="minor_road" style="fill:none;stroke:#ccc;stroke-linejoin:round;stroke-linecap:round;" d="M425.12854129777406,74.21310411766171L352.8373816888925,50.86120154336095"></path><path class="rail" style="fill:none;stroke:#ccc;stroke-linejoin:round;stroke-linecap:round;" d="M425.12854129777406,170.37483087927103L338.6326721422083,207.49819640815258L294.900062435554,222.58703377097845L266.15509902221675,231.62835693359375L245.05308956443332,241.92707900702953L221.9378141866764,267.19485737755895L213.325509973336,307.07239369675517"></path></g><g><path class="minor_road" style="fill:none;stroke:#ccc;stroke-linejoin:round;stroke-linecap:round;" d="M681.1115747555596,305.4557379409671L675.2209078044543,292.1033553518355L573.0663037155609,161.99212845042348L478.3309573688748,91.39769658073783L425.12854129777406,74.21310411766171"></path><path class="minor_road" style="fill:none;stroke:#ccc;stroke-linejoin:round;stroke-linecap:round;" d="M573.0663037155609,161.99212845042348L615.4567361422232,122.5335160009563L678.166241280007,98.16375267133117L681.1115747555596,98.1038760766387"></path><path class="minor_road" style="fill:none;stroke:#ccc;stroke-linejoin:round;stroke-linecap:round;" d="M681.1115747555596,289.28917522728443L675.2209078044543,292.1033553518355"></path><path class="rail" style="fill:none;stroke:#ccc;stroke-linejoin:round;stroke-linecap:round;" d="M449.6605593599961,159.77669951692224L425.12854129777406,170.37483087927103"></path></g><g><path class="minor_road" style="fill:none;stroke:#ccc;stroke-linejoin:round;stroke-linecap:round;" d="M681.8199460977776,307.07239369675517L681.1115747555596,305.4557379409671"></path><path class="minor_road" style="fill:none;stroke:#ccc;stroke-linejoin:round;stroke-linecap:round;" d="M681.1115747555596,98.1038760766387L757.2055699910998,95.64893555268645L937.0946082133305,167.68039109185338"></path><path class="minor_road" style="fill:none;stroke:#ccc;stroke-linejoin:round;stroke-linecap:round;" d="M937.0946082133305,303.9588343910873L931.2412239644327,307.07239369675517M918.5651052088942,307.07239369675517L803.6598169599893,257.01589734107256L756.9818737777823,252.6449309848249L681.1115747555596,289.28917522728443"></path></g><g></g><g><path class="rail" style="fill:none;stroke:#ccc;stroke-linejoin:round;stroke-linecap:round;" d="M213.325509973336,307.07239369675517L213.176379164448,307.7909073121846L217.79943423999066,361.2602438144386L230.6619665066537,418.38190527260303L238.41676856888807,465.1449374780059L250.2353851733351,508.734477955848L261.010086115537,542.1450950987637L270.3680443733174,563.281181242317"></path></g><g><path class="rail" style="fill:none;stroke:#ccc;stroke-linejoin:round;stroke-linecap:round;" d="M484.1843416177726,563.281181242317L499.5448149333388,559.2096418403089L514.4578958222264,555.0782262384892L526.7611875555449,555.6171065717936"></path></g><g><path class="path" style="fill:none;stroke:#ccc;stroke-linejoin:round;stroke-linecap:round;" d="M925.5369705244375,310.1260765045881L937.0946082133305,349.28503757342696"></path><path class="minor_road" style="fill:none;stroke:#ccc;stroke-linejoin:round;stroke-linecap:round;" d="M794.4882722133334,563.281181242317L681.8199460977776,307.07239369675517"></path><path class="minor_road" style="fill:none;stroke:#ccc;stroke-linejoin:round;stroke-linecap:round;" d="M931.2412239644327,307.07239369675517L925.5369705244375,310.1260765045881L918.5651052088942,307.07239369675517"></path><path class="major_road" style="fill:none;stroke:#ccc;stroke-linejoin:round;stroke-linecap:round;" d="M914.948683093331,563.281181242317L937.0946082133305,558.4312592372298"></path></g><g><path class="minor_road" style="fill:none;stroke:#ccc;stroke-linejoin:round;stroke-linecap:round;" d="M-86.91209102222638,649.022869952023L125.63659434665169,585.255508415401L169.10822513778112,602.1404017470777"></path><path class="major_road" style="fill:none;stroke:#ccc;stroke-linejoin:round;stroke-linecap:round;" d="M161.05516145777074,819.487564265728L168.6981154133391,814.0988125726581L169.10822513778112,813.9790625087917"></path></g><g><path class="minor_road" style="fill:none;stroke:#ccc;stroke-linejoin:round;stroke-linecap:round;" d="M169.10822513778112,602.1404017470777L260.93552071110753,637.8860457129776L283.52883825778554,767.2765029668808L292.8122311111074,790.6277927421033"></path><path class="major_road" style="fill:none;stroke:#ccc;stroke-linejoin:round;stroke-linecap:round;" d="M169.10822513778112,813.9790625087917L283.52883825778554,767.2765029668808L425.12854129777406,713.86783695966"></path><path class="major_road" style="fill:none;stroke:#ccc;stroke-linejoin:round;stroke-linecap:round;" d="M425.12854129777406,743.7455677166581L390.3437801244436,754.7027232944965L292.8122311111074,790.6277927421033L214.36942563555203,819.487564265728"></path><path class="rail" style="fill:none;stroke:#ccc;stroke-linejoin:round;stroke-linecap:round;" d="M270.3680443733174,563.281181242317L274.9165340444306,573.5797781907022L290.31429006223334,586.8721475861967L309.2911854933336,595.1948440521955L337.5887564799923,601.841024287045L364.3204539733415,600.8231409341097L408.0530636800104,588.0097825080156L425.12854129777406,582.5012340396643"></path></g><g><path class="minor_road" style="fill:none;stroke:#ccc;stroke-linejoin:round;stroke-linecap:round;" d="M583.1326333155594,819.487564265728L579.6653420088842,754.4033475071192L561.2104044088774,700.8150304965675"></path><path class="minor_road" style="fill:none;stroke:#ccc;stroke-linejoin:round;stroke-linecap:round;" d="M561.2104044088774,700.8150304965675L551.3304883200035,671.3563801236451"></path><path class="major_road" style="fill:none;stroke:#ccc;stroke-linejoin:round;stroke-linecap:round;" d="M681.1115747555596,664.9497182182968L561.2104044088774,700.8150304965675"></path><path class="major_road" style="fill:none;stroke:#ccc;stroke-linejoin:round;stroke-linecap:round;" d="M425.12854129777406,713.86783695966L425.5759337244381,713.6882112212479L551.3304883200035,671.3563801236451L559.5326828089019,668.6619897969067L681.1115747555596,629.4436114057899"></path><path class="major_road" style="fill:none;stroke:#ccc;stroke-linejoin:round;stroke-linecap:round;" d="M561.2104044088774,700.8150304965675L425.12854129777406,743.7455677166581"></path><path class="rail" style="fill:none;stroke:#ccc;stroke-linejoin:round;stroke-linecap:round;" d="M425.12854129777406,582.5012340396643L439.9297740799957,577.7111909948289L468.67473749333294,567.4125955924392L484.1843416177726,563.281181242317"></path></g><g><path class="minor_road" style="fill:none;stroke:#ccc;stroke-linejoin:round;stroke-linecap:round;" d="M818.7965940622089,587.9499069936574L838.7055570488883,617.7679000906646"></path><path class="minor_road" style="fill:none;stroke:#ccc;stroke-linejoin:round;stroke-linecap:round;" d="M838.7055570488883,617.7679000906646L857.3841908622271,672.6137621961534"></path><path class="minor_road" style="fill:none;stroke:#ccc;stroke-linejoin:round;stroke-linecap:round;" d="M857.3841908622271,672.6137621961534L892.9146060799976,717.4603514000773L896.3446146844508,819.487564265728"></path><path class="minor_road" style="fill:none;stroke:#ccc;stroke-linejoin:round;stroke-linecap:round;" d="M857.3841908622271,672.6137621961534L779.9853010488878,690.9356086142361"></path><path class="minor_road" style="fill:none;stroke:#ccc;stroke-linejoin:round;stroke-linecap:round;" d="M806.8288466488884,591.3628114536405L794.4882722133334,563.281181242317"></path><path class="major_road" style="fill:none;stroke:#ccc;stroke-linejoin:round;stroke-linecap:round;" d="M937.0946082133305,591.9016910716891L838.7055570488883,617.7679000906646L681.1115747555596,664.9497182182968"></path><path class="major_road" style="fill:none;stroke:#ccc;stroke-linejoin:round;stroke-linecap:round;" d="M681.1115747555596,629.4436114057899L704.674242559995,621.8394307605922L806.8288466488884,591.3628114536405L818.7965940622089,587.9499069936574L869.6501998933236,573.2804004326463L914.948683093331,563.281181242317"></path></g><path class="waypath" style="fill:none;stroke:orange; stroke-width:5;stroke-linejoin:round; stroke-linecap:round}" d="M335.4636424533237,223.78456019610167L240.84014421331813,254.92022862657905L269.6596730311139,342.3992916047573L225.40510549333703,356.9491701759398L297.58441699553805,576.2741779200733L439.7806432711077,529.4514604248106L434.00182442666846,511.9677652679384L455.4020955022279,504.9024332202971L432.5105163377739,435.38665352761745L477.0260627911048,420.71706499904394L494.06425770664646,472.509658690542L574.6321772088995,446.04455373063684L539.2508928000025,338.5672235377133L469.3831088355655,361.55962389335036L425.16582399999606,227.19751020148396L345.2689931377681,253.48319855704904L335.4636424533237,223.78456019610167"></path><path class="center" style="fill:none; stroke:red; stroke-width:1;stroke-linejoin:round; stroke-linecap:round}" d="M400,400m0,4.5a4.5,4.5 0 1,1 0,-9a4.5,4.5 0 1,1 0,9z"></path></svg>
