<svg xmlns="http://www.w3.org/2000/svg" version="1.1" width="800" height="800"><g><path class="path" style="fill:none;stroke:#ccc;stroke-linejoin:round;stroke-linecap:round;" d="M100.18742180977779,-155.99956645816565L102.07392654222167,-152.41956102848053"></path></g><g><path class="path" style="fill:none;stroke:#ccc;stroke-linejoin:round;stroke-linecap:round;" d="M102.07392654222167,-152.41956102848053L232.89147209955536,96.06097683310509"></path></g><g></g><g><path class="path" style="fill:none;stroke:#ccc;stroke-linejoin:round;stroke-linecap:round;" d="M762.6488445155555,101.89192852377892L870.0304834559997,42.552686899900436"></path></g><g></g><g></g><g><path class="path" style="fill:none;stroke:#ccc;stroke-linejoin:round;stroke-linecap:round;" d="M550.8607262720002,218.90594625473022L614.0250803768886,184.00411412864923"></path></g><g><path class="path" style="fill:none;stroke:#ccc;stroke-linejoin:round;stroke-linecap:round;" d="M614.0250803768886,184.00411412864923L762.6488445155555,101.89192852377892"></path></g><g></g><g></g><g></g><g></g><g></g><g></g><g></g><g><path class="path" style="fill:none;stroke:#ccc;stroke-linejoin:round;stroke-linecap:round;" d="M870.0304834559997,746.609350733459L642.0243897457776,868.8542047142982"></path></g><path class="waypath" style="fill:none;stroke:orange; stroke-width:5;stroke-linejoin:round; stroke-linecap:round}" d="M534.366858808889,241.23592320084572L591.7822202311108,348.3957390859723L663.1413122844442,481.5370274409652L322.0791523555554,664.2465763911605L252.65876081777742,534.6976670101285L197.85318855111063,432.4472017288208L136.85868771555533,318.5825823917985L477.9208476444437,135.87187681347132L534.366858808889,241.23592320084572"></path><path class="center" style="fill:none; stroke:red; stroke-width:1;stroke-linejoin:round; stroke-linecap:round}" d="M400,400m0,4.5a4.5,4.5 0 1,1 0,-9a4.5,4.5 0 1,1 0,9z"></path></svg>
