<svg xmlns="http://www.w3.org/2000/svg" version="1.1" width="800" height="800"><g><path class="minor_road" style="fill:none;stroke:#ccc;stroke-linejoin:round;stroke-linecap:round;" d="M-92.89223645866696,-172.82259142398834L-2.175965411555808,45.415677316486835"></path></g><g></g><g></g><g><path class="path" style="fill:none;stroke:#ccc;stroke-linejoin:round;stroke-linecap:round;" d="M657.1537103075552,81.7166352942586L731.3612008106666,45.67968437820673L793.5189219555559,24.11510393768549"></path><path class="minor_road" style="fill:none;stroke:#ccc;stroke-linejoin:round;stroke-linecap:round;" d="M793.5189219555559,41.39556973427534L761.9702993351111,81.7166352942586"></path></g><g><path class="path" style="fill:none;stroke:#ccc;stroke-linejoin:round;stroke-linecap:round;" d="M793.5189219555559,24.11510393768549L812.0707945813338,17.682929143309593"></path><path class="path" style="fill:none;stroke:#ccc;stroke-linejoin:round;stroke-linecap:round;" d="M934.9844072675551,-65.71940580010414L937.1617170773316,-172.82259142398834"></path><path class="minor_road" style="fill:none;stroke:#ccc;stroke-linejoin:round;stroke-linecap:round;" d="M860.6128728746662,-172.82259142398834L934.9844072675551,-65.71940580010414"></path><path class="minor_road" style="fill:none;stroke:#ccc;stroke-linejoin:round;stroke-linecap:round;" d="M812.0707945813338,17.682929143309593L934.9844072675551,-65.71940580010414L1049.5317815751096,-96.6563043743372"></path><path class="minor_road" style="fill:none;stroke:#ccc;stroke-linejoin:round;stroke-linecap:round;" d="M812.0707945813338,17.682929143309593L793.5189219555559,41.39556973427534"></path></g><g></g><g><path class="path" style="fill:none;stroke:#ccc;stroke-linejoin:round;stroke-linecap:round;" d="M151.69720319999942,339.6027453020215L281.5677681208872,273.30129093676805"></path></g><g><path class="path" style="fill:none;stroke:#ccc;stroke-linejoin:round;stroke-linecap:round;" d="M281.5677681208872,273.30129093676805L482.7154031502214,170.602878972888L537.5060623359986,142.64218882471323"></path><path class="path" style="fill:none;stroke:#ccc;stroke-linejoin:round;stroke-linecap:round;" d="M537.5060623359986,285.9975756704807L482.7154031502214,170.602878972888"></path></g><g><path class="path" style="fill:none;stroke:#ccc;stroke-linejoin:round;stroke-linecap:round;" d="M537.5060623359986,142.64218882471323L652.053436643555,84.18869967758656L657.1537103075552,81.7166352942586"></path><path class="path" style="fill:none;stroke:#ccc;stroke-linejoin:round;stroke-linecap:round;" d="M562.9626914133314,339.6027453020215L537.5060623359986,285.9975756704807"></path><path class="path" style="fill:none;stroke:#ccc;stroke-linejoin:round;stroke-linecap:round;" d="M706.3743337813321,192.77941617369652L652.053436643555,84.18869967758656"></path><path class="minor_road" style="fill:none;stroke:#ccc;stroke-linejoin:round;stroke-linecap:round;" d="M761.9702993351111,81.7166352942586L734.5078608782223,116.81753864139318L706.3743337813321,192.77941617369652L692.0354065066658,280.3934503644705L690.2682064213332,339.6027453020215"></path></g><g></g><g><path class="path" style="fill:none;stroke:#ccc;stroke-linejoin:round;stroke-linecap:round;" d="M-230.45049457777714,522.1143324747682L-79.73889911466722,457.75713726878166L25.554908501333557,403.9960806667805"></path></g><g><path class="path" style="fill:none;stroke:#ccc;stroke-linejoin:round;stroke-linecap:round;" d="M25.554908501333557,403.9960806667805L151.69720319999942,339.6027453020215"></path></g><g></g><g><path class="path" style="fill:none;stroke:#ccc;stroke-linejoin:round;stroke-linecap:round;" d="M683.818298936887,594.139579936862L562.9626914133314,339.6027453020215"></path><path class="minor_road" style="fill:none;stroke:#ccc;stroke-linejoin:round;stroke-linecap:round;" d="M687.0842636515554,546.5827669128776L793.5189219555559,513.5461776927114"></path><path class="minor_road" style="fill:none;stroke:#ccc;stroke-linejoin:round;stroke-linecap:round;" d="M690.2682064213332,339.6027453020215L686.2118484195544,474.90546315163374L687.0842636515554,546.5827669128776L689.2988561635539,594.139579936862"></path></g><g><path class="minor_road" style="fill:none;stroke:#ccc;stroke-linejoin:round;stroke-linecap:round;" d="M793.5189219555559,513.5461776927114L977.1213173191118,456.55711428821087"></path></g><g></g><g></g><g><path class="rail" style="fill:none;stroke:#ccc;stroke-linejoin:round;stroke-linecap:round;" d="M391.4995438933329,848.675226405263L537.5060623359986,822.5509068593383"></path></g><g><path class="path" style="fill:none;stroke:#ccc;stroke-linejoin:round;stroke-linecap:round;" d="M689.8953793991113,606.9317915514112L683.818298936887,594.139579936862"></path><path class="minor_road" style="fill:none;stroke:#ccc;stroke-linejoin:round;stroke-linecap:round;" d="M689.2988561635539,594.139579936862L689.8953793991113,606.9317915514112L696.3229172622214,693.4771444275975"></path><path class="rail" style="fill:none;stroke:#ccc;stroke-linejoin:round;stroke-linecap:round;" d="M537.5060623359986,822.5509068593383L793.5189219555559,776.7463164180517"></path><path class="rail" style="fill:none;stroke:#ccc;stroke-linejoin:round;stroke-linecap:round;" d="M793.5189219555559,817.7028461918235L611.0872034417771,848.675226405263"></path><path class="minor_road" style="fill:none;stroke:#ccc;stroke-linejoin:round;stroke-linecap:round;" d="M696.3229172622214,693.4771444275975L701.4753867093332,848.675226405263"></path></g><g><path class="rail" style="fill:none;stroke:#ccc;stroke-linejoin:round;stroke-linecap:round;" d="M793.5189219555559,776.7463164180517L934.3878840319994,751.5459751412272L1049.5317815751096,728.3136501908302"></path><path class="rail" style="fill:none;stroke:#ccc;stroke-linejoin:round;stroke-linecap:round;" d="M1049.5317815751096,772.810263864696L988.3061279857775,784.6424209177494L793.5189219555559,817.7028461918235"></path></g><path class="waypath" style="fill:none;stroke:orange; stroke-width:5;stroke-linejoin:round; stroke-linecap:round}" d="M609.0068286577771,483.76162934303284L474.043446613332,205.83572827279568L190.99317134222292,346.5988940745592L219.5517212444429,404.2000847682357L302.54301639111145,363.03924011439085L350.48857144888825,455.9211020767689L438.1029216711104,416.0803227573633L523.0329173333321,594.0435783565044L571.0530377955547,572.9232223629951L541.5997030399994,515.2022077143192L609.0068286577771,483.76162934303284"></path><path class="center" style="fill:none; stroke:red; stroke-width:1;stroke-linejoin:round; stroke-linecap:round}" d="M400,400m0,4.5a4.5,4.5 0 1,1 0,-9a4.5,4.5 0 1,1 0,9z"></path></svg>
