<svg xmlns="http://www.w3.org/2000/svg" version="1.1" width="800" height="800"><g><path class="path" style="fill:none;stroke:#ccc;stroke-linejoin:round;stroke-linecap:round;" d="M160.64505173332873,-181.16969670448452L165.52908572443994,-178.1452163970098"></path><path class="path" style="fill:none;stroke:#ccc;stroke-linejoin:round;stroke-linecap:round;" d="M165.52908572443994,-178.1452163970098L159.92735971555157,-168.53276809118688L166.68484949332924,-109.85520358756185"></path><path class="path" style="fill:none;stroke:#ccc;stroke-linejoin:round;stroke-linecap:round;" d="M156.75833002666332,-174.4769128775224L165.52908572443994,-178.1452163970098"></path><path class="minor_road" style="fill:none;stroke:#ccc;stroke-linejoin:round;stroke-linecap:round;" d="M-47.34582328889155,-21.323257566429675L-46.03160803555875,-21.472980839200318L5.10161806222095,-28.49500614218414"></path><path class="minor_road" style="fill:none;stroke:#ccc;stroke-linejoin:round;stroke-linecap:round;" d="M5.10161806222095,-28.49500614218414L0.4506009599972458,-61.58396462537348L0.14301866666210117,-83.3089743964374L-12.924568462221941,-184.2690417720005"></path><path class="minor_road" style="fill:none;stroke:#ccc;stroke-linejoin:round;stroke-linecap:round;" d="M13.928297813330573,27.03718846756965L5.10161806222095,-28.49500614218414"></path><path class="minor_road" style="fill:none;stroke:#ccc;stroke-linejoin:round;stroke-linecap:round;" d="M62.414452053330024,-156.97389179840684L79.78819128888426,-159.30962169822305L153.44016952888705,-168.8172484561801"></path><path class="minor_road" style="fill:none;stroke:#ccc;stroke-linejoin:round;stroke-linecap:round;" d="M208.65585151999767,33.93937897775322L205.95285560888806,34.34362852945924L194.24608711111068,39.95820318162441L194.4045385955542,41.48536668531597L195.48573695999585,52.534833637066185L197.40579612444344,71.95370441954583"></path><path class="minor_road" style="fill:none;stroke:#ccc;stroke-linejoin:round;stroke-linecap:round;" d="M-22.20796131555835,31.30427019111812L-17.025665706667496,71.95370441954583"></path><path class="minor_road" style="fill:none;stroke:#ccc;stroke-linejoin:round;stroke-linecap:round;" d="M86.88122538666357,-101.06633905973285L166.68484949332924,-109.85520358756185L202.0754545777745,-114.15231864340603L208.65585151999767,-114.82608257606626"></path><path class="minor_road" style="fill:none;stroke:#ccc;stroke-linejoin:round;stroke-linecap:round;" d="M71.00811491555578,-99.58406148664653L86.88122538666357,-101.06633905973285"></path><path class="minor_road" style="fill:none;stroke:#ccc;stroke-linejoin:round;stroke-linecap:round;" d="M-47.34582328889155,34.268767504021525L-22.20796131555835,31.30427019111812L13.928297813330573,27.03718846756965L86.10760931555342,18.532961492426693L101.16982101332906,16.751264709979296"></path><path class="minor_road" style="fill:none;stroke:#ccc;stroke-linejoin:round;stroke-linecap:round;" d="M153.44016952888705,-168.8172484561801L151.4455449599991,-184.2690417720005"></path><path class="minor_road" style="fill:none;stroke:#ccc;stroke-linejoin:round;stroke-linecap:round;" d="M157.7649629866646,-120.39586694631726L153.44016952888705,-168.8172484561801"></path><path class="minor_road" style="fill:none;stroke:#ccc;stroke-linejoin:round;stroke-linecap:round;" d="M153.44016952888705,-168.8172484561801L156.75833002666332,-174.4769128775224L160.64505173332873,-181.16969670448452L162.58375224888732,-184.2690417720005"></path><path class="minor_road" style="fill:none;stroke:#ccc;stroke-linejoin:round;stroke-linecap:round;" d="M202.0754545777745,-114.15231864340603L202.70926051555216,-96.69436977803707L208.65585151999767,-45.78808433935046"></path><path class="major_road" style="fill:none;stroke:#ccc;stroke-linejoin:round;stroke-linecap:round;" d="M86.88122538666357,-101.06633905973285L101.16982101332906,16.751264709979296L108.74753023999801,71.95370441954583"></path><path class="major_road" style="fill:none;stroke:#ccc;stroke-linejoin:round;stroke-linecap:round;" d="M76.4420687644415,-184.2690417720005L79.78819128888426,-159.30962169822305L86.88122538666357,-101.06633905973285"></path><path class="major_road" style="fill:none;stroke:#ccc;stroke-linejoin:round;stroke-linecap:round;" d="M93.21928476444373,71.95370441954583L86.10760931555342,18.532961492426693L71.00811491555578,-99.58406148664653L62.414452053330024,-156.97389179840684L58.92851939555476,-184.2690417720005"></path><path class="path" style="fill:none;stroke:#ccc;stroke-linejoin:round;stroke-linecap:round;" d="M163.17095480888383,49.63023294415325L208.65585151999767,43.67130601312965"></path></g><g><path class="minor_road" style="fill:none;stroke:#ccc;stroke-linejoin:round;stroke-linecap:round;" d="M302.00241720888516,-175.7046713847667L300.99578424888387,-184.2690417720005M353.14496398222036,-184.2690417720005L353.41526357332987,-182.0231394059956L354.9345336888873,-169.0268655726686"></path><path class="minor_road" style="fill:none;stroke:#ccc;stroke-linejoin:round;stroke-linecap:round;" d="M464.6575263288869,6.270685981027782L435.2321535999981,9.295083209872246L268.690322773331,27.351605106145144L217.82739626666444,32.60685250069946"></path><path class="path" style="fill:none;stroke:#ccc;stroke-linejoin:round;stroke-linecap:round;" d="M269.24024263110914,35.73604347370565L269.19363925333164,33.10093538276851L278.7659730488849,31.948075274005532L278.6448042666634,29.073410256765783L268.969943039996,30.331076350994408L268.690322773331,27.351605106145144"></path><path class="path" style="fill:none;stroke:#ccc;stroke-linejoin:round;stroke-linecap:round;" d="M253.86112796444286,-133.0327064152807L252.1834063644419,-151.1345705455169L251.91310677332876,-155.67127354815602L248.6695116799965,-184.2690417720005"></path><path class="path" style="fill:none;stroke:#ccc;stroke-linejoin:round;stroke-linecap:round;" d="M431.7928243199967,21.272880845703185L433.9272590222208,39.31439885403961"></path><path class="path" style="fill:none;stroke:#ccc;stroke-linejoin:round;stroke-linecap:round;" d="M433.9272590222208,39.31439885403961L438.77401031111003,38.38612274453044"></path><path class="path" style="fill:none;stroke:#ccc;stroke-linejoin:round;stroke-linecap:round;" d="M464.6575263288869,58.86805662419647L437.1056093866646,63.10517416149378L435.2414742755536,56.18804099690169"></path><path class="path" style="fill:none;stroke:#ccc;stroke-linejoin:round;stroke-linecap:round;" d="M333.2546423466629,-128.94519535452127L331.37186588444456,-143.96269307658076"></path><path class="path" style="fill:none;stroke:#ccc;stroke-linejoin:round;stroke-linecap:round;" d="M331.37186588444456,-143.96269307658076L330.9058321066623,-146.0888021029532"></path><path class="path" style="fill:none;stroke:#ccc;stroke-linejoin:round;stroke-linecap:round;" d="M330.9058321066623,-146.0888021029532L330.27202616888826,-150.98484442476183"></path><path class="path" style="fill:none;stroke:#ccc;stroke-linejoin:round;stroke-linecap:round;" d="M393.70854399999735,61.27857257798314L435.2414742755536,56.18804099690169L441.0575758222185,54.6459086202085L438.77401031111003,38.38612274453044L435.2321535999981,9.295083209872246"></path><path class="path" style="fill:none;stroke:#ccc;stroke-linejoin:round;stroke-linecap:round;" d="M309.98091548444063,71.95370441954583L393.70854399999735,61.27857257798314L394.92955249777515,71.95370441954583"></path><path class="path" style="fill:none;stroke:#ccc;stroke-linejoin:round;stroke-linecap:round;" d="M330.27202616888826,-150.98484442476183L329.8432750933316,-155.01247820537537"></path><path class="path" style="fill:none;stroke:#ccc;stroke-linejoin:round;stroke-linecap:round;" d="M255.19398456888302,-119.67718483693898L253.86112796444286,-133.0327064152807"></path><path class="path" style="fill:none;stroke:#ccc;stroke-linejoin:round;stroke-linecap:round;" d="M329.8432750933316,-155.01247820537537L329.40520334221947,-159.75880061555654"></path><path class="path" style="fill:none;stroke:#ccc;stroke-linejoin:round;stroke-linecap:round;" d="M328.8273214577748,-164.65485274791718L326.7208487822172,-184.2690417720005"></path><path class="path" style="fill:none;stroke:#ccc;stroke-linejoin:round;stroke-linecap:round;" d="M329.40520334221947,-159.75880061555654L328.8273214577748,-164.65485274791718"></path><path class="minor_road" style="fill:none;stroke:#ccc;stroke-linejoin:round;stroke-linecap:round;" d="M307.688029297773,-125.12719272635877L302.00241720888516,-175.7046713847667"></path><path class="minor_road" style="fill:none;stroke:#ccc;stroke-linejoin:round;stroke-linecap:round;" d="M354.9345336888873,-169.0268655726686L359.7067195733325,-131.96965385321528"></path><path class="minor_road" style="fill:none;stroke:#ccc;stroke-linejoin:round;stroke-linecap:round;" d="M217.82739626666444,32.60685250069946L208.65585151999767,33.93937897775322"></path><path class="minor_road" style="fill:none;stroke:#ccc;stroke-linejoin:round;stroke-linecap:round;" d="M208.65585151999767,-45.78808433935046L217.82739626666444,32.60685250069946"></path><path class="minor_road" style="fill:none;stroke:#ccc;stroke-linejoin:round;stroke-linecap:round;" d="M208.65585151999767,-114.82608257606626L255.19398456888302,-119.67718483693898L307.688029297773,-125.12719272635877L333.2546423466629,-128.94519535452127L344.76567665777475,-129.8285766588524L359.7067195733325,-131.96965385321528L464.6575263288869,-146.4631171412766"></path><path class="path" style="fill:none;stroke:#ccc;stroke-linejoin:round;stroke-linecap:round;" d="M437.1056093866646,63.10517416149378L464.6575263288869,38.446011532098055"></path><path class="path" style="fill:none;stroke:#ccc;stroke-linejoin:round;stroke-linecap:round;" d="M208.65585151999767,43.67130601312965L269.24024263110914,35.73604347370565L426.12585358221986,15.553485097363591"></path></g><g><path class="minor_road" style="fill:none;stroke:#ccc;stroke-linejoin:round;stroke-linecap:round;" d="M505.09061688888687,2.108394533395767L464.6575263288869,6.270685981027782"></path><path class="minor_road" style="fill:none;stroke:#ccc;stroke-linejoin:round;stroke-linecap:round;" d="M505.09061688888687,2.108394533395767L496.36646456888775,-73.77152189332992L527.1806179555515,-77.31999167520553"></path><path class="path" style="fill:none;stroke:#ccc;stroke-linejoin:round;stroke-linecap:round;" d="M645.7768937244418,-130.4574244339019L641.8528893155508,-181.64882241748273L660.9323121777743,-184.2690417720005"></path><path class="path" style="fill:none;stroke:#ccc;stroke-linejoin:round;stroke-linecap:round;" d="M510.88807708444074,51.756280997768044L464.6575263288869,58.86805662419647"></path><path class="path" style="fill:none;stroke:#ccc;stroke-linejoin:round;stroke-linecap:round;" d="M656.6168393955522,-132.10440698638558L659.3105146311082,-119.1232007611543L660.2146201599953,-115.58968177996576L658.797877475552,-112.4753953749314L656.6541220977742,-105.5880362605676L657.1201558755529,-96.81414972152561L660.3078269155521,-72.2892502490431L674.0837853866633,33.93937897775322L674.904004835551,40.257647034712136L675.8547137422211,47.219712879508734"></path><path class="path" style="fill:none;stroke:#ccc;stroke-linejoin:round;stroke-linecap:round;" d="M660.2146201599953,-115.58968177996576L666.4781141333315,-109.67553333006799L675.2861525333319,-103.25232474971563L689.0993937066632,-95.39176303520799L700.7502381511094,-89.43271466065198L715.2904920177753,-84.91102816257626L720.6592011377743,-83.63836859539151"></path><path class="path" style="fill:none;stroke:#ccc;stroke-linejoin:round;stroke-linecap:round;" d="M660.3078269155521,-72.2892502490431L672.573835946665,-53.229361777193844L688.9595835733307,-36.26565663795918L712.009614222221,-19.3019936690107L720.6592011377743,-14.810298268683255"></path><path class="path" style="fill:none;stroke:#ccc;stroke-linejoin:round;stroke-linecap:round;" d="M674.0837853866633,33.93937897775322L695.2417188977761,23.68341008014977L715.5794329599976,10.40303037315607L720.6592011377743,6.001185172237456"></path><path class="minor_road" style="fill:none;stroke:#ccc;stroke-linejoin:round;stroke-linecap:round;" d="M611.8682760533302,54.84054670576006L675.8547137422211,47.219712879508734L720.6592011377743,41.200895079411566"></path><path class="minor_road" style="fill:none;stroke:#ccc;stroke-linejoin:round;stroke-linecap:round;" d="M464.6575263288869,-146.4631171412766L492.4611015111077,-150.29610431287438L587.7463677155538,-161.54054395016283"></path><path class="minor_road" style="fill:none;stroke:#ccc;stroke-linejoin:round;stroke-linecap:round;" d="M590.1511020088856,-122.77650197874755L645.7768937244418,-130.4574244339019L656.6168393955522,-132.10440698638558L720.6592011377743,-141.59702324308455"></path><path class="minor_road" style="fill:none;stroke:#ccc;stroke-linejoin:round;stroke-linecap:round;" d="M505.09061688888687,2.108394533395767L510.88807708444074,51.756280997768044L513.1902839466638,71.95370441954583"></path><path class="minor_road" style="fill:none;stroke:#ccc;stroke-linejoin:round;stroke-linecap:round;" d="M492.4611015111077,-150.29610431287438L488.13630805333014,-170.16478717885911L484.38939647999905,-184.2690417720005"></path><path class="path" style="fill:none;stroke:#ccc;stroke-linejoin:round;stroke-linecap:round;" d="M464.6575263288869,38.446011532098055L495.5555657955538,10.807281322777271"></path></g><g><path class="path" style="fill:none;stroke:#ccc;stroke-linejoin:round;stroke-linecap:round;" d="M967.8155548444411,33.50518498849124L966.547942968884,28.848826998844743"></path><path class="path" style="fill:none;stroke:#ccc;stroke-linejoin:round;stroke-linecap:round;" d="M866.5743769599994,50.60342403780669L844.5682619733288,55.214850700460374L839.78675541333,25.165660554543138"></path><path class="path" style="fill:none;stroke:#ccc;stroke-linejoin:round;stroke-linecap:round;" d="M846.1620974933285,68.83950218651444L866.5743769599994,50.60342403780669L878.2345420799975,48.38754258491099L920.6715778844409,40.347480185329914L967.8155548444411,33.50518498849124L976.1762008177757,39.38925982732326L976.6608759466653,39.20959349628538"></path><path class="path" style="fill:none;stroke:#ccc;stroke-linejoin:round;stroke-linecap:round;" d="M934.1026713599967,71.95370441954583L925.0150126933295,50.55850753001869L920.6715778844409,40.347480185329914"></path><path class="path" style="fill:none;stroke:#ccc;stroke-linejoin:round;stroke-linecap:round;" d="M891.8613697422225,-167.82905356120318L889.4752767999962,-184.2690417720005"></path><path class="path" style="fill:none;stroke:#ccc;stroke-linejoin:round;stroke-linecap:round;" d="M878.2345420799975,48.38754258491099L877.8617150577738,42.84783579967916"></path><path class="path" style="fill:none;stroke:#ccc;stroke-linejoin:round;stroke-linecap:round;" d="M720.6592011377743,6.001185172237456L735.6748094577761,-7.009727614931762L752.6943630222195,-22.95524144358933L768.1480430933316,-41.34128861874342L779.099836871108,-58.724233825691044L786.3886051555528,-79.16160329990089"></path><path class="path" style="fill:none;stroke:#ccc;stroke-linejoin:round;stroke-linecap:round;" d="M720.6592011377743,-83.63836859539151L734.3233115022194,-80.374372205697L755.5185277155524,-78.2482836516574L773.1346045155533,-78.00872442126274L786.3886051555528,-79.16160329990089L794.0129177599956,-80.14978535566479"></path><path class="path" style="fill:none;stroke:#ccc;stroke-linejoin:round;stroke-linecap:round;" d="M720.6592011377743,-14.810298268683255L735.6748094577761,-7.009727614931762L754.8567597511083,2.7821469185873866L771.056093866664,9.250166429206729L784.5803940977748,12.49914613738656L793.024926151109,14.415594273246825L800.1738843022213,15.194151172414422"></path><path class="minor_road" style="fill:none;stroke:#ccc;stroke-linejoin:round;stroke-linecap:round;" d="M843.8878526577755,71.95370441954583L842.6575234844404,69.2587217995897"></path><path class="minor_road" style="fill:none;stroke:#ccc;stroke-linejoin:round;stroke-linecap:round;" d="M820.0176025599976,71.95370441954583L842.6575234844404,69.2587217995897L846.1620974933285,68.83950218651444"></path><path class="minor_road" style="fill:none;stroke:#ccc;stroke-linejoin:round;stroke-linecap:round;" d="M801.1432345599969,30.361020777374506L800.1738843022213,15.194151172414422L794.0129177599956,-80.14978535566479L786.1183055644415,-151.28429666999727"></path><path class="minor_road" style="fill:none;stroke:#ccc;stroke-linejoin:round;stroke-linecap:round;" d="M720.6592011377743,41.200895079411566L801.1432345599969,30.361020777374506L839.78675541333,25.165660554543138L837.3913417955519,1.1651410842314363"></path><path class="minor_road" style="fill:none;stroke:#ccc;stroke-linejoin:round;stroke-linecap:round;" d="M720.6592011377743,-141.59702324308455L786.1183055644415,-151.28429666999727L840.7281436444428,-159.11497750971466L891.8613697422225,-167.82905356120318L898.2460324977746,-168.93702966254205L976.6608759466653,-181.7236858131364"></path><path class="minor_road" style="fill:none;stroke:#ccc;stroke-linejoin:round;stroke-linecap:round;" d="M898.2460324977746,-168.93702966254205L895.9345049599979,-184.2690417720005"></path><path class="minor_road" style="fill:none;stroke:#ccc;stroke-linejoin:round;stroke-linecap:round;" d="M870.8525670399977,44.04561062157154L877.8617150577738,42.84783579967916L966.547942968884,28.848826998844743L976.6608759466653,27.71093839034438"></path><path class="minor_road" style="fill:none;stroke:#ccc;stroke-linejoin:round;stroke-linecap:round;" d="M898.2460324977746,-168.93702966254205L920.1682614044421,-20.155416131019592L925.173464177773,10.028723917901516"></path><path class="minor_road" style="fill:none;stroke:#ccc;stroke-linejoin:round;stroke-linecap:round;" d="M920.1682614044421,-20.155416131019592L976.6608759466653,-30.082074696198106"></path><path class="minor_road" style="fill:none;stroke:#ccc;stroke-linejoin:round;stroke-linecap:round;" d="M840.7281436444428,-159.11497750971466L870.8525670399977,44.04561062157154"></path></g><g><path class="path" style="fill:none;stroke:#ccc;stroke-linejoin:round;stroke-linecap:round;" d="M147.8757262222207,112.43820413760841L114.92713813333103,116.95975687075406"></path><path class="minor_road" style="fill:none;stroke:#ccc;stroke-linejoin:round;stroke-linecap:round;" d="M208.65585151999767,211.88172861747444L206.28839992888607,192.5830308860168L207.68650126221837,176.29362989030778"></path><path class="minor_road" style="fill:none;stroke:#ccc;stroke-linejoin:round;stroke-linecap:round;" d="M208.65585151999767,313.59948641899973L142.16215210666633,320.3366997372359"></path><path class="minor_road" style="fill:none;stroke:#ccc;stroke-linejoin:round;stroke-linecap:round;" d="M-47.34582328889155,115.552386472933L-12.020462933334784,111.16558113880455"></path><path class="minor_road" style="fill:none;stroke:#ccc;stroke-linejoin:round;stroke-linecap:round;" d="M35.73867861333201,162.83388410322368L43.484159999999974,229.18912562262267L-47.34582328889155,241.18150905054063"></path><path class="minor_road" style="fill:none;stroke:#ccc;stroke-linejoin:round;stroke-linecap:round;" d="M25.392728746664943,87.65944307018071L35.73867861333201,162.83388410322368"></path><path class="minor_road" style="fill:none;stroke:#ccc;stroke-linejoin:round;stroke-linecap:round;" d="M43.484159999999974,229.18912562262267L45.23644700444129,244.98433285020292"></path><path class="minor_road" style="fill:none;stroke:#ccc;stroke-linejoin:round;stroke-linecap:round;" d="M-47.34582328889155,172.6854025349021L-4.470715733335965,167.59495405852795L35.73867861333201,162.83388410322368L120.61275022221889,152.7577722724527"></path><path class="minor_road" style="fill:none;stroke:#ccc;stroke-linejoin:round;stroke-linecap:round;" d="M-17.025665706667496,71.95370441954583L-12.020462933334784,111.16558113880455L-4.470715733335965,167.59495405852795"></path><path class="minor_road" style="fill:none;stroke:#ccc;stroke-linejoin:round;stroke-linecap:round;" d="M-47.34582328889155,313.9588046306744L32.87723121777162,303.3888526670635L122.70990222221735,293.3578632865101L139.28206335999857,292.1002456638962"></path><path class="minor_road" style="fill:none;stroke:#ccc;stroke-linejoin:round;stroke-linecap:round;" d="M124.83501624888595,186.19004450552166L197.45239950222094,177.53629696089774L207.68650126221837,176.29362989030778L208.65585151999767,176.18882663175464"></path><path class="minor_road" style="fill:none;stroke:#ccc;stroke-linejoin:round;stroke-linecap:round;" d="M197.40579612444344,71.95370441954583L207.68650126221837,176.29362989030778"></path><path class="minor_road" style="fill:none;stroke:#ccc;stroke-linejoin:round;stroke-linecap:round;" d="M32.87723121777162,303.3888526670635L36.251315768884524,327.7476267032325"></path><path class="major_road" style="fill:none;stroke:#ccc;stroke-linejoin:round;stroke-linecap:round;" d="M124.83501624888595,186.19004450552166L139.28206335999857,292.1002456638962L142.16215210666633,320.3366997372359L143.1781057422195,327.7476267032325"></path><path class="major_road" style="fill:none;stroke:#ccc;stroke-linejoin:round;stroke-linecap:round;" d="M108.74753023999801,71.95370441954583L114.92713813333103,116.95975687075406L120.61275022221889,152.7577722724527L124.83501624888595,186.19004450552166"></path><path class="major_road" style="fill:none;stroke:#ccc;stroke-linejoin:round;stroke-linecap:round;" d="M127.40752270221856,327.7476267032325L122.70990222221735,293.3578632865101L93.21928476444373,71.95370441954583"></path></g><g><path class="path" style="fill:none;stroke:#ccc;stroke-linejoin:round;stroke-linecap:round;" d="M279.06423466666456,167.7895889217034L277.48904049777775,154.44960189703852L268.35477845332935,77.25383380055428L309.98091548444063,71.95370441954583M394.92955249777515,71.95370441954583L395.5260757333308,77.14902902394533L404.1663419733304,152.8625758914277"></path><path class="minor_road" style="fill:none;stroke:#ccc;stroke-linejoin:round;stroke-linecap:round;" d="M329.47976874666347,301.36768435221165L208.65585151999767,313.59948641899973"></path><path class="minor_road" style="fill:none;stroke:#ccc;stroke-linejoin:round;stroke-linecap:round;" d="M310.6054007466628,238.7261413782835L218.26546801777658,249.9549497421831L212.27227363554994,241.28631131071597L208.65585151999767,211.88172861747444"></path><path class="minor_road" style="fill:none;stroke:#ccc;stroke-linejoin:round;stroke-linecap:round;" d="M464.6575263288869,236.48037748225033L325.2202200177744,251.916246377863L322.29352789332916,247.45467001013458L317.05530823110894,240.7173847388476L310.6054007466628,238.7261413782835"></path><path class="minor_road" style="fill:none;stroke:#ccc;stroke-linejoin:round;stroke-linecap:round;" d="M208.65585151999767,176.18882663175464L279.06423466666456,167.7895889217034L404.1663419733304,152.8625758914277L464.6575263288869,145.64609449077398"></path></g><g><path class="path" style="fill:none;stroke:#ccc;stroke-linejoin:round;stroke-linecap:round;" d="M643.1391425422207,327.7476267032325L613.3595841422193,163.13332256488502"></path><path class="path" style="fill:none;stroke:#ccc;stroke-linejoin:round;stroke-linecap:round;" d="M613.3595841422193,163.13332256488502L627.918479359998,160.91747764870524"></path><path class="path" style="fill:none;stroke:#ccc;stroke-linejoin:round;stroke-linecap:round;" d="M519.8359256177773,195.0533870169893L537.5824918755516,192.9124117558822L533.3043017955515,157.3242141008377L486.0857594311092,162.75902448873967L483.9886074311071,143.34041210450232"></path><path class="minor_road" style="fill:none;stroke:#ccc;stroke-linejoin:round;stroke-linecap:round;" d="M621.431289173328,127.14072557352483L680.1142624711083,119.46008441410959"></path><path class="minor_road" style="fill:none;stroke:#ccc;stroke-linejoin:round;stroke-linecap:round;" d="M477.58530332444025,302.5354705611244L642.7849568711081,286.4259918546304"></path><path class="minor_road" style="fill:none;stroke:#ccc;stroke-linejoin:round;stroke-linecap:round;" d="M519.8359256177773,195.0533870169893L493.7566754133313,197.5986014874652L497.3824182044409,232.8572101816535"></path><path class="minor_road" style="fill:none;stroke:#ccc;stroke-linejoin:round;stroke-linecap:round;" d="M720.6592011377743,199.0059549640864L693.2470943288845,207.71956258174032L701.2162719288863,256.7670844811946"></path><path class="minor_road" style="fill:none;stroke:#ccc;stroke-linejoin:round;stroke-linecap:round;" d="M680.1142624711083,119.46008441410959L677.6908868266637,103.21542503219098L720.6592011377743,97.90034374874085"></path><path class="minor_road" style="fill:none;stroke:#ccc;stroke-linejoin:round;stroke-linecap:round;" d="M680.1142624711083,119.46008441410959L682.3139419022191,132.51567204110324L720.6592011377743,127.72463361080736"></path><path class="minor_road" style="fill:none;stroke:#ccc;stroke-linejoin:round;stroke-linecap:round;" d="M682.3139419022191,132.51567204110324L687.1979758933303,168.20880246069282L720.6592011377743,164.03163786418736"></path><path class="minor_road" style="fill:none;stroke:#ccc;stroke-linejoin:round;stroke-linecap:round;" d="M497.3824182044409,232.8572101816535L464.6575263288869,236.48037748225033"></path><path class="minor_road" style="fill:none;stroke:#ccc;stroke-linejoin:round;stroke-linecap:round;" d="M513.1902839466638,71.95370441954583L520.8145965511103,138.93865265604109"></path><path class="minor_road" style="fill:none;stroke:#ccc;stroke-linejoin:round;stroke-linecap:round;" d="M464.6575263288869,145.64609449077398L483.9886074311071,143.34041210450232L520.8145965511103,138.93865265604109L608.9975079822198,128.42831759154797L621.431289173328,127.14072557352483"></path></g><g><path class="path" style="fill:none;stroke:#ccc;stroke-linejoin:round;stroke-linecap:round;" d="M771.7831065599967,91.56715698447078L776.6484991999987,120.73270586971194"></path><path class="path" style="fill:none;stroke:#ccc;stroke-linejoin:round;stroke-linecap:round;" d="M966.2776433777744,147.6673089331016L962.8196727466639,139.53753166086972L934.1026713599967,71.95370441954583"></path><path class="minor_road" style="fill:none;stroke:#ccc;stroke-linejoin:round;stroke-linecap:round;" d="M974.4705171911082,165.01978456042707L926.5995275377754,185.48636648245156"></path><path class="minor_road" style="fill:none;stroke:#ccc;stroke-linejoin:round;stroke-linecap:round;" d="M976.6608759466653,153.91061197500676L970.5558334577763,156.4109259787947"></path><path class="minor_road" style="fill:none;stroke:#ccc;stroke-linejoin:round;stroke-linecap:round;" d="M954.2539719111082,327.7476267032325L879.054761528887,164.8101776940748L794.6001203199994,175.48514757677913L784.2821324799952,178.94365457631648"></path><path class="minor_road" style="fill:none;stroke:#ccc;stroke-linejoin:round;stroke-linecap:round;" d="M976.6608759466653,169.8107968000695L974.4705171911082,165.01978456042707L970.5558334577763,156.4109259787947L966.2776433777744,147.6673089331016L892.4858550044428,178.3298071390018L843.8878526577755,71.95370441954583"></path><path class="minor_road" style="fill:none;stroke:#ccc;stroke-linejoin:round;stroke-linecap:round;" d="M720.6592011377743,127.72463361080736L776.6484991999987,120.73270586971194L850.4216462222175,113.78568705171347"></path><path class="minor_road" style="fill:none;stroke:#ccc;stroke-linejoin:round;stroke-linecap:round;" d="M720.6592011377743,164.03163786418736L865.0644275199975,146.03536546695977"></path><path class="minor_road" style="fill:none;stroke:#ccc;stroke-linejoin:round;stroke-linecap:round;" d="M771.7271825066655,182.76148494146764L720.6592011377743,199.0059549640864"></path><path class="minor_road" style="fill:none;stroke:#ccc;stroke-linejoin:round;stroke-linecap:round;" d="M784.2821324799952,178.94365457631648L771.7271825066655,182.76148494146764"></path><path class="minor_road" style="fill:none;stroke:#ccc;stroke-linejoin:round;stroke-linecap:round;" d="M720.6592011377743,97.90034374874085L771.7831065599967,91.56715698447078L769.3876929422186,77.97249509487301L820.0176025599976,71.95370441954583"></path></g><g><path class="path" style="fill:none;stroke:#ccc;stroke-linejoin:round;stroke-linecap:round;" d="M208.65585151999767,451.9954844787717L199.9503405511059,457.0557782575488L199.19536583110676,472.31149329431355L200.20199879110805,484.3034494770691L203.2032563199973,494.5587261216715L208.65585151999767,496.20555743575096"></path><path class="path" style="fill:none;stroke:#ccc;stroke-linejoin:round;stroke-linecap:round;" d="M198.91574556444175,535.4898519692943L199.78256839111054,542.7358632981777L186.92003612444023,544.3677118979394L187.49791800888852,550.6705363020301"></path><path class="path" style="fill:none;stroke:#ccc;stroke-linejoin:round;stroke-linecap:round;" d="M159.75958755555257,563.7851831559092L168.4091744711077,562.6324126934633L169.96572728888714,576.4806163748726L176.57408625777316,575.5673843501136"></path><path class="path" style="fill:none;stroke:#ccc;stroke-linejoin:round;stroke-linecap:round;" d="M152.8529669688869,514.1110794842243L159.29355377777392,513.3625218123198L161.44662983110538,529.2319268994033L170.6181745777758,528.0941217262298"></path><path class="path" style="fill:none;stroke:#ccc;stroke-linejoin:round;stroke-linecap:round;" d="M144.3245488355533,542.7208922086284L145.16340963555194,549.5027925511822L133.06517276444356,550.8352180980146L133.96927829333072,557.7967630643398"></path><path class="minor_road" style="fill:none;stroke:#ccc;stroke-linejoin:round;stroke-linecap:round;" d="M-47.34582328889155,440.272955192253L-33.97065386666873,438.7458809306845"></path><path class="minor_road" style="fill:none;stroke:#ccc;stroke-linejoin:round;stroke-linecap:round;" d="M-33.97065386666873,438.7458809306845L-47.34582328889155,360.99938377924263"></path><path class="minor_road" style="fill:none;stroke:#ccc;stroke-linejoin:round;stroke-linecap:round;" d="M101.80362695110671,583.9511491786689L98.52274915555245,562.6324126934633"></path><path class="minor_road" style="fill:none;stroke:#ccc;stroke-linejoin:round;stroke-linecap:round;" d="M-33.97065386666873,438.7458809306845L-24.36103736888981,500.99633716885L-18.694066631112946,563.5157043663785"></path><path class="minor_road" style="fill:none;stroke:#ccc;stroke-linejoin:round;stroke-linecap:round;" d="M36.251315768884524,327.7476267032325L67.46625820444024,553.2455602772534"></path><path class="minor_road" style="fill:none;stroke:#ccc;stroke-linejoin:round;stroke-linecap:round;" d="M-24.36103736888981,500.99633716885L-47.34582328889155,504.5594774149358"></path><path class="minor_road" style="fill:none;stroke:#ccc;stroke-linejoin:round;stroke-linecap:round;" d="M44.99410943999828,569.5640035644174L46.68115171555473,583.9511491786689"></path><path class="major_road" style="fill:none;stroke:#ccc;stroke-linejoin:round;stroke-linecap:round;" d="M158.52925838221927,554.3833612566814L156.5532751644423,540.9992166543379"></path><path class="major_road" style="fill:none;stroke:#ccc;stroke-linejoin:round;stroke-linecap:round;" d="M156.5532751644423,540.9992166543379L152.8529669688869,514.1110794842243L127.40752270221856,327.7476267032325"></path><path class="major_road" style="fill:none;stroke:#ccc;stroke-linejoin:round;stroke-linecap:round;" d="M143.1781057422195,327.7476267032325L170.04961336888664,523.9022062877193L170.6181745777758,528.0941217262298L171.9976345599971,538.8733210237697"></path><path class="major_road" style="fill:none;stroke:#ccc;stroke-linejoin:round;stroke-linecap:round;" d="M173.74060088888655,552.4221515543759L176.57408625777316,575.5673843501136L177.5247951644451,583.9511491786689"></path><path class="major_road" style="fill:none;stroke:#ccc;stroke-linejoin:round;stroke-linecap:round;" d="M171.9976345599971,538.8733210237697L173.74060088888655,552.4221515543759"></path><path class="major_road" style="fill:none;stroke:#ccc;stroke-linejoin:round;stroke-linecap:round;" d="M162.21092522666368,583.9511491786689L160.49592092444072,569.8334821145982L159.75958755555257,563.7851831559092L158.52925838221927,554.3833612566814"></path><path class="major_road" style="fill:none;stroke:#ccc;stroke-linejoin:round;stroke-linecap:round;" d="M158.52925838221927,554.3833612566814L133.95995761777522,557.7967630643398L98.52274915555245,562.6324126934633L44.99410943999828,569.5640035644174L-47.34582328889155,579.9838331742212"></path><path class="major_road" style="fill:none;stroke:#ccc;stroke-linejoin:round;stroke-linecap:round;" d="M-47.34582328889155,566.8243043422699L-18.694066631112946,563.5157043663785L67.46625820444024,553.2455602772534L139.42187349333108,543.424533396028L144.3245488355533,542.7208922086284L156.5532751644423,540.9992166543379"></path><path class="major_road" style="fill:none;stroke:#ccc;stroke-linejoin:round;stroke-linecap:round;" d="M171.9976345599971,538.8733210237697L198.91574556444175,535.4898519692943L208.65585151999767,534.2921634046361"></path><path class="major_road" style="fill:none;stroke:#ccc;stroke-linejoin:round;stroke-linecap:round;" d="M156.5532751644423,540.9992166543379L171.9976345599971,538.8733210237697"></path><path class="major_road" style="fill:none;stroke:#ccc;stroke-linejoin:round;stroke-linecap:round;" d="M173.73128021333105,552.4221515543759L158.52925838221927,554.3833612566814"></path><path class="major_road" style="fill:none;stroke:#ccc;stroke-linejoin:round;stroke-linecap:round;" d="M208.65585151999767,547.8709451863542L193.5097537422189,550.0118090836331L187.49791800888852,550.6705363020301L173.73128021333105,552.4221515543759"></path></g><g><path class="path" style="fill:none;stroke:#ccc;stroke-linejoin:round;stroke-linecap:round;" d="M351.69093859555505,469.7813525320962L348.60579498666266,470.06580627243966L266.57452942222153,479.81208258681"></path><path class="path" style="fill:none;stroke:#ccc;stroke-linejoin:round;stroke-linecap:round;" d="M361.803871573331,521.4319691983983L362.5868083200003,511.28153104893863L362.6706943999998,502.34374336060137L362.8291458844433,492.92686561495066L365.5507831466639,484.40824800077826L372.51332778666256,475.59019501972944L383.8193072355534,467.86503227707L399.6830970311057,464.06233267392963L414.19538887110684,462.0262406812981L432.557119715555,460.8584817601368L447.0507702044415,464.78095323219895L456.6510660266649,474.37752470187843L463.83730687999923,487.192893945612L464.6575263288869,490.1871356284246"></path><path class="path" style="fill:none;stroke:#ccc;stroke-linejoin:round;stroke-linecap:round;" d="M348.60579498666266,470.06580627243966L353.26613276444186,503.4066969482228"></path><path class="path" style="fill:none;stroke:#ccc;stroke-linejoin:round;stroke-linecap:round;" d="M299.54175886221856,522.9889672249556L301.2381218133305,534.4568455955014"></path><path class="path" style="fill:none;stroke:#ccc;stroke-linejoin:round;stroke-linecap:round;" d="M270.33076167110994,513.9314256496727L353.26613276444186,503.4066969482228L362.6706943999998,502.34374336060137"></path><path class="path" style="fill:none;stroke:#ccc;stroke-linejoin:round;stroke-linecap:round;" d="M216.20559872000013,393.5622936822474L216.70891519999714,399.56582930125296L244.7082245688871,428.31086432002485L261.4481578666637,429.8079982409254L264.9527318755536,463.5533097349107L257.4589087288841,468.5537099307403M257.4589087288841,468.5537099307403L246.69352846221955,459.8104928173125L235.69513130666382,458.0588537948206L227.94964991999586,456.83120908774436L213.69833699555602,449.0611112229526L208.65585151999767,451.9954844787717M208.65585151999767,496.20555743575096L218.20954396443994,499.0650544920936L232.70319445333007,503.0623598881066L247.19684494221656,500.30766278970987L257.4589087288841,489.812855489552L258.9595374933306,477.3118870733306L257.4589087288841,468.5537099307403"></path><path class="path" style="fill:none;stroke:#ccc;stroke-linejoin:round;stroke-linecap:round;" d="M258.4562210133299,423.055921648629L244.7082245688871,421.57375760097057L217.95788572444144,393.5622936822474"></path><path class="minor_road" style="fill:none;stroke:#ccc;stroke-linejoin:round;stroke-linecap:round;" d="M291.08790613332894,524.0369464661926L292.7283450311079,535.9389851251617"></path><path class="minor_road" style="fill:none;stroke:#ccc;stroke-linejoin:round;stroke-linecap:round;" d="M292.7283450311079,535.9389851251617L298.15297820444175,583.9511491786689"></path><path class="major_road" style="fill:none;stroke:#ccc;stroke-linejoin:round;stroke-linecap:round;" d="M291.08790613332894,524.0369464661926L299.54175886221856,522.9889672249556L361.803871573331,521.4319691983983"></path><path class="major_road" style="fill:none;stroke:#ccc;stroke-linejoin:round;stroke-linecap:round;" d="M292.7283450311079,535.9389851251617L208.65585151999767,547.8709451863542"></path><path class="major_road" style="fill:none;stroke:#ccc;stroke-linejoin:round;stroke-linecap:round;" d="M361.803871573331,521.4319691983983L301.2381218133305,534.4568455955014L292.7283450311079,535.9389851251617"></path><path class="major_road" style="fill:none;stroke:#ccc;stroke-linejoin:round;stroke-linecap:round;" d="M208.65585151999767,534.2921634046361L291.08790613332894,524.0369464661926"></path><path class="major_road" style="fill:none;stroke:#ccc;stroke-linejoin:round;stroke-linecap:round;" d="M361.803871573331,521.4319691983983L464.6575263288869,508.2723274566233"></path></g><g><path class="path" style="fill:none;stroke:#ccc;stroke-linejoin:round;stroke-linecap:round;" d="M649.0950542222199,360.6101250657812L669.6005404444422,357.21159612666816"></path><path class="path" style="fill:none;stroke:#ccc;stroke-linejoin:round;stroke-linecap:round;" d="M679.657549368887,583.9511491786689L673.4126967466655,536.9719912763685L667.708443306663,494.04970545787364L662.0321518933288,453.2979864925146L649.0950542222199,360.6101250657812L643.1391425422207,327.7476267032325"></path><path class="path" style="fill:none;stroke:#ccc;stroke-linejoin:round;stroke-linecap:round;" d="M685.9769673955525,535.0257476745173L673.4126967466655,536.9719912763685"></path><path class="path" style="fill:none;stroke:#ccc;stroke-linejoin:round;stroke-linecap:round;" d="M644.6956953599965,464.1970740361139L482.29224447999877,483.3902051169425L481.04327395555265,506.1314504612237"></path><path class="path" style="fill:none;stroke:#ccc;stroke-linejoin:round;stroke-linecap:round;" d="M464.6575263288869,490.1871356284246L466.2420411733292,495.9809895539656L467.7799526399958,507.86810597777367"></path><path class="path" style="fill:none;stroke:#ccc;stroke-linejoin:round;stroke-linecap:round;" d="M643.9034379377754,456.18744408804923L644.6956953599965,464.1970740361139"></path><path class="path" style="fill:none;stroke:#ccc;stroke-linejoin:round;stroke-linecap:round;" d="M662.0321518933288,453.2979864925146L643.9034379377754,456.18744408804923"></path><path class="path" style="fill:none;stroke:#ccc;stroke-linejoin:round;stroke-linecap:round;" d="M644.6956953599965,464.1970740361139L659.3944007111077,463.4634821517393"></path><path class="path" style="fill:none;stroke:#ccc;stroke-linejoin:round;stroke-linecap:round;" d="M651.4904678399962,357.21159612666816L669.2836374755534,354.5616406686604"></path><path class="minor_road" style="fill:none;stroke:#ccc;stroke-linejoin:round;stroke-linecap:round;" d="M547.0895809422182,583.9511491786689L536.9020825599982,520.997806224972L535.9606943288854,515.1141466349363L533.4161499022212,499.48424767609686"></path><path class="minor_road" style="fill:none;stroke:#ccc;stroke-linejoin:round;stroke-linecap:round;" d="M617.8335084088849,583.9511491786689L613.6112423822196,577.0195729229599L609.4169383822209,566.3452311437577L611.6632211911074,562.4976732805371L619.0731582577755,560.3867553984746L658.3411643733289,555.6559016024694"></path><path class="major_road" style="fill:none;stroke:#ccc;stroke-linejoin:round;stroke-linecap:round;" d="M649.5610879999986,583.9511491786689L663.4022911999964,575.5075002769008L670.5046459733294,572.0042811762542L682.1461697422219,566.2404338754714"></path><path class="major_road" style="fill:none;stroke:#ccc;stroke-linejoin:round;stroke-linecap:round;" d="M682.1461697422219,566.2404338754714L720.6592011377743,549.0836024405435"></path><path class="major_road" style="fill:none;stroke:#ccc;stroke-linejoin:round;stroke-linecap:round;" d="M668.9387724799963,484.6627587005496L696.7516683377744,481.1894354140386L720.6592011377743,477.65622543077916"></path><path class="major_road" style="fill:none;stroke:#ccc;stroke-linejoin:round;stroke-linecap:round;" d="M533.4161499022212,499.48424767609686L552.9616065422215,497.34336792491376L659.180025173333,485.8754271911457L668.9387724799963,484.6627587005496"></path><path class="major_road" style="fill:none;stroke:#ccc;stroke-linejoin:round;stroke-linecap:round;" d="M464.6575263288869,508.2723274566233L467.7799526399958,507.86810597777367L481.04327395555265,506.1314504612237L486.97122360888534,505.39786308445036L494.7073843199978,504.40976567659527L533.4161499022212,499.48424767609686"></path></g><g><path class="path" style="fill:none;stroke:#ccc;stroke-linejoin:round;stroke-linecap:round;" d="M772.8177015466645,504.5744485873729L790.7972846933317,498.93031381908804"></path><path class="path" style="fill:none;stroke:#ccc;stroke-linejoin:round;stroke-linecap:round;" d="M765.5848573155527,471.02396616060287L769.1360347022201,495.24740108288825L772.8177015466645,504.5744485873729L776.6764612266634,515.8177906693891L780.6657103644393,519.9797687958926"></path><path class="path" style="fill:none;stroke:#ccc;stroke-linejoin:round;stroke-linecap:round;" d="M971.7954833066633,532.3608901519328L935.1745490488847,544.6371914437041"></path><path class="minor_road" style="fill:none;stroke:#ccc;stroke-linejoin:round;stroke-linecap:round;" d="M976.6608759466653,375.50674076285213L975.0017956977736,372.69210631772876"></path><path class="minor_road" style="fill:none;stroke:#ccc;stroke-linejoin:round;stroke-linecap:round;" d="M975.0017956977736,372.69210631772876L954.2539719111082,327.7476267032325"></path><path class="minor_road" style="fill:none;stroke:#ccc;stroke-linejoin:round;stroke-linecap:round;" d="M754.5771394844396,500.71188471466303L762.0430006044407,519.770172836259L765.370481777778,529.1570713017136"></path><path class="minor_road" style="fill:none;stroke:#ccc;stroke-linejoin:round;stroke-linecap:round;" d="M787.7214617599984,583.9511491786689L765.370481777778,529.1570713017136"></path><path class="minor_road" style="fill:none;stroke:#ccc;stroke-linejoin:round;stroke-linecap:round;" d="M948.465832391108,583.9511491786689L935.1745490488847,544.6371914437041"></path><path class="minor_road" style="fill:none;stroke:#ccc;stroke-linejoin:round;stroke-linecap:round;" d="M976.6608759466653,497.55296457279474L971.7022765511083,499.2147663477808"></path><path class="minor_road" style="fill:none;stroke:#ccc;stroke-linejoin:round;stroke-linecap:round;" d="M839.2275148799981,481.9679390657693L853.4042623999976,487.26775000151247L888.7482641066636,583.9511491786689"></path><path class="major_road" style="fill:none;stroke:#ccc;stroke-linejoin:round;stroke-linecap:round;" d="M720.6592011377743,549.0836024405435L765.370481777778,529.1570713017136L780.6657103644393,519.9797687958926L803.1471798044422,505.48769011255354L827.4555016533286,489.85776910651475L839.2275148799981,481.9679390657693L842.7507302399954,474.1379848625511L841.2128187733306,451.8457715911791"></path><path class="major_road" style="fill:none;stroke:#ccc;stroke-linejoin:round;stroke-linecap:round;" d="M976.6608759466653,400.9581697266549L955.0648706844404,411.43814229685813L895.9065429333314,436.4852115409449L841.2128187733306,451.8457715911791"></path><path class="major_road" style="fill:none;stroke:#ccc;stroke-linejoin:round;stroke-linecap:round;" d="M720.6592011377743,477.65622543077916L765.5848573155527,471.02396616060287L800.0340741688851,463.3586833020672L841.2128187733306,451.8457715911791"></path></g><g><path class="path" style="fill:none;stroke:#ccc;stroke-linejoin:round;stroke-linecap:round;" d="M173.04155022221676,758.4957992983982L182.08260551110652,756.5645894948393L197.32191004444394,753.450699666515L208.65585151999767,754.3339666360989M208.65585151999767,781.1912162024528L201.30183850666435,782.7182138366625L185.46601073777492,784.948827416636L175.91231829333265,786.116530877538L173.96429710221855,772.5831349017099L173.04155022221676,758.4957992983982"></path><path class="minor_road" style="fill:none;stroke:#ccc;stroke-linejoin:round;stroke-linecap:round;" d="M-9.475918506672315,813.8569146310911L-47.34582328889155,712.086730289273"></path><path class="minor_road" style="fill:none;stroke:#ccc;stroke-linejoin:round;stroke-linecap:round;" d="M46.68115171555473,583.9511491786689L71.46482801777529,795.1886817431077"></path><path class="minor_road" style="fill:none;stroke:#ccc;stroke-linejoin:round;stroke-linecap:round;" d="M132.24495331555227,781.5654803607613L101.80362695110671,583.9511491786689"></path><path class="minor_road" style="fill:none;stroke:#ccc;stroke-linejoin:round;stroke-linecap:round;" d="M208.65585151999767,695.7686278028414L190.38732743110813,697.8196208067238L176.26650396444165,699.8556424546987"></path><path class="major_road" style="fill:none;stroke:#ccc;stroke-linejoin:round;stroke-linecap:round;" d="M183.48070684443883,770.547134956345L182.08260551110652,756.5645894948393L176.26650396444165,699.8556424546987L162.21092522666368,583.9511491786689"></path><path class="major_road" style="fill:none;stroke:#ccc;stroke-linejoin:round;stroke-linecap:round;" d="M198.95302826666375,766.0559564512223L201.30183850666435,782.7182138366625L208.65585151999767,835.1898367675021"></path><path class="major_road" style="fill:none;stroke:#ccc;stroke-linejoin:round;stroke-linecap:round;" d="M183.48070684443883,770.547134956345L173.96429710221855,772.5831349017099L132.24495331555227,781.5654803607613L71.46482801777529,795.1886817431077L-9.475918506672315,813.8569146310911L-47.34582328889155,824.8751901108772"></path><path class="major_road" style="fill:none;stroke:#ccc;stroke-linejoin:round;stroke-linecap:round;" d="M177.5247951644451,583.9511491786689L190.38732743110813,697.8196208067238L197.32191004444394,753.450699666515L198.95302826666375,766.0559564512223"></path><path class="major_road" style="fill:none;stroke:#ccc;stroke-linejoin:round;stroke-linecap:round;" d="M193.02507861332924,839.7408515270799L185.46601073777492,784.948827416636L183.48070684443883,770.547134956345"></path><path class="major_road" style="fill:none;stroke:#ccc;stroke-linejoin:round;stroke-linecap:round;" d="M198.95302826666375,766.0559564512223L183.48070684443883,770.547134956345"></path><path class="major_road" style="fill:none;stroke:#ccc;stroke-linejoin:round;stroke-linecap:round;" d="M208.65585151999767,765.1427497947589L198.95302826666375,766.0559564512223"></path></g><g><path class="path" style="fill:none;stroke:#ccc;stroke-linejoin:round;stroke-linecap:round;" d="M464.6575263288869,673.4322260944173L458.8973488355514,671.7704667439684"></path><path class="path" style="fill:none;stroke:#ccc;stroke-linejoin:round;stroke-linecap:round;" d="M208.65585151999767,754.3339666360989L213.56784753777538,754.7232028907165L214.48127374221804,764.5738668991253L217.05378019555064,777.3437794679776L209.68112583110633,780.9666576953605L208.65585151999767,781.1912162024528"></path><path class="minor_road" style="fill:none;stroke:#ccc;stroke-linejoin:round;stroke-linecap:round;" d="M209.08460259555432,838.2438075356185L283.249217991106,807.8537434656173L294.21033244444334,824.9799834033474L308.92767914666547,818.2282977905124"></path><path class="minor_road" style="fill:none;stroke:#ccc;stroke-linejoin:round;stroke-linecap:round;" d="M313.0380970666629,682.4895559744909L347.06788351999785,677.0401886925101"></path><path class="minor_road" style="fill:none;stroke:#ccc;stroke-linejoin:round;stroke-linecap:round;" d="M436.0430523733303,839.7408515270799L379.3453829688842,743.2407240169123"></path><path class="minor_road" style="fill:none;stroke:#ccc;stroke-linejoin:round;stroke-linecap:round;" d="M440.11618759110934,735.6356295868754L441.0389344711075,741.4143044715747L444.30117091555076,750.3667496871203L464.6575263288869,783.8859176812693"></path><path class="minor_road" style="fill:none;stroke:#ccc;stroke-linejoin:round;stroke-linecap:round;" d="M313.0380970666629,682.4895559744909L252.78925027555306,690.828277152963L208.65585151999767,695.7686278028414"></path><path class="minor_road" style="fill:none;stroke:#ccc;stroke-linejoin:round;stroke-linecap:round;" d="M444.3570949688874,682.8338839812204L439.1561580088892,681.9206661880016L436.0057696711083,680.3637044215575L432.14700999110573,676.7707143761218L429.75159637333127,672.0698828734457L429.3321659733301,664.9437754442915L431.1403770311117,659.9884316464886L432.743533226665,657.7428063834086L438.14020437332874,653.71564989537L443.2665759288866,652.4730695327744L448.99879139555196,653.1766994073987L453.64980849777567,655.6618596473709L457.3221546666646,659.823752486147L459.2049311288865,664.7641255808994L458.8973488355514,671.7704667439684L456.5951419733319,676.5461524324492L452.810947697777,680.1990257529542L448.0014791111098,682.3548189224675L444.3570949688874,682.8338839812204"></path><path class="minor_road" style="fill:none;stroke:#ccc;stroke-linejoin:round;stroke-linecap:round;" d="M255.83711118221981,722.1021334975958L252.78925027555306,690.828277152963L243.07710634666364,612.4259306797758"></path><path class="minor_road" style="fill:none;stroke:#ccc;stroke-linejoin:round;stroke-linecap:round;" d="M298.15297820444175,583.9511491786689L303.08361557333046,627.516618446447L311.7238818133301,671.4710506042466L313.0380970666629,682.4895559744909"></path><path class="minor_road" style="fill:none;stroke:#ccc;stroke-linejoin:round;stroke-linecap:round;" d="M346.6018497422192,839.7408515270799L304.6401683911099,774.3646343564615L301.5363834311065,754.6782910171896"></path><path class="minor_road" style="fill:none;stroke:#ccc;stroke-linejoin:round;stroke-linecap:round;" d="M313.0380970666629,682.4895559744909L312.7398354488869,692.6547102322802L317.8102829511081,740.6807423867285L319.40411847110954,752.1183136822656"></path><path class="minor_road" style="fill:none;stroke:#ccc;stroke-linejoin:round;stroke-linecap:round;" d="M453.68709119999767,734.6625361824408L452.54996878221937,721.2488037552685L448.0014791111098,682.3548189224675"></path><path class="minor_road" style="fill:none;stroke:#ccc;stroke-linejoin:round;stroke-linecap:round;" d="M386.28928625777553,839.7408515270799L360.4616942933317,800.2337505165488"></path><path class="major_road" style="fill:none;stroke:#ccc;stroke-linejoin:round;stroke-linecap:round;" d="M319.40411847110954,752.1183136822656L301.5363834311065,754.6782910171896L214.48127374221804,764.5738668991253L208.65585151999767,765.1427497947589"></path><path class="major_road" style="fill:none;stroke:#ccc;stroke-linejoin:round;stroke-linecap:round;" d="M464.6575263288869,734.1086214138195L453.68709119999767,734.6625361824408"></path><path class="major_road" style="fill:none;stroke:#ccc;stroke-linejoin:round;stroke-linecap:round;" d="M453.68709119999767,734.6625361824408L440.11618759110934,735.6356295868754"></path><path class="major_road" style="fill:none;stroke:#ccc;stroke-linejoin:round;stroke-linecap:round;" d="M379.3453829688842,743.2407240169123L319.40411847110954,752.1183136822656"></path><path class="major_road" style="fill:none;stroke:#ccc;stroke-linejoin:round;stroke-linecap:round;" d="M208.65585151999767,835.1898367675021L209.08460259555432,838.2438075356185L209.32694015999732,839.7408515270799"></path><path class="major_road" style="fill:none;stroke:#ccc;stroke-linejoin:round;stroke-linecap:round;" d="M453.68709119999767,734.6625361824408L464.6575263288869,732.5666422303766"></path><path class="major_road" style="fill:none;stroke:#ccc;stroke-linejoin:round;stroke-linecap:round;" d="M440.11618759110934,735.6356295868754L379.3453829688842,743.2407240169123"></path></g><g><path class="path" style="fill:none;stroke:#ccc;stroke-linejoin:round;stroke-linecap:round;" d="M639.3269862399993,714.9611076004803L651.9192189155528,695.6638325210661L663.5421013333289,683.6872185319662L691.7651069155527,675.0041602384299L679.657549368887,583.9511491786689"></path><path class="path" style="fill:none;stroke:#ccc;stroke-linejoin:round;stroke-linecap:round;" d="M634.2938214399965,729.9318032003939L639.3363069155512,730.2910994896665"></path><path class="path" style="fill:none;stroke:#ccc;stroke-linejoin:round;stroke-linecap:round;" d="M639.3363069155512,730.2910994896665L660.0468479999963,732.626524922438"></path><path class="path" style="fill:none;stroke:#ccc;stroke-linejoin:round;stroke-linecap:round;" d="M634.2938214399965,729.9318032003939L639.3269862399993,714.9611076004803"></path><path class="path" style="fill:none;stroke:#ccc;stroke-linejoin:round;stroke-linecap:round;" d="M623.4911584711099,712.565793255344L639.3269862399993,714.9611076004803"></path><path class="path" style="fill:none;stroke:#ccc;stroke-linejoin:round;stroke-linecap:round;" d="M626.1661923555548,749.3038345649838L620.9279726933291,744.632994318381L621.6177026844398,737.9411118645221L622.5870529422209,728.838943532668L623.4911584711099,712.565793255344L624.8053737244409,692.7595055606216L625.7747239822202,686.232250762172"></path><path class="path" style="fill:none;stroke:#ccc;stroke-linejoin:round;stroke-linecap:round;" d="M622.5870529422209,728.838943532668L634.2938214399965,729.9318032003939"></path><path class="path" style="fill:none;stroke:#ccc;stroke-linejoin:round;stroke-linecap:round;" d="M648.9179613866636,789.3651407426223L616.1651074844431,779.1103071086109L608.5594362311094,803.7218819409609L582.9089371022201,800.368485241197L563.3075564088886,801.6110386736691L562.7203538488848,796.7456173086539L559.6818136177753,772.5981054855511L565.5351978666658,771.8795173410326"></path><path class="path" style="fill:none;stroke:#ccc;stroke-linejoin:round;stroke-linecap:round;" d="M593.1057561599973,768.960252222605L574.6881012622198,769.4991935696453L565.5351978666658,771.8795173410326L563.2982357333312,742.6119566867128L551.0322267022184,738.2405250873417L549.8578215822199,729.6623309710994L549.7925768533314,709.9908294007182L556.5500666311091,707.341010928154L566.01987299555,707.7003084085882L585.1925026133304,702.1461660796776L583.2631227733327,696.7417267495766"></path><path class="path" style="fill:none;stroke:#ccc;stroke-linejoin:round;stroke-linecap:round;" d="M467.2952775111098,674.1807662090287L464.6575263288869,673.4322260944173"></path><path class="minor_road" style="fill:none;stroke:#ccc;stroke-linejoin:round;stroke-linecap:round;" d="M493.07626609777435,830.6687598917633L497.73660387555356,838.333630181849L498.59410602666503,839.7408515270799M670.1970636799961,839.7408515270799L677.113004942219,834.1119644064456"></path><path class="minor_road" style="fill:none;stroke:#ccc;stroke-linejoin:round;stroke-linecap:round;" d="M696.4813687466631,670.6925685713068L625.7747239822202,686.232250762172L583.2631227733327,696.7417267495766L575.7320169244394,698.59809974581"></path><path class="minor_road" style="fill:none;stroke:#ccc;stroke-linejoin:round;stroke-linecap:round;" d="M464.6575263288869,783.8859176812693L487.8753291377743,822.0757114756852L493.07626609777435,830.6687598917633"></path><path class="minor_road" style="fill:none;stroke:#ccc;stroke-linejoin:round;stroke-linecap:round;" d="M577.3910971733294,638.1010392596945L564.9479953066639,633.9690749542788L553.2319061333328,621.8875562762842"></path><path class="minor_road" style="fill:none;stroke:#ccc;stroke-linejoin:round;stroke-linecap:round;" d="M561.1171976533315,668.79127554968L559.7190963199955,659.4794233189896L553.2319061333328,621.8875562762842"></path><path class="minor_road" style="fill:none;stroke:#ccc;stroke-linejoin:round;stroke-linecap:round;" d="M553.2319061333328,621.8875562762842L547.0895809422182,583.9511491786689"></path><path class="minor_road" style="fill:none;stroke:#ccc;stroke-linejoin:round;stroke-linecap:round;" d="M502.0241146311073,669.0906918067485L490.0377258666649,596.3022125279531"></path><path class="minor_road" style="fill:none;stroke:#ccc;stroke-linejoin:round;stroke-linecap:round;" d="M696.4906894222204,670.6925685713068L720.6592011377743,662.758035116829"></path><path class="minor_road" style="fill:none;stroke:#ccc;stroke-linejoin:round;stroke-linecap:round;" d="M559.7190963199955,659.4794233189896L524.9343351466632,666.3061200836673L502.0241146311073,669.0906918067485L467.2952775111098,674.1807662090287"></path><path class="minor_road" style="fill:none;stroke:#ccc;stroke-linejoin:round;stroke-linecap:round;" d="M626.4364919466643,598.0538160623983L617.8335084088849,583.9511491786689"></path><path class="major_road" style="fill:none;stroke:#ccc;stroke-linejoin:round;stroke-linecap:round;" d="M568.9092824177751,734.9769202200696L549.8578215822199,729.6623309710994L541.5717410133311,730.2162460992113L464.6575263288869,734.1086214138195"></path><path class="major_road" style="fill:none;stroke:#ccc;stroke-linejoin:round;stroke-linecap:round;" d="M464.6575263288869,732.5666422303766L543.8739478755542,717.4013332249597"></path><path class="major_road" style="fill:none;stroke:#ccc;stroke-linejoin:round;stroke-linecap:round;" d="M543.8739478755542,717.4013332249597L560.9121427911086,716.6078857230023L567.3154468977755,718.9283451316878"></path><path class="major_road" style="fill:none;stroke:#ccc;stroke-linejoin:round;stroke-linecap:round;" d="M543.8739478755542,717.4013332249597L553.1293787022187,716.1737351678312L559.9241511822183,712.9849733281881L566.01987299555,707.7003084085882"></path><path class="major_road" style="fill:none;stroke:#ccc;stroke-linejoin:round;stroke-linecap:round;" d="M720.6592011377743,769.5890171211213L660.9323121777743,763.091777022928L649.4958432711082,765.5918678389862L642.5799020088853,775.2778397789225L633.8650703644416,792.4341025557369"></path><path class="major_road" style="fill:none;stroke:#ccc;stroke-linejoin:round;stroke-linecap:round;" d="M645.0778430577775,802.599093047902L629.8665005511084,801.5361860617995L621.1237068799983,798.781609442085L609.3144109511068,796.3863245164976L599.9657733688873,795.5030629886314L594.000541013329,795.1587406666949L586.4321524622192,794.9192120870575"></path><path class="major_road" style="fill:none;stroke:#ccc;stroke-linejoin:round;stroke-linecap:round;" d="M645.0778430577775,802.599093047902L651.602315946664,806.2668694071472L657.6980377599975,810.3687883876264L663.439573902222,816.8510129898787L677.113004942219,834.1119644064456"></path><path class="major_road" style="fill:none;stroke:#ccc;stroke-linejoin:round;stroke-linecap:round;" d="M677.113004942219,834.1119644064456L681.3632329955526,839.7408515270799"></path><path class="major_road" style="fill:none;stroke:#ccc;stroke-linejoin:round;stroke-linecap:round;" d="M602.4077903644411,784.6194751225412L612.5766473955537,785.9368842039257L622.7361837511089,788.3770844489336L633.8650703644416,792.4341025557369L645.0778430577775,802.599093047902"></path><path class="major_road" style="fill:none;stroke:#ccc;stroke-linejoin:round;stroke-linecap:round;" d="M576.9437047466636,784.5146812051535L602.4077903644411,784.6194751225412"></path><path class="major_road" style="fill:none;stroke:#ccc;stroke-linejoin:round;stroke-linecap:round;" d="M568.9092824177751,734.9769202200696L567.3154468977755,718.9283451316878L566.01987299555,707.7003084085882L565.3115016533302,702.1162245990708L561.1171976533315,668.79127554968"></path><path class="major_road" style="fill:none;stroke:#ccc;stroke-linejoin:round;stroke-linecap:round;" d="M586.4321524622192,794.9192120870575L562.7203538488848,796.7456173086539L541.2921207466643,802.9434149945155"></path><path class="major_road" style="fill:none;stroke:#ccc;stroke-linejoin:round;stroke-linecap:round;" d="M586.4321524622192,794.9192120870575L580.0754517333316,790.9520187312737L576.9437047466636,784.5146812051535L574.8465527466633,779.0803659660742L574.6881012622198,769.4991935696453"></path><path class="major_road" style="fill:none;stroke:#ccc;stroke-linejoin:round;stroke-linecap:round;" d="M541.2921207466643,802.9434149945155L493.07626609777435,830.6687598917633"></path><path class="major_road" style="fill:none;stroke:#ccc;stroke-linejoin:round;stroke-linecap:round;" d="M480.89414314666465,839.7408515270799L484.39871715555273,837.1359947659075L493.07626609777435,830.6687598917633"></path><path class="major_road" style="fill:none;stroke:#ccc;stroke-linejoin:round;stroke-linecap:round;" d="M559.5140414577763,786.7752353074029L566.5138687999988,781.4906275281683L569.4498815999959,777.7479849839583L571.8173331911075,774.679016565904L574.6881012622198,769.4991935696453"></path><path class="major_road" style="fill:none;stroke:#ccc;stroke-linejoin:round;stroke-linecap:round;" d="M484.39871715555273,837.1359947659075L496.2173337599961,824.7105149282143L528.886301582219,798.7366978581995L536.2216732444413,794.6347718881443L544.8805808355519,790.6675783628598L554.5554420622211,788.0926439762115L559.5140414577763,786.7752353074029"></path><path class="major_road" style="fill:none;stroke:#ccc;stroke-linejoin:round;stroke-linecap:round;" d="M577.5495486577729,725.9346306901425L579.0128947199973,741.8783947313204L581.510835768886,751.7590185403824L583.8876080355531,761.5947162127122L587.2150892088866,769.7237524501979L590.6078151111069,776.7000447027385L593.851410204441,779.9636296192184L597.8126973155522,782.5086259460077L602.4077903644411,784.6194751225412"></path><path class="major_road" style="fill:none;stroke:#ccc;stroke-linejoin:round;stroke-linecap:round;" d="M574.6881012622198,769.4991935696453L570.6522487466646,743.0760468607768L568.9092824177751,734.9769202200696"></path><path class="major_road" style="fill:none;stroke:#ccc;stroke-linejoin:round;stroke-linecap:round;" d="M559.5140414577763,786.7752353074029L567.9492528355531,785.5027380576357L572.618911288886,785.0536213275045L576.9437047466636,784.5146812051535"></path><path class="major_road" style="fill:none;stroke:#ccc;stroke-linejoin:round;stroke-linecap:round;" d="M577.3910971733294,638.1010392596945L582.4988273777744,631.7084702355787L586.9634309688863,628.2202508924529L596.7874230044399,620.5551446024328L626.4364919466643,598.0538160623983L649.5610879999986,583.9511491786689"></path><path class="major_road" style="fill:none;stroke:#ccc;stroke-linejoin:round;stroke-linecap:round;" d="M561.1171976533315,668.79127554968L561.8162483199976,659.7788399839774L564.4073961244412,651.7394978906959L568.0704216177764,643.8947676066309L572.1715188622202,638.2507480653003L576.0395992177764,634.4930560747162L581.3151015822186,631.289285174571L586.9634309688863,628.2202508924529"></path><path class="major_road" style="fill:none;stroke:#ccc;stroke-linejoin:round;stroke-linecap:round;" d="M567.3154468977755,718.9283451316878L577.5495486577729,725.9346306901425"></path><path class="major_road" style="fill:none;stroke:#ccc;stroke-linejoin:round;stroke-linecap:round;" d="M577.3910971733294,638.1010392596945L574.0076919466646,645.406825101003L572.0410294044395,651.829322992824L571.0530377955529,659.4045691471547L571.0437171199992,668.8960712393746L573.4298100622182,686.5166954789311L575.7320169244394,698.59809974581L576.4776709688849,702.9845274724066L577.5495486577729,725.9346306901425"></path><path class="major_road" style="fill:none;stroke:#ccc;stroke-linejoin:round;stroke-linecap:round;" d="M583.8876080355531,761.5947162127122L586.5346798933297,776.1161921918392L585.900873955552,781.8648916734383L582.9741818311086,787.7183801736683L577.1394389333309,792.4939847225323L571.5377129244407,794.754536180757L562.7203538488848,796.7456173086539"></path></g><g><path class="minor_road" style="fill:none;stroke:#ccc;stroke-linejoin:round;stroke-linecap:round;" d="M920.4478816711089,793.8413333650678L917.9033372444428,806.6261616796255L918.4998604799948,810.4436409026384L921.2401390933301,815.6533738030121L925.3598776888848,821.5218038037419L931.036169102219,823.183526687324"></path><path class="minor_road" style="fill:none;stroke:#ccc;stroke-linejoin:round;stroke-linecap:round;" d="M925.6394979555535,688.4179835673422L976.6608759466653,672.2794741559774"></path><path class="minor_road" style="fill:none;stroke:#ccc;stroke-linejoin:round;stroke-linecap:round;" d="M874.1334448355537,839.7408515270799L851.5774099911087,815.8030787138268L848.1194393599999,806.8357488289475L849.5734647466652,783.5715358965099"></path><path class="minor_road" style="fill:none;stroke:#ccc;stroke-linejoin:round;stroke-linecap:round;" d="M976.6608759466653,587.9484048504382L952.5669296355536,596.1075898846611L908.5546996622197,611.018662459217L899.7280199111083,613.9829079415649"></path><path class="minor_road" style="fill:none;stroke:#ccc;stroke-linejoin:round;stroke-linecap:round;" d="M849.284523804441,765.2774852123111L849.5734647466652,783.5715358965099"></path><path class="minor_road" style="fill:none;stroke:#ccc;stroke-linejoin:round;stroke-linecap:round;" d="M888.7482641066636,583.9511491786689L899.7280199111083,613.9829079415649L925.6394979555535,688.4179835673422L838.1835992177748,713.5688312407583L840.7095022933318,720.8296241899952L842.2940171377741,725.2759203873575"></path><path class="minor_road" style="fill:none;stroke:#ccc;stroke-linejoin:round;stroke-linecap:round;" d="M952.5669296355536,596.1075898846611L948.465832391108,583.9511491786689"></path><path class="minor_road" style="fill:none;stroke:#ccc;stroke-linejoin:round;stroke-linecap:round;" d="M838.1835992177748,713.5688312407583L808.1337412266639,634.0139876222238L787.7214617599984,583.9511491786689"></path><path class="minor_road" style="fill:none;stroke:#ccc;stroke-linejoin:round;stroke-linecap:round;" d="M720.6592011377743,662.758035116829L808.1337412266639,634.0139876222238"></path><path class="major_road" style="fill:none;stroke:#ccc;stroke-linejoin:round;stroke-linecap:round;" d="M976.6608759466653,798.9013736667112L920.4478816711089,793.8413333650678L849.5734647466652,783.5715358965099L720.6592011377743,769.5890171211213"></path><path class="minor_road" style="fill:none;stroke:#ccc;stroke-linejoin:round;stroke-linecap:round;" d="M842.2940171377741,725.2759203873575L846.9729962666624,743.719784796238L849.284523804441,765.2774852123111"></path></g><path class="waypath" style="fill:none;stroke:orange; stroke-width:5;stroke-linejoin:round; stroke-linecap:round}" d="M622.6616183466631,268.60970253217965L418.4362962488849,292.38470681291074L155.5373215288855,319.97738186176866L186.56585045333122,531.3877677610144L644.4626784711054,476.0992170609534L622.6616183466631,268.60970253217965"></path><path class="center" style="fill:none; stroke:red; stroke-width:1;stroke-linejoin:round; stroke-linecap:round}" d="M400,400m0,4.5a4.5,4.5 0 1,1 0,-9a4.5,4.5 0 1,1 0,9z"></path></svg>
