<svg xmlns="http://www.w3.org/2000/svg" version="1.1" width="800" height="800"><g><path class="path" style="fill:none;stroke:#ccc;stroke-linejoin:round;stroke-linecap:round;" d="M-235.43146359466482,-108.63442648947239L14.98153415111301,70.74956136196852"></path></g><g></g><g><path class="path" style="fill:none;stroke:#ccc;stroke-linejoin:round;stroke-linecap:round;" d="M349.02708952177636,-187.14430517703295L459.98786787554855,-108.09537521004677L532.5325498595557,-31.19078279286623"></path><path class="path" style="fill:none;stroke:#ccc;stroke-linejoin:round;stroke-linecap:round;" d="M459.98786787554855,-108.09537521004677L349.2060464924434,70.74956136196852"></path></g><g><path class="path" style="fill:none;stroke:#ccc;stroke-linejoin:round;stroke-linecap:round;" d="M532.5325498595557,-31.19078279286623L628.6920954311136,70.74956136196852"></path></g><g></g><g><path class="path" style="fill:none;stroke:#ccc;stroke-linejoin:round;stroke-linecap:round;" d="M14.98153415111301,70.74956136196852L20.5142871608914,74.71456971764565"></path></g><g><path class="path" style="fill:none;stroke:#ccc;stroke-linejoin:round;stroke-linecap:round;" d="M20.5142871608914,74.71456971764565L191.0528236657774,196.8750186264515L237.46978793245216,251.12720327824354"></path><path class="path" style="fill:none;stroke:#ccc;stroke-linejoin:round;stroke-linecap:round;" d="M276.51969023999845,188.09452087432146L237.46978793245216,251.12720327824354"></path><path class="minor_road" style="fill:none;stroke:#ccc;stroke-linejoin:round;stroke-linecap:round;" d="M276.51969023999845,278.67852391302586L237.46978793245216,251.12720327824354L189.22597125689208,325.28813948482275"></path></g><g><path class="path" style="fill:none;stroke:#ccc;stroke-linejoin:round;stroke-linecap:round;" d="M349.2060464924434,70.74956136196852L276.51969023999845,188.09452087432146"></path><path class="minor_road" style="fill:none;stroke:#ccc;stroke-linejoin:round;stroke-linecap:round;" d="M342.592095118227,325.28813948482275L276.51969023999845,278.67852391302586"></path></g><g><path class="path" style="fill:none;stroke:#ccc;stroke-linejoin:round;stroke-linecap:round;" d="M628.6920954311136,70.74956136196852L788.5379529386628,240.20250184834003"></path></g><g><path class="path" style="fill:none;stroke:#ccc;stroke-linejoin:round;stroke-linecap:round;" d="M788.5379529386628,240.20250184834003L868.8001542826751,325.28813948482275"></path></g><g></g><g><path class="minor_road" style="fill:none;stroke:#ccc;stroke-linejoin:round;stroke-linecap:round;" d="M189.22597125689208,325.28813948482275L21.453811256884364,583.1676063463092"></path></g><g><path class="minor_road" style="fill:none;stroke:#ccc;stroke-linejoin:round;stroke-linecap:round;" d="M522.4140244764421,528.2449401542544L416.8517814044462,377.65952334553003L342.592095118227,325.28813948482275"></path><path class="minor_road" style="fill:none;stroke:#ccc;stroke-linejoin:round;stroke-linecap:round;" d="M521.90697972622,583.1676063463092L522.4140244764421,528.2449401542544"></path></g><g></g><g><path class="path" style="fill:none;stroke:#ccc;stroke-linejoin:round;stroke-linecap:round;" d="M868.8001542826751,325.28813948482275L1044.55081255822,511.5944371968508"></path></g><g><path class="minor_road" style="fill:none;stroke:#ccc;stroke-linejoin:round;stroke-linecap:round;" d="M20.5142871608914,584.6050581634045L-144.14849547377526,837.7037951499224"></path></g><g><path class="minor_road" style="fill:none;stroke:#ccc;stroke-linejoin:round;stroke-linecap:round;" d="M21.453811256884364,583.1676063463092L20.5142871608914,584.6050581634045"></path></g><g><path class="minor_road" style="fill:none;stroke:#ccc;stroke-linejoin:round;stroke-linecap:round;" d="M448.2438166755528,837.7037951499224L451.68128182044893,834.4216286987066L489.19513679645024,771.3896198049188L521.1464126008868,664.8866815119982L521.90697972622,583.1676063463092"></path></g><g></g><g></g><path class="waypath" style="fill:none;stroke:orange; stroke-width:5;stroke-linejoin:round; stroke-linecap:round}" d="M395.6752065422261,119.0962902083993L435.6422633244438,148.20492941141129L485.37738808889844,95.7374944537878L637.565378560008,210.3751809000969L647.7062735644431,196.95887056738138L682.9011444622229,223.43212259560823L672.7602494577732,236.84842639416456L513.2648493511151,392.9325043410063L286.6605852444409,704.260809674859L137.82803797333327,593.5771523341537L117.17342094222113,579.9213608726859L347.5805206755613,263.3216590806842L310.4469492622229,236.2494843453169L395.6752065422261,119.0962902083993"></path><path class="center" style="fill:none; stroke:red; stroke-width:1;stroke-linejoin:round; stroke-linecap:round}" d="M400,400m0,4.5a4.5,4.5 0 1,1 0,-9a4.5,4.5 0 1,1 0,9z"></path></svg>
