<svg xmlns="http://www.w3.org/2000/svg" version="1.1" width="800" height="800"><g><path class="path" style="fill:none;stroke:#ccc;stroke-linejoin:round;stroke-linecap:round;" d="M38.91702897777577,240.39211247302592L100.0420192711099,116.50085423700511L103.4906692266668,106.74040282517672L106.38007864888641,94.10569769889116L106.93931918222006,82.60870466008782L105.7835554133344,67.09972475469112L101.7756649244402,59.64462969638407L96.0341287822157,55.6027089767158L69.91759587555498,42.84819576330483"></path><path class="minor_road" style="fill:none;stroke:#ccc;stroke-linejoin:round;stroke-linecap:round;" d="M-35.25690709333503,240.39211247302592L-23.14002887111201,216.7696272842586L69.91759587555498,42.84819576330483L99.76239900444489,-15.834694650024176"></path><path class="minor_road" style="fill:none;stroke:#ccc;stroke-linejoin:round;stroke-linecap:round;" d="M126.19583488000353,192.42854464426637L100.82495601777555,240.39211247302592"></path><path class="minor_road" style="fill:none;stroke:#ccc;stroke-linejoin:round;stroke-linecap:round;" d="M-23.14002887111201,216.7696272842586L23.40742485332885,240.39211247302592"></path></g><g><path class="path" style="fill:none;stroke:#ccc;stroke-linejoin:round;stroke-linecap:round;" d="M193.13692672000252,240.39211247302592L217.79943423999794,191.02137125842273L177.08672341333295,169.8538732379675L143.15946439110485,240.39211247302592"></path><path class="path" style="fill:none;stroke:#ccc;stroke-linejoin:round;stroke-linecap:round;" d="M278.70072832000005,125.12357850372791L236.19844778666084,104.43501911498606L229.2825065244433,99.2853294108063L226.4303798044457,92.36917332746089L222.38520661333314,83.17756652645767L218.3959574755536,76.29134239442647L210.90213432888777,71.68056429177523L195.98905344000013,64.82427448779345L153.8409585777772,45.78233366087079"></path><path class="path" style="fill:none;stroke:#ccc;stroke-linejoin:round;stroke-linecap:round;" d="M150.1499710577773,-11.134066073223948L310.7638522311099,65.39313709177077"></path><path class="minor_road" style="fill:none;stroke:#ccc;stroke-linejoin:round;stroke-linecap:round;" d="M244.40064227555195,192.6680635046214L287.5553700977762,212.1588966343552L345.9960058311117,240.39211247302592"></path><path class="minor_road" style="fill:none;stroke:#ccc;stroke-linejoin:round;stroke-linecap:round;" d="M346.3874742044427,-2.3615597393363714L352.3527065599992,-15.834694650024176"></path><path class="minor_road" style="fill:none;stroke:#ccc;stroke-linejoin:round;stroke-linecap:round;" d="M159.26559175111106,129.91397853009403L126.19583488000353,192.42854464426637"></path><path class="minor_road" style="fill:none;stroke:#ccc;stroke-linejoin:round;stroke-linecap:round;" d="M139.39391146666458,-15.834694650024176L150.1499710577773,-11.134066073223948"></path><path class="major_road" style="fill:none;stroke:#ccc;stroke-linejoin:round;stroke-linecap:round;" d="M220.29737528888654,240.39211247302592L244.40064227555195,192.6680635046214L252.3977819022184,176.2310719937086"></path><path class="major_road" style="fill:none;stroke:#ccc;stroke-linejoin:round;stroke-linecap:round;" d="M320.2336585955527,-15.834694650024176L346.3874742044427,-2.3615597393363714"></path><path class="major_road" style="fill:none;stroke:#ccc;stroke-linejoin:round;stroke-linecap:round;" d="M252.3977819022184,176.2310719937086L159.26559175111106,129.91397853009403"></path><path class="major_road" style="fill:none;stroke:#ccc;stroke-linejoin:round;stroke-linecap:round;" d="M252.3977819022184,176.2310719937086L278.70072832000005,125.12357850372791L310.7638522311099,65.39313709177077L346.3874742044427,-2.3615597393363714"></path><path class="major_road" style="fill:none;stroke:#ccc;stroke-linejoin:round;stroke-linecap:round;" d="M149.851709439994,-15.834694650024176L150.1499710577773,-11.134066073223948L153.8409585777772,45.78233366087079L159.26559175111106,129.91397853009403"></path></g><g><path class="minor_road" style="fill:none;stroke:#ccc;stroke-linejoin:round;stroke-linecap:round;" d="M638.1991844977747,98.65658809803426L636.4096147911077,93.20749546214938L638.1991844977747,82.90810564346611"></path><path class="minor_road" style="fill:none;stroke:#ccc;stroke-linejoin:round;stroke-linecap:round;" d="M473.6333368888918,-15.834694650024176L598.9032163555494,51.41108622960746L638.1991844977747,173.05744294449687"></path></g><g><path class="minor_road" style="fill:none;stroke:#ccc;stroke-linejoin:round;stroke-linecap:round;" d="M797.731867306662,-0.8645455744117498L769.8630473955527,-9.906513655558228"></path><path class="minor_road" style="fill:none;stroke:#ccc;stroke-linejoin:round;stroke-linecap:round;" d="M686.6666973866631,5.991777220740914L726.9692984888898,5.392971871420741"></path><path class="path" style="fill:none;stroke:#ccc;stroke-linejoin:round;stroke-linecap:round;" d="M894.1822179555566,223.08692453056574L877.926959786666,240.39211247302592"></path><path class="path" style="fill:none;stroke:#ccc;stroke-linejoin:round;stroke-linecap:round;" d="M809.699614719997,240.39211247302592L874.3105376711101,16.351105572655797L881.6925127111099,-15.834694650024176"></path><path class="path" style="fill:none;stroke:#ccc;stroke-linejoin:round;stroke-linecap:round;" d="M737.6507926755512,240.39211247302592L805.3934626133341,1.2312739882618189L809.5504839111127,-15.834694650024176"></path><path class="minor_road" style="fill:none;stroke:#ccc;stroke-linejoin:round;stroke-linecap:round;" d="M769.8630473955527,-9.906513655558228L763.4690639644432,-15.834694650024176"></path><path class="minor_road" style="fill:none;stroke:#ccc;stroke-linejoin:round;stroke-linecap:round;" d="M850.3191187911107,13.925945585593581L823.1400288711084,6.171418823301792L813.409243591108,3.416914042085409L805.3934626133341,1.2312739882618189L797.731867306662,-0.8645455744117498"></path><path class="minor_road" style="fill:none;stroke:#ccc;stroke-linejoin:round;stroke-linecap:round;" d="M684.3178871466662,240.39211247302592L665.6019706311126,182.87772668339312L638.1991844977747,98.65658809803426M638.1991844977747,82.90810564346611L648.880678684447,20.961902359500527L670.6537767822228,3.7761973068118095L686.6666973866631,5.991777220740914"></path><path class="minor_road" style="fill:none;stroke:#ccc;stroke-linejoin:round;stroke-linecap:round;" d="M726.9692984888898,5.392971871420741L744.2125482666634,-3.4094697572290897L754.9686078577724,-15.834694650024176"></path><path class="minor_road" style="fill:none;stroke:#ccc;stroke-linejoin:round;stroke-linecap:round;" d="M638.1991844977747,173.05744294449687L659.9349998933285,240.39211247302592"></path><path class="major_road" style="fill:none;stroke:#ccc;stroke-linejoin:round;stroke-linecap:round;" d="M856.8063089777716,-15.834694650024176L850.3191187911107,13.925945585593581L793.8917489777778,217.12890493124723L785.6522717866683,240.39211247302592"></path><path class="major_road" style="fill:none;stroke:#ccc;stroke-linejoin:round;stroke-linecap:round;" d="M758.2122029511083,240.39211247302592L823.1400288711084,6.171418823301792L827.5953117866593,-15.834694650024176"></path></g><g><path class="path" style="fill:none;stroke:#ccc;stroke-linejoin:round;stroke-linecap:round;" d="M126.19583488000353,288.20581350661814L121.14402872888604,286.1100380104035L84.42056703999697,271.3797211609781"></path><path class="path" style="fill:none;stroke:#ccc;stroke-linejoin:round;stroke-linecap:round;" d="M126.19583488000353,275.66109537892044L121.14402872888604,286.1100380104035L66.41302186666871,390.35950900800526L104.57186759110846,408.592605791986L126.19583488000353,368.74322807975113"></path><path class="path" style="fill:none;stroke:#ccc;stroke-linejoin:round;stroke-linecap:round;" d="M-107.52942535110924,481.31517477333546L-129.82448128000033,469.81850789673626"></path><path class="path" style="fill:none;stroke:#ccc;stroke-linejoin:round;stroke-linecap:round;" d="M108.28149646221937,461.82472599484026L8.568909368885215,415.2092079613358"></path><path class="path" style="fill:none;stroke:#ccc;stroke-linejoin:round;stroke-linecap:round;" d="M-114.24031175111304,394.1917546875775L-87.76959317333603,406.5567275546491L-78.59804842666927,407.72436364367604L-68.81133909333948,407.72436364367604L-59.62115299555808,404.3112732693553L-51.0088487822286,397.96412048116326L-34.36212224000337,383.5931976120919L-28.60194474666787,376.13827540166676L-21.7046448355577,365.21037004329264L35.803923342220514,246.6794590484351L38.91702897777577,240.39211247302592"></path><path class="path" style="fill:none;stroke:#ccc;stroke-linejoin:round;stroke-linecap:round;" d="M-107.52942535110924,481.31517477333546L-86.61382940444673,495.32672445103526L-85.55127239111243,496.614109698683"></path><path class="path" style="fill:none;stroke:#ccc;stroke-linejoin:round;stroke-linecap:round;" d="M-56.24706844444154,450.6873141974211L-37.58707598222463,477.5428320206702L-29.19846798222352,484.0995223298669L-16.559631928888848,492.15316958911717L1.708892160000687,496.614109698683"></path><path class="minor_road" style="fill:none;stroke:#ccc;stroke-linejoin:round;stroke-linecap:round;" d="M126.19583488000353,441.40613074973226L120.26788522666902,438.38225994445384"></path><path class="minor_road" style="fill:none;stroke:#ccc;stroke-linejoin:round;stroke-linecap:round;" d="M-129.82448128000033,424.5203485619277L-114.24031175111304,394.1917546875775L-35.25690709333503,240.39211247302592"></path><path class="minor_road" style="fill:none;stroke:#ccc;stroke-linejoin:round;stroke-linecap:round;" d="M100.82495601777555,240.39211247302592L84.42056703999697,271.3797211609781L8.568909368885215,415.2092079613358L0.10573596444010036,423.80180417746305L-11.39597767111627,430.68785298615694L-56.24706844444154,450.6873141974211L-79.71652949333293,463.4414463099092L-97.55630250666945,473.20164264179766L-107.52942535110924,481.31517477333546L-115.4519995733317,496.614109698683"></path><path class="minor_road" style="fill:none;stroke:#ccc;stroke-linejoin:round;stroke-linecap:round;" d="M23.40742485332885,240.39211247302592L35.803923342220514,246.6794590484351L84.42056703999697,271.3797211609781"></path><path class="major_road" style="fill:none;stroke:#ccc;stroke-linejoin:round;stroke-linecap:round;" d="M90.10617912888847,496.614109698683L108.28149646221937,461.82472599484026L120.26788522666902,438.38225994445384L126.19583488000353,426.67598149366677"></path><path class="major_road" style="fill:none;stroke:#ccc;stroke-linejoin:round;stroke-linecap:round;" d="M126.19583488000353,471.0160778108984L108.28149646221937,461.82472599484026"></path></g><g><path class="path" style="fill:none;stroke:#ccc;stroke-linejoin:round;stroke-linecap:round;" d="M184.35685034666312,311.49883950315416L161.87538090666567,302.9061725884676L126.19583488000353,288.20581350661814"></path><path class="path" style="fill:none;stroke:#ccc;stroke-linejoin:round;stroke-linecap:round;" d="M161.87538090666567,302.9061725884676L193.13692672000252,240.39211247302592M143.15946439110485,240.39211247302592L126.19583488000353,275.66109537892044M126.19583488000353,368.74322807975113L161.87538090666567,302.9061725884676"></path><path class="minor_road" style="fill:none;stroke:#ccc;stroke-linejoin:round;stroke-linecap:round;" d="M233.92420295110787,496.614109698683L126.19583488000353,441.40613074973226"></path><path class="minor_road" style="fill:none;stroke:#ccc;stroke-linejoin:round;stroke-linecap:round;" d="M345.9960058311117,240.39211247302592L382.1788683377781,257.8469770271331"></path><path class="major_road" style="fill:none;stroke:#ccc;stroke-linejoin:round;stroke-linecap:round;" d="M176.06144910222065,496.614109698683L126.19583488000353,471.0160778108984"></path><path class="major_road" style="fill:none;stroke:#ccc;stroke-linejoin:round;stroke-linecap:round;" d="M126.19583488000353,426.67598149366677L184.35685034666312,311.49883950315416L220.29737528888654,240.39211247302592"></path></g><g><path class="path" style="fill:none;stroke:#ccc;stroke-linejoin:round;stroke-linecap:round;" d="M599.8352839111067,480.3870587963611L631.6187875555588,431.6758510135114L638.1991844977747,426.8256782107055"></path><path class="path" style="fill:none;stroke:#ccc;stroke-linejoin:round;stroke-linecap:round;" d="M591.8008615822182,496.614109698683L599.8352839111067,480.3870587963611L574.799949368884,467.12397519126534L578.9010466133295,459.3397666234523L637.9009228800023,357.3961638584733L638.1991844977747,357.545861331746"></path><path class="minor_road" style="fill:none;stroke:#ccc;stroke-linejoin:round;stroke-linecap:round;" d="M382.1788683377781,257.8469770271331L459.39134463999653,295.12187036313117"></path><path class="major_road" style="fill:none;stroke:#ccc;stroke-linejoin:round;stroke-linecap:round;" d="M635.4775472355541,496.614109698683L638.1991844977747,491.40468956157565"></path></g><g><path class="path" style="fill:none;stroke:#ccc;stroke-linejoin:round;stroke-linecap:round;" d="M877.926959786666,240.39211247302592L803.0632937244445,320.03162185288966L794.1713692444428,328.71409665979445L782.706938311112,323.32497502304614L779.1650815999965,322.4567274451256"></path><path class="path" style="fill:none;stroke:#ccc;stroke-linejoin:round;stroke-linecap:round;" d="M779.1650815999965,322.4567274451256L778.0279591822182,319.70228649303317"></path><path class="path" style="fill:none;stroke:#ccc;stroke-linejoin:round;stroke-linecap:round;" d="M778.0279591822182,319.70228649303317L802.6345426488842,264.91274776495993L809.699614719997,240.39211247302592"></path><path class="path" style="fill:none;stroke:#ccc;stroke-linejoin:round;stroke-linecap:round;" d="M638.1991844977747,426.8256782107055L667.0000719644413,405.62860650010407L682.1741317688902,377.2460351921618L726.2422857955571,288.23575315251946L727.6590284800004,275.66109537892044L737.6507926755512,240.39211247302592"></path><path class="path" style="fill:none;stroke:#ccc;stroke-linejoin:round;stroke-linecap:round;" d="M779.1650815999965,322.4567274451256L759.051063751107,371.1383855417371L753.5518651733328,368.7731675468385"></path><path class="path" style="fill:none;stroke:#ccc;stroke-linejoin:round;stroke-linecap:round;" d="M689.7798030222184,496.614109698683L753.5518651733328,368.7731675468385L778.0279591822182,319.70228649303317"></path><path class="path" style="fill:none;stroke:#ccc;stroke-linejoin:round;stroke-linecap:round;" d="M638.1991844977747,357.545861331746L677.0477602133287,375.1203339099884L682.1741317688902,377.2460351921618"></path><path class="minor_road" style="fill:none;stroke:#ccc;stroke-linejoin:round;stroke-linecap:round;" d="M745.703856355558,285.54118460789323L727.6590284800004,275.66109537892044L699.1004785777804,265.99057687819004L686.6853387377778,247.6375306583941L684.3178871466662,240.39211247302592"></path><path class="minor_road" style="fill:none;stroke:#ccc;stroke-linejoin:round;stroke-linecap:round;" d="M659.9349998933285,240.39211247302592L664.744468480003,255.30210108868778"></path><path class="major_road" style="fill:none;stroke:#ccc;stroke-linejoin:round;stroke-linecap:round;" d="M638.1991844977747,491.40468956157565L745.703856355558,285.54118460789323L758.2122029511083,240.39211247302592"></path><path class="major_road" style="fill:none;stroke:#ccc;stroke-linejoin:round;stroke-linecap:round;" d="M785.6522717866683,240.39211247302592L766.1347771733308,295.48114595003426L695.6704699733345,433.23269624076784L664.7071857777773,496.614109698683"></path></g><g><path class="path" style="fill:none;stroke:#ccc;stroke-linejoin:round;stroke-linecap:round;" d="M15.671264142220025,635.501307848841L87.86921699555751,654.5124871376902"></path><path class="path" style="fill:none;stroke:#ccc;stroke-linejoin:round;stroke-linecap:round;" d="M-85.55127239111243,496.614109698683L-75.70863900444238,508.230510674417L-65.86600561777959,520.9247107431293L-55.613262506667525,527.8107105568051L9.33320476443987,559.2168134897947L48.0140083199949,577.6293187849224"></path><path class="path" style="fill:none;stroke:#ccc;stroke-linejoin:round;stroke-linecap:round;" d="M1.708892160000687,496.614109698683L2.398622151114978,496.7638056538999L18.486108159995638,499.0391839146614L32.28070798222325,501.9133453909308L76.03195903999222,523.4994762968272"></path><path class="minor_road" style="fill:none;stroke:#ccc;stroke-linejoin:round;stroke-linecap:round;" d="M-129.82448128000033,563.9471830707043L15.671264142220025,635.501307848841"></path><path class="minor_road" style="fill:none;stroke:#ccc;stroke-linejoin:round;stroke-linecap:round;" d="M-73.32254606222341,751.9630770292133L-129.82448128000033,725.4074860159308"></path><path class="minor_road" style="fill:none;stroke:#ccc;stroke-linejoin:round;stroke-linecap:round;" d="M-115.4519995733317,496.614109698683L-129.82448128000033,524.3377719502896"></path><path class="major_road" style="fill:none;stroke:#ccc;stroke-linejoin:round;stroke-linecap:round;" d="M-54.681194951113866,751.9630770292133L-29.105261226668517,718.3120149578899L-8.487926897782017,681.3676039408892L15.671264142220025,635.501307848841L48.0140083199949,577.6293187849224L69.39563804443969,535.1457934975624L76.03195903999222,523.4994762968272L90.10617912888847,496.614109698683"></path></g><g><path class="path" style="fill:none;stroke:#ccc;stroke-linejoin:round;stroke-linecap:round;" d="M208.98207516444745,540.9839179199189L219.36530773333288,518.7990318406373"></path><path class="path" style="fill:none;stroke:#ccc;stroke-linejoin:round;stroke-linecap:round;" d="M300.00779264000084,515.4458475355059L293.6697332622207,527.1819889768958"></path><path class="minor_road" style="fill:none;stroke:#ccc;stroke-linejoin:round;stroke-linecap:round;" d="M382.1788683377781,569.725417111069L293.6697332622207,527.1819889768958L233.92420295110787,496.614109698683"></path><path class="major_road" style="fill:none;stroke:#ccc;stroke-linejoin:round;stroke-linecap:round;" d="M382.1788683377781,602.3589209616184L219.36530773333288,518.7990318406373L176.06144910222065,496.614109698683"></path></g><g><path class="path" style="fill:none;stroke:#ccc;stroke-linejoin:round;stroke-linecap:round;" d="M488.2295148088888,751.9630770292133L497.23328739555654,740.0774355754256L530.5640231822181,678.5234190374613L558.8429528177767,606.0713513139635L550.9763026488872,600.083559917286L547.7327075555513,592.7485118787736L549.0935261866653,584.8745579570532L558.0600160711074,566.2225501332432"></path><path class="path" style="fill:none;stroke:#ccc;stroke-linejoin:round;stroke-linecap:round;" d="M567.0451473066678,548.1992374695837L558.0600160711074,566.2225501332432"></path><path class="path" style="fill:none;stroke:#ccc;stroke-linejoin:round;stroke-linecap:round;" d="M487.0737510399995,656.2190011441708L498.2958444088872,632.6571133956313L502.9561821866664,622.9269699975848L537.1630614755522,559.4563259147108L547.434445937779,538.0199473686516L567.0451473066678,548.1992374695837L579.2552322844458,521.8827631026506L591.8008615822182,496.614109698683"></path><path class="path" style="fill:none;stroke:#ccc;stroke-linejoin:round;stroke-linecap:round;" d="M579.2552322844458,521.8827631026506L570.326025102222,517.661344403401"></path><path class="path" style="fill:none;stroke:#ccc;stroke-linejoin:round;stroke-linecap:round;" d="M535.2989263644413,498.29070426523685L570.326025102222,517.661344403401"></path><path class="path" style="fill:none;stroke:#ccc;stroke-linejoin:round;stroke-linecap:round;" d="M562.384809528885,751.9630770292133L638.1991844977747,600.0236819889396"></path><path class="path" style="fill:none;stroke:#ccc;stroke-linejoin:round;stroke-linecap:round;" d="M502.9561821866664,622.9269699975848L444.18000213332925,599.5147196017206"></path><path class="minor_road" style="fill:none;stroke:#ccc;stroke-linejoin:round;stroke-linecap:round;" d="M444.18000213332925,599.5147196017206L382.1788683377781,569.725417111069"></path><path class="major_road" style="fill:none;stroke:#ccc;stroke-linejoin:round;stroke-linecap:round;" d="M567.1383540622228,696.4268046170473L538.2442598400012,682.7747267764062L530.5640231822181,678.5234190374613L487.0737510399995,656.2190011441708L382.1788683377781,602.3589209616184"></path><path class="major_road" style="fill:none;stroke:#ccc;stroke-linejoin:round;stroke-linecap:round;" d="M494.9404012088853,751.9630770292133L538.2442598400012,682.7747267764062L635.4775472355541,496.614109698683"></path><path class="major_road" style="fill:none;stroke:#ccc;stroke-linejoin:round;stroke-linecap:round;" d="M638.1991844977747,550.9236932396889L567.1383540622228,696.4268046170473L533.938107733331,751.9630770292133"></path></g><g><path class="path" style="fill:none;stroke:#ccc;stroke-linejoin:round;stroke-linecap:round;" d="M638.1991844977747,600.0236819889396L689.7798030222184,496.614109698683"></path><path class="major_road" style="fill:none;stroke:#ccc;stroke-linejoin:round;stroke-linecap:round;" d="M664.7071857777773,496.614109698683L638.1991844977747,550.9236932396889"></path></g><g><path class="path" style="fill:none;stroke:#ccc;stroke-linejoin:round;stroke-linecap:round;" d="M-129.82448128000033,971.8605461511761L-80.83501056000387,1008.1754714995623"></path><path class="minor_road" style="fill:none;stroke:#ccc;stroke-linejoin:round;stroke-linecap:round;" d="M-58.70772679111542,869.5914490967989L-72.11085823999747,887.494584063068L-102.04886812444602,927.2825708277524L5.586293191110599,1008.1754714995623"></path><path class="minor_road" style="fill:none;stroke:#ccc;stroke-linejoin:round;stroke-linecap:round;" d="M-59.583870293336076,758.4298196677119L126.19583488000353,856.0592980552465"></path><path class="minor_road" style="fill:none;stroke:#ccc;stroke-linejoin:round;stroke-linecap:round;" d="M-112.24568718222508,830.3421864323318L-58.70772679111542,869.5914490967989L115.55162339555318,1001.3795282617211L124.2944170666633,1008.1754714995623"></path><path class="minor_road" style="fill:none;stroke:#ccc;stroke-linejoin:round;stroke-linecap:round;" d="M-59.583870293336076,758.4298196677119L-73.32254606222341,751.9630770292133"></path><path class="major_road" style="fill:none;stroke:#ccc;stroke-linejoin:round;stroke-linecap:round;" d="M-129.82448128000033,852.9756422974169L-112.24568718222508,830.3421864323318L-59.583870293336076,758.4298196677119L-54.681194951113866,751.9630770292133"></path><path class="major_road" style="fill:none;stroke:#ccc;stroke-linejoin:round;stroke-linecap:round;" d="M-129.82448128000033,983.6861095279455L-97.53766115555482,1008.1754714995623"></path></g><g><path class="path" style="fill:none;stroke:#ccc;stroke-linejoin:round;stroke-linecap:round;" d="M144.72533788444343,1008.1754714995623L258.3257315555529,924.648004937917L263.26568959999713,913.8702300898731L382.1788683377781,846.1197449415922"></path><path class="path" style="fill:none;stroke:#ccc;stroke-linejoin:round;stroke-linecap:round;" d="M382.1788683377781,998.116276787594L375.98993976888596,1008.1754714995623"></path><path class="path" style="fill:none;stroke:#ccc;stroke-linejoin:round;stroke-linecap:round;" d="M284.6846020266639,982.7280895896256L332.23868871111335,951.8917867615819L382.1788683377781,923.2109687831253"></path><path class="path" style="fill:none;stroke:#ccc;stroke-linejoin:round;stroke-linecap:round;" d="M249.63886193777944,1008.1754714995623L250.3658746311121,1007.6066481824964L284.6846020266639,982.7280895896256"></path><path class="path" style="fill:none;stroke:#ccc;stroke-linejoin:round;stroke-linecap:round;" d="M298.1622988800009,1008.1754714995623L287.33167388444053,987.9373222123832L284.6846020266639,982.7280895896256"></path><path class="minor_road" style="fill:none;stroke:#ccc;stroke-linejoin:round;stroke-linecap:round;" d="M237.35421155555377,982.8179039601237L250.3658746311121,1007.6066481824964L250.64549489777346,1008.1754714995623"></path><path class="minor_road" style="fill:none;stroke:#ccc;stroke-linejoin:round;stroke-linecap:round;" d="M126.19583488000353,856.0592980552465L229.5248440888863,910.3674514293671L258.3257315555529,924.648004937917L266.9939598222227,926.204793933779"></path><path class="major_road" style="fill:none;stroke:#ccc;stroke-linejoin:round;stroke-linecap:round;" d="M161.94994631110967,1008.1754714995623L266.9939598222227,926.204793933779L378.63701162666985,858.1549860425293L382.1788683377781,855.6102220192552"></path><path class="major_road" style="fill:none;stroke:#ccc;stroke-linejoin:round;stroke-linecap:round;" d="M382.1788683377781,882.4948815125972L370.6212306488851,889.1711306199431L297.82675455999924,934.4677479527891L237.35421155555377,982.8179039601237L206.03674168888392,1008.1754714995623"></path></g><g><path class="path" style="fill:none;stroke:#ccc;stroke-linejoin:round;stroke-linecap:round;" d="M382.1788683377781,846.1197449415922L391.4063371377779,840.8505813255906L409.4138823111098,832.1684322785586L464.36858538666274,783.4285413268954L488.2295148088888,751.9630770292133"></path><path class="path" style="fill:none;stroke:#ccc;stroke-linejoin:round;stroke-linecap:round;" d="M453.12785066666765,882.4649431686848L447.62865208888616,891.446443464607L382.1788683377781,998.116276787594"></path><path class="path" style="fill:none;stroke:#ccc;stroke-linejoin:round;stroke-linecap:round;" d="M382.1788683377781,923.2109687831253L453.12785066666765,882.4649431686848"></path><path class="path" style="fill:none;stroke:#ccc;stroke-linejoin:round;stroke-linecap:round;" d="M453.12785066666765,882.4649431686848L499.5448149333315,848.005865521729L536.5292555377746,803.8166864197701L562.384809528885,751.9630770292133"></path><path class="minor_road" style="fill:none;stroke:#ccc;stroke-linejoin:round;stroke-linecap:round;" d="M388.218666097775,777.4408277347684L409.4138823111098,832.1684322785586L414.22335089777334,832.7372628971934"></path><path class="major_road" style="fill:none;stroke:#ccc;stroke-linejoin:round;stroke-linecap:round;" d="M382.1788683377781,855.6102220192552L414.22335089777334,832.7372628971934L458.3660703288915,792.2604140862823L492.53566691555534,755.7952211871743L494.9404012088853,751.9630770292133"></path><path class="major_road" style="fill:none;stroke:#ccc;stroke-linejoin:round;stroke-linecap:round;" d="M533.938107733331,751.9630770292133L514.6256679822218,784.2668210268021L482.3947719111093,817.5285201780498"></path><path class="major_road" style="fill:none;stroke:#ccc;stroke-linejoin:round;stroke-linecap:round;" d="M482.3947719111093,817.5285201780498L442.1108121599973,847.8262349981815L382.1788683377781,882.4948815125972"></path></g><g></g><path class="waypath" style="fill:none;stroke:orange; stroke-width:5;stroke-linejoin:round; stroke-linecap:round}" d="M159.13510229333406,443.3821251746267L197.8718299022221,368.9528043679893L186.66837788444172,363.1146063711494L215.91665777777962,306.88814085535705L227.1387511466637,312.7263629101217L264.79428039110644,240.33223296701908L462.80271189333143,343.0551377944648L531.365601280002,209.01521575450897L640.8648977066659,265.0025668591261L607.8510648888878,329.55240428447723L549.9323869866639,299.9421503432095L516.8626301155527,364.5816409755498L548.9816780799993,381.01840565912426L523.1820481422183,431.40639701113105L511.3075074844419,454.6393000688404L547.975045119998,474.0998198725283L535.2989263644413,498.29070426523685L521.765305457775,524.1281980480999L514.3087650133348,535.1757326032966L511.0465285688915,538.9779985286295L506.7030937599993,539.8162932321429L500.19726222222016,537.9001909736544L498.55682332444485,533.8284727688879L499.37704277333614,528.4094929881394L480.92210517333297,521.0744064245373L447.6659347911118,590.9821119587868L410.8492663466677,575.922794945538L412.210084977778,571.8510880842805L300.00779264000084,515.4458475355059L159.13510229333406,443.3821251746267"></path><path class="center" style="fill:none; stroke:red; stroke-width:1;stroke-linejoin:round; stroke-linecap:round}" d="M400,400m0,4.5a4.5,4.5 0 1,1 0,-9a4.5,4.5 0 1,1 0,9z"></path></svg>
