<svg xmlns="http://www.w3.org/2000/svg" version="1.1" width="800" height="800"><g></g><g></g><g><path class="path" style="fill:none;stroke:#ccc;stroke-linejoin:round;stroke-linecap:round;" d="M537.3494749866659,24.329878455027938L540.3693738666661,-59.83266859315336L544.4518297600007,-173.85727478191257L546.6142264888877,-229.53709116578102"></path><path class="path" style="fill:none;stroke:#ccc;stroke-linejoin:round;stroke-linecap:round;" d="M537.0884960711119,26.66605563648045L537.3494749866659,24.329878455027938"></path><path class="path" style="fill:none;stroke:#ccc;stroke-linejoin:round;stroke-linecap:round;" d="M537.4053990400025,26.66605563648045L537.3494749866659,24.329878455027938"></path></g><g></g><g><path class="path" style="fill:none;stroke:#ccc;stroke-linejoin:round;stroke-linecap:round;" d="M28.53379640889034,137.78376450575888L54.985873635556345,132.5423834770918L79.10778197333275,112.41546161845326L122.57941276444762,111.57683923095465L131.9000883200024,96.90093908831477L181.00140714666486,97.14054575003684"></path><path class="path" style="fill:none;stroke:#ccc;stroke-linejoin:round;stroke-linecap:round;" d="M181.00140714666486,97.14054575003684L174.1786726399987,119.51379905454814L173.8804110222227,156.05370549298823L169.44376945777913,244.16838889196515L159.56385336888707,255.75923114456236L156.0965620622228,282.86439228616655"></path><path class="path" style="fill:none;stroke:#ccc;stroke-linejoin:round;stroke-linecap:round;" d="M-29.627219057780167,67.54909146949649L-18.740670008890447,67.81864954158664L-1.0127451022235618,87.28671840950847L23.910741333333135,87.85578461550176L119.96962360888938,87.67607950232923L131.9000883200024,96.90093908831477"></path><path class="path" style="fill:none;stroke:#ccc;stroke-linejoin:round;stroke-linecap:round;" d="M181.00140714666486,97.14054575003684L226.3558144000017,99.86607120931149"></path><path class="path" style="fill:none;stroke:#ccc;stroke-linejoin:round;stroke-linecap:round;" d="M-29.627219057780167,132.6322357468307L-23.512855893335654,132.81194026768208L28.53379640889034,137.78376450575888"></path><path class="path" style="fill:none;stroke:#ccc;stroke-linejoin:round;stroke-linecap:round;" d="M140.68016469333088,254.20180588029325L12.390386346665764,247.7924000583589"></path><path class="path" style="fill:none;stroke:#ccc;stroke-linejoin:round;stroke-linecap:round;" d="M226.3558144000017,248.63101407326758L169.44376945777913,244.16838889196515"></path><path class="minor_road" style="fill:none;stroke:#ccc;stroke-linejoin:round;stroke-linecap:round;" d="M-29.627219057780167,250.39809344895184L12.390386346665764,247.7924000583589L123.21321870222528,240.9337334856391L123.21321870222528,196.12768710777164"></path></g><g><path class="path" style="fill:none;stroke:#ccc;stroke-linejoin:round;stroke-linecap:round;" d="M431.67165553777886,112.20580602809787L482.3761305599983,113.04442837461829"></path><path class="path" style="fill:none;stroke:#ccc;stroke-linejoin:round;stroke-linecap:round;" d="M338.1293556622222,93.51649457588792L374.8528173511113,96.27197159454226"></path><path class="path" style="fill:none;stroke:#ccc;stroke-linejoin:round;stroke-linecap:round;" d="M226.3558144000017,99.86607120931149L384.6208853333337,109.39043061994016L431.67165553777886,112.20580602809787"></path><path class="path" style="fill:none;stroke:#ccc;stroke-linejoin:round;stroke-linecap:round;" d="M482.3761305599983,131.73371308483183L464.1635305244454,128.888390943408L431.67165553777886,112.20580602809787"></path><path class="path" style="fill:none;stroke:#ccc;stroke-linejoin:round;stroke-linecap:round;" d="M482.3761305599983,268.5480818320066L463.3433110755577,267.17036079615355L226.3558144000017,248.63101407326758"></path><path class="path" style="fill:none;stroke:#ccc;stroke-linejoin:round;stroke-linecap:round;" d="M374.8528173511113,96.27197159454226L384.13621020444407,97.29029991477728L384.6208853333337,109.39043061994016"></path></g><g><path class="path" style="fill:none;stroke:#ccc;stroke-linejoin:round;stroke-linecap:round;" d="M659.8231517866661,282.86439228616655L659.7113036800001,281.33692055009305L660.6992952888868,273.90921240486205L661.5754387911111,266.57135159894824L661.0907636622214,260.10205063968897L658.6301053155548,253.09363779984415L652.869927822223,246.055270858109L641.7596825600012,232.72728947550058L635.1233615644451,227.57579654827714L626.9957324800016,224.13148333318532L616.5938585599979,221.19632877968252L608.7458497422231,216.40423835627735L602.4450730666686,210.68367820605636L597.8406593422224,202.92647500894964L595.5291318044474,194.60020566359162L595.0630980266651,182.619953090325L594.7834777600001,136.97509442456067L594.7648364088891,120.41232251934707"></path><path class="path" style="fill:none;stroke:#ccc;stroke-linejoin:round;stroke-linecap:round;" d="M546.1668340622236,125.11459434404969L546.8006400000013,115.59024590626359"></path><path class="path" style="fill:none;stroke:#ccc;stroke-linejoin:round;stroke-linecap:round;" d="M546.1668340622236,133.11144780367613L546.1668340622236,125.11459434404969"></path><path class="path" style="fill:none;stroke:#ccc;stroke-linejoin:round;stroke-linecap:round;" d="M482.3761305599983,113.04442837461829L519.64019143111,113.64344431087375L546.8006400000013,115.59024590626359L594.7648364088891,120.41232251934707L636.5773869511104,122.89823712781072L734.4258389333336,130.68543657287955L738.3591640177801,130.71538733318448"></path><path class="path" style="fill:none;stroke:#ccc;stroke-linejoin:round;stroke-linecap:round;" d="M547.4903699911083,139.34120304882526L546.1668340622236,133.11144780367613"></path><path class="path" style="fill:none;stroke:#ccc;stroke-linejoin:round;stroke-linecap:round;" d="M519.230081706668,124.75518508814275L519.64019143111,113.64344431087375"></path><path class="path" style="fill:none;stroke:#ccc;stroke-linejoin:round;stroke-linecap:round;" d="M519.1741576533313,132.81194026768208L519.230081706668,124.75518508814275"></path><path class="path" style="fill:none;stroke:#ccc;stroke-linejoin:round;stroke-linecap:round;" d="M532.0739726222237,137.99341970309615L518.2980141511107,137.3045526072383L482.3761305599983,131.73371308483183"></path><path class="path" style="fill:none;stroke:#ccc;stroke-linejoin:round;stroke-linecap:round;" d="M531.757069653333,144.76228583976626L532.0739726222237,137.99341970309615"></path><path class="path" style="fill:none;stroke:#ccc;stroke-linejoin:round;stroke-linecap:round;" d="M532.0739726222237,137.99341970309615L547.4903699911083,139.34120304882526L594.7834777600001,136.97509442456067L613.8162972444443,134.1896748766303L636.5773869511104,122.89823712781072"></path><path class="path" style="fill:none;stroke:#ccc;stroke-linejoin:round;stroke-linecap:round;" d="M693.1352462222239,165.30846955254674L696.6957442844432,176.7196748405695L703.891305813333,209.30595131963491L709.1668081777752,225.3295054230839L712.9882851555558,282.86439228616655"></path><path class="path" style="fill:none;stroke:#ccc;stroke-linejoin:round;stroke-linecap:round;" d="M738.3591640177801,131.52405778691173L734.4258389333336,130.68543657287955"></path><path class="path" style="fill:none;stroke:#ccc;stroke-linejoin:round;stroke-linecap:round;" d="M659.7113036800001,281.33692055009305L482.3761305599983,268.5480818320066"></path><path class="path" style="fill:none;stroke:#ccc;stroke-linejoin:round;stroke-linecap:round;" d="M518.2980141511107,137.3045526072383L519.1741576533313,132.81194026768208"></path><path class="minor_road" style="fill:none;stroke:#ccc;stroke-linejoin:round;stroke-linecap:round;" d="M636.5773869511104,171.80776612088084L638.34831530667,193.88139080628753"></path><path class="minor_road" style="fill:none;stroke:#ccc;stroke-linejoin:round;stroke-linecap:round;" d="M738.3591640177801,159.64778937213123L730.231534933333,160.4564581103623L712.0935003022241,162.85251335427165L693.1352462222239,165.30846955254674L636.5773869511104,171.80776612088084"></path><path class="path" style="fill:none;stroke:#ccc;stroke-linejoin:round;stroke-linecap:round;" d="M517.42187064889,208.40743370726705L537.0884960711119,26.66605563648045"></path><path class="path" style="fill:none;stroke:#ccc;stroke-linejoin:round;stroke-linecap:round;" d="M529.7251623822231,209.12624779716134L517.42187064889,208.40743370726705"></path><path class="path" style="fill:none;stroke:#ccc;stroke-linejoin:round;stroke-linecap:round;" d="M529.7251623822231,209.12624779716134L531.757069653333,144.76228583976626"></path><path class="path" style="fill:none;stroke:#ccc;stroke-linejoin:round;stroke-linecap:round;" d="M541.4692135822224,209.66535834781826L537.4053990400025,26.66605563648045"></path><path class="path" style="fill:none;stroke:#ccc;stroke-linejoin:round;stroke-linecap:round;" d="M541.4692135822224,209.66535834781826L529.7251623822231,209.12624779716134"></path></g><g><path class="path" style="fill:none;stroke:#ccc;stroke-linejoin:round;stroke-linecap:round;" d="M738.3591640177801,130.71538733318448L858.5958786844421,131.3144024927169L965.2057656888901,139.91026709228754L994.3794801777767,145.78061053715646"></path><path class="path" style="fill:none;stroke:#ccc;stroke-linejoin:round;stroke-linecap:round;" d="M828.6392274488862,150.66257791034877L738.3591640177801,131.52405778691173"></path><path class="path" style="fill:none;stroke:#ccc;stroke-linejoin:round;stroke-linecap:round;" d="M968.7103396977764,96.60143076628447L965.2057656888901,139.91026709228754L963.0992930133325,160.36660603247583"></path><path class="minor_road" style="fill:none;stroke:#ccc;stroke-linejoin:round;stroke-linecap:round;" d="M994.3794801777767,168.09388273954391L974.4705171911082,165.60797636955976L963.0992930133325,160.36660603247583L888.9626396444437,150.30316932871938L857.9247900444461,147.78730899468064L843.8132872533351,149.10514065809548L828.6392274488862,150.66257791034877L738.3591640177801,159.64778937213123"></path><path class="minor_road" style="fill:none;stroke:#ccc;stroke-linejoin:round;stroke-linecap:round;" d="M843.8132872533351,149.10514065809548L845.6028569600021,169.74116984941065L846.6654139733328,180.97266754508018"></path><path class="minor_road" style="fill:none;stroke:#ccc;stroke-linejoin:round;stroke-linecap:round;" d="M950.1249126399998,282.86439228616655L955.7173179733327,240.39462417177856L963.0992930133325,160.36660603247583"></path></g><g><path class="path" style="fill:none;stroke:#ccc;stroke-linejoin:round;stroke-linecap:round;" d="M156.0965620622228,282.86439228616655L143.17810574222312,384.2162526100874L158.03526257777412,417.7304876130074L161.61440199111166,431.3278392087668L150.4109499733313,496.94834771193564L119.07483875555772,528.0962650366127"></path><path class="minor_road" style="fill:none;stroke:#ccc;stroke-linejoin:round;stroke-linecap:round;" d="M-11.75016334222164,380.7420287206769L-29.627219057780167,407.6073404122144"></path><path class="minor_road" style="fill:none;stroke:#ccc;stroke-linejoin:round;stroke-linecap:round;" d="M-29.627219057780167,364.119652191177L-11.75016334222164,380.7420287206769L11.700656355555111,403.35441833920777L31.684184746667597,427.31452538631856L119.07483875555772,528.0962650366127L126.86692352000318,538.2492727302015"></path></g><g></g><g><path class="path" style="fill:none;stroke:#ccc;stroke-linejoin:round;stroke-linecap:round;" d="M712.9882851555558,282.86439228616655L714.6473654044421,307.84302350878716"></path><path class="path" style="fill:none;stroke:#ccc;stroke-linejoin:round;stroke-linecap:round;" d="M714.6473654044421,307.84302350878716L738.3591640177801,296.851233381778"></path><path class="path" style="fill:none;stroke:#ccc;stroke-linejoin:round;stroke-linecap:round;" d="M674.2515575466678,306.10590194538236L666.6458862933323,303.7697726134211L663.066746880002,298.70815767906606L660.5501644800024,292.17897114157677L659.8231517866661,282.86439228616655"></path><path class="path" style="fill:none;stroke:#ccc;stroke-linejoin:round;stroke-linecap:round;" d="M721.0227074844479,517.1346022449434L679.191515591112,469.18471146561205L671.0079624533355,450.64563919976354L671.7536164977755,426.0865709260106L678.96781937778,365.19786101207137L683.1434820266659,315.270713172853L674.2515575466678,306.10590194538236"></path><path class="minor_road" style="fill:none;stroke:#ccc;stroke-linejoin:round;stroke-linecap:round;" d="M711.6647492266675,525.9997728392482L679.6948320711126,487.75370852276683L657.5675483022242,461.1880549546331L641.6291931022206,428.12317826226354"></path><path class="minor_road" style="fill:none;stroke:#ccc;stroke-linejoin:round;stroke-linecap:round;" d="M733.7174675911119,500.27279227785766L738.3591640177801,508.11967623606324"></path><path class="minor_road" style="fill:none;stroke:#ccc;stroke-linejoin:round;stroke-linecap:round;" d="M697.1990607644439,538.2492727302015L711.6647492266675,525.9997728392482L721.0227074844479,517.1346022449434L733.7174675911119,500.27279227785766L738.3591640177801,494.1330516822636"></path></g><g><path class="path" style="fill:none;stroke:#ccc;stroke-linejoin:round;stroke-linecap:round;" d="M738.3591640177801,296.851233381778L741.8078139733334,295.23391202278435L812.8127203555559,290.74135166965425L856.3029924977782,288.7646246496588L948.4844737422209,295.3237632140517"></path><path class="minor_road" style="fill:none;stroke:#ccc;stroke-linejoin:round;stroke-linecap:round;" d="M738.3591640177801,508.11967623606324L747.6798395733349,523.8433805219829"></path><path class="minor_road" style="fill:none;stroke:#ccc;stroke-linejoin:round;stroke-linecap:round;" d="M925.9284388977794,466.7288099694997L948.4844737422209,295.3237632140517L950.1249126399998,282.86439228616655"></path><path class="minor_road" style="fill:none;stroke:#ccc;stroke-linejoin:round;stroke-linecap:round;" d="M749.0220168533342,479.9667128343135L787.5164068977792,443.4576237946749L802.3549223822229,437.07825694978237L815.7953365333342,438.2463102545589L925.9284388977794,466.7288099694997"></path><path class="minor_road" style="fill:none;stroke:#ccc;stroke-linejoin:round;stroke-linecap:round;" d="M907.3430118400029,538.2492727302015L925.9284388977794,466.7288099694997"></path><path class="minor_road" style="fill:none;stroke:#ccc;stroke-linejoin:round;stroke-linecap:round;" d="M738.3591640177801,494.1330516822636L749.0220168533342,479.9667128343135"></path><path class="minor_road" style="fill:none;stroke:#ccc;stroke-linejoin:round;stroke-linecap:round;" d="M925.9284388977794,466.7288099694997L994.3794801777767,490.7487056776881"></path></g><g><path class="minor_road" style="fill:none;stroke:#ccc;stroke-linejoin:round;stroke-linecap:round;" d="M226.3558144000017,668.1711644958705L153.3376420977802,739.2113807480782L143.86783573333378,794.4679543022066"></path><path class="minor_road" style="fill:none;stroke:#ccc;stroke-linejoin:round;stroke-linecap:round;" d="M126.86692352000318,538.2492727302015L226.3558144000017,668.0813157539815"></path></g><g><path class="path" style="fill:none;stroke:#ccc;stroke-linejoin:round;stroke-linecap:round;" d="M400.85750215110966,794.4679543022066L415.80786574222293,656.1613780688494"></path><path class="minor_road" style="fill:none;stroke:#ccc;stroke-linejoin:round;stroke-linecap:round;" d="M226.3930971022237,668.1412149183452L226.3558144000017,668.1711644958705"></path><path class="minor_road" style="fill:none;stroke:#ccc;stroke-linejoin:round;stroke-linecap:round;" d="M482.3761305599983,651.8486342318356L415.80786574222293,656.1613780688494L373.697053582222,659.3060862608254L226.3930971022237,668.1412149183452"></path><path class="minor_road" style="fill:none;stroke:#ccc;stroke-linejoin:round;stroke-linecap:round;" d="M226.3558144000017,668.0813157539815L226.3930971022237,668.1412149183452"></path></g><g><path class="minor_road" style="fill:none;stroke:#ccc;stroke-linejoin:round;stroke-linecap:round;" d="M738.3591640177801,673.2625919599086L676.7122158933344,670.1178869828582L666.2544179200013,669.5488450489938L615.3262466844426,643.223142458126"></path><path class="minor_road" style="fill:none;stroke:#ccc;stroke-linejoin:round;stroke-linecap:round;" d="M615.3262466844426,643.223142458126L644.0712100977762,583.1739948559552L697.1990607644439,538.2492727302015"></path><path class="minor_road" style="fill:none;stroke:#ccc;stroke-linejoin:round;stroke-linecap:round;" d="M615.3262466844426,643.223142458126L482.3761305599983,651.8486342318356"></path><path class="minor_road" style="fill:none;stroke:#ccc;stroke-linejoin:round;stroke-linecap:round;" d="M666.2544179200013,669.5488450489938L695.8009594311116,794.4679543022066"></path></g><g><path class="minor_road" style="fill:none;stroke:#ccc;stroke-linejoin:round;stroke-linecap:round;" d="M917.0551557688887,695.215607445687L892.131669333332,767.483606768772"></path><path class="minor_road" style="fill:none;stroke:#ccc;stroke-linejoin:round;stroke-linecap:round;" d="M870.4704193422222,680.0611421372741L907.3430118400029,538.2492727302015"></path><path class="minor_road" style="fill:none;stroke:#ccc;stroke-linejoin:round;stroke-linecap:round;" d="M994.3794801777767,720.3731806818396L917.0551557688887,695.215607445687L870.4704193422222,680.0611421372741L738.3591640177801,673.2625919599086"></path></g><g><path class="path" style="fill:none;stroke:#ccc;stroke-linejoin:round;stroke-linecap:round;" d="M226.3558144000017,893.4799866080284L206.67054762666885,912.7072852645069"></path><path class="minor_road" style="fill:none;stroke:#ccc;stroke-linejoin:round;stroke-linecap:round;" d="M143.86783573333378,794.4679543022066L129.3275818666698,879.1942658610642"></path><path class="minor_road" style="fill:none;stroke:#ccc;stroke-linejoin:round;stroke-linecap:round;" d="M81.88534328889,986.8908612318337L147.16735487999904,1010.2809160165489L226.3558144000017,1010.849943742156"></path><path class="major_road" style="fill:none;stroke:#ccc;stroke-linejoin:round;stroke-linecap:round;" d="M129.3275818666698,879.1942658610642L106.52920945777805,921.8716891091317L81.88534328889,986.8908612318337L55.26549390222135,1050.6818253099918"></path><path class="major_road" style="fill:none;stroke:#ccc;stroke-linejoin:round;stroke-linecap:round;" d="M-29.627219057780167,807.2862494178116L129.3275818666698,879.1942658610642L206.67054762666885,912.7072852645069L226.3558144000017,920.7935242708772"></path></g><g><path class="path" style="fill:none;stroke:#ccc;stroke-linejoin:round;stroke-linecap:round;" d="M365.1593147733329,894.2886118590832L260.4135628799995,884.6150547377765L233.02941809777985,886.9510846417397"></path><path class="path" style="fill:none;stroke:#ccc;stroke-linejoin:round;stroke-linecap:round;" d="M233.02941809777985,886.9510846417397L226.3558144000017,893.4799866080284"></path><path class="path" style="fill:none;stroke:#ccc;stroke-linejoin:round;stroke-linecap:round;" d="M363.46295182222457,974.9712020177394L387.1933917866663,897.7327559329569L400.055924053333,802.0151762459427L400.85750215110966,794.4679543022066"></path><path class="path" style="fill:none;stroke:#ccc;stroke-linejoin:round;stroke-linecap:round;" d="M387.1933917866663,897.7327559329569L365.1593147733329,894.2886118590832"></path><path class="minor_road" style="fill:none;stroke:#ccc;stroke-linejoin:round;stroke-linecap:round;" d="M437.65552924444273,804.411118850112L400.055924053333,802.0151762459427L377.2389102933339,801.1166976578534"></path><path class="minor_road" style="fill:none;stroke:#ccc;stroke-linejoin:round;stroke-linecap:round;" d="M482.3761305599983,806.0583291407675L437.65552924444273,804.411118850112"></path><path class="minor_road" style="fill:none;stroke:#ccc;stroke-linejoin:round;stroke-linecap:round;" d="M226.3558144000017,1010.849943742156L294.210332444447,1011.329124968499"></path><path class="major_road" style="fill:none;stroke:#ccc;stroke-linejoin:round;stroke-linecap:round;" d="M226.3558144000017,920.7935242708772L321.333498311109,959.6972516253591L363.46295182222457,974.9712020177394L482.3761305599983,1017.8879162389785"></path></g><g><path class="minor_road" style="fill:none;stroke:#ccc;stroke-linejoin:round;stroke-linecap:round;" d="M524.2259638044452,1032.982108829543L540.2202430577781,978.834610292688"></path><path class="minor_road" style="fill:none;stroke:#ccc;stroke-linejoin:round;stroke-linecap:round;" d="M698.5785207466688,806.2080755271018L548.0868932266676,808.4542710352689L482.3761305599983,806.0583291407675"></path><path class="minor_road" style="fill:none;stroke:#ccc;stroke-linejoin:round;stroke-linecap:round;" d="M599.4624568888903,1050.6818253099918L600.5250139022246,1047.6270535532385"></path><path class="minor_road" style="fill:none;stroke:#ccc;stroke-linejoin:round;stroke-linecap:round;" d="M695.8009594311116,794.4679543022066L698.5785207466688,806.2080755271018L738.3591640177801,924.1478146053851"></path><path class="major_road" style="fill:none;stroke:#ccc;stroke-linejoin:round;stroke-linecap:round;" d="M482.3761305599983,1017.8879162389785L524.2259638044452,1032.982108829543L600.5250139022246,1047.6270535532385L610.181233777781,1050.6818253099918"></path></g><g><path class="minor_road" style="fill:none;stroke:#ccc;stroke-linejoin:round;stroke-linecap:round;" d="M751.9673503288905,964.4591321069747L826.2531345066673,941.4583355151117L859.3601740800004,901.3266444709152L926.0962110577784,906.2083415538073M926.0962110577784,906.2083415538073L990.6698513066658,920.314339864999L994.3794801777767,926.5736847706139M994.3794801777767,955.3846037127078L974.3773104355532,1037.504373602569L960.8250481777759,1046.18951366283L932.6579666488869,1039.840377336368L910.3815520711105,1034.8389329612255L900.5948427377807,1027.201993400231L926.0962110577784,906.2083415538073"></path><path class="minor_road" style="fill:none;stroke:#ccc;stroke-linejoin:round;stroke-linecap:round;" d="M930.0668188444433,1050.6818253099918L932.6579666488869,1039.840377336368"></path><path class="minor_road" style="fill:none;stroke:#ccc;stroke-linejoin:round;stroke-linecap:round;" d="M738.3591640177801,924.1478146053851L751.9673503288905,964.4591321069747L779.6870394311118,1050.6818253099918"></path></g><path class="waypath" style="fill:none;stroke:orange; stroke-width:5;stroke-linejoin:round; stroke-linecap:round}" d="M168.95909432888948,380.861829565838L171.43839402666345,341.0279928203672L176.6579723377763,276.54485123977065L178.39161799111025,254.7109641637653L383.1855012977794,273.13050083629787L383.98707939555607,264.20526502653956L399.1052151466647,265.6129368338734L414.27927495111,267.20031125098467L413.57090360888833,276.21539641171694L618.9985928533351,290.80125248245895L617.1344577422242,309.58014483749866L603.9177398044449,443.15812307037413L603.5449127822212,452.8918932378292L632.6627032177785,454.92849658057094L625.4298589866667,545.317438814789L589.8994437688889,541.9930052254349L592.6770050844425,494.10310172103345L512.9293050311098,486.1364097818732L247.73744412444285,462.17640601471066L176.3783520711113,456.665599193424L178.6712382577789,412.4293138310313L167.35593813333253,411.5607597399503L168.95909432888948,380.861829565838"></path><path class="center" style="fill:none; stroke:red; stroke-width:1;stroke-linejoin:round; stroke-linecap:round}" d="M400,400m0,4.5a4.5,4.5 0 1,1 0,-9a4.5,4.5 0 1,1 0,9z"></path></svg>
