<svg xmlns="http://www.w3.org/2000/svg" version="1.1" width="800" height="800"><g><path class="minor_road" style="fill:none;stroke:#ccc;stroke-linejoin:round;stroke-linecap:round;" d="M-74.93688706847024,-10.175354912877083L-8.894308352057124,25.97443663328886L181.06851601065136,128.0513530150056"></path><path class="minor_road" style="fill:none;stroke:#ccc;stroke-linejoin:round;stroke-linecap:round;" d="M-74.93688706847024,116.48056920617819L-65.72060307909851,129.464761197567"></path></g><g><path class="minor_road" style="fill:none;stroke:#ccc;stroke-linejoin:round;stroke-linecap:round;" d="M181.06851601065136,128.0513530150056L183.69321824706276,129.464761197567"></path></g><g><path class="minor_road" style="fill:none;stroke:#ccc;stroke-linejoin:round;stroke-linecap:round;" d="M450.52551805155235,129.464761197567L498.50835581155843,76.6176431402564L521.012194872892,51.96681671589613L573.9312624071317,-34.1794046536088L590.663739164389,-125.06908594071865"></path><path class="minor_road" style="fill:none;stroke:#ccc;stroke-linejoin:round;stroke-linecap:round;" d="M652.4560898275231,129.464761197567L498.50835581155843,76.6176431402564"></path><path class="minor_road" style="fill:none;stroke:#ccc;stroke-linejoin:round;stroke-linecap:round;" d="M573.9312624071317,-34.1794046536088L636.9613987839839,-50.12222000211477L693.0942352497368,-89.42229782044888"></path></g><g><path class="minor_road" style="fill:none;stroke:#ccc;stroke-linejoin:round;stroke-linecap:round;" d="M693.0942352497368,-89.42229782044888L744.0149499448307,-125.06908594071865"></path></g><g><path class="minor_road" style="fill:none;stroke:#ccc;stroke-linejoin:round;stroke-linecap:round;" d="M-65.72060307909851,129.464761197567L-37.027835448941914,169.92655005306005L111.00686199465417,337.97800447046757"></path></g><g><path class="minor_road" style="fill:none;stroke:#ccc;stroke-linejoin:round;stroke-linecap:round;" d="M183.69321824706276,129.464761197567L207.12912486397545,142.05367505550385L303.11717000530916,174.01105696707964L371.10590577774565,169.92655005306005L437.081375630165,142.88015929609537"></path></g><g><path class="minor_road" style="fill:none;stroke:#ccc;stroke-linejoin:round;stroke-linecap:round;" d="M437.081375630165,142.88015929609537L439.09464155018213,142.05367505550385L450.52551805155235,129.464761197567"></path><path class="minor_road" style="fill:none;stroke:#ccc;stroke-linejoin:round;stroke-linecap:round;" d="M693.0942352497368,184.63556472957134L662.2092447288742,132.8186110407114L652.4560898275231,129.464761197567"></path></g><g><path class="path" style="fill:none;stroke:#ccc;stroke-linejoin:round;stroke-linecap:round;" d="M949.0996383288293,238.4408191666007L859.747914183099,293.16832653433084L782.1104150755564,334.0372456982732L694.3394775039633,387.3512557670474"></path><path class="path" style="fill:none;stroke:#ccc;stroke-linejoin:round;stroke-linecap:round;" d="M930.8162011590903,387.3512557670474L859.747914183099,293.16832653433084"></path><path class="minor_road" style="fill:none;stroke:#ccc;stroke-linejoin:round;stroke-linecap:round;" d="M782.1104150755564,334.0372456982732L693.0942352497368,184.63556472957134"></path></g><g><path class="path" style="fill:none;stroke:#ccc;stroke-linejoin:round;stroke-linecap:round;" d="M23.221011342218844,641.8827137425542L14.683272533322452,636.3968246951699L-74.93688706847024,623.4606649801135"></path></g><g><path class="path" style="fill:none;stroke:#ccc;stroke-linejoin:round;stroke-linecap:round;" d="M437.081375630165,543.6277226284146L275.3191872283933,641.8827137425542"></path></g><g><path class="path" style="fill:none;stroke:#ccc;stroke-linejoin:round;stroke-linecap:round;" d="M693.0942352497368,388.10586842149496L437.081375630165,543.6277226284146"></path></g><g><path class="path" style="fill:none;stroke:#ccc;stroke-linejoin:round;stroke-linecap:round;" d="M694.3394775039633,387.3512557670474L693.0942352497368,388.10586842149496"></path><path class="path" style="fill:none;stroke:#ccc;stroke-linejoin:round;stroke-linecap:round;" d="M949.0996383288293,411.5707237198949L930.8162011590903,387.3512557670474"></path></g><g><path class="path" style="fill:none;stroke:#ccc;stroke-linejoin:round;stroke-linecap:round;" d="M181.06851601065136,699.1371558308601L151.26472385419765,717.2477534636855L94.5279076124134,687.7701176032424L23.221011342218844,641.8827137425542"></path><path class="path" style="fill:none;stroke:#ccc;stroke-linejoin:round;stroke-linecap:round;" d="M181.06851601065136,809.6452460363507L151.26472385419765,717.2477534636855"></path><path class="path" style="fill:none;stroke:#ccc;stroke-linejoin:round;stroke-linecap:round;" d="M-74.93688706847024,787.5460414588451L-10.900117731565842,837.9489838704467L59.027318556414684,896.4249627962708"></path></g><g><path class="path" style="fill:none;stroke:#ccc;stroke-linejoin:round;stroke-linecap:round;" d="M275.3191872283933,641.8827137425542L181.06851601065136,699.1371558308601"></path><path class="path" style="fill:none;stroke:#ccc;stroke-linejoin:round;stroke-linecap:round;" d="M209.05291229864815,896.4249627962708L181.06851601065136,809.6452460363507"></path></g><g></g><g></g><path class="waypath" style="fill:none;stroke:orange; stroke-width:5;stroke-linejoin:round; stroke-linecap:round}" d="M172.05355861331918,656.2083078026772L67.58742698666174,483.9655479565263L627.9464413866808,143.91027008742094L732.4125730133092,316.03432289510965L172.05355861331918,656.2083078026772"></path><path class="center" style="fill:none; stroke:red; stroke-width:1;stroke-linejoin:round; stroke-linecap:round}" d="M400,400m0,4.5a4.5,4.5 0 1,1 0,-9a4.5,4.5 0 1,1 0,9z"></path></svg>
