<svg xmlns="http://www.w3.org/2000/svg" version="1.1" width="800" height="800"><g><path class="path" style="fill:none;stroke:#ccc;stroke-linejoin:round;stroke-linecap:round;" d="M-27.110636657777377,157.77596855163574L-22.994626332444568,152.67575335502625L44.93445711644472,139.69773983955383"></path></g><g><path class="path" style="fill:none;stroke:#ccc;stroke-linejoin:round;stroke-linecap:round;" d="M44.93445711644472,139.69773983955383L300.9324036551111,90.77875627577305"></path></g><g><path class="path" style="fill:none;stroke:#ccc;stroke-linejoin:round;stroke-linecap:round;" d="M300.9324036551111,90.77875627577305L556.945263274667,41.8836954832077"></path><path class="path" style="fill:none;stroke:#ccc;stroke-linejoin:round;stroke-linecap:round;" d="M556.945263274667,109.59927825629711L531.8912873813333,115.84884014725685L355.7827151644451,157.77596855163574"></path></g><g><path class="path" style="fill:none;stroke:#ccc;stroke-linejoin:round;stroke-linecap:round;" d="M556.945263274667,41.8836954832077L558.2874405546668,41.62030382454395L812.9581228942225,-7.202944844961166"></path><path class="path" style="fill:none;stroke:#ccc;stroke-linejoin:round;stroke-linecap:round;" d="M801.5048767715562,157.77596855163574L812.9581228942225,147.45581448078156L812.9581228942225,147.45581448078156"></path><path class="path" style="fill:none;stroke:#ccc;stroke-linejoin:round;stroke-linecap:round;" d="M635.1792856177781,157.77596855163574L619.1029844195559,111.01201447844505L607.4558682453339,102.70320950448513L595.3911858062229,102.70320950448513L581.1939328000003,103.37366066873074L566.3255911537781,107.27664399147034L556.945263274667,109.59927825629711"></path></g><g><path class="path" style="fill:none;stroke:#ccc;stroke-linejoin:round;stroke-linecap:round;" d="M-54.14805230933325,412.30753330886364L-67.06278035911146,354.57704888284206L-65.8697338879997,252.09399005770683L-57.16049464888874,194.8902035355568L-27.110636657777377,157.77596855163574"></path></g><g><path class="path" style="fill:none;stroke:#ccc;stroke-linejoin:round;stroke-linecap:round;" d="M300.9324036551111,170.8258139193058L216.8077143608889,190.86749996244907"></path></g><g><path class="path" style="fill:none;stroke:#ccc;stroke-linejoin:round;stroke-linecap:round;" d="M355.7827151644451,157.77596855163574L300.9324036551111,170.8258139193058"></path></g><g><path class="path" style="fill:none;stroke:#ccc;stroke-linejoin:round;stroke-linecap:round;" d="M761.3588630186669,412.30753330886364L759.5096409884445,400.38311387598515L750.3977485653336,391.95460779964924L743.7017752462225,389.5362011194229L734.5898828231111,391.284158423543L721.854111744,395.28291000425816"></path><path class="path" style="fill:none;stroke:#ccc;stroke-linejoin:round;stroke-linecap:round;" d="M721.854111744,395.28291000425816L680.7387477333336,404.14241893589497"></path><path class="path" style="fill:none;stroke:#ccc;stroke-linejoin:round;stroke-linecap:round;" d="M646.170226232889,198.88896229863167L728.699215872,183.08548368513584L758.1674637084443,176.93170431256294L782.2819155057782,171.1610392779112L798.0897812480002,160.84088650345802L801.5048767715562,157.77596855163574"></path><path class="path" style="fill:none;stroke:#ccc;stroke-linejoin:round;stroke-linecap:round;" d="M743.7017752462225,389.5362011194229L752.0083613013339,379.4794598221779L751.3372726613338,369.1593267172575L749.0555712853338,359.38991908729076L746.236998997334,347.4654938876629L729.8922623431113,276.7330333441496L728.2965626880004,269.62147331237793L720.7952830008894,267.2270085513592L711.280737393778,267.8974587023258L700.8266676906669,270.2919234484434L691.312122083556,273.6441739946604L665.9897107342222,281.2825158983469L646.5728794168895,287.05317518115044L619.6398553315557,296.1521393060684L613.3465351964446,296.1521393060684L608.5296100693336,289.18424838781357"></path><path class="path" style="fill:none;stroke:#ccc;stroke-linejoin:round;stroke-linecap:round;" d="M599.5519353742225,249.93897143006325L608.5296100693336,289.18424838781357"></path><path class="path" style="fill:none;stroke:#ccc;stroke-linejoin:round;stroke-linecap:round;" d="M665.9897107342222,281.2825158983469L646.170226232889,198.88896229863167L637.0583338097781,163.25929825007915L635.1792856177781,157.77596855163574"></path></g><g><path class="path" style="fill:none;stroke:#ccc;stroke-linejoin:round;stroke-linecap:round;" d="M2.790090524444622,666.8385048657656L-54.14805230933325,412.30753330886364"></path></g><g><path class="path" style="fill:none;stroke:#ccc;stroke-linejoin:round;stroke-linecap:round;" d="M300.9324036551111,664.4440487921238L291.4924234524451,666.8385048657656M255.5817246720003,666.8385048657656L252.97193551644477,656.8057336360216"></path></g><g><path class="path" style="fill:none;stroke:#ccc;stroke-linejoin:round;stroke-linecap:round;" d="M384.609700522667,666.8385048657656L378.9129036231111,644.5940061509609L300.9324036551111,664.4440487921238"></path></g><g><path class="path" style="fill:none;stroke:#ccc;stroke-linejoin:round;stroke-linecap:round;" d="M812.9581228942225,530.4023155868053L796.4791685120003,529.8037008494139L786.0250988088892,518.8131333440542L782.9530041457783,506.36194448173046L779.8659964017779,492.95297023653984L771.2909748906673,455.8388365358114L766.8767029475557,437.23387572169304L764.0581306595554,424.7587328851223L761.6422115555561,414.1752133220434L761.3588630186669,412.30753330886364"></path><path class="path" style="fill:none;stroke:#ccc;stroke-linejoin:round;stroke-linecap:round;" d="M694.399129827556,632.8132795244455L656.7585136640005,641.936159402132L614.2860592924449,654.123942643404L566.7431574186667,666.8385048657656"></path><path class="path" style="fill:none;stroke:#ccc;stroke-linejoin:round;stroke-linecap:round;" d="M694.399129827556,666.8385048657656L694.399129827556,632.8132795244455L702.7057158826669,616.0760254263878L711.280737393778,609.1081549376249L718.5135816248894,605.7559146881104L727.3570385920007,601.7332262545824L750.6661840213337,599.6021590828896L794.3316848640002,599.314824193716L812.9581228942225,599.051433891058"></path></g><g><path class="path" style="fill:none;stroke:#ccc;stroke-linejoin:round;stroke-linecap:round;" d="M44.93445711644472,855.2341420203447L2.790090524444622,666.8385048657656"></path></g><g><path class="path" style="fill:none;stroke:#ccc;stroke-linejoin:round;stroke-linecap:round;" d="M59.7282333582225,921.3688831478357L44.93445711644472,855.2341420203447"></path><path class="path" style="fill:none;stroke:#ccc;stroke-linejoin:round;stroke-linecap:round;" d="M291.4924234524451,666.8385048657656L257.8037737244449,675.4106570333242L255.5817246720003,666.8385048657656"></path></g><g><path class="path" style="fill:none;stroke:#ccc;stroke-linejoin:round;stroke-linecap:round;" d="M556.945263274667,669.4724064469337L544.2244052764449,672.8725338280201L498.39650770488925,687.4787137657404L437.17831065599967,703.2821193933487L371.9335817671108,721.2405320554972L363.1050378808891,728.8788427263498L356.66258693688906,742.2638434171677L353.8589277297774,754.4516154527664L357.870546488889,776.025644749403L367.9219630080006,815.007342889905L390.5451067164445,921.3688831478357M486.01865056711176,921.3688831478357L491.96896984177783,909.3247968405485L490.10483473066733,889.4987431764603L483.66238378666685,869.936075642705L490.10483473066733,851.1875182688236L500.00712044088914,841.1308194696903L523.450483598222,834.1629633307457L554.7977796266669,827.1951068043709L556.945263274667,827.2908848673105"></path><path class="path" style="fill:none;stroke:#ccc;stroke-linejoin:round;stroke-linecap:round;" d="M385.4746592142228,670.1907432228327L384.609700522667,666.8385048657656"></path></g><g><path class="path" style="fill:none;stroke:#ccc;stroke-linejoin:round;stroke-linecap:round;" d="M566.7431574186667,666.8385048657656L556.945263274667,669.4724064469337M556.945263274667,827.2908848673105L580.9254973440002,828.4162775427103L597.9413226382226,838.329310387373L606.6505618773335,857.604649335146L610.1253097244444,889.4987431764603L616.9704138524448,921.3688831478357"></path><path class="path" style="fill:none;stroke:#ccc;stroke-linejoin:round;stroke-linecap:round;" d="M812.9581228942225,798.0785604417324L766.6082674915556,793.7206556200981L708.5963828337781,794.917882218957L692.3858639075556,796.1151088476181L693.593823459556,729.8126800209284L694.399129827556,677.8290574550629L694.399129827556,666.8385048657656"></path><path class="path" style="fill:none;stroke:#ccc;stroke-linejoin:round;stroke-linecap:round;" d="M692.3858639075556,796.1151088476181L690.1936410168892,921.3688831478357"></path></g><path class="waypath" style="fill:none;stroke:orange; stroke-width:5;stroke-linejoin:round; stroke-linecap:round}" d="M581.4921944177777,321.22217601537704L588.3522116266668,350.9135205745697L664.5580549688893,333.4339396804571L673.953295928889,374.3792549818754L680.6641823288896,404.07058507204056L687.6733303466667,434.7196915894747L714.2186143288895,551.5693311840296L385.08691911111146,624.3608467876911L363.7612134400001,631.3047717660666L252.95702243555615,656.6860108375549L200.76123932444534,668.6582913547754L85.93051647999982,164.62414449453354L181.0759725511116,142.83449232578278L187.9359897600002,173.0047787874937L202.99820145777812,239.33149027824402L283.52883825777826,220.89410522580147L276.66882104888964,190.72383199632168L536.7529517511116,131.3410476744175L543.4638381511113,160.55355042219162L618.6257658311115,143.31338579952717L623.8453441422221,166.06082467734814L640.6971255466674,239.81038334965706L599.5370222933334,249.8671375066042L566.877375146667,256.57163974642754L581.4921944177777,321.22217601537704"></path><path class="center" style="fill:none; stroke:red; stroke-width:1;stroke-linejoin:round; stroke-linecap:round}" d="M400,400m0,4.5a4.5,4.5 0 1,1 0,-9a4.5,4.5 0 1,1 0,9z"></path></svg>
