<svg xmlns="http://www.w3.org/2000/svg" version="1.1" width="800" height="800"><g><path class="path" style="fill:none;stroke:#ccc;stroke-linejoin:round;stroke-linecap:round;" d="M-20.847142684444407,115.4907434284687L78.02658360888836,113.23995345830917L235.29993466311043,111.42016568779945"></path></g><g><path class="path" style="fill:none;stroke:#ccc;stroke-linejoin:round;stroke-linecap:round;" d="M235.29993466311043,111.42016568779945L243.32317218133358,111.32438746094704L341.92846301866575,110.55816099047661L367.6386144711105,104.66779533028603L383.4464802133325,86.42202737927437L389.08362478933304,58.311090648174286L388.5467538773328,19.999757021665573L375.1548072391106,-1.9813737273216248L373.8126299591104,-2.7954896688461304"></path></g><g><path class="path" style="fill:none;stroke:#ccc;stroke-linejoin:round;stroke-linecap:round;" d="M531.5333734399992,-2.7954896688461304L531.8912873813324,15.97706663608551L530.5491101013331,65.01557329297066L540.2127865173334,91.78561282157898L571.0232116337775,104.09312546253204L597.5386694542221,114.8202954530716L620.0574215964443,128.22925713658333L634.7915455146658,144.84679073095322L646.0360085048887,169.7491440474987L646.5728794168881,209.68868187069893L647.378185784889,246.89853239059448L647.378185784889,251.73533362150192"></path></g><g></g><g></g><g></g><g><path class="path" style="fill:none;stroke:#ccc;stroke-linejoin:round;stroke-linecap:round;" d="M647.378185784889,251.73533362150192L647.378185784889,294.3566465675831"></path></g><g></g><g><path class="path" style="fill:none;stroke:#ccc;stroke-linejoin:round;stroke-linecap:round;" d="M235.29993466311043,729.3330091536045L199.38923588266607,704.8138318359852L177.94422556444442,657.4036958813667L170.72629441422214,619.6192467212677L163.4785371022217,590.6942647993565L142.33178840177789,572.209092259407L110.44762146133235,564.9778455197811"></path><path class="path" style="fill:none;stroke:#ccc;stroke-linejoin:round;stroke-linecap:round;" d="M110.44762146133235,564.9778455197811L-20.847142684444407,568.0427447259426"></path></g><g><path class="path" style="fill:none;stroke:#ccc;stroke-linejoin:round;stroke-linecap:round;" d="M491.1785765546656,744.9927168190479L398.4490395875555,744.9927168190479L312.99708609422214,740.2038155198097L244.12847854933352,735.3670251369476L235.29993466311043,729.3330091536045"></path></g><g><path class="path" style="fill:none;stroke:#ccc;stroke-linejoin:round;stroke-linecap:round;" d="M699.3353596017778,760.7960901856422L741.6885093262217,742.5982662439346"></path><path class="path" style="fill:none;stroke:#ccc;stroke-linejoin:round;stroke-linecap:round;" d="M747.3256539022223,742.5982662439346L741.6885093262217,742.5982662439346L680.3360945493332,742.5982662439346L573.4093045760001,744.9927168190479L495.1752822328881,744.9927168190479L491.1785765546656,744.9927168190479"></path></g><g><path class="path" style="fill:none;stroke:#ccc;stroke-linejoin:round;stroke-linecap:round;" d="M974.8992682666662,760.7960901856422L938.6306555448882,749.8295069634914L876.7115436942222,740.2038155198097L789.1121065528887,742.5982662439346L747.3256539022223,742.5982662439346"></path></g><g><path class="path" style="fill:none;stroke:#ccc;stroke-linejoin:round;stroke-linecap:round;" d="M-20.847142684444407,877.7889074385166L-18.699659036445155,882.4820276796818L42.92119119644394,943.8278051614761L116.59181078755591,979.6966397464275L230.19966099911107,984.2939799427986L235.29993466311043,982.8573111593723"></path></g><g><path class="path" style="fill:none;stroke:#ccc;stroke-linejoin:round;stroke-linecap:round;" d="M235.29993466311043,982.8573111593723L281.91822552177746,970.0709583759308L388.81518933333336,927.4497773051262L474.02853353244427,884.8764768540859L491.1785765546656,874.5803455710411"></path><path class="path" style="fill:none;stroke:#ccc;stroke-linejoin:round;stroke-linecap:round;" d="M477.36906365155573,1015.373912602663L491.1785765546656,1012.2611306905746"></path></g><g><path class="path" style="fill:none;stroke:#ccc;stroke-linejoin:round;stroke-linecap:round;" d="M491.1785765546656,874.5803455710411L545.0147985635549,842.2552790045738L609.3200033564444,804.2314169406891L670.6724181333329,773.1514541506767L699.3353596017778,760.7960901856422"></path><path class="path" style="fill:none;stroke:#ccc;stroke-linejoin:round;stroke-linecap:round;" d="M491.1785765546656,1012.2611306905746L573.6777400319997,993.9196606576443"></path></g><g><path class="path" style="fill:none;stroke:#ccc;stroke-linejoin:round;stroke-linecap:round;" d="M1003.1744696319997,774.636013418436L985.5173818595554,764.052542746067L974.8992682666662,760.7960901856422"></path></g><path class="waypath" style="fill:none;stroke:orange; stroke-width:5;stroke-linejoin:round; stroke-linecap:round}" d="M527.9542340266662,295.6017634868622L531.5333734399992,631.7830624580383L277.41447509333284,639.9241985678673L272.3440275911107,450.76242730021477L268.7648881777768,164.86445182561874L410.14089500444334,162.46999487280846L523.4803097599997,160.55442929267883L527.9542340266662,295.6017634868622"></path><path class="center" style="fill:none; stroke:red; stroke-width:1;stroke-linejoin:round; stroke-linecap:round}" d="M400,400m0,4.5a4.5,4.5 0 1,1 0,-9a4.5,4.5 0 1,1 0,9z"></path></svg>
