<svg xmlns="http://www.w3.org/2000/svg" version="1.1" width="800" height="800"><g><path class="path" style="fill:none;stroke:#ccc;stroke-linejoin:round;stroke-linecap:round;" d="M-147.98115726222204,-140.0946819037199L-202.83146877155605,-127.04483653604984"></path></g><g><path class="path" style="fill:none;stroke:#ccc;stroke-linejoin:round;stroke-linecap:round;" d="M257.5949905919997,114.436882853508L255.74576856177737,102.5124634206295L246.63387613866644,94.0839573442936L239.93790281955535,91.66555066406727L230.82601039644396,93.41350796818733L218.09023931733282,97.41225954890251"></path><path class="path" style="fill:none;stroke:#ccc;stroke-linejoin:round;stroke-linecap:round;" d="M218.09023931733282,97.41225954890251L176.9748753066665,106.27176848053932"></path><path class="path" style="fill:none;stroke:#ccc;stroke-linejoin:round;stroke-linecap:round;" d="M142.4063538062219,-98.98168815672398L224.93534344533282,-114.7851667702198L254.40359128177715,-120.9389461427927L278.51804307911107,-126.70961117744446L294.3259088213331,-137.02976395189762L297.741004344889,-140.0946819037199"></path><path class="path" style="fill:none;stroke:#ccc;stroke-linejoin:round;stroke-linecap:round;" d="M239.93790281955535,91.66555066406727L248.24448887466679,81.60880936682224L247.57340023466668,71.28867626190186L245.29169885866668,61.51926863193512L242.47312657066686,49.59484343230724L226.12838991644412,-21.137617111206055L224.5326902613333,-28.249177142977715L217.03141057422226,-30.643641903996468L207.5168649671109,-29.973191753029823L197.06279526399976,-27.57872700691223L187.54824965688886,-24.226476460695267L162.22583830755502,-16.588134557008743L142.80900699022231,-10.817475274205208L115.87598290488859,-1.7185111492872238L109.58266276977747,-1.7185111492872238L104.76573764266641,-8.686402067542076"></path><path class="path" style="fill:none;stroke:#ccc;stroke-linejoin:round;stroke-linecap:round;" d="M95.78806294755532,-47.9316790252924L104.76573764266641,-8.686402067542076"></path><path class="path" style="fill:none;stroke:#ccc;stroke-linejoin:round;stroke-linecap:round;" d="M162.22583830755502,-16.588134557008743L142.4063538062219,-98.98168815672398L133.29446138311096,-134.6113522052765L131.41541319111093,-140.0946819037199"></path></g><g><path class="path" style="fill:none;stroke:#ccc;stroke-linejoin:round;stroke-linecap:round;" d="M376.12415749688853,-140.0946819037199L388.90466781866644,-126.70961117744446L416.3596497351109,-100.84937185049057L453.34409033955535,-75.92298029363155L508.53740270933304,-44.84281900525093L565.2071100871108,-15.175400495529175"></path></g><g><path class="path" style="fill:none;stroke:#ccc;stroke-linejoin:round;stroke-linecap:round;" d="M646.8114887111115,-140.0946819037199L655.7593372444444,-133.39017397165298L821.2199697066667,6.518445163965225"></path><path class="path" style="fill:none;stroke:#ccc;stroke-linejoin:round;stroke-linecap:round;" d="M821.2199697066667,-102.66916628181934L786.5321435591113,-140.0946819037199"></path><path class="path" style="fill:none;stroke:#ccc;stroke-linejoin:round;stroke-linecap:round;" d="M565.2071100871108,-15.175400495529175L565.3413278151111,-15.103566586971283L611.4227477617778,10.205919593572617L642.501608334222,26.560106739401817L640.219906958222,33.24065977334976L642.501608334222,40.87899774312973L652.5530248533332,45.97920422255993L666.7502778595554,43.96785517036915L672.5067270826662,39.01131635904312L680.4106599537777,32.306819066405296L689.522552376889,31.51664613187313L696.0843079679994,32.71387781202793L702.7802812871109,36.06612655520439L709.7596031431108,43.03401455283165L712.8316978062221,52.68370069563389L711.0868673422219,68.89421367645264L711.668477496889,114.436882853508"></path></g><g><path class="path" style="fill:none;stroke:#ccc;stroke-linejoin:round;stroke-linecap:round;" d="M-119.15417190400012,368.9678544104099L-124.85096880355604,346.7233556956053L-202.83146877155605,366.57339833676815"></path></g><g><path class="path" style="fill:none;stroke:#ccc;stroke-linejoin:round;stroke-linecap:round;" d="M309.1942504675553,232.5316651314497L292.7152960853332,231.93305039405823L282.26122638222205,220.94248288869858L279.1891317191112,208.49129402637482L276.10212397511077,195.0823197811842L267.5271024640001,157.96818608045578L263.11283052088856,139.3632252663374L260.2942582328883,126.88808242976665L257.8783391288889,116.30456286668777L257.5949905919997,114.436882853508"></path><path class="path" style="fill:none;stroke:#ccc;stroke-linejoin:round;stroke-linecap:round;" d="M190.6352574008888,334.9426290690899L152.99464123733333,344.0655089467764L110.52218686577771,356.25329218804836L62.97928499199952,368.9678544104099"></path><path class="path" style="fill:none;stroke:#ccc;stroke-linejoin:round;stroke-linecap:round;" d="M190.6352574008888,368.9678544104099L190.6352574008888,334.9426290690899L198.9418434559998,318.20537497103214L207.5168649671109,311.2375044822693L214.74970919822226,307.8852642327547L223.5931661653335,303.86257579922676L246.90231159466657,301.7315086275339L290.56781243733303,301.4441737383604L309.1942504675553,301.1807834357023"></path></g><g><path class="path" style="fill:none;stroke:#ccc;stroke-linejoin:round;stroke-linecap:round;" d="M352.45709812622226,300.51033532619476L382.34291222755564,300.65400275588036"></path><path class="path" style="fill:none;stroke:#ccc;stroke-linejoin:round;stroke-linecap:round;" d="M382.34291222755564,300.65400275588036L406.3231462968888,300.65400275588036L433.7781282133333,300.91739305853844L486.57043455999974,299.72016432881355L565.2071100871108,298.8102704435587M565.2071100871108,231.04710052907467L546.8491075128886,231.525992333889L466.0649483377779,231.78938287496567L399.4929552497779,231.78938287496567L314.54804650666665,232.7232218682766L309.1942504675553,232.5316651314497"></path><path class="path" style="fill:none;stroke:#ccc;stroke-linejoin:round;stroke-linecap:round;" d="M406.3231462968888,300.65400275588036L406.0547108408887,308.55571231245995"></path><path class="path" style="fill:none;stroke:#ccc;stroke-linejoin:round;stroke-linecap:round;" d="M309.1942504675553,301.1807834357023L352.45709812622226,300.51033532619476"></path></g><g><path class="path" style="fill:none;stroke:#ccc;stroke-linejoin:round;stroke-linecap:round;" d="M565.2071100871108,298.8102704435587L569.2187288462223,298.7623813301325L618.5213742648884,298.37926809489727L631.3764499911108,295.434085264802L639.2803828622218,286.31120128929615L642.0989551502221,272.2557329237461L641.830519694222,253.10006611049175L635.1345463751109,242.10950073599815L617.9845033528886,231.93305039405823L572.976825230222,230.85554379224777L565.2071100871108,231.04710052907467"></path><path class="path" style="fill:none;stroke:#ccc;stroke-linejoin:round;stroke-linecap:round;" d="M711.668477496889,114.436882853508L713.1001332622222,229.6583142876625L713.5027864462218,251.08872091770172L712.8316978062221,275.6079742461443L717.6635360142222,288.99299401044846L733.0687485724443,295.146750330925L746.3264774826666,300.51033532619476L757.5858535537777,307.21481616795063L764.9529155128885,315.5235829651356L770.5751470079999,327.9747596234083L770.8435824639996,347.94452853500843L771.246235648,366.5494537949562L771.246235648,368.9678544104099"></path><path class="path" style="fill:none;stroke:#ccc;stroke-linejoin:round;stroke-linecap:round;" d="M617.9845033528886,231.93305039405823L652.6872425813331,231.262601852417L713.1001332622222,229.6583142876625L773.2595015679999,229.1075886785984L802.4593139484441,229.6583142876625L821.2199697066667,229.7062034457922"></path></g><g><path class="path" style="fill:none;stroke:#ccc;stroke-linejoin:round;stroke-linecap:round;" d="M53.181390847999864,371.6017559915781L40.46053284977779,375.00188337266445L-5.3673647217779035,389.60806331038475L-66.58556177066748,405.41146893799305L-131.83029065955634,423.3698816001415L-140.65883454577806,431.0081922709942L-147.1012854897781,444.393192961812L-149.90494469688974,456.5809649974108L-145.89332593777817,478.15499429404736L-135.84190941866655,517.1366924345493L-113.21876571022267,623.4982326924801M-17.745221859555386,623.4982326924801L-11.794902584889314,611.4541463851929L-13.659037695999814,591.6280927211046L-20.101488640000298,572.0654251873493L-13.659037695999814,553.316867813468L-3.75675198577801,543.2601690143347L19.686611171554887,536.29231287539L51.0339071999997,529.3244563490152L53.181390847999864,529.4202344119549"></path><path class="path" style="fill:none;stroke:#ccc;stroke-linejoin:round;stroke-linecap:round;" d="M-118.28921321244434,372.32009276747704L-119.15417190400012,368.9678544104099"></path></g><g><path class="path" style="fill:none;stroke:#ccc;stroke-linejoin:round;stroke-linecap:round;" d="M62.97928499199952,368.9678544104099L53.181390847999864,371.6017559915781M53.181390847999864,529.4202344119549L77.16162491733303,530.5456270873547L94.17745021155542,540.4586599320173L102.88668945066638,559.7339988797903L106.36143729777723,591.6280927211046L113.20654142577769,623.4982326924801"></path><path class="path" style="fill:none;stroke:#ccc;stroke-linejoin:round;stroke-linecap:round;" d="M309.1942504675553,500.20790998637676L262.84439506488843,495.85000516474247L204.83251040711093,497.0472317636013L188.62199148088848,498.24445839226246L189.82995103288886,431.94202956557274L190.6352574008888,379.9584069997072L190.6352574008888,368.9678544104099"></path><path class="path" style="fill:none;stroke:#ccc;stroke-linejoin:round;stroke-linecap:round;" d="M188.62199148088848,498.24445839226246L186.429768590222,623.4982326924801"></path></g><g><path class="path" style="fill:none;stroke:#ccc;stroke-linejoin:round;stroke-linecap:round;" d="M395.60064113777753,519.5550896823406L412.2138132479995,545.678565710783L416.8965206471112,574.2204316109419L418.10448019911064,614.3993207216263L419.0738304568886,623.4982326924801"></path><path class="path" style="fill:none;stroke:#ccc;stroke-linejoin:round;stroke-linecap:round;" d="M565.2071100871108,607.7666921764612L547.2517606968886,595.5071035176516L536.5292555377778,571.8020355403423L532.9202899626666,552.9098109602928L529.2964113066664,538.4473199993372L518.7230369564445,529.2047337293625L502.78095348622173,525.5891103595495"></path><path class="path" style="fill:none;stroke:#ccc;stroke-linejoin:round;stroke-linecap:round;" d="M502.78095348622173,525.5891103595495L423.33897159111075,527.4567833393812"></path><path class="path" style="fill:none;stroke:#ccc;stroke-linejoin:round;stroke-linecap:round;" d="M423.33897159111075,527.4567833393812L395.60064113777753,519.5550896823406L350.59296301511085,510.1688346117735L313.87695786666654,500.6628560721874L309.1942504675553,500.20790998637676"></path></g><g><path class="path" style="fill:none;stroke:#ccc;stroke-linejoin:round;stroke-linecap:round;" d="M797.2248225564445,623.4982326924801L818.4013974186664,614.3993207216263"></path><path class="path" style="fill:none;stroke:#ccc;stroke-linejoin:round;stroke-linecap:round;" d="M821.2199697066667,614.3993207216263L818.4013974186664,614.3993207216263L787.7251900302222,614.3993207216263L734.2617950435556,615.5965460091829L695.1447838719996,615.5965460091829L646.7816625493333,615.5965460091829L604.0556858026666,613.2020953595638L569.6213820302223,610.7837001681328L565.2071100871108,607.7666921764612"></path><path class="path" style="fill:none;stroke:#ccc;stroke-linejoin:round;stroke-linecap:round;" d="M771.246235648,368.9678544104099L771.246235648,390.2785108834505"></path></g><g><path class="path" style="fill:none;stroke:#ccc;stroke-linejoin:round;stroke-linecap:round;" d="M-113.21876571022267,623.4982326924801L-106.23944385422237,656.3261433243752L-93.36945504711093,666.7898881286383L-75.96588964977809,669.1843375563622L-54.92353251555596,662.2164894491434L-36.31200756622229,652.1837452203035M-36.31200756622229,652.1837452203035L-21.831406023110958,631.806975454092L-17.745221859555386,623.4982326924801M53.181390847999864,704.6461279988289L44.06949842488848,706.5616868585348L26.651019946666565,710.584360525012L6.831535445332975,709.9139149188995L-0.8039619697779017,702.5390131771564L-6.023540280889392,681.3720845133066L-8.976330296889046,665.1616624295712L-14.195908608000082,655.7993644177914L-24.649978311111227,650.5794638246298L-36.31200756622229,652.1837452203035"></path></g><g><path class="path" style="fill:none;stroke:#ccc;stroke-linejoin:round;stroke-linecap:round;" d="M113.20654142577769,623.4982326924801L113.99693471288856,627.257519826293L121.51312748088822,661.5460436195135L119.23142610488912,676.8226310312748L108.64313867377723,687.1427068412304L86.00508188444383,697.7261710911989L53.181390847999864,704.6461279988289"></path><path class="path" style="fill:none;stroke:#ccc;stroke-linejoin:round;stroke-linecap:round;" d="M186.429768590222,623.4982326924801L185.66920146488883,666.7898881286383L182.19445361777798,722.9157697558403"></path><path class="path" style="fill:none;stroke:#ccc;stroke-linejoin:round;stroke-linecap:round;" d="M194.11000524799965,770.469501838088L182.19445361777798,722.9157697558403"></path><path class="path" style="fill:none;stroke:#ccc;stroke-linejoin:round;stroke-linecap:round;" d="M260.9653468728884,844.5536736249924L214.8839269262221,853.125788539648"></path><path class="path" style="fill:none;stroke:#ccc;stroke-linejoin:round;stroke-linecap:round;" d="M188.3535560248888,816.6823233366013L205.2351635911109,812.6596536338329L214.8839269262221,853.125788539648"></path><path class="path" style="fill:none;stroke:#ccc;stroke-linejoin:round;stroke-linecap:round;" d="M309.1942504675553,834.1617792248726L260.9653468728884,844.5536736249924"></path><path class="path" style="fill:none;stroke:#ccc;stroke-linejoin:round;stroke-linecap:round;" d="M245.15748113066638,744.3460796028376L297.8006566684444,732.1583396047354L309.1942504675553,729.4765577614307"></path><path class="path" style="fill:none;stroke:#ccc;stroke-linejoin:round;stroke-linecap:round;" d="M297.8006566684444,732.1583396047354L309.1942504675553,779.3529006391764M309.1942504675553,794.0308599025011L240.60899145955545,810.2652073055506L229.21539766044407,762.1607696264982L194.11000524799965,770.469501838088"></path></g><g><path class="path" style="fill:none;stroke:#ccc;stroke-linejoin:round;stroke-linecap:round;" d="M419.0738304568886,623.4982326924801L421.72835885511086,648.5681259781122L438.207313237333,684.3412014394999L469.01773835377753,715.014090180397L505.8530481493335,732.9485074728727L562.6569732551111,735.2471775710583L565.2071100871108,734.5288431793451"></path><path class="path" style="fill:none;stroke:#ccc;stroke-linejoin:round;stroke-linecap:round;" d="M374.0363261724442,820.0345479696989L438.207313237333,805.9791482836008"></path><path class="path" style="fill:none;stroke:#ccc;stroke-linejoin:round;stroke-linecap:round;" d="M438.207313237333,805.9791482836008L565.2071100871108,777.7007321864367"></path><path class="path" style="fill:none;stroke:#ccc;stroke-linejoin:round;stroke-linecap:round;" d="M322.45197937777766,831.2884442508221L312.5496936675554,793.2406924962997L446.9165524764444,764.3157722949982"></path><path class="path" style="fill:none;stroke:#ccc;stroke-linejoin:round;stroke-linecap:round;" d="M374.0363261724442,820.0345479696989L322.45197937777766,831.2884442508221L309.1942504675553,834.1617792248726"></path><path class="path" style="fill:none;stroke:#ccc;stroke-linejoin:round;stroke-linecap:round;" d="M309.1942504675553,729.4765577614307L392.5136333937771,709.9139149188995"></path><path class="path" style="fill:none;stroke:#ccc;stroke-linejoin:round;stroke-linecap:round;" d="M309.1942504675553,779.3529006391764L312.5496936675554,793.2406924962997L309.1942504675553,794.0308599025011"></path></g><g><path class="path" style="fill:none;stroke:#ccc;stroke-linejoin:round;stroke-linecap:round;" d="M565.2071100871108,734.5288431793451L588.5162555164443,728.1356667876244L641.9647374222222,706.8250762522221L684.5714095217777,685.5384260267019L720.064542037333,664.2278271019459L752.2171444337778,645.2158960700035L782.893351822222,629.6759146749973L797.2248225564445,623.4982326924801"></path><path class="path" style="fill:none;stroke:#ccc;stroke-linejoin:round;stroke-linecap:round;" d="M565.2071100871108,777.7007321864367L734.3960127715554,740.0600179284811"></path></g><path class="waypath" style="fill:none;stroke:orange; stroke-width:5;stroke-linejoin:round; stroke-linecap:round}" d="M473.37235797333324,327.20853340625763L581.939586844444,325.53241351246834L583.7291565511109,468.48140124976635L475.460189297778,470.15751895308495L475.7584509155554,490.27092902362347L334.5315748977778,492.1864917129278L334.0841824711106,469.4391827583313L218.06041315555512,471.11530044674873L216.27084344888863,329.6029903292656L336.17201379555536,328.1663162112236L336.02288298666645,309.4895506501198L405.96523235555514,308.53176768124104L473.0740963555554,307.8134304881096L473.37235797333324,327.20853340625763"></path><path class="center" style="fill:none; stroke:red; stroke-width:1;stroke-linejoin:round; stroke-linecap:round}" d="M400,400m0,4.5a4.5,4.5 0 1,1 0,-9a4.5,4.5 0 1,1 0,9z"></path></svg>
