<svg xmlns="http://www.w3.org/2000/svg" version="1.1" width="800" height="800"><g><path class="path" style="fill:none;stroke:#ccc;stroke-linejoin:round;stroke-linecap:round;" d="M-86.37522011022224,-160.60302464663982L-81.15564179911121,-152.77328677475452L-58.65180273777787,-133.88135275244713L-31.58456092444453,-110.17664922773838L-6.799020487111193,-85.53812956809998"></path><path class="path" style="fill:none;stroke:#ccc;stroke-linejoin:round;stroke-linecap:round;" d="M169.6376395093332,-85.25079990923405L146.1942763520001,-85.25079990923405L51.3470818986666,-84.05359308421612L-6.799020487111193,-85.53812956809998L-86.37522011022224,-87.54943706095219"></path></g><g><path class="path" style="fill:none;stroke:#ccc;stroke-linejoin:round;stroke-linecap:round;" d="M267.0349707946666,-90.08751565217972L302.12545012622206,-89.53680047392845L320.75188815644447,-82.18595045804977L333.74118161066656,-73.47028522193432L347.2673459768888,-62.479928120970726L363.3436471751111,-52.974108174443245L379.01729518933337,-53.38115839660168L394.55672547555537,-58.86436423659325L413.58581668977763,-69.04062044620514L425.6504991288888,-75.6970897167921"></path><path class="path" style="fill:none;stroke:#ccc;stroke-linejoin:round;stroke-linecap:round;" d="M425.6504991288888,-69.44767072796822L423.6372332088889,-63.413749262690544L421.62396728888893,-47.87400867044926L420.6844431928888,-29.53280760347843L415.1516901831111,33.55994263291359"></path><path class="path" style="fill:none;stroke:#ccc;stroke-linejoin:round;stroke-linecap:round;" d="M322.138804679111,-220.96625205874443L320.3492349724445,-202.62502194941044L313.11639074133325,-163.35660231113434L300.1121842062221,-130.26578651368618L284.8411893760001,-104.14272555708885L267.0349707946666,-90.08751565217972L218.40341401599983,-85.25079990923405L169.6376395093332,-85.25079990923405"></path></g><g><path class="path" style="fill:none;stroke:#ccc;stroke-linejoin:round;stroke-linecap:round;" d="M681.6484456675555,15.051143392920494L552.0985119857778,-220.96625205874443"></path><path class="path" style="fill:none;stroke:#ccc;stroke-linejoin:round;stroke-linecap:round;" d="M425.6504991288888,-75.6970897167921L428.18572287999996,-77.08584953844547"></path><path class="path" style="fill:none;stroke:#ccc;stroke-linejoin:round;stroke-linecap:round;" d="M443.18828225422214,-198.05168697237968L441.32414714311096,-106.82446937263012"></path><path class="path" style="fill:none;stroke:#ccc;stroke-linejoin:round;stroke-linecap:round;" d="M441.32414714311096,-106.82446937263012L437.83448621511104,-91.69177289307117L428.18572287999996,-77.08584953844547L425.6504991288888,-69.44767072796822"></path><path class="path" style="fill:none;stroke:#ccc;stroke-linejoin:round;stroke-linecap:round;" d="M443.9637624604443,-220.96625205874443L443.45671771022205,-219.0986070483923L443.18828225422214,-198.05168697237968"></path></g><g><path class="path" style="fill:none;stroke:#ccc;stroke-linejoin:round;stroke-linecap:round;" d="M937.6613052871111,-197.35730627179146L936.453345735111,-196.85447892546654"></path><path class="path" style="fill:none;stroke:#ccc;stroke-linejoin:round;stroke-linecap:round;" d="M691.8191668337778,33.55994263291359L681.6484456675555,15.051143392920494"></path><path class="minor_road" style="fill:none;stroke:#ccc;stroke-linejoin:round;stroke-linecap:round;" d="M937.6613052871111,-194.43611866235733L936.453345735111,-196.85447892546654L923.3000083911111,-220.96625205874443"></path></g><g><path class="path" style="fill:none;stroke:#ccc;stroke-linejoin:round;stroke-linecap:round;" d="M-3.443577287111111,160.70309713482857L-86.37522011022224,233.68463757634163"></path><path class="path" style="fill:none;stroke:#ccc;stroke-linejoin:round;stroke-linecap:round;" d="M-0.49078727111123044,288.1094882041216L78.667846087111,214.55332642793655L106.00352335644448,189.6514896005392L109.74670665955546,181.72599993646145L111.75997257955555,168.34125930070877L109.74670665955546,156.82415561378002L104.79556380444433,145.833820566535L93.2677522773331,135.25053395330906L81.08376519111107,130.43777211010456L56.164007025777664,128.0194190442562L41.16144765155536,129.21662351489067L24.279840085333262,137.3815578520298L-3.443577287111111,160.70309713482857"></path></g><g><path class="path" style="fill:none;stroke:#ccc;stroke-linejoin:round;stroke-linecap:round;" d="M415.1516901831111,33.55994263291359L413.45159896177756,52.858894258737564"></path></g><g></g><g><path class="path" style="fill:none;stroke:#ccc;stroke-linejoin:round;stroke-linecap:round;" d="M831.5547347626666,288.1094882041216L691.8191668337778,33.55994263291359"></path></g><g><path class="path" style="fill:none;stroke:#ccc;stroke-linejoin:round;stroke-linecap:round;" d="M62.59154488888885,542.6344965100288L-22.472668501333374,467.8813053369522L-53.551529073778056,440.2977958917618L-82.61712372622242,413.241048052907L-86.37522011022224,410.03254829347134M-86.37522011022224,367.9149944484234L-0.49078727111123044,288.1094882041216"></path></g><g><path class="path" style="fill:none;stroke:#ccc;stroke-linejoin:round;stroke-linecap:round;" d="M261.472391623111,542.6344965100288L286.720237568,523.2159114331007"></path></g><g></g><g><path class="path" style="fill:none;stroke:#ccc;stroke-linejoin:round;stroke-linecap:round;" d="M937.6613052871111,481.8167215883732L897.0678991075556,407.47053726017475L831.5547347626666,288.1094882041216"></path><path class="path" style="fill:none;stroke:#ccc;stroke-linejoin:round;stroke-linecap:round;" d="M814.5538225493333,503.5339387655258L791.3788948479998,506.19172364473343L776.3614223928888,500.181777626276L769.2627958897777,489.19147719442844L768.3232717937778,470.44331496953964L768.3232717937778,447.2655059993267L768.3232717937778,424.7581247538328L765.7880480426666,416.1861634105444L758.2867683555555,410.1522684842348L747.6984809244445,408.28463423252106L734.4407520142222,407.47053726017475"></path><path class="path" style="fill:none;stroke:#ccc;stroke-linejoin:round;stroke-linecap:round;" d="M767.1302253226665,542.6344965100288L768.7259249777777,541.8443445265293L788.426104832,528.6990881115198L804.5024060302221,515.7214380204678L814.5538225493333,503.5339387655258L820.0418363164445,487.443564414978L817.7601349404445,473.77153301239014L816.4179576604445,450.33034048974514L897.0678991075556,407.47053726017475"></path><path class="path" style="fill:none;stroke:#ccc;stroke-linejoin:round;stroke-linecap:round;" d="M897.0678991075556,407.47053726017475L937.6613052871111,387.0702227950096"></path><path class="minor_road" style="fill:none;stroke:#ccc;stroke-linejoin:round;stroke-linecap:round;" d="M937.6613052871111,500.2536096572876L867.599651271111,535.403408497572L849.092517888,542.6344965100288"></path></g><g><path class="path" style="fill:none;stroke:#ccc;stroke-linejoin:round;stroke-linecap:round;" d="M155.44038650311109,624.2356153577566L169.6376395093332,613.2932153642178"></path><path class="path" style="fill:none;stroke:#ccc;stroke-linejoin:round;stroke-linecap:round;" d="M169.6376395093332,637.093532577157L155.44038650311109,624.2356153577566L62.59154488888885,542.6344965100288"></path><path class="path" style="fill:none;stroke:#ccc;stroke-linejoin:round;stroke-linecap:round;" d="M-26.782548878222315,797.1828555911779L-21.667362133333427,791.819412112236"></path><path class="path" style="fill:none;stroke:#ccc;stroke-linejoin:round;stroke-linecap:round;" d="M-15.43369432177792,797.1828555911779L-21.667362133333427,791.819412112236L-29.168641820444464,785.3784908503294L-65.07934060088883,758.7288756817579L-79.54502906311109,750.1569405645132L-86.37522011022224,750.1569405645132"></path></g><g><path class="path" style="fill:none;stroke:#ccc;stroke-linejoin:round;stroke-linecap:round;" d="M169.6376395093332,613.2932153642178L261.472391623111,542.6344965100288"></path><path class="path" style="fill:none;stroke:#ccc;stroke-linejoin:round;stroke-linecap:round;" d="M404.33970653866663,747.4752177298069L405.14501290666647,783.3671993911266L402.669441479111,797.1828555911779M351.1000077653333,797.1828555911779L345.40321086577774,792.4898425638676L313.78747938133336,764.7627514153719L244.78465410844422,705.1422982811928L169.6376395093332,637.093532577157"></path><path class="path" style="fill:none;stroke:#ccc;stroke-linejoin:round;stroke-linecap:round;" d="M405.14501290666647,783.3671993911266L416.6728244337778,795.8419947177172L419.96861531022216,797.1828555911779"></path></g><g><path class="path" style="fill:none;stroke:#ccc;stroke-linejoin:round;stroke-linecap:round;" d="M457.57940531199995,797.1828555911779L470.9266127075556,791.2926453053951L542.1962262755555,717.0663914978504L590.9620007822223,667.238997399807L651.7775446471111,614.5861904472113L681.6484456675555,590.8337563425303"></path><path class="minor_road" style="fill:none;stroke:#ccc;stroke-linejoin:round;stroke-linecap:round;" d="M681.6484456675555,604.7452128380537L651.7775446471111,614.5861904472113L585.9959448462222,613.3650472611189"></path></g><g><path class="path" style="fill:none;stroke:#ccc;stroke-linejoin:round;stroke-linecap:round;" d="M937.6613052871111,767.636025428772L887.6428319857778,797.1828555911779"></path><path class="path" style="fill:none;stroke:#ccc;stroke-linejoin:round;stroke-linecap:round;" d="M681.6484456675555,590.8337563425303L686.3460661475556,587.1224379986525L732.0248329102221,560.3291104882956L767.1302253226665,542.6344965100288"></path><path class="minor_road" style="fill:none;stroke:#ccc;stroke-linejoin:round;stroke-linecap:round;" d="M849.092517888,542.6344965100288L736.0513647502222,586.8590541183949L681.6484456675555,604.7452128380537"></path></g><g><path class="path" style="fill:none;stroke:#ccc;stroke-linejoin:round;stroke-linecap:round;" d="M-29.24320722488892,1058.4109658151865L-56.77275454577784,1039.1121918857098L-86.37522011022224,1018.1133979856968"></path><path class="path" style="fill:none;stroke:#ccc;stroke-linejoin:round;stroke-linecap:round;" d="M-86.37522011022224,859.5568103790283L-26.782548878222315,797.1828555911779"></path><path class="path" style="fill:none;stroke:#ccc;stroke-linejoin:round;stroke-linecap:round;" d="M82.9628133831111,882.2556534409523L-56.77275454577784,1039.1121918857098"></path><path class="path" style="fill:none;stroke:#ccc;stroke-linejoin:round;stroke-linecap:round;" d="M138.5736920177776,1058.4109658151865L146.99958272000003,1050.1024369746447L169.6376395093332,1030.9712688475847M169.6376395093332,967.4481044709682L162.53901300622215,957.6789903491735L139.90095621688897,928.9941845238209L113.23636758755538,908.6418552845716L82.9628133831111,882.2556534409523L41.027229923555296,845.669330239296L-15.43369432177792,797.1828555911779"></path></g><g><path class="path" style="fill:none;stroke:#ccc;stroke-linejoin:round;stroke-linecap:round;" d="M402.669441479111,797.1828555911779L402.5948760746668,797.5899025946856L392.4241549084444,805.4914036244154L377.0189423502221,808.5562281161547L358.258286592,803.0730654895306L351.1000077653333,797.1828555911779"></path><path class="path" style="fill:none;stroke:#ccc;stroke-linejoin:round;stroke-linecap:round;" d="M169.6376395093332,1030.9712688475847L176.3336128284443,1025.3205101639032L183.56645705955555,1003.7470600605011L180.88210249955546,987.6807032376528L173.51504054044437,972.8115393221378L169.6376395093332,967.4481044709682"></path><path class="path" style="fill:none;stroke:#ccc;stroke-linejoin:round;stroke-linecap:round;" d="M419.96861531022216,797.1828555911779L425.6504991288888,799.4814741313457"></path></g><g><path class="path" style="fill:none;stroke:#ccc;stroke-linejoin:round;stroke-linecap:round;" d="M681.6484456675555,918.8659082055092L445.4550705493333,1058.4109658151865"></path><path class="path" style="fill:none;stroke:#ccc;stroke-linejoin:round;stroke-linecap:round;" d="M425.6504991288888,799.4814741313457L433.15177881599993,802.5462987422943L450.2869087573332,800.3913439661264L457.57940531199995,797.1828555911779"></path></g><g><path class="path" style="fill:none;stroke:#ccc;stroke-linejoin:round;stroke-linecap:round;" d="M887.6428319857778,797.1828555911779L681.6484456675555,918.8659082055092"></path></g><path class="waypath" style="fill:none;stroke:orange; stroke-width:5;stroke-linejoin:round; stroke-linecap:round}" d="M294.86277973333335,339.9004669338465L264.73835633777776,309.25208672881126L316.18848540444446,258.0118069052696L339.9002840177777,281.23754419386387L342.4355077688889,76.9945510327816L358.0942427022221,77.23399204015732L373.30558520888894,77.47343304753304L373.45471601777774,53.05044713616371L400.1491308088889,53.05044713616371L403.87740103111116,53.05044713616371L413.42177279999987,52.81100606918335L442.6514113422222,52.81100606918335L442.3531497244444,77.47343304753304L454.4327452444445,77.23399204015732L467.7053872355556,76.9945510327816L468.3019104711111,285.3080337494612L489.92587775999993,263.9978221207857L541.3760068266665,315.47753965854645L518.7081238755555,340.85822872817516L709.4464284444445,341.8159904330969L709.2972976355555,373.6615633070469L734.5004043377778,373.6615633070469L734.3512735288888,407.42264921963215L734.20214272,434.2399582415819L712.4290446222221,434.0005180090666L712.2799138133333,463.2122222036123L517.962469831111,462.2544615417719L546.148192711111,490.5083977729082L494.69806364444446,541.7485685199499L470.83713422222206,519.2412067502737L470.53887260444435,721.8072957247496L439.5196643555555,721.8072957247496L439.5196643555555,747.4273298531771L404.3247934577777,747.4273298531771L372.41080035555547,747.4273298531771L372.55993116444427,722.2861749082804L339.15462997333316,722.2861749082804L339.3037607822222,519.0017667114735L311.41629951999994,547.9740081876516L286.5114544355555,523.072247415781L259.96617045333323,496.49440026283264L295.01191054222204,461.0572607219219L87.86921699555546,461.77558121085167L87.72008618666655,432.5638766437769L65.94698808888893,432.5638766437769L65.79785727999979,405.0282463133335L65.6487264711111,372.22492107748985L90.85183317333326,371.9854807257652L90.55357155555544,340.37934781610966L294.86277973333335,339.9004669338465"></path><path class="center" style="fill:none; stroke:red; stroke-width:1;stroke-linejoin:round; stroke-linecap:round}" d="M400,400m0,4.5a4.5,4.5 0 1,1 0,-9a4.5,4.5 0 1,1 0,9z"></path></svg>
