<svg xmlns="http://www.w3.org/2000/svg" version="1.1" width="800" height="800"><g></g><g><path class="path" style="fill:none;stroke:#ccc;stroke-linejoin:round;stroke-linecap:round;" d="M443.4268915484445,23.16445592045784L433.7930412942219,15.981156766414642L404.02653183999973,-10.788607031106949L394.84007401244435,-25.011541724205017"></path><path class="path" style="fill:none;stroke:#ccc;stroke-linejoin:round;stroke-linecap:round;" d="M402.17730980977785,153.94834858179092L401.1035679857773,115.11066460609436L402.44574526577753,90.73534536361694L411.54272460799984,68.22768074274063L439.1319242524446,44.90590673685074L443.4268915484445,40.11704108119011M443.4268915484445,28.480097144842148L432.45086401422213,26.708216726779938L396.8086006897779,29.38998168706894L339.98976250311125,43.325581073760986L290.4485077902218,88.34091311693192L256.95372811377774,138.145099401474L223.99581934933303,218.550103276968L219.46224275911118,229.5165963768959"></path></g><g><path class="path" style="fill:none;stroke:#ccc;stroke-linejoin:round;stroke-linecap:round;" d="M574.7216556942221,62.62470859289169L473.4320102968891,35.280286729335785L452.5238708906668,29.91675701737404L443.4268915484445,23.16445592045784"></path><path class="path" style="fill:none;stroke:#ccc;stroke-linejoin:round;stroke-linecap:round;" d="M561.8367538062221,-25.011541724205017L574.7216556942221,62.62470859289169L659.1893458488889,229.5165963768959"></path><path class="path" style="fill:none;stroke:#ccc;stroke-linejoin:round;stroke-linecap:round;" d="M443.4268915484445,40.11704108119011L452.5238708906668,29.91675701737404L443.4268915484445,28.480097144842148"></path></g><g><path class="path" style="fill:none;stroke:#ccc;stroke-linejoin:round;stroke-linecap:round;" d="M955.4526107875554,122.34184926748276L874.5640600462225,-25.011541724205017"></path></g><g><path class="path" style="fill:none;stroke:#ccc;stroke-linejoin:round;stroke-linecap:round;" d="M-68.5988276906669,420.16109040379524L34.83830135466678,389.7518441975117"></path><path class="path" style="fill:none;stroke:#ccc;stroke-linejoin:round;stroke-linecap:round;" d="M187.54824965688886,315.5245324373245L169.59290026666622,377.6839216053486L161.83809820444412,419.2033189535141L161.83809820444412,459.9564913511276L164.52245276444455,484.0444379746914"></path></g><g><path class="path" style="fill:none;stroke:#ccc;stroke-linejoin:round;stroke-linecap:round;" d="M219.46224275911118,229.5165963768959L195.60131333688832,287.65336763858795L187.54824965688886,315.5245324373245"></path></g><g><path class="path" style="fill:none;stroke:#ccc;stroke-linejoin:round;stroke-linecap:round;" d="M659.1893458488889,229.5165963768959L699.5739688959998,309.34690341353416"></path></g><g><path class="path" style="fill:none;stroke:#ccc;stroke-linejoin:round;stroke-linecap:round;" d="M699.5739688959998,309.34690341353416L754.4839327288887,417.8624388575554L789.8279344355551,484.0444379746914"></path></g><g><path class="path" style="fill:none;stroke:#ccc;stroke-linejoin:round;stroke-linecap:round;" d="M164.52245276444455,484.0444379746914L167.17698116266683,507.892939299345L187.54824965688886,557.2181445658207"></path></g><g><path class="path" style="fill:none;stroke:#ccc;stroke-linejoin:round;stroke-linecap:round;" d="M187.54824965688886,557.2181445658207L190.7694751288891,564.9760883748531L212.4530947413332,602.7601445317268L230.94531504355564,638.1497678458691L258.83277630577777,684.2185245752335L290.4485077902218,723.3434383571148L308.76177112177766,738.6198714971542M407.665323576889,738.6198714971542L408.85837004799987,730.0478292405605L405.9055800320002,646.7218137085438"></path></g><g></g><g><path class="path" style="fill:none;stroke:#ccc;stroke-linejoin:round;stroke-linecap:round;" d="M789.8279344355551,484.0444379746914L925.6861013333332,738.6198714971542"></path></g><g></g><g><path class="path" style="fill:none;stroke:#ccc;stroke-linejoin:round;stroke-linecap:round;" d="M394.3926815857776,827.8361354470253L434.86678311822243,882.4768889546394L443.4268915484445,926.9173865318298M443.4268915484445,952.4898239076138L428.7822461155556,993.1471198797226"></path><path class="path" style="fill:none;stroke:#ccc;stroke-linejoin:round;stroke-linecap:round;" d="M308.76177112177766,738.6198714971542L312.93743377066676,742.067843735218L344.55316525511125,768.3586302697659L394.3926815857776,827.8361354470253L404.83183820800014,758.9724846184254L407.665323576889,738.6198714971542"></path></g><g><path class="path" style="fill:none;stroke:#ccc;stroke-linejoin:round;stroke-linecap:round;" d="M443.4268915484445,926.9173865318298L446.64811702044426,943.5825708508492L443.4268915484445,952.4898239076138"></path><path class="path" style="fill:none;stroke:#ccc;stroke-linejoin:round;stroke-linecap:round;" d="M446.64811702044426,943.5825708508492L512.8323700053334,875.2457295656204L612.4815765048888,825.3938228189945L676.2499103857781,810.931500017643L699.5739688959998,807.8666368126869"></path></g><g><path class="path" style="fill:none;stroke:#ccc;stroke-linejoin:round;stroke-linecap:round;" d="M699.5739688959998,807.8666368126869L747.5344370346666,801.5453561842442L818.5207020657776,810.931500017643L906.418400824889,835.067296475172L955.4526107875554,867.82301607728"></path><path class="path" style="fill:none;stroke:#ccc;stroke-linejoin:round;stroke-linecap:round;" d="M925.6861013333332,738.6198714971542L955.4526107875554,794.3620826303959"></path></g><path class="waypath" style="fill:none;stroke:orange; stroke-width:5;stroke-linejoin:round; stroke-linecap:round}" d="M458.4592770844447,250.10869997739792L519.9011703466667,293.2084453999996L552.4116866844442,364.0835637450218L555.394302862222,440.2264018058777L515.4272460799998,513.4959000349045L460.2488467911112,555.1589371860027L456.3714457599999,648.5415776371956L405.6669707377778,646.6260367333889L342.43550776888924,644.2316105663776L346.3129087999996,550.3700827658176L284.57275391999974,511.1014724075794L244.6056971377775,438.31085896492004L247.29005169777793,361.6891344487667L279.80056803555544,290.8140152692795L344.5233390933331,245.7987249493599L348.10247850666656,151.93702599406242L402.0878313244443,153.85257124900818L462.0384164977777,156.24700278043747L458.4592770844447,250.10869997739792"></path><path class="center" style="fill:none; stroke:red; stroke-width:1;stroke-linejoin:round; stroke-linecap:round}" d="M400,400m0,4.5a4.5,4.5 0 1,1 0,-9a4.5,4.5 0 1,1 0,9z"></path></svg>
