<svg xmlns="http://www.w3.org/2000/svg" version="1.1" width="800" height="800"><g><path class="path" style="fill:none;stroke:#ccc;stroke-linejoin:round;stroke-linecap:round;" d="M-175.97301009066678,29.194931983947754L-171.9613913315552,29.147042870521545L-122.65874591288912,28.76392963528633L-109.80367018666675,25.81874680519104L-101.89973731555574,16.69586282968521L-99.08116502755547,2.64039446413517L-99.3496004835556,-16.515272349119186L-106.0455738026667,-27.505837723612785L-123.19561682488893,-37.68228806555271L-168.2032949475556,-38.75979466736317L-175.97301009066678,-38.56823793053627"></path><path class="path" style="fill:none;stroke:#ccc;stroke-linejoin:round;stroke-linecap:round;" d="M-29.5116426808886,-155.17845560610294L-28.07998691555531,-39.95702417194843L-27.67733373155579,-18.526617541909218L-28.348422371555444,5.992635786533356L-23.516584163555308,19.377655550837517L-8.111371605333261,25.53141187131405L5.146357304889079,30.894996866583824L16.40573337600017,37.59947770833969L23.772795335110914,45.908244505524635L29.395026830222378,58.35942116379738L29.663462286222057,78.32919007539749L30.066115470222485,96.93411533534527L30.066115470222485,99.35251595079899"></path><path class="path" style="fill:none;stroke:#ccc;stroke-linejoin:round;stroke-linecap:round;" d="M-123.19561682488893,-37.68228806555271L-88.49287759644449,-38.35273660719395L-28.07998691555531,-39.95702417194843L32.07938139022235,-40.507749781012535L61.27919377066655,-39.95702417194843L80.03984952888914,-39.90913501381874"></path></g><g><path class="path" style="fill:none;stroke:#ccc;stroke-linejoin:round;stroke-linecap:round;" d="M336.0377960675555,-113.70638856291771L287.1527169137778,-155.17845560610294"></path><path class="path" style="fill:none;stroke:#ccc;stroke-linejoin:round;stroke-linecap:round;" d="M80.03984952888914,-39.90913501381874L106.4210896213333,-39.83730120956898L171.2631653262224,-41.034530729055405L258.3406446364445,-43.18954396247864L336.0377960675555,-43.18954396247864"></path></g><g><path class="path" style="fill:none;stroke:#ccc;stroke-linejoin:round;stroke-linecap:round;" d="M505.71883042133345,99.35251595079899L455.1336600462223,13.34362182021141L420.8484870826669,-43.18954396247864L394.04968072533325,-64.47628788650036L336.0377960675555,-113.70638856291771"></path><path class="path" style="fill:none;stroke:#ccc;stroke-linejoin:round;stroke-linecap:round;" d="M336.0377960675555,-43.18954396247864L420.8484870826669,-43.18954396247864"></path></g><g><path class="path" style="fill:none;stroke:#ccc;stroke-linejoin:round;stroke-linecap:round;" d="M644.4403088497779,75.3840085119009L679.7992236373334,33.45706635713577L708.9990360177778,7.860313057899475L764.3265661155558,-26.835389256477356L802.9216194560001,-46.9249003380537L812.2870342542224,-51.761708065867424L847.9292975786668,-72.04278045892715"></path><path class="path" style="fill:none;stroke:#ccc;stroke-linejoin:round;stroke-linecap:round;" d="M847.2582089386667,39.73054477572441L830.6450368284445,6.926474437117577"></path><path class="path" style="fill:none;stroke:#ccc;stroke-linejoin:round;stroke-linecap:round;" d="M830.6450368284445,6.926474437117577L810.9597700551112,-31.12147055566311"></path><path class="path" style="fill:none;stroke:#ccc;stroke-linejoin:round;stroke-linecap:round;" d="M810.9597700551112,-31.12147055566311L802.9216194560001,-46.9249003380537"></path><path class="path" style="fill:none;stroke:#ccc;stroke-linejoin:round;stroke-linecap:round;" d="M655.8786418915558,99.35251595079899L644.4403088497779,75.3840085119009"></path><path class="path" style="fill:none;stroke:#ccc;stroke-linejoin:round;stroke-linecap:round;" d="M788.4111917511111,99.35251595079899L776.7939017386666,77.77846504747868L847.2582089386667,39.73054477572441L847.9292975786668,39.37137618660927"></path></g><g><path class="path" style="fill:none;stroke:#ccc;stroke-linejoin:round;stroke-linecap:round;" d="M56.0447023786669,353.88289423286915L77.22127724088887,344.78398226201534"></path><path class="path" style="fill:none;stroke:#ccc;stroke-linejoin:round;stroke-linecap:round;" d="M80.03984952888914,344.78398226201534L77.22127724088887,344.78398226201534L46.54506985244461,344.78398226201534L-6.918325134221959,345.981207549572L-46.035336305777946,345.981207549572L-94.39845762844425,345.981207549572L-137.12443437511092,343.5867568999529L-171.55873814755523,341.16836170852184L-175.97301009066678,338.1513537168503"></path><path class="path" style="fill:none;stroke:#ccc;stroke-linejoin:round;stroke-linecap:round;" d="M30.066115470222485,99.35251595079899L30.066115470222485,120.66317242383957"></path></g><g><path class="path" style="fill:none;stroke:#ccc;stroke-linejoin:round;stroke-linecap:round;" d="M193.82665671111113,353.88289423286915L175.6923503502221,348.39960262179375L144.7327944248891,343.5867568999529L100.93307585422235,344.78398226201534L80.03984952888914,344.78398226201534"></path></g><g><path class="path" style="fill:none;stroke:#ccc;stroke-linejoin:round;stroke-linecap:round;" d="M591.9164379591111,250.3228636533022L562.9850610346668,196.75894336402416L505.71883042133345,99.35251595079899"></path><path class="path" style="fill:none;stroke:#ccc;stroke-linejoin:round;stroke-linecap:round;" d="M562.9850610346668,196.75894336402416L591.9164379591111,183.51761256158352"></path></g><g><path class="path" style="fill:none;stroke:#ccc;stroke-linejoin:round;stroke-linecap:round;" d="M646.5132270933334,353.88289423286915L622.4584276195556,306.87982200086117"></path><path class="path" style="fill:none;stroke:#ccc;stroke-linejoin:round;stroke-linecap:round;" d="M847.9292975786668,209.4016591757536L837.6094456035557,190.31786227226257L666.8099301831114,282.76769302785397L622.4584276195556,306.87982200086117"></path><path class="path" style="fill:none;stroke:#ccc;stroke-linejoin:round;stroke-linecap:round;" d="M622.4584276195556,306.87982200086117L591.9164379591111,250.3228636533022"></path><path class="path" style="fill:none;stroke:#ccc;stroke-linejoin:round;stroke-linecap:round;" d="M591.9164379591111,183.51761256158352L614.8229302044447,173.02990280091763L651.0020644408887,156.29266522824764L671.7610730382223,132.85095050930977"></path><path class="path" style="fill:none;stroke:#ccc;stroke-linejoin:round;stroke-linecap:round;" d="M671.7610730382223,132.85095050930977L658.3691264000001,104.57242992520332L655.8786418915558,99.35251595079899"></path><path class="path" style="fill:none;stroke:#ccc;stroke-linejoin:round;stroke-linecap:round;" d="M837.6094456035557,190.31786227226257L811.4966409671113,142.23721481859684L847.9292975786668,122.50690321624279"></path><path class="path" style="fill:none;stroke:#ccc;stroke-linejoin:round;stroke-linecap:round;" d="M811.4966409671113,142.23721481859684L788.4111917511111,99.35251595079899"></path></g><g><path class="path" style="fill:none;stroke:#ccc;stroke-linejoin:round;stroke-linecap:round;" d="M-175.97301009066678,464.9135047197342L-152.66386466133326,458.5203283280134L-99.21538275555531,437.2097377926111L-56.60871065599986,415.923087567091L-21.11557814044454,394.61248864233494L11.037024256000223,375.60055761039257L41.71323164444448,360.0605762153864L56.0447023786669,353.88289423286915"></path><path class="path" style="fill:none;stroke:#ccc;stroke-linejoin:round;stroke-linecap:round;" d="M-175.97301009066678,508.0853937268257L-6.78410740622212,470.44467946887016"></path></g><g><path class="path" style="fill:none;stroke:#ccc;stroke-linejoin:round;stroke-linecap:round;" d="M336.0377960675555,536.0525317788124L316.62096475022236,524.846521884203L284.4683623537778,493.88632172346115L269.1973675235556,464.5543375313282L255.0001145173335,432.39689595997334L243.06964980622251,403.855063483119L222.84751212088895,369.7102105021477L199.1357135075557,355.51112051308155L193.82665671111113,353.88289423286915"></path></g><g><path class="path" style="fill:none;stroke:#ccc;stroke-linejoin:round;stroke-linecap:round;" d="M545.2534078577778,608.4366239160299L515.5614638080001,569.8381659388542L497.740332145778,562.6069396138191L466.92990702933344,562.6069396138191L436.1194819128889,566.2225528508425L412.40768329955563,566.2225528508425L383.9982642062223,561.4097167253494L355.6037581937778,547.3303740024567L336.0377960675555,536.0525317788124"></path></g><g><path class="path" style="fill:none;stroke:#ccc;stroke-linejoin:round;stroke-linecap:round;" d="M780.1940841813334,608.4366239160299L729.9071754240003,516.9209030419588L646.5132270933334,353.88289423286915"></path></g><g><path class="path" style="fill:none;stroke:#ccc;stroke-linejoin:round;stroke-linecap:round;" d="M-175.97301009066678,646.7716793119907L-100.28912457955539,650.0999564379454L-0.07322100622241123,657.7382324039936L55.388526819555864,668.4413955509663L80.03984952888914,674.1162265837193"></path><path class="path" style="fill:none;stroke:#ccc;stroke-linejoin:round;stroke-linecap:round;" d="M58.46062148266674,700.0719901621342L80.03984952888914,723.5854164361954"></path><path class="path" style="fill:none;stroke:#ccc;stroke-linejoin:round;stroke-linecap:round;" d="M-175.97301009066678,729.5954665094614L17.598779847111473,731.4152425825596"></path><path class="path" style="fill:none;stroke:#ccc;stroke-linejoin:round;stroke-linecap:round;" d="M-0.07322100622241123,657.7382324039936L36.762088789333575,681.7066119462252L58.46062148266674,700.0719901621342"></path></g><g><path class="path" style="fill:none;stroke:#ccc;stroke-linejoin:round;stroke-linecap:round;" d="M80.03984952888914,674.1162265837193L86.87004057600006,675.6726148277521L114.19080476444447,687.2138312906027L147.14871352888895,710.1047052294016L174.35017307022235,737.4492366313934L211.58813604977786,780.3097406029701"></path><path class="path" style="fill:none;stroke:#ccc;stroke-linejoin:round;stroke-linecap:round;" d="M80.03984952888914,723.5854164361954L139.91586929777782,788.8818393349648"></path></g><g><path class="path" style="fill:none;stroke:#ccc;stroke-linejoin:round;stroke-linecap:round;" d="M591.9164379591111,669.040006428957L545.2534078577778,608.4366239160299"></path></g><g><path class="path" style="fill:none;stroke:#ccc;stroke-linejoin:round;stroke-linecap:round;" d="M847.9292975786668,731.6786312013865L780.1940841813334,608.4366239160299"></path><path class="path" style="fill:none;stroke:#ccc;stroke-linejoin:round;stroke-linecap:round;" d="M746.3413905635555,869.6702455729246L591.9164379591111,669.040006428957"></path></g><path class="waypath" style="fill:none;stroke:orange; stroke-width:5;stroke-linejoin:round; stroke-linecap:round}" d="M483.51325297777794,316.19423781335354L499.47024952888887,336.06818157434464L513.6376763733335,367.19603787362576L518.2607314488887,398.08444042503834L514.8307228444446,428.4939444810152L508.11983644444445,447.8889780789614L487.2415232000003,479.7351368665695L470.53887260444435,494.8201562613249L448.0201204622226,507.9896158427L429.9752925866667,514.4546227157116L398.65782272000024,518.2857377380133L370.7703614577779,514.4546227157116L341.68985372444445,502.7218321710825L315.1445697422221,482.36902928352356L296.20495701333334,456.7484367340803L286.2131928177778,432.08561761677265L281.7392685511111,395.9294358640909L284.27449230222214,375.33716808259487L292.1784251733334,351.39266580343246L303.36323584,331.51872488856316L326.32938040888894,307.33476777374744L352.42727196444457,291.53138703107834L378.52516352,283.6296957731247L405.36870911999995,281.71413415670395L440.8618416355555,288.8974900096655L464.12624782222224,300.39085836708546L483.51325297777794,316.19423781335354"></path><path class="center" style="fill:none; stroke:red; stroke-width:1;stroke-linejoin:round; stroke-linecap:round}" d="M400,400m0,4.5a4.5,4.5 0 1,1 0,-9a4.5,4.5 0 1,1 0,9z"></path></svg>
