<svg xmlns="http://www.w3.org/2000/svg" version="1.1" width="800" height="800"><g><path class="path" style="fill:none;stroke:#ccc;stroke-linejoin:round;stroke-linecap:round;" d="M134.09044707555222,-16.003180197440088L138.97448106666343,-12.978699889965355"></path><path class="path" style="fill:none;stroke:#ccc;stroke-linejoin:round;stroke-linecap:round;" d="M138.97448106666343,-12.978699889965355L133.37275505777507,-3.3662515841424465L140.13024483555273,55.31131291948259"></path><path class="path" style="fill:none;stroke:#ccc;stroke-linejoin:round;stroke-linecap:round;" d="M130.2037253688868,-9.310396370477974L138.97448106666343,-12.978699889965355"></path><path class="minor_road" style="fill:none;stroke:#ccc;stroke-linejoin:round;stroke-linecap:round;" d="M-73.90042794666806,143.84325894061476L-72.58621269333526,143.69353566784412L-21.452986595555558,136.6715103648603"></path><path class="minor_road" style="fill:none;stroke:#ccc;stroke-linejoin:round;stroke-linecap:round;" d="M-21.452986595555558,136.6715103648603L-26.104003697779262,103.58255188167095L-26.411585991114407,81.85754211060703L-39.47917311999845,-19.102525264956057"></path><path class="minor_road" style="fill:none;stroke:#ccc;stroke-linejoin:round;stroke-linecap:round;" d="M-12.626306844445935,192.20370497461408L-21.452986595555558,136.6715103648603"></path><path class="minor_road" style="fill:none;stroke:#ccc;stroke-linejoin:round;stroke-linecap:round;" d="M35.859847395553516,8.192624708637595L53.233586631107755,5.85689480882138L126.88556487111055,-3.650731949135661"></path><path class="minor_road" style="fill:none;stroke:#ccc;stroke-linejoin:round;stroke-linecap:round;" d="M182.10124686222116,199.10589548479766L179.39825095111155,199.51014503650367L167.69148245333417,205.12471968866885L167.84993393777768,206.6518831923604L168.93113230221934,217.70135014411062L170.85119146666693,237.12022092659026"></path><path class="minor_road" style="fill:none;stroke:#ccc;stroke-linejoin:round;stroke-linecap:round;" d="M-48.76256597333486,196.47078669816256L-43.580270364444004,237.12022092659026"></path><path class="minor_road" style="fill:none;stroke:#ccc;stroke-linejoin:round;stroke-linecap:round;" d="M60.326620728887065,64.10017744731158L140.13024483555273,55.31131291948259L175.520849919998,51.0141978636384L182.10124686222116,50.34043393097818"></path><path class="minor_road" style="fill:none;stroke:#ccc;stroke-linejoin:round;stroke-linecap:round;" d="M44.45351025777927,65.5824550203979L60.326620728887065,64.10017744731158"></path><path class="minor_road" style="fill:none;stroke:#ccc;stroke-linejoin:round;stroke-linecap:round;" d="M-73.90042794666806,199.43528401106596L-48.76256597333486,196.47078669816256L-12.626306844445935,192.20370497461408L59.55300465777691,183.69947799947113L74.61521635555255,181.91778121702373"></path><path class="minor_road" style="fill:none;stroke:#ccc;stroke-linejoin:round;stroke-linecap:round;" d="M126.88556487111055,-3.650731949135661L124.89094030222259,-19.102525264956057"></path><path class="minor_road" style="fill:none;stroke:#ccc;stroke-linejoin:round;stroke-linecap:round;" d="M131.2103583288881,44.77064956072718L126.88556487111055,-3.650731949135661"></path><path class="minor_road" style="fill:none;stroke:#ccc;stroke-linejoin:round;stroke-linecap:round;" d="M126.88556487111055,-3.650731949135661L130.2037253688868,-9.310396370477974L134.09044707555222,-16.003180197440088L136.0291475911108,-19.102525264956057"></path><path class="minor_road" style="fill:none;stroke:#ccc;stroke-linejoin:round;stroke-linecap:round;" d="M175.520849919998,51.0141978636384L176.15465585777565,68.47214672900736L182.10124686222116,119.37843216769397"></path><path class="major_road" style="fill:none;stroke:#ccc;stroke-linejoin:round;stroke-linecap:round;" d="M60.326620728887065,64.10017744731158L74.61521635555255,181.91778121702373L82.1929255822215,237.12022092659026"></path><path class="major_road" style="fill:none;stroke:#ccc;stroke-linejoin:round;stroke-linecap:round;" d="M49.88746410666499,-19.102525264956057L53.233586631107755,5.85689480882138L60.326620728887065,64.10017744731158"></path><path class="major_road" style="fill:none;stroke:#ccc;stroke-linejoin:round;stroke-linecap:round;" d="M66.66468010666722,237.12022092659026L59.55300465777691,183.69947799947113L44.45351025777927,65.5824550203979L35.859847395553516,8.192624708637595L32.37391473777825,-19.102525264956057"></path><path class="path" style="fill:none;stroke:#ccc;stroke-linejoin:round;stroke-linecap:round;" d="M136.61635015110733,214.79674945119768L182.10124686222116,208.8378225201741"></path></g><g><path class="minor_road" style="fill:none;stroke:#ccc;stroke-linejoin:round;stroke-linecap:round;" d="M275.44781255110865,-10.538154877722263L274.44117959110736,-19.102525264956057M326.59035932444385,-19.102525264956057L326.86065891555336,-16.856622898951173L328.3799290311108,-3.8603490656241775"></path><path class="minor_road" style="fill:none;stroke:#ccc;stroke-linejoin:round;stroke-linecap:round;" d="M438.1029216711104,171.43720248807222L408.6775489422216,174.46159971691668L242.13571811555448,192.51812161318958L191.27279160888793,197.7733690077439"></path><path class="path" style="fill:none;stroke:#ccc;stroke-linejoin:round;stroke-linecap:round;" d="M242.68563797333263,200.90255998075008L242.63903459555513,198.26745188981295L252.2113683911084,197.11459178104997L252.0901996088869,194.23992676381022L242.4153383822195,195.49759285803884L242.13571811555448,192.51812161318958"></path><path class="path" style="fill:none;stroke:#ccc;stroke-linejoin:round;stroke-linecap:round;" d="M227.30652330666635,32.133810091763735L225.6288017066654,14.031945961527526L225.35850211555226,9.495242958888412L222.11490702222,-19.102525264956057"></path><path class="path" style="fill:none;stroke:#ccc;stroke-linejoin:round;stroke-linecap:round;" d="M405.2382196622202,186.43939735274762L407.3726543644443,204.48091536108404"></path><path class="path" style="fill:none;stroke:#ccc;stroke-linejoin:round;stroke-linecap:round;" d="M407.3726543644443,204.48091536108404L412.2194056533335,203.55263925157487"></path><path class="path" style="fill:none;stroke:#ccc;stroke-linejoin:round;stroke-linecap:round;" d="M438.1029216711104,224.0345731312409L410.5510047288881,228.2716906685382L408.6868696177771,221.35455750394613"></path><path class="path" style="fill:none;stroke:#ccc;stroke-linejoin:round;stroke-linecap:round;" d="M306.70003768888637,36.22132115252316L304.81726122666805,21.20382343046367"></path><path class="path" style="fill:none;stroke:#ccc;stroke-linejoin:round;stroke-linecap:round;" d="M304.81726122666805,21.20382343046367L304.35122744888577,19.07771440409124"></path><path class="path" style="fill:none;stroke:#ccc;stroke-linejoin:round;stroke-linecap:round;" d="M304.35122744888577,19.07771440409124L303.71742151111175,14.181672082282603"></path><path class="path" style="fill:none;stroke:#ccc;stroke-linejoin:round;stroke-linecap:round;" d="M367.15393934222084,226.44508908502758L408.6868696177771,221.35455750394613L414.502971164442,219.81242512725294L412.2194056533335,203.55263925157487L408.6775489422216,174.46159971691668"></path><path class="path" style="fill:none;stroke:#ccc;stroke-linejoin:round;stroke-linecap:round;" d="M283.4263108266641,237.12022092659026L367.15393934222084,226.44508908502758L368.37494783999864,237.12022092659026"></path><path class="path" style="fill:none;stroke:#ccc;stroke-linejoin:round;stroke-linecap:round;" d="M303.71742151111175,14.181672082282603L303.2886704355551,10.154038301669061"></path><path class="path" style="fill:none;stroke:#ccc;stroke-linejoin:round;stroke-linecap:round;" d="M228.63937991110652,45.48933167010546L227.30652330666635,32.133810091763735"></path><path class="path" style="fill:none;stroke:#ccc;stroke-linejoin:round;stroke-linecap:round;" d="M303.2886704355551,10.154038301669061L302.85059868444296,5.407715891487896"></path><path class="path" style="fill:none;stroke:#ccc;stroke-linejoin:round;stroke-linecap:round;" d="M302.2727167999983,0.5116637591272593L300.1662441244407,-19.102525264956057"></path><path class="path" style="fill:none;stroke:#ccc;stroke-linejoin:round;stroke-linecap:round;" d="M302.85059868444296,5.407715891487896L302.2727167999983,0.5116637591272593"></path><path class="minor_road" style="fill:none;stroke:#ccc;stroke-linejoin:round;stroke-linecap:round;" d="M281.1334246399965,40.03932378068566L275.44781255110865,-10.538154877722263"></path><path class="minor_road" style="fill:none;stroke:#ccc;stroke-linejoin:round;stroke-linecap:round;" d="M328.3799290311108,-3.8603490656241775L333.152114915556,33.19686265382916"></path><path class="minor_road" style="fill:none;stroke:#ccc;stroke-linejoin:round;stroke-linecap:round;" d="M191.27279160888793,197.7733690077439L182.10124686222116,199.10589548479766"></path><path class="minor_road" style="fill:none;stroke:#ccc;stroke-linejoin:round;stroke-linecap:round;" d="M182.10124686222116,119.37843216769397L191.27279160888793,197.7733690077439"></path><path class="minor_road" style="fill:none;stroke:#ccc;stroke-linejoin:round;stroke-linecap:round;" d="M182.10124686222116,50.34043393097818L228.63937991110652,45.48933167010546L281.1334246399965,40.03932378068566L306.70003768888637,36.22132115252316L318.21107199999824,35.337939848192036L333.152114915556,33.19686265382916L438.1029216711104,18.703399365767837"></path><path class="path" style="fill:none;stroke:#ccc;stroke-linejoin:round;stroke-linecap:round;" d="M410.5510047288881,228.2716906685382L438.1029216711104,203.6125280391425"></path><path class="path" style="fill:none;stroke:#ccc;stroke-linejoin:round;stroke-linecap:round;" d="M182.10124686222116,208.8378225201741L242.68563797333263,200.90255998075008L399.57124892444335,180.72000160440803"></path></g><g><path class="minor_road" style="fill:none;stroke:#ccc;stroke-linejoin:round;stroke-linecap:round;" d="M478.53601223111036,167.2749110404402L438.1029216711104,171.43720248807222"></path><path class="minor_road" style="fill:none;stroke:#ccc;stroke-linejoin:round;stroke-linecap:round;" d="M478.53601223111036,167.2749110404402L469.81185991111124,91.39499461371452L500.626013297775,87.8465248318389"></path><path class="path" style="fill:none;stroke:#ccc;stroke-linejoin:round;stroke-linecap:round;" d="M619.2222890666653,34.70909207314253L615.2982846577743,-16.4823059104383L634.3777075199978,-19.102525264956057"></path><path class="path" style="fill:none;stroke:#ccc;stroke-linejoin:round;stroke-linecap:round;" d="M484.33347242666423,216.92279750481248L438.1029216711104,224.0345731312409"></path><path class="path" style="fill:none;stroke:#ccc;stroke-linejoin:round;stroke-linecap:round;" d="M630.0622347377757,33.06210952065885L632.7559099733317,46.04331574589014L633.6600155022188,49.576834727078676L632.2432728177755,52.69112113211304L630.0995174399977,59.57848024647683L630.5655512177764,68.35236678551883L633.7532222577756,92.87726625800133L647.5291807288868,199.10589548479766L648.3494001777744,205.42416354175657L649.3001090844446,212.38622938655317"></path><path class="path" style="fill:none;stroke:#ccc;stroke-linejoin:round;stroke-linecap:round;" d="M633.6600155022188,49.576834727078676L639.923509475555,55.49098317697644L648.7315478755554,61.91419175732881L662.5447890488867,69.77475347183645L674.1956334933329,75.73380184639245L688.7358873599987,80.25548834446818L694.1045964799978,81.52814791165292"></path><path class="path" style="fill:none;stroke:#ccc;stroke-linejoin:round;stroke-linecap:round;" d="M633.7532222577756,92.87726625800133L646.0192312888885,111.93715472985059L662.4049789155542,128.90085986908525L685.4550095644445,145.86452283803374L694.1045964799978,150.35621823836118"></path><path class="path" style="fill:none;stroke:#ccc;stroke-linejoin:round;stroke-linecap:round;" d="M647.5291807288868,199.10589548479766L668.6871142399996,188.8499265871942L689.0248283022211,175.5695468802005L694.1045964799978,171.1677016792819"></path><path class="minor_road" style="fill:none;stroke:#ccc;stroke-linejoin:round;stroke-linecap:round;" d="M585.3136713955537,220.0070632128045L649.3001090844446,212.38622938655317L694.1045964799978,206.367411586456"></path><path class="minor_road" style="fill:none;stroke:#ccc;stroke-linejoin:round;stroke-linecap:round;" d="M438.1029216711104,18.703399365767837L465.9064968533312,14.870412194170058L561.1917630577773,3.6259725568816066"></path><path class="minor_road" style="fill:none;stroke:#ccc;stroke-linejoin:round;stroke-linecap:round;" d="M563.5964973511091,42.39001452829689L619.2222890666653,34.70909207314253L630.0622347377757,33.06210952065885L694.1045964799978,23.569493263959885"></path><path class="minor_road" style="fill:none;stroke:#ccc;stroke-linejoin:round;stroke-linecap:round;" d="M478.53601223111036,167.2749110404402L484.33347242666423,216.92279750481248L486.63567928888733,237.12022092659026"></path><path class="minor_road" style="fill:none;stroke:#ccc;stroke-linejoin:round;stroke-linecap:round;" d="M465.9064968533312,14.870412194170058L461.58170339555363,-4.99827067181468L457.83479182222254,-19.102525264956057"></path><path class="path" style="fill:none;stroke:#ccc;stroke-linejoin:round;stroke-linecap:round;" d="M438.1029216711104,203.6125280391425L469.00096113777727,175.9737978298217"></path></g><g><path class="path" style="fill:none;stroke:#ccc;stroke-linejoin:round;stroke-linecap:round;" d="M941.2609501866646,198.67170149553567L939.9933383111074,194.01534350588918"></path><path class="path" style="fill:none;stroke:#ccc;stroke-linejoin:round;stroke-linecap:round;" d="M840.0197723022229,215.76994054485112L818.0136573155523,220.3813672075048L813.2321507555534,190.33217706158757"></path><path class="path" style="fill:none;stroke:#ccc;stroke-linejoin:round;stroke-linecap:round;" d="M819.607492835552,234.00601869355887L840.0197723022229,215.76994054485112L851.679937422221,213.55405909195542L894.1169732266644,205.51399669237435L941.2609501866646,198.67170149553567L949.6215961599992,204.5557763343677L950.1062712888888,204.3761100033298"></path><path class="path" style="fill:none;stroke:#ccc;stroke-linejoin:round;stroke-linecap:round;" d="M907.5480667022202,237.12022092659026L898.460408035553,215.72502403706312L894.1169732266644,205.51399669237435"></path><path class="path" style="fill:none;stroke:#ccc;stroke-linejoin:round;stroke-linecap:round;" d="M865.3067650844459,-2.662537054158747L862.9206721422197,-19.102525264956057"></path><path class="path" style="fill:none;stroke:#ccc;stroke-linejoin:round;stroke-linecap:round;" d="M851.679937422221,213.55405909195542L851.3071103999973,208.0143523067236"></path><path class="path" style="fill:none;stroke:#ccc;stroke-linejoin:round;stroke-linecap:round;" d="M694.1045964799978,171.1677016792819L709.1202047999996,158.15678889211267L726.139758364443,142.2112750634551L741.5934384355551,123.82522788830101L752.5452322133315,106.44228268135339L759.8340004977763,86.00491320714355"></path><path class="path" style="fill:none;stroke:#ccc;stroke-linejoin:round;stroke-linecap:round;" d="M694.1045964799978,81.52814791165292L707.7687068444429,84.79214430134743L728.9639230577759,86.91823285538703L746.5799998577768,87.1577920857817L759.8340004977763,86.00491320714355L767.4583131022191,85.01673115137964"></path><path class="path" style="fill:none;stroke:#ccc;stroke-linejoin:round;stroke-linecap:round;" d="M694.1045964799978,150.35621823836118L709.1202047999996,158.15678889211267L728.3021550933317,167.94866342563182L744.5014892088875,174.41668293625116L758.0257894399983,177.665662644431L766.4703214933324,179.58211078029126L773.6192796444448,180.36066767945886"></path><path class="minor_road" style="fill:none;stroke:#ccc;stroke-linejoin:round;stroke-linecap:round;" d="M817.333247999999,237.12022092659026L816.1029188266639,234.42523830663413"></path><path class="minor_road" style="fill:none;stroke:#ccc;stroke-linejoin:round;stroke-linecap:round;" d="M793.4629979022211,237.12022092659026L816.1029188266639,234.42523830663413L819.607492835552,234.00601869355887"></path><path class="minor_road" style="fill:none;stroke:#ccc;stroke-linejoin:round;stroke-linecap:round;" d="M774.5886299022204,195.52753728441894L773.6192796444448,180.36066767945886L767.4583131022191,85.01673115137964L759.563700906665,13.88221983704716"></path><path class="minor_road" style="fill:none;stroke:#ccc;stroke-linejoin:round;stroke-linecap:round;" d="M694.1045964799978,206.367411586456L774.5886299022204,195.52753728441894L813.2321507555534,190.33217706158757L810.8367371377753,166.33165759127587"></path><path class="minor_road" style="fill:none;stroke:#ccc;stroke-linejoin:round;stroke-linecap:round;" d="M694.1045964799978,23.569493263959885L759.563700906665,13.88221983704716L814.1735389866662,6.0515389973297715L865.3067650844459,-2.662537054158747L871.6914278399981,-3.7705131554976106L950.1062712888888,-16.557169306091964"></path><path class="minor_road" style="fill:none;stroke:#ccc;stroke-linejoin:round;stroke-linecap:round;" d="M871.6914278399981,-3.7705131554976106L869.3799003022214,-19.102525264956057"></path><path class="minor_road" style="fill:none;stroke:#ccc;stroke-linejoin:round;stroke-linecap:round;" d="M844.2979623822212,209.21212712861598L851.3071103999973,208.0143523067236L939.9933383111074,194.01534350588918L950.1062712888888,192.87745489738882"></path><path class="minor_road" style="fill:none;stroke:#ccc;stroke-linejoin:round;stroke-linecap:round;" d="M871.6914278399981,-3.7705131554976106L893.6136567466656,145.01110037602484L898.6188595199965,175.19524042494595"></path><path class="minor_road" style="fill:none;stroke:#ccc;stroke-linejoin:round;stroke-linecap:round;" d="M893.6136567466656,145.01110037602484L950.1062712888888,135.08444181084633"></path><path class="minor_road" style="fill:none;stroke:#ccc;stroke-linejoin:round;stroke-linecap:round;" d="M814.1735389866662,6.0515389973297715L844.2979623822212,209.21212712861598"></path></g><g><path class="path" style="fill:none;stroke:#ccc;stroke-linejoin:round;stroke-linecap:round;" d="M121.32112156444418,277.60472064465284L88.37253347555452,282.1262733777985"></path><path class="minor_road" style="fill:none;stroke:#ccc;stroke-linejoin:round;stroke-linecap:round;" d="M182.10124686222116,377.04824512451887L179.73379527110956,357.7495473930612L181.13189660444186,341.4601463973522"></path><path class="minor_road" style="fill:none;stroke:#ccc;stroke-linejoin:round;stroke-linecap:round;" d="M182.10124686222116,478.76600292604417L115.60754744888982,485.50321624428034"></path><path class="minor_road" style="fill:none;stroke:#ccc;stroke-linejoin:round;stroke-linecap:round;" d="M-73.90042794666806,280.71890297997743L-38.57506759111129,276.332097645849"></path><path class="minor_road" style="fill:none;stroke:#ccc;stroke-linejoin:round;stroke-linecap:round;" d="M9.184073955555505,328.0004006102681L16.929555342223466,394.3556421296671L-73.90042794666806,406.34802555758506"></path><path class="minor_road" style="fill:none;stroke:#ccc;stroke-linejoin:round;stroke-linecap:round;" d="M-1.161875911111565,252.82595957722515L9.184073955555505,328.0004006102681"></path><path class="minor_road" style="fill:none;stroke:#ccc;stroke-linejoin:round;stroke-linecap:round;" d="M16.929555342223466,394.3556421296671L18.68184234666478,410.15084935724735"></path><path class="minor_road" style="fill:none;stroke:#ccc;stroke-linejoin:round;stroke-linecap:round;" d="M-73.90042794666806,337.85191904194653L-31.025320391112473,332.7614705655724L9.184073955555505,328.0004006102681L94.05814556444238,317.92428877949715"></path><path class="minor_road" style="fill:none;stroke:#ccc;stroke-linejoin:round;stroke-linecap:round;" d="M-43.580270364444004,237.12022092659026L-38.57506759111129,276.332097645849L-31.025320391112473,332.7614705655724"></path><path class="minor_road" style="fill:none;stroke:#ccc;stroke-linejoin:round;stroke-linecap:round;" d="M-73.90042794666806,479.12532113771886L6.322626559995115,468.5553691741079L96.15529756444084,458.52437979355454L112.72745870222207,457.26676217094064"></path><path class="minor_road" style="fill:none;stroke:#ccc;stroke-linejoin:round;stroke-linecap:round;" d="M98.28041159110944,351.3565610125661L170.89779484444443,342.7028134679422L181.13189660444186,341.4601463973522L182.10124686222116,341.35534313879907"></path><path class="minor_road" style="fill:none;stroke:#ccc;stroke-linejoin:round;stroke-linecap:round;" d="M170.85119146666693,237.12022092659026L181.13189660444186,341.4601463973522"></path><path class="minor_road" style="fill:none;stroke:#ccc;stroke-linejoin:round;stroke-linecap:round;" d="M6.322626559995115,468.5553691741079L9.696711111108016,492.91414321027696"></path><path class="major_road" style="fill:none;stroke:#ccc;stroke-linejoin:round;stroke-linecap:round;" d="M98.28041159110944,351.3565610125661L112.72745870222207,457.26676217094064L115.60754744888982,485.50321624428034L116.62350108444298,492.91414321027696"></path><path class="major_road" style="fill:none;stroke:#ccc;stroke-linejoin:round;stroke-linecap:round;" d="M82.1929255822215,237.12022092659026L88.37253347555452,282.1262733777985L94.05814556444238,317.92428877949715L98.28041159110944,351.3565610125661"></path><path class="major_road" style="fill:none;stroke:#ccc;stroke-linejoin:round;stroke-linecap:round;" d="M100.85291804444205,492.91414321027696L96.15529756444084,458.52437979355454L66.66468010666722,237.12022092659026"></path></g><g><path class="path" style="fill:none;stroke:#ccc;stroke-linejoin:round;stroke-linecap:round;" d="M252.50963000888805,332.95610542874783L250.93443584000124,319.61611840408295L241.80017379555284,242.4203503075987L283.4263108266641,237.12022092659026M368.37494783999864,237.12022092659026L368.9714710755543,242.31554553098977L377.6117373155539,318.02909239847213"></path><path class="minor_road" style="fill:none;stroke:#ccc;stroke-linejoin:round;stroke-linecap:round;" d="M302.92516408888696,466.5342008592561L182.10124686222116,478.76600292604417"></path><path class="minor_road" style="fill:none;stroke:#ccc;stroke-linejoin:round;stroke-linecap:round;" d="M284.0507960888863,403.89265788532794L191.71086336000008,415.1214662492275L185.71766897777343,406.4528278177604L182.10124686222116,377.04824512451887"></path><path class="minor_road" style="fill:none;stroke:#ccc;stroke-linejoin:round;stroke-linecap:round;" d="M438.1029216711104,401.64689398929477L298.6656153599979,417.0827628849074L295.73892323555265,412.621186517179L290.50070357333243,405.88390124589205L284.0507960888863,403.89265788532794"></path><path class="minor_road" style="fill:none;stroke:#ccc;stroke-linejoin:round;stroke-linecap:round;" d="M182.10124686222116,341.35534313879907L252.50963000888805,332.95610542874783L377.6117373155539,318.02909239847213L438.1029216711104,310.8126109978184"></path></g><g><path class="path" style="fill:none;stroke:#ccc;stroke-linejoin:round;stroke-linecap:round;" d="M616.5845378844442,492.91414321027696L586.8049794844428,328.29983907192945"></path><path class="path" style="fill:none;stroke:#ccc;stroke-linejoin:round;stroke-linecap:round;" d="M586.8049794844428,328.29983907192945L601.3638747022214,326.0839941557497"></path><path class="path" style="fill:none;stroke:#ccc;stroke-linejoin:round;stroke-linecap:round;" d="M493.2813209600008,360.2199035240337L511.02788721777506,358.07892826292664L506.749697137775,322.49073060788214L459.5311547733327,327.9255409957841L457.4340027733306,308.50692861154675"></path><path class="minor_road" style="fill:none;stroke:#ccc;stroke-linejoin:round;stroke-linecap:round;" d="M594.8766845155515,292.30724208056927L653.5596578133318,284.626600921154"></path><path class="minor_road" style="fill:none;stroke:#ccc;stroke-linejoin:round;stroke-linecap:round;" d="M451.03069866666374,467.7019870681688L616.2303522133316,451.59250836167485"></path><path class="minor_road" style="fill:none;stroke:#ccc;stroke-linejoin:round;stroke-linecap:round;" d="M493.2813209600008,360.2199035240337L467.2020707555548,362.76511799450964L470.8278135466644,398.02372668869793"></path><path class="minor_road" style="fill:none;stroke:#ccc;stroke-linejoin:round;stroke-linecap:round;" d="M694.1045964799978,364.17247147113085L666.692489671108,372.88607908878475L674.6616672711098,421.93360098823905"></path><path class="minor_road" style="fill:none;stroke:#ccc;stroke-linejoin:round;stroke-linecap:round;" d="M653.5596578133318,284.626600921154L651.1362821688872,268.3819415392354L694.1045964799978,263.0668602557853"></path><path class="minor_road" style="fill:none;stroke:#ccc;stroke-linejoin:round;stroke-linecap:round;" d="M653.5596578133318,284.626600921154L655.7593372444426,297.6821885481477L694.1045964799978,292.8911501178518"></path><path class="minor_road" style="fill:none;stroke:#ccc;stroke-linejoin:round;stroke-linecap:round;" d="M655.7593372444426,297.6821885481477L660.6433712355538,333.37531896773726L694.1045964799978,329.1981543712318"></path><path class="minor_road" style="fill:none;stroke:#ccc;stroke-linejoin:round;stroke-linecap:round;" d="M470.8278135466644,398.02372668869793L438.1029216711104,401.64689398929477"></path><path class="minor_road" style="fill:none;stroke:#ccc;stroke-linejoin:round;stroke-linecap:round;" d="M486.63567928888733,237.12022092659026L494.2599918933338,304.1051691630855"></path><path class="minor_road" style="fill:none;stroke:#ccc;stroke-linejoin:round;stroke-linecap:round;" d="M438.1029216711104,310.8126109978184L457.4340027733306,308.50692861154675L494.2599918933338,304.1051691630855L582.4429033244433,293.5948340985924L594.8766845155515,292.30724208056927"></path></g><g><path class="path" style="fill:none;stroke:#ccc;stroke-linejoin:round;stroke-linecap:round;" d="M745.2285019022202,256.7336734915152L750.0938945422222,285.89922237675637"></path><path class="path" style="fill:none;stroke:#ccc;stroke-linejoin:round;stroke-linecap:round;" d="M939.7230387199979,312.83382544014603L936.2650680888873,304.70404816791415L907.5480667022202,237.12022092659026"></path><path class="minor_road" style="fill:none;stroke:#ccc;stroke-linejoin:round;stroke-linecap:round;" d="M947.9159125333317,330.1863010674715L900.0449228799989,350.652882989496"></path><path class="minor_road" style="fill:none;stroke:#ccc;stroke-linejoin:round;stroke-linecap:round;" d="M950.1062712888888,319.0771284820512L944.0012287999998,321.57744248583913"></path><path class="minor_road" style="fill:none;stroke:#ccc;stroke-linejoin:round;stroke-linecap:round;" d="M927.6993672533317,492.91414321027696L852.5001568711104,329.97669420111924L768.0455156622229,340.65166408382356L757.7275278222187,344.1101710833609"></path><path class="minor_road" style="fill:none;stroke:#ccc;stroke-linejoin:round;stroke-linecap:round;" d="M950.1062712888888,334.97731330711395L947.9159125333317,330.1863010674715L944.0012287999998,321.57744248583913L939.7230387199979,312.83382544014603L865.9312503466663,343.4963236460462L817.333247999999,237.12022092659026"></path><path class="minor_road" style="fill:none;stroke:#ccc;stroke-linejoin:round;stroke-linecap:round;" d="M694.1045964799978,292.8911501178518L750.0938945422222,285.89922237675637L823.867041564441,278.9522035587579"></path><path class="minor_road" style="fill:none;stroke:#ccc;stroke-linejoin:round;stroke-linecap:round;" d="M694.1045964799978,329.1981543712318L838.509822862221,311.2018819740042"></path><path class="minor_road" style="fill:none;stroke:#ccc;stroke-linejoin:round;stroke-linecap:round;" d="M745.172577848889,347.9280014485121L694.1045964799978,364.17247147113085"></path><path class="minor_road" style="fill:none;stroke:#ccc;stroke-linejoin:round;stroke-linecap:round;" d="M757.7275278222187,344.1101710833609L745.172577848889,347.9280014485121"></path><path class="minor_road" style="fill:none;stroke:#ccc;stroke-linejoin:round;stroke-linecap:round;" d="M694.1045964799978,263.0668602557853L745.2285019022202,256.7336734915152L742.833088284442,243.13901160191745L793.4629979022211,237.12022092659026"></path></g><g><path class="path" style="fill:none;stroke:#ccc;stroke-linejoin:round;stroke-linecap:round;" d="M182.10124686222116,617.1620009858161L173.3957358933294,622.2222947645932L172.64076117333025,637.478009801358L173.64739413333155,649.4699659841135L176.6486516622208,659.7252426287159L182.10124686222116,661.3720739427954"></path><path class="path" style="fill:none;stroke:#ccc;stroke-linejoin:round;stroke-linecap:round;" d="M172.36114090666524,700.6563684763387L173.22796373333404,707.9023798052222L160.36543146666372,709.5342284049839L160.943313351112,715.8370528090745"></path><path class="path" style="fill:none;stroke:#ccc;stroke-linejoin:round;stroke-linecap:round;" d="M133.20498289777606,728.9516996629536L141.85456981333118,727.7989292005077L143.41112263111063,741.6471328819171L150.01948159999665,740.733900857158"></path><path class="path" style="fill:none;stroke:#ccc;stroke-linejoin:round;stroke-linecap:round;" d="M126.2983623111104,679.2775959912688L132.73894911999741,678.5290383193642L134.89202517332888,694.3984434064478L144.06356991999928,693.2606382332742"></path><path class="path" style="fill:none;stroke:#ccc;stroke-linejoin:round;stroke-linecap:round;" d="M117.76994417777678,707.8874087156728L118.60880497777543,714.6693090582266L106.51056810666705,716.001734605059L107.41467363555421,722.9632795713842"></path><path class="minor_road" style="fill:none;stroke:#ccc;stroke-linejoin:round;stroke-linecap:round;" d="M-73.90042794666806,605.4394716992974L-60.525258524445235,603.9123974377289"></path><path class="minor_road" style="fill:none;stroke:#ccc;stroke-linejoin:round;stroke-linecap:round;" d="M-60.525258524445235,603.9123974377289L-73.90042794666806,526.1659002862871"></path><path class="minor_road" style="fill:none;stroke:#ccc;stroke-linejoin:round;stroke-linecap:round;" d="M75.2490222933302,749.1176656857133L71.96814449777594,727.7989292005077"></path><path class="minor_road" style="fill:none;stroke:#ccc;stroke-linejoin:round;stroke-linecap:round;" d="M-60.525258524445235,603.9123974377289L-50.91564202666632,666.1628536758944L-45.248671288889454,728.6822208734229"></path><path class="minor_road" style="fill:none;stroke:#ccc;stroke-linejoin:round;stroke-linecap:round;" d="M9.696711111108016,492.91414321027696L40.91165354666373,718.4120767842978"></path><path class="minor_road" style="fill:none;stroke:#ccc;stroke-linejoin:round;stroke-linecap:round;" d="M-50.91564202666632,666.1628536758944L-73.90042794666806,669.7259939219803"></path><path class="minor_road" style="fill:none;stroke:#ccc;stroke-linejoin:round;stroke-linecap:round;" d="M18.439504782221775,734.7305200714618L20.126547057778225,749.1176656857133"></path><path class="major_road" style="fill:none;stroke:#ccc;stroke-linejoin:round;stroke-linecap:round;" d="M131.97465372444276,719.5498777637258L129.9986705066658,706.1657331613824"></path><path class="major_road" style="fill:none;stroke:#ccc;stroke-linejoin:round;stroke-linecap:round;" d="M129.9986705066658,706.1657331613824L126.2983623111104,679.2775959912688L100.85291804444205,492.91414321027696"></path><path class="major_road" style="fill:none;stroke:#ccc;stroke-linejoin:round;stroke-linecap:round;" d="M116.62350108444298,492.91414321027696L143.49500871111013,689.0687227947637L144.06356991999928,693.2606382332742L145.4430299022206,704.0398375308141"></path><path class="major_road" style="fill:none;stroke:#ccc;stroke-linejoin:round;stroke-linecap:round;" d="M147.18599623111004,717.5886680614203L150.01948159999665,740.733900857158L150.9701905066686,749.1176656857133"></path><path class="major_road" style="fill:none;stroke:#ccc;stroke-linejoin:round;stroke-linecap:round;" d="M145.4430299022206,704.0398375308141L147.18599623111004,717.5886680614203"></path><path class="major_road" style="fill:none;stroke:#ccc;stroke-linejoin:round;stroke-linecap:round;" d="M135.65632056888717,749.1176656857133L133.94131626666422,734.9999986216426L133.20498289777606,728.9516996629536L131.97465372444276,719.5498777637258"></path><path class="major_road" style="fill:none;stroke:#ccc;stroke-linejoin:round;stroke-linecap:round;" d="M131.97465372444276,719.5498777637258L107.40535295999871,722.9632795713842L71.96814449777594,727.7989292005077L18.439504782221775,734.7305200714618L-73.90042794666806,745.1503496812657"></path><path class="major_road" style="fill:none;stroke:#ccc;stroke-linejoin:round;stroke-linecap:round;" d="M-73.90042794666806,731.9908208493143L-45.248671288889454,728.6822208734229L40.91165354666373,718.4120767842978L112.86726883555457,708.5910499030724L117.76994417777678,707.8874087156728L129.9986705066658,706.1657331613824"></path><path class="major_road" style="fill:none;stroke:#ccc;stroke-linejoin:round;stroke-linecap:round;" d="M145.4430299022206,704.0398375308141L172.36114090666524,700.6563684763387L182.10124686222116,699.4586799116805"></path><path class="major_road" style="fill:none;stroke:#ccc;stroke-linejoin:round;stroke-linecap:round;" d="M129.9986705066658,706.1657331613824L145.4430299022206,704.0398375308141"></path><path class="major_road" style="fill:none;stroke:#ccc;stroke-linejoin:round;stroke-linecap:round;" d="M147.17667555555454,717.5886680614203L131.97465372444276,719.5498777637258"></path><path class="major_road" style="fill:none;stroke:#ccc;stroke-linejoin:round;stroke-linecap:round;" d="M182.10124686222116,713.0374616933987L166.95514908444238,715.1783255906776L160.943313351112,715.8370528090745L147.17667555555454,717.5886680614203"></path></g><g><path class="path" style="fill:none;stroke:#ccc;stroke-linejoin:round;stroke-linecap:round;" d="M325.13633393777855,634.9478690391406L322.05119032888615,635.2323227794841L240.01992476444502,644.9785990938544"></path><path class="path" style="fill:none;stroke:#ccc;stroke-linejoin:round;stroke-linecap:round;" d="M335.2492669155545,686.5984857054427L336.03220366222376,676.4480475559831L336.11608974222327,667.5102598676458L336.27454122666677,658.0933821219951L338.9961784888874,649.5747645078227L345.95872312888605,640.7567115267739L357.2647025777769,633.0315487841144L373.1284923733292,629.2288491809741L387.64078421333033,627.1927571883425L406.0025150577785,626.0249982671812L420.496165546665,629.9474697392434L430.0964613688884,639.5440412089229L437.2827022222227,652.3594104526564L438.1029216711104,655.353652135469"></path><path class="path" style="fill:none;stroke:#ccc;stroke-linejoin:round;stroke-linecap:round;" d="M322.05119032888615,635.2323227794841L326.71152810666536,668.5732134552673"></path><path class="path" style="fill:none;stroke:#ccc;stroke-linejoin:round;stroke-linecap:round;" d="M272.98715420444205,688.155483732L274.683517155554,699.6233621025458"></path><path class="path" style="fill:none;stroke:#ccc;stroke-linejoin:round;stroke-linecap:round;" d="M243.77615701333343,679.0979421567172L326.71152810666536,668.5732134552673L336.11608974222327,667.5102598676458"></path><path class="path" style="fill:none;stroke:#ccc;stroke-linejoin:round;stroke-linecap:round;" d="M189.65099406222362,558.7288101892918L190.15431054222063,564.7323458082974L218.15361991111058,593.4773808270693L234.89355320888717,594.9745147479698L238.39812721777707,628.7198262419552L230.90430407110762,633.7202264377847M230.90430407110762,633.7202264377847L220.13892380444304,624.9770093243569L209.14052664888732,623.225370301865L201.39504526221936,621.9977255947888L187.1437323377795,614.227627729997L182.10124686222116,617.1620009858161M182.10124686222116,661.3720739427954L191.65493930666344,664.2315709991381L206.14858979555356,668.228876395151L220.64224028444005,665.4741792967543L230.90430407110762,654.9793719965965L232.40493283555406,642.478403580375L230.90430407110762,633.7202264377847"></path><path class="path" style="fill:none;stroke:#ccc;stroke-linejoin:round;stroke-linecap:round;" d="M231.90161635555341,588.2224381556734L218.15361991111058,586.740274108015L191.40328106666493,558.7288101892918"></path><path class="minor_road" style="fill:none;stroke:#ccc;stroke-linejoin:round;stroke-linecap:round;" d="M264.53330147555243,689.203462973237L266.1737403733314,701.1055016322061"></path><path class="minor_road" style="fill:none;stroke:#ccc;stroke-linejoin:round;stroke-linecap:round;" d="M266.1737403733314,701.1055016322061L271.59837354666524,749.1176656857133"></path><path class="major_road" style="fill:none;stroke:#ccc;stroke-linejoin:round;stroke-linecap:round;" d="M264.53330147555243,689.203462973237L272.98715420444205,688.155483732L335.2492669155545,686.5984857054427"></path><path class="major_road" style="fill:none;stroke:#ccc;stroke-linejoin:round;stroke-linecap:round;" d="M266.1737403733314,701.1055016322061L182.10124686222116,713.0374616933987"></path><path class="major_road" style="fill:none;stroke:#ccc;stroke-linejoin:round;stroke-linecap:round;" d="M335.2492669155545,686.5984857054427L274.683517155554,699.6233621025458L266.1737403733314,701.1055016322061"></path><path class="major_road" style="fill:none;stroke:#ccc;stroke-linejoin:round;stroke-linecap:round;" d="M182.10124686222116,699.4586799116805L264.53330147555243,689.203462973237"></path><path class="major_road" style="fill:none;stroke:#ccc;stroke-linejoin:round;stroke-linecap:round;" d="M335.2492669155545,686.5984857054427L438.1029216711104,673.4388439636678"></path></g><g><path class="path" style="fill:none;stroke:#ccc;stroke-linejoin:round;stroke-linecap:round;" d="M622.5404495644434,525.7766415728256L643.0459357866657,522.3781126337126"></path><path class="path" style="fill:none;stroke:#ccc;stroke-linejoin:round;stroke-linecap:round;" d="M653.1029447111105,749.1176656857133L646.858092088889,702.1385077834129L641.1538386488864,659.2162219649181L635.4775472355523,618.464502999559L622.5404495644434,525.7766415728256L616.5845378844442,492.91414321027696"></path><path class="path" style="fill:none;stroke:#ccc;stroke-linejoin:round;stroke-linecap:round;" d="M659.422362737776,700.1922641815618L646.858092088889,702.1385077834129"></path><path class="path" style="fill:none;stroke:#ccc;stroke-linejoin:round;stroke-linecap:round;" d="M618.14109070222,629.3635905431584L455.73763982222226,648.556721623987L454.48866929777614,671.2979669682682"></path><path class="path" style="fill:none;stroke:#ccc;stroke-linejoin:round;stroke-linecap:round;" d="M438.1029216711104,655.353652135469L439.6874365155527,661.1475060610101L441.2253479822193,673.0346224848181"></path><path class="path" style="fill:none;stroke:#ccc;stroke-linejoin:round;stroke-linecap:round;" d="M617.3488332799989,621.3539605950937L618.14109070222,629.3635905431584"></path><path class="path" style="fill:none;stroke:#ccc;stroke-linejoin:round;stroke-linecap:round;" d="M635.4775472355523,618.464502999559L617.3488332799989,621.3539605950937"></path><path class="path" style="fill:none;stroke:#ccc;stroke-linejoin:round;stroke-linecap:round;" d="M618.14109070222,629.3635905431584L632.8397960533312,628.6299986587837"></path><path class="path" style="fill:none;stroke:#ccc;stroke-linejoin:round;stroke-linecap:round;" d="M624.9358631822197,522.3781126337126L642.7290328177769,519.7281571757048"></path><path class="minor_road" style="fill:none;stroke:#ccc;stroke-linejoin:round;stroke-linecap:round;" d="M520.5349762844417,749.1176656857133L510.3474779022217,686.1643227320164L509.40608967110893,680.2806631419808L506.86154524444464,664.6507641831413"></path><path class="minor_road" style="fill:none;stroke:#ccc;stroke-linejoin:round;stroke-linecap:round;" d="M591.2789037511084,749.1176656857133L587.0566377244431,742.1860894300044L582.8623337244444,731.5117476508021L585.1086165333309,727.6641897875816L592.518553599999,725.5532719055191L631.7865597155524,720.8224181095138"></path><path class="major_road" style="fill:none;stroke:#ccc;stroke-linejoin:round;stroke-linecap:round;" d="M623.006483342222,749.1176656857133L636.8476865422199,740.6740167839453L643.9500413155529,737.1707976832986L655.5915650844454,731.4069503825158"></path><path class="major_road" style="fill:none;stroke:#ccc;stroke-linejoin:round;stroke-linecap:round;" d="M655.5915650844454,731.4069503825158L694.1045964799978,714.2501189475879"></path><path class="major_road" style="fill:none;stroke:#ccc;stroke-linejoin:round;stroke-linecap:round;" d="M642.3841678222198,649.829275207594L670.1970636799979,646.355951921083L694.1045964799978,642.8227419378236"></path><path class="major_road" style="fill:none;stroke:#ccc;stroke-linejoin:round;stroke-linecap:round;" d="M506.86154524444464,664.6507641831413L526.407001884445,662.5098844319582L632.6254205155565,651.0419436981902L642.3841678222198,649.829275207594"></path><path class="major_road" style="fill:none;stroke:#ccc;stroke-linejoin:round;stroke-linecap:round;" d="M438.1029216711104,673.4388439636678L441.2253479822193,673.0346224848181L454.48866929777614,671.2979669682682L460.41661895110883,670.5643795914948L468.1527796622213,669.5762821836397L506.86154524444464,664.6507641831413"></path></g><g><path class="path" style="fill:none;stroke:#ccc;stroke-linejoin:round;stroke-linecap:round;" d="M746.263096888888,669.7409650944173L764.2426800355552,664.0968303261325"></path><path class="path" style="fill:none;stroke:#ccc;stroke-linejoin:round;stroke-linecap:round;" d="M739.0302526577761,636.1904826676473L742.5814300444436,660.4139175899327L746.263096888888,669.7409650944173L750.1218565688869,680.9843071764335L754.1111057066628,685.146285302937"></path><path class="path" style="fill:none;stroke:#ccc;stroke-linejoin:round;stroke-linecap:round;" d="M945.2408786488868,697.5274066589773L908.6199443911082,709.8037079507485"></path><path class="minor_road" style="fill:none;stroke:#ccc;stroke-linejoin:round;stroke-linecap:round;" d="M950.1062712888888,540.6732572698966L948.447191039997,537.8586228247732"></path><path class="minor_road" style="fill:none;stroke:#ccc;stroke-linejoin:round;stroke-linecap:round;" d="M948.447191039997,537.8586228247732L927.6993672533317,492.91414321027696"></path><path class="minor_road" style="fill:none;stroke:#ccc;stroke-linejoin:round;stroke-linecap:round;" d="M728.0225348266631,665.8784012217075L735.4883959466642,684.9366893433034L738.8158771200015,694.323587808758"></path><path class="minor_road" style="fill:none;stroke:#ccc;stroke-linejoin:round;stroke-linecap:round;" d="M761.1668571022219,749.1176656857133L738.8158771200015,694.323587808758"></path><path class="minor_road" style="fill:none;stroke:#ccc;stroke-linejoin:round;stroke-linecap:round;" d="M921.9112277333315,749.1176656857133L908.6199443911082,709.8037079507485"></path><path class="minor_road" style="fill:none;stroke:#ccc;stroke-linejoin:round;stroke-linecap:round;" d="M950.1062712888888,662.7194810798392L945.1476718933318,664.3812828548253"></path><path class="minor_road" style="fill:none;stroke:#ccc;stroke-linejoin:round;stroke-linecap:round;" d="M812.6729102222216,647.1344555728137L826.8496577422211,652.4342665085569L862.193659448887,749.1176656857133"></path><path class="major_road" style="fill:none;stroke:#ccc;stroke-linejoin:round;stroke-linecap:round;" d="M694.1045964799978,714.2501189475879L738.8158771200015,694.323587808758L754.1111057066628,685.146285302937L776.5925751466657,670.654206619598L800.9008969955521,655.0242856135592L812.6729102222216,647.1344555728137L816.1961255822189,639.3045013695955L814.6582141155541,617.0122880982235"></path><path class="major_road" style="fill:none;stroke:#ccc;stroke-linejoin:round;stroke-linecap:round;" d="M950.1062712888888,566.1246862336993L928.5102660266639,576.6046588039026L869.3519382755549,601.6517280479893L814.6582141155541,617.0122880982235"></path><path class="major_road" style="fill:none;stroke:#ccc;stroke-linejoin:round;stroke-linecap:round;" d="M694.1045964799978,642.8227419378236L739.0302526577761,636.1904826676473L773.4794695111086,628.5251998091117L814.6582141155541,617.0122880982235"></path></g><g><path class="path" style="fill:none;stroke:#ccc;stroke-linejoin:round;stroke-linecap:round;" d="M146.48694556444025,923.6623158054426L155.52800085333,921.7311060018837L170.76730538666743,918.6172161735594L182.10124686222116,919.5004831431434M182.10124686222116,946.3577327094972L174.74723384888784,947.8847303437069L158.91140607999841,950.1153439236805L149.35771363555614,951.2830473845825L147.40969244444204,937.7496514087543L146.48694556444025,923.6623158054426"></path><path class="minor_road" style="fill:none;stroke:#ccc;stroke-linejoin:round;stroke-linecap:round;" d="M-36.03052316444882,979.0234311381355L-73.90042794666806,877.2532467963174"></path><path class="minor_road" style="fill:none;stroke:#ccc;stroke-linejoin:round;stroke-linecap:round;" d="M20.126547057778225,749.1176656857133L44.91022335999878,960.3551982501522"></path><path class="minor_road" style="fill:none;stroke:#ccc;stroke-linejoin:round;stroke-linecap:round;" d="M105.69034865777576,946.7319968678057L75.2490222933302,749.1176656857133"></path><path class="minor_road" style="fill:none;stroke:#ccc;stroke-linejoin:round;stroke-linecap:round;" d="M182.10124686222116,860.9351443098858L163.83272277333162,862.9861373137683L149.71189930666515,865.0221589617431"></path><path class="major_road" style="fill:none;stroke:#ccc;stroke-linejoin:round;stroke-linecap:round;" d="M156.92610218666232,935.7136514633894L155.52800085333,921.7311060018837L149.71189930666515,865.0221589617431L135.65632056888717,749.1176656857133"></path><path class="major_road" style="fill:none;stroke:#ccc;stroke-linejoin:round;stroke-linecap:round;" d="M172.39842360888724,931.2224729582667L174.74723384888784,947.8847303437069L182.10124686222116,1000.3563532745466"></path><path class="major_road" style="fill:none;stroke:#ccc;stroke-linejoin:round;stroke-linecap:round;" d="M156.92610218666232,935.7136514633894L147.40969244444204,937.7496514087543L105.69034865777576,946.7319968678057L44.91022335999878,960.3551982501522L-36.03052316444882,979.0234311381355L-73.90042794666806,990.0417066179216"></path><path class="major_road" style="fill:none;stroke:#ccc;stroke-linejoin:round;stroke-linecap:round;" d="M150.9701905066686,749.1176656857133L163.83272277333162,862.9861373137683L170.76730538666743,918.6172161735594L172.39842360888724,931.2224729582667"></path><path class="major_road" style="fill:none;stroke:#ccc;stroke-linejoin:round;stroke-linecap:round;" d="M166.47047395555273,1004.9073680341244L158.91140607999841,950.1153439236805L156.92610218666232,935.7136514633894"></path><path class="major_road" style="fill:none;stroke:#ccc;stroke-linejoin:round;stroke-linecap:round;" d="M172.39842360888724,931.2224729582667L156.92610218666232,935.7136514633894"></path><path class="major_road" style="fill:none;stroke:#ccc;stroke-linejoin:round;stroke-linecap:round;" d="M182.10124686222116,930.3092663018033L172.39842360888724,931.2224729582667"></path></g><g><path class="path" style="fill:none;stroke:#ccc;stroke-linejoin:round;stroke-linecap:round;" d="M438.1029216711104,838.5987426014617L432.3427441777749,836.9369832510129"></path><path class="path" style="fill:none;stroke:#ccc;stroke-linejoin:round;stroke-linecap:round;" d="M182.10124686222116,919.5004831431434L187.01324287999887,919.8897193977609L187.92666908444153,929.7403834061697L190.49917553777414,942.510295975022L183.12652117332982,946.1331742024049L182.10124686222116,946.3577327094972"></path><path class="minor_road" style="fill:none;stroke:#ccc;stroke-linejoin:round;stroke-linecap:round;" d="M182.5299979377778,1003.410324042663L256.69461333332947,973.0202599726617L267.65572778666683,990.1464999103919L282.37307448888896,983.3948142975569"></path><path class="minor_road" style="fill:none;stroke:#ccc;stroke-linejoin:round;stroke-linecap:round;" d="M286.4834924088864,847.6560724815354L320.51327886222134,842.2067051995546"></path><path class="minor_road" style="fill:none;stroke:#ccc;stroke-linejoin:round;stroke-linecap:round;" d="M409.4884477155538,1004.9073680341244L352.7907783111077,908.4072405239567"></path><path class="minor_road" style="fill:none;stroke:#ccc;stroke-linejoin:round;stroke-linecap:round;" d="M413.56158293333283,900.8021460939199L414.484329813331,906.5808209786192L417.74656625777425,915.5332661941648L438.1029216711104,949.0524341883138"></path><path class="minor_road" style="fill:none;stroke:#ccc;stroke-linejoin:round;stroke-linecap:round;" d="M286.4834924088864,847.6560724815354L226.23464561777655,855.9947936600074L182.10124686222116,860.9351443098858"></path><path class="minor_road" style="fill:none;stroke:#ccc;stroke-linejoin:round;stroke-linecap:round;" d="M417.8024903111109,848.0004004882649L412.60155335111267,847.0871826950461L409.4511650133318,845.5302209286019L405.5924053333292,841.9372308831662L403.19699171555476,837.2363993804902L402.7775613155536,830.110291951336L404.5857723733352,825.154948153533L406.1889285688885,822.909322890453L411.58559971555223,818.8821664024144L416.7119712711101,817.6395860398188L422.44418673777545,818.3432159144431L427.09520383999916,820.8283761544153L430.76755000888807,824.9902689931914L432.65032647111,829.9306420879439L432.3427441777749,836.9369832510129L430.0405373155554,841.7126689394936L426.2563430400005,845.3655422599986L421.4468744533333,847.521335429512L417.8024903111109,848.0004004882649"></path><path class="minor_road" style="fill:none;stroke:#ccc;stroke-linejoin:round;stroke-linecap:round;" d="M229.2825065244433,887.2686500046402L226.23464561777655,855.9947936600074L216.52250168888713,777.5924471868202"></path><path class="minor_road" style="fill:none;stroke:#ccc;stroke-linejoin:round;stroke-linecap:round;" d="M271.59837354666524,749.1176656857133L276.52901091555395,792.6831349534914L285.1692771555536,836.637567111291L286.4834924088864,847.6560724815354"></path><path class="minor_road" style="fill:none;stroke:#ccc;stroke-linejoin:round;stroke-linecap:round;" d="M320.0472450844427,1004.9073680341244L278.0855637333334,939.5311508635059L274.98177877333,919.844807524234"></path><path class="minor_road" style="fill:none;stroke:#ccc;stroke-linejoin:round;stroke-linecap:round;" d="M286.4834924088864,847.6560724815354L286.18523079111037,857.8212267393246L291.2556782933316,905.847258893773L292.84951381333303,917.28483018931"></path><path class="minor_road" style="fill:none;stroke:#ccc;stroke-linejoin:round;stroke-linecap:round;" d="M427.13248654222116,899.8290526894853L425.99536412444286,886.4153202623129L421.4468744533333,847.521335429512"></path><path class="minor_road" style="fill:none;stroke:#ccc;stroke-linejoin:round;stroke-linecap:round;" d="M359.734681599999,1004.9073680341244L333.90708963555517,965.4002670235932"></path><path class="major_road" style="fill:none;stroke:#ccc;stroke-linejoin:round;stroke-linecap:round;" d="M292.84951381333303,917.28483018931L274.98177877333,919.844807524234L187.92666908444153,929.7403834061697L182.10124686222116,930.3092663018033"></path><path class="major_road" style="fill:none;stroke:#ccc;stroke-linejoin:round;stroke-linecap:round;" d="M438.1029216711104,899.2751379208639L427.13248654222116,899.8290526894853"></path><path class="major_road" style="fill:none;stroke:#ccc;stroke-linejoin:round;stroke-linecap:round;" d="M427.13248654222116,899.8290526894853L413.56158293333283,900.8021460939199"></path><path class="major_road" style="fill:none;stroke:#ccc;stroke-linejoin:round;stroke-linecap:round;" d="M352.7907783111077,908.4072405239567L292.84951381333303,917.28483018931"></path><path class="major_road" style="fill:none;stroke:#ccc;stroke-linejoin:round;stroke-linecap:round;" d="M182.10124686222116,1000.3563532745466L182.5299979377778,1003.410324042663L182.7723355022208,1004.9073680341244"></path><path class="major_road" style="fill:none;stroke:#ccc;stroke-linejoin:round;stroke-linecap:round;" d="M427.13248654222116,899.8290526894853L438.1029216711104,897.733158737421"></path><path class="major_road" style="fill:none;stroke:#ccc;stroke-linejoin:round;stroke-linecap:round;" d="M413.56158293333283,900.8021460939199L352.7907783111077,908.4072405239567"></path></g><g><path class="path" style="fill:none;stroke:#ccc;stroke-linejoin:round;stroke-linecap:round;" d="M612.7723815822228,880.1276241075248L625.3646142577763,860.8303490281105L636.9874966755524,848.8537350390106L665.2105022577762,840.1706767454743L653.1029447111105,749.1176656857133"></path><path class="path" style="fill:none;stroke:#ccc;stroke-linejoin:round;stroke-linecap:round;" d="M607.73921678222,895.0983197074383L612.7817022577747,895.457615996711"></path><path class="path" style="fill:none;stroke:#ccc;stroke-linejoin:round;stroke-linecap:round;" d="M612.7817022577747,895.457615996711L633.4922433422198,897.7930414294824"></path><path class="path" style="fill:none;stroke:#ccc;stroke-linejoin:round;stroke-linecap:round;" d="M607.73921678222,895.0983197074383L612.7723815822228,880.1276241075248"></path><path class="path" style="fill:none;stroke:#ccc;stroke-linejoin:round;stroke-linecap:round;" d="M596.9365538133334,877.7323097623885L612.7723815822228,880.1276241075248"></path><path class="path" style="fill:none;stroke:#ccc;stroke-linejoin:round;stroke-linecap:round;" d="M599.6115876977783,914.4703510720283L594.3733680355526,909.7995108254254L595.0630980266633,903.1076283715665L596.0324482844444,894.0054600397125L596.9365538133334,877.7323097623885L598.2507690666644,857.926022067666L599.2201193244437,851.3987672692165"></path><path class="path" style="fill:none;stroke:#ccc;stroke-linejoin:round;stroke-linecap:round;" d="M596.0324482844444,894.0054600397125L607.73921678222,895.0983197074383"></path><path class="path" style="fill:none;stroke:#ccc;stroke-linejoin:round;stroke-linecap:round;" d="M622.3633567288871,954.5316572496668L589.6105028266666,944.2768236156553L582.0048315733329,968.8883984480053L556.3543324444436,965.5350017482415L536.752951751112,966.7775551807135L536.1657491911083,961.9121338156983L533.1272089599988,937.7646219925955L538.9805932088893,937.0460338480771"></path><path class="path" style="fill:none;stroke:#ccc;stroke-linejoin:round;stroke-linecap:round;" d="M566.5511515022208,934.1267687296495L548.1334966044433,934.6657100766897L538.9805932088893,937.0460338480771L536.7436310755547,907.7784731937572L524.4776220444419,903.4070415943861L523.3032169244434,894.8288474781439L523.2379721955549,875.1573459077626L529.9954619733326,872.5075274351984L539.4652683377735,872.8668249156326L558.6378979555539,867.3126825867221L556.7085181155562,861.9082432566211"></path><path class="path" style="fill:none;stroke:#ccc;stroke-linejoin:round;stroke-linecap:round;" d="M440.7406728533333,839.3472827160731L438.1029216711104,838.5987426014617"></path><path class="minor_road" style="fill:none;stroke:#ccc;stroke-linejoin:round;stroke-linecap:round;" d="M466.52166143999784,995.8352763988078L471.18199921777705,1003.5001466888934L472.0395013688885,1004.9073680341244M643.6424590222196,1004.9073680341244L650.5584002844425,999.2784809134901"></path><path class="minor_road" style="fill:none;stroke:#ccc;stroke-linejoin:round;stroke-linecap:round;" d="M669.9267640888866,835.8590850783512L599.2201193244437,851.3987672692165L556.7085181155562,861.9082432566211L549.1774122666629,863.7646162528545"></path><path class="minor_road" style="fill:none;stroke:#ccc;stroke-linejoin:round;stroke-linecap:round;" d="M438.1029216711104,949.0524341883138L461.3207244799978,987.2422279827297L466.52166143999784,995.8352763988078"></path><path class="minor_road" style="fill:none;stroke:#ccc;stroke-linejoin:round;stroke-linecap:round;" d="M550.8364925155529,803.267555766739L538.3933906488874,799.1355914613232L526.6773014755563,787.0540727833286"></path><path class="minor_road" style="fill:none;stroke:#ccc;stroke-linejoin:round;stroke-linecap:round;" d="M534.562592995555,833.9577920567244L533.164491662219,824.645939826034L526.6773014755563,787.0540727833286"></path><path class="minor_road" style="fill:none;stroke:#ccc;stroke-linejoin:round;stroke-linecap:round;" d="M526.6773014755563,787.0540727833286L520.5349762844417,749.1176656857133"></path><path class="minor_road" style="fill:none;stroke:#ccc;stroke-linejoin:round;stroke-linecap:round;" d="M475.4695099733308,834.257208313793L463.4831212088884,761.4687290349975"></path><path class="minor_road" style="fill:none;stroke:#ccc;stroke-linejoin:round;stroke-linecap:round;" d="M669.9360847644439,835.8590850783512L694.1045964799978,827.9245516238734"></path><path class="minor_road" style="fill:none;stroke:#ccc;stroke-linejoin:round;stroke-linecap:round;" d="M533.164491662219,824.645939826034L498.3797304888867,831.4726365907118L475.4695099733308,834.257208313793L440.7406728533333,839.3472827160731"></path><path class="minor_road" style="fill:none;stroke:#ccc;stroke-linejoin:round;stroke-linecap:round;" d="M599.8818872888878,763.2203325694427L591.2789037511084,749.1176656857133"></path><path class="major_road" style="fill:none;stroke:#ccc;stroke-linejoin:round;stroke-linecap:round;" d="M542.3546777599986,900.143436727114L523.3032169244434,894.8288474781439L515.0171363555546,895.3827626062557L438.1029216711104,899.2751379208639"></path><path class="major_road" style="fill:none;stroke:#ccc;stroke-linejoin:round;stroke-linecap:round;" d="M438.1029216711104,897.733158737421L517.3193432177777,882.5678497320041"></path><path class="major_road" style="fill:none;stroke:#ccc;stroke-linejoin:round;stroke-linecap:round;" d="M517.3193432177777,882.5678497320041L534.3575381333321,881.7744022300467L540.760842239999,884.0948616387323"></path><path class="major_road" style="fill:none;stroke:#ccc;stroke-linejoin:round;stroke-linecap:round;" d="M517.3193432177777,882.5678497320041L526.5747740444422,881.3402516748756L533.3695465244418,878.1514898352325L539.4652683377735,872.8668249156326"></path><path class="major_road" style="fill:none;stroke:#ccc;stroke-linejoin:round;stroke-linecap:round;" d="M694.1045964799978,934.7555336281657L634.3777075199978,928.2582935299724L622.9412386133317,930.7583843460307L616.0252973511087,940.4443562859669L607.3104657066651,957.6006190627813"></path><path class="major_road" style="fill:none;stroke:#ccc;stroke-linejoin:round;stroke-linecap:round;" d="M618.523238400001,967.7656095549464L603.3118958933319,966.702702568844L594.5691022222218,963.9481259491295L582.7598062933303,961.552841023542L573.4111687111108,960.6695794956759L567.4459363555525,960.3252571737394L559.8775478044427,960.085728594102"></path><path class="major_road" style="fill:none;stroke:#ccc;stroke-linejoin:round;stroke-linecap:round;" d="M618.523238400001,967.7656095549464L625.0477112888875,971.4333859141916L631.143433102221,975.5353048946708L636.8849692444455,982.0175294969231L650.5584002844425,999.2784809134901"></path><path class="major_road" style="fill:none;stroke:#ccc;stroke-linejoin:round;stroke-linecap:round;" d="M650.5584002844425,999.2784809134901L654.8086283377761,1004.9073680341244"></path><path class="major_road" style="fill:none;stroke:#ccc;stroke-linejoin:round;stroke-linecap:round;" d="M575.8531857066646,949.7859916295856L586.0220427377772,951.1034007109702L596.1815790933324,953.543600955978L607.3104657066651,957.6006190627813L618.523238400001,967.7656095549464"></path><path class="major_road" style="fill:none;stroke:#ccc;stroke-linejoin:round;stroke-linecap:round;" d="M550.3891000888871,949.6811977121979L575.8531857066646,949.7859916295856"></path><path class="major_road" style="fill:none;stroke:#ccc;stroke-linejoin:round;stroke-linecap:round;" d="M542.3546777599986,900.143436727114L540.760842239999,884.0948616387323L539.4652683377735,872.8668249156326L538.7568969955537,867.2827411061153L534.562592995555,833.9577920567244"></path><path class="major_road" style="fill:none;stroke:#ccc;stroke-linejoin:round;stroke-linecap:round;" d="M559.8775478044427,960.085728594102L536.1657491911083,961.9121338156983L514.7375160888878,968.1099315015599"></path><path class="major_road" style="fill:none;stroke:#ccc;stroke-linejoin:round;stroke-linecap:round;" d="M559.8775478044427,960.085728594102L553.5208470755551,956.1185352383181L550.3891000888871,949.6811977121979L548.2919480888868,944.2468824731186L548.1334966044433,934.6657100766897"></path><path class="major_road" style="fill:none;stroke:#ccc;stroke-linejoin:round;stroke-linecap:round;" d="M514.7375160888878,968.1099315015599L466.52166143999784,995.8352763988078"></path><path class="major_road" style="fill:none;stroke:#ccc;stroke-linejoin:round;stroke-linecap:round;" d="M454.33953848888814,1004.9073680341244L457.8441124977762,1002.302511272952L466.52166143999784,995.8352763988078"></path><path class="major_road" style="fill:none;stroke:#ccc;stroke-linejoin:round;stroke-linecap:round;" d="M532.9594367999998,951.9417518144473L539.9592641422223,946.6571440352127L542.8952769422194,942.9145014910027L545.262728533331,939.8455330729485L548.1334966044433,934.6657100766897"></path><path class="major_road" style="fill:none;stroke:#ccc;stroke-linejoin:round;stroke-linecap:round;" d="M457.8441124977762,1002.302511272952L469.6627291022196,989.8770314352587L502.33169692444244,963.9032143652439L509.66706858666475,959.8012883951887L518.3259761777754,955.8340948699042L528.0008374044446,953.259160483256L532.9594367999998,951.9417518144473"></path><path class="major_road" style="fill:none;stroke:#ccc;stroke-linejoin:round;stroke-linecap:round;" d="M550.9949439999964,891.101147197187L552.4582900622208,907.0449112383649L554.9562311111094,916.9255350474268L557.3330033777765,926.7612327197567L560.6604845511101,934.8902689572424L564.0532104533304,941.866561209783L567.2968055466645,945.1301461262628L571.2580926577757,947.6751424530521L575.8531857066646,949.7859916295856"></path><path class="major_road" style="fill:none;stroke:#ccc;stroke-linejoin:round;stroke-linecap:round;" d="M548.1334966044433,934.6657100766897L544.097644088888,908.2425633678213L542.3546777599986,900.143436727114"></path><path class="major_road" style="fill:none;stroke:#ccc;stroke-linejoin:round;stroke-linecap:round;" d="M532.9594367999998,951.9417518144473L541.3946481777766,950.6692545646802L546.0643066311095,950.220137834549L550.3891000888871,949.6811977121979"></path><path class="major_road" style="fill:none;stroke:#ccc;stroke-linejoin:round;stroke-linecap:round;" d="M550.8364925155529,803.267555766739L555.9442227199979,796.8749867426232L560.4088263111098,793.3867673994973L570.2328183466634,785.7216611094773L599.8818872888878,763.2203325694427L623.006483342222,749.1176656857133"></path><path class="major_road" style="fill:none;stroke:#ccc;stroke-linejoin:round;stroke-linecap:round;" d="M534.562592995555,833.9577920567244L535.2616436622211,824.9453564910218L537.8527914666647,816.9060143977404L541.5158169599999,809.0612841136754L545.6169142044437,803.4172645723447L549.4849945599999,799.6595725817606L554.7604969244421,796.4558016816154L560.4088263111098,793.3867673994973"></path><path class="major_road" style="fill:none;stroke:#ccc;stroke-linejoin:round;stroke-linecap:round;" d="M540.760842239999,884.0948616387323L550.9949439999964,891.101147197187"></path><path class="major_road" style="fill:none;stroke:#ccc;stroke-linejoin:round;stroke-linecap:round;" d="M550.8364925155529,803.267555766739L547.4530872888881,810.5733416080475L545.486424746663,816.9958394998685L544.4984331377764,824.5710856541991L544.4891124622227,834.062587746419L546.8752054044417,851.6832119859755L549.1774122666629,863.7646162528545L549.9230663111084,868.1510439794511L550.9949439999964,891.101147197187"></path><path class="major_road" style="fill:none;stroke:#ccc;stroke-linejoin:round;stroke-linecap:round;" d="M557.3330033777765,926.7612327197567L559.9800752355532,941.2827086988837L559.3462692977755,947.0314081804827L556.4195771733321,952.8848966807127L550.5848342755544,957.6605012295768L544.9831082666642,959.9210526878014L536.1657491911083,961.9121338156983"></path></g><g><path class="minor_road" style="fill:none;stroke:#ccc;stroke-linejoin:round;stroke-linecap:round;" d="M893.8932770133324,959.0078498721123L891.3487325866663,971.79267818667L891.9452558222183,975.6101574096829L894.6855344355536,980.8198903100565L898.8052730311083,986.6883203107864L904.4815644444425,988.3500431943685"></path><path class="minor_road" style="fill:none;stroke:#ccc;stroke-linejoin:round;stroke-linecap:round;" d="M899.084893297777,853.5845000743866L950.1062712888888,837.4459906630218"></path><path class="minor_road" style="fill:none;stroke:#ccc;stroke-linejoin:round;stroke-linecap:round;" d="M847.5788401777772,1004.9073680341244L825.0228053333321,980.9695952208713L821.5648347022234,972.002265335992L823.0188600888887,948.7380524035543"></path><path class="minor_road" style="fill:none;stroke:#ccc;stroke-linejoin:round;stroke-linecap:round;" d="M950.1062712888888,753.1149213574827L926.0123249777771,761.2741063917056L882.0000950044432,776.1851789662614L873.1734152533318,779.1494244486094"></path><path class="minor_road" style="fill:none;stroke:#ccc;stroke-linejoin:round;stroke-linecap:round;" d="M822.7299191466645,930.4440017193556L823.0188600888887,948.7380524035543"></path><path class="minor_road" style="fill:none;stroke:#ccc;stroke-linejoin:round;stroke-linecap:round;" d="M862.193659448887,749.1176656857133L873.1734152533318,779.1494244486094L899.084893297777,853.5845000743866L811.6289945599983,878.7353477478027L814.1548976355552,885.9961406970397L815.7394124799976,890.4424368944019"></path><path class="minor_road" style="fill:none;stroke:#ccc;stroke-linejoin:round;stroke-linecap:round;" d="M926.0123249777771,761.2741063917056L921.9112277333315,749.1176656857133"></path><path class="minor_road" style="fill:none;stroke:#ccc;stroke-linejoin:round;stroke-linecap:round;" d="M811.6289945599983,878.7353477478027L781.5791365688874,799.1805041292682L761.1668571022219,749.1176656857133"></path><path class="minor_road" style="fill:none;stroke:#ccc;stroke-linejoin:round;stroke-linecap:round;" d="M694.1045964799978,827.9245516238734L781.5791365688874,799.1805041292682"></path><path class="major_road" style="fill:none;stroke:#ccc;stroke-linejoin:round;stroke-linecap:round;" d="M950.1062712888888,964.0678901737556L893.8932770133324,959.0078498721123L823.0188600888887,948.7380524035543L694.1045964799978,934.7555336281657"></path><path class="minor_road" style="fill:none;stroke:#ccc;stroke-linejoin:round;stroke-linecap:round;" d="M815.7394124799976,890.4424368944019L820.4183916088859,908.8863013032824L822.7299191466645,930.4440017193556"></path></g><path class="waypath" style="fill:none;stroke:orange; stroke-width:5;stroke-linejoin:round; stroke-linecap:round}" d="M210.25900771555462,476.47534888237715L203.6879314488906,417.17259324900806L286.2225134933324,408.02486150804907L288.589965084444,429.404483795166L309.328468195552,427.09884147625417L409.9638021688879,415.92993974033743L493.72871338666664,406.64746057987213L492.5822702933292,396.34688828047365L502.58335516444095,395.2389769591391L498.9576123733332,362.5405402854085L513.8054485333341,360.8936368590221L509.52725845333225,325.545004745014L521.1781028977766,323.50882213935256L525.2885208177777,360.5642561260611L587.4387854222205,353.67720078956336L596.3120685511076,433.67141720373183L556.7178387911099,438.1030364362523L545.0297116444435,439.6151761272922L210.25900771555462,476.47534888237715"></path><path class="center" style="fill:none; stroke:red; stroke-width:1;stroke-linejoin:round; stroke-linecap:round}" d="M400,400m0,4.5a4.5,4.5 0 1,1 0,-9a4.5,4.5 0 1,1 0,9z"></path></svg>
