<svg xmlns="http://www.w3.org/2000/svg" version="1.1" width="800" height="800"><g><path class="minor_road" style="fill:none;stroke:#ccc;stroke-linejoin:round;stroke-linecap:round;" d="M89.06226346667972,50.54816187918186L-166.94313961241278,1.1378075182437897"></path></g><g><path class="path" style="fill:none;stroke:#ccc;stroke-linejoin:round;stroke-linecap:round;" d="M284.25212268088944,89.06090345978737L243.35299834312173,139.10587126016617"></path><path class="minor_road" style="fill:none;stroke:#ccc;stroke-linejoin:round;stroke-linecap:round;" d="M345.07512308625155,103.09601271897554L337.90938771911897,100.7847705706954L284.25212268088944,89.06090345978737L212.24431160886888,74.33122004568577L89.06226346667972,50.54816187918186"></path><path class="minor_road" style="fill:none;stroke:#ccc;stroke-linejoin:round;stroke-linecap:round;" d="M337.90938771911897,100.7847705706954L320.55801810490084,-20.525641158223152L308.3814875591197,-115.43056870251894"></path></g><g><path class="minor_road" style="fill:none;stroke:#ccc;stroke-linejoin:round;stroke-linecap:round;" d="M456.55040273064515,139.10587126016617L345.07512308625155,103.09601271897554"></path></g><g></g><g><path class="path" style="fill:none;stroke:#ccc;stroke-linejoin:round;stroke-linecap:round;" d="M89.06226346667972,327.8488750308752L32.541686897777254,396.9822287335992"></path></g><g><path class="path" style="fill:none;stroke:#ccc;stroke-linejoin:round;stroke-linecap:round;" d="M243.35299834312173,139.10587126016617L89.06226346667972,327.8488750308752"></path></g><g><path class="minor_road" style="fill:none;stroke:#ccc;stroke-linejoin:round;stroke-linecap:round;" d="M601.0879827057943,185.773750372231L456.55040273064515,139.10587126016617"></path><path class="rail" style="fill:none;stroke:#ccc;stroke-linejoin:round;stroke-linecap:round;" d="M601.0879827057943,378.03732741624117L557.004915598256,396.9822287335992"></path></g><g><path class="minor_road" style="fill:none;stroke:#ccc;stroke-linejoin:round;stroke-linecap:round;" d="M857.0933857849159,331.64504446834326L707.5226410097966,220.15491063147783L601.0879827057943,185.773750372231"></path><path class="rail" style="fill:none;stroke:#ccc;stroke-linejoin:round;stroke-linecap:round;" d="M650.181844991981,356.9248917400837L601.0879827057943,378.03732741624117"></path></g><g><path class="path" style="fill:none;stroke:#ccc;stroke-linejoin:round;stroke-linecap:round;" d="M32.541686897777254,396.9822287335992L3.796723484440008,432.1536241695285L-166.94313961241278,496.1135330721736"></path></g><g><path class="rail" style="fill:none;stroke:#ccc;stroke-linejoin:round;stroke-linecap:round;" d="M345.07512308625155,480.9408746957779L340.6533946026466,482.4617333188653L283.18583739738096,500.60425593703985L240.981818481785,521.2376258224249L194.69907194311963,571.7492320686579L177.50428967823973,651.5162798687816"></path></g><g><path class="rail" style="fill:none;stroke:#ccc;stroke-linejoin:round;stroke-linecap:round;" d="M557.004915598256,396.9822287335992L428.1335270968848,452.37986072152853L345.07512308625155,480.9408746957779"></path></g><g></g><g></g><g><path class="rail" style="fill:none;stroke:#ccc;stroke-linejoin:round;stroke-linecap:round;" d="M177.50428967823973,651.5162798687816L177.21348460088484,652.8575053066015L186.45959475202835,759.903955258429L212.1772027449042,874.039501465857L217.47134646042832,906.0611195862293"></path></g><g></g><g></g><path class="waypath" style="fill:none;stroke:orange; stroke-width:5;stroke-linejoin:round; stroke-linecap:round}" d="M739.0488940088544,277.6124752834439L703.033803662227,319.526042021811L407.00914801779436,422.5135265365243L374.0512392533419,455.5652827396989L256.01420401775977,495.5626710578799L217.0164974933432,502.5083223134279L82.05311544888536,609.5670422613621L61.02567139553139,514.6033336371183L199.0462350222515,467.5405517667532L453.0160025600053,190.55190663784742L739.0488940088544,277.6124752834439"></path><path class="center" style="fill:none; stroke:red; stroke-width:1;stroke-linejoin:round; stroke-linecap:round}" d="M400,400m0,4.5a4.5,4.5 0 1,1 0,-9a4.5,4.5 0 1,1 0,9z"></path></svg>
