<svg xmlns="http://www.w3.org/2000/svg" version="1.1" width="800" height="800"><g></g><g></g><g></g><g><path class="minor_road" style="fill:none;stroke:#ccc;stroke-linejoin:round;stroke-linecap:round;" d="M777.479903459549,18.87908771634102L748.2204387554666,-47.654945090413094"></path></g><g><path class="minor_road" style="fill:none;stroke:#ccc;stroke-linejoin:round;stroke-linecap:round;" d="M863.0959008426289,213.57113449275494L777.479903459549,18.87908771634102"></path></g><g><path class="rail" style="fill:none;stroke:#ccc;stroke-linejoin:round;stroke-linecap:round;" d="M-246.42240420985036,462.8454245477915L-204.75525620626286,451.75646694004536L-145.1327588125132,435.27870504558086L-95.83011339389486,437.4342263787985"></path></g><g></g><g></g><g></g><g><path class="minor_road" style="fill:none;stroke:#ccc;stroke-linejoin:round;stroke-linecap:round;" d="M975.0185729137738,468.1144752651453L863.0959008426289,213.57113449275494"></path></g><g></g><g></g><g></g><g><path class="major_road" style="fill:none;stroke:#ccc;stroke-linejoin:round;stroke-linecap:round;" d="M552.2476427946822,722.6572226583958L615.792280462163,702.1558716446161L777.479903459549,653.9681016206741"></path></g><g><path class="minor_road" style="fill:none;stroke:#ccc;stroke-linejoin:round;stroke-linecap:round;" d="M1024.3957837368362,580.3691454231739L975.0185729137738,468.1144752651453"></path><path class="major_road" style="fill:none;stroke:#ccc;stroke-linejoin:round;stroke-linecap:round;" d="M1033.4927630790626,721.5076142847538L1029.689927452302,722.6572226583958"></path><path class="major_road" style="fill:none;stroke:#ccc;stroke-linejoin:round;stroke-linecap:round;" d="M777.479903459549,653.9681016206741L1024.3957837368362,580.3691454231739L1033.4927630790626,577.7825231850147"></path></g><g><path class="minor_road" style="fill:none;stroke:#ccc;stroke-linejoin:round;stroke-linecap:round;" d="M9.590455409779679,921.9464397728443L2.357611178595107,900.4152704179287"></path><path class="major_road" style="fill:none;stroke:#ccc;stroke-linejoin:round;stroke-linecap:round;" d="M-225.61865636979928,977.1754265725613L2.357611178595107,900.4152704179287L9.590455409779679,897.996306732297"></path></g><g><path class="minor_road" style="fill:none;stroke:#ccc;stroke-linejoin:round;stroke-linecap:round;" d="M28.127414954593405,977.1754265725613L9.590455409779679,921.9464397728443"></path><path class="major_road" style="fill:none;stroke:#ccc;stroke-linejoin:round;stroke-linecap:round;" d="M265.4840103822062,951.2853456437588L178.898662741296,977.1754265725613"></path><path class="major_road" style="fill:none;stroke:#ccc;stroke-linejoin:round;stroke-linecap:round;" d="M9.590455409779679,897.996306732297L35.18130221503088,889.4461079835892L265.4840103822062,815.1527560055256"></path></g><g><path class="major_road" style="fill:none;stroke:#ccc;stroke-linejoin:round;stroke-linecap:round;" d="M521.4819569208194,874.6928222328424L265.4840103822062,951.2853456437588"></path><path class="major_road" style="fill:none;stroke:#ccc;stroke-linejoin:round;stroke-linecap:round;" d="M265.4840103822062,815.1527560055256L521.4819569208194,732.5725942701101"></path></g><g><path class="major_road" style="fill:none;stroke:#ccc;stroke-linejoin:round;stroke-linecap:round;" d="M777.479903459549,798.1002451330423L521.4819569208194,874.6928222328424"></path><path class="major_road" style="fill:none;stroke:#ccc;stroke-linejoin:round;stroke-linecap:round;" d="M521.4819569208194,732.5725942701101L552.2476427946822,722.6572226583958"></path></g><g><path class="minor_road" style="fill:none;stroke:#ccc;stroke-linejoin:round;stroke-linecap:round;" d="M1033.4927630790626,951.0458443909883L923.3000083910301,977.1754265725613"></path><path class="major_road" style="fill:none;stroke:#ccc;stroke-linejoin:round;stroke-linecap:round;" d="M1029.689927452302,722.6572226583958L777.479903459549,798.1002451330423"></path></g><path class="waypath" style="fill:none;stroke:orange; stroke-width:5;stroke-linejoin:round; stroke-linecap:round}" d="M262.2031325866701,397.8444779217243L282.78318421327276,465.8631536066532L537.7968674133299,401.9160195887089L521.2433476266451,334.1368066519499L262.2031325866701,397.8444779217243"></path><path class="center" style="fill:none; stroke:red; stroke-width:1;stroke-linejoin:round; stroke-linecap:round}" d="M400,400m0,4.5a4.5,4.5 0 1,1 0,-9a4.5,4.5 0 1,1 0,9z"></path></svg>
