<svg xmlns="http://www.w3.org/2000/svg" version="1.1" width="800" height="800"><g><path class="minor_road" style="fill:none;stroke:#ccc;stroke-linejoin:round;stroke-linecap:round;" d="M71.68852423111093,78.9788221642375L65.90970538666443,62.93065823242068"></path><path class="minor_road" style="fill:none;stroke:#ccc;stroke-linejoin:round;stroke-linecap:round;" d="M8.046951537777204,-24.73559781908989L5.996402915552608,-43.8377770408988L8.084234239999205,-59.7662501744926L14.422293617782998,-77.43129704892635L24.451340515559423,-97.19221048802137L33.95842958222056,-110.72545036301017L50.62379747554951,-126.7138441875577L66.35709781333571,-140.48662538453937L78.88408576000074,-149.04970589280128L110.5743826488906,-162.46320804208517L120.49158144000103,-166.77469228953123"></path><path class="minor_road" style="fill:none;stroke:#ccc;stroke-linejoin:round;stroke-linecap:round;" d="M-107.45485994666524,78.9788221642375L-104.50952647110535,66.2840066999197L-100.48299463110743,37.241600066423416"></path><path class="minor_road" style="fill:none;stroke:#ccc;stroke-linejoin:round;stroke-linecap:round;" d="M8.084234239999205,-59.7662501744926L-13.465167644440953,-62.760325103998184"></path></g><g><path class="minor_road" style="fill:none;stroke:#ccc;stroke-linejoin:round;stroke-linecap:round;" d="M151.5853550933316,78.9788221642375L203.5201592888916,58.25992218777537"></path><path class="minor_road" style="fill:none;stroke:#ccc;stroke-linejoin:round;stroke-linecap:round;" d="M120.49158144000103,-166.77469228953123L144.38979356444906,-177.25399707257748"></path><path class="minor_road" style="fill:none;stroke:#ccc;stroke-linejoin:round;stroke-linecap:round;" d="M146.85045191111567,-177.25399707257748L167.61691704888653,-117.37230958789587L180.55401472000085,-99.2281842045486L209.03799921777681,-23.0589181445539"></path></g><g><path class="minor_road" style="fill:none;stroke:#ccc;stroke-linejoin:round;stroke-linecap:round;" d="M551.4050537244402,-11.20240057259798L546.036344604443,-36.951409947127104L534.9633820444506,-79.7067954428494"></path><path class="minor_road" style="fill:none;stroke:#ccc;stroke-linejoin:round;stroke-linecap:round;" d="M524.2632465066708,-5.992720227688551L551.4050537244402,-11.20240057259798L632.4949310577795,-26.951210398226976"></path></g><g><path class="minor_road" style="fill:none;stroke:#ccc;stroke-linejoin:round;stroke-linecap:round;" d="M728.1623449600011,-45.51445798203349L861.448005404447,-82.34158329293132L888.4779645155577,-85.8147131241858"></path><path class="minor_road" style="fill:none;stroke:#ccc;stroke-linejoin:round;stroke-linecap:round;" d="M702.1763015111064,-177.25399707257748L728.1623449600011,-45.51445798203349L808.804829866669,78.9788221642375"></path><path class="minor_road" style="fill:none;stroke:#ccc;stroke-linejoin:round;stroke-linecap:round;" d="M632.4949310577795,-26.951210398226976L728.1623449600011,-45.51445798203349"></path></g><g><path class="minor_road" style="fill:none;stroke:#ccc;stroke-linejoin:round;stroke-linecap:round;" d="M120.49158144000103,213.95069321617484L81.75485383110936,106.82356183230877L71.68852423111093,78.9788221642375"></path><path class="minor_road" style="fill:none;stroke:#ccc;stroke-linejoin:round;stroke-linecap:round;" d="M81.75485383110936,106.82356183230877L120.49158144000103,91.3742259144783"></path><path class="minor_road" style="fill:none;stroke:#ccc;stroke-linejoin:round;stroke-linecap:round;" d="M-135.5287347199992,103.64986174926162L-122.25609272889415,112.81167417019606"></path><path class="minor_road" style="fill:none;stroke:#ccc;stroke-linejoin:round;stroke-linecap:round;" d="M-122.25609272889415,112.81167417019606L-103.98756863999733,133.65029488131404L-86.83752561778238,163.29140901565552L-24.83639182222396,335.1493556685746"></path><path class="minor_road" style="fill:none;stroke:#ccc;stroke-linejoin:round;stroke-linecap:round;" d="M-122.25609272889415,112.81167417019606L-110.47475882666185,91.85327522456646L-107.45485994666524,78.9788221642375"></path></g><g><path class="minor_road" style="fill:none;stroke:#ccc;stroke-linejoin:round;stroke-linecap:round;" d="M279.87513344000035,335.1493556685746L290.23972465778206,331.1373532190919L346.5366050133307,309.28091160953045L328.52905984000245,263.2326253168285"></path><path class="minor_road" style="fill:none;stroke:#ccc;stroke-linejoin:round;stroke-linecap:round;" d="M164.3360392533359,335.1493556685746L120.49158144000103,213.95069321617484"></path><path class="minor_road" style="fill:none;stroke:#ccc;stroke-linejoin:round;stroke-linecap:round;" d="M120.49158144000103,91.3742259144783L151.5853550933316,78.9788221642375"></path></g><g><path class="minor_road" style="fill:none;stroke:#ccc;stroke-linejoin:round;stroke-linecap:round;" d="M557.705830400002,335.1493556685746L538.5052387555552,290.23884685337543L459.5404754488918,322.2750173546374"></path></g><g><path class="minor_road" style="fill:none;stroke:#ccc;stroke-linejoin:round;stroke-linecap:round;" d="M808.804829866669,78.9788221642375L888.4779645155577,201.97451158240438"></path><path class="minor_road" style="fill:none;stroke:#ccc;stroke-linejoin:round;stroke-linecap:round;" d="M888.4779645155577,278.68186397105455L803.2869899377765,335.1493556685746"></path></g><g><path class="path" style="fill:none;stroke:#ccc;stroke-linejoin:round;stroke-linecap:round;" d="M-60.70235135999974,493.7726814188063L-135.5287347199992,553.7726572453976"></path><path class="minor_road" style="fill:none;stroke:#ccc;stroke-linejoin:round;stroke-linecap:round;" d="M19.82828544000222,458.98221588507295L-60.70235135999974,493.7726814188063"></path><path class="minor_road" style="fill:none;stroke:#ccc;stroke-linejoin:round;stroke-linecap:round;" d="M61.84589084444451,591.377365283668L19.82828544000222,458.98221588507295"></path><path class="minor_road" style="fill:none;stroke:#ccc;stroke-linejoin:round;stroke-linecap:round;" d="M-24.83639182222396,335.1493556685746L19.82828544000222,458.98221588507295"></path><path class="minor_road" style="fill:none;stroke:#ccc;stroke-linejoin:round;stroke-linecap:round;" d="M-60.70235135999974,493.7726814188063L-71.62618311111146,490.5391460545361L-126.87914780444407,434.37137783691287L-135.5287347199992,416.88629208505154"></path></g><g><path class="minor_road" style="fill:none;stroke:#ccc;stroke-linejoin:round;stroke-linecap:round;" d="M178.98814122666954,375.6885115019977L220.52107150222582,358.2033881470561L279.87513344000035,335.1493556685746"></path><path class="minor_road" style="fill:none;stroke:#ccc;stroke-linejoin:round;stroke-linecap:round;" d="M295.4220202666693,591.377365283668L263.5453098666694,507.9044241271913L233.90556160000415,431.55699836462736L219.58900394666853,409.7605176232755L193.75209130666917,391.1975670196116L178.98814122666954,375.6885115019977L164.3360392533359,335.1493556685746"></path></g><g><path class="minor_road" style="fill:none;stroke:#ccc;stroke-linejoin:round;stroke-linecap:round;" d="M439.8552086755517,591.377365283668L552.8963618133348,551.9163725376129L603.5262714311102,527.2457380965352L618.5139177244419,511.1978376917541L621.4965339022237,492.2756743505597L615.4940188444452,470.23972076550126L593.7582034488951,419.40127087011933L557.705830400002,335.1493556685746"></path><path class="minor_road" style="fill:none;stroke:#ccc;stroke-linejoin:round;stroke-linecap:round;" d="M568.2941178311085,591.377365283668L552.8963618133348,551.9163725376129"></path><path class="minor_road" style="fill:none;stroke:#ccc;stroke-linejoin:round;stroke-linecap:round;" d="M593.7582034488951,419.40127087011933L632.4949310577795,404.4910361468792"></path></g><g><path class="minor_road" style="fill:none;stroke:#ccc;stroke-linejoin:round;stroke-linecap:round;" d="M632.4949310577795,404.4910361468792L702.5118458311117,377.6046887114644"></path><path class="minor_road" style="fill:none;stroke:#ccc;stroke-linejoin:round;stroke-linecap:round;" d="M803.2869899377765,335.1493556685746L802.8395975111125,335.5086394324899L762.4251483022235,353.7123443931341L702.5118458311117,377.6046887114644"></path><path class="minor_road" style="fill:none;stroke:#ccc;stroke-linejoin:round;stroke-linecap:round;" d="M888.4779645155577,538.2038139142096L882.5127321600012,518.2038252204657"></path></g><g><path class="minor_road" style="fill:none;stroke:#ccc;stroke-linejoin:round;stroke-linecap:round;" d="M100.32163953778218,712.7539914473891L61.84589084444451,591.377365283668"></path><path class="minor_road" style="fill:none;stroke:#ccc;stroke-linejoin:round;stroke-linecap:round;" d="M120.49158144000103,766.7655183821917L100.32163953778218,712.7539914473891"></path><path class="minor_road" style="fill:none;stroke:#ccc;stroke-linejoin:round;stroke-linecap:round;" d="M120.49158144000103,705.4486547708511L100.32163953778218,712.7539914473891"></path></g><g><path class="minor_road" style="fill:none;stroke:#ccc;stroke-linejoin:round;stroke-linecap:round;" d="M376.47461489777925,765.6876840852201L370.50938254222274,766.4062402918935L349.6683519999933,759.8793540522456L339.30376078222616,752.9931879676878L295.7575645866673,646.5268513783813L303.8106282666704,624.491022311151L302.9158434133278,611.0779002569616L295.4220202666693,591.377365283668"></path><path class="minor_road" style="fill:none;stroke:#ccc;stroke-linejoin:round;stroke-linecap:round;" d="M303.8106282666704,624.491022311151L339.49017429333617,621.2575024068356L371.51601550222404,615.2096215970814L376.47461489777925,613.5329811125994"></path><path class="minor_road" style="fill:none;stroke:#ccc;stroke-linejoin:round;stroke-linecap:round;" d="M150.6532875377743,847.6029699146748L120.49158144000103,766.7655183821917"></path><path class="minor_road" style="fill:none;stroke:#ccc;stroke-linejoin:round;stroke-linecap:round;" d="M295.7575645866673,646.5268513783813L263.7690060800014,653.7723238952458L120.49158144000103,705.4486547708511"></path></g><g><path class="minor_road" style="fill:none;stroke:#ccc;stroke-linejoin:round;stroke-linecap:round;" d="M632.4949310577795,670.9578584581614L603.8618157511155,682.3949155323207L388.7779066311123,764.1308122426271L376.47461489777925,765.6876840852201"></path><path class="minor_road" style="fill:none;stroke:#ccc;stroke-linejoin:round;stroke-linecap:round;" d="M376.47461489777925,613.5329811125994L439.8552086755517,591.377365283668"></path><path class="minor_road" style="fill:none;stroke:#ccc;stroke-linejoin:round;stroke-linecap:round;" d="M603.8618157511155,682.3949155323207L568.2941178311085,591.377365283668"></path></g><g><path class="minor_road" style="fill:none;stroke:#ccc;stroke-linejoin:round;stroke-linecap:round;" d="M781.9612842666684,770.358299087733L732.338007608887,644.4909331314266L724.5086401422232,636.5867785103619L715.747205120002,637.664617922157L632.4949310577795,670.9578584581614"></path><path class="minor_road" style="fill:none;stroke:#ccc;stroke-linejoin:round;stroke-linecap:round;" d="M888.4779645155577,600.299493830651L881.9162089244419,602.2156552746892L818.6101805511134,626.7664620019495"></path></g><path class="waypath" style="fill:none;stroke:orange; stroke-width:5;stroke-linejoin:round; stroke-linecap:round}" d="M223.61553578666644,361.7363420575857L285.35569066667085,521.3774770982563L348.9599806577753,496.7666953280568L371.21775388444803,554.3714587390423L404.0265318399979,541.7367445267737L409.09697934221913,554.8504999093711L420.31907271111413,550.4792488180101L423.30168888888875,558.2037879526615L466.8851677866696,541.317583296448L459.80145436443854,523.1140034496784L470.83713422222354,518.8625077195466L475.19921038222674,530.1199879199266L516.1729001244457,514.2517299093306L520.7586724977809,526.1678943298757L576.3844642133336,504.67089043185115L562.1797546666712,467.8445073515177L568.5178140444477,465.38941337540746L510.1331023644452,314.49053080007434L446.5288123733335,339.1014769002795L437.46911573333637,315.62826357781887L403.4300086044459,328.80200823768973L369.76372849777545,241.7952951900661L346.7975839288847,250.65765718370676L368.1605723022294,305.807831607759L223.61553578666644,361.7363420575857"></path><path class="center" style="fill:none; stroke:red; stroke-width:1;stroke-linejoin:round; stroke-linecap:round}" d="M400,400m0,4.5a4.5,4.5 0 1,1 0,-9a4.5,4.5 0 1,1 0,9z"></path></svg>
