<svg xmlns="http://www.w3.org/2000/svg" version="1.1" width="800" height="800"><g><path class="minor_road" style="fill:none;stroke:#ccc;stroke-linejoin:round;stroke-linecap:round;" d="M56.603942912013736,-243.38883151859045L80.21134995913599,14.49894181638956"></path></g><g></g><g></g><g><path class="minor_road" style="fill:none;stroke:#ccc;stroke-linejoin:round;stroke-linecap:round;" d="M704.3088720782252,14.49894181638956L641.2116268373502,-243.38883151859045"></path></g><g><path class="minor_road" style="fill:none;stroke:#ccc;stroke-linejoin:round;stroke-linecap:round;" d="M80.21134995913599,14.49894181638956L97.18989255113411,199.92608021199703"></path></g><g><path class="minor_road" style="fill:none;stroke:#ccc;stroke-linejoin:round;stroke-linecap:round;" d="M97.18989255113411,199.92608021199703L103.5130388479738,269.03477520495653"></path></g><g></g><g><path class="path" style="fill:none;stroke:#ccc;stroke-linejoin:round;stroke-linecap:round;" d="M781.4393264355604,269.03477520495653L751.4789469297684,207.27374474704266"></path><path class="minor_road" style="fill:none;stroke:#ccc;stroke-linejoin:round;stroke-linecap:round;" d="M751.4789469297684,207.27374474704266L704.3088720782252,14.49894181638956"></path></g><g></g><g><path class="minor_road" style="fill:none;stroke:#ccc;stroke-linejoin:round;stroke-linecap:round;" d="M103.5130388479738,269.03477520495653L127.12044589512516,526.9201292693615"></path></g><g></g><g><path class="path" style="fill:none;stroke:#ccc;stroke-linejoin:round;stroke-linecap:round;" d="M865.1539060053474,509.47251822054386L848.3394073031086,406.95273204147816L781.4393264355604,269.03477520495653"></path><path class="path" style="fill:none;stroke:#ccc;stroke-linejoin:round;stroke-linecap:round;" d="M848.3394073031086,406.95273204147816L865.1539060053474,404.643132686615"></path></g><g></g><g><path class="minor_road" style="fill:none;stroke:#ccc;stroke-linejoin:round;stroke-linecap:round;" d="M127.12044589512516,526.9201292693615L150.42213478399208,781.453574873507"></path></g><g><path class="major_road" style="fill:none;stroke:#ccc;stroke-linejoin:round;stroke-linecap:round;" d="M468.1080404195527,781.453574873507L609.2006987093191,763.6111420914531"></path></g><g><path class="major_road" style="fill:none;stroke:#ccc;stroke-linejoin:round;stroke-linecap:round;" d="M609.2006987093191,763.6111420914531L865.1539060053474,731.229086227715"></path></g><g><path class="minor_road" style="fill:none;stroke:#ccc;stroke-linejoin:round;stroke-linecap:round;" d="M-128.46739091910422,1035.9858344122767L-135.58093050308526,862.5641716718674"></path><path class="major_road" style="fill:none;stroke:#ccc;stroke-linejoin:round;stroke-linecap:round;" d="M-158.83042360888794,866.1302588805556L-135.58093050308526,862.5641716718674L97.18989255113411,829.2966354861856"></path></g><g><path class="minor_road" style="fill:none;stroke:#ccc;stroke-linejoin:round;stroke-linecap:round;" d="M150.42213478399208,781.453574873507L154.0534699804557,821.1712161824107"></path><path class="major_road" style="fill:none;stroke:#ccc;stroke-linejoin:round;stroke-linecap:round;" d="M97.18989255113411,829.2966354861856L154.0534699804557,821.1712161824107L353.20275217067683,795.9812120124698"></path></g><g><path class="major_road" style="fill:none;stroke:#ccc;stroke-linejoin:round;stroke-linecap:round;" d="M353.20275217067683,795.9812120124698L468.1080404195527,781.453574873507"></path></g><g></g><path class="waypath" style="fill:none;stroke:orange; stroke-width:5;stroke-linejoin:round; stroke-linecap:round}" d="M241.99590798220015,596.9737873375416L270.9272849066765,590.6313860341907L277.71273671110976,632.0364830419421L344.59790449778666,621.1467062309384L337.5887564800214,578.5449211969972L367.7877452800167,576.5105654448271L357.72141568001825,516.6765393614769L437.28270222223364,503.03437223285437L457.6390576355625,627.6087718233466L551.3677710222255,612.2912817448378L536.9766479644459,540.0118173211813L633.762542933342,524.095962151885L613.5553183289012,400.4786734730005L517.664208213333,416.15522798895836L502.0800386844494,310.9666576683521L325.58372636444983,339.8067750260234L298.96387697779574,167.9625312536955L166.31202247113106,177.29670321196318L241.99590798220015,596.9737873375416"></path><path class="center" style="fill:none; stroke:red; stroke-width:1;stroke-linejoin:round; stroke-linecap:round}" d="M400,400m0,4.5a4.5,4.5 0 1,1 0,-9a4.5,4.5 0 1,1 0,9z"></path></svg>
