<svg xmlns="http://www.w3.org/2000/svg" version="1.1" width="800" height="800"><g><path class="path" style="fill:none;stroke:#ccc;stroke-linejoin:round;stroke-linecap:round;" d="M-6.4411065457970835,86.0363858640194L-2.4220312462130096,4.040161810815334L31.602162801777013,-22.00755923986435L167.57217780622886,-16.20983962714672"></path></g><g><path class="path" style="fill:none;stroke:#ccc;stroke-linejoin:round;stroke-linecap:round;" d="M167.57217780622886,-16.20983962714672L265.5734888675506,-12.03260100632906L367.84739760358934,-112.77856278419495"></path></g><g><path class="minor_road" style="fill:none;stroke:#ccc;stroke-linejoin:round;stroke-linecap:round;" d="M436.84276633599075,-112.77856278419495L432.44340747376555,141.7567769140005"></path></g><g></g><g></g><g><path class="minor_road" style="fill:none;stroke:#ccc;stroke-linejoin:round;stroke-linecap:round;" d="M219.55917778488947,193.9360747113824L423.5924939661927,196.4568124487996"></path></g><g><path class="minor_road" style="fill:none;stroke:#ccc;stroke-linejoin:round;stroke-linecap:round;" d="M423.5924939661927,196.4568124487996L431.48897029689397,196.55284056067467L679.5904405048932,199.5417151749134"></path><path class="minor_road" style="fill:none;stroke:#ccc;stroke-linejoin:round;stroke-linecap:round;" d="M432.44340747376555,141.7567769140005L431.48897029689397,196.55284056067467"></path></g><g><path class="minor_road" style="fill:none;stroke:#ccc;stroke-linejoin:round;stroke-linecap:round;" d="M679.5904405048932,199.5417151749134L715.5682481493277,199.9738416299224"></path></g><g></g><g></g><g></g><g></g><g></g><g></g><g></g><g></g><path class="waypath" style="fill:none;stroke:orange; stroke-width:5;stroke-linejoin:round; stroke-linecap:round}" d="M704.4505463466339,576.210626065731L83.02246570665739,552.4438309744L93.75988394665183,223.7888043820858L716.9775342933426,247.55574275553226L704.4505463466339,576.210626065731"></path><path class="center" style="fill:none; stroke:red; stroke-width:1;stroke-linejoin:round; stroke-linecap:round}" d="M400,400m0,4.5a4.5,4.5 0 1,1 0,-9a4.5,4.5 0 1,1 0,9z"></path></svg>
