<svg xmlns="http://www.w3.org/2000/svg" version="1.1" width="800" height="800"><g></g><g><path class="path" style="fill:none;stroke:#ccc;stroke-linejoin:round;stroke-linecap:round;" d="M465.43859894044726,104.94741248339415L310.30527499378513,-0.6904211044311523L296.9356979768927,-14.627427846193314"></path></g><g><path class="path" style="fill:none;stroke:#ccc;stroke-linejoin:round;stroke-linecap:round;" d="M627.3350050702284,243.26063925027847L579.0389926115604,182.3029871582985L465.43859894044726,104.94741248339415"></path><path class="path" style="fill:none;stroke:#ccc;stroke-linejoin:round;stroke-linecap:round;" d="M641.644106183121,243.26063925027847L721.3843496960035,199.26501890271902"></path></g><g><path class="path" style="fill:none;stroke:#ccc;stroke-linejoin:round;stroke-linecap:round;" d="M721.3843496960035,199.26501890271902L737.1847588977762,190.54992043972015L969.2173844480058,70.50710035860538L977.3897527751251,64.62499538064003"></path></g><g></g><g></g><g><path class="path" style="fill:none;stroke:#ccc;stroke-linejoin:round;stroke-linecap:round;" d="M670.1877430044478,497.7983143478632L631.6896246897813,248.7585887387395L627.3350050702284,243.26063925027847"></path><path class="path" style="fill:none;stroke:#ccc;stroke-linejoin:round;stroke-linecap:round;" d="M631.6896246897813,248.7585887387395L641.644106183121,243.26063925027847"></path></g><g></g><g><path class="path" style="fill:none;stroke:#ccc;stroke-linejoin:round;stroke-linecap:round;" d="M209.42573932089,586.7733805924654L-46.579663758217066,621.3454124704003"></path></g><g><path class="path" style="fill:none;stroke:#ccc;stroke-linejoin:round;stroke-linecap:round;" d="M465.43859894044726,550.9168785139918L420.3563554133434,558.2874503284693L209.42573932089,586.7733805924654"></path><path class="path" style="fill:none;stroke:#ccc;stroke-linejoin:round;stroke-linecap:round;" d="M420.3563554133434,558.2874503284693L463.9994866346751,752.3348010256886"></path></g><g><path class="path" style="fill:none;stroke:#ccc;stroke-linejoin:round;stroke-linecap:round;" d="M673.1554461013366,516.9570159986615L465.43859894044726,550.9168785139918"></path><path class="path" style="fill:none;stroke:#ccc;stroke-linejoin:round;stroke-linecap:round;" d="M615.7624543004495,752.3348010256886L661.761852302232,638.1992700397968L673.1554461013366,516.9570159986615L670.1877430044478,497.7983143478632"></path><path class="path" style="fill:none;stroke:#ccc;stroke-linejoin:round;stroke-linecap:round;" d="M661.761852302232,638.1992700397968L721.3843496960035,632.7373723462224"></path></g><g><path class="path" style="fill:none;stroke:#ccc;stroke-linejoin:round;stroke-linecap:round;" d="M721.3843496960035,632.7373723462224L977.3897527751251,609.3292330279946"></path></g><g></g><g><path class="path" style="fill:none;stroke:#ccc;stroke-linejoin:round;stroke-linecap:round;" d="M463.9994866346751,752.3348010256886L465.43859894044726,758.7450141459703"></path></g><g><path class="path" style="fill:none;stroke:#ccc;stroke-linejoin:round;stroke-linecap:round;" d="M499.3956841244435,909.744928330183L606.367213340447,775.6468458101153L615.7624543004495,752.3348010256886"></path><path class="path" style="fill:none;stroke:#ccc;stroke-linejoin:round;stroke-linecap:round;" d="M465.43859894044726,758.7450141459703L499.3956841244435,909.744928330183L521.235891086224,1006.4739643186331"></path></g><g></g><path class="waypath" style="fill:none;stroke:orange; stroke-width:5;stroke-linejoin:round; stroke-linecap:round}" d="M198.8971042133344,317.65097027271986L226.93369628444634,531.446079775691L601.1028957866729,482.34890531003475L573.0663037155682,268.5536032617092L198.8971042133344,317.65097027271986"></path><path class="center" style="fill:none; stroke:red; stroke-width:1;stroke-linejoin:round; stroke-linecap:round}" d="M400,400m0,4.5a4.5,4.5 0 1,1 0,-9a4.5,4.5 0 1,1 0,9z"></path></svg>
