<svg xmlns="http://www.w3.org/2000/svg" version="1.1" width="800" height="800"><g></g><g><path class="minor_road" style="fill:none;stroke:#ccc;stroke-linejoin:round;stroke-linecap:round;" d="M338.5581067377934,16.719354882836342L286.58601984000416,-28.203717302531004"></path></g><g><path class="minor_road" style="fill:none;stroke:#ccc;stroke-linejoin:round;stroke-linecap:round;" d="M585.742422471114,227.97659749910235L417.8211316622328,85.30176911875606L338.5581067377934,16.719354882836342"></path></g><g><path class="minor_road" style="fill:none;stroke:#ccc;stroke-linejoin:round;stroke-linecap:round;" d="M850.5241736533499,-16.942993592470884L834.0452192711236,-28.203717302531004"></path></g><g><path class="path" style="fill:none;stroke:#ccc;stroke-linejoin:round;stroke-linecap:round;" d="M-173.48252558220702,307.8190706036985L-115.02324849778961,359.0906331092119L-37.02783544888371,432.1045260950923L16.249146026661037,484.21440410614014"></path></g><g></g><g><path class="minor_road" style="fill:none;stroke:#ccc;stroke-linejoin:round;stroke-linecap:round;" d="M594.5411401955644,235.46371104940772L585.742422471114,227.97659749910235"></path></g><g><path class="minor_road" style="fill:none;stroke:#ccc;stroke-linejoin:round;stroke-linecap:round;" d="M693.5267145955731,484.21440410614014L704.152284728887,436.47696796804667L697.8515080533398,370.7704732529819L665.6765360355639,303.3867113851011L630.6680786488869,266.130906727165L594.5411401955644,235.46371104940772"></path></g><g><path class="path" style="fill:none;stroke:#ccc;stroke-linejoin:round;stroke-linecap:round;" d="M16.249146026661037,484.21440410614014L82.53779057778593,549.0221825353801"></path></g><g><path class="path" style="fill:none;stroke:#ccc;stroke-linejoin:round;stroke-linecap:round;" d="M82.53779057778593,549.0221825353801L144.94903409777908,610.0563544258475L273.8353356800071,738.7128270976245"></path></g><g><path class="minor_road" style="fill:none;stroke:#ccc;stroke-linejoin:round;stroke-linecap:round;" d="M571.7241264355544,738.7128270976245L594.5411401955644,694.6893816590309"></path><path class="minor_road" style="fill:none;stroke:#ccc;stroke-linejoin:round;stroke-linecap:round;" d="M471.3590920533461,738.7128270976245L412.97438037332904,691.0956278629601"></path></g><g><path class="minor_road" style="fill:none;stroke:#ccc;stroke-linejoin:round;stroke-linecap:round;" d="M594.5411401955644,694.6893816590309L669.4048062577785,550.1602105498314L691.140621653336,494.9358494244516L693.5267145955731,484.21440410614014"></path></g><g></g><g><path class="path" style="fill:none;stroke:#ccc;stroke-linejoin:round;stroke-linecap:round;" d="M273.8353356800071,738.7128270976245L338.5581067377934,803.3403142727911"></path></g><g><path class="path" style="fill:none;stroke:#ccc;stroke-linejoin:round;stroke-linecap:round;" d="M338.5581067377934,803.3403142727911L419.27515704889083,883.8998500034213L468.97299911110895,936.0687607973814L530.5640231822181,994.9458388574421"></path><path class="minor_road" style="fill:none;stroke:#ccc;stroke-linejoin:round;stroke-linecap:round;" d="M571.2021686044463,994.9458388574421L570.5310799644503,992.7896103672683L550.7339650844369,845.0875531807542L546.0736273066723,810.2283135987818L547.6395007999963,792.9783641546965L552.1507077688875,776.5669437944889L571.7241264355544,738.7128270976245"></path><path class="minor_road" style="fill:none;stroke:#ccc;stroke-linejoin:round;stroke-linecap:round;" d="M546.0736273066723,810.2283135987818L534.9260993422213,790.0434758402407L518.9691027911176,775.0695509389043L487.50250211555976,751.9497947469354L471.3590920533461,738.7128270976245"></path></g><g></g><path class="waypath" style="fill:none;stroke:orange; stroke-width:5;stroke-linejoin:round; stroke-linecap:round}" d="M330.43047765333904,56.311494529247284L222.83259904001898,178.74128760024905L205.34701169778418,198.6270925551653L188.19696867556195,218.1535014025867L170.6368159288977,238.09917453676462L151.77176860444888,259.6021511666477L135.1436834133492,278.4696515314281L123.77245923558075,291.40735852345824L346.53660501334525,487.2691180035472L269.7342384355579,574.6577492766082L462.0011337955657,743.6841776892543L674.9972115911223,501.34475607052445L653.6715059200069,482.5972024947405L676.2648234666704,456.9615492708981L672.0145954133332,400.35937923938036L598.1202796089055,335.4314544387162L619.8188123022119,310.69411404430866L330.43047765333904,56.311494529247284"></path><path class="center" style="fill:none; stroke:red; stroke-width:1;stroke-linejoin:round; stroke-linecap:round}" d="M400,400m0,4.5a4.5,4.5 0 1,1 0,-9a4.5,4.5 0 1,1 0,9z"></path></svg>
