<svg xmlns="http://www.w3.org/2000/svg" version="1.1" width="800" height="800"><g></g><g></g><g><path class="minor_road" style="fill:none;stroke:#ccc;stroke-linejoin:round;stroke-linecap:round;" d="M684.899497301376,-251.3913346529007L708.2235558115644,-228.6733642220497"></path></g><g><path class="minor_road" style="fill:none;stroke:#ccc;stroke-linejoin:round;stroke-linecap:round;" d="M708.2235558115644,-228.6733642220497L848.0784283875837,-92.50937521457672L964.3706331591238,-106.40854659676552"></path></g><g></g><g></g><g><path class="path" style="fill:none;stroke:#ccc;stroke-linejoin:round;stroke-linecap:round;" d="M539.8846987378201,257.7015218436718L537.8266935751308,225.78140583634377L670.7022442950984,77.1083716750145"></path></g><g></g><g></g><g></g><g><path class="path" style="fill:none;stroke:#ccc;stroke-linejoin:round;stroke-linecap:round;" d="M556.4978708479903,512.1995767652988L539.8846987378201,257.7015218436718"></path></g><g></g><g><path class="path" style="fill:none;stroke:#ccc;stroke-linejoin:round;stroke-linecap:round;" d="M-59.680805319105275,660.4409624934196L196.197836572479,640.3591253757477"></path></g><g><path class="path" style="fill:none;stroke:#ccc;stroke-linejoin:round;stroke-linecap:round;" d="M196.197836572479,640.3591253757477L452.3449139200384,620.2772862911224"></path></g><g><path class="path" style="fill:none;stroke:#ccc;stroke-linejoin:round;stroke-linecap:round;" d="M452.3449139200384,620.2772862911224L562.9999741155771,611.6023146212101L556.4978708479903,512.1995767652988"></path></g><g></g><g></g><g></g><g></g><g></g><path class="waypath" style="fill:none;stroke:orange; stroke-width:5;stroke-linejoin:round; stroke-linecap:round}" d="M299.18757319112774,565.3517695963383L509.76027534221066,552.8904812037945L490.67153180448804,235.1273861527443L290.23972465778934,246.15084969997406L299.18757319112774,565.3517695963383"></path><path class="center" style="fill:none; stroke:red; stroke-width:1;stroke-linejoin:round; stroke-linecap:round}" d="M400,400m0,4.5a4.5,4.5 0 1,1 0,-9a4.5,4.5 0 1,1 0,9z"></path></svg>
