<svg xmlns="http://www.w3.org/2000/svg" version="1.1" width="800" height="800"><g><path class="minor_road" style="fill:none;stroke:#ccc;stroke-linejoin:round;stroke-linecap:round;" d="M-150.5909464177821,229.3664231672883L-171.58110776888498,199.7770238146186L-176.09231473779073,173.54866528883576"></path><path class="minor_road" style="fill:none;stroke:#ccc;stroke-linejoin:round;stroke-linecap:round;" d="M1.0378035199973965,-26.796013474464417L-1.2364413155592047,25.30094701051712L-20.17605404443748,44.26709682121873L-138.17580657778308,39.70561896264553L-176.09231473779073,35.444237638264894"></path><path class="major_road" style="fill:none;stroke:#ccc;stroke-linejoin:round;stroke-linecap:round;" d="M-14.88191032888426,229.3664231672883L0.10573596444737632,209.68017322197556L70.4954777600069,84.3000343106687L79.89071871999477,68.93507575243711"></path></g><g><path class="path" style="fill:none;stroke:#ccc;stroke-linejoin:round;stroke-linecap:round;" d="M119.89505820444901,190.23398553952575L287.89091441778874,124.15285520628095L335.9110348799877,112.92925039306283"></path><path class="major_road" style="fill:none;stroke:#ccc;stroke-linejoin:round;stroke-linecap:round;" d="M79.89071871999477,68.93507575243711L138.64825742221728,-26.796013474464417"></path></g><g><path class="path" style="fill:none;stroke:#ccc;stroke-linejoin:round;stroke-linecap:round;" d="M335.9110348799877,112.92925039306283L364.9169772088935,106.14706985279918L591.8940683377732,56.270982299000025"></path><path class="minor_road" style="fill:none;stroke:#ccc;stroke-linejoin:round;stroke-linecap:round;" d="M337.92430080000486,144.19928224384785L418.1193932800088,166.40638479590416L591.8940683377732,214.54171797260642"></path><path class="minor_road" style="fill:none;stroke:#ccc;stroke-linejoin:round;stroke-linecap:round;" d="M401.71500430221204,229.3664231672883L418.1193932800088,166.40638479590416"></path></g><g><path class="path" style="fill:none;stroke:#ccc;stroke-linejoin:round;stroke-linecap:round;" d="M591.8940683377732,56.270982299000025L729.6909357511176,26.021180786192417"></path><path class="minor_road" style="fill:none;stroke:#ccc;stroke-linejoin:round;stroke-linecap:round;" d="M719.7364542577852,-26.796013474464417L729.6909357511176,26.021180786192417L736.1781259377749,60.35230216383934L768.0921190400113,229.3664231672883"></path><path class="minor_road" style="fill:none;stroke:#ccc;stroke-linejoin:round;stroke-linecap:round;" d="M591.8940683377732,214.54171797260642L645.5438768355525,229.3664231672883"></path><path class="minor_road" style="fill:none;stroke:#ccc;stroke-linejoin:round;stroke-linecap:round;" d="M736.1781259377749,60.35230216383934L847.8771017955587,36.764665726572275"></path></g><g><path class="minor_road" style="fill:none;stroke:#ccc;stroke-linejoin:round;stroke-linecap:round;" d="M-73.78857983999478,306.8508846797049L-117.22292792888766,276.541342318058L-150.5909464177821,229.3664231672883"></path><path class="major_road" style="fill:none;stroke:#ccc;stroke-linejoin:round;stroke-linecap:round;" d="M-175.57035690666817,485.5864709876478L-100.14745031110942,383.61490162834525L-73.78857983999478,306.8508846797049L-14.88191032888426,229.3664231672883"></path></g><g></g><g><path class="minor_road" style="fill:none;stroke:#ccc;stroke-linejoin:round;stroke-linecap:round;" d="M386.91377152000496,286.1443692818284L401.71500430221204,229.3664231672883"></path></g><g><path class="minor_road" style="fill:none;stroke:#ccc;stroke-linejoin:round;stroke-linecap:round;" d="M825.7684593777813,485.5864709876478L827.3716155733273,476.40364368632436L834.9400041244517,427.248456813395L815.8885432888928,356.2463637031615"></path><path class="minor_road" style="fill:none;stroke:#ccc;stroke-linejoin:round;stroke-linecap:round;" d="M827.3716155733273,476.40364368632436L847.8771017955587,482.5855473652482"></path><path class="minor_road" style="fill:none;stroke:#ccc;stroke-linejoin:round;stroke-linecap:round;" d="M768.0921190400113,229.3664231672883L769.5088617244473,236.86880126595497L783.899984782227,312.9728079549968L815.8885432888928,356.2463637031615L847.8771017955587,363.8687443435192"></path><path class="minor_road" style="fill:none;stroke:#ccc;stroke-linejoin:round;stroke-linecap:round;" d="M645.5438768355525,229.3664231672883L709.8938208711043,247.19207014888525L769.5088617244473,236.86880126595497"></path></g><g><path class="minor_road" style="fill:none;stroke:#ccc;stroke-linejoin:round;stroke-linecap:round;" d="M-176.09231473779073,592.7792456112802L-128.10947697778465,660.1796377822757L29.111678293338628,741.804110430181"></path><path class="major_road" style="fill:none;stroke:#ccc;stroke-linejoin:round;stroke-linecap:round;" d="M-176.09231473779073,486.3066925853491L-175.57035690666817,485.5864709876478"></path></g><g><path class="minor_road" style="fill:none;stroke:#ccc;stroke-linejoin:round;stroke-linecap:round;" d="M209.89550136889738,596.200284678489L335.9110348799877,629.4503612294793"></path><path class="minor_road" style="fill:none;stroke:#ccc;stroke-linejoin:round;stroke-linecap:round;" d="M335.9110348799877,562.890149269253L167.9151786666771,520.1570871248841L119.89505820444901,598.180886041373L335.9110348799877,701.9521925598383"></path></g><g><path class="minor_road" style="fill:none;stroke:#ccc;stroke-linejoin:round;stroke-linecap:round;" d="M335.9110348799877,629.4503612294793L440.5262973155477,657.0586972236633"></path><path class="minor_road" style="fill:none;stroke:#ccc;stroke-linejoin:round;stroke-linecap:round;" d="M415.8451484444522,741.804110430181L416.21797546665766,740.5437343977392M416.21797546665766,740.5437343977392L440.5262973155477,657.0586972236633L458.9066695111251,594.1596649363637L335.9110348799877,562.890149269253M335.9110348799877,701.9521925598383L416.21797546665766,740.5437343977392"></path></g><g><path class="minor_road" style="fill:none;stroke:#ccc;stroke-linejoin:round;stroke-linecap:round;" d="M822.0774718577741,506.71296383067966L825.7684593777813,485.5864709876478"></path></g><g><path class="path" style="fill:none;stroke:#ccc;stroke-linejoin:round;stroke-linecap:round;" d="M-176.09231473779073,874.923498082906L-155.21400149332476,878.2844841182232L-167.33087971554778,953.3063861764967L-174.60100664889615,998.0193415954709"></path><path class="path" style="fill:none;stroke:#ccc;stroke-linejoin:round;stroke-linecap:round;" d="M-176.09231473779073,951.9259850382805L-167.33087971554778,953.3063861764967"></path><path class="path" style="fill:none;stroke:#ccc;stroke-linejoin:round;stroke-linecap:round;" d="M-17.118872462233412,911.7742867022753L-29.906839324437897,998.0193415954709M79.89071871999477,926.2385077252984L-17.118872462233412,911.7742867022753"></path><path class="minor_road" style="fill:none;stroke:#ccc;stroke-linejoin:round;stroke-linecap:round;" d="M-39.56305919999431,799.3012025244534L79.89071871999477,861.4195321090519"></path><path class="minor_road" style="fill:none;stroke:#ccc;stroke-linejoin:round;stroke-linecap:round;" d="M29.111678293338628,741.804110430181L79.89071871999477,768.2119757197797"></path></g><g><path class="path" style="fill:none;stroke:#ccc;stroke-linejoin:round;stroke-linecap:round;" d="M84.25279487999796,998.0193415954709L94.5801033955504,928.3991375900805L79.89071871999477,926.2385077252984"></path><path class="minor_road" style="fill:none;stroke:#ccc;stroke-linejoin:round;stroke-linecap:round;" d="M79.89071871999477,861.4195321090519L199.41906204445695,923.4777026474476L321.44534641777864,949.465269792825L335.9110348799877,957.8076937273145"></path><path class="minor_road" style="fill:none;stroke:#ccc;stroke-linejoin:round;stroke-linecap:round;" d="M286.88428145778016,781.1758275069296L335.9110348799877,803.5024466700852"></path><path class="minor_road" style="fill:none;stroke:#ccc;stroke-linejoin:round;stroke-linecap:round;" d="M79.89071871999477,768.2119757197797L335.9110348799877,901.0911641828716"></path></g><g><path class="minor_road" style="fill:none;stroke:#ccc;stroke-linejoin:round;stroke-linecap:round;" d="M335.9110348799877,957.8076937273145L406.0397977600078,998.0193415954709"></path><path class="minor_road" style="fill:none;stroke:#ccc;stroke-linejoin:round;stroke-linecap:round;" d="M335.9110348799877,803.5024466700852L390.56747633776104,828.3497916646302"></path><path class="minor_road" style="fill:none;stroke:#ccc;stroke-linejoin:round;stroke-linecap:round;" d="M335.9110348799877,901.0911641828716L364.9169772088935,916.1555660888553L390.56747633776104,828.3497916646302L415.8451484444522,741.804110430181"></path><path class="minor_road" style="fill:none;stroke:#ccc;stroke-linejoin:round;stroke-linecap:round;" d="M498.3144857599982,998.0193415954709L504.950806755558,853.1971140094101L542.9045976177731,797.2005802094936L591.8940683377732,798.1008469425142"></path></g><g><path class="minor_road" style="fill:none;stroke:#ccc;stroke-linejoin:round;stroke-linecap:round;" d="M591.8940683377732,798.1008469425142L847.8771017955587,802.8422512002289"></path></g><path class="waypath" style="fill:none;stroke:orange; stroke-width:5;stroke-linejoin:round; stroke-linecap:round}" d="M110.83536156445916,227.38579499721527L629.8851419022103,361.5280135087669L736.5882356622315,389.1366208605468L689.1646384355554,572.6731301993132L63.4117643377831,410.9233934395015L110.83536156445916,227.38579499721527"></path><path class="center" style="fill:none; stroke:red; stroke-width:1;stroke-linejoin:round; stroke-linecap:round}" d="M400,400m0,4.5a4.5,4.5 0 1,1 0,-9a4.5,4.5 0 1,1 0,9z"></path></svg>
