<svg xmlns="http://www.w3.org/2000/svg" version="1.1" width="800" height="800"><g><path class="path" style="fill:none;stroke:#ccc;stroke-linejoin:round;stroke-linecap:round;" d="M21.636496497780172,167.01018890179694L8.289289102223847,93.16886610910296"></path><path class="path" style="fill:none;stroke:#ccc;stroke-linejoin:round;stroke-linecap:round;" d="M8.289289102223847,93.16886610910296L37.4070795377811,88.73717627674341"></path><path class="minor_road" style="fill:none;stroke:#ccc;stroke-linejoin:round;stroke-linecap:round;" d="M24.432699164441146,21.18367212638259L141.79864576000182,5.822389807552099"></path><path class="minor_road" style="fill:none;stroke:#ccc;stroke-linejoin:round;stroke-linecap:round;" d="M141.79864576000182,5.822389807552099L136.9518944711126,-26.66692895628512L222.8885230933338,-37.29709152318537"></path><path class="minor_road" style="fill:none;stroke:#ccc;stroke-linejoin:round;stroke-linecap:round;" d="M141.79864576000182,5.822389807552099L146.19800462222338,31.93356506153941L222.8885230933338,22.351488200947642"></path><path class="minor_road" style="fill:none;stroke:#ccc;stroke-linejoin:round;stroke-linecap:round;" d="M146.19800462222338,31.93356506153941L155.9660726044458,103.31982590071857L222.8885230933338,94.96549670770764"></path><path class="minor_road" style="fill:none;stroke:#ccc;stroke-linejoin:round;stroke-linecap:round;" d="M222.8885230933338,164.91413090750575L216.30812615111063,167.01018890179694"></path><path class="minor_road" style="fill:none;stroke:#ccc;stroke-linejoin:round;stroke-linecap:round;" d="M-33.11315171555543,27.651575295254588L-0.43486321777527337,23.758856162428856L24.432699164441146,21.18367212638259"></path></g><g><path class="path" style="fill:none;stroke:#ccc;stroke-linejoin:round;stroke-linecap:round;" d="M325.13633393777855,-49.96346505172551L334.8671192177826,8.367632718756795"></path><path class="minor_road" style="fill:none;stroke:#ccc;stroke-linejoin:round;stroke-linecap:round;" d="M478.89019790222665,-68.31924708001316L469.34582613333623,-89.19037018157542"></path><path class="minor_road" style="fill:none;stroke:#ccc;stroke-linejoin:round;stroke-linecap:round;" d="M478.89019790222665,104.21814055740833L370.770361457784,117.87251613289118L350.1343857777756,124.78953013196588"></path><path class="minor_road" style="fill:none;stroke:#ccc;stroke-linejoin:round;stroke-linecap:round;" d="M222.8885230933338,-37.29709152318537L325.13633393777855,-49.96346505172551L320.34550670222234,-77.15278883092105L421.60532593778044,-89.19037018157542"></path><path class="minor_road" style="fill:none;stroke:#ccc;stroke-linejoin:round;stroke-linecap:round;" d="M222.8885230933338,22.351488200947642L334.8671192177826,8.367632718756795L478.89019790222665,-5.19702024012804"></path><path class="minor_road" style="fill:none;stroke:#ccc;stroke-linejoin:round;stroke-linecap:round;" d="M222.8885230933338,94.96549670770764L478.89019790222665,63.07526838593185"></path><path class="minor_road" style="fill:none;stroke:#ccc;stroke-linejoin:round;stroke-linecap:round;" d="M325.0244858311162,132.4251908622682L222.8885230933338,164.91413090750575"></path><path class="minor_road" style="fill:none;stroke:#ccc;stroke-linejoin:round;stroke-linecap:round;" d="M350.1343857777756,124.78953013196588L325.0244858311162,132.4251908622682"></path></g><g><path class="path" style="fill:none;stroke:#ccc;stroke-linejoin:round;stroke-linecap:round;" d="M714.1254075733341,62.23683884553611L707.2094663111129,45.97728430107236L649.7754635377787,-89.19037018157542"></path><path class="minor_road" style="fill:none;stroke:#ccc;stroke-linejoin:round;stroke-linecap:round;" d="M734.8918727111159,106.52381457947195L730.5111552000017,96.94179010018706L722.6817877333378,79.72407293692231L714.1254075733341,62.23683884553611L566.5418308266708,123.5618352573365L478.89019790222665,-68.31924708001316"></path><path class="minor_road" style="fill:none;stroke:#ccc;stroke-linejoin:round;stroke-linecap:round;" d="M730.5111552000017,96.94179010018706L634.7691758933361,137.87495394423604"></path><path class="minor_road" style="fill:none;stroke:#ccc;stroke-linejoin:round;stroke-linecap:round;" d="M734.8918727111159,74.72344492934644L722.6817877333378,79.72407293692231"></path><path class="minor_road" style="fill:none;stroke:#ccc;stroke-linejoin:round;stroke-linecap:round;" d="M572.2088015644476,167.01018890179694L539.6796438755591,96.52257636748254L478.89019790222665,104.21814055740833"></path><path class="minor_road" style="fill:none;stroke:#ccc;stroke-linejoin:round;stroke-linecap:round;" d="M478.89019790222665,-5.19702024012804L482.4134132622203,-5.526404917240143"></path><path class="minor_road" style="fill:none;stroke:#ccc;stroke-linejoin:round;stroke-linecap:round;" d="M478.89019790222665,63.07526838593185L511.69897585778017,58.97295191325247"></path></g><g><path class="path" style="fill:none;stroke:#ccc;stroke-linejoin:round;stroke-linecap:round;" d="M910.3069866666701,167.01018890179694L903.3164800000013,151.5891832895577L856.4894060088918,54.57119491323829L831.3422233600031,2.3788251280784607L787.1622212266666,-89.19037018157542"></path><path class="path" style="fill:none;stroke:#ccc;stroke-linejoin:round;stroke-linecap:round;" d="M856.4894060088918,54.57119491323829L850.9902074311176,57.565587582066655L847.336502613336,59.42211071588099L828.2104763733332,36.54493714682758"></path><path class="path" style="fill:none;stroke:#ccc;stroke-linejoin:round;stroke-linecap:round;" d="M831.3422233600031,2.3788251280784607L840.9052364800045,-0.016698643565177917"></path><path class="path" style="fill:none;stroke:#ccc;stroke-linejoin:round;stroke-linecap:round;" d="M876.2305968355577,163.4169464316219L903.3164800000013,151.5891832895577"></path><path class="minor_road" style="fill:none;stroke:#ccc;stroke-linejoin:round;stroke-linecap:round;" d="M918.6583119644492,167.01018890179694L840.9052364800045,-0.016698643565177917"></path><path class="minor_road" style="fill:none;stroke:#ccc;stroke-linejoin:round;stroke-linecap:round;" d="M867.8233474844455,167.01018890179694L870.7500396088908,164.97401829063892L876.2305968355577,163.4169464316219L880.4994662400022,167.01018890179694"></path><path class="minor_road" style="fill:none;stroke:#ccc;stroke-linejoin:round;stroke-linecap:round;" d="M762.5742791111115,167.01018890179694L734.8918727111159,106.52381457947195"></path><path class="minor_road" style="fill:none;stroke:#ccc;stroke-linejoin:round;stroke-linecap:round;" d="M828.2104763733332,36.54493714682758L734.8918727111159,74.72344492934644"></path><path class="minor_road" style="fill:none;stroke:#ccc;stroke-linejoin:round;stroke-linecap:round;" d="M990.8935475200014,73.64546499960124L972.9978504533356,44.569918632507324L910.4561174755581,-49.993409210816026L901.0235938133374,-64.09711558558047L897.7613573688905,-77.66184055991471L899.0476105955604,-88.7711507473141L899.2153827555594,-89.19037018157542M968.7103396977764,-89.19037018157542L990.8935475200014,-58.91677163541317"></path></g><g><path class="path" style="fill:none;stroke:#ccc;stroke-linejoin:round;stroke-linecap:round;" d="M67.84840590222666,422.397474385798L21.636496497780172,167.01018890179694"></path><path class="minor_road" style="fill:none;stroke:#ccc;stroke-linejoin:round;stroke-linecap:round;" d="M-33.11315171555543,349.51571840792894L67.14003456000137,339.75420468859375"></path><path class="minor_road" style="fill:none;stroke:#ccc;stroke-linejoin:round;stroke-linecap:round;" d="M216.30812615111063,167.01018890179694L168.06430947555418,182.34134614281356L184.00266467555775,280.43638994172215"></path></g><g></g><g><path class="minor_road" style="fill:none;stroke:#ccc;stroke-linejoin:round;stroke-linecap:round;" d="M690.0780646400017,422.397474385798L572.2088015644476,167.01018890179694"></path></g><g><path class="path" style="fill:none;stroke:#ccc;stroke-linejoin:round;stroke-linecap:round;" d="M990.8935475200014,344.2756428923458L910.3069866666701,167.01018890179694"></path><path class="minor_road" style="fill:none;stroke:#ccc;stroke-linejoin:round;stroke-linecap:round;" d="M990.8935475200014,322.17747374624014L918.6583119644492,167.01018890179694"></path><path class="minor_road" style="fill:none;stroke:#ccc;stroke-linejoin:round;stroke-linecap:round;" d="M990.8749061688904,422.397474385798L966.4360948622234,388.5317602548748L869.1468834133375,184.13796500489116L866.2947566933399,175.2446993254125L866.5370942577756,167.9084993749857L867.8233474844455,167.01018890179694M880.4994662400022,167.01018890179694L883.0719726933312,169.16613392718136L888.049213440001,178.08934722654521L981.0322727822277,379.78834383934736L990.8935475200014,393.65204602852464"></path><path class="minor_road" style="fill:none;stroke:#ccc;stroke-linejoin:round;stroke-linecap:round;" d="M820.9217080888957,172.31021981686354L774.0387100444423,192.07302882149816L762.5742791111115,167.01018890179694"></path><path class="minor_road" style="fill:none;stroke:#ccc;stroke-linejoin:round;stroke-linecap:round;" d="M749.5998987377789,422.397474385798L749.1711476622258,420.3613418675959L752.2842532977811,408.2643130123615L762.4065069511162,396.97573928162456L778.0279591822255,391.49613646417856L798.291107840003,391.88539793528616L813.5024503466666,399.31130702234805L821.3131764622267,408.65357400663197L823.084104817779,422.397474385798"></path><path class="minor_road" style="fill:none;stroke:#ccc;stroke-linejoin:round;stroke-linecap:round;" d="M866.2947566933399,175.2446993254125L844.3166037333358,173.20852993428707L820.9217080888957,172.31021981686354"></path></g><g><path class="path" style="fill:none;stroke:#ccc;stroke-linejoin:round;stroke-linecap:round;" d="M79.76022926222504,488.1224711108953L120.77120170666967,481.32541323266923"></path><path class="path" style="fill:none;stroke:#ccc;stroke-linejoin:round;stroke-linecap:round;" d="M106.34279594666805,678.5884302724153L105.63442460444276,673.4981939643621L79.76022926222504,488.1224711108953L67.84840590222666,422.397474385798"></path><path class="path" style="fill:none;stroke:#ccc;stroke-linejoin:round;stroke-linecap:round;" d="M105.63442460444276,673.4981939643621L73.68314880000617,678.5884302724153"></path><path class="path" style="fill:none;stroke:#ccc;stroke-linejoin:round;stroke-linecap:round;" d="M84.55105649777761,481.32541323266923L120.13739576889202,476.02550231665373"></path></g><g><path class="major_road" style="fill:none;stroke:#ccc;stroke-linejoin:round;stroke-linecap:round;" d="M464.5549988977764,678.5884302724153L463.9957583644464,670.5937641616911"></path><path class="major_road" style="fill:none;stroke:#ccc;stroke-linejoin:round;stroke-linecap:round;" d="M478.89019790222665,666.4317451156676L463.9957583644464,670.5937641616911"></path><path class="major_road" style="fill:none;stroke:#ccc;stroke-linejoin:round;stroke-linecap:round;" d="M435.43720846222277,678.5884302724153L463.9957583644464,670.5937641616911"></path></g><g><path class="minor_road" style="fill:none;stroke:#ccc;stroke-linejoin:round;stroke-linecap:round;" d="M734.8918727111159,517.9157025050372L731.5737122133323,512.2864336147904"></path><path class="minor_road" style="fill:none;stroke:#ccc;stroke-linejoin:round;stroke-linecap:round;" d="M731.5737122133323,512.2864336147904L690.0780646400017,422.397474385798"></path><path class="major_road" style="fill:none;stroke:#ccc;stroke-linejoin:round;stroke-linecap:round;" d="M734.8918727111159,568.8185604326427L691.699862186666,589.7785055730492L573.3832066844479,639.8726440612227L478.89019790222665,666.4317451156676"></path></g><g><path class="minor_road" style="fill:none;stroke:#ccc;stroke-linejoin:round;stroke-linecap:round;" d="M990.8935475200014,422.42741751112044L990.8749061688904,422.397474385798"></path><path class="minor_road" style="fill:none;stroke:#ccc;stroke-linejoin:round;stroke-linecap:round;" d="M758.212202951112,557.5001766718924L734.8918727111159,517.9157025050372"></path><path class="minor_road" style="fill:none;stroke:#ccc;stroke-linejoin:round;stroke-linecap:round;" d="M797.9742048711123,537.0492107812315L779.6311153777788,499.351083541289L761.2321018311195,455.065382482484L752.6757216711121,436.74022276327014L749.5998987377789,422.397474385798M823.084104817779,422.397474385798L823.2705183288926,423.8646873347461L823.6433453511163,437.12948294728994L818.2000708266678,442.18986433185637"></path><path class="minor_road" style="fill:none;stroke:#ccc;stroke-linejoin:round;stroke-linecap:round;" d="M890.6776439466703,490.4280802831054L884.5446394311111,479.0198025200516L882.1212637866702,470.2465010546148L881.4501751466669,459.9460989776999L882.3263186488948,453.1490270588547L893.9771630933355,446.5615532565862L927.3078988800044,432.0990427862853L937.4115111822211,428.3561545573175L941.5685324800033,428.3561545573175L944.8680516266686,429.04484606720507L949.9198577777788,431.64989625662565L969.195014826666,446.23217948153615"></path><path class="minor_road" style="fill:none;stroke:#ccc;stroke-linejoin:round;stroke-linecap:round;" d="M927.7366499555537,524.8025708533823L940.244996551115,526.269772792235L950.4418156088905,531.6894357390702L990.8935475200014,565.1954809334129"></path><path class="major_road" style="fill:none;stroke:#ccc;stroke-linejoin:round;stroke-linecap:round;" d="M912.1338390755591,678.5884302724153L911.5932398933364,660.2336280681193L914.0166155377774,614.2117724139243L920.9511981511132,566.2434792332351L927.7366499555537,524.8025708533823L937.5233592888944,481.6847291532904L937.4115111822211,475.1571551281959L935.3236798577818,468.3301477711648"></path><path class="major_road" style="fill:none;stroke:#ccc;stroke-linejoin:round;stroke-linecap:round;" d="M935.3236798577818,468.3301477711648L969.195014826666,446.23217948153615L990.8935475200014,428.80530120432377"></path><path class="major_road" style="fill:none;stroke:#ccc;stroke-linejoin:round;stroke-linecap:round;" d="M935.3236798577818,468.3301477711648L890.6776439466703,490.4280802831054L871.5702590577785,500.3990869037807L797.9742048711123,537.0492107812315L758.212202951112,557.5001766718924L734.8918727111159,568.8185604326427"></path></g><g><path class="path" style="fill:none;stroke:#ccc;stroke-linejoin:round;stroke-linecap:round;" d="M140.88521955555916,934.8045193366706L128.39551431111613,840.8462035320699L116.98700743111112,755.0016318950802L106.34279594666805,678.5884302724153"></path><path class="path" style="fill:none;stroke:#ccc;stroke-linejoin:round;stroke-linecap:round;" d="M153.5240556088902,836.9537163283676L128.39551431111613,840.8462035320699"></path><path class="path" style="fill:none;stroke:#ccc;stroke-linejoin:round;stroke-linecap:round;" d="M70.96151153777828,695.2963690515608L-33.11315171555543,707.6027409862727"></path><path class="path" style="fill:none;stroke:#ccc;stroke-linejoin:round;stroke-linecap:round;" d="M73.68314880000617,678.5884302724153L69.37699669333597,679.2771091554314"></path><path class="path" style="fill:none;stroke:#ccc;stroke-linejoin:round;stroke-linecap:round;" d="M69.37699669333597,679.2771091554314L70.96151153777828,695.2963690515608"></path><path class="path" style="fill:none;stroke:#ccc;stroke-linejoin:round;stroke-linecap:round;" d="M70.96151153777828,695.2963690515608L100.35892224000054,693.8291852828115"></path><path class="minor_road" style="fill:none;stroke:#ccc;stroke-linejoin:round;stroke-linecap:round;" d="M17.237137635554973,934.8045193366706L8.792605582224496,920.9413668252528L0.40399758222702076,899.5926832668483L4.896563199999946,891.8975675404072L19.716437333336216,887.6757317762822L98.25244956444294,878.2140241842717"></path><path class="major_road" style="fill:none;stroke:#ccc;stroke-linejoin:round;stroke-linecap:round;" d="M80.69229681778233,934.8045193366706L108.374703217778,917.9172215331346L122.57941276444399,910.9107833318412L145.862460302229,899.3830887302756"></path><path class="major_road" style="fill:none;stroke:#ccc;stroke-linejoin:round;stroke-linecap:round;" d="M145.862460302229,899.3830887302756L222.8885230933338,865.0694258604199"></path><path class="major_road" style="fill:none;stroke:#ccc;stroke-linejoin:round;stroke-linecap:round;" d="M119.44766577777773,736.2277383804321L175.073457493334,729.2810918074101L222.8885230933338,722.2146718408912"></path><path class="major_road" style="fill:none;stroke:#ccc;stroke-linejoin:round;stroke-linecap:round;" d="M-33.11315171555543,753.0254337918013L99.93017116445117,738.6530753616244L119.44766577777773,736.2277383804321"></path></g><g><path class="path" style="fill:none;stroke:#ccc;stroke-linejoin:round;stroke-linecap:round;" d="M312.7398354488905,708.9501533005387L319.8421902222253,757.3970231451094L327.20552391111414,776.0511181540787L334.92304327111196,798.5378023181111L342.9015415466638,806.8617585711181"></path><path class="path" style="fill:none;stroke:#ccc;stroke-linejoin:round;stroke-linecap:round;" d="M327.20552391111414,776.0511181540787L363.16469020444856,764.762848617509"></path><path class="minor_road" style="fill:none;stroke:#ccc;stroke-linejoin:round;stroke-linecap:round;" d="M290.72439978666443,768.325990408659L305.6561220266667,806.4425666518509L312.31108437334115,825.2163635827601"></path><path class="minor_road" style="fill:none;stroke:#ccc;stroke-linejoin:round;stroke-linecap:round;" d="M460.02515057778146,730.8380991108716L478.89019790222665,737.8745721839368"></path><path class="minor_road" style="fill:none;stroke:#ccc;stroke-linejoin:round;stroke-linecap:round;" d="M357.01304433778205,934.8045193366706L312.31108437334115,825.2163635827601"></path><path class="major_road" style="fill:none;stroke:#ccc;stroke-linejoin:round;stroke-linecap:round;" d="M222.8885230933338,865.0694258604199L312.31108437334115,825.2163635827601L342.9015415466638,806.8617585711181L387.8644804266696,777.87760120444L436.48112412444243,746.6177591923624L460.02515057778146,730.8380991108716L467.071581297776,715.1781907044351L464.5549988977764,678.5884302724153"></path><path class="major_road" style="fill:none;stroke:#ccc;stroke-linejoin:round;stroke-linecap:round;" d="M222.8885230933338,722.2146718408912L312.7398354488905,708.9501533005387L381.63826915555546,693.6195875834674L435.43720846222277,678.5884302724153"></path></g><g><path class="path" style="fill:none;stroke:#ccc;stroke-linejoin:round;stroke-linecap:round;" d="M725.1610874311118,831.6240012831986L651.9192189155547,856.1766038667411"></path><path class="minor_road" style="fill:none;stroke:#ccc;stroke-linejoin:round;stroke-linecap:round;" d="M734.8918727111159,762.0081501249224L724.9746739200018,765.3317536748946"></path><path class="minor_road" style="fill:none;stroke:#ccc;stroke-linejoin:round;stroke-linecap:round;" d="M478.89019790222665,737.8745721839368L488.3786456177804,741.4377209823579L559.0666490311123,934.8045193366706"></path><path class="minor_road" style="fill:none;stroke:#ccc;stroke-linejoin:round;stroke-linecap:round;" d="M678.5017856000013,934.8045193366706L651.9192189155547,856.1766038667411"></path></g><g><path class="minor_road" style="fill:none;stroke:#ccc;stroke-linejoin:round;stroke-linecap:round;" d="M856.0979376355535,721.286455385387L734.8918727111159,762.0081501249224"></path><path class="minor_road" style="fill:none;stroke:#ccc;stroke-linejoin:round;stroke-linecap:round;" d="M856.0979376355535,721.286455385387L912.7676450133331,700.1769996378571"></path><path class="minor_road" style="fill:none;stroke:#ccc;stroke-linejoin:round;stroke-linecap:round;" d="M955.027587982222,868.2432935833931L906.5414337422226,884.6815212257206L758.4731818666696,934.8045193366706"></path><path class="minor_road" style="fill:none;stroke:#ccc;stroke-linejoin:round;stroke-linecap:round;" d="M921.0257635555572,934.8045193366706L906.5414337422226,884.6815212257206L856.0979376355535,721.286455385387"></path><path class="major_road" style="fill:none;stroke:#ccc;stroke-linejoin:round;stroke-linecap:round;" d="M979.8765090133347,934.8045193366706L955.0089466311147,868.2432935833931L931.3530720711133,799.5258981119841L919.2734765511123,747.7555707860738L912.7676450133331,700.1769996378571L912.1338390755591,678.5884302724153"></path></g><path class="waypath" style="fill:none;stroke:orange; stroke-width:5;stroke-linejoin:round; stroke-linecap:round}" d="M144.94903409778271,691.9428059235215L300.3619783111135,663.7369119618088L297.7149064533369,651.6700414381921L377.76086812444555,631.2491593267769L483.4386875733326,602.4742281194776L561.9746998044466,569.5671304482967L567.3061262222218,586.7842296622694L712.5968167822248,521.9280523117632L698.9886304711072,492.10488671064377L706.3146814577813,488.42190089821815L697.4227569777795,467.49174312502146L705.7927236266696,463.32966214604676L693.769052159998,436.1114178262651L681.7267393422226,440.8124826103449L534.7210444799966,119.57931211963296L524.2446051555562,123.26239747367799L516.3965963377814,108.08089292794466L493.393169066665,117.48324685171247L490.764738560003,111.22499289177358L474.54676309333445,118.53127952292562L469.32718478222523,109.63797109946609L396.3462951822221,122.09459002688527L353.19156735999786,134.79074762761593L327.4478614755535,142.36651529371738L182.10124686222116,185.1261052787304L207.73310464000315,305.55890832841396L177.6273225955556,315.8294835779816L159.69434282667135,197.94197870604694L93.66667719111501,206.95500398240983L95.25119203555732,222.13639854453504L87.40318321777522,223.18442318961024L90.53493020444876,249.86410912498832L94.20727637333766,250.37314863875508L120.13739576889202,476.02550231665373L120.75256035555867,481.32541323266923L144.94903409778271,691.9428059235215"></path><path class="center" style="fill:none; stroke:red; stroke-width:1;stroke-linejoin:round; stroke-linecap:round}" d="M400,400m0,4.5a4.5,4.5 0 1,1 0,-9a4.5,4.5 0 1,1 0,9z"></path></svg>
