<svg xmlns="http://www.w3.org/2000/svg" version="1.1" width="800" height="800"><g><path class="rail" style="fill:none;stroke:#ccc;stroke-linejoin:round;stroke-linecap:round;" d="M46.90298379379965,-222.98776641488075L111.74505949867307,-177.4311724305153L227.23195790221507,-79.21552497148514"></path><path class="rail" style="fill:none;stroke:#ccc;stroke-linejoin:round;stroke-linecap:round;" d="M141.9589613795397,-222.98776641488075L151.80159476622066,-214.9525862634182L227.23195790221507,-153.61261430382729"></path><path class="path" style="fill:none;stroke:#ccc;stroke-linejoin:round;stroke-linecap:round;" d="M227.23195790221507,-220.21371605992317L223.38438303289877,-222.98776641488075"></path></g><g><path class="rail" style="fill:none;stroke:#ccc;stroke-linejoin:round;stroke-linecap:round;" d="M227.23195790221507,-79.21552497148514L357.4529802239995,31.554975226521492"></path><path class="rail" style="fill:none;stroke:#ccc;stroke-linejoin:round;stroke-linecap:round;" d="M227.23195790221507,-153.61261430382729L454.9248769137921,31.554975226521492"></path><path class="path" style="fill:none;stroke:#ccc;stroke-linejoin:round;stroke-linecap:round;" d="M326.0907711146574,-148.75802931189537L227.23195790221507,-220.21371605992317"></path><path class="path" style="fill:none;stroke:#ccc;stroke-linejoin:round;stroke-linecap:round;" d="M372.530105002661,-222.98776641488075L326.0907711146574,-148.75802931189537"></path></g><g><path class="path" style="fill:none;stroke:#ccc;stroke-linejoin:round;stroke-linecap:round;" d="M648.3027967999951,-222.98776641488075L639.4444267520012,-201.15407885611057L514.070155719106,31.554975226521492"></path><path class="path" style="fill:none;stroke:#ccc;stroke-linejoin:round;stroke-linecap:round;" d="M739.2427640604437,-151.46033518016338L639.4444267520012,-201.15407885611057L612.8842296888761,-222.98776641488075"></path></g><g><path class="path" style="fill:none;stroke:#ccc;stroke-linejoin:round;stroke-linecap:round;" d="M995.2556236800156,-23.97374591231346L739.2427640604437,-151.46033518016338"></path></g><g></g><g><path class="rail" style="fill:none;stroke:#ccc;stroke-linejoin:round;stroke-linecap:round;" d="M357.4529802239995,31.554975226521492L483.22990444088646,138.54692770540714"></path><path class="rail" style="fill:none;stroke:#ccc;stroke-linejoin:round;stroke-linecap:round;" d="M454.9248769137921,31.554975226521492L483.22990444088646,54.56040608882904"></path><path class="path" style="fill:none;stroke:#ccc;stroke-linejoin:round;stroke-linecap:round;" d="M390.12754045154725,140.07743322849274L362.0014698951127,171.42887690663338"></path><path class="path" style="fill:none;stroke:#ccc;stroke-linejoin:round;stroke-linecap:round;" d="M483.22990444088646,88.80548766255379L446.66303010135016,156.67385073006153L390.12754045154725,140.07743322849274"></path><path class="minor_road" style="fill:none;stroke:#ccc;stroke-linejoin:round;stroke-linecap:round;" d="M483.22990444088646,262.7569441795349L446.66303010135016,156.67385073006153"></path></g><g><path class="rail" style="fill:none;stroke:#ccc;stroke-linejoin:round;stroke-linecap:round;" d="M483.22990444088646,138.54692770540714L664.5729680497898,292.79307639598846"></path><path class="rail" style="fill:none;stroke:#ccc;stroke-linejoin:round;stroke-linecap:round;" d="M483.22990444088646,54.56040608882904L739.2427640604437,262.7569441795349"></path><path class="path" style="fill:none;stroke:#ccc;stroke-linejoin:round;stroke-linecap:round;" d="M514.070155719106,31.554975226521492L483.22990444088646,88.80548766255379"></path><path class="minor_road" style="fill:none;stroke:#ccc;stroke-linejoin:round;stroke-linecap:round;" d="M493.579582577775,292.79307639598846L483.22990444088646,262.7569441795349"></path></g><g><path class="rail" style="fill:none;stroke:#ccc;stroke-linejoin:round;stroke-linecap:round;" d="M739.2427640604437,262.7569441795349L776.1824654222146,292.79307639598846"></path></g><g></g><g></g><g><path class="rail" style="fill:none;stroke:#ccc;stroke-linejoin:round;stroke-linecap:round;" d="M664.5729680497898,292.79307639598846L739.2427640604437,356.30894653499126"></path><path class="minor_road" style="fill:none;stroke:#ccc;stroke-linejoin:round;stroke-linecap:round;" d="M619.8038992213405,547.3346168845892L694.5035213937663,406.7916017472744"></path><path class="minor_road" style="fill:none;stroke:#ccc;stroke-linejoin:round;stroke-linecap:round;" d="M739.2427640604437,424.6554252654314L694.5035213937663,406.7916017472744L503.46695520711364,321.466096162796L493.579582577775,292.79307639598846"></path></g><g><path class="rail" style="fill:none;stroke:#ccc;stroke-linejoin:round;stroke-linecap:round;" d="M739.2427640604437,356.30894653499126L963.8188491662149,547.3346168845892"></path><path class="rail" style="fill:none;stroke:#ccc;stroke-linejoin:round;stroke-linecap:round;" d="M776.1824654222146,292.79307639598846L995.2556236800156,470.95308570563793"></path><path class="minor_road" style="fill:none;stroke:#ccc;stroke-linejoin:round;stroke-linecap:round;" d="M995.2556236800156,526.8163523226976L739.2427640604437,424.6554252654314"></path></g><g><path class="major_road" style="fill:none;stroke:#ccc;stroke-linejoin:round;stroke-linecap:round;" d="M-28.78090171732765,600.8064397573471L-14.180995527116465,608.8176453113556L227.23195790221507,736.1120356619358"></path></g><g><path class="minor_road" style="fill:none;stroke:#ccc;stroke-linejoin:round;stroke-linecap:round;" d="M480.69468068977585,801.875564545393L483.22990444088646,797.6906139105558"></path><path class="major_road" style="fill:none;stroke:#ccc;stroke-linejoin:round;stroke-linecap:round;" d="M227.23195790221507,736.1120356619358L351.92022721422836,801.875564545393"></path></g><g><path class="minor_road" style="fill:none;stroke:#ccc;stroke-linejoin:round;stroke-linecap:round;" d="M483.22990444088646,797.6906139105558L511.5051058062236,751.0822097361088L619.8038992213405,547.3346168845892"></path></g><g><path class="rail" style="fill:none;stroke:#ccc;stroke-linejoin:round;stroke-linecap:round;" d="M963.8188491662149,547.3346168845892L995.2556236800156,574.070531591773"></path></g><path class="waypath" style="fill:none;stroke:orange; stroke-width:5;stroke-linejoin:round; stroke-linecap:round}" d="M298.2927883377706,145.3146315217018L361.9716437333409,171.38104863464832L434.3000860444299,200.79543842375278L382.8499569777923,327.06199741363525L612.6605334755586,420.5661165714264L528.103364835566,628.1401923894882L501.7072116622294,617.378873243928L486.49586915556574,654.6847750246525L392.54345955554163,616.422311514616L407.6056712533318,579.1163966953754L192.11165240890114,491.35179041326046L217.1656283022312,430.1317508071661L187.33946652444138,417.9355669915676L298.2927883377706,145.3146315217018"></path><path class="center" style="fill:none; stroke:red; stroke-width:1;stroke-linejoin:round; stroke-linecap:round}" d="M400,400m0,4.5a4.5,4.5 0 1,1 0,-9a4.5,4.5 0 1,1 0,9z"></path></svg>
