<svg xmlns="http://www.w3.org/2000/svg" version="1.1" width="800" height="800"><g><path class="path" style="fill:none;stroke:#ccc;stroke-linejoin:round;stroke-linecap:round;" d="M-155.3929584639991,217.52814654260874L-166.2944205937747,210.09796915203333"></path></g><g></g><g><path class="path" style="fill:none;stroke:#ccc;stroke-linejoin:round;stroke-linecap:round;" d="M397.32310198044433,-40.352502286434174L400.38028356267023,-35.399027809500694L440.16838337422814,11.226129785180092L468.16769274310354,53.28251667320728L458.19084162844956,117.25673532485962L478.1520003982223,159.25292558968067L518.1414268017761,193.217756614089L576.1458549191157,205.27676939219236L601.6695928604458,202.95634143054485"></path></g><g><path class="path" style="fill:none;stroke:#ccc;stroke-linejoin:round;stroke-linecap:round;" d="M601.6695928604458,202.95634143054485L664.1628583253405,197.30555783212185L655.379053681776,217.52814654260874"></path><path class="minor_road" style="fill:none;stroke:#ccc;stroke-linejoin:round;stroke-linecap:round;" d="M857.6749959395529,108.74447751790285L806.1652145493426,111.22120803594589L742.1955540764466,135.2791524529457L664.1628583253405,197.30555783212185"></path></g><g><path class="path" style="fill:none;stroke:#ccc;stroke-linejoin:round;stroke-linecap:round;" d="M89.71098248533235,384.6708007976413L-155.3929584639991,217.52814654260874"></path></g><g><path class="path" style="fill:none;stroke:#ccc;stroke-linejoin:round;stroke-linecap:round;" d="M247.11855126755836,472.06521271914244L162.85964424534177,434.5538025870919L89.71098248533235,384.6708007976413"></path></g><g><path class="path" style="fill:none;stroke:#ccc;stroke-linejoin:round;stroke-linecap:round;" d="M601.6695928604458,341.1719203069806L544.8134719715599,472.06521271914244"></path></g><g><path class="path" style="fill:none;stroke:#ccc;stroke-linejoin:round;stroke-linecap:round;" d="M655.379053681776,217.52814654260874L601.6695928604458,341.1719203069806"></path></g><g></g><g><path class="path" style="fill:none;stroke:#ccc;stroke-linejoin:round;stroke-linecap:round;" d="M345.72384210488235,515.9727663844824L247.11855126755836,472.06521271914244"></path></g><g><path class="path" style="fill:none;stroke:#ccc;stroke-linejoin:round;stroke-linecap:round;" d="M544.8134719715599,472.06521271914244L496.56965529599984,583.1204764991999L345.72384210488235,515.9727663844824"></path></g><g></g><g></g><g></g><g></g><g></g><path class="waypath" style="fill:none;stroke:orange; stroke-width:5;stroke-linejoin:round; stroke-linecap:round}" d="M565.0878054400018,363.81106005609035L494.3252366222223,543.3127750754356L234.91219456000545,422.72327557206154L314.2497848888888,256.80707708746195L565.0878054400018,363.81106005609035"></path><path class="center" style="fill:none; stroke:red; stroke-width:1;stroke-linejoin:round; stroke-linecap:round}" d="M400,400m0,4.5a4.5,4.5 0 1,1 0,-9a4.5,4.5 0 1,1 0,9z"></path></svg>
