<svg xmlns="http://www.w3.org/2000/svg" version="1.1" width="800" height="800"><g><path class="path" style="fill:none;stroke:#ccc;stroke-linejoin:round;stroke-linecap:round;" d="M-220.2629961955554,26.821177789010108L-232.86454954666533,-86.75903327949345"></path><path class="minor_road" style="fill:none;stroke:#ccc;stroke-linejoin:round;stroke-linecap:round;" d="M-12.505138062222613,158.71840711776167L-92.29012081777728,147.26348798908293L-116.495915235555,169.45550708193332"></path><path class="minor_road" style="fill:none;stroke:#ccc;stroke-linejoin:round;stroke-linecap:round;" d="M-3.0073696711106095,69.63571639824659L5.614255217778009,30.006481032818556"></path><path class="minor_road" style="fill:none;stroke:#ccc;stroke-linejoin:round;stroke-linecap:round;" d="M-12.80339967999862,169.45550708193332L-12.505138062222613,158.71840711776167L-3.0073696711106095,69.63571639824659"></path><path class="major_road" style="fill:none;stroke:#ccc;stroke-linejoin:round;stroke-linecap:round;" d="M-3.0073696711106095,69.63571639824659L-220.2629961955554,26.821177789010108L-250.3874195911112,45.11048087477684"></path><path class="major_road" style="fill:none;stroke:#ccc;stroke-linejoin:round;stroke-linecap:round;" d="M-3.0073696711106095,69.63571639824659L5.614255217778009,71.77419312577695"></path><path class="major_road" style="fill:none;stroke:#ccc;stroke-linejoin:round;stroke-linecap:round;" d="M-250.3874195911112,98.36302966065705L-199.32875889777733,169.45550708193332"></path></g><g><path class="minor_road" style="fill:none;stroke:#ccc;stroke-linejoin:round;stroke-linecap:round;" d="M5.614255217778009,30.006481032818556L6.266702506666661,27.000631528906524L16.398276835555407,-31.980086035095155L30.826682595555212,-86.75903327949345"></path><path class="major_road" style="fill:none;stroke:#ccc;stroke-linejoin:round;stroke-linecap:round;" d="M214.36010496000017,98.52752719819546L218.14429923555508,27.62871959619224L227.02690304000043,-11.940941289998591L242.93729621333296,-82.78107691556215L243.77615701333434,-85.50283628236502L244.17694606222358,-86.75903327949345"></path><path class="major_road" style="fill:none;stroke:#ccc;stroke-linejoin:round;stroke-linecap:round;" d="M5.614255217778009,71.77419312577695L108.54247537777792,97.24145540595055L214.36010496000017,98.52752719819546"></path><path class="major_road" style="fill:none;stroke:#ccc;stroke-linejoin:round;stroke-linecap:round;" d="M218.83402922666664,169.45550708193332L214.36010496000017,98.52752719819546"></path></g><g><path class="path" style="fill:none;stroke:#ccc;stroke-linejoin:round;stroke-linecap:round;" d="M310.66132480000033,169.45550708193332L313.03809706666743,161.4400691529736L318.02465848888914,163.18970846012235L322.89937180444485,158.25482721347362L392.4688941511113,100.08277648780495L399.23570460444444,95.50675353035331"></path><path class="path" style="fill:none;stroke:#ccc;stroke-linejoin:round;stroke-linecap:round;" d="M296.1210709333336,169.45550708193332L300.41790236444376,151.68993420805782L316.82229134222234,86.22010928299278L328.1935155199999,40.48955773655325L337.7938113422224,-6.721800555475056L346.60184974222284,-45.12519874237478L353.0051538488897,-71.53513762075454L357.81462243555507,-86.75903327949345"></path><path class="path" style="fill:none;stroke:#ccc;stroke-linejoin:round;stroke-linecap:round;" d="M329.5356927999992,169.45550708193332L324.6330174577779,166.19549801200628L318.02465848888914,163.18970846012235"></path><path class="minor_road" style="fill:none;stroke:#ccc;stroke-linejoin:round;stroke-linecap:round;" d="M434.7381577955557,-86.75903327949345L422.8076930844445,-60.70794760808349L390.99622741333314,68.9627690371126L391.01486876444505,80.118732271716L394.3703119644433,88.26885474938899L399.23570460444444,95.50675353035331"></path><path class="minor_road" style="fill:none;stroke:#ccc;stroke-linejoin:round;stroke-linecap:round;" d="M399.23570460444444,95.50675353035331L441.20670663111105,147.5027554249391L458.7109353244441,169.45550708193332"></path><path class="minor_road" style="fill:none;stroke:#ccc;stroke-linejoin:round;stroke-linecap:round;" d="M441.20670663111105,147.5027554249391L452.30763121777727,125.90883549209684L517.6082841599991,-15.066445813514292"></path></g><g><path class="minor_road" style="fill:none;stroke:#ccc;stroke-linejoin:round;stroke-linecap:round;" d="M767.9616295822225,-86.75903327949345L762.9657474844444,-54.29239698406309L762.4344689777781,-47.278666717000306L760.5703338666672,-23.112009500153363L759.209515235556,-14.228989914059639L758.9764983466666,-12.703624079935253L742.8330882844439,39.78669860307127L736.578914986666,60.09481207374483"></path><path class="minor_road" style="fill:none;stroke:#ccc;stroke-linejoin:round;stroke-linecap:round;" d="M762.9657474844444,-54.29239698406309L773.6099589688883,-32.02494985796511"></path><path class="minor_road" style="fill:none;stroke:#ccc;stroke-linejoin:round;stroke-linecap:round;" d="M517.6082841599991,-15.066445813514292L530.9741329066665,-43.913873304612935L552.7099483022221,-86.75903327949345"></path><path class="minor_road" style="fill:none;stroke:#ccc;stroke-linejoin:round;stroke-linecap:round;" d="M638.9821212444449,80.08882354851812L616.5658965333323,62.502471004612744L612.5766473955564,46.50124353822321L648.573096391111,-48.69935776758939L649.3746744888886,-67.09359489008784L651.1083201422216,-86.75903327949345"></path><path class="minor_road" style="fill:none;stroke:#ccc;stroke-linejoin:round;stroke-linecap:round;" d="M773.6099589688883,38.57538801431656L736.578914986666,60.09481207374483L702.1669808355555,115.2913013426587L667.2144475022214,169.45550708193332"></path><path class="minor_road" style="fill:none;stroke:#ccc;stroke-linejoin:round;stroke-linecap:round;" d="M702.1669808355555,115.2913013426587L672.5831566222223,96.89750592969358L638.9821212444449,80.08882354851812"></path></g><g><path class="minor_road" style="fill:none;stroke:#ccc;stroke-linejoin:round;stroke-linecap:round;" d="M776.1079000177788,-26.790839181281626L792.1953860266667,-10.400621402077377L811.6196738844446,2.3556066332384944L822.8604086044443,9.937550343573093"></path><path class="minor_road" style="fill:none;stroke:#ccc;stroke-linejoin:round;stroke-linecap:round;" d="M773.6099589688883,-32.02494985796511L776.1079000177788,-26.790839181281626"></path><path class="minor_road" style="fill:none;stroke:#ccc;stroke-linejoin:round;stroke-linecap:round;" d="M978.0869393066669,120.76456748694181L1029.6116337777785,143.76420076657087"></path><path class="minor_road" style="fill:none;stroke:#ccc;stroke-linejoin:round;stroke-linecap:round;" d="M1014.8942870755554,4.778240450657904L1002.8892569600002,3.9706959389150143L991.6951256177781,7.170964362099767L982.8870872177777,18.3718920359388L962.1019807288885,51.974564818665385L948.5031150933337,72.77613653801382L939.7043973688887,74.39120918884873L938.1664859022221,73.68835354410112L918.965894257778,40.90828229300678L900.576201386667,21.691789628006518L882.167867164444,8.890734158456326L867.7674234311107,5.690466541796923L837.3727004444454,8.098144656978548L822.8604086044443,9.937550343573093L773.6099589688883,38.57538801431656"></path><path class="major_road" style="fill:none;stroke:#ccc;stroke-linejoin:round;stroke-linecap:round;" d="M945.6416676977778,169.45550708193332L978.0869393066669,120.76456748694181L1006.934430151111,56.027212442830205L1012.5268354844438,28.825077650137246L1012.5268354844438,10.431049346923828L1014.8942870755554,4.778240450657904L1021.2043844266664,-14.228989914059639L1029.6116337777785,-47.38334920722991"></path></g><g><path class="path" style="fill:none;stroke:#ccc;stroke-linejoin:round;stroke-linecap:round;" d="M-176.49310378666632,248.47286554705352L-166.20307797333226,259.82293713465333L-163.70513692444547,285.93251637462527L-147.3659926755554,367.2663562167436L-136.03205119999984,425.2417342066765"></path><path class="path" style="fill:none;stroke:#ccc;stroke-linejoin:round;stroke-linecap:round;" d="M-250.3874195911112,275.6591715067625L-214.87564572444444,271.99545671604574L-201.56572103111102,255.15729734487832"></path><path class="path" style="fill:none;stroke:#ccc;stroke-linejoin:round;stroke-linecap:round;" d="M-165.4108205511111,246.00545618403703L-176.77272405333224,243.7324479809031L-187.86432796444478,241.42953100893646L-250.3874195911112,252.3459487510845"></path><path class="minor_road" style="fill:none;stroke:#ccc;stroke-linejoin:round;stroke-linecap:round;" d="M-116.495915235555,169.45550708193332L-121.0910082844448,173.65762656740844L-99.49500302222168,198.45157430227846"></path><path class="minor_road" style="fill:none;stroke:#ccc;stroke-linejoin:round;stroke-linecap:round;" d="M-34.81883534222197,368.3729323912412L-21.03355619555532,355.81178689096123L-17.473058133334234,337.1195633094758L-12.80339967999862,169.45550708193332"></path><path class="major_road" style="fill:none;stroke:#ccc;stroke-linejoin:round;stroke-linecap:round;" d="M-199.32875889777733,169.45550708193332L-195.460678542222,174.82405073195696L-171.4692596622217,210.0409942707047L-148.5870011733341,236.12085579894483"></path><path class="major_road" style="fill:none;stroke:#ccc;stroke-linejoin:round;stroke-linecap:round;" d="M-148.5870011733341,236.12085579894483L-165.4108205511111,246.00545618403703L-176.49310378666632,248.47286554705352"></path><path class="major_road" style="fill:none;stroke:#ccc;stroke-linejoin:round;stroke-linecap:round;" d="M-176.49310378666632,248.47286554705352L-201.56572103111102,255.15729734487832L-250.3874195911112,262.5445588780567"></path><path class="major_road" style="fill:none;stroke:#ccc;stroke-linejoin:round;stroke-linecap:round;" d="M-148.5870011733341,236.12085579894483L-115.47996160000002,269.228976896964L-47.485633422222236,349.650835650973L-34.81883534222197,368.3729323912412"></path><path class="major_road" style="fill:none;stroke:#ccc;stroke-linejoin:round;stroke-linecap:round;" d="M-34.81883534222197,368.3729323912412L0.9632381155561234,420.1575061455369L4.449170773333208,425.2417342066765"></path></g><g><path class="path" style="fill:none;stroke:#ccc;stroke-linejoin:round;stroke-linecap:round;" d="M192.62428956444455,425.2417342066765L192.64293091555464,425.19687338452786L201.26455580444508,419.82852655276656L209.68112583111179,419.245335418731L207.15522275555668,425.2417342066765"></path><path class="path" style="fill:none;stroke:#ccc;stroke-linejoin:round;stroke-linecap:round;" d="M217.45456924444443,425.2417342066765L230.57808042666602,397.32329404260963L243.4406126933327,365.4120930349454L261.6066093511099,316.31879676226526"></path><path class="path" style="fill:none;stroke:#ccc;stroke-linejoin:round;stroke-linecap:round;" d="M209.68112583111179,419.245335418731L232.9455320177767,364.0513027962297L256.5827652266671,302.9949079807848L261.6066093511099,285.8427929049358"></path><path class="path" style="fill:none;stroke:#ccc;stroke-linejoin:round;stroke-linecap:round;" d="M230.75517326222234,425.2417342066765L234.63257429333316,417.2116428613663L241.20365056000082,401.6299489242956L251.13017002666675,371.7973359087482L261.6066093511099,342.5029289443046"></path><path class="major_road" style="fill:none;stroke:#ccc;stroke-linejoin:round;stroke-linecap:round;" d="M174.92432668444417,425.2417342066765L183.44342414222228,405.05433576740324L195.5975850666673,362.09236252866685L218.92723598222256,293.2300212448463L220.5397128533341,196.41781599354L218.83402922666664,169.45550708193332"></path></g><g><path class="path" style="fill:none;stroke:#ccc;stroke-linejoin:round;stroke-linecap:round;" d="M287.8536317155558,203.68550833500922L293.90275015111,206.30247384868562L299.09436643555637,208.2913669673726"></path><path class="path" style="fill:none;stroke:#ccc;stroke-linejoin:round;stroke-linecap:round;" d="M509.8534820977784,425.2417342066765L515.082381084444,413.2339777322486L517.6082841599991,407.92543607391417"></path><path class="path" style="fill:none;stroke:#ccc;stroke-linejoin:round;stroke-linecap:round;" d="M485.0045610666675,386.84076507855207L485.7688564622222,381.3976195817813L492.48906353777784,346.8245721794665L493.001700693334,339.69161630701274L491.7993335466672,335.11575390584767L488.2388354844452,332.0502234566957L480.0832443733334,327.7883861511946"></path><path class="path" style="fill:none;stroke:#ccc;stroke-linejoin:round;stroke-linecap:round;" d="M437.9258288355559,394.6166796851903L449.7817281422231,401.9140684241429L461.47917596444495,393.34561732504517L468.2646277688891,388.57539294753224L478.38688142222145,386.4968301896006L485.0045610666675,386.84076507855207L495.620810524445,389.21840144507587L507.5885579377782,389.6969193574041L514.6163473066672,390.1903909193352L517.6082841599991,390.160483549349"></path><path class="path" style="fill:none;stroke:#ccc;stroke-linejoin:round;stroke-linecap:round;" d="M261.6066093511099,316.31879676226526L281.9722854399997,261.25851797219366L299.09436643555637,208.2913669673726L310.66132480000033,169.45550708193332"></path><path class="path" style="fill:none;stroke:#ccc;stroke-linejoin:round;stroke-linecap:round;" d="M339.74183253333285,425.2417342066765L355.5030948977783,420.74069720320404L373.678412231111,409.6002440303564L385.4690668088888,392.13436944875866L399.50600419555576,370.8253438193351L408.1276290844444,357.33707007486373L426.2097396622221,337.2242399007082L426.4241151999995,326.05374284181744L425.69710250666685,313.8813196113333L424.53201806222205,297.05821740441024L422.9102205155559,283.3006274588406L422.05271836444444,276.4965917561203"></path><path class="path" style="fill:none;stroke:#ccc;stroke-linejoin:round;stroke-linecap:round;" d="M261.6066093511099,285.8427929049358L266.360153884445,269.60282558668405L282.5501673244453,222.34818904288113L287.8536317155558,203.68550833500922L296.1210709333336,169.45550708193332"></path><path class="path" style="fill:none;stroke:#ccc;stroke-linejoin:round;stroke-linecap:round;" d="M261.6066093511099,342.5029289443046L264.57058417777716,334.2185256239027L285.2624839111113,284.3174937525764L287.26642915555567,271.9805027740076L306.28992796444436,218.32554823253304L316.96210147555576,181.05993039812893L319.6650973866663,178.42800106853247L322.91801315555495,178.29341374523938L326.67424540444426,179.8935072980821L339.44357091555594,190.07727150525898L391.13603754666656,245.54188220575452L422.05271836444444,276.4965917561203"></path><path class="path" style="fill:none;stroke:#ccc;stroke-linejoin:round;stroke-linecap:round;" d="M355.5030948977783,420.74069720320404L359.529626737778,425.2417342066765"></path><path class="path" style="fill:none;stroke:#ccc;stroke-linejoin:round;stroke-linecap:round;" d="M431.0658116266668,264.93719247635454L341.78306048000013,177.56066049728543L329.5356927999992,169.45550708193332"></path><path class="path" style="fill:none;stroke:#ccc;stroke-linejoin:round;stroke-linecap:round;" d="M414.00897535999957,425.2417342066765L414.0835407644445,425.0473373187706"></path><path class="path" style="fill:none;stroke:#ccc;stroke-linejoin:round;stroke-linecap:round;" d="M426.2097396622221,337.2242399007082L446.27715413333317,311.4587954496965L449.55803192888925,309.99331745225936L452.2610278400007,310.90550277289003L452.97871985777783,313.7616888117045L447.9921584355552,334.8615392362699"></path><path class="path" style="fill:none;stroke:#ccc;stroke-linejoin:round;stroke-linecap:round;" d="M399.50600419555576,370.8253438193351L402.6284305066665,378.332109907642L408.1742324622219,382.4892397671938L412.43378119111094,383.98460960108787"></path><path class="path" style="fill:none;stroke:#ccc;stroke-linejoin:round;stroke-linecap:round;" d="M408.1276290844444,357.33707007486373L415.7333003377789,358.38383284956217L423.36693361777725,363.9765340955928L425.1471826488896,369.4196934737265"></path><path class="path" style="fill:none;stroke:#ccc;stroke-linejoin:round;stroke-linecap:round;" d="M475.70252686222284,190.7502069287002L469.4669949155559,198.58616122603416L431.0658116266668,264.93719247635454L425.74370588444435,271.3524371813983L422.05271836444444,276.4965917561203"></path><path class="minor_road" style="fill:none;stroke:#ccc;stroke-linejoin:round;stroke-linecap:round;" d="M458.7109353244441,169.45550708193332L475.70252686222284,190.7502069287002"></path><path class="minor_road" style="fill:none;stroke:#ccc;stroke-linejoin:round;stroke-linecap:round;" d="M475.70252686222284,190.7502069287002L517.6082841599991,221.03223245684057"></path></g><g><path class="path" style="fill:none;stroke:#ccc;stroke-linejoin:round;stroke-linecap:round;" d="M552.2718765511108,374.11516264267266L550.6034756266663,367.6401995383203L542.8300322133337,364.5447762114927"></path><path class="path" style="fill:none;stroke:#ccc;stroke-linejoin:round;stroke-linecap:round;" d="M537.144420124444,373.0833559995517L542.8300322133337,364.5447762114927L544.7594120533331,361.61384268291295L547.2666737777772,360.22314419131726L554.3690285511111,352.10325379669666"></path><path class="path" style="fill:none;stroke:#ccc;stroke-linejoin:round;stroke-linecap:round;" d="M517.6082841599991,390.160483549349L527.1153732266657,390.0408540861681L532.0180485688888,381.5770640075207L537.144420124444,373.0833559995517L546.1295513600007,376.26849773991853L552.2718765511108,374.11516264267266L563.1863876266661,380.5602121958509L554.5740834133339,407.1777538191527L559.038687004444,414.3255928289145L565.7029700266667,417.9892312614247L573.4857341155557,417.76492692902684L578.4816162133338,413.89193753898144L584.8849203199998,413.89193753898144L605.6607061333325,420.3070423202589L609.3330523022214,425.2417342066765"></path><path class="path" style="fill:none;stroke:#ccc;stroke-linejoin:round;stroke-linecap:round;" d="M517.6082841599991,407.92543607391417L523.4803097599997,395.6185757322237L527.1153732266657,390.0408540861681"></path><path class="minor_road" style="fill:none;stroke:#ccc;stroke-linejoin:round;stroke-linecap:round;" d="M773.6099589688883,397.5176917165518L748.3416075377772,397.5176917165518L720.1279226311108,394.7213554000482"></path><path class="minor_road" style="fill:none;stroke:#ccc;stroke-linejoin:round;stroke-linecap:round;" d="M773.6099589688883,349.63588187564164L757.4106248533326,348.18536584451795L755.9286374400008,366.50371577590704"></path><path class="minor_road" style="fill:none;stroke:#ccc;stroke-linejoin:round;stroke-linecap:round;" d="M709.4930318222223,323.1676542824134L691.9328790755553,385.95849728398025"></path><path class="minor_road" style="fill:none;stroke:#ccc;stroke-linejoin:round;stroke-linecap:round;" d="M517.6082841599991,221.03223245684057L596.9272331377779,278.35087907873094L686.2193049599991,315.87018140405416L709.4930318222223,323.1676542824134L753.2163208533339,336.89525631349534L773.6099589688883,340.51407491229475"></path><path class="minor_road" style="fill:none;stroke:#ccc;stroke-linejoin:round;stroke-linecap:round;" d="M565.7775354311107,331.4371172003448L518.680161848888,304.49029522482306L532.2137827555562,281.38652579206973"></path><path class="minor_road" style="fill:none;stroke:#ccc;stroke-linejoin:round;stroke-linecap:round;" d="M646.5784718222221,368.53742342907935L565.7775354311107,331.4371172003448"></path><path class="minor_road" style="fill:none;stroke:#ccc;stroke-linejoin:round;stroke-linecap:round;" d="M773.6099589688883,236.13580982014537L760.5796545422227,246.54380012024194L773.6099589688883,288.8784362850711"></path><path class="minor_road" style="fill:none;stroke:#ccc;stroke-linejoin:round;stroke-linecap:round;" d="M667.2144475022214,169.45550708193332L596.9272331377779,278.35087907873094L565.7775354311107,331.4371172003448L554.3690285511111,352.10325379669666"></path></g><g><path class="minor_road" style="fill:none;stroke:#ccc;stroke-linejoin:round;stroke-linecap:round;" d="M795.9609389511106,406.6095152469352L775.8748831288885,397.5176917165518L773.6099589688883,397.5176917165518"></path><path class="minor_road" style="fill:none;stroke:#ccc;stroke-linejoin:round;stroke-linecap:round;" d="M779.127798897779,341.4860713193193L777.8508663466673,350.00972616672516L773.6099589688883,349.63588187564164"></path><path class="minor_road" style="fill:none;stroke:#ccc;stroke-linejoin:round;stroke-linecap:round;" d="M773.6099589688883,340.51407491229475L779.127798897779,341.4860713193193L790.4244576711108,343.5048326374963L816.4011804444435,348.11059697158635L830.6152106666668,346.68998817447573"></path><path class="minor_road" style="fill:none;stroke:#ccc;stroke-linejoin:round;stroke-linecap:round;" d="M826.5793581511116,174.53992178849876L790.5922298311107,222.55754574760795L773.6099589688883,236.13580982014537M773.6099589688883,288.8784362850711L790.4244576711108,343.5048326374963"></path><path class="minor_road" style="fill:none;stroke:#ccc;stroke-linejoin:round;stroke-linecap:round;" d="M820.9496701155549,425.2417342066765L793.2859050666675,411.24514429923147"></path><path class="minor_road" style="fill:none;stroke:#ccc;stroke-linejoin:round;stroke-linecap:round;" d="M923.6914767644448,202.3695481568575L986.0933996088888,240.78650859557092L1029.6116337777785,233.24968325998634"></path><path class="minor_road" style="fill:none;stroke:#ccc;stroke-linejoin:round;stroke-linecap:round;" d="M979.3452305066667,425.2417342066765L987.1000325688892,409.7497804304585L1008.481662293334,386.0781268198043L1023.1337642666667,370.34682458732277L1029.6116337777785,362.8849109476432"></path><path class="major_road" style="fill:none;stroke:#ccc;stroke-linejoin:round;stroke-linecap:round;" d="M786.0717021866667,425.2417342066765L793.2859050666675,411.24514429923147L795.9609389511106,406.6095152469352L830.6152106666668,346.68998817447573L857.7849799111118,298.71809866372496L883.4820824177777,254.14042670931667L923.6914767644448,202.3695481568575L945.6416676977778,169.45550708193332"></path></g><g><path class="path" style="fill:none;stroke:#ccc;stroke-linejoin:round;stroke-linecap:round;" d="M-5.514631395554716,576.4210213078186L5.614255217778009,562.454647843726"></path><path class="path" style="fill:none;stroke:#ccc;stroke-linejoin:round;stroke-linecap:round;" d="M-136.03205119999984,425.2417342066765L-121.34266652444421,500.4130997247994L-110.91283057777764,551.9574190117419L-100.50163598222207,603.8303200220689L-91.2741671822223,648.9888810431585L-84.98271118222237,681.4520197259262"></path><path class="minor_road" style="fill:none;stroke:#ccc;stroke-linejoin:round;stroke-linecap:round;" d="M-5.514631395554716,576.4210213078186L5.614255217778009,567.8527891533449"></path><path class="minor_road" style="fill:none;stroke:#ccc;stroke-linejoin:round;stroke-linecap:round;" d="M5.614255217778009,459.36577869206667L-61.22430919111139,503.50846147350967"></path><path class="major_road" style="fill:none;stroke:#ccc;stroke-linejoin:round;stroke-linecap:round;" d="M4.449170773333208,425.2417342066765L5.614255217778009,426.93149151466787"></path></g><g><path class="path" style="fill:none;stroke:#ccc;stroke-linejoin:round;stroke-linecap:round;" d="M107.74089728000126,531.8451620079577L112.67153464888906,536.9891203660518L115.75667825777873,541.0863402402028L122.30911317333357,553.6022849977016L128.31162823111117,558.9705266756937L153.27239736888987,570.9331670440733L183.6391583288887,581.9537309464067L186.83615004444346,583.2546647218987L189.50186325333289,592.3611942296848L192.97847523555538,604.2938696825877L192.32602794666582,610.2153399856761L182.72573212444513,611.0676724109799L172.6966852266669,612.2340218732134"></path><path class="path" style="fill:none;stroke:#ccc;stroke-linejoin:round;stroke-linecap:round;" d="M5.614255217778009,562.454647843726L15.335719822222018,550.252739305608"></path><path class="path" style="fill:none;stroke:#ccc;stroke-linejoin:round;stroke-linecap:round;" d="M261.6066093511099,586.7686800099909L257.7105669688899,587.4864361025393L245.08105159111165,585.6621392220259L231.92957838222264,580.1892456552014L217.58505870222234,569.3182118218392L211.32156472888892,558.2976275300607L204.73184711111116,543.179809300229L202.93295672888962,526.043250836432L205.84100750222296,509.9384354939684L211.73167445333365,483.9942009160295"></path><path class="path" style="fill:none;stroke:#ccc;stroke-linejoin:round;stroke-linecap:round;" d="M186.83615004444346,583.2546647218987L198.039602062222,587.441576349549L209.54131569777837,599.5686523206532"></path><path class="path" style="fill:none;stroke:#ccc;stroke-linejoin:round;stroke-linecap:round;" d="M241.63240163555565,681.4520197259262L242.39669703111122,680.7492265570909L244.91327943111082,674.6035215063021L244.6429798400004,666.5139110479504L242.11707676444348,658.1252290885895L238.4913339733339,653.1009868280962"></path><path class="path" style="fill:none;stroke:#ccc;stroke-linejoin:round;stroke-linecap:round;" d="M186.69633991111277,650.0954115707427L179.70583324444397,642.9029599297792L178.9974619022223,637.4600185174495L176.4156347733333,624.2563816290349L172.6966852266669,612.2340218732134L167.59827569777735,602.3200451070443L161.97790833777708,594.1107231350616"></path><path class="path" style="fill:none;stroke:#ccc;stroke-linejoin:round;stroke-linecap:round;" d="M183.81625116444502,569.1387723246589L207.35095694222127,568.675220281817L217.58505870222234,569.3182118218392"></path><path class="path" style="fill:none;stroke:#ccc;stroke-linejoin:round;stroke-linecap:round;" d="M180.54469404444353,588.6378363426775L183.6391583288887,581.9537309464067L184.28228494222185,576.8696195501834L183.81625116444502,569.1387723246589L181.92415402666666,545.7667380347848L184.7110360177785,530.7535656951368L194.91717575111124,506.1402655225247L211.73167445333365,483.9942009160295L233.7377894400006,465.28737466037273L256.5827652266671,451.4404023187235L261.6066093511099,449.6459762034938"></path><path class="path" style="fill:none;stroke:#ccc;stroke-linejoin:round;stroke-linecap:round;" d="M181.99871943111157,503.4187408601865L179.69651256888847,502.79069655481726L170.99100160000035,499.65047415252775"></path><path class="path" style="fill:none;stroke:#ccc;stroke-linejoin:round;stroke-linecap:round;" d="M158.12846933333367,560.8097839979455L181.99871943111157,503.4187408601865L201.21795242666758,459.76952403690666L217.45456924444443,425.2417342066765"></path><path class="path" style="fill:none;stroke:#ccc;stroke-linejoin:round;stroke-linecap:round;" d="M150.93290780444477,576.4509278573096L153.27239736888987,570.9331670440733L158.12846933333367,560.8097839979455"></path><path class="path" style="fill:none;stroke:#ccc;stroke-linejoin:round;stroke-linecap:round;" d="M159.20034702222256,593.0041835363954L151.6226377955545,608.9293645489961L135.7215652977775,637.7291750647128"></path><path class="path" style="fill:none;stroke:#ccc;stroke-linejoin:round;stroke-linecap:round;" d="M170.99100160000035,499.65047415252775L157.3828152888891,523.9497765228152L147.847764195556,540.802226530388L139.3566287644444,546.469545096159L131.30356508444402,543.7181298118085L129.56059875555547,533.7741468464956L137.23151473777762,513.5422089844942L162.1736425244444,476.39783000480384L173.49826332444445,458.7526838686317L186.80818801777787,435.1709216199815L192.62428956444455,425.2417342066765M207.15522275555668,425.2417342066765L198.51495651555615,445.75805133301765L190.8160785066666,462.55088019091636L178.17724245333284,485.20543250534683L170.99100160000035,499.65047415252775"></path><path class="path" style="fill:none;stroke:#ccc;stroke-linejoin:round;stroke-linecap:round;" d="M161.97790833777708,594.1107231350616L135.07843868444434,646.0431164633483L113.86458112000037,681.4520197259262"></path><path class="path" style="fill:none;stroke:#ccc;stroke-linejoin:round;stroke-linecap:round;" d="M211.73167445333365,483.9942009160295L217.61302072888793,452.4572435738519L230.75517326222234,425.2417342066765"></path><path class="minor_road" style="fill:none;stroke:#ccc;stroke-linejoin:round;stroke-linecap:round;" d="M5.614255217778009,567.8527891533449L62.8338824533339,523.7703358381987"></path><path class="minor_road" style="fill:none;stroke:#ccc;stroke-linejoin:round;stroke-linecap:round;" d="M114.44246300444411,610.0359015669674L99.32432725333274,648.7047718232498L85.44584135111108,657.527105204761L73.38488718222379,679.6427009962499L72.88157070222314,681.4520197259262"></path><path class="minor_road" style="fill:none;stroke:#ccc;stroke-linejoin:round;stroke-linecap:round;" d="M20.91880448000029,449.24223025888205L5.614255217778009,459.36577869206667"></path><path class="major_road" style="fill:none;stroke:#ccc;stroke-linejoin:round;stroke-linecap:round;" d="M190.21023459555545,681.4520197259262L186.69633991111277,650.0954115707427L182.72573212444513,611.0676724109799L181.56996835555492,601.0938810678199"></path><path class="major_road" style="fill:none;stroke:#ccc;stroke-linejoin:round;stroke-linecap:round;" d="M180.54469404444353,588.6378363426775L181.56996835555492,601.0938810678199"></path><path class="major_road" style="fill:none;stroke:#ccc;stroke-linejoin:round;stroke-linecap:round;" d="M97.23649592888887,544.8545840848237L107.74089728000126,531.8451620079577L141.01570901333343,484.9960838519037L167.69148245333326,442.36359203699976L174.92432668444417,425.2417342066765"></path><path class="major_road" style="fill:none;stroke:#ccc;stroke-linejoin:round;stroke-linecap:round;" d="M181.56996835555492,601.0938810678199L164.86731776000033,595.3667948953807L161.97790833777708,594.1107231350616"></path><path class="major_road" style="fill:none;stroke:#ccc;stroke-linejoin:round;stroke-linecap:round;" d="M24.973298346666525,455.43299873452634L41.13534975999937,472.97347894031554L71.64192085333252,517.0861669518054L97.23649592888887,544.8545840848237L125.76708380444416,564.3238108316436L150.93290780444477,576.4509278573096L169.3039593244439,584.0471874745563L180.54469404444353,588.6378363426775"></path><path class="major_road" style="fill:none;stroke:#ccc;stroke-linejoin:round;stroke-linecap:round;" d="M5.614255217778009,426.93149151466787L20.91880448000029,449.24223025888205L24.973298346666525,455.43299873452634"></path><path class="major_road" style="fill:none;stroke:#ccc;stroke-linejoin:round;stroke-linecap:round;" d="M240.0478867911106,612.0396303106099L211.0978685155551,608.0620786519721L192.97847523555538,604.2938696825877L181.56996835555492,601.0938810678199"></path><path class="major_road" style="fill:none;stroke:#ccc;stroke-linejoin:round;stroke-linecap:round;" d="M86.57364309333298,552.1966722691432L62.8338824533339,523.7703358381987L35.00234524444477,479.13431892637163L24.973298346666525,455.43299873452634"></path><path class="major_road" style="fill:none;stroke:#ccc;stroke-linejoin:round;stroke-linecap:round;" d="M240.0478867911106,612.0396303106099L261.6066093511099,618.8582849018276"></path><path class="major_road" style="fill:none;stroke:#ccc;stroke-linejoin:round;stroke-linecap:round;" d="M161.97790833777708,594.1107231350616L159.20034702222256,593.0041835363954L122.94291911111122,577.0789653882384L86.57364309333298,552.1966722691432"></path><path class="major_road" style="fill:none;stroke:#ccc;stroke-linejoin:round;stroke-linecap:round;" d="M209.54131569777837,599.5686523206532L240.0478867911106,612.0396303106099"></path><path class="major_road" style="fill:none;stroke:#ccc;stroke-linejoin:round;stroke-linecap:round;" d="M180.54469404444353,588.6378363426775L189.50186325333289,592.3611942296848L209.54131569777837,599.5686523206532"></path></g><g><path class="path" style="fill:none;stroke:#ccc;stroke-linejoin:round;stroke-linecap:round;" d="M405.48055722666595,451.4404023187235L441.9803227022221,445.2346766619012L488.08970467555537,442.8271526573226L501.4928361244447,435.58962197508663L509.39676899555525,426.2884865719825"></path><path class="path" style="fill:none;stroke:#ccc;stroke-linejoin:round;stroke-linecap:round;" d="M343.5726301866662,681.4520197259262L341.5686849422227,680.4800717066973L334.85779854222255,668.4578109271824L327.0377517511106,667.0671749189496"></path><path class="path" style="fill:none;stroke:#ccc;stroke-linejoin:round;stroke-linecap:round;" d="M291.0972268088899,520.824517250061L298.180940231111,521.9011617545038L321.2589329066668,525.4152086116374L343.703119644445,528.6750462045893L349.901368888889,529.5872023170814L395.60996181333303,535.0900431666523L432.5291576888894,538.8732436802238L429.05254570666693,567.6135364444926"></path><path class="path" style="fill:none;stroke:#ccc;stroke-linejoin:round;stroke-linecap:round;" d="M349.901368888889,529.5872023170814L356.23942826666735,494.28218584600836L358.4577490488882,482.1100624650717L367.7784246044439,481.631551027298L380.5477501155556,478.0576676800847L390.12008391111067,468.068728572689L396.2158057244442,448.9730662871152"></path><path class="path" style="fill:none;stroke:#ccc;stroke-linejoin:round;stroke-linecap:round;" d="M358.4577490488882,482.1100624650717L351.2528668444438,480.6894815405831"></path><path class="path" style="fill:none;stroke:#ccc;stroke-linejoin:round;stroke-linecap:round;" d="M312.4136118044444,587.5612023547292L314.58532920888865,567.9873688006774L321.2589329066668,525.4152086116374L323.90600476444433,508.8617891045287L324.9872031288887,503.44864773005247L326.292097706666,497.6168055385351"></path><path class="path" style="fill:none;stroke:#ccc;stroke-linejoin:round;stroke-linecap:round;" d="M351.2528668444438,480.6894815405831L347.75761351111123,479.94180724956095L329.871237119999,476.9062487948686L311.12735857777716,474.15480548515916"></path><path class="path" style="fill:none;stroke:#ccc;stroke-linejoin:round;stroke-linecap:round;" d="M328.88324551111054,483.7549452697858L329.871237119999,476.9062487948686L333.1800769422216,457.76575061678886L333.62746936888834,455.61244121566415L336.8897058133325,426.04922890104353"></path><path class="path" style="fill:none;stroke:#ccc;stroke-linejoin:round;stroke-linecap:round;" d="M314.82766677333257,495.7326708463952L326.292097706666,497.6168055385351L337.6633218844445,499.50093971565366L339.9468873955557,485.5792693719268L328.88324551111054,483.7549452697858L317.12987363555567,481.8259463030845L314.82766677333257,495.7326708463952"></path><path class="path" style="fill:none;stroke:#ccc;stroke-linejoin:round;stroke-linecap:round;" d="M343.06931370666643,506.43933410197496L347.75761351111123,479.94180724956095L347.1890523022221,471.1491514714435L343.7497230222225,463.53781275078654L338.0175075555553,459.2012898446992L333.1800769422216,457.76575061678886L329.21878983111037,457.7358435476199L321.1750468266664,460.0386875839904L315.0047596088889,464.8985831653699L311.12735857777716,474.15480548515916L306.5975102577777,500.4130997247994L324.9872031288887,503.44864773005247L343.06931370666643,506.43933410197496"></path><path class="path" style="fill:none;stroke:#ccc;stroke-linejoin:round;stroke-linecap:round;" d="M517.6082841599991,425.75015680119395L509.39676899555525,426.2884865719825"></path><path class="path" style="fill:none;stroke:#ccc;stroke-linejoin:round;stroke-linecap:round;" d="M509.39676899555525,426.2884865719825L509.8534820977784,425.2417342066765"></path><path class="path" style="fill:none;stroke:#ccc;stroke-linejoin:round;stroke-linecap:round;" d="M359.529626737778,425.2417342066765L371.3016399644439,438.3859415575862L387.2213538133328,446.58049716055393L396.2158057244442,448.9730662871152L405.48055722666595,451.4404023187235"></path><path class="path" style="fill:none;stroke:#ccc;stroke-linejoin:round;stroke-linecap:round;" d="M432.5291576888894,538.8732436802238L441.23466865777846,539.5311913788319M441.23466865777846,539.5311913788319L459.9505851733338,541.505034102127L474.3323875555552,543.0452291658148L476.382936177778,524.3684714399278L443.41570673777824,520.7347968658432L441.23466865777846,539.5311913788319"></path><path class="path" style="fill:none;stroke:#ccc;stroke-linejoin:round;stroke-linecap:round;" d="M459.9505851733338,541.505034102127L457.4806061511108,564.5481103546917L455.81220522666626,564.3686707345769"></path><path class="path" style="fill:none;stroke:#ccc;stroke-linejoin:round;stroke-linecap:round;" d="M261.6066093511099,449.6459762034938L284.3583783822214,441.52619213052094L313.45752746666676,430.3110048826784L336.8897058133325,426.04922890104353L339.74183253333285,425.2417342066765"></path><path class="path" style="fill:none;stroke:#ccc;stroke-linejoin:round;stroke-linecap:round;" d="M386.29860693333285,610.783561617136L367.6852178488889,608.2116107111797L352.1662930488892,600.675190855749L337.23457080888966,592.6153993112966L327.1868825600004,589.7144701573998L312.4136118044444,587.5612023547292L298.5444465777782,586.9630722915754L281.16138666666666,586.0808303514495L267.1058079288896,585.7369054956362L261.6066093511099,586.7686800099909"></path><path class="path" style="fill:none;stroke:#ccc;stroke-linejoin:round;stroke-linecap:round;" d="M313.45752746666676,430.3110048826784L302.3659235555551,446.43096156511456L298.4419191466668,476.45764398481697L291.0972268088899,520.824517250061L288.40355157333306,540.0396054694429L283.0628044799996,570.9780269097537L276.48240753777736,579.3369093770161L267.1058079288896,585.7369054956362"></path><path class="path" style="fill:none;stroke:#ccc;stroke-linejoin:round;stroke-linecap:round;" d="M337.23457080888966,592.6153993112966L340.5247692800003,583.3443842856213L343.40485802666626,571.591111658141L349.901368888889,529.5872023170814"></path><path class="path" style="fill:none;stroke:#ccc;stroke-linejoin:round;stroke-linecap:round;" d="M381.0231045688888,646.0580695867538L383.1668599466666,631.3740871325135L386.29860693333285,610.783561617136L391.4622611911118,577.0490588415414L394.2025398044443,547.8602056615055L395.60996181333303,535.0900431666523L405.48055722666595,451.4404023187235L408.95716920888935,438.5205237567425L414.00897535999957,425.2417342066765"></path><path class="path" style="fill:none;stroke:#ccc;stroke-linejoin:round;stroke-linecap:round;" d="M386.29860693333285,610.783561617136L397.3902108444445,614.7162521136925L413.79459982222306,623.3741445029154L434.439896177777,625.4825415061787L474.0248052622219,629.7740993574262L474.0527672888884,635.1871406026185L473.43760270222265,648.1365533480421"></path><path class="path" style="fill:none;stroke:#ccc;stroke-linejoin:round;stroke-linecap:round;" d="M394.2025398044443,547.8602056615055L405.8533842488887,551.5536791216582L429.05254570666693,567.6135364444926L430.34811960888965,567.7780226841569"></path><path class="minor_road" style="fill:none;stroke:#ccc;stroke-linejoin:round;stroke-linecap:round;" d="M517.6082841599991,557.4452885203063L512.6683261155558,557.3406153032556"></path><path class="minor_road" style="fill:none;stroke:#ccc;stroke-linejoin:round;stroke-linecap:round;" d="M513.5444696177783,648.4206625912338L516.1542587733338,679.3286869516596L515.6323009422222,681.4520197259262"></path><path class="minor_road" style="fill:none;stroke:#ccc;stroke-linejoin:round;stroke-linecap:round;" d="M415.826507093333,649.1832715542987L413.77595847111115,664.4204797931015L403.4393292800005,681.4520197259262"></path><path class="major_road" style="fill:none;stroke:#ccc;stroke-linejoin:round;stroke-linecap:round;" d="M261.6066093511099,618.8582849018276L306.8212064711106,633.1535123484209L354.5337446399999,642.3197878431529L381.0231045688888,646.0580695867538L415.826507093333,649.1832715542987L419.0141781333341,649.1234590876848L473.43760270222265,648.1365533480421L513.5444696177783,648.4206625912338L517.6082841599991,648.3907563574612"></path></g><g><path class="path" style="fill:none;stroke:#ccc;stroke-linejoin:round;stroke-linecap:round;" d="M675.9479204977779,681.4520197259262L670.7749455644444,664.3008551346138"></path><path class="path" style="fill:none;stroke:#ccc;stroke-linejoin:round;stroke-linecap:round;" d="M609.3330523022214,425.2417342066765L612.5580060444436,429.5782786766067L618.9147067733329,444.9505589660257L611.5140903822221,462.35648436751217L596.8433470577775,468.741636602208L582.5454307555547,470.0276384372264L566.9799025777784,464.15090714674443L560.4554296888891,457.7059364775196L556.4848219022224,446.92442902363837L549.4290705066669,433.6456558154896L539.2788548266672,427.8287076167762L524.6081115022216,425.2716414183378L517.6082841599991,425.75015680119395"></path><path class="minor_road" style="fill:none;stroke:#ccc;stroke-linejoin:round;stroke-linecap:round;" d="M542.2614710044445,648.2113189408556L545.4677833955548,558.0882811173797L517.6082841599991,557.4452885203063"></path><path class="minor_road" style="fill:none;stroke:#ccc;stroke-linejoin:round;stroke-linecap:round;" d="M552.728589653334,648.3458970040083L559.1971384888884,602.0807936014608L576.710687857777,596.2490356406197"></path><path class="minor_road" style="fill:none;stroke:#ccc;stroke-linejoin:round;stroke-linecap:round;" d="M591.5119206400004,648.7047718232498L596.0883723377783,636.0992824845016L640.0726402844439,634.8432182194665L643.9500413155556,647.8225378589705"></path><path class="minor_road" style="fill:none;stroke:#ccc;stroke-linejoin:round;stroke-linecap:round;" d="M660.8111433955555,681.4520197259262L670.7749455644444,664.3008551346138L671.6697304177778,647.0898349871859"></path><path class="minor_road" style="fill:none;stroke:#ccc;stroke-linejoin:round;stroke-linecap:round;" d="M548.0216484977782,648.3010376514867L550.9296992711115,558.5069739371538L554.8071003022224,520.9441444231197L585.0154097777786,520.5254493001848"></path><path class="major_road" style="fill:none;stroke:#ccc;stroke-linejoin:round;stroke-linecap:round;" d="M671.6697304177778,647.0898349871859L773.6099589688883,449.4067193483934"></path><path class="major_road" style="fill:none;stroke:#ccc;stroke-linejoin:round;stroke-linecap:round;" d="M671.6697304177778,647.0898349871859L706.2028333511107,646.2524601798505L741.5934384355551,656.7495440747589L773.6099589688883,674.5437092659995"></path><path class="major_road" style="fill:none;stroke:#ccc;stroke-linejoin:round;stroke-linecap:round;" d="M517.6082841599991,648.3907563574612L542.2614710044445,648.2113189408556L548.0216484977782,648.3010376514867L552.728589653334,648.3458970040083L591.5119206400004,648.7047718232498L643.9500413155556,647.8225378589705L671.6697304177778,647.0898349871859"></path></g><g><path class="minor_road" style="fill:none;stroke:#ccc;stroke-linejoin:round;stroke-linecap:round;" d="M982.2066779022225,681.4520197259262L971.2921668266672,676.143686552532"></path><path class="minor_road" style="fill:none;stroke:#ccc;stroke-linejoin:round;stroke-linecap:round;" d="M906.0194759111109,585.1836350401863L849.797160959999,554.8583642086014"></path><path class="minor_road" style="fill:none;stroke:#ccc;stroke-linejoin:round;stroke-linecap:round;" d="M987.510142293333,631.1796961147338L971.2921668266672,676.143686552532"></path><path class="minor_road" style="fill:none;stroke:#ccc;stroke-linejoin:round;stroke-linecap:round;" d="M991.1918091377775,620.8620110535994L987.510142293333,631.1796961147338"></path><path class="minor_road" style="fill:none;stroke:#ccc;stroke-linejoin:round;stroke-linecap:round;" d="M959.8277358933337,495.10462583135813L1016.6838567822215,523.994636693038L1029.6116337777785,531.0376798193902"></path><path class="minor_road" style="fill:none;stroke:#ccc;stroke-linejoin:round;stroke-linecap:round;" d="M959.8277358933337,495.10462583135813L906.0194759111109,585.1836350401863L848.5109077333336,681.4520197259262"></path><path class="minor_road" style="fill:none;stroke:#ccc;stroke-linejoin:round;stroke-linecap:round;" d="M959.8277358933337,495.10462583135813L947.8693091555551,489.4223111756146L820.9496701155549,425.2417342066765"></path><path class="minor_road" style="fill:none;stroke:#ccc;stroke-linejoin:round;stroke-linecap:round;" d="M1029.6116337777785,619.1872549084947L1019.2470425599995,620.2788370857015L999.4126449777777,623.7928333235905L991.1918091377775,620.8620110535994L975.1975298844445,612.1742090862244L972.5224960000005,595.5611869357526L979.3452305066667,578.7088720491156L985.8510620444449,568.3761544274166L993.6524674844441,557.4153818869963L1005.5922528711117,540.2040923722088L1016.6838567822215,523.994636693038"></path><path class="minor_road" style="fill:none;stroke:#ccc;stroke-linejoin:round;stroke-linecap:round;" d="M947.8693091555551,489.4223111756146L958.9609130666668,466.9472150327638L979.1960996977778,425.5408063242212L979.3452305066667,425.2417342066765"></path><path class="major_road" style="fill:none;stroke:#ccc;stroke-linejoin:round;stroke-linecap:round;" d="M773.6099589688883,449.4067193483934L786.0717021866667,425.2417342066765"></path><path class="major_road" style="fill:none;stroke:#ccc;stroke-linejoin:round;stroke-linecap:round;" d="M773.6099589688883,674.5437092659995L774.7564020622222,675.1717377789319L783.9745501866664,681.4520197259262"></path></g><g><path class="path" style="fill:none;stroke:#ccc;stroke-linejoin:round;stroke-linecap:round;" d="M-84.98271118222237,681.4520197259262L-83.75238200888816,687.8070610584691L-75.23328455111186,735.5668765744194L-70.39585393777816,764.6353046093136L-64.84073130666638,794.6456352276728L-61.35479864888839,816.028102254495L-59.472022186667346,831.2350328220055L-58.940743680000196,837.6946037011221L-61.4759674311108,848.7745478581637L-71.86852067555446,872.668887165375L-97.06230670222158,937.2489766608924"></path><path class="path" style="fill:none;stroke:#ccc;stroke-linejoin:round;stroke-linecap:round;" d="M5.614255217778009,897.2061035446823L-1.0127451022235618,916.9733764473349L-8.49724757333388,937.2489766608924"></path><path class="minor_road" style="fill:none;stroke:#ccc;stroke-linejoin:round;stroke-linecap:round;" d="M3.908571591110558,825.8370996909216L-8.534530275554971,827.1529397414997"></path><path class="minor_road" style="fill:none;stroke:#ccc;stroke-linejoin:round;stroke-linecap:round;" d="M3.908571591110558,825.8370996909216L2.1562845866665157,800.4174126451835"></path><path class="minor_road" style="fill:none;stroke:#ccc;stroke-linejoin:round;stroke-linecap:round;" d="M2.1562845866665157,800.4174126451835L5.614255217778009,801.0753351477906"></path><path class="minor_road" style="fill:none;stroke:#ccc;stroke-linejoin:round;stroke-linecap:round;" d="M2.1562845866665157,800.4174126451835L5.055014684445268,775.2817349499092L5.614255217778009,774.5340929087251"></path></g><g><path class="path" style="fill:none;stroke:#ccc;stroke-linejoin:round;stroke-linecap:round;" d="M191.66425998222167,694.4013447528705L206.65190627555603,693.3247274411842L221.18283946666634,691.6499890629202L235.69513130666655,686.8949260786176L241.63240163555565,681.4520197259262"></path><path class="path" style="fill:none;stroke:#ccc;stroke-linejoin:round;stroke-linecap:round;" d="M86.59228444444489,729.2866443889216L72.4901023288885,736.3892875052989L61.967059626666924,741.2938451776281L51.723637191111266,746.9011857593432L41.20059448888878,754.2131509678438L30.500458951110886,767.9398865876719L30.500458951110886,773.8462621606886L30.845323946667122,778.302207951434L34.42446336000103,793.464364121668L29.512467342222408,805.5761214923114L10.721985422222133,849.3876076731831L11.915031893333435,859.4806576576084L9.967010702222069,884.1973526403308L5.614255217778009,897.2061035446823"></path><path class="path" style="fill:none;stroke:#ccc;stroke-linejoin:round;stroke-linecap:round;" d="M113.86458112000037,681.4520197259262L93.59211178666646,715.2906775986776"></path><path class="minor_road" style="fill:none;stroke:#ccc;stroke-linejoin:round;stroke-linecap:round;" d="M238.03462087111075,937.2489766608924L233.63526200888919,931.1782649187371"></path><path class="minor_road" style="fill:none;stroke:#ccc;stroke-linejoin:round;stroke-linecap:round;" d="M72.88157070222314,681.4520197259262L70.32770559999972,690.7378545962274L67.7924818488882,701.1002930980176"></path><path class="minor_road" style="fill:none;stroke:#ccc;stroke-linejoin:round;stroke-linecap:round;" d="M5.614255217778009,801.0753351477906L29.512467342222408,805.5761214923114L40.734560711111044,815.5346614606678L50.77292828444388,823.100749691017L61.18412288000127,832.0424795150757L73.46877326222238,838.6366239460185L81.03716181333311,835.5264613796026L78.80952035555492,828.9323139488697L77.62579455999912,803.452827308327L78.52057941333351,742.8489480949938L86.59228444444489,729.2866443889216"></path><path class="minor_road" style="fill:none;stroke:#ccc;stroke-linejoin:round;stroke-linecap:round;" d="M5.614255217778009,774.5340929087251L14.049466595555714,763.1250652521849L23.537914311111308,755.3495702128857L32.094294471110516,715.5448781084269L51.639751111110854,704.6441537393257L67.7924818488882,701.1002930980176L86.8532633599998,705.1525555374101L93.59211178666646,715.2906775986776"></path><path class="minor_road" style="fill:none;stroke:#ccc;stroke-linejoin:round;stroke-linecap:round;" d="M261.6066093511099,889.9989595524967L233.63526200888919,931.1782649187371L229.89767111111087,937.2489766608924"></path><path class="minor_road" style="fill:none;stroke:#ccc;stroke-linejoin:round;stroke-linecap:round;" d="M81.69892977777818,871.5922979563475L161.17633024000042,869.1699716141447L179.9854535111117,864.4748428054154"></path><path class="minor_road" style="fill:none;stroke:#ccc;stroke-linejoin:round;stroke-linecap:round;" d="M86.59228444444489,729.2866443889216L90.06889642666738,720.6288862647489L93.59211178666646,715.2906775986776"></path><path class="minor_road" style="fill:none;stroke:#ccc;stroke-linejoin:round;stroke-linecap:round;" d="M93.59211178666646,715.2906775986776L140.81065415111243,717.42895215936L147.26056163555495,720.0307678524405L152.5640260266664,722.5129589159042L163.43193372444512,726.953985250555L196.8651969422217,737.3911334145814"></path><path class="minor_road" style="fill:none;stroke:#ccc;stroke-linejoin:round;stroke-linecap:round;" d="M163.43193372444512,726.953985250555L158.22167608888958,733.622995804064L154.8475915377776,739.1406251676381L152.6199500800003,747.4693960174918L141.8825318399995,748.6357221808285L127.23042986666678,749.1590736014768L104.71167772444369,748.6058163847774L104.99129799111142,788.5000326689333L113.2400958577773,792.5821488527581L137.80007594666768,791.6700278660282L157.00066759111087,791.6700278660282"></path><path class="minor_road" style="fill:none;stroke:#ccc;stroke-linejoin:round;stroke-linecap:round;" d="M103.60251733333371,933.3762818602845L166.7034908444448,931.3576948950067L179.8829260800003,901.273202188313L184.15179548444485,889.9541017832235L183.15448319999905,877.8125888211653L179.9854535111117,864.4748428054154L186.32351288888913,843.2420543702319L206.59598222222303,838.262806401588"></path><path class="minor_road" style="fill:none;stroke:#ccc;stroke-linejoin:round;stroke-linecap:round;" d="M152.6199500800003,747.4693960174918L155.40683207111033,753.4954123981297L155.97539327999948,774.3247531251982"></path><path class="major_road" style="fill:none;stroke:#ccc;stroke-linejoin:round;stroke-linecap:round;" d="M207.705142613333,937.2489766608924L206.99677127111045,911.9792296942323L206.95948856888936,851.1370707368478L206.59598222222303,838.262806401588L203.8277415822231,797.0380824189633L196.8651969422217,737.3911334145814L191.9998043022224,697.3769944906235L191.66425998222167,694.4013447528705L190.21023459555545,681.4520197259262"></path></g><g><path class="path" style="fill:none;stroke:#ccc;stroke-linejoin:round;stroke-linecap:round;" d="M283.42631082666685,857.7760547092184L320.27094129777834,879.621855052188L342.98542762666693,893.0941447289661"></path><path class="path" style="fill:none;stroke:#ccc;stroke-linejoin:round;stroke-linecap:round;" d="M440.6474660977774,884.6010728683323L493.86852352000005,779.872255272232"></path><path class="path" style="fill:none;stroke:#ccc;stroke-linejoin:round;stroke-linecap:round;" d="M395.3023795199997,693.8181770648807L382.9058810311117,685.5042938236147L354.13295559111066,686.6257714694366L343.5726301866662,681.4520197259262"></path><path class="minor_road" style="fill:none;stroke:#ccc;stroke-linejoin:round;stroke-linecap:round;" d="M361.5894960355554,860.5572487758473L342.98542762666693,893.0941447289661L337.5794358044441,902.5441700220108L318.14582727111065,937.2489766608924"></path><path class="minor_road" style="fill:none;stroke:#ccc;stroke-linejoin:round;stroke-linecap:round;" d="M403.4393292800005,681.4520197259262L399.52464554666585,687.8967792447656L395.3023795199997,693.8181770648807L339.55541902222194,771.9921093685552L283.42631082666685,857.7760547092184L281.413044906667,860.8413491826504L261.6066093511099,889.9989595524967"></path><path class="minor_road" style="fill:none;stroke:#ccc;stroke-linejoin:round;stroke-linecap:round;" d="M515.6323009422222,681.4520197259262L507.7283680711107,714.0047219470143L504.39156622222254,727.6866795523092L495.8072240355559,767.7155937440693L493.86852352000005,779.872255272232L500.2625069511114,792.507384843193L517.6082841599991,823.2801825106144M517.6082841599991,852.0491837812588L510.25427114666763,864.5346533823758L492.172160568889,874.2688180375844L455.62579171555626,878.3359303437173L440.6474660977774,884.6010728683323L415.5282454755561,913.7735343361273L405.1356922311106,925.914983372204L395.4328689777785,937.2489766608924"></path><path class="minor_road" style="fill:none;stroke:#ccc;stroke-linejoin:round;stroke-linecap:round;" d="M399.52464554666585,687.8967792447656L425.1378619733323,707.5749400500208L485.1164091733335,736.9724515583366"></path><path class="minor_road" style="fill:none;stroke:#ccc;stroke-linejoin:round;stroke-linecap:round;" d="M415.5282454755561,913.7735343361273L447.6938968177774,925.9897459214553L458.4406357333337,929.6082523772493L454.8801376711117,937.2489766608924"></path></g><g><path class="minor_road" style="fill:none;stroke:#ccc;stroke-linejoin:round;stroke-linecap:round;" d="M690.5534190933331,842.3299401532859L659.8324724622225,827.4669469883665"></path><path class="path" style="fill:none;stroke:#ccc;stroke-linejoin:round;stroke-linecap:round;" d="M635.2165683200001,910.3344500251114L626.8279603200008,920.2180746262893"></path><path class="path" style="fill:none;stroke:#ccc;stroke-linejoin:round;stroke-linecap:round;" d="M620.0611498666667,915.687458771281L603.3491785955557,937.2489766608924"></path><path class="path" style="fill:none;stroke:#ccc;stroke-linejoin:round;stroke-linecap:round;" d="M618.6444071822225,755.543957695365L633.5854500977775,724.5465605566278"></path><path class="path" style="fill:none;stroke:#ccc;stroke-linejoin:round;stroke-linecap:round;" d="M673.953295928889,777.6293304171413L635.9062983111116,754.3626798279583L626.0729856000007,759.0429314598441L618.6444071822225,755.543957695365"></path><path class="path" style="fill:none;stroke:#ccc;stroke-linejoin:round;stroke-linecap:round;" d="M618.6444071822225,755.543957695365L604.7006765511114,782.8179621268064"></path><path class="path" style="fill:none;stroke:#ccc;stroke-linejoin:round;stroke-linecap:round;" d="M768.6513595733331,753.1215901970863L773.6099589688883,755.6037692306563"></path><path class="path" style="fill:none;stroke:#ccc;stroke-linejoin:round;stroke-linecap:round;" d="M768.6513595733331,753.1215901970863L741.2206114133342,739.2004368454218L737.5389445688888,727.4025736059994L706.2028333511107,708.621649143286L695.8941661866666,693.5041636722162L676.3580302222226,682.8127467185259L675.9479204977779,681.4520197259262"></path><path class="path" style="fill:none;stroke:#ccc;stroke-linejoin:round;stroke-linecap:round;" d="M575.1914177422232,921.0255108010024L563.093180871112,924.0160143179819L560.0266786133334,925.1374527979642L543.5477242311117,916.4799429485574"></path><path class="path" style="fill:none;stroke:#ccc;stroke-linejoin:round;stroke-linecap:round;" d="M628.2167409777776,884.3618312552571L610.5540608000001,872.8782239351422"></path><path class="path" style="fill:none;stroke:#ccc;stroke-linejoin:round;stroke-linecap:round;" d="M645.2083325155563,903.1123673263937L642.7942775466663,901.3778701368719L635.2165683200001,910.3344500251114"></path><path class="path" style="fill:none;stroke:#ccc;stroke-linejoin:round;stroke-linecap:round;" d="M670.1597809777777,903.1721775662154L650.194893937778,890.8063992979005L645.4506700800002,895.8603718411177"></path><path class="path" style="fill:none;stroke:#ccc;stroke-linejoin:round;stroke-linecap:round;" d="M610.5540608000001,872.8782239351422L603.1814064355558,884.9748878711835"></path><path class="path" style="fill:none;stroke:#ccc;stroke-linejoin:round;stroke-linecap:round;" d="M600.3479210666665,937.2489766608924L595.7807900444441,934.3930513653904"></path><path class="path" style="fill:none;stroke:#ccc;stroke-linejoin:round;stroke-linecap:round;" d="M595.7807900444441,934.3930513653904L575.1914177422232,921.0255108010024L583.7011945244458,911.2465551616624"></path><path class="path" style="fill:none;stroke:#ccc;stroke-linejoin:round;stroke-linecap:round;" d="M685.5016129422211,912.7567617669702L670.1597809777777,903.1721775662154"></path><path class="minor_road" style="fill:none;stroke:#ccc;stroke-linejoin:round;stroke-linecap:round;" d="M715.5514709333338,855.5630607670173L690.5534190933331,842.3299401532859"></path><path class="minor_road" style="fill:none;stroke:#ccc;stroke-linejoin:round;stroke-linecap:round;" d="M678.1289585777777,926.004698430188L664.2038692977785,917.1079492149875L645.2083325155563,903.1123673263937L645.4506700800002,895.8603718411177L628.2167409777776,884.3618312552571"></path><path class="minor_road" style="fill:none;stroke:#ccc;stroke-linejoin:round;stroke-linecap:round;" d="M737.0542694400001,812.9777404246852L673.953295928889,777.6293304171413"></path><path class="minor_road" style="fill:none;stroke:#ccc;stroke-linejoin:round;stroke-linecap:round;" d="M773.6099589688883,833.5377509212121L737.0542694400001,812.9777404246852"></path><path class="minor_road" style="fill:none;stroke:#ccc;stroke-linejoin:round;stroke-linecap:round;" d="M649.47720192,937.2489766608924L642.4587332266665,932.0455097807571L626.8279603200008,920.2180746262893L620.0611498666667,915.687458771281L595.3520389688883,896.6080005969852"></path><path class="minor_road" style="fill:none;stroke:#ccc;stroke-linejoin:round;stroke-linecap:round;" d="M583.7011945244458,911.2465551616624L595.3520389688883,896.6080005969852L603.1814064355558,884.9748878711835"></path><path class="minor_road" style="fill:none;stroke:#ccc;stroke-linejoin:round;stroke-linecap:round;" d="M672.4060637866678,937.2489766608924L678.1289585777777,926.004698430188L685.5016129422211,912.7567617669702L704.4691876977777,876.6911425702274L715.5514709333338,855.5630607670173L737.0542694400001,812.9777404246852L768.6513595733331,753.1215901970863L773.6099589688883,743.7909814193845"></path><path class="minor_road" style="fill:none;stroke:#ccc;stroke-linejoin:round;stroke-linecap:round;" d="M633.5854500977775,724.5465605566278L641.582589724444,714.5579819660634L660.8111433955555,681.4520197259262"></path><path class="minor_road" style="fill:none;stroke:#ccc;stroke-linejoin:round;stroke-linecap:round;" d="M517.6082841599991,823.2801825106144L518.3725795555547,824.6259285164997L517.7108115911105,851.869751716964L517.6082841599991,852.0491837812588"></path><path class="minor_road" style="fill:none;stroke:#ccc;stroke-linejoin:round;stroke-linecap:round;" d="M773.6099589688883,910.8428365066648L770.2824777955566,909.8559685889632L704.4691876977777,876.6911425702274"></path></g><g><path class="path" style="fill:none;stroke:#ccc;stroke-linejoin:round;stroke-linecap:round;" d="M897.090268728889,922.4160951003432L918.4998604799994,921.5039914492518L943.2555747555552,933.4959018081427"></path><path class="path" style="fill:none;stroke:#ccc;stroke-linejoin:round;stroke-linecap:round;" d="M773.6099589688883,755.6037692306563L865.437254542222,801.4940130738541L875.0561917155546,791.9242255333811"></path><path class="path" style="fill:none;stroke:#ccc;stroke-linejoin:round;stroke-linecap:round;" d="M1002.6189573688889,806.8022488197312L1016.1432575999997,783.7599899340421L1013.6546372266666,696.7489680228755"></path><path class="path" style="fill:none;stroke:#ccc;stroke-linejoin:round;stroke-linecap:round;" d="M941.046574648889,770.9454099861905L871.0949046044452,907.3439405178651L855.7623933155555,937.2489766608924"></path><path class="path" style="fill:none;stroke:#ccc;stroke-linejoin:round;stroke-linecap:round;" d="M897.6308679111107,937.2489766608924L897.090268728889,922.4160951003432L871.0949046044452,907.3439405178651"></path><path class="minor_road" style="fill:none;stroke:#ccc;stroke-linejoin:round;stroke-linecap:round;" d="M934.1585954133343,767.2819608943537L875.3824153599999,877.0500053921714"></path><path class="minor_road" style="fill:none;stroke:#ccc;stroke-linejoin:round;stroke-linecap:round;" d="M813.0830199466673,853.828551501967L802.4854118400008,848.759595178999L790.2939682133338,842.9130951603875L773.6099589688883,833.5377509212121"></path><path class="minor_road" style="fill:none;stroke:#ccc;stroke-linejoin:round;stroke-linecap:round;" d="M952.5855709866664,879.5470919962972L978.5809351111111,864.6841798266396L988.4049271466665,841.0141030270606L1002.6189573688889,806.8022488197312"></path><path class="minor_road" style="fill:none;stroke:#ccc;stroke-linejoin:round;stroke-linecap:round;" d="M943.2555747555552,933.4959018081427L943.1716886755557,937.2489766608924"></path><path class="minor_road" style="fill:none;stroke:#ccc;stroke-linejoin:round;stroke-linecap:round;" d="M1013.6546372266666,696.7489680228755L982.2066779022225,681.4520197259262"></path><path class="minor_road" style="fill:none;stroke:#ccc;stroke-linejoin:round;stroke-linecap:round;" d="M848.5109077333336,681.4520197259262L830.7736621511103,711.1487032920122"></path><path class="minor_road" style="fill:none;stroke:#ccc;stroke-linejoin:round;stroke-linecap:round;" d="M773.6099589688883,743.7909814193845L784.70156288,722.8867827933282L800.6678801066673,692.8312777820975"></path><path class="minor_road" style="fill:none;stroke:#ccc;stroke-linejoin:round;stroke-linecap:round;" d="M803.035331697778,937.2489766608924L806.1950407111108,930.4605449419469L793.3511497955551,916.6593733187765L773.6099589688883,910.8428365066648"></path><path class="minor_road" style="fill:none;stroke:#ccc;stroke-linejoin:round;stroke-linecap:round;" d="M895.9904290133336,747.0208089770749L875.0561917155546,791.9242255333811"></path><path class="minor_road" style="fill:none;stroke:#ccc;stroke-linejoin:round;stroke-linecap:round;" d="M806.1950407111108,930.4605449419469L815.6928091022228,928.2176695438102L835.2103037155548,937.2489766608924"></path><path class="major_road" style="fill:none;stroke:#ccc;stroke-linejoin:round;stroke-linecap:round;" d="M783.9745501866664,681.4520197259262L800.6678801066673,692.8312777820975L830.7736621511103,711.1487032920122L895.9904290133336,747.0208089770749L934.1585954133343,767.2819608943537L941.046574648889,770.9454099861905L949.2580898133328,775.3116406295449L960.5733899377783,781.9806039566174L1002.6189573688889,806.8022488197312L1029.6116337777785,822.7418840350583"></path></g><path class="waypath" style="fill:none;stroke:orange; stroke-width:5;stroke-linejoin:round; stroke-linecap:round}" d="M510.60845681777755,506.7832629503682L498.66867143111085,636.1590950656682L474.0434466133329,635.1871406026185L433.3959805155555,633.5871537160128L383.1575392711111,631.3740871325135L317.98737578666714,620.9517301227897L257.7105669688899,602.3649047613144L184.27296426666635,576.8696195501834L183.11720049777796,576.4210213078186L157.3362119111107,567.6733496217057L183.41546211555487,504.2262263158336L203.18461496888904,464.0761395385489L232.6006670222223,399.1625948967412L245.71485752888748,367.1616800837219L292.3928007111117,239.76963581983L315.98343054222187,164.08695921115577L316.2630508088878,163.81778399646282L324.07377692444425,167.52641933504492L340.59001400888883,179.59442441817373L424.2523977955552,264.8624226907268L422.31369727999936,267.8831214476377L425.73438520888885,271.3524371813983L428.9406976,274.80679722037166L477.6785100799998,314.6439659325406L522.8465038222221,344.22261429578066L547.2573531022226,360.22314419131726L642.6637880888884,405.18891861848533L613.5180356266665,483.82971265912056L557.323682702222,484.3829913288355L557.1652312177766,507.0823315028101L510.60845681777755,506.7832629503682"></path><path class="center" style="fill:none; stroke:red; stroke-width:1;stroke-linejoin:round; stroke-linecap:round}" d="M400,400m0,4.5a4.5,4.5 0 1,1 0,-9a4.5,4.5 0 1,1 0,9z"></path></svg>
