<svg xmlns="http://www.w3.org/2000/svg" version="1.1" width="800" height="800"><g><path class="path" style="fill:none;stroke:#ccc;stroke-linejoin:round;stroke-linecap:round;" d="M-82.6469498880324,118.4600231423974L-93.53349893691484,115.3111732006073L-199.69972178488388,110.58191151171923"></path><path class="path" style="fill:none;stroke:#ccc;stroke-linejoin:round;stroke-linecap:round;" d="M-93.53349893691484,115.3111732006073L-199.69972178488388,-4.069884695112705"></path></g><g><path class="path" style="fill:none;stroke:#ccc;stroke-linejoin:round;stroke-linecap:round;" d="M154.65744975645794,-139.42300952225924L159.06426515910425,-105.4559886008501L173.52995362132788,20.737834319472313L175.6103284053097,103.32638516277075L174.47693425777834,118.4600231423974"></path></g><g><path class="path" style="fill:none;stroke:#ccc;stroke-linejoin:round;stroke-linecap:round;" d="M491.6557951431023,118.4600231423974L568.2642916693003,70.52085801959038"></path></g><g><path class="path" style="fill:none;stroke:#ccc;stroke-linejoin:round;stroke-linecap:round;" d="M568.2642916693003,70.52085801959038L587.8899061190896,58.248712345957756L675.2358208853111,-80.20522782206535L695.517610894196,-139.42300952225924"></path></g><g><path class="path" style="fill:none;stroke:#ccc;stroke-linejoin:round;stroke-linecap:round;" d="M56.313137834658846,158.64076950401068L-82.6469498880324,118.4600231423974"></path></g><g><path class="path" style="fill:none;stroke:#ccc;stroke-linejoin:round;stroke-linecap:round;" d="M174.47693425777834,118.4600231423974L167.0353068942204,218.39700359106064"></path><path class="path" style="fill:none;stroke:#ccc;stroke-linejoin:round;stroke-linecap:round;" d="M212.53511668619467,373.0014387369156L167.0353068942204,218.39700359106064L100.5900749937573,171.4516687169671L56.313137834658846,158.64076950401068"></path><path class="path" style="fill:none;stroke:#ccc;stroke-linejoin:round;stroke-linecap:round;" d="M167.0353068942204,218.39700359106064L217.80689078042633,212.91346488147974L312.31854091378045,183.4244690090418"></path></g><g><path class="path" style="fill:none;stroke:#ccc;stroke-linejoin:round;stroke-linecap:round;" d="M312.31854091378045,183.4244690090418L462.9630275128584,136.41924001276493L491.6557951431023,118.4600231423974"></path></g><g><path class="major_road" style="fill:none;stroke:#ccc;stroke-linejoin:round;stroke-linecap:round;" d="M824.2696947484219,184.66964005678892L727.901366044418,373.0014387369156"></path></g><g></g><g><path class="path" style="fill:none;stroke:#ccc;stroke-linejoin:round;stroke-linecap:round;" d="M285.131994453317,630.8820514529943L286.6009329208464,624.6562466323376L212.53511668619467,373.0014387369156"></path></g><g></g><g><path class="major_road" style="fill:none;stroke:#ccc;stroke-linejoin:round;stroke-linecap:round;" d="M727.901366044418,373.0014387369156L608.2537180728687,606.8408628180623L597.2329512959986,630.8820514529943"></path></g><g></g><g><path class="path" style="fill:none;stroke:#ccc;stroke-linejoin:round;stroke-linecap:round;" d="M119.88014512349037,885.4210784062743L225.44238819554448,766.2572122439742L270.05486967461184,694.9239907860756L285.131994453317,630.8820514529943"></path></g><g><path class="major_road" style="fill:none;stroke:#ccc;stroke-linejoin:round;stroke-linecap:round;" d="M568.2642916693003,694.1218207553029L480.62757182578207,885.4210784062743"></path></g><g><path class="major_road" style="fill:none;stroke:#ccc;stroke-linejoin:round;stroke-linecap:round;" d="M597.2329512959986,630.8820514529943L568.2642916693003,694.1218207553029"></path></g><path class="waypath" style="fill:none;stroke:orange; stroke-width:5;stroke-linejoin:round; stroke-linecap:round}" d="M357.72141567998915,594.0779566019773L238.93872639993788,241.36081244051456L343.92681585773244,206.04108154028654L387.4730120533204,335.34710374474525L529.1472804977675,287.5757478773594L561.0612736000039,382.40005250275135L421.9222289066238,429.2135058045387L465.17016348443576,557.9203636869788L357.72141567998915,594.0779566019773"></path><path class="center" style="fill:none; stroke:red; stroke-width:1;stroke-linejoin:round; stroke-linecap:round}" d="M400,400m0,4.5a4.5,4.5 0 1,1 0,-9a4.5,4.5 0 1,1 0,9z"></path></svg>
