<svg xmlns="http://www.w3.org/2000/svg" version="1.1" width="800" height="800"><g><path class="minor_road" style="fill:none;stroke:#ccc;stroke-linejoin:round;stroke-linecap:round;" d="M159.8546584462456,25.520089864730835L-96.15820117332623,111.24365383386612"></path></g><g><path class="minor_road" style="fill:none;stroke:#ccc;stroke-linejoin:round;stroke-linecap:round;" d="M256.41685720178066,-6.808998838067055L159.8546584462456,25.520089864730835"></path></g><g></g><g></g><g></g><g></g><g></g><g></g><g></g><g></g><g></g><g><path class="minor_road" style="fill:none;stroke:#ccc;stroke-linejoin:round;stroke-linecap:round;" d="M704.3163286186755,756.7924118340015L927.8783242240024,690.8645090609789"></path></g><g><path class="minor_road" style="fill:none;stroke:#ccc;stroke-linejoin:round;stroke-linecap:round;" d="M-96.15820117332623,992.8480077832937L159.8546584462456,917.3582026362419"></path></g><g><path class="minor_road" style="fill:none;stroke:#ccc;stroke-linejoin:round;stroke-linecap:round;" d="M159.8546584462456,917.3582026362419L415.8526049848879,841.844380274415"></path></g><g><path class="minor_road" style="fill:none;stroke:#ccc;stroke-linejoin:round;stroke-linecap:round;" d="M415.8526049848879,841.844380274415L671.8654646044597,766.3544707596302"></path></g><g><path class="minor_road" style="fill:none;stroke:#ccc;stroke-linejoin:round;stroke-linecap:round;" d="M671.8654646044597,766.3544707596302L704.3163286186755,756.7924118340015"></path></g><path class="waypath" style="fill:none;stroke:orange; stroke-width:5;stroke-linejoin:round; stroke-linecap:round}" d="M533.4720739555778,237.0369306653738L547.3412391822494,272.2657324820757L612.8096642844612,438.34421630203724L264.44009472001926,563.2024771273136L187.19033571556793,373.398692086339L533.4720739555778,237.0369306653738"></path><path class="center" style="fill:none; stroke:red; stroke-width:1;stroke-linejoin:round; stroke-linecap:round}" d="M400,400m0,4.5a4.5,4.5 0 1,1 0,-9a4.5,4.5 0 1,1 0,9z"></path></svg>
