<svg xmlns="http://www.w3.org/2000/svg" version="1.1" width="800" height="800"><g><path class="path" style="fill:none;stroke:#ccc;stroke-linejoin:round;stroke-linecap:round;" d="M26.41241065246868,-108.46813115477562L-36.25235524267191,-11.83046118915081"></path><path class="path" style="fill:none;stroke:#ccc;stroke-linejoin:round;stroke-linecap:round;" d="M192.96169801955693,146.0660490989685L191.88795619556913,93.53784151375294L183.0444992284465,-63.06352649629116L174.29052074666834,-108.46813115477562"></path></g><g></g><g><path class="path" style="fill:none;stroke:#ccc;stroke-linejoin:round;stroke-linecap:round;" d="M638.4303372516006,-108.46813115477562L635.7161565297574,-65.74990509450436L648.1834921528935,67.82539464533329L681.6782718293543,126.37397061288357L718.8118432426709,146.0660490989685"></path></g><g></g><g><path class="path" style="fill:none;stroke:#ccc;stroke-linejoin:round;stroke-linecap:round;" d="M219.74559129599947,236.92299868166447L194.84074621155742,237.018940448761L192.96169801955693,146.0660490989685"></path><path class="path" style="fill:none;stroke:#ccc;stroke-linejoin:round;stroke-linecap:round;" d="M194.84074621155742,237.018940448761L198.46462486757082,400.59963551163673"></path></g><g><path class="path" style="fill:none;stroke:#ccc;stroke-linejoin:round;stroke-linecap:round;" d="M475.77336399644264,235.7956821024418L219.74559129599947,236.92299868166447"></path></g><g><path class="path" style="fill:none;stroke:#ccc;stroke-linejoin:round;stroke-linecap:round;" d="M718.8118432426709,146.0660490989685L731.771310535114,152.92589530348778M605.8452555093099,400.59963551163673L605.8452555093099,311.51774491369724L605.8452555093099,266.233223348856L594.1981393351161,244.11863555014133L529.758716814249,235.5558275282383L475.77336399644264,235.7956821024418"></path></g><g><path class="path" style="fill:none;stroke:#ccc;stroke-linejoin:round;stroke-linecap:round;" d="M731.771310535114,152.92589530348778L752.6794499412936,164.0071845203638L773.4384585386433,239.17763158679008L765.1318724835874,397.6494286507368L749.8310514915502,400.59963551163673"></path></g><g><path class="path" style="fill:none;stroke:#ccc;stroke-linejoin:round;stroke-linecap:round;" d="M198.46462486757082,400.59963551163673L202.20780817064224,569.0011475682259L219.74559129599947,569.0011475682259"></path></g><g><path class="path" style="fill:none;stroke:#ccc;stroke-linejoin:round;stroke-linecap:round;" d="M219.74559129599947,569.0011475682259L465.4535120213113,569.0011475682259L475.77336399644264,567.9937614649534"></path></g><g><path class="path" style="fill:none;stroke:#ccc;stroke-linejoin:round;stroke-linecap:round;" d="M731.771310535114,404.07752150297165L635.7161565297574,422.57027910649776L605.8452555093099,421.2270957380533L605.8452555093099,400.59963551163673"></path><path class="path" style="fill:none;stroke:#ccc;stroke-linejoin:round;stroke-linecap:round;" d="M475.77336399644264,567.9937614649534L556.1399569066707,560.2944528013468L603.0266832213092,529.6171396970749L610.3937451804522,467.9746627509594L605.8452555093099,421.2270957380533"></path></g><g><path class="path" style="fill:none;stroke:#ccc;stroke-linejoin:round;stroke-linecap:round;" d="M749.8310514915502,400.59963551163673L731.771310535114,404.07752150297165"></path></g><g></g><g></g><g></g><g></g><path class="waypath" style="fill:none;stroke:orange; stroke-width:5;stroke-linejoin:round; stroke-linecap:round}" d="M581.1939328000008,265.9214124530554L581.1939328000008,504.096678763628L469.94234936888097,504.096678763628L469.94234936888097,534.0784226804972L218.95519800888724,534.0784226804972L218.95519800888724,265.9214124530554L581.1939328000008,265.9214124530554"></path><path class="center" style="fill:none; stroke:red; stroke-width:1;stroke-linejoin:round; stroke-linecap:round}" d="M400,400m0,4.5a4.5,4.5 0 1,1 0,-9a4.5,4.5 0 1,1 0,9z"></path></svg>
