<svg xmlns="http://www.w3.org/2000/svg" version="1.1" width="800" height="800"><g></g><g></g><g></g><g></g><g><path class="minor_road" style="fill:none;stroke:#ccc;stroke-linejoin:round;stroke-linecap:round;" d="M-125.11940425951616,379.3473310917616L-55.08757640531985,443.96786391735077"></path></g><g></g><g></g><g></g><g><path class="minor_road" style="fill:none;stroke:#ccc;stroke-linejoin:round;stroke-linecap:round;" d="M-55.08757640531985,443.96786391735077L130.87854227915523,615.6174673587084"></path><path class="minor_road" style="fill:none;stroke:#ccc;stroke-linejoin:round;stroke-linecap:round;" d="M-125.11940425951616,605.2072000801563L130.87854227915523,620.4627987891436"></path></g><g><path class="minor_road" style="fill:none;stroke:#ccc;stroke-linejoin:round;stroke-linecap:round;" d="M130.87854227915523,615.6174673587084L136.51568685515667,620.7986139059067L220.7895069582737,698.5157817602158"></path><path class="minor_road" style="fill:none;stroke:#ccc;stroke-linejoin:round;stroke-linecap:round;" d="M130.87854227915523,620.4627987891436L136.51568685515667,620.7986139059067"></path></g><g></g><g></g><g></g><g><path class="minor_road" style="fill:none;stroke:#ccc;stroke-linejoin:round;stroke-linecap:round;" d="M220.7895069582737,698.5157817602158L386.9063149795984,851.6712113171816"></path></g><g><path class="minor_road" style="fill:none;stroke:#ccc;stroke-linejoin:round;stroke-linecap:round;" d="M386.9063149795984,851.6712113171816L496.8753734542406,953.0391189604998"></path></g><g></g><path class="waypath" style="fill:none;stroke:orange; stroke-width:5;stroke-linejoin:round; stroke-linecap:round}" d="M182.26901902229292,385.36802826821804L385.6834423466644,629.7936593145132L617.7309809777944,425.18617621064186L540.033829546679,355.14460502564907L538.542521457799,289.90036122500896L439.0722719289188,170.4457255154848L182.26901902229292,385.36802826821804"></path><path class="center" style="fill:none; stroke:red; stroke-width:1;stroke-linejoin:round; stroke-linecap:round}" d="M400,400m0,4.5a4.5,4.5 0 1,1 0,-9a4.5,4.5 0 1,1 0,9z"></path></svg>
