<svg xmlns="http://www.w3.org/2000/svg" version="1.1" width="800" height="800"><g></g><g><path class="path" style="fill:none;stroke:#ccc;stroke-linejoin:round;stroke-linecap:round;" d="M216.99412787200708,-89.5224529504776L319.17110158222204,168.3528122678399"></path></g><g><path class="minor_road" style="fill:none;stroke:#ccc;stroke-linejoin:round;stroke-linecap:round;" d="M642.1287813119998,114.01863227039576L510.62523403378145,168.3528122678399"></path></g><g><path class="minor_road" style="fill:none;stroke:#ccc;stroke-linejoin:round;stroke-linecap:round;" d="M898.1490974720073,-44.38551114499569L662.365832078227,105.65952288359404L642.1287813119998,114.01863227039576"></path></g><g><path class="minor_road" style="fill:none;stroke:#ccc;stroke-linejoin:round;stroke-linecap:round;" d="M130.11797515378566,325.5707388371229L-105.44905056709831,422.8976058885455"></path><path class="major_road" style="fill:none;stroke:#ccc;stroke-linejoin:round;stroke-linecap:round;" d="M-125.89488446577161,394.8264810219407L-113.32315727644891,422.8976058885455"></path></g><g><path class="path" style="fill:none;stroke:#ccc;stroke-linejoin:round;stroke-linecap:round;" d="M319.17110158222204,168.3528122678399L323.3616773120011,178.9394083917141L347.5432379733247,235.74053320288658"></path><path class="minor_road" style="fill:none;stroke:#ccc;stroke-linejoin:round;stroke-linecap:round;" d="M386.1233782328927,219.80077592283487L347.5432379733247,235.74053320288658L130.11797515378566,325.5707388371229"></path></g><g><path class="minor_road" style="fill:none;stroke:#ccc;stroke-linejoin:round;stroke-linecap:round;" d="M510.62523403378145,168.3528122678399L386.1233782328927,219.80077592283487"></path></g><g></g><g><path class="minor_road" style="fill:none;stroke:#ccc;stroke-linejoin:round;stroke-linecap:round;" d="M-105.44905056709831,422.8976058885455L-112.09282810310833,425.6400486305356"></path><path class="major_road" style="fill:none;stroke:#ccc;stroke-linejoin:round;stroke-linecap:round;" d="M-113.32315727644891,422.8976058885455L-112.09282810310833,425.6400486305356L-0.20743873421452008,680.7824265286326"></path></g><g></g><g></g><g><path class="minor_road" style="fill:none;stroke:#ccc;stroke-linejoin:round;stroke-linecap:round;" d="M893.4440204515558,680.7824265286326L778.8444503608916,464.2258440554142"></path></g><g><path class="major_road" style="fill:none;stroke:#ccc;stroke-linejoin:round;stroke-linecap:round;" d="M-0.20743873421452008,680.7824265286326L111.41697171911073,935.3128554597497"></path></g><g></g><g></g><g><path class="minor_road" style="fill:none;stroke:#ccc;stroke-linejoin:round;stroke-linecap:round;" d="M795.5620140373358,935.3128554597497L898.1490974720073,879.8297780230641"></path><path class="minor_road" style="fill:none;stroke:#ccc;stroke-linejoin:round;stroke-linecap:round;" d="M898.1490974720073,689.6683775261045L893.4440204515558,680.7824265286326"></path></g><path class="waypath" style="fill:none;stroke:orange; stroke-width:5;stroke-linejoin:round; stroke-linecap:round}" d="M590.8874353777792,190.5439440459013L683.1994060800062,414.1313687711954L533.3229431466752,475.9261248782277L492.684797724447,377.60536570101976L414.6148192711116,409.8201041147113L455.10383388443734,507.9012909680605L209.03799921777681,609.5750093087554L116.8751593244524,386.2278997823596L590.8874353777792,190.5439440459013"></path><path class="center" style="fill:none; stroke:red; stroke-width:1;stroke-linejoin:round; stroke-linecap:round}" d="M400,400m0,4.5a4.5,4.5 0 1,1 0,-9a4.5,4.5 0 1,1 0,9z"></path></svg>
