<svg xmlns="http://www.w3.org/2000/svg" version="1.1" width="800" height="800"><g><path class="rail" style="fill:none;stroke:#ccc;stroke-linejoin:round;stroke-linecap:round;" d="M24.988211427553324,-125.03482207655907L-1.005288561776979,22.31950306147337L-6.314345358216087,62.308762677013874"></path><path class="rail" style="fill:none;stroke:#ccc;stroke-linejoin:round;stroke-linecap:round;" d="M-109.48303894755372,62.308762677013874L-102.48134747022414,-7.750330977141857L-83.92947484443721,-130.66544239968061L-66.03377777777496,-195.5733584985137"></path><path class="rail" style="fill:none;stroke:#ccc;stroke-linejoin:round;stroke-linecap:round;" d="M-60.84402562843752,62.308762677013874L-54.38666160356661,-6.947669856250286L-28.60194474666787,-138.96761338412762L-18.80405060267367,-195.5733584985137"></path><path class="rail" style="fill:none;stroke:#ccc;stroke-linejoin:round;stroke-linecap:round;" d="M42.74223422577779,-195.5733584985137L24.988211427553324,-125.03482207655907"></path></g><g><path class="rail" style="fill:none;stroke:#ccc;stroke-linejoin:round;stroke-linecap:round;" d="M103.42356036265846,-63.816838674247265L89.74080864711141,62.308762677013874"></path><path class="rail" style="fill:none;stroke:#ccc;stroke-linejoin:round;stroke-linecap:round;" d="M184.18534991644265,-195.5733584985137L183.93928408177453,-194.77069460600615L151.1155930453242,-43.58257316052914L139.4908464924374,62.308762677013874"></path><path class="rail" style="fill:none;stroke:#ccc;stroke-linejoin:round;stroke-linecap:round;" d="M208.18795360710646,-121.42882936447859L187.01883528532926,15.155456461012363L182.7611506915564,62.308762677013874"></path><path class="rail" style="fill:none;stroke:#ccc;stroke-linejoin:round;stroke-linecap:round;" d="M50.13166580622783,62.308762677013874L61.62965117156273,-35.22051656246185L79.24199970133486,-154.98493676632643L91.94794461867423,-195.5733584985137"></path><path class="rail" style="fill:none;stroke:#ccc;stroke-linejoin:round;stroke-linecap:round;" d="M128.12707885511918,-195.5733584985137L120.43938565689314,-158.73469231277704L103.42356036265846,-63.816838674247265"></path><path class="rail" style="fill:none;stroke:#ccc;stroke-linejoin:round;stroke-linecap:round;" d="M208.18795360710646,-121.42882936447859L228.94696220444166,-195.5733584985137"></path></g><g></g><g></g><g><path class="minor_road" style="fill:none;stroke:#ccc;stroke-linejoin:round;stroke-linecap:round;" d="M-212.66664561777725,216.4672040939331L43.33875746134436,230.42386463284492"></path><path class="rail" style="fill:none;stroke:#ccc;stroke-linejoin:round;stroke-linecap:round;" d="M-6.314345358216087,62.308762677013874L-27.192658602667507,219.52209578454494L-16.798241223121295,316.8472607731819"></path><path class="rail" style="fill:none;stroke:#ccc;stroke-linejoin:round;stroke-linecap:round;" d="M40.93029489778564,316.8472607731819L37.24676391821413,171.6980466172099L43.33875746134436,119.98045937716961"></path><path class="rail" style="fill:none;stroke:#ccc;stroke-linejoin:round;stroke-linecap:round;" d="M20.76780953600246,316.8472607731819L37.24676391821413,171.6980466172099"></path><path class="rail" style="fill:none;stroke:#ccc;stroke-linejoin:round;stroke-linecap:round;" d="M-115.02324849777506,316.8472607731819L-116.21629496889364,129.62434950470924L-109.48303894755372,62.308762677013874"></path><path class="rail" style="fill:none;stroke:#ccc;stroke-linejoin:round;stroke-linecap:round;" d="M-67.10006306132709,316.8472607731819L-68.12160910222156,140.41831646859646L-60.84402562843752,62.308762677013874"></path></g><g><path class="minor_road" style="fill:none;stroke:#ccc;stroke-linejoin:round;stroke-linecap:round;" d="M43.33875746134436,230.42386463284492L299.3516170808871,244.38052159547806"></path><path class="rail" style="fill:none;stroke:#ccc;stroke-linejoin:round;stroke-linecap:round;" d="M89.74080864711141,62.308762677013874L79.37621742933698,157.8971108198166L85.09538395021809,316.8472607731819"></path><path class="rail" style="fill:none;stroke:#ccc;stroke-linejoin:round;stroke-linecap:round;" d="M139.4908464924374,62.308762677013874L129.7451481315511,151.0685215294361L122.8478482204373,315.24194803088903L122.89258746310952,316.8472607731819"></path><path class="rail" style="fill:none;stroke:#ccc;stroke-linejoin:round;stroke-linecap:round;" d="M182.7611506915564,62.308762677013874L174.42473847467045,154.5427161976695L168.92181162667111,316.8472607731819"></path><path class="rail" style="fill:none;stroke:#ccc;stroke-linejoin:round;stroke-linecap:round;" d="M43.33875746134436,119.98045937716961L50.13166580622783,62.308762677013874"></path></g><g><path class="minor_road" style="fill:none;stroke:#ccc;stroke-linejoin:round;stroke-linecap:round;" d="M299.3516170808871,244.38052159547806L320.1180822186725,245.50663798302412L555.3644767004589,301.752527192235"></path></g><g><path class="minor_road" style="fill:none;stroke:#ccc;stroke-linejoin:round;stroke-linecap:round;" d="M555.3644767004589,301.752527192235L618.5064611840062,316.8472607731819"></path></g><g><path class="rail" style="fill:none;stroke:#ccc;stroke-linejoin:round;stroke-linecap:round;" d="M-16.798241223121295,316.8472607731819L0.2026709902274888,476.0006063207984L23.54164258133096,574.7389409393072"></path><path class="rail" style="fill:none;stroke:#ccc;stroke-linejoin:round;stroke-linecap:round;" d="M43.33875746134436,384.10263404995203L42.53345109333168,380.1492567136884L40.93029489778564,316.8472607731819"></path><path class="rail" style="fill:none;stroke:#ccc;stroke-linejoin:round;stroke-linecap:round;" d="M35.17384567466797,574.7389409393072L21.975769088006928,477.80957283079624L20.432265216004453,319.7943273112178L20.76780953600246,316.8472607731819"></path><path class="rail" style="fill:none;stroke:#ccc;stroke-linejoin:round;stroke-linecap:round;" d="M-111.80202302578255,574.7389409393072L-114.53857336888905,392.14116706699133L-115.02324849777506,316.8472607731819"></path><path class="rail" style="fill:none;stroke:#ccc;stroke-linejoin:round;stroke-linecap:round;" d="M-64.02796839822258,574.7389409393072L-66.51099636621075,418.1256270930171L-67.10006306132709,316.8472607731819"></path></g><g><path class="rail" style="fill:none;stroke:#ccc;stroke-linejoin:round;stroke-linecap:round;" d="M85.09538395021809,316.8472607731819L86.4077350684529,353.4220225214958L104.60915029332682,574.7389409393072"></path><path class="rail" style="fill:none;stroke:#ccc;stroke-linejoin:round;stroke-linecap:round;" d="M122.89258746310952,316.8472607731819L130.08814899199933,574.7389409393072"></path><path class="rail" style="fill:none;stroke:#ccc;stroke-linejoin:round;stroke-linecap:round;" d="M168.92181162667111,316.8472607731819L167.19189424355864,367.8219055905938L179.38333787022566,574.7389409393072"></path><path class="rail" style="fill:none;stroke:#ccc;stroke-linejoin:round;stroke-linecap:round;" d="M82.03074582754925,574.7389409393072L43.33875746134436,384.10263404995203"></path></g><g></g><g><path class="minor_road" style="fill:none;stroke:#ccc;stroke-linejoin:round;stroke-linecap:round;" d="M738.042261048904,574.7389409393072L787.456754574232,357.2436224594712"></path><path class="minor_road" style="fill:none;stroke:#ccc;stroke-linejoin:round;stroke-linecap:round;" d="M618.5064611840062,316.8472607731819L787.456754574232,357.2436224594712"></path><path class="minor_road" style="fill:none;stroke:#ccc;stroke-linejoin:round;stroke-linecap:round;" d="M811.3698797795514,362.8502325490117L787.456754574232,357.2436224594712"></path></g><g><path class="rail" style="fill:none;stroke:#ccc;stroke-linejoin:round;stroke-linecap:round;" d="M23.54164258133096,574.7389409393072L43.33875746134436,658.5022607296705"></path><path class="rail" style="fill:none;stroke:#ccc;stroke-linejoin:round;stroke-linecap:round;" d="M43.33875746134436,634.7222123220563L35.17384567466797,574.7389409393072"></path><path class="rail" style="fill:none;stroke:#ccc;stroke-linejoin:round;stroke-linecap:round;" d="M-108.5136886897817,794.042348831892L-111.80202302578255,574.7389409393072"></path><path class="rail" style="fill:none;stroke:#ccc;stroke-linejoin:round;stroke-linecap:round;" d="M-60.553220551111735,794.042348831892L-64.02796839822258,574.7389409393072"></path></g><g><path class="rail" style="fill:none;stroke:#ccc;stroke-linejoin:round;stroke-linecap:round;" d="M43.33875746134436,658.5022607296705L50.97425487644796,690.8119622766972L94.2296459946665,829.2750495225191"></path><path class="rail" style="fill:none;stroke:#ccc;stroke-linejoin:round;stroke-linecap:round;" d="M104.60915029332682,574.7389409393072L105.50393514666939,585.5807394459844L137.71618986666726,810.3828493505716"></path><path class="rail" style="fill:none;stroke:#ccc;stroke-linejoin:round;stroke-linecap:round;" d="M130.08814899199933,574.7389409393072L130.6846722275659,596.302736915648L162.70305689600355,748.147559069097L190.44138734933222,829.2750495225191"></path><path class="rail" style="fill:none;stroke:#ccc;stroke-linejoin:round;stroke-linecap:round;" d="M179.38333787022566,574.7389409393072L204.57153149155783,716.8082599639893L234.12925781332888,829.2750495225191"></path><path class="rail" style="fill:none;stroke:#ccc;stroke-linejoin:round;stroke-linecap:round;" d="M143.22657325511682,829.2750495225191L137.71618986666726,810.3828493505716L121.97543298844539,756.4615750163794L87.61569462044281,602.2687189728022L82.03074582754925,574.7389409393072"></path><path class="rail" style="fill:none;stroke:#ccc;stroke-linejoin:round;stroke-linecap:round;" d="M50.97425487644796,690.8119622766972L43.33875746134436,634.7222123220563"></path></g><g></g><g><path class="minor_road" style="fill:none;stroke:#ccc;stroke-linejoin:round;stroke-linecap:round;" d="M681.4993148586655,829.2750495225191L682.5581436017819,818.9604122117162L738.042261048904,574.7389409393072"></path></g><path class="waypath" style="fill:none;stroke:orange; stroke-width:5;stroke-linejoin:round; stroke-linecap:round}" d="M233.49545187555486,300.4467127546668L521.9890016711142,331.834170691669L567.5484637866757,363.10181122273207L575.7506582755595,391.25465232133865L536.7529517511139,440.1327419281006L488.88196209778835,450.55527010560036L224.323907128899,499.55310566723347L233.49545187555486,300.4467127546668"></path><path class="center" style="fill:none; stroke:red; stroke-width:1;stroke-linejoin:round; stroke-linecap:round}" d="M400,400m0,4.5a4.5,4.5 0 1,1 0,-9a4.5,4.5 0 1,1 0,9z"></path></svg>
