<svg xmlns="http://www.w3.org/2000/svg" version="1.1" width="800" height="800"><g><path class="minor_road" style="fill:none;stroke:#ccc;stroke-linejoin:round;stroke-linecap:round;" d="M-102.0861508266662,-90.07473654672503L-197.11975879111196,-45.44031588360667"></path><path class="minor_road" style="fill:none;stroke:#ccc;stroke-linejoin:round;stroke-linecap:round;" d="M-157.11541930666863,166.15224052220583L-197.11975879111196,116.17887019366026"></path></g><g><path class="minor_road" style="fill:none;stroke:#ccc;stroke-linejoin:round;stroke-linecap:round;" d="M77.5046257777758,166.15224052220583L240.31818638222285,74.66430804878473"></path><path class="minor_road" style="fill:none;stroke:#ccc;stroke-linejoin:round;stroke-linecap:round;" d="M151.95818211555525,-90.07473654672503L240.31818638222285,74.66430804878473"></path><path class="minor_road" style="fill:none;stroke:#ccc;stroke-linejoin:round;stroke-linecap:round;" d="M314.8835908266665,85.04295451566577L240.31818638222285,74.66430804878473"></path></g><g><path class="path" style="fill:none;stroke:#ccc;stroke-linejoin:round;stroke-linecap:round;" d="M423.26440618666675,104.84036166220903L362.7172977777791,91.70208397880197"></path><path class="minor_road" style="fill:none;stroke:#ccc;stroke-linejoin:round;stroke-linecap:round;" d="M423.26440618666675,104.84036166220903L470.3897417955559,166.15224052220583"></path><path class="minor_road" style="fill:none;stroke:#ccc;stroke-linejoin:round;stroke-linecap:round;" d="M423.26440618666675,104.84036166220903L364.9915426133339,166.15224052220583"></path><path class="minor_road" style="fill:none;stroke:#ccc;stroke-linejoin:round;stroke-linecap:round;" d="M423.26440618666675,104.84036166220903L570.8666242844429,11.072515115141869"></path><path class="minor_road" style="fill:none;stroke:#ccc;stroke-linejoin:round;stroke-linecap:round;" d="M362.7172977777791,91.70208397880197L314.8835908266665,85.04295451566577"></path></g><g><path class="minor_road" style="fill:none;stroke:#ccc;stroke-linejoin:round;stroke-linecap:round;" d="M570.8666242844429,11.072515115141869L730.138328177778,-90.07473654672503"></path></g><g><path class="path" style="fill:none;stroke:#ccc;stroke-linejoin:round;stroke-linecap:round;" d="M-46.12481479111011,422.376809772104L-142.463317333335,303.41355949267745L-197.11975879111196,235.98282307758927"></path><path class="path" style="fill:none;stroke:#ccc;stroke-linejoin:round;stroke-linecap:round;" d="M-142.463317333335,303.41355949267745L-101.00495246221908,265.85873932763934L-84.33958456889013,257.0999399498105"></path><path class="minor_road" style="fill:none;stroke:#ccc;stroke-linejoin:round;stroke-linecap:round;" d="M50.064556942221316,422.376809772104L-84.33958456889013,257.0999399498105L-157.11541930666863,166.15224052220583"></path><path class="minor_road" style="fill:none;stroke:#ccc;stroke-linejoin:round;stroke-linecap:round;" d="M-84.33958456889013,257.0999399498105L58.863274666668076,176.59084413573146"></path></g><g><path class="minor_road" style="fill:none;stroke:#ccc;stroke-linejoin:round;stroke-linecap:round;" d="M314.8835908266665,218.88514541462064L121.3863662933345,422.376809772104"></path><path class="minor_road" style="fill:none;stroke:#ccc;stroke-linejoin:round;stroke-linecap:round;" d="M58.863274666668076,176.59084413573146L77.5046257777758,166.15224052220583"></path></g><g><path class="minor_road" style="fill:none;stroke:#ccc;stroke-linejoin:round;stroke-linecap:round;" d="M470.3897417955559,166.15224052220583L570.8666242844429,296.8144734352827"></path><path class="minor_road" style="fill:none;stroke:#ccc;stroke-linejoin:round;stroke-linecap:round;" d="M364.9915426133339,166.15224052220583L314.8835908266665,218.88514541462064"></path></g><g><path class="minor_road" style="fill:none;stroke:#ccc;stroke-linejoin:round;stroke-linecap:round;" d="M570.8666242844429,296.8144734352827L667.2796922311118,422.19683550670743L667.5033884444438,422.376809772104"></path><path class="minor_road" style="fill:none;stroke:#ccc;stroke-linejoin:round;stroke-linecap:round;" d="M667.2796922311118,422.19683550670743L667.1678441244458,422.376809772104"></path></g><g><path class="path" style="fill:none;stroke:#ccc;stroke-linejoin:round;stroke-linecap:round;" d="M-197.11975879111196,665.8209153413773L-26.9615058488871,491.84678849205375L-18.983007573333452,455.85200295969844L-46.12481479111011,422.376809772104"></path><path class="path" style="fill:none;stroke:#ccc;stroke-linejoin:round;stroke-linecap:round;" d="M54.836742826664704,428.19597712531686L58.863274666668076,431.7354700639844"></path><path class="minor_road" style="fill:none;stroke:#ccc;stroke-linejoin:round;stroke-linecap:round;" d="M58.863274666668076,489.50712886452675L-112.8981344711101,678.5389803908765"></path><path class="minor_road" style="fill:none;stroke:#ccc;stroke-linejoin:round;stroke-linecap:round;" d="M54.836742826664704,428.19597712531686L50.064556942221316,422.376809772104"></path></g><g><path class="path" style="fill:none;stroke:#ccc;stroke-linejoin:round;stroke-linecap:round;" d="M58.863274666668076,431.7354700639844L88.01834780444551,457.41177798062563"></path><path class="minor_road" style="fill:none;stroke:#ccc;stroke-linejoin:round;stroke-linecap:round;" d="M121.3863662933345,422.376809772104L88.01834780444551,457.41177798062563"></path><path class="minor_road" style="fill:none;stroke:#ccc;stroke-linejoin:round;stroke-linecap:round;" d="M88.01834780444551,457.41177798062563L58.863274666668076,489.50712886452675"></path></g><g><path class="minor_road" style="fill:none;stroke:#ccc;stroke-linejoin:round;stroke-linecap:round;" d="M570.8666242844429,542.1194260716438L523.2193308444457,601.3906267620623L570.8666242844429,658.7419897727668"></path></g><g><path class="minor_road" style="fill:none;stroke:#ccc;stroke-linejoin:round;stroke-linecap:round;" d="M667.5033884444438,422.376809772104L792.0648965688906,495.80621199309826L826.8869404444449,499.70564367622137"></path><path class="minor_road" style="fill:none;stroke:#ccc;stroke-linejoin:round;stroke-linecap:round;" d="M667.1678441244458,422.376809772104L570.8666242844429,542.1194260716438M570.8666242844429,658.7419897727668L587.3828613688911,678.5389803908765"></path></g><g><path class="minor_road" style="fill:none;stroke:#ccc;stroke-linejoin:round;stroke-linecap:round;" d="M-112.8981344711101,678.5389803908765L-197.11975879111196,771.2246997989714"></path></g><g></g><g></g><g><path class="minor_road" style="fill:none;stroke:#ccc;stroke-linejoin:round;stroke-linecap:round;" d="M587.3828613688911,678.5389803908765L744.08205880889,866.9696169756353L772.528760604444,934.7587347403169"></path></g><path class="waypath" style="fill:none;stroke:orange; stroke-width:5;stroke-linejoin:round; stroke-linecap:round}" d="M183.16380387555728,416.1976925507188L416.96362951111223,171.67150270193815L616.8734788266665,419.79717848077416L453.7243739022233,628.2665943317115L183.16380387555728,416.1976925507188"></path><path class="center" style="fill:none; stroke:red; stroke-width:1;stroke-linejoin:round; stroke-linecap:round}" d="M400,400m0,4.5a4.5,4.5 0 1,1 0,-9a4.5,4.5 0 1,1 0,9z"></path></svg>
