<svg xmlns="http://www.w3.org/2000/svg" version="1.1" width="800" height="800"><g><path class="path" style="fill:none;stroke:#ccc;stroke-linejoin:round;stroke-linecap:round;" d="M39.215290595559054,61.58809782937169L147.40969244445296,-44.88885587826371L183.72304440889275,-71.47821621969342"></path><path class="path" style="fill:none;stroke:#ccc;stroke-linejoin:round;stroke-linecap:round;" d="M183.72304440889275,-109.80526768043637L-41.09164999110362,-87.0485743843019L-72.2227063466562,-82.49723799154162"></path></g><g><path class="path" style="fill:none;stroke:#ccc;stroke-linejoin:round;stroke-linecap:round;" d="M183.72304440889275,-71.47821621969342L244.41928362667386,-115.97353256121278L284.98286364444357,-134.35856331512332"></path><path class="path" style="fill:none;stroke:#ccc;stroke-linejoin:round;stroke-linecap:round;" d="M284.98286364444357,-134.35856331512332L298.8147461688932,-184.60305904597044L303.9597590755584,-194.60406029224396M439.74336056889297,46.61667274311185L430.34811960889056,51.58718678355217L407.0837134222311,53.92272920906544L383.85658993778634,50.98832971602678L357.7214156800037,40.268786028027534L324.0178528711185,12.062592286616564L297.3980034844499,-32.312816098332405L284.49818851555756,-84.95256411656737L284.98286364444357,-134.35856331512332"></path><path class="path" style="fill:none;stroke:#ccc;stroke-linejoin:round;stroke-linecap:round;" d="M242.51786581333727,61.58809782937169L244.41928362667386,-115.97353256121278L183.72304440889275,-109.80526768043637"></path><path class="path" style="fill:none;stroke:#ccc;stroke-linejoin:round;stroke-linecap:round;" d="M406.1516458666738,-194.60406029224396L406.3380593777838,-134.29867720231414L407.0837134222311,53.92272920906544"></path><path class="path" style="fill:none;stroke:#ccc;stroke-linejoin:round;stroke-linecap:round;" d="M407.0837134222311,53.92272920906544L408.0530636800031,61.58809782937169"></path><path class="path" style="fill:none;stroke:#ccc;stroke-linejoin:round;stroke-linecap:round;" d="M284.98286364444357,-134.35856331512332L406.3380593777838,-134.29867720231414L439.74336056889297,-133.52015771716833"></path></g><g><path class="path" style="fill:none;stroke:#ccc;stroke-linejoin:round;stroke-linecap:round;" d="M519.2673644088936,-194.60406029224396L532.763702613338,-168.43378334492445L540.7422008888971,-131.1247133538127L539.5118717155638,-101.24156245216727L531.4215253333386,-48.961098577827215L513.9732206933404,-13.14933804422617L485.48923619555717,19.069229122251272L459.0930830222278,36.43609898164868L439.74336056889297,46.61667274311185"></path><path class="path" style="fill:none;stroke:#ccc;stroke-linejoin:round;stroke-linecap:round;" d="M582.5733927822221,61.58809782937169L582.8716544000054,-127.89086377248168L540.7422008888971,-131.1247133538127"></path><path class="path" style="fill:none;stroke:#ccc;stroke-linejoin:round;stroke-linecap:round;" d="M439.74336056889297,-133.52015771716833L540.7422008888971,-131.1247133538127"></path><path class="path" style="fill:none;stroke:#ccc;stroke-linejoin:round;stroke-linecap:round;" d="M582.8716544000054,-127.89086377248168L604.3464908800015,-121.60282405093312L695.7636767288932,-112.14082411676645"></path><path class="path" style="fill:none;stroke:#ccc;stroke-linejoin:round;stroke-linecap:round;" d="M604.3464908800015,-121.60282405093312L627.8345932800075,-186.39964582771063L675.3700386133423,-177.35682689771056L690.879642737782,-166.87674247846007L695.7636767288932,-164.42140899971128"></path><path class="path" style="fill:none;stroke:#ccc;stroke-linejoin:round;stroke-linecap:round;" d="M627.8345932800075,-186.39964582771063L627.9091586844443,-194.60406029224396"></path></g><g><path class="path" style="fill:none;stroke:#ccc;stroke-linejoin:round;stroke-linecap:round;" d="M695.7636767288932,-112.14082411676645L951.7467101866787,-85.7909682020545"></path><path class="path" style="fill:none;stroke:#ccc;stroke-linejoin:round;stroke-linecap:round;" d="M695.7636767288932,-164.42140899971128L729.3926741333344,-147.41373923793435L790.3871749688915,-143.8804570659995L866.3693220977802,-155.3187111914158L906.8956194133425,-190.89111329615116L907.8649696711218,-194.60406029224396"></path></g><g><path class="path" style="fill:none;stroke:#ccc;stroke-linejoin:round;stroke-linecap:round;" d="M-72.2227063466562,171.23856489360332L39.215290595559054,61.58809782937169"></path></g><g><path class="path" style="fill:none;stroke:#ccc;stroke-linejoin:round;stroke-linecap:round;" d="M239.75894584889465,317.77785148099065L242.51786581333727,61.58809782937169"></path><path class="path" style="fill:none;stroke:#ccc;stroke-linejoin:round;stroke-linecap:round;" d="M408.0530636800031,61.58809782937169L412.6388360533383,97.51948453485966"></path></g><g><path class="path" style="fill:none;stroke:#ccc;stroke-linejoin:round;stroke-linecap:round;" d="M582.2005657600021,317.77785148099065L582.5733927822221,61.58809782937169"></path></g><g><path class="path" style="fill:none;stroke:#ccc;stroke-linejoin:round;stroke-linecap:round;" d="M925.2014262044468,317.77785148099065L951.7467101866787,231.3035985007882"></path></g><g><path class="minor_road" style="fill:none;stroke:#ccc;stroke-linejoin:round;stroke-linecap:round;" d="M-28.378248533328588,574.0250852890313L-72.2227063466562,549.8317124284804"></path></g><g><path class="path" style="fill:none;stroke:#ccc;stroke-linejoin:round;stroke-linecap:round;" d="M237.00002588445204,574.0250852890313L239.75894584889465,317.77785148099065"></path></g><g><path class="path" style="fill:none;stroke:#ccc;stroke-linejoin:round;stroke-linecap:round;" d="M581.79045603556,574.0250852890313L582.2005657600021,317.77785148099065"></path></g><g><path class="path" style="fill:none;stroke:#ccc;stroke-linejoin:round;stroke-linecap:round;" d="M846.6094899200034,574.0250852890313L925.2014262044468,317.77785148099065"></path></g><g><path class="minor_road" style="fill:none;stroke:#ccc;stroke-linejoin:round;stroke-linecap:round;" d="M183.72304440889275,690.7398426569998L-28.378248533328588,574.0250852890313"></path><path class="minor_road" style="fill:none;stroke:#ccc;stroke-linejoin:round;stroke-linecap:round;" d="M-72.2227063466562,784.8778057061136L7.0030358755611815,830.2100296095014"></path></g><g><path class="path" style="fill:none;stroke:#ccc;stroke-linejoin:round;stroke-linecap:round;" d="M235.43415239112073,719.1249878332019L237.00002588445204,574.0250852890313"></path><path class="minor_road" style="fill:none;stroke:#ccc;stroke-linejoin:round;stroke-linecap:round;" d="M439.74336056889297,827.814669597894L235.43415239112073,719.1249878332019L183.72304440889275,690.7398426569998"></path></g><g><path class="path" style="fill:none;stroke:#ccc;stroke-linejoin:round;stroke-linecap:round;" d="M581.566759822228,737.5094437524676L581.79045603556,574.0250852890313"></path><path class="path" style="fill:none;stroke:#ccc;stroke-linejoin:round;stroke-linecap:round;" d="M537.5358884977832,830.2100296095014L581.566759822228,737.5094437524676"></path><path class="path" style="fill:none;stroke:#ccc;stroke-linejoin:round;stroke-linecap:round;" d="M581.566759822228,737.5094437524676L695.7636767288932,734.635001949966"></path><path class="minor_road" style="fill:none;stroke:#ccc;stroke-linejoin:round;stroke-linecap:round;" d="M444.29185024000617,830.2100296095014L439.74336056889297,827.814669597894"></path></g><g><path class="path" style="fill:none;stroke:#ccc;stroke-linejoin:round;stroke-linecap:round;" d="M762.9843888355608,830.2100296095014L798.1419770311186,732.000096693635L846.6094899200034,574.0250852890313"></path><path class="path" style="fill:none;stroke:#ccc;stroke-linejoin:round;stroke-linecap:round;" d="M695.7636767288932,734.635001949966L798.1419770311186,732.000096693635"></path></g><path class="waypath" style="fill:none;stroke:orange; stroke-width:5;stroke-linejoin:round; stroke-linecap:round}" d="M245.53776469334116,663.2529334425926L283.78981717333954,663.4325865283608L284.05079608889355,618.0402011945844L323.1976334222272,618.2797390408814L323.0485026133392,644.8085430897772L415.0249289955682,645.3475027307868L414.8757981866729,667.5646073035896L448.1319685688941,667.7442603670061L447.9082723555621,702.2376265376806L550.9949440000055,702.8963535912335L554.4622353066734,137.40326841175556L446.52881237334077,136.74452770501375L446.7525085866728,97.75902696326375L412.6388360533383,97.51948453485966L353.4339049244518,97.16017090901732L353.1729260088905,139.9184600263834L248.78135978667706,139.31960489600897L247.29005169778247,380.8368119895458L245.53776469334116,663.2529334425926"></path><path class="center" style="fill:none; stroke:red; stroke-width:1;stroke-linejoin:round; stroke-linecap:round}" d="M400,400m0,4.5a4.5,4.5 0 1,1 0,-9a4.5,4.5 0 1,1 0,9z"></path></svg>
