<svg xmlns="http://www.w3.org/2000/svg" version="1.1" width="800" height="800"><g></g><g></g><g></g><g></g><g><path class="minor_road" style="fill:none;stroke:#ccc;stroke-linejoin:round;stroke-linecap:round;" d="M-204.47190766932908,480.7173202037811L-177.98627601063345,497.4405806660652"></path></g><g></g><g></g><g></g><g><path class="minor_road" style="fill:none;stroke:#ccc;stroke-linejoin:round;stroke-linecap:round;" d="M-177.98627601063345,497.4405806660652L51.5260388693423,642.4872047305107"></path></g><g><path class="minor_road" style="fill:none;stroke:#ccc;stroke-linejoin:round;stroke-linecap:round;" d="M51.5260388693423,642.4872047305107L235.40432622935623,758.6872848421335"></path></g><g></g><g></g><g></g><g><path class="minor_road" style="fill:none;stroke:#ccc;stroke-linejoin:round;stroke-linecap:round;" d="M235.40432622935623,758.6872848421335L307.5388984889141,804.2568494826555"></path></g><g><path class="minor_road" style="fill:none;stroke:#ccc;stroke-linejoin:round;stroke-linecap:round;" d="M307.5388984889141,804.2568494826555L563.5517581084569,966.0502133071423"></path></g><g><path class="minor_road" style="fill:none;stroke:#ccc;stroke-linejoin:round;stroke-linecap:round;" d="M563.5517581084569,966.0502133071423L638.191727957339,1013.224925071001"></path></g><path class="waypath" style="fill:none;stroke:orange; stroke-width:5;stroke-linejoin:round; stroke-linecap:round}" d="M547.1921083733614,625.9316781014204L300.6788812800078,511.1689859032631L262.2031325866992,593.5872989594936L119.335817671119,527.2213948071003L188.97990542225307,377.7182715833187L200.31384689779952,384.1871609389782L325.1363339377858,174.06785440444946L680.6641823289101,339.3841044008732L547.1921083733614,625.9316781014204"></path><path class="center" style="fill:none; stroke:red; stroke-width:1;stroke-linejoin:round; stroke-linecap:round}" d="M400,400m0,4.5a4.5,4.5 0 1,1 0,-9a4.5,4.5 0 1,1 0,9z"></path></svg>
