<svg xmlns="http://www.w3.org/2000/svg" version="1.1" width="960" height="500"><g><path class="path" style="fill:none; stroke:#ccc; stroke-linejoin:round; stroke-linecap:round;" d="M40.735202417778055,169.537381648086L28.33870392888639,169.821809316054"></path><path class="path" style="fill:none; stroke:#ccc; stroke-linejoin:round; stroke-linecap:round;" d="M8.979660800001511,141.37898358423263L4.8319601777784555,152.0824819151312"></path><path class="minor_road" style="fill:none; stroke:#ccc; stroke-linejoin:round; stroke-linecap:round;" d="M60.53231729777508,157.93571656011045L74.01001415111205,157.4417097410187"></path><path class="minor_road" style="fill:none; stroke:#ccc; stroke-linejoin:round; stroke-linecap:round;" d="M-84.85158001778109,100.55583653505892L-97.67682958222395,94.86722313705832"></path><path class="path" style="fill:none; stroke:#ccc; stroke-linejoin:round; stroke-linecap:round;" d="M-37.250889955557795,162.84584302920848L-29.524049920000834,170.19605623651296"></path><path class="path" style="fill:none; stroke:#ccc; stroke-linejoin:round; stroke-linecap:round;" d="M50.493949724444974,169.22301420755684L40.735202417778055,169.537381648086"></path><path class="path" style="fill:none; stroke:#ccc; stroke-linejoin:round; stroke-linecap:round;" d="M28.33870392888639,169.821809316054L24.312172088888474,170.19605623651296"></path><path class="path" style="fill:none; stroke:#ccc; stroke-linejoin:round; stroke-linecap:round;" d="M46.82160355555607,57.15758441481739L-19.38315491555477,57.84621009416878L-19.420437617780408,53.19050034414977L-56.60061240889081,53.32523153629154"></path><path class="path" style="fill:none; stroke:#ccc; stroke-linejoin:round; stroke-linecap:round;" d="M4.8319601777784555,152.0824819151312L2.669563448889676,159.34288731124252"></path><path class="path" style="fill:none; stroke:#ccc; stroke-linejoin:round; stroke-linecap:round;" d="M11.337791715553976,135.63052440434694L8.979660800001511,141.37898358423263"></path><path class="minor_road" style="fill:none; stroke:#ccc; stroke-linejoin:round; stroke-linecap:round;" d="M50.32617756444415,157.93571656011045L60.53231729777508,157.93571656011045"></path><path class="minor_road" style="fill:none; stroke:#ccc; stroke-linejoin:round; stroke-linecap:round;" d="M17.880905955555136,6.288912732154131L-16.78268643555566,6.752990024164319L-34.75294890666737,47.12759381532669L-44.809957831112115,47.12759381532669L-53.59935487999974,47.14256396051496"></path><path class="minor_road" style="fill:none; stroke:#ccc; stroke-linejoin:round; stroke-linecap:round;" d="M46.53266261333374,50.256353659555316L38.507560959998955,50.40605505183339L27.229543537778227,50.51084602158517L23.156408320000992,48.99886183720082L20.145830115554418,45.630579030141234L19.018028373331617,41.12456253916025L17.880905955555136,6.288912732154131L17.59196501333281,-9.414882697165012L17.55468231110899,-17.334160254336894"></path><path class="minor_road" style="fill:none; stroke:#ccc; stroke-linejoin:round; stroke-linecap:round;" d="M74.01001415111205,157.4417097410187L81.33606513777704,157.41176993306726"></path><path class="minor_road" style="fill:none; stroke:#ccc; stroke-linejoin:round; stroke-linecap:round;" d="M-80.27512832000139,102.66661030333489L-84.85158001778109,100.55583653505892"></path><path class="minor_road" style="fill:none; stroke:#ccc; stroke-linejoin:round; stroke-linecap:round;" d="M-97.67682958222395,94.86722313705832L-104.86307043555462,91.40914267580956L-94.40527246222155,68.13067664578557"></path><path class="minor_road" style="fill:none; stroke:#ccc; stroke-linejoin:round; stroke-linecap:round;" d="M-43.50506325333299,170.19605623651296L-37.250889955557795,162.84584302920848L-4.628525511112457,121.87312457431108L46.047987484442274,64.13365873321891"></path><path class="minor_road" style="fill:none; stroke:#ccc; stroke-linejoin:round; stroke-linecap:round;" d="M50.26093283555565,153.10043612774462L11.337791715553976,135.63052440434694L-4.628525511112457,121.87312457431108L-73.93706894222487,88.9839942958206"></path><path class="minor_road" style="fill:none; stroke:#ccc; stroke-linejoin:round; stroke-linecap:round;" d="M-90.77952967111378,-28.83135083783418L-25.795779697778926,-14.699390143156052L-17.36988899555763,-15.627547680400312L17.55468231110899,-17.334160254336894L39.93362431999776,-18.352139889262617L42.356999964446004,-18.666515983641148L44.74309290666497,-19.519822599366307"></path><path class="minor_road" style="fill:none; stroke:#ccc; stroke-linejoin:round; stroke-linecap:round;" d="M50.512591075555974,170.19605623651296L50.493949724444974,169.22301420755684L50.32617756444415,157.93571656011045L50.26093283555565,153.10043612774462L49.05856568888885,124.76233053766191L46.047987484442274,64.13365873321891L46.82160355555607,57.15758441481739L46.53266261333374,50.256353659555316L44.74309290666497,-19.519822599366307L40.97753998222106,-86.0181855103001"></path><path class="minor_road" style="fill:none; stroke:#ccc; stroke-linejoin:round; stroke-linecap:round;" d="M-111.8628977777771,170.19605623651296L-80.27512832000139,102.66661030333489L-73.93706894222487,88.9839942958206L-56.60061240889081,53.32523153629154L-53.59935487999974,47.14256396051496L-25.795779697778926,-14.699390143156052"></path><path class="minor_road" style="fill:none; stroke:#ccc; stroke-linejoin:round; stroke-linecap:round;" d="M49.05856568888885,124.76233053766191L72.17384106666577,124.62760075181723L87.09624263110891,124.5377808958292"></path><path class="minor_road" style="fill:none; stroke:#ccc; stroke-linejoin:round; stroke-linecap:round;" d="M-65.32476472889175,-86.0181855103001L-90.77952967111378,-28.83135083783418L-168.90543217777667,142.39693939499557"></path><path class="minor_road" style="fill:none; stroke:#ccc; stroke-linejoin:round; stroke-linecap:round;" d="M44.74309290666497,-19.519822599366307L48.16378083555537,-21.241406445391476L51.547186062220135,-22.13962427712977L87.09624263110891,-23.59174335282296"></path><path class="minor_road" style="fill:none; stroke:#ccc; stroke-linejoin:round; stroke-linecap:round;" d="M-168.90543217777667,144.2981211617589L-135.89159936000033,170.19605623651296"></path></g><g><path class="path" style="fill:none; stroke:#ccc; stroke-linejoin:round; stroke-linecap:round;" d="M213.12109681777656,-29.729569665156305L214.89202517333433,-44.1459980616346L219.68285240888872,-57.03547851648182L223.5602534399968,-64.56558115500957L228.08078108444352,-68.2932095900178L235.88218652444084,-73.66758509259671L239.6197774222237,-73.98196373693645"></path><path class="path" style="fill:none; stroke:#ccc; stroke-linejoin:round; stroke-linecap:round;" d="M299.4585144888879,170.19605623651296L330.02100963555495,108.25042711850256L331.7453346133334,103.37020141258836L333.1900393244432,97.05284884944558L333.46965959111003,91.30435233004391L332.8917777066672,83.54986237734556L330.8878324622201,79.82231484819204L328.01706439110785,77.8013544883579L314.9587979377775,71.42409788165241"></path><path class="minor_road" style="fill:none; stroke:#ccc; stroke-linejoin:round; stroke-linecap:round;" d="M149.199903857776,-26.136695055291057L150.3370262755525,4.4775139559060335L140.96974734222022,24.612456757575274L108.97186815999885,98.7294927528128"></path><path class="minor_road" style="fill:none; stroke:#ccc; stroke-linejoin:round; stroke-linecap:round;" d="M87.09624263110891,-23.59174335282296L149.199903857776,-26.136695055291057L199.69932401777805,-28.83135083783418L213.12109681777656,-29.729569665156305L343.09791744000177,-38.35247644688934"></path><path class="minor_road" style="fill:none; stroke:#ccc; stroke-linejoin:round; stroke-linecap:round;" d="M262.3715464533325,170.19605623651296L268.429985564444,158.3848136421293L314.9587979377775,71.42409788165241L333.46965959111003,35.01673477701843"></path><path class="minor_road" style="fill:none; stroke:#ccc; stroke-linejoin:round; stroke-linecap:round;" d="M343.09791744000177,146.21427232213318L330.4124780088878,170.19605623651296"></path><path class="minor_road" style="fill:none; stroke:#ccc; stroke-linejoin:round; stroke-linecap:round;" d="M268.429985564444,158.3848136421293L291.7037124266644,170.19605623651296"></path><path class="minor_road" style="fill:none; stroke:#ccc; stroke-linejoin:round; stroke-linecap:round;" d="M87.09624263110891,124.5377808958292L112.0476910933321,124.37311115302145"></path><path class="minor_road" style="fill:none; stroke:#ccc; stroke-linejoin:round; stroke-linecap:round;" d="M333.46965959111003,35.01673477701843L343.09791744000177,39.20838186703622"></path><path class="minor_road" style="fill:none; stroke:#ccc; stroke-linejoin:round; stroke-linecap:round;" d="M333.46965959111003,35.01673477701843L343.09791744000177,15.181227006949484"></path></g><g><path class="path" style="fill:none; stroke:#ccc; stroke-linejoin:round; stroke-linecap:round;" d="M419.35036416,112.56178925186396L398.0992238933304,102.21750955749303L394.64125326222165,99.64266470540315L393.21518990222285,96.18458666373044L391.19260330666657,91.58878326322883L389.1979787377768,88.14567119721323L385.4510671644439,85.84028214588761L377.99452672000007,82.41213724389672L356.9204792888886,72.8911668304354"></path><path class="path" style="fill:none; stroke:#ccc; stroke-linejoin:round; stroke-linecap:round;" d="M355.07498552888865,44.432966963388026L435.38192611555496,82.69656854588538"></path><path class="path" style="fill:none; stroke:#ccc; stroke-linejoin:round; stroke-linecap:round;" d="M599.0995922488873,-46.64604637399316L545.9344588799995,-46.51131320837885L519.5383057066647,-59.101390541531146"></path><path class="path" style="fill:none; stroke:#ccc; stroke-linejoin:round; stroke-linecap:round;" d="M376.56846336000126,170.19605623651296L388.89971711999897,145.51068562921137L368.5433617066665,134.92693661898375L351.5797321955524,170.19605623651296"></path><path class="minor_road" style="fill:none; stroke:#ccc; stroke-linejoin:round; stroke-linecap:round;" d="M468.73130325333113,13.729115867987275L478.36888177777655,18.818988596089184L510.41336433777724,35.70536268968135L515.8379975111129,41.55869715102017L579.4516081777747,75.70554311480373L599.0995922488873,136.52872147224844"></path><path class="minor_road" style="fill:none; stroke:#ccc; stroke-linejoin:round; stroke-linecap:round;" d="M599.0995922488873,99.32829404901713L598.2048073955539,96.60374773107469L599.0995922488873,91.45405282173306"></path><path class="minor_road" style="fill:none; stroke:#ccc; stroke-linejoin:round; stroke-linecap:round;" d="M504.3362838755529,-65.23924879357219L519.5383057066647,-59.101390541531146L531.9441248711119,-86.0181855103001"></path><path class="minor_road" style="fill:none; stroke:#ccc; stroke-linejoin:round; stroke-linecap:round;" d="M471.5461472711104,7.38173985760659L424.1039086933324,-18.891070344485343L421.587326293331,-72.39510026015341L403.5984224711101,-72.39510026015341"></path><path class="minor_road" style="fill:none; stroke:#ccc; stroke-linejoin:round; stroke-linecap:round;" d="M402.200321137776,146.3340317523107L423.7776850488881,156.0794483171776L452.99800291555584,170.19605623651296"></path><path class="minor_road" style="fill:none; stroke:#ccc; stroke-linejoin:round; stroke-linecap:round;" d="M343.09791744000177,-38.35247644688934L353.592998115555,-39.056082168594"></path><path class="minor_road" style="fill:none; stroke:#ccc; stroke-linejoin:round; stroke-linecap:round;" d="M343.09791744000177,15.181227006949484L352.0271246222219,-3.247134138830006"></path><path class="minor_road" style="fill:none; stroke:#ccc; stroke-linejoin:round; stroke-linecap:round;" d="M343.09791744000177,39.20838186703622L355.07498552888865,44.432966963388026"></path><path class="minor_road" style="fill:none; stroke:#ccc; stroke-linejoin:round; stroke-linecap:round;" d="M359.63279587555553,114.95698926504701L343.09791744000177,146.21427232213318"></path><path class="minor_road" style="fill:none; stroke:#ccc; stroke-linejoin:round; stroke-linecap:round;" d="M453.19373710222135,48.819220130331814L468.73130325333113,13.729115867987275L471.5461472711104,7.38173985760659L504.3362838755529,-65.23924879357219L513.2375290311102,-86.0181855103001"></path><path class="major_road" style="fill:none; stroke:#ccc; stroke-linejoin:round; stroke-linecap:round;" d="M406.1988909511092,138.1155359968543L359.63279587555553,114.95698926504701"></path><path class="major_road" style="fill:none; stroke:#ccc; stroke-linejoin:round; stroke-linecap:round;" d="M352.0271246222219,-3.247134138830006L453.19373710222135,48.819220130331814"></path><path class="major_road" style="fill:none; stroke:#ccc; stroke-linejoin:round; stroke-linecap:round;" d="M351.81274908444357,-86.0181855103001L353.592998115555,-39.056082168594L353.84465635555534,-31.196660676039755L352.0271246222219,-3.247134138830006"></path><path class="major_road" style="fill:none; stroke:#ccc; stroke-linejoin:round; stroke-linecap:round;" d="M390.14868764444327,170.19605623651296L402.200321137776,146.3340317523107L406.1988909511092,138.1155359968543"></path><path class="major_road" style="fill:none; stroke:#ccc; stroke-linejoin:round; stroke-linecap:round;" d="M406.1988909511092,138.1155359968543L419.35036416,112.56178925186396L435.38192611555496,82.69656854588538L453.19373710222135,48.819220130331814"></path><path class="major_road" style="fill:none; stroke:#ccc; stroke-linejoin:round; stroke-linecap:round;" d="M352.0271246222219,-3.247134138830006L355.07498552888865,44.432966963388026L356.9204792888886,72.8911668304354L359.63279587555553,114.95698926504701"></path></g><g><path class="minor_road" style="fill:none; stroke:#ccc; stroke-linejoin:round; stroke-linecap:round;" d="M675.2961149155544,2.2619181107729673L688.1493265066638,1.543346330523491"></path><path class="minor_road" style="fill:none; stroke:#ccc; stroke-linejoin:round; stroke-linecap:round;" d="M678.865933653331,49.567727212794125L664.9315236977764,45.046743172220886"></path><path class="minor_road" style="fill:none; stroke:#ccc; stroke-linejoin:round; stroke-linecap:round;" d="M623.3333486933316,52.99588861037046L643.4846492444449,52.69648593571037"></path><path class="path" style="fill:none; stroke:#ccc; stroke-linejoin:round; stroke-linecap:round;" d="M684.8498073599985,170.19605623651296L717.155268835555,58.1755527863279L723.2137079466629,31.768206506967545L725.2828979199985,-6.720234583131969L723.2975940266679,-76.9760467717424"></path><path class="path" style="fill:none; stroke:#ccc; stroke-linejoin:round; stroke-linecap:round;" d="M740.7179366399996,159.77701440174133L742.3117721599974,155.06149454880506"></path><path class="path" style="fill:none; stroke:#ccc; stroke-linejoin:round; stroke-linecap:round;" d="M743.0294641777764,146.46876110881567L734.6222148266643,153.53456361591816L718.963479893333,170.19605623651296"></path><path class="path" style="fill:none; stroke:#ccc; stroke-linejoin:round; stroke-linecap:round;" d="M625.9710998755545,-46.70592778176069L613.3695465244436,-46.69095742981881L599.0995922488873,-46.64604637399316"></path><path class="path" style="fill:none; stroke:#ccc; stroke-linejoin:round; stroke-linecap:round;" d="M722.9713703822199,-86.0181855103001L723.2975940266679,-76.9760467717424"></path><path class="path" style="fill:none; stroke:#ccc; stroke-linejoin:round; stroke-linecap:round;" d="M749.2743167999997,133.6994003150612L749.0226585599994,154.97167509421706"></path><path class="path" style="fill:none; stroke:#ccc; stroke-linejoin:round; stroke-linecap:round;" d="M742.3117721599974,155.06149454880506L743.0294641777764,146.46876110881567L747.6431985777763,121.22941530495882L749.675105848888,122.15755422785878L749.2743167999997,133.6994003150612L754.0092199822211,135.46585493255407L749.0226585599994,154.97167509421706L745.7417807644451,167.77093584928662L739.9070378666675,165.3458146005869L740.7179366399996,159.77701440174133"></path><path class="path" style="fill:none; stroke:#ccc; stroke-linejoin:round; stroke-linecap:round;" d="M723.2975940266679,-76.9760467717424L728.0418178844448,-79.95516069605947L729.2255436799987,-86.0181855103001"></path><path class="path" style="fill:none; stroke:#ccc; stroke-linejoin:round; stroke-linecap:round;" d="M648.8253963377756,170.19605623651296L682.6967313066671,50.61563699413091L694.4034998044444,2.516412263736129L699.6603608177757,-47.25983083341271L700.1357152711098,-56.00252274237573L699.1850063644451,-86.0181855103001"></path><path class="minor_road" style="fill:none; stroke:#ccc; stroke-linejoin:round; stroke-linecap:round;" d="M643.4846492444449,52.69648593571037L652.1062741333317,48.295265121385455L659.3764010666655,39.89700935874134"></path><path class="minor_road" style="fill:none; stroke:#ccc; stroke-linejoin:round; stroke-linecap:round;" d="M622.1589435733331,170.19605623651296L612.8009853155563,141.43886334169656L599.0995922488873,99.32829404901713M599.0995922488873,91.45405282173306L604.4403393422235,60.480951179750264L615.3268883911114,51.888098653405905L623.3333486933316,52.99588861037046"></path><path class="minor_road" style="fill:none; stroke:#ccc; stroke-linejoin:round; stroke-linecap:round;" d="M705.1595593955553,56.96297279279679L691.5700144355542,53.085709411650896L686.704621795554,51.708457021042705L682.6967313066671,50.61563699413091L678.865933653331,49.567727212794125"></path><path class="minor_road" style="fill:none; stroke:#ccc; stroke-linejoin:round; stroke-linecap:round;" d="M599.0995922488873,136.52872147224844L609.9674999466642,170.19605623651296"></path><path class="minor_road" style="fill:none; stroke:#ccc; stroke-linejoin:round; stroke-linecap:round;" d="M664.9315236977764,45.046743172220886L659.3764010666655,39.89700935874134L658.6027849955553,18.295031283982098L668.5106631111121,4.148168676532805L675.2961149155544,2.2619181107729673"></path><path class="minor_road" style="fill:none; stroke:#ccc; stroke-linejoin:round; stroke-linecap:round;" d="M708.2260616533313,-47.080186592414975L699.6603608177757,-47.25983083341271L625.9710998755545,-46.70592778176069L623.7154963911107,-86.0181855103001"></path><path class="major_road" style="fill:none; stroke:#ccc; stroke-linejoin:round; stroke-linecap:round;" d="M715.5334712888889,-86.0181855103001L716.8383658666644,-47.125097651034594"></path><path class="major_road" style="fill:none; stroke:#ccc; stroke-linejoin:round; stroke-linecap:round;" d="M716.2977666844436,-5.5076432805508375L711.3298466133328,28.594527625478804L705.1595593955553,56.96297279279679L676.9458744888889,158.56445246562362L672.8261358933341,170.19605623651296"></path><path class="major_road" style="fill:none; stroke:#ccc; stroke-linejoin:round; stroke-linecap:round;" d="M659.1061014755542,170.19605623651296L691.5700144355542,53.085709411650896L706.3339645155538,-19.87910962663591L708.2260616533313,-47.080186592414975"></path><path class="major_road" style="fill:none; stroke:#ccc; stroke-linejoin:round; stroke-linecap:round;" d="M708.2260616533313,-47.080186592414975L706.9211670755558,-86.0181855103001"></path><path class="major_road" style="fill:none; stroke:#ccc; stroke-linejoin:round; stroke-linecap:round;" d="M716.8383658666644,-47.125097651034594L716.2977666844436,-5.5076432805508375"></path></g><g><path class="minor_road" style="fill:none; stroke:#ccc; stroke-linejoin:round; stroke-linecap:round;" d="M1034.971663928889,126.60363733116537L993.9327294577761,116.94799863081425"></path><path class="path" style="fill:none; stroke:#ccc; stroke-linejoin:round; stroke-linecap:round;" d="M1040.8436895288887,147.86096430104226L1008.0908356266646,140.2412680881098"></path><path class="path" style="fill:none; stroke:#ccc; stroke-linejoin:round; stroke-linecap:round;" d="M986.2245307733319,170.19605623651296L996.9526283377763,128.4299736553803L1021.4194016711099,33.20534362643957"></path><path class="path" style="fill:none; stroke:#ccc; stroke-linejoin:round; stroke-linecap:round;" d="M1021.4194016711099,33.20534362643957L1042.7823900444437,-86.0181855103001"></path><path class="minor_road" style="fill:none; stroke:#ccc; stroke-linejoin:round; stroke-linecap:round;" d="M1054.489158542221,170.19605623651296L1038.6346894222206,164.86677820514888"></path><path class="minor_road" style="fill:none; stroke:#ccc; stroke-linejoin:round; stroke-linecap:round;" d="M1051.7209179022211,75.4959619436413L1034.971663928889,126.60363733116537"></path><path class="minor_road" style="fill:none; stroke:#ccc; stroke-linejoin:round; stroke-linecap:round;" d="M1065.0867666488866,64.97198478225619L1054.8433442133337,93.78938006330281L1045.5506306844436,121.81324464268982L1042.9315208533317,134.68741735816002L1040.8436895288887,147.86096430104226L1040.0980354844432,158.22014471516013L1038.6346894222206,164.86677820514888L1038.075448888887,170.19605623651296"></path><path class="minor_road" style="fill:none; stroke:#ccc; stroke-linejoin:round; stroke-linecap:round;" d="M1099.7783210666657,77.05285050161183L1111.0936211911085,48.909040982834995"></path><path class="minor_road" style="fill:none; stroke:#ccc; stroke-linejoin:round; stroke-linecap:round;" d="M1111.0936211911085,147.5465958630666L1077.8374508088891,136.48381161969155"></path><path class="minor_road" style="fill:none; stroke:#ccc; stroke-linejoin:round; stroke-linecap:round;" d="M1111.0936211911085,80.85524991154671L1099.7783210666657,77.05285050161183L1065.0867666488866,64.97198478225619L1057.145551075555,61.90311213862151L1036.4722926933318,53.9390069488436L1022.3328278755544,49.807249462231994"></path><path class="major_road" style="fill:none; stroke:#ccc; stroke-linejoin:round; stroke-linecap:round;" d="M1068.4049271466665,-86.0181855103001L1056.903213511112,-36.451244328171015L1054.545082595554,-22.124653978273273L1042.4654870755548,28.444825758226216L1036.4722926933318,53.9390069488436"></path><path class="major_road" style="fill:none; stroke:#ccc; stroke-linejoin:round; stroke-linecap:round;" d="M1022.3328278755544,49.807249462231994L1024.7282414933325,39.23832219373435L1029.090317653332,22.995675439946353L1033.7133727288874,8.863792803138494L1044.5253563733313,-25.522912496700883L1050.6583608888886,-48.77183667849749L1060.3052600888877,-86.0181855103001"></path><path class="major_road" style="fill:none; stroke:#ccc; stroke-linejoin:round; stroke-linecap:round;" d="M1014.5966671644419,110.22646843455732L1014.4661777066667,83.8642337648198L1017.4767559111096,71.36421751137823L1022.3328278755544,49.807249462231994"></path><path class="major_road" style="fill:none; stroke:#ccc; stroke-linejoin:round; stroke-linecap:round;" d="M1036.4722926933318,53.9390069488436L1028.5124357688874,74.37320555280894L1014.5966671644419,110.22646843455732"></path><path class="major_road" style="fill:none; stroke:#ccc; stroke-linejoin:round; stroke-linecap:round;" d="M1014.5966671644419,110.22646843455732L1008.0908356266646,140.2412680881098L1003.8685695999993,158.74409128353L1001.529080035556,170.19605623651296"></path></g><g><path class="path" style="fill:none; stroke:#ccc; stroke-linejoin:round; stroke-linecap:round;" d="M-110.2877036088903,232.33572970610112L-121.55640035555916,223.66824476514012"></path><path class="path" style="fill:none; stroke:#ccc; stroke-linejoin:round; stroke-linecap:round;" d="M-29.356277759998193,170.36072487011552L-20.427070577778068,177.48638207744807"></path><path class="minor_road" style="fill:none; stroke:#ccc; stroke-linejoin:round; stroke-linecap:round;" d="M42.45952739555287,197.77051260508597L27.723539342221557,198.05493909679353"></path><path class="path" style="fill:none; stroke:#ccc; stroke-linejoin:round; stroke-linecap:round;" d="M-29.524049920000834,170.19605623651296L-29.356277759998193,170.36072487011552"></path><path class="path" style="fill:none; stroke:#ccc; stroke-linejoin:round; stroke-linecap:round;" d="M-105.44095232000109,336.7039586622268L-112.05863196444625,342.9462419087067L-124.8279574755561,334.7878609802574L-149.49046499555698,366.2088011307642"></path><path class="path" style="fill:none; stroke:#ccc; stroke-linejoin:round; stroke-linecap:round;" d="M-134.15795370666456,277.1998929018155L-145.51985720889024,297.6783318221569L-149.49046499555698,302.5135098202154"></path><path class="path" style="fill:none; stroke:#ccc; stroke-linejoin:round; stroke-linecap:round;" d="M-121.55640035555916,223.66824476514012L-128.90109269333334,218.77313182782382"></path><path class="path" style="fill:none; stroke:#ccc; stroke-linejoin:round; stroke-linecap:round;" d="M86.19213710222175,284.3254385590553L87.09624263110891,285.2086464315653"></path><path class="path" style="fill:none; stroke:#ccc; stroke-linejoin:round; stroke-linecap:round;" d="M-104.85374976000094,416.281415364705L-88.9992806400005,396.31229127570987"></path><path class="path" style="fill:none; stroke:#ccc; stroke-linejoin:round; stroke-linecap:round;" d="M-101.805888853336,238.6679267724976L-110.2877036088903,232.33572970610112"></path><path class="path" style="fill:none; stroke:#ccc; stroke-linejoin:round; stroke-linecap:round;" d="M12.17665251555627,295.1334999166429L-29.235108977780328,344.66773388534784L-36.011240106665355,355.17631027661264"></path><path class="path" style="fill:none; stroke:#ccc; stroke-linejoin:round; stroke-linecap:round;" d="M87.09624263110891,276.88553042523563L86.9191497955544,279.75970112811774L86.19213710222175,284.3254385590553L81.64364743111037,287.8582693664357L80.26418744888724,291.7353993691504L80.76750392888971,314.9532244708389"></path><path class="path" style="fill:none; stroke:#ccc; stroke-linejoin:round; stroke-linecap:round;" d="M-20.427070577778068,177.48638207744807L-14.275424711111555,183.02522813342512"></path><path class="path" style="fill:none; stroke:#ccc; stroke-linejoin:round; stroke-linecap:round;" d="M-122.60963669333432,425.98153851460665L-116.63508366222413,417.68853284977376L-104.85374976000094,416.281415364705L-72.93975665777907,412.9881605459377L-67.75746104889004,416.4610473997891L-65.48321621333525,424.99356363900006L-64.19696298666713,425.98153851460665"></path><path class="path" style="fill:none; stroke:#ccc; stroke-linejoin:round; stroke-linecap:round;" d="M24.312172088888474,170.19605623651296L22.94203278222085,170.31581524200737"></path><path class="minor_road" style="fill:none; stroke:#ccc; stroke-linejoin:round; stroke-linecap:round;" d="M27.723539342221557,198.05493909679353L13.751846684441261,198.15972780343145"></path><path class="minor_road" style="fill:none; stroke:#ccc; stroke-linejoin:round; stroke-linecap:round;" d="M25.17899491555363,304.9685214878991L9.93036970666617,324.83312608953565L12.549479537776278,333.8148424224928L7.301939199996923,341.9881940120831"></path><path class="minor_road" style="fill:none; stroke:#ccc; stroke-linejoin:round; stroke-linecap:round;" d="M50.93202147555348,197.35135775245726L42.45952739555287,197.77051260508597"></path><path class="minor_road" style="fill:none; stroke:#ccc; stroke-linejoin:round; stroke-linecap:round;" d="M50.9693041777773,200.70459586940706L62.16343551999671,200.6746562467888L81.12168959999872,200.37526005506516L85.36259697777496,231.84172826912254"></path><path class="minor_road" style="fill:none; stroke:#ccc; stroke-linejoin:round; stroke-linecap:round;" d="M51.95729578666578,265.6582895061001L87.09624263110891,270.2390060303733"></path><path class="minor_road" style="fill:none; stroke:#ccc; stroke-linejoin:round; stroke-linecap:round;" d="M-81.8503224888882,215.19535593129694L12.17665251555627,295.1334999166429L25.17899491555363,304.9685214878991L48.331552995556194,316.3453932926059L56.31005127110802,317.2884752349928"></path><path class="minor_road" style="fill:none; stroke:#ccc; stroke-linejoin:round; stroke-linecap:round;" d="M-149.49046499555698,366.2088011307642L-168.90543217777667,350.4758949186653"></path><path class="minor_road" style="fill:none; stroke:#ccc; stroke-linejoin:round; stroke-linecap:round;" d="M-168.90543217777667,326.2552319634706L-149.49046499555698,302.5135098202154"></path><path class="minor_road" style="fill:none; stroke:#ccc; stroke-linejoin:round; stroke-linecap:round;" d="M-81.8503224888882,215.19535593129694L-101.805888853336,238.6679267724976L-131.16601685333444,273.1131795346737"></path><path class="minor_road" style="fill:none; stroke:#ccc; stroke-linejoin:round; stroke-linecap:round;" d="M-21.331176106668863,425.98153851460665L-3.3143102577796526,408.3776011215523L11.67333603555744,391.9112920528278"></path><path class="minor_road" style="fill:none; stroke:#ccc; stroke-linejoin:round; stroke-linecap:round;" d="M11.67333603555744,391.9112920528278L57.24211882666532,347.9759911596775"></path><path class="minor_road" style="fill:none; stroke:#ccc; stroke-linejoin:round; stroke-linecap:round;" d="M-131.16601685333444,273.1131795346737L-134.15795370666456,277.1998929018155"></path><path class="minor_road" style="fill:none; stroke:#ccc; stroke-linejoin:round; stroke-linecap:round;" d="M-81.8503224888882,215.19535593129694L-43.50506325333299,170.19605623651296"></path><path class="minor_road" style="fill:none; stroke:#ccc; stroke-linejoin:round; stroke-linecap:round;" d="M58.96644380444377,423.5864476598799L56.412578702220344,403.81194668170065L57.24211882666532,347.9759911596775"></path><path class="minor_road" style="fill:none; stroke:#ccc; stroke-linejoin:round; stroke-linecap:round;" d="M57.24211882666532,347.9759911596775L56.31005127110802,317.2884752349928L51.95729578666578,265.6582895061001L50.9693041777773,200.70459586940706L50.93202147555348,197.35135775245726L50.512591075555974,170.19605623651296"></path><path class="minor_road" style="fill:none; stroke:#ccc; stroke-linejoin:round; stroke-linecap:round;" d="M-118.31280526222326,183.98329834546894L-111.8628977777771,170.19605623651296"></path><path class="minor_road" style="fill:none; stroke:#ccc; stroke-linejoin:round; stroke-linecap:round;" d="M-135.89159936000033,170.19605623651296L-118.31280526222326,183.98329834546894L-81.8503224888882,215.19535593129694"></path><path class="major_road" style="fill:none; stroke:#ccc; stroke-linejoin:round; stroke-linecap:round;" d="M-134.15795370666456,277.1998929018155L-36.011240106665355,355.17631027661264L0.2461878044432524,383.1991015477106L11.67333603555744,391.9112920528278"></path><path class="major_road" style="fill:none; stroke:#ccc; stroke-linejoin:round; stroke-linecap:round;" d="M43.72713927110999,425.98153851460665L14.33904924444505,403.5874062171206L11.67333603555744,391.9112920528278"></path><path class="major_road" style="fill:none; stroke:#ccc; stroke-linejoin:round; stroke-linecap:round;" d="M11.67333603555744,391.9112920528278L21.199066453335035,393.662710451521L58.96644380444377,423.5864476598799L62.21935957333335,425.98153851460665"></path><path class="major_road" style="fill:none; stroke:#ccc; stroke-linejoin:round; stroke-linecap:round;" d="M-168.90543217777667,250.49400012008846L-147.05776867555505,267.18519535753876L-134.15795370666456,277.1998929018155"></path></g><g><path class="path" style="fill:none; stroke:#ccc; stroke-linejoin:round; stroke-linecap:round;" d="M87.49703168000087,270.28391500003636L87.09624263110891,276.88553042523563"></path><path class="path" style="fill:none; stroke:#ccc; stroke-linejoin:round; stroke-linecap:round;" d="M87.09624263110891,285.2086464315653L90.22798961777698,288.2774186609313L95.02813752888869,290.82225311920047L101.90679608888968,314.8184984391555"></path><path class="path" style="fill:none; stroke:#ccc; stroke-linejoin:round; stroke-linecap:round;" d="M343.09791744000177,194.10290675330907L340.572014364443,193.05501900520176L322.2102835199985,185.68986058048904"></path><path class="path" style="fill:none; stroke:#ccc; stroke-linejoin:round; stroke-linecap:round;" d="M343.09791744000177,187.83054768946022L340.572014364443,193.05501900520176L313.20651093333436,245.17975450400263L332.28593379555423,254.296302895993L343.09791744000177,234.37161403987557"></path><path class="path" style="fill:none; stroke:#ccc; stroke-linejoin:round; stroke-linecap:round;" d="M334.1407482311097,280.91236299742013L284.2844546844426,257.6046039806679"></path><path class="path" style="fill:none; stroke:#ccc; stroke-linejoin:round; stroke-linecap:round;" d="M226.23528732444538,290.65758738666773L205.90689393777757,280.1638812860474"></path><path class="path" style="fill:none; stroke:#ccc; stroke-linejoin:round; stroke-linecap:round;" d="M287.83563207111,367.7506539244205L323.93460849777875,377.2562435688451"></path><path class="path" style="fill:none; stroke:#ccc; stroke-linejoin:round; stroke-linecap:round;" d="M222.87984412444348,247.09587734378874L236.11520341333198,253.27836377732456L240.70097578666537,253.86218182183802L245.59433045333026,253.86218182183802L250.18942350222096,252.15563663467765L254.4955756088857,248.98206024058163L262.8189388799983,241.79659880604595L265.69902762666607,238.06913770083338L269.14767758222115,232.60518502164632L297.90196167111026,173.33972952421755L299.4585144888879,170.19605623651296"></path><path class="path" style="fill:none; stroke:#ccc; stroke-linejoin:round; stroke-linecap:round;" d="M226.23528732444538,290.65758738666773L236.69308529777663,297.66336222551763L242.1456804977788,304.1152553372085L247.0669971911102,310.4623553715646L252.19336874666624,313.90535527840257L284.66660238221993,329.60840674489737L304.00700415999745,338.8146593924612"></path><path class="path" style="fill:none; stroke:#ccc; stroke-linejoin:round; stroke-linecap:round;" d="M251.87646577777923,275.34365709871054L261.2064620088877,288.7714160103351L265.40076600888824,292.04976116493344L271.7201840355556,296.0765847945586L281.1993110755575,298.38190282694995L289.2430540799978,299.5195919573307L296.1403539911116,300.9566726954654L318.0159795199961,311.7497381484136"></path><path class="minor_road" style="fill:none; stroke:#ccc; stroke-linejoin:round; stroke-linecap:round;" d="M120.85572949333255,220.34495746251196L126.70911374222123,252.51490934100002L127.11922346666324,264.8199881128967L124.79837525333096,272.9036044245586L119.0568391111101,276.67595542781055"></path><path class="minor_road" style="fill:none; stroke:#ccc; stroke-linejoin:round; stroke-linecap:round;" d="M343.09791744000177,270.7030653748661L340.1339426133345,269.1911299722269"></path><path class="minor_road" style="fill:none; stroke:#ccc; stroke-linejoin:round; stroke-linecap:round;" d="M187.3214668799992,320.05784209258854L187.2935048533309,315.3124938700348L189.8660113066653,309.59412033855915L205.90689393777757,280.1638812860474L222.87984412444348,247.09587734378874L262.3715464533325,170.19605623651296"></path><path class="minor_road" style="fill:none; stroke:#ccc; stroke-linejoin:round; stroke-linecap:round;" d="M330.4124780088878,170.19605623651296L322.2102835199985,185.68986058048904L284.2844546844426,257.6046039806679L280.05286798222005,261.9009020887315L274.30201116444186,265.34392649307847L251.87646577777923,275.34365709871054L240.14173525333354,281.7207231549546L231.22184874666527,286.60082132089883L226.23528732444538,290.65758738666773L206.90420622221973,327.94678909145296"></path><path class="minor_road" style="fill:none; stroke:#ccc; stroke-linejoin:round; stroke-linecap:round;" d="M291.7037124266644,170.19605623651296L297.90196167111026,173.33972952421755L322.2102835199985,185.68986058048904"></path><path class="minor_road" style="fill:none; stroke:#ccc; stroke-linejoin:round; stroke-linecap:round;" d="M139.25474303999908,336.4943855050951L164.8120354133316,328.50066168792546L187.3214668799992,320.05784209258854L193.1841718044452,322.3631520261988L199.2612522666641,324.4139790404588L206.90420622221973,327.94678909145296L287.83563207111,367.7506539244205"></path><path class="minor_road" style="fill:none; stroke:#ccc; stroke-linejoin:round; stroke-linecap:round;" d="M243.3387269688883,425.98153851460665L154.8016298666662,384.3367765424773"></path><path class="minor_road" style="fill:none; stroke:#ccc; stroke-linejoin:round; stroke-linecap:round;" d="M87.09624263110891,270.2390060303733L87.49703168000087,270.28391500003636L111.96380501333442,273.3976028896868L116.09286428444284,274.7748105423525L119.0568391111101,276.67595542781055L121.84372110222102,280.0590938376263L123.9035903999993,285.3433730462566L139.25474303999908,336.4943855050951L154.8016298666662,384.3367765424773L157.01062997333065,397.47990284021944L157.97065955555263,406.2220138311386L156.56323754666482,414.69466551207006L154.41016149333336,420.81712281517684L151.5207520711083,425.98153851460665"></path><path class="major_road" style="fill:none; stroke:#ccc; stroke-linejoin:round; stroke-linecap:round;" d="M252.65940252444307,425.98153851460665L265.44736938666574,409.15600747894496L275.756036551109,390.6838019704446L287.83563207111,367.7506539244205L304.00700415999745,338.8146593924612L314.69781902221985,317.5728967487812L318.0159795199961,311.7497381484136L334.1407482311097,280.91236299742013L340.1339426133345,269.1911299722269L343.09791744000177,263.3379907468334"></path><path class="major_road" style="fill:none; stroke:#ccc; stroke-linejoin:round; stroke-linecap:round;" d="M343.09791744000177,285.5080389054492L334.1407482311097,280.91236299742013"></path></g><g><path class="path" style="fill:none; stroke:#ccc; stroke-linejoin:round; stroke-linecap:round;" d="M579.9176419555533,290.19352939818054L595.8093937777794,265.8379255067557L599.0995922488873,263.41283910535276"></path><path class="path" style="fill:none; stroke:#ccc; stroke-linejoin:round; stroke-linecap:round;" d="M430.0038963200004,307.72292376775295L426.83486663111034,313.5909944884479"></path><path class="path" style="fill:none; stroke:#ccc; stroke-linejoin:round; stroke-linecap:round;" d="M384.4910375822237,320.49195895995945L389.68265386666644,309.39951592031866"></path><path class="path" style="fill:none; stroke:#ccc; stroke-linejoin:round; stroke-linecap:round;" d="M563.5225736533339,324.0996187347919L559.0300080355537,333.1112750666216"></path><path class="path" style="fill:none; stroke:#ccc; stroke-linejoin:round; stroke-linecap:round;" d="M523.5368755199997,378.1095005720854L529.1479222044436,366.32855669781566L531.4780910933332,361.4634849987924L548.5815307377761,329.7281629573554L553.7172229688895,319.0099736843258L563.5225736533339,324.0996187347919L569.6276161422229,310.9413815513253L579.9176419555533,290.19352939818054L567.399974684442,283.5619875956327L569.4505233066648,279.66988331172615L598.9504614400012,228.69808192923665L599.0995922488873,228.772930665873"></path><path class="path" style="fill:none; stroke:#ccc; stroke-linejoin:round; stroke-linecap:round;" d="M569.6276161422229,310.9413815513253L565.163012551111,308.8306722017005"></path><path class="path" style="fill:none; stroke:#ccc; stroke-linejoin:round; stroke-linecap:round;" d="M547.6494631822206,299.1453521326184L565.163012551111,308.8306722017005"></path><path class="path" style="fill:none; stroke:#ccc; stroke-linejoin:round; stroke-linecap:round;" d="M372.17842517333156,205.74941975157708L360.93769045333283,201.4530862942338L343.09791744000177,194.10290675330907"></path><path class="path" style="fill:none; stroke:#ccc; stroke-linejoin:round; stroke-linecap:round;" d="M360.93769045333283,201.4530862942338L376.56846336000126,170.19605623651296M351.5797321955524,170.19605623651296L343.09791744000177,187.83054768946022M343.09791744000177,234.37161403987557L360.93769045333283,201.4530862942338"></path><path class="path" style="fill:none; stroke:#ccc; stroke-linejoin:round; stroke-linecap:round;" d="M561.1924047644425,425.98153851460665L599.0995922488873,350.0118409944698"></path><path class="path" style="fill:none; stroke:#ccc; stroke-linejoin:round; stroke-linecap:round;" d="M524.1147574044444,425.98153851460665L528.6166436977783,420.0387177877128L545.282011591109,389.26170951873064L559.4214764088883,353.03567565698177L555.4881513244436,350.041779958643L553.8663537777757,346.3742559393868L554.5467630933326,342.4372789785266L559.0300080355537,333.1112750666216"></path><path class="path" style="fill:none; stroke:#ccc; stroke-linejoin:round; stroke-linecap:round;" d="M531.4780910933332,361.4634849987924L502.0900010666646,349.7573598008603"></path><path class="minor_road" style="fill:none; stroke:#ccc; stroke-linejoin:round; stroke-linecap:round;" d="M452.99800291555584,170.19605623651296L509.69567231999827,197.56093518156558"></path><path class="minor_road" style="fill:none; stroke:#ccc; stroke-linejoin:round; stroke-linecap:round;" d="M502.0900010666646,349.7573598008603L426.83486663111034,313.5909944884479L343.09791744000177,270.7030653748661"></path><path class="major_road" style="fill:none; stroke:#ccc; stroke-linejoin:round; stroke-linecap:round;" d="M343.09791744000177,263.3379907468334L372.17842517333156,205.74941975157708L390.14868764444327,170.19605623651296"></path><path class="major_road" style="fill:none; stroke:#ccc; stroke-linejoin:round; stroke-linecap:round;" d="M563.5691770311114,398.21340230852365L549.1221299200006,391.3873633882031L545.282011591109,389.26170951873064L523.5368755199997,378.1095005720854L389.68265386666644,309.39951592031866L343.09791744000177,285.5080389054492"></path><path class="major_road" style="fill:none; stroke:#ccc; stroke-linejoin:round; stroke-linecap:round;" d="M599.0995922488873,325.46184661984444L563.5691770311114,398.21340230852365L546.9690538666655,425.98153851460665"></path><path class="major_road" style="fill:none; stroke:#ccc; stroke-linejoin:round; stroke-linecap:round;" d="M527.4702006044427,425.98153851460665L549.1221299200006,391.3873633882031L599.0995922488873,295.7023447807878"></path></g><g><path class="path" style="fill:none; stroke:#ccc; stroke-linejoin:round; stroke-linecap:round;" d="M718.963479893333,170.19605623651296L681.5316468622223,210.01581092644483L677.0856846222214,214.35704832989722L671.353469155556,211.66248751152307L669.5825407999982,211.2283637225628"></path><path class="path" style="fill:none; stroke:#ccc; stroke-linejoin:round; stroke-linecap:round;" d="M669.5825407999982,211.2283637225628L669.0139795911091,209.85114324651659"></path><path class="path" style="fill:none; stroke:#ccc; stroke-linejoin:round; stroke-linecap:round;" d="M669.0139795911091,209.85114324651659L681.3172713244421,182.45637388247997L684.8498073599985,170.19605623651296"></path><path class="path" style="fill:none; stroke:#ccc; stroke-linejoin:round; stroke-linecap:round;" d="M599.0995922488873,263.41283910535276L613.5000359822207,252.81430325005203L621.0870658844451,238.6230175960809L643.1211428977786,194.11787657625973L643.8295142400002,187.83054768946022L648.8253963377756,170.19605623651296"></path><path class="path" style="fill:none; stroke:#ccc; stroke-linejoin:round; stroke-linecap:round;" d="M669.5825407999982,211.2283637225628L659.5255318755535,235.56919277086854L656.7759325866664,234.38658377341926"></path><path class="path" style="fill:none; stroke:#ccc; stroke-linejoin:round; stroke-linecap:round;" d="M599.0995922488873,350.0118409944698L656.7759325866664,234.38658377341926L669.0139795911091,209.85114324651659"></path><path class="path" style="fill:none; stroke:#ccc; stroke-linejoin:round; stroke-linecap:round;" d="M599.0995922488873,228.772930665873L618.5238801066644,237.5601669549942L621.0870658844451,238.6230175960809"></path><path class="minor_road" style="fill:none; stroke:#ccc; stroke-linejoin:round; stroke-linecap:round;" d="M652.851928177779,192.77059230394661L643.8295142400002,187.83054768946022L629.5502392888902,182.99528843909502L623.3426693688889,173.81876532919705L622.1589435733331,170.19605623651296"></path><path class="minor_road" style="fill:none; stroke:#ccc; stroke-linejoin:round; stroke-linecap:round;" d="M609.9674999466642,170.19605623651296L612.3722342400015,177.6510505443439"></path><path class="major_road" style="fill:none; stroke:#ccc; stroke-linejoin:round; stroke-linecap:round;" d="M599.0995922488873,295.7023447807878L652.851928177779,192.77059230394661L659.1061014755542,170.19605623651296"></path><path class="major_road" style="fill:none; stroke:#ccc; stroke-linejoin:round; stroke-linecap:round;" d="M672.8261358933341,170.19605623651296L663.0673885866654,197.74057297501713L627.8352349866673,266.6163481203839L599.0995922488873,325.46184661984444"></path></g><g><path class="minor_road" style="fill:none; stroke:#ccc; stroke-linejoin:round; stroke-linecap:round;" d="M1037.1060986311095,179.38755406904966L1031.9704063999998,197.53099555056542L1022.9759544888893,219.29707374423742"></path><path class="path" style="fill:none; stroke:#ccc; stroke-linejoin:round; stroke-linecap:round;" d="M898.0043366399987,425.98153851460665L898.7406700088886,424.7690238757059L913.2156791466659,394.9500775365159L934.3363299555549,332.9615798788145L963.2024621511118,244.85042084101588L979.1967414044448,197.53099555056542"></path><path class="path" style="fill:none; stroke:#ccc; stroke-linejoin:round; stroke-linecap:round;" d="M979.1967414044448,197.53099555056542L986.2245307733319,170.19605623651296"></path><path class="minor_road" style="fill:none; stroke:#ccc; stroke-linejoin:round; stroke-linecap:round;" d="M1111.0936211911085,188.99819492269307L1099.9740552533312,185.4653129428625L1054.489158542221,170.19605623651296"></path><path class="minor_road" style="fill:none; stroke:#ccc; stroke-linejoin:round; stroke-linecap:round;" d="M1058.2081080888893,380.4596991445869L1091.5761265777764,331.0604506684467L1106.9925239466647,306.1361486762762L1111.0936211911085,303.41168492194265"></path><path class="minor_road" style="fill:none; stroke:#ccc; stroke-linejoin:round; stroke-linecap:round;" d="M1111.0936211911085,203.90813431702554L1110.8419629511118,203.8183154994622L1106.340076657776,200.03095441497862L1102.2110173866658,195.22564344666898L1099.9740552533312,185.4653129428625"></path><path class="minor_road" style="fill:none; stroke:#ccc; stroke-linejoin:round; stroke-linecap:round;" d="M1022.9759544888893,219.29707374423742L1019.8348868266676,224.4167326753959L1008.2586077866654,237.9942890657112L993.2896028444447,255.64357502572238L975.4218678044417,263.5625358223915"></path><path class="minor_road" style="fill:none; stroke:#ccc; stroke-linejoin:round; stroke-linecap:round;" d="M1035.5588664888874,425.98153851460665L1053.976521386665,388.1240353481844L1058.2081080888893,380.4596991445869"></path><path class="minor_road" style="fill:none; stroke:#ccc; stroke-linejoin:round; stroke-linecap:round;" d="M1038.075448888887,170.19605623651296L1037.1060986311095,179.38755406904966"></path><path class="major_road" style="fill:none; stroke:#ccc; stroke-linejoin:round; stroke-linecap:round;" d="M1001.529080035556,170.19605623651296L1001.0164428799981,172.68105524312705L975.4218678044417,263.5625358223915L938.2696550399996,395.5039446949959L931.8570302577773,425.98153851460665"></path><path class="rail" style="fill:none; stroke:#ccc; stroke-linejoin:round; stroke-linecap:round;" d="M1111.0936211911085,253.98193936049938L1094.7451562666665,272.4545148797333L1073.6245054577776,299.1453521326184L1053.678259768889,327.0186781510711L1034.8691364977785,356.6582876993343L1018.1292031999983,385.77383941970766L1002.9271813688883,415.8772432683036L998.7421980444451,425.98153851460665"></path><path class="rail" style="fill:none; stroke:#ccc; stroke-linejoin:round; stroke-linecap:round;" d="M1111.0936211911085,261.09253958333284L1098.3615783822224,275.1340820575133L1077.1756828444431,301.4806083049625L1057.2480785066655,329.11441234871745L1038.2059383466658,358.6342570912093L1021.7642666666652,387.64501458592713L1006.9630338844418,417.68853284977376L1003.467780551111,425.98153851460665"></path><path class="rail" style="fill:none; stroke:#ccc; stroke-linejoin:round; stroke-linecap:round;" d="M1111.0936211911085,268.1133144311607L1102.2296587377768,278.0232231384143L1081.3793075199992,304.2050728322938L1061.5821926399985,331.67420110013336L1041.9528499200005,360.84973724372685L1025.660309048888,389.6509138001129L1011.1386965333331,419.5297606084496L1008.4636626488882,425.98153851460665"></path><path class="rail" style="fill:none; stroke:#ccc; stroke-linejoin:round; stroke-linecap:round;" d="M1111.0936211911085,274.999355240725L1105.9113255822194,280.7626666650176L1085.163501795554,306.6750534689054L1065.357066239998,333.90465952456L1046.557263644445,363.574178067036L1029.901216426666,391.8214757144451L1015.3143591822209,421.3709878735244L1013.4315827200007,425.98153851460665"></path><path class="rail" style="fill:none; stroke:#ccc; stroke-linejoin:round; stroke-linecap:round;" d="M1111.0936211911085,283.2476254077628L1110.3386464711093,284.0559852886945L1089.9356876799975,309.8036943208426L1071.0519990044431,337.2728000571951L1052.0844242488893,366.8375178463757L1035.7359593244437,394.8303224686533L1020.972009244444,423.9008033834398L1020.0772243911106,425.98153851460665"></path><path class="rail" style="fill:none; stroke:#ccc; stroke-linejoin:round; stroke-linecap:round;" d="M1111.0936211911085,290.46298242919147L1093.7292026311115,312.2736729308963L1074.68706247111,339.44337863009423L1055.7474497422209,369.00808701477945L1039.3803434666643,396.7014951556921L1025.17563392,425.7420294685289L1025.0731064888878,425.98153851460665"></path><path class="rail" style="fill:none; stroke:#ccc; stroke-linejoin:round; stroke-linecap:round;" d="M1111.0936211911085,240.74871837999672L1087.726687573333,267.21513468399644L1066.2052477155557,294.29520214442164L1046.277643377778,322.6176342451945L1027.0490897066647,352.0177512699738L1009.982932764442,381.5973745910451L994.3428391822217,412.0750305149704L988.489454933333,425.98153851460665"></path><path class="rail" style="fill:none; stroke:#ccc; stroke-linejoin:round; stroke-linecap:round;" d="M1111.0936211911085,247.5898776780814L1091.492240497777,270.0144611755386L1070.166534826667,296.89991275034845L1049.7449346844423,324.66846117936075L1030.5909464177766,354.1134777870029L1013.9628612266642,383.64818380586803L998.8074427733318,414.0509838629514L993.6624298666648,425.98153851460665"></path></g><g><path class="path" style="fill:none; stroke:#ccc; stroke-linejoin:round; stroke-linecap:round;" d="M-29.216467626669328,556.9019136046991L-31.854218808890437,556.422904688865L-32.860851768889916,561.7668459871784L-33.60650581333357,565.0600290186703L-32.245687182223264,565.34444020316"></path><path class="path" style="fill:none; stroke:#ccc; stroke-linejoin:round; stroke-linecap:round;" d="M-32.860851768889916,561.7668459871784L-36.86874225777865,561.0483331158757"></path><path class="path" style="fill:none; stroke:#ccc; stroke-linejoin:round; stroke-linecap:round;" d="M-36.86874225777865,561.0483331158757L-67.72017834666804,557.7252100957558"></path><path class="path" style="fill:none; stroke:#ccc; stroke-linejoin:round; stroke-linecap:round;" d="M-67.72017834666804,557.7252100957558L-72.47372288000042,557.3958915099502L-72.3059507199996,563.8176010586321L-71.90516167111127,579.3105118144304L-74.34717866666688,579.1757910009474"></path><path class="path" style="fill:none; stroke:#ccc; stroke-linejoin:round; stroke-linecap:round;" d="M-72.3059507199996,563.8176010586321L-76.19267242666865,563.8625080967322"></path><path class="path" style="fill:none; stroke:#ccc; stroke-linejoin:round; stroke-linecap:round;" d="M-76.19267242666865,563.8625080967322L-86.32424675555558,564.146919333376"></path><path class="path" style="fill:none; stroke:#ccc; stroke-linejoin:round; stroke-linecap:round;" d="M-86.32424675555558,564.146919333376L-98.2733528177796,564.6408967189491L-95.35598136889166,556.7522233184427"></path><path class="path" style="fill:none; stroke:#ccc; stroke-linejoin:round; stroke-linecap:round;" d="M-29.22578830222301,565.9282315503806L-32.245687182223264,565.34444020316"></path><path class="path" style="fill:none; stroke:#ccc; stroke-linejoin:round; stroke-linecap:round;" d="M-20.240657066669883,558.5784445395693L-29.216467626669328,556.9019136046991"></path><path class="minor_road" style="fill:none; stroke:#ccc; stroke-linejoin:round; stroke-linecap:round;" d="M4.3193230222204875,611.1344867730513L15.205872071110207,613.4247294776142"></path><path class="path" style="fill:none; stroke:#ccc; stroke-linejoin:round; stroke-linecap:round;" d="M-16.903855217778982,568.278365444392L-29.22578830222301,565.9282315503806"></path><path class="path" style="fill:none; stroke:#ccc; stroke-linejoin:round; stroke-linecap:round;" d="M21.040614968886075,447.40259496401995L30.911210382220816,453.4352073930204L36.01894058666585,453.7495617372915L38.8431052800006,450.53117130324244"></path><path class="path" style="fill:none; stroke:#ccc; stroke-linejoin:round; stroke-linecap:round;" d="M-74.34717866666688,579.1757910009474L-78.40167253333493,579.8044880963862L-102.41173276444533,586.2411455279216"></path><path class="path" style="fill:none; stroke:#ccc; stroke-linejoin:round; stroke-linecap:round;" d="M-88.91539455999919,538.9390562959015L-95.35598136889166,556.7522233184427"></path><path class="path" style="fill:none; stroke:#ccc; stroke-linejoin:round; stroke-linecap:round;" d="M-168.90543217777667,478.6134478468448L-166.5939046400017,475.82917612046003L-154.18808547555636,469.8414911432192L-122.60963669333432,425.98153851460665M-64.19696298666713,425.98153851460665L-40.23350613333241,444.468617759645"></path><path class="path" style="fill:none; stroke:#ccc; stroke-linejoin:round; stroke-linecap:round;" d="M15.149948017777206,565.2995331762359L-20.240657066669883,558.5784445395693"></path><path class="path" style="fill:none; stroke:#ccc; stroke-linejoin:round; stroke-linecap:round;" d="M27.220222862220908,576.0921805901453L24.843450595555623,569.7303585894406L22.848826026664028,566.4820848321542L15.149948017777206,565.2995331762359"></path><path class="path" style="fill:none; stroke:#ccc; stroke-linejoin:round; stroke-linecap:round;" d="M80.48788366222107,596.7792878383771L87.09624263110891,600.1622675722465"></path><path class="minor_road" style="fill:none; stroke:#ccc; stroke-linejoin:round; stroke-linecap:round;" d="M-56.199823360000664,599.1294111097232L4.3193230222204875,611.1344867730513"></path><path class="minor_road" style="fill:none; stroke:#ccc; stroke-linejoin:round; stroke-linecap:round;" d="M15.205872071110207,613.4247294776142L24.01391047110883,615.1012465320528"></path><path class="minor_road" style="fill:none; stroke:#ccc; stroke-linejoin:round; stroke-linecap:round;" d="M-46.459717404444746,614.7270240122452L-59.35021169777792,630.4443521983922L-59.79760412444375,638.4676600657403L-23.465610808889323,682.1915283920243"></path><path class="minor_road" style="fill:none; stroke:#ccc; stroke-linejoin:round; stroke-linecap:round;" d="M-54.78308067555918,459.4528452474624L-46.68341361777857,467.73083093669266L-45.68610133333459,480.0355216767639L-49.088147911110354,486.98122538719326L-54.96017351111368,495.5735301077366L-54.671232568889536,503.6868113987148L-47.596839822224865,512.7131997281685"></path><path class="minor_road" style="fill:none; stroke:#ccc; stroke-linejoin:round; stroke-linecap:round;" d="M87.09624263110891,576.5711881220341L74.43876522666687,592.4981694873422"></path><path class="minor_road" style="fill:none; stroke:#ccc; stroke-linejoin:round; stroke-linecap:round;" d="M12.894344533331605,671.2194234328344L16.97680042666616,650.5774482907727L24.01391047110883,615.1012465320528L29.876615395554836,591.5850634770468L27.220222862220908,576.0921805901453"></path><path class="minor_road" style="fill:none; stroke:#ccc; stroke-linejoin:round; stroke-linecap:round;" d="M2.26877439999771,660.4568640533835L-18.544294115557932,637.6892798636109L-36.90602495999883,615.7449092157185L-46.459717404444746,614.7270240122452"></path><path class="minor_road" style="fill:none; stroke:#ccc; stroke-linejoin:round; stroke-linecap:round;" d="M-48.57551075555784,682.1915283920243L-49.04154453333649,677.9104636181146L-96.56766919111033,622.1965016359463L-110.5859652266663,570.7781885042787"></path><path class="minor_road" style="fill:none; stroke:#ccc; stroke-linejoin:round; stroke-linecap:round;" d="M87.09624263110891,647.5387766268104L64.78254535110864,682.1915283920243"></path><path class="minor_road" style="fill:none; stroke:#ccc; stroke-linejoin:round; stroke-linecap:round;" d="M-143.5065912888913,540.2263959757984L-138.35225770666693,541.4987663486972L-129.09682688000248,542.352002822794L-111.3689019733356,546.9624717356637L-103.46496910222413,549.6569001758471"></path><path class="minor_road" style="fill:none; stroke:#ccc; stroke-linejoin:round; stroke-linecap:round;" d="M44.19317304888682,567.3353181807324L54.352709404442066,577.7088308827952L67.4482585600017,587.2141280975193L74.43876522666687,592.4981694873422L80.48788366222107,596.7792878383771L87.09624263110891,602.8267371580005"></path><path class="minor_road" style="fill:none; stroke:#ccc; stroke-linejoin:round; stroke-linecap:round;" d="M25.14171221333163,682.1915283920243L12.894344533331605,671.2194234328344L2.26877439999771,660.4568640533835"></path><path class="minor_road" style="fill:none; stroke:#ccc; stroke-linejoin:round; stroke-linecap:round;" d="M-168.90543217777667,520.4372638473287L-164.66452479999862,524.0298488279805L-153.22805589333257,533.7597569944337L-148.5956801422235,537.4421493886039L-143.5065912888913,540.2263959757984L-140.65446456888822,550.7496402971447L-139.19111850666923,553.2794078523293"></path><path class="minor_road" style="fill:none; stroke:#ccc; stroke-linejoin:round; stroke-linecap:round;" d="M-103.54885518222363,568.7274355199188L-104.90967381333394,560.8237978275865L-103.46496910222413,549.6569001758471L-100.23069468444737,541.0197563571855L-96.08299406222432,528.5654846699908L-89.77289671111248,512.36890984606L-84.58128042666976,499.031405787915L-78.42031388444593,486.0531360777095L-67.06773105777756,472.13178126793355L-54.78308067555918,459.4528452474624L-40.23350613333241,444.468617759645L-21.331176106668863,425.98153851460665"></path><path class="minor_road" style="fill:none; stroke:#ccc; stroke-linejoin:round; stroke-linecap:round;" d="M-127.28861582222271,682.1915283920243L-133.80376803555555,658.7953269463032L-130.03821511110982,645.7574857091531L-121.2208560355557,625.5195932583883L-136.28306773333316,580.5828749006614"></path><path class="major_road" style="fill:none; stroke:#ccc; stroke-linejoin:round; stroke-linecap:round;" d="M60.76533418666622,550.8843616731465L78.65171057777661,519.2397350985557L87.09624263110891,508.2074916251004"></path><path class="major_road" style="fill:none; stroke:#ccc; stroke-linejoin:round; stroke-linecap:round;" d="M87.09624263110891,523.461023000069L73.60922510222008,539.7473858892918L60.76533418666622,550.8843616731465"></path><path class="major_road" style="fill:none; stroke:#ccc; stroke-linejoin:round; stroke-linecap:round;" d="M-168.90543217777667,590.6270504845306L-136.28306773333316,580.5828749006614"></path><path class="major_road" style="fill:none; stroke:#ccc; stroke-linejoin:round; stroke-linecap:round;" d="M44.19317304888682,567.3353181807324L52.777515235555256,560.7639217479154L60.76533418666622,550.8843616731465"></path><path class="major_road" style="fill:none; stroke:#ccc; stroke-linejoin:round; stroke-linecap:round;" d="M-136.28306773333316,580.5828749006614L-110.5859652266663,570.7781885042787L-103.54885518222363,568.7274355199188L-95.20685056000002,565.8533865092322L-87.29359701333306,564.146919333376L-79.16596792888959,562.7398320464417L-67.69221632000153,561.7518769670278L-59.23836359111192,562.8745531830937L-46.888468479999574,565.2246881248429L-7.322200746668386,573.5474524991587L7.031639608887417,575.328762261197L13.593395199997758,575.8975837659091L17.824981902222135,576.6759710172191L27.220222862220908,576.0921805901453L32.80330752000009,574.6701267752796L36.15875071999835,572.9337238203734L44.19317304888682,567.3353181807324"></path><path class="major_road" style="fill:none; stroke:#ccc; stroke-linejoin:round; stroke-linecap:round;" d="M87.09624263110891,459.6025376599282L59.199460693333094,437.7923179939389L43.72713927110999,425.98153851460665"></path><path class="major_road" style="fill:none; stroke:#ccc; stroke-linejoin:round; stroke-linecap:round;" d="M62.21935957333335,425.98153851460665L87.09624263110891,444.2889864612371"></path></g><g><path class="path" style="fill:none; stroke:#ccc; stroke-linejoin:round; stroke-linecap:round;" d="M242.313452657776,623.6784210735932L238.92072675555573,634.9799173204228L231.7438065777751,645.4132025400177L222.31128291555433,653.5861809691414"></path><path class="path" style="fill:none; stroke:#ccc; stroke-linejoin:round; stroke-linecap:round;" d="M312.52610161777557,654.9333742726594L322.2662075733315,640.5483297836035L325.39795455999774,634.9799173204228L332.62147811555405,639.7998875090852L340.311035448889,627.0314497277141L343.09791744000177,625.0256202854216"></path><path class="path" style="fill:none; stroke:#ccc; stroke-linejoin:round; stroke-linecap:round;" d="M343.09791744000177,610.4309480041265L338.24184547555524,594.2046295730397L333.1900393244432,588.5463655488566L332.1647650133309,589.7438821373507L327.0197521066639,583.8461109157652L320.82150286221986,577.903427651152"></path><path class="path" style="fill:none; stroke:#ccc; stroke-linejoin:round; stroke-linecap:round;" d="M271.7201840355556,626.5973523622379L281.8703997155535,632.9142147665843L289.55063637333296,639.350822109729L284.8996192711111,645.6527038775384L291.2563199999986,649.3050982477143L301.0430293333302,655.8464718107134"></path><path class="path" style="fill:none; stroke:#ccc; stroke-linejoin:round; stroke-linecap:round;" d="M343.09791744000177,676.5632748454809L312.52610161777557,654.9333742726594"></path><path class="path" style="fill:none; stroke:#ccc; stroke-linejoin:round; stroke-linecap:round;" d="M301.0430293333302,655.8464718107134L307.0641857422197,658.7354517299682L312.52610161777557,654.9333742726594"></path><path class="path" style="fill:none; stroke:#ccc; stroke-linejoin:round; stroke-linecap:round;" d="M264.7203566933331,619.0380662018433L272.65225159111105,607.7066057231277L274.833289671109,605.4912057053298L282.25254741333265,611.0147354975343L290.3428937955541,598.9348149420694L294.4067083377777,594.7584805618972"></path><path class="path" style="fill:none; stroke:#ccc; stroke-linejoin:round; stroke-linecap:round;" d="M247.85925461333136,618.1249637436122L250.46904376888597,613.8737965878099L252.63144049777475,610.5207614703104"></path><path class="path" style="fill:none; stroke:#ccc; stroke-linejoin:round; stroke-linecap:round;" d="M246.33066382222023,620.5798618812114L247.85925461333136,618.1249637436122"></path><path class="path" style="fill:none; stroke:#ccc; stroke-linejoin:round; stroke-linecap:round;" d="M242.313452657776,623.6784210735932L246.33066382222023,620.5798618812114"></path><path class="path" style="fill:none; stroke:#ccc; stroke-linejoin:round; stroke-linecap:round;" d="M252.63144049777475,610.5207614703104L264.7203566933331,619.0380662018433L269.6882767644456,623.4987944923341L271.7201840355556,626.5973523622379L253.9549764266667,659.1845158543438L239.57317404444075,681.038934295997L239.01393351111074,682.1915283920243"></path><path class="path" style="fill:none; stroke:#ccc; stroke-linejoin:round; stroke-linecap:round;" d="M87.09624263110891,600.1622675722465L91.7659010844418,602.5423275344074L106.0544967111091,608.544865003787L115.44041699555419,606.0749936169013L118.96363235555327,601.4645646382123"></path><path class="path" style="fill:none; stroke:#ccc; stroke-linejoin:round; stroke-linecap:round;" d="M222.31128291555433,653.5861809691414L218.02377215999877,661.2651792541146L216.13167502222132,665.3666289933026"></path><path class="path" style="fill:none; stroke:#ccc; stroke-linejoin:round; stroke-linecap:round;" d="M201.15334940444336,525.5866350689903L294.4067083377777,594.7584805618972L299.04840476444224,595.2524557299912L304.7246961777764,593.306492739357L320.82150286221986,577.903427651152L340.86095530666717,563.158964461647L343.09791744000177,561.3028064304963"></path><path class="path" style="fill:none; stroke:#ccc; stroke-linejoin:round; stroke-linecap:round;" d="M201.15334940444336,525.5866350689903L187.14437404444288,512.5036319764331"></path><path class="path" style="fill:none; stroke:#ccc; stroke-linejoin:round; stroke-linecap:round;" d="M179.63190954666788,553.8033240912482L189.94057671110932,540.7203750908375L190.7235134577768,539.8521693497896L198.1614125511096,529.0145573597401L201.15334940444336,525.5866350689903"></path><path class="path" style="fill:none; stroke:#ccc; stroke-linejoin:round; stroke-linecap:round;" d="M301.0430293333302,655.8464718107134L283.46423523555313,682.1915283920243"></path><path class="path" style="fill:none; stroke:#ccc; stroke-linejoin:round; stroke-linecap:round;" d="M252.63144049777475,610.5207614703104L179.63190954666788,553.8033240912482L164.66290460444543,542.1723741004243L175.23255068444632,528.1762883104384"></path><path class="path" style="fill:none; stroke:#ccc; stroke-linejoin:round; stroke-linecap:round;" d="M160.28218709333305,548.5641598813236L175.80111189333365,571.5865143258125L203.85634531555297,618.8434706060216L222.31128291555433,653.5861809691414"></path><path class="path" style="fill:none; stroke:#ccc; stroke-linejoin:round; stroke-linecap:round;" d="M145.20133404444277,604.293691881001L146.86041429333272,595.4021451678127L149.8523511466683,586.7351213125512L156.58187889777582,579.2805738560855L164.4112463644451,575.1940413732082L175.80111189333365,571.5865143258125L189.02715050666484,573.8917392967269L198.02160241777528,579.2356669167057L205.73912177777675,589.5343167502433L210.86549333333278,597.2283560428768L219.4311941688884,601.5244403565302L227.7359160888882,602.9614575039595L234.34427505777603,608.3802069397643L235.59324558222215,617.5411768630147L234.0926168177757,623.0197902498767"></path><path class="path" style="fill:none; stroke:#ccc; stroke-linejoin:round; stroke-linecap:round;" d="M129.7476539733325,601.3897199835628L145.20133404444277,604.293691881001L203.85634531555297,618.8434706060216L234.0926168177757,623.0197902498767L242.313452657776,623.6784210735932"></path><path class="path" style="fill:none; stroke:#ccc; stroke-linejoin:round; stroke-linecap:round;" d="M127.10990279110956,458.62953689787537L119.52287288888874,468.6589227411896"></path><path class="path" style="fill:none; stroke:#ccc; stroke-linejoin:round; stroke-linecap:round;" d="M164.66290460444543,542.1723741004243L161.95990869333218,545.6601642752066L160.28218709333305,548.5641598813236L118.96363235555327,601.4645646382123L129.7476539733325,601.3897199835628L216.13167502222132,665.3666289933026L234.58661262222085,678.2697139121592L239.57317404444075,681.038934295997"></path><path class="minor_road" style="fill:none; stroke:#ccc; stroke-linejoin:round; stroke-linecap:round;" d="M114.74136632888803,541.7831785213202L87.09624263110891,576.5711881220341"></path><path class="minor_road" style="fill:none; stroke:#ccc; stroke-linejoin:round; stroke-linecap:round;" d="M140.18681059555456,653.6909626815468L132.0964642133331,665.8306614710018L123.9688351288878,676.922525210306L120.26852693333058,682.1915283920243"></path><path class="minor_road" style="fill:none; stroke:#ccc; stroke-linejoin:round; stroke-linecap:round;" d="M250.6461366044423,484.79572454839945L243.94457088000127,493.747292031534L228.975565937777,513.6412854138762L305.2839367111101,570.9877544669434"></path><path class="minor_road" style="fill:none; stroke:#ccc; stroke-linejoin:round; stroke-linecap:round;" d="M250.20806485333196,429.2149098338559L343.09791744000177,478.02964902762324"></path><path class="minor_road" style="fill:none; stroke:#ccc; stroke-linejoin:round; stroke-linecap:round;" d="M223.87715640888746,465.1710932161659L250.6461366044423,484.79572454839945L337.7758116977766,550.6897641308606L343.09791744000177,554.8212183872238"></path><path class="minor_road" style="fill:none; stroke:#ccc; stroke-linejoin:round; stroke-linecap:round;" d="M151.5207520711083,425.98153851460665L148.51949454222085,431.34055125527084L127.10990279110956,458.62953689787537"></path><path class="minor_road" style="fill:none; stroke:#ccc; stroke-linejoin:round; stroke-linecap:round;" d="M101.35687623110971,625.3699044855312L87.09624263110891,647.5387766268104"></path><path class="minor_road" style="fill:none; stroke:#ccc; stroke-linejoin:round; stroke-linecap:round;" d="M170.60949560888912,682.1915283920243L173.39637759999823,678.2098388662562"></path><path class="minor_road" style="fill:none; stroke:#ccc; stroke-linejoin:round; stroke-linecap:round;" d="M250.20806485333196,429.2149098338559L243.3387269688883,425.98153851460665"></path><path class="minor_road" style="fill:none; stroke:#ccc; stroke-linejoin:round; stroke-linecap:round;" d="M87.09624263110891,602.8267371580005L98.33697735110945,613.0954135805368L100.43412935111155,620.7295507639647L101.35687623110971,625.3699044855312L140.18681059555456,653.6909626815468L173.39637759999823,678.2098388662562L178.9608209066664,682.1915283920243"></path><path class="major_road" style="fill:none; stroke:#ccc; stroke-linejoin:round; stroke-linecap:round;" d="M183.29493503999947,517.2787813199684L187.14437404444288,512.5036319764331L223.87715640888746,465.1710932161659L250.20806485333196,429.2149098338559L252.65940252444307,425.98153851460665"></path><path class="major_road" style="fill:none; stroke:#ccc; stroke-linejoin:round; stroke-linecap:round;" d="M183.29493503999947,517.2787813199684L175.23255068444632,528.1762883104384"></path><path class="major_road" style="fill:none; stroke:#ccc; stroke-linejoin:round; stroke-linecap:round;" d="M343.09791744000177,589.5492857061327L342.4361494755558,590.1480439361185L338.24184547555524,594.2046295730397"></path><path class="major_road" style="fill:none; stroke:#ccc; stroke-linejoin:round; stroke-linecap:round;" d="M338.24184547555524,594.2046295730397L318.90144369777954,612.4068439230323"></path><path class="major_road" style="fill:none; stroke:#ccc; stroke-linejoin:round; stroke-linecap:round;" d="M93.26652984888824,500.13912316598L96.87363128888865,485.36455360334367L96.92023466666615,467.2967234393582"></path><path class="major_road" style="fill:none; stroke:#ccc; stroke-linejoin:round; stroke-linecap:round;" d="M87.09624263110891,508.2074916251004L93.26652984888824,500.13912316598L105.16903253333112,485.2897076755762L111.72146744888596,477.67038819473237"></path><path class="major_road" style="fill:none; stroke:#ccc; stroke-linejoin:round; stroke-linecap:round;" d="M111.72146744888596,477.67038819473237L119.52287288888874,468.6589227411896"></path><path class="major_road" style="fill:none; stroke:#ccc; stroke-linejoin:round; stroke-linecap:round;" d="M146.93497969777673,505.54298510123044L128.92743452444302,499.9445241801441L117.40707953777746,499.690048571676L101.60853447111003,505.9172136085108L87.09624263110891,523.461023000069"></path><path class="major_road" style="fill:none; stroke:#ccc; stroke-linejoin:round; stroke-linecap:round;" d="M305.07888184888725,605.8354908917099L327.0197521066639,583.8461109157652L343.09791744000177,569.4758855840191"></path><path class="major_road" style="fill:none; stroke:#ccc; stroke-linejoin:round; stroke-linecap:round;" d="M175.23255068444632,528.1762883104384L146.93497969777673,505.54298510123044"></path><path class="major_road" style="fill:none; stroke:#ccc; stroke-linejoin:round; stroke-linecap:round;" d="M304.5476033422219,630.5641031330451L291.2563199999986,649.3050982477143"></path><path class="major_road" style="fill:none; stroke:#ccc; stroke-linejoin:round; stroke-linecap:round;" d="M87.09624263110891,444.2889864612371L106.73490602666607,458.7492908462882L119.52287288888874,468.6589227411896"></path><path class="major_road" style="fill:none; stroke:#ccc; stroke-linejoin:round; stroke-linecap:round;" d="M304.5476033422219,630.5641031330451L290.5013452799976,622.2114705201238"></path><path class="major_road" style="fill:none; stroke:#ccc; stroke-linejoin:round; stroke-linecap:round;" d="M318.90144369777954,612.4068439230323L340.311035448889,627.0314497277141L343.09791744000177,629.1420606700704"></path><path class="major_road" style="fill:none; stroke:#ccc; stroke-linejoin:round; stroke-linecap:round;" d="M183.29493503999947,517.2787813199684L198.1614125511096,529.0145573597401L282.1406993066648,592.7077347831801L290.3428937955541,598.9348149420694L305.07888184888725,605.8354908917099"></path><path class="major_road" style="fill:none; stroke:#ccc; stroke-linejoin:round; stroke-linecap:round;" d="M119.52287288888874,468.6589227411896L183.29493503999947,517.2787813199684"></path><path class="major_road" style="fill:none; stroke:#ccc; stroke-linejoin:round; stroke-linecap:round;" d="M318.90144369777954,612.4068439230323L304.5476033422219,630.5641031330451"></path><path class="major_road" style="fill:none; stroke:#ccc; stroke-linejoin:round; stroke-linecap:round;" d="M111.72146744888596,477.67038819473237L96.92023466666615,467.2967234393582L87.09624263110891,459.6025376599282"></path><path class="major_road" style="fill:none; stroke:#ccc; stroke-linejoin:round; stroke-linecap:round;" d="M290.5013452799976,622.2114705201238L305.07888184888725,605.8354908917099"></path><path class="major_road" style="fill:none; stroke:#ccc; stroke-linejoin:round; stroke-linecap:round;" d="M146.93497969777673,505.54298510123044L121.99285191110903,486.0531360777095L111.72146744888596,477.67038819473237"></path><path class="major_road" style="fill:none; stroke:#ccc; stroke-linejoin:round; stroke-linecap:round;" d="M290.5013452799976,622.2114705201238L272.65225159111105,607.7066057231277L189.94057671110932,540.7203750908375L175.23255068444632,528.1762883104384"></path><path class="major_road" style="fill:none; stroke:#ccc; stroke-linejoin:round; stroke-linecap:round;" d="M305.07888184888725,605.8354908917099L318.90144369777954,612.4068439230323"></path><path class="major_road" style="fill:none; stroke:#ccc; stroke-linejoin:round; stroke-linecap:round;" d="M249.88184120888764,682.1915283920243L254.42101020444352,673.4797084359452L281.8703997155535,632.9142147665843L290.5013452799976,622.2114705201238"></path><path class="major_road" style="fill:none; stroke:#ccc; stroke-linejoin:round; stroke-linecap:round;" d="M291.2563199999986,649.3050982477143L267.358107875556,682.1915283920243"></path><path class="major_road" style="fill:none; stroke:#ccc; stroke-linejoin:round; stroke-linecap:round;" d="M343.09791744000177,652.0892992019653L326.70284913777687,643.003219852224L322.2662075733315,640.5483297836035L304.5476033422219,630.5641031330451"></path></g><g><path class="path" style="fill:none; stroke:#ccc; stroke-linejoin:round; stroke-linecap:round;" d="M344.29096391110943,677.4164944319054L343.09791744000177,676.5632748454809"></path><path class="path" style="fill:none; stroke:#ccc; stroke-linejoin:round; stroke-linecap:round;" d="M436.30467299555676,567.6047602714971L423.66583694222027,543.9686611061916L422.34230101333196,541.3640447948128"></path><path class="path" style="fill:none; stroke:#ccc; stroke-linejoin:round; stroke-linecap:round;" d="M397.02734620444244,661.0556160639971L398.9567260444437,658.1816059332341L401.78089073777664,658.2115435441956"></path><path class="path" style="fill:none; stroke:#ccc; stroke-linejoin:round; stroke-linecap:round;" d="M344.40281201777543,614.8018685160205L343.09791744000177,610.4309480041265"></path><path class="path" style="fill:none; stroke:#ccc; stroke-linejoin:round; stroke-linecap:round;" d="M377.90131996444325,682.1915283920243L383.2886704355551,674.9915542788804"></path><path class="path" style="fill:none; stroke:#ccc; stroke-linejoin:round; stroke-linecap:round;" d="M397.02734620444244,661.0556160639971L401.240291555554,664.5134078962728L400.1590931911087,666.2348187640309L395.2843798755548,662.762059004046"></path><path class="path" style="fill:none; stroke:#ccc; stroke-linejoin:round; stroke-linecap:round;" d="M395.2843798755548,662.762059004046L348.20564764444316,621.3283062586561"></path><path class="path" style="fill:none; stroke:#ccc; stroke-linejoin:round; stroke-linecap:round;" d="M348.20564764444316,621.3283062586561L344.40281201777543,614.8018685160205L346.66773617777653,606.3594030942768L354.7114791822223,599.1593489805236L398.26699605333124,559.2819886486977L405.18293731555605,553.8033240912482L422.34230101333196,541.3640447948128"></path><path class="path" style="fill:none; stroke:#ccc; stroke-linejoin:round; stroke-linecap:round;" d="M351.35603598222224,682.1915283920243L344.29096391110943,677.4164944319054"></path><path class="path" style="fill:none; stroke:#ccc; stroke-linejoin:round; stroke-linecap:round;" d="M343.09791744000177,625.0256202854216L348.20564764444316,621.3283062586561"></path><path class="path" style="fill:none; stroke:#ccc; stroke-linejoin:round; stroke-linecap:round;" d="M506.5639253333338,491.2324715843424L529.7724074666658,474.0029327608645L548.2646277688873,451.90834320988506L561.1924047644425,425.98153851460665"></path><path class="path" style="fill:none; stroke:#ccc; stroke-linejoin:round; stroke-linecap:round;" d="M447.12597731555434,587.9176692543551L442.8943906133318,579.9392088968307"></path><path class="path" style="fill:none; stroke:#ccc; stroke-linejoin:round; stroke-linecap:round;" d="M343.09791744000177,561.3028064304963L347.11512860444236,557.9497454836965L409.16286577777646,512.3240024689585L411.63284479999857,506.93511504493654L475.70316856888894,470.4252906627953L484.7069411555549,466.0842161392793L512.1842926933314,441.7142706634477L524.1147574044444,425.98153851460665"></path><path class="path" style="fill:none; stroke:#ccc; stroke-linejoin:round; stroke-linecap:round;" d="M442.8943906133318,579.9392088968307L436.30467299555676,567.6047602714971"></path><path class="path" style="fill:none; stroke:#ccc; stroke-linejoin:round; stroke-linecap:round;" d="M506.5639253333338,491.2324715843424L503.8143260444431,495.7232217323035L454.21901141333,576.5562191363424L447.12597731555434,587.9176692543551L429.8081621333331,615.6700647221878L401.78089073777664,658.2115435441956"></path><path class="path" style="fill:none; stroke:#ccc; stroke-linejoin:round; stroke-linecap:round;" d="M422.34230101333196,541.3640447948128L446.1193443555567,525.945893380791L506.5639253333338,491.2324715843424"></path><path class="minor_road" style="fill:none; stroke:#ccc; stroke-linejoin:round; stroke-linecap:round;" d="M398.6771057777769,541.4089519800618L405.18293731555605,553.8033240912482L413.0216254577754,569.0268155578524"></path><path class="minor_road" style="fill:none; stroke:#ccc; stroke-linejoin:round; stroke-linecap:round;" d="M474.1093330488875,438.7204138673842L484.7069411555549,466.0842161392793L487.1116754488867,466.3686314485967"></path><path class="minor_road" style="fill:none; stroke:#ccc; stroke-linejoin:round; stroke-linecap:round;" d="M343.09791744000177,478.02964902762324L394.76242204444316,505.18372571468353L409.16286577777646,512.3240024689585L413.49697991111134,513.1023969668895"></path><path class="minor_road" style="fill:none; stroke:#ccc; stroke-linejoin:round; stroke-linecap:round;" d="M343.09791744000177,554.8212183872238L347.11512860444236,557.9497454836965L355.6994707911126,558.2191879451275"></path><path class="major_road" style="fill:none; stroke:#ccc; stroke-linejoin:round; stroke-linecap:round;" d="M521.1973859555546,458.7642600890249L501.05540607999865,473.91311749909073L465.31061532444255,494.58556530997157L428.9133772799996,517.2338739763945L398.6771057777769,541.4089519800618L375.1610413511098,560.4495723312721"></path><path class="major_road" style="fill:none; stroke:#ccc; stroke-linejoin:round; stroke-linecap:round;" d="M546.9690538666655,425.98153851460665L537.3128339911109,442.13341051340103L521.1973859555546,458.7642600890249"></path><path class="major_road" style="fill:none; stroke:#ccc; stroke-linejoin:round; stroke-linecap:round;" d="M343.09791744000177,569.4758855840191L355.6994707911126,558.2191879451275L413.49697991111134,513.1023969668895L469.3185058133349,479.0774930212647L487.1116754488867,466.3686314485967L509.18303516444576,446.1302070431411L526.2678334577777,427.89761059358716L527.4702006044427,425.98153851460665"></path><path class="major_road" style="fill:none; stroke:#ccc; stroke-linejoin:round; stroke-linecap:round;" d="M375.1610413511098,560.4495723312721L343.09791744000177,589.5492857061327"></path><path class="major_road" style="fill:none; stroke:#ccc; stroke-linejoin:round; stroke-linecap:round;" d="M343.09791744000177,629.1420606700704L369.7736908799998,649.3649735506624L393.52277219555435,666.0851308833808L410.29066751999926,677.6110883578658"></path><path class="major_road" style="fill:none; stroke:#ccc; stroke-linejoin:round; stroke-linecap:round;" d="M394.42687772444333,682.1915283920243L383.2886704355551,674.9915542788804L380.5949951999992,673.2551768478006L371.74967409777673,667.926291629672L360.07086762666586,661.4897112362087L343.09791744000177,652.0892992019653"></path><path class="major_road" style="fill:none; stroke:#ccc; stroke-linejoin:round; stroke-linecap:round;" d="M410.29066751999926,677.6110883578658L416.5261994666653,682.1915283920243"></path></g><g><path class="path" style="fill:none; stroke:#ccc; stroke-linejoin:round; stroke-linecap:round;" d="M802.4674121955541,682.1915283920243L808.7122648177774,664.588251859881L815.4511132444441,649.6793188750744L839.9365279288868,540.166519719176L851.5594103466665,503.9712251452729L855.0919463822192,497.9685957012698"></path></g><g><path class="minor_road" style="fill:none; stroke:#ccc; stroke-linejoin:round; stroke-linecap:round;" d="M1015.6778655288872,457.0877046305686L971.0784329955568,448.39056659303606"></path><path class="minor_road" style="fill:none; stroke:#ccc; stroke-linejoin:round; stroke-linecap:round;" d="M986.8676573866669,602.1681043263525L944.7848072533325,596.1805301895365"></path><path class="path" style="fill:none; stroke:#ccc; stroke-linejoin:round; stroke-linecap:round;" d="M855.0919463822192,497.9685957012698L869.315297279998,473.7035485561937L898.0043366399987,425.98153851460665"></path><path class="path" style="fill:none; stroke:#ccc; stroke-linejoin:round; stroke-linecap:round;" d="M1095.3043967999984,682.1915283920243L1095.863637333332,678.853495602496L1104.3640934399991,669.8722333433107L1111.0936211911085,667.7616349980235"></path><path class="minor_road" style="fill:none; stroke:#ccc; stroke-linejoin:round; stroke-linecap:round;" d="M1021.4007603199989,457.91101316642016L1022.8454650311105,452.1328820819035L1035.5588664888874,425.98153851460665"></path><path class="minor_road" style="fill:none; stroke:#ccc; stroke-linejoin:round; stroke-linecap:round;" d="M1091.855746844445,474.27237853128463L1097.0473631288878,453.180730051361L1111.0936211911085,427.927549215965"></path><path class="minor_road" style="fill:none; stroke:#ccc; stroke-linejoin:round; stroke-linecap:round;" d="M944.7848072533325,596.1805301895365L905.6100078933323,591.0910880435258"></path><path class="minor_road" style="fill:none; stroke:#ccc; stroke-linejoin:round; stroke-linecap:round;" d="M971.0784329955568,448.39056659303606L928.837131377777,440.3071581367403"></path><path class="minor_road" style="fill:none; stroke:#ccc; stroke-linejoin:round; stroke-linecap:round;" d="M1111.0936211911085,478.9128318335861L1091.855746844445,474.27237853128463L1021.4007603199989,457.91101316642016L1015.6778655288872,457.0877046305686"></path><path class="minor_road" style="fill:none; stroke:#ccc; stroke-linejoin:round; stroke-linecap:round;" d="M999.1429870933334,604.2487851055339L998.5744258844443,617.3316123252735L997.6982823822218,682.1915283920243"></path><path class="minor_road" style="fill:none; stroke:#ccc; stroke-linejoin:round; stroke-linecap:round;" d="M1111.0936211911085,625.5195932583883L999.1429870933334,604.2487851055339L986.8676573866669,602.1681043263525"></path><path class="major_road" style="fill:none; stroke:#ccc; stroke-linejoin:round; stroke-linecap:round;" d="M905.6100078933323,591.0910880435258L899.5795308088873,670.0817962633446L898.8804801422211,682.1915283920243"></path><path class="major_road" style="fill:none; stroke:#ccc; stroke-linejoin:round; stroke-linecap:round;" d="M931.8570302577773,425.98153851460665L928.837131377777,440.3071581367403L924.8665235911085,461.9527081688866L913.8308437333308,518.0571752535179L905.6100078933323,591.0910880435258"></path><path class="rail" style="fill:none; stroke:#ccc; stroke-linejoin:round; stroke-linecap:round;" d="M1020.0772243911106,425.98153851460665L1008.1840423822214,453.929192786105"></path><path class="rail" style="fill:none; stroke:#ccc; stroke-linejoin:round; stroke-linecap:round;" d="M1025.0731064888878,425.98153851460665L1012.5554392177764,455.0219482341781"></path><path class="rail" style="fill:none; stroke:#ccc; stroke-linejoin:round; stroke-linecap:round;" d="M947.6835373511094,607.0779111944139L943.7315709155555,682.1915283920243"></path><path class="rail" style="fill:none; stroke:#ccc; stroke-linejoin:round; stroke-linecap:round;" d="M948.2800605866669,682.1915283920243L952.4184405333326,607.8263570573181"></path><path class="rail" style="fill:none; stroke:#ccc; stroke-linejoin:round; stroke-linecap:round;" d="M961.4874578488889,609.2484039589763L958.1320146488888,682.1915283920243"></path><path class="rail" style="fill:none; stroke:#ccc; stroke-linejoin:round; stroke-linecap:round;" d="M972.8027579733316,682.1915283920243L976.0463530666657,616.2089450703934"></path><path class="rail" style="fill:none; stroke:#ccc; stroke-linejoin:round; stroke-linecap:round;" d="M979.8398680177761,634.1566301453859L977.2766822399972,682.1915283920243"></path><path class="rail" style="fill:none; stroke:#ccc; stroke-linejoin:round; stroke-linecap:round;" d="M966.5951880533321,610.0716941384599L962.2424325688862,682.1915283920243"></path><path class="rail" style="fill:none; stroke:#ccc; stroke-linejoin:round; stroke-linecap:round;" d="M993.6624298666648,425.98153851460665L984.211264853333,447.88161152787507"></path><path class="rail" style="fill:none; stroke:#ccc; stroke-linejoin:round; stroke-linecap:round;" d="M998.7421980444451,425.98153851460665L989.1512228977754,449.12406059075147"></path><path class="rail" style="fill:none; stroke:#ccc; stroke-linejoin:round; stroke-linecap:round;" d="M974.4152348444441,462.22215441428125L964.7776563199986,495.3639618307352L957.5354914133313,529.8677953919396L952.1388202666658,562.949398258701L948.4478327466659,595.6865550875664"></path><path class="rail" style="fill:none; stroke:#ccc; stroke-linejoin:round; stroke-linecap:round;" d="M1003.467780551111,425.98153851460665L993.2989235199984,450.17190902121365"></path><path class="rail" style="fill:none; stroke:#ccc; stroke-linejoin:round; stroke-linecap:round;" d="M978.8984797866651,463.3598162373528L969.0838084266652,496.5165872834623L961.8882468977772,530.7210333179682L956.4729343999988,563.5032517798245L953.1734152533318,596.449971136637"></path><path class="rail" style="fill:none; stroke:#ccc; stroke-linejoin:round; stroke-linecap:round;" d="M1008.4636626488882,425.98153851460665L997.9872233244423,451.35448062978685"></path><path class="rail" style="fill:none; stroke:#ccc; stroke-linejoin:round; stroke-linecap:round;" d="M983.8570791822222,464.60226248111576L973.6229774222211,497.75902749598026L966.119833599998,531.5742711350322L960.8070485333319,564.0720742754638L957.6380188444436,597.1535113435239"></path><path class="rail" style="fill:none; stroke:#ccc; stroke-linejoin:round; stroke-linecap:round;" d="M956.8830441244427,608.5298960860819L953.1920566044428,682.1915283920243"></path><path class="rail" style="fill:none; stroke:#ccc; stroke-linejoin:round; stroke-linecap:round;" d="M976.0463530666657,616.2089450703934L973.5018086399996,638.4227535156533L968.4313611377765,671.0697356620803L966.6231500800004,682.1915283920243"></path><path class="rail" style="fill:none; stroke:#ccc; stroke-linejoin:round; stroke-linecap:round;" d="M1007.2519748266659,470.5001367488876L996.9339869866653,504.0161325773224L989.9714423466648,536.3793452838436L984.8730328177771,567.2455041501671L981.517589617777,600.9107141941786"></path><path class="rail" style="fill:none; stroke:#ccc; stroke-linejoin:round; stroke-linecap:round;" d="M988.489454933333,425.98153851460665L979.7373405866656,446.75891639851034"></path><path class="rail" style="fill:none; stroke:#ccc; stroke-linejoin:round; stroke-linecap:round;" d="M971.3114498844443,610.8051707642153L968.4313611377765,671.0697356620803L967.8627999288874,682.1915283920243"></path><path class="rail" style="fill:none; stroke:#ccc; stroke-linejoin:round; stroke-linecap:round;" d="M979.8398680177761,634.1566301453859L977.4724164266663,658.6755765117705L973.4924879644441,682.1915283920243"></path><path class="rail" style="fill:none; stroke:#ccc; stroke-linejoin:round; stroke-linecap:round;" d="M980.7626148977761,612.3170304875821L979.8398680177761,634.1566301453859"></path><path class="rail" style="fill:none; stroke:#ccc; stroke-linejoin:round; stroke-linecap:round;" d="M992.6930796088873,466.83267745934427L982.1234335288882,500.03433909639716L974.8253445688879,533.3256536917761L970.3514203022205,565.3145021852106L967.3408420977776,598.6803430300206"></path><path class="rail" style="fill:none; stroke:#ccc; stroke-linejoin:round; stroke-linecap:round;" d="M1013.4315827200007,425.98153851460665L1002.5916370488885,452.5370520297438"></path><path class="rail" style="fill:none; stroke:#ccc; stroke-linejoin:round; stroke-linecap:round;" d="M1002.8805779911108,469.40738378092647L992.460062719998,502.81860094703734L985.283142542221,535.4362936140969L980.3431844977767,566.6317749004811L977.2300788622215,600.2371122399345"></path><path class="rail" style="fill:none; stroke:#ccc; stroke-linejoin:round; stroke-linecap:round;" d="M997.288172657778,468.0002769585699L986.8490160355541,501.30671696644276L979.5416064000001,534.2687056548893L975.1422475377767,565.9432005565614L972.0664246044435,599.413820873946"></path><path class="rail" style="fill:none; stroke:#ccc; stroke-linejoin:round; stroke-linecap:round;" d="M976.4751041422223,611.6134918443859L976.0463530666657,616.2089450703934"></path><path class="rail" style="fill:none; stroke:#ccc; stroke-linejoin:round; stroke-linecap:round;" d="M988.0047798044434,465.6650777598843L977.789319395557,498.86674508079886L970.7894920533308,532.517323339358L965.6165171199991,564.7157417759299L962.2517532444435,597.8720204140991"></path><path class="rail" style="fill:none; stroke:#ccc; stroke-linejoin:round; stroke-linecap:round;" d="M979.7373405866656,446.75891639851034L974.4152348444441,462.22215441428125"></path><path class="rail" style="fill:none; stroke:#ccc; stroke-linejoin:round; stroke-linecap:round;" d="M972.0664246044435,599.413820873946L971.3114498844443,610.8051707642153"></path><path class="rail" style="fill:none; stroke:#ccc; stroke-linejoin:round; stroke-linecap:round;" d="M984.211264853333,447.88161152787507L978.8984797866651,463.3598162373528"></path><path class="rail" style="fill:none; stroke:#ccc; stroke-linejoin:round; stroke-linecap:round;" d="M967.3408420977776,598.6803430300206L966.5951880533321,610.0716941384599"></path><path class="rail" style="fill:none; stroke:#ccc; stroke-linejoin:round; stroke-linecap:round;" d="M981.517589617777,600.9107141941786L980.7626148977761,612.3170304875821"></path><path class="rail" style="fill:none; stroke:#ccc; stroke-linejoin:round; stroke-linecap:round;" d="M962.2517532444435,597.8720204140991L961.4874578488889,609.2484039589763"></path><path class="rail" style="fill:none; stroke:#ccc; stroke-linejoin:round; stroke-linecap:round;" d="M989.1512228977754,449.12406059075147L983.8570791822222,464.60226248111576"></path><path class="rail" style="fill:none; stroke:#ccc; stroke-linejoin:round; stroke-linecap:round;" d="M977.2300788622215,600.2371122399345L976.4751041422223,611.6134918443859"></path><path class="rail" style="fill:none; stroke:#ccc; stroke-linejoin:round; stroke-linecap:round;" d="M993.2989235199984,450.17190902121365L988.0047798044434,465.6650777598843"></path><path class="rail" style="fill:none; stroke:#ccc; stroke-linejoin:round; stroke-linecap:round;" d="M997.9872233244423,451.35448062978685L992.6930796088873,466.83267745934427"></path><path class="rail" style="fill:none; stroke:#ccc; stroke-linejoin:round; stroke-linecap:round;" d="M953.1734152533318,596.449971136637L952.4184405333326,607.8263570573181"></path><path class="rail" style="fill:none; stroke:#ccc; stroke-linejoin:round; stroke-linecap:round;" d="M1002.5916370488885,452.5370520297438L997.288172657778,468.0002769585699"></path><path class="rail" style="fill:none; stroke:#ccc; stroke-linejoin:round; stroke-linecap:round;" d="M1008.1840423822214,453.929192786105L1002.8805779911108,469.40738378092647"></path><path class="rail" style="fill:none; stroke:#ccc; stroke-linejoin:round; stroke-linecap:round;" d="M1012.5554392177764,455.0219482341781L1007.2519748266659,470.5001367488876"></path><path class="rail" style="fill:none; stroke:#ccc; stroke-linejoin:round; stroke-linecap:round;" d="M948.4478327466659,595.6865550875664L947.6835373511094,607.0779111944139"></path><path class="rail" style="fill:none; stroke:#ccc; stroke-linejoin:round; stroke-linecap:round;" d="M957.6380188444436,597.1535113435239L956.8830441244427,608.5298960860819"></path></g><path class="waypath" style="fill:none; stroke:orange; stroke-width:5;stroke-linejoin:round; stroke-linecap:round}" d="M359.56755114666703,271.69106258731335L378.93591495111104,234.47640218399465L373.33418894222086,231.5573031855747L387.9583288888898,203.44407042767853L393.56937557333185,206.36318145506084L412.3971401955532,170.16611648350954L511.4013559466657,221.5275688972324L545.682800640001,154.5076078772545L600.432448853333,182.50128342956305L583.9255324444439,214.77620214223862L554.966193493332,199.97107517160475L538.4313150577764,232.2908204877749L554.4908390399996,240.50920282956213L541.5910240711091,265.7031985055655L535.6537537422209,277.3196500344202L553.987522559999,287.04990993626416L547.6494631822206,299.1453521326184L540.8826527288875,312.06409902404994L537.1543825066674,317.5878663016483L535.5232642844458,319.48899926431477L533.3515468799997,319.90814661607146L530.0986311111101,318.9500954868272L529.2784116622224,316.91423638444394L529.6885213866681,314.2047464940697L520.4610525866665,310.53720321226865L503.8329673955559,345.4910559793934L485.42463317333386,337.961397472769L486.105042488889,335.92554404214025L430.0038963200004,307.72292376775295L359.56755114666703,271.69106258731335"></path><path class="center" style="fill:none; stroke:red; stroke-width:1;stroke-linejoin:round; stroke-linecap:round}" d="M480,250m0,4.5a4.5,4.5 0 1,1 0,-9a4.5,4.5 0 1,1 0,9z"></path></svg>
