<svg xmlns="http://www.w3.org/2000/svg" version="1.1" width="1200" height="800"><g></g><g><path class="riverbank" style="fill:lightblue;stroke:lightblue;stroke-width:1;stroke-linejoin:round;stroke-linecap:round" d="M229.44489244444435,45.491436398006044L246.65318968888892,30.796606870368123L265.4460017777776,22.597343530505896L265.9003847111112,20.444555843481794L277.9706595555556,15.74584384530317L303.97534435555554,8.725807570619509L317.51362559999984,6.816347707761452L317.71168995555536,8.463725097477436L318.87677439999993,7.19075193896424L347.60775679999983,5.955217351089232L347.60775679999983,45.491436398006044Z"></path><path class="basin" style="fill:lightblue;stroke:lightblue;stroke-width:1;stroke-linejoin:round;stroke-linecap:round" d="M259.94680319999975,0.8258576471125707L262.8362126222221,-0.44712691148743033L265.3061916444444,5.094086124794558L262.42843306666646,6.385782637749799Z"></path></g><g><path class="riverbank" style="fill:lightblue;stroke:lightblue;stroke-width:1;stroke-linejoin:round;stroke-linecap:round" d="M347.60775679999983,5.955217351089232L465.05991964444434,6.629145529936068L496.6686606222222,11.926951278932393L496.2958335999999,13.836399699561298L499.0104803555555,15.521203579613939L507.131118933333,18.329202649882063L508.4942677333331,17.00008424243424L512.2225379555555,17.936083337059245L513.2711139555554,12.151592491427436L517.9431025777776,13.143757139216177L518.6538040888888,11.32790775608737L520.4480341333333,11.721030115499161L517.4537671111111,20.07015743071679L526.890951111111,25.068362697958946L533.683393422222,27.183699176530354L536.3747384888889,25.873314365628175L580.9275676444445,40.8115818600636L595.4095672888886,41.934749290696345L603.6001109333333,40.08152223599609L603.6001109333333,45.491436398006044L347.60775679999983,45.491436398006044Z"></path><path class="water" style="fill:lightblue;stroke:lightblue;stroke-width:1;stroke-linejoin:round;stroke-linecap:round" d="M544.3322652444442,-144.68109319510404L545.2526819555555,-145.95429497340228L548.5382200888887,-143.59512847464066L548.3984099555555,-143.20193469256628Z"></path><path class="water" style="fill:lightblue;stroke:lightblue;stroke-width:1;stroke-linejoin:round;stroke-linecap:round" d="M507.28257991111104,-180.7621211486403L508.8088405333333,-181.11788356560282L510.83608746666664,-174.32097463705577L509.18166755555535,-173.89031832048204Z"></path><path class="water" style="fill:lightblue;stroke:lightblue;stroke-width:1;stroke-linejoin:round;stroke-linecap:round" d="M518.8052650666666,-137.0793691930594L522.1374065777777,-148.7066641380079L524.059795911111,-147.99516649567522L521.6480711111112,-141.38575624290388L539.1592903111109,-134.982353807427L538.3786837333332,-133.07257642457262L525.6210090666666,-138.27766601450276L521.9393422222222,-138.37128302443307L520.9956238222221,-136.2555411051726Z"></path><path class="water" style="fill:lightblue;stroke:lightblue;stroke-width:1;stroke-linejoin:round;stroke-linecap:round" d="M523.4656028444442,-152.45139835588634L525.0850702222222,-156.53317738405894L527.4501916444444,-156.4208345800871L541.4195541333331,-152.07692419353407L561.0512270222223,-144.662369653699L559.0356309333331,-139.1389428949915L548.6896810666665,-143.08959364518523L550.6353720888887,-144.32534597918857L546.8838001777779,-146.8530267853057L545.0779192888888,-146.6470673282165L544.3322652444442,-144.68109319510404ZM540.918567822222,-151.4590421860339L541.1399338666665,-151.23435793095268L541.3496490666666,-151.38414742797613L541.1049813333332,-151.68372650106903ZM539.2408462222222,-152.1143716024235L539.4622122666665,-151.90841087477747L539.6719274666666,-152.0582004901953L539.4272597333334,-152.33905608963687ZM537.5281720888886,-152.69480664865114L537.7495381333333,-152.47012206772342L537.9592533333334,-152.61991178197786L537.7145855999997,-152.91949128871784ZM555.412218311111,-143.12704065965954L558.2317226666667,-142.02235443447717L559.3618545777776,-144.92449927062262L556.5423502222222,-146.02918925520498Z"></path></g><g><path class="riverbank" style="fill:lightblue;stroke:lightblue;stroke-width:1;stroke-linejoin:round;stroke-linecap:round" d="M603.6001109333333,40.08152223599609L613.1771050666667,41.036215464468114L612.2799900444444,45.491436398006044L603.6001109333333,45.491436398006044Z"></path><path class="riverbank" style="fill:lightblue;stroke:lightblue;stroke-width:1;stroke-linejoin:round;stroke-linecap:round" d="M612.2799900444444,45.491436398006044L612.9440881777776,42.327857542200945L614.2722844444445,44.8924164500786L616.9519786666666,45.491436398006044Z"></path><path class="water" style="fill:lightblue;stroke:lightblue;stroke-width:1;stroke-linejoin:round;stroke-linecap:round" d="M686.6007267555555,-158.6864173116628L687.8240654222222,-162.37502356269397L689.8047089777778,-161.73841017694212L688.6163228444443,-158.03108284506015Z"></path><path class="water" style="fill:lightblue;stroke:lightblue;stroke-width:1;stroke-linejoin:round;stroke-linecap:round" d="M830.8964351999999,-29.033618827699684L833.9373056,-30.568742425413802L835.2538510222222,-24.428264613845386L832.655712711111,-23.791754198842682Z"></path></g><g><path class="riverbank" style="fill:lightblue;stroke:lightblue;stroke-width:1;stroke-linejoin:round;stroke-linecap:round" d="M1072.9427285333331,45.491436398006044L1086.9120910222223,35.38291842408944L1102.034887111111,30.62812964944169L1115.6081208888888,29.579826195607893L1115.6081208888888,45.491436398006044Z"></path></g><g><path class="water" style="fill:lightblue;stroke:lightblue;stroke-width:1;stroke-linejoin:round;stroke-linecap:round" d="M1179.0935722666666,1.7431541661499068L1179.33824,-3.5359944015508518L1186.130682311111,-6.905680786236189L1188.6472647111111,-17.501559173571877L1198.4456248888887,-16.303432047949173L1196.511584711111,-10.631071785697713L1197.5019064888888,-9.63888063293416L1199.703916088889,-17.838532730937004L1201.8360206222221,-17.370513937203214L1201.0903665777778,-9.28318974620197L1213.5917226666666,-6.943121820571832L1221.4210901333333,-2.9556608678540215L1225.6270449777778,-9.676321787294L1226.7804785777776,-9.489116030861624L1228.5281052444443,2.6042887757066637L1208.8614798222222,12.376233644783497L1185.5714417777776,5.842895936220884L1185.5947434666666,1.481069547124207Z"></path><path class="water" style="fill:lightblue;stroke:lightblue;stroke-width:1;stroke-linejoin:round;stroke-linecap:round" d="M1198.1077504,21.88598820043262L1201.4049393777777,18.104563064640388L1202.3719594666666,18.984401102992706L1198.9932145777777,22.803262067725882Z"></path><path class="water" style="fill:lightblue;stroke:lightblue;stroke-width:1;stroke-linejoin:round;stroke-linecap:round" d="M1201.4049393777777,18.104563064640388L1205.7274026666666,11.608709459891543L1208.8614798222222,12.376233644783497L1202.3719594666666,18.984401102992706Z"></path><path class="water" style="fill:lightblue;stroke:lightblue;stroke-width:1;stroke-linejoin:round;stroke-linecap:round" d="M1188.2045326222224,31.096121846698225L1195.6028188444443,22.99046069534961L1198.9932145777777,22.803262067725882L1191.0356878222221,33.71687340573408Z"></path><path class="riverbank" style="fill:lightblue;stroke:lightblue;stroke-width:1;stroke-linejoin:round;stroke-linecap:round" d="M1115.6081208888888,29.579826195607893L1115.8644394666667,27.745292050763965L1143.453639111111,25.442758917226456L1143.954625422222,24.15109126700554L1174.176915911111,27.07138055784162L1183.299527111111,29.224151516333222L1184.814136888889,31.245879295747727L1188.2045326222224,31.096121846698225L1191.8395960888888,35.51395553466864L1192.8066161777779,34.10998544516042L1203.6652032,36.97408197633922L1206.7293752888888,32.96808806806803L1209.1061475555555,33.641994901699945L1209.3158627555554,38.378047351608984L1218.2287587555554,40.0066442907555L1231.1611960888888,45.491436398006044L1115.6081208888888,45.491436398006044Z"></path><path class="water" style="fill:lightblue;stroke:lightblue;stroke-width:1;stroke-linejoin:round;stroke-linecap:round" d="M1181.5519004444445,-8.74029341514688L1182.2159985777778,-9.582718904013745L1184.7791843555556,-9.432954312185757L1183.8238151111111,-7.897868758649565Z"></path><path class="water" style="fill:lightblue;stroke:lightblue;stroke-width:1;stroke-linejoin:round;stroke-linecap:round" d="M1204.0729827555556,-210.51560668915045L1206.1817855999998,-164.60317415487953L1205.6924501333333,-161.28903630864806L1204.3409521777776,-161.6822384307161L1204.7254300444442,-155.3535786847351L1205.8322602666667,-156.7765868420247L1211.9140010666665,-138.01553844078444L1231.9767551999998,-113.99376069777645L1235.6234695111111,-105.32511695928406L1235.833184711111,-100.34489928779658L1229.8796032,-80.42431944143027L1225.3357738666666,-72.2615094750654L1223.459987911111,-70.44548210303765L1222.5395712,-71.4377440023236L1219.6734634666666,-66.34539328876417L1221.28128,-66.5326115267817L1219.9647345777778,-62.91930679487996L1207.777951288889,-40.32245813240297L1203.0710101333334,-23.17396513337735L1201.8709731555555,-23.716870652046055L1200.8223971555556,-19.280032229376957L1202.2554510222221,-19.748052071081474L1201.8360206222221,-17.370513937203214L1199.703916088889,-17.838532730937004L1201.8476714666667,-28.62175686901901L1200.6942378666665,-34.83714939164929L1203.8166641777777,-37.32706332101952L1205.6458467555556,-44.29137246287428L1226.0348245333334,-79.63799031020608L1232.9670769777777,-96.9748436792288L1232.3029788444444,-105.96168823132757L1229.8796032,-112.21509011019953L1214.5936952888887,-130.09557903488167L1210.853774222222,-136.81724198779557L1206.4497550222222,-138.5023468559375L1204.0846336,-145.09301120985765L1201.1835733333332,-210.51560668915045Z"></path><path class="water" style="fill:lightblue;stroke:lightblue;stroke-width:1;stroke-linejoin:round;stroke-linecap:round" d="M1226.3144447999998,4.345275656320155L1228.1086748444445,3.165897835046053L1235.413754311111,8.987889963318594L1241.7984170666666,6.909948781016283L1253.0880853333333,-17.2394687209744L1263.6903537777778,-29.31443391321227L1302.8488419555556,-54.10140977613628L1303.2216689777777,-56.0671750997426L1352.7028053333333,-89.44843423750717L1354.0892558222222,-89.05526542116422L1371.6004750222223,-100.58829270862043L1371.6004750222223,-96.80634124821518L1342.1937436444443,-77.24156314320862L1344.3957532444444,-73.53460313437972L1342.6364757333333,-72.39256314642262L1340.1198933333333,-75.9122978526866L1261.4300899555556,-24.61547364969738L1255.8027320888887,-18.568642562022433L1246.0393244444444,5.468491112696938L1242.5091185777778,9.755416506784968L1235.6001678222221,12.057991993497126Z"></path></g><g><path class="water" style="fill:lightblue;stroke:lightblue;stroke-width:1;stroke-linejoin:round;stroke-linecap:round" d="M4.711753955555423,185.87513343594037L5.9350926222221005,180.8217212538002L8.836152888888591,177.56506198330317L22.54919679999989,174.7388705846388L27.011470222221988,171.2763054445386L41.866296888888655,166.93404172640294L91.60375182222197,144.38011810998432L91.60375182222197,150.5006194137968L87.04827164444418,156.69594450620934L87.04827164444418,159.07299082970712L89.42504391111106,160.06498457980342L91.60375182222197,157.31360284937546L91.60375182222197,162.68533988122363L87.5492579555555,162.44202151405625L83.80933688888854,166.95275842782576L81.67723235555536,165.19338670175057L79.80144640000003,167.19607550872024L67.80107662222235,164.2013989154948L42.052710400000024,172.81106578209437L24.925969066666767,180.95273602195084L19.927756799999997,186.32432418095414L12.8090908444442,185.9499985765433L10.17599999999993,189.69324722862802L5.259343644444016,188.86973393475637ZM6.680746666666437,183.57302715478L8.428373333333411,187.0729748972226L14.183890488888892,183.70404149999376L17.306316799999877,183.70404149999376L17.923811555555176,179.69873670302331L11.92362666666645,179.69873670302331Z"></path><path class="water" style="fill:lightblue;stroke:lightblue;stroke-width:1;stroke-linejoin:round;stroke-linecap:round" d="M-14.593695288888739,174.5517052609939L-12.811116088888866,171.2763054445386L-8.24398506666671,171.14528919022996L-12.042160355555552,171.85652004287113L-13.277149866666832,175.05705154128373Z"></path><path class="water" style="fill:lightblue;stroke:lightblue;stroke-width:1;stroke-linejoin:round;stroke-linecap:round" d="M-12.578099199999997,178.2762874828186L-8.593510400000014,177.471479636617L-6.251690666666946,174.23352411622182L-8.453700266666601,178.46345198934432Z"></path><path class="water" style="fill:lightblue;stroke:lightblue;stroke-width:1;stroke-linejoin:round;stroke-linecap:round" d="M-108.45289813333352,194.95248383120634L-104.82948551111122,192.31351151142735L-96.70884693333346,194.6904585758457L-84.70847715555533,191.9391885352088L-80.32775964444477,192.44452451413963L-69.70218951111133,202.569897141424L-67.32541724444445,206.68738952628337L-65.44963128888912,211.32890256494284L-67.45357653333349,217.18690514401533L-69.20120320000001,219.45148960791994L-74.08290702222212,217.3179143264424L-74.82856106666691,223.0635829626117L-78.95295999999985,223.5689005026361L-84.95314488888926,216.19497782411054L-84.82498559999999,213.44377714581788L-90.70866204444474,211.44119692232925L-92.0834616888892,209.064296536264L-91.32615680000026,205.0778266878333L-87.08524942222243,200.19297203444876L-88.70471680000014,198.0780645988416L-103.2100181333335,197.32942354178522ZM-89.0775438222222,209.70063272165135L-87.45807644444471,211.5722069873009L-77.4500010666668,214.08011006447487L-75.9586929777779,213.81809068494476L-73.8265884444445,208.07235977042L-80.19960035555573,201.20363391307183L-83.95117226666684,200.94161057821475L-88.07557120000001,203.44954491150565ZM-80.45591893333358,216.4382808584487L-79.22092942222207,218.30984034063295L-77.85778062222244,218.1226845770143L-79.32578702222213,215.20304935064632Z"></path></g><g><path class="riverbank" style="fill:lightblue;stroke:lightblue;stroke-width:1;stroke-linejoin:round;stroke-linecap:round" d="M175.2684657777777,301.4965116158128L187.15232711111116,199.63149269565474L186.4765781333333,196.16902860510163L187.71156764444413,194.50329762964975L229.38663822222225,196.46848551393487L215.98816711111112,301.4965116158128Z"></path><path class="riverbank" style="fill:lightblue;stroke:lightblue;stroke-width:1;stroke-linejoin:round;stroke-linecap:round" d="M186.5348323555554,185.83770086360164L192.75638328888863,137.1926843614783L193.2923221333333,135.24607729818672L194.4224540444443,135.91990332317073L194.7137251555555,133.1310088186292L193.4088305777775,133.50535760412458L194.6438200888888,125.23221113579348L201.47121493333316,95.80761009489652L214.33374719999983,71.86661637935322L213.66964906666658,70.23808027687483L218.73776639999983,60.39192220219411L224.12045653333325,52.23038181965239L225.46030364444437,53.16634225018788L228.78079431111087,48.842196471756324L227.14967608888878,49.01067009451799L229.44489244444435,45.491436398006044L347.60775679999983,45.491436398006044L347.60775679999983,53.65304126823321L338.11231857777784,55.07569834368769L337.3433628444445,51.12594719044864L335.67729208888886,50.05894966435153L304.46467982222225,58.35154442850035L275.97836515555537,71.71686606330331L259.98175573333333,85.83071784337517L249.9620295111108,100.69306260882877L239.46461866666664,125.86860986764077L229.38663822222225,196.46848551393487L224.48163271111093,196.33747312915511L224.42337848888883,191.3964199279435L223.9456938666665,196.31875707255676L218.66786133333335,196.1315964841051L218.60960711111102,191.15310975036118L218.07366826666657,196.07544829929247L212.25989688888853,195.81342338921968L212.20164266666643,190.83493479853496L211.64240213333323,195.77599125250708L205.53735964444445,195.45781802514102L205.52570879999985,190.55419209518004L204.97811911111103,195.42038587271236L199.1759985777776,195.17707684310153L199.14104604444424,190.29216548858676L198.59345635555565,195.17707684310153L193.25736959999995,194.8963355687447L193.25736959999995,189.99270641151816L192.68647822222215,194.84018730325624L187.71156764444413,194.50329762964975L188.0843946666664,186.81094722112175ZM240.31513031111103,95.05887926730793L241.49186559999998,95.97607444028836L242.08605866666653,94.08552820875775L241.21224533333339,93.72988042945508ZM234.88583679999988,106.06515624863096L236.1324771555553,107.01977561961394L236.76162275555544,105.05438163224608L235.82955519999996,104.68002035922837Z"></path><path class="water" style="fill:lightblue;stroke:lightblue;stroke-width:1;stroke-linejoin:round;stroke-linecap:round" d="M91.60375182222197,144.38011810998432L105.04882631111104,135.18992510566022L111.17717048888903,136.94935872161295L115.55788799999982,140.31847679358907L114.35785102222212,151.41775496909395L111.25872640000011,154.71194801526144L112.3772074666665,156.4900582927512L110.23345208888895,159.9152497483883L106.42362595555551,163.82706360216253L92.3028024888888,165.4367042843951L91.60375182222197,157.31360284937546L105.04882631111104,156.19058734795544L107.16927999999984,153.25202312134206L110.79269262222238,154.22530666156672L112.44711253333344,151.324169753585L110.67618417777749,146.5325929946266L111.0490112,142.1902033056831L109.17322524444421,141.0671678914223L105.4333041777777,143.57527827983722L98.80397368888862,143.9496224814793L91.60375182222197,150.5006194137968Z"></path><path class="water" style="fill:lightblue;stroke:lightblue;stroke-width:1;stroke-linejoin:round;stroke-linecap:round" d="M118.40069404444421,279.507572898292L119.50752426666645,289.6693401307566L118.6220600888887,289.6880541392602Z"></path><path class="water" style="fill:lightblue;stroke:lightblue;stroke-width:1;stroke-linejoin:round;stroke-linecap:round" d="M234.04697599999986,201.98970343510155L235.68974506666655,200.5485754244728L237.11114808888897,202.28915830084588L235.38682311111097,203.61798799817916Z"></path><path class="water" style="fill:lightblue;stroke:lightblue;stroke-width:1;stroke-linejoin:round;stroke-linecap:round" d="M129.34083697777783,60.05497942015063L130.99525688888866,57.34071326442063L133.98952391111084,59.13774561637547L132.38170737777773,61.92688208038453Z"></path><path class="water" style="fill:lightblue;stroke:lightblue;stroke-width:1;stroke-linejoin:round;stroke-linecap:round" d="M137.5546823111108,57.95844356250018L139.20910222222187,55.2441707351245L142.20336924444427,57.04120750457514L140.59555271111117,59.83035082486458Z"></path></g><g><path class="riverbank" style="fill:lightblue;stroke:lightblue;stroke-width:1;stroke-linejoin:round;stroke-linecap:round" d="M603.6001109333333,81.80623484030366L578.0265073777778,77.44479693449102L573.6341390222221,75.16111668839585L567.7038592000001,74.52468012040481L566.6669340444444,75.87242758460343L560.5036373333332,74.09414923179429L559.6414748444445,72.24099205550738L507.7136611555554,52.47373163048178L506.3854648888887,49.927914789062925L503.60091306666664,52.04318961012177L496.3191352888887,51.96831271494739L456.46159644444447,48.037266482249834L455.24990862222194,49.08554724918213L418.57305031111105,47.775196089060046L418.50314524444434,49.53481004049536L414.1340785777777,49.53481004049536L407.57465315555555,47.49440629268065L383.00302222222217,47.21361640386749L372.93669262222215,47.6628801812185L372.4823096888888,49.647125701303594L347.60775679999983,53.65304126823321L347.60775679999983,45.491436398006044L603.6001109333333,45.491436398006044Z"></path><path class="water" style="fill:lightblue;stroke:lightblue;stroke-width:1;stroke-linejoin:round;stroke-linecap:round" d="M469.60374897777774,285.4399636873277L473.21551075555544,285.383821381256L473.2388124444444,286.86223421187606L469.6270506666665,286.9183764209738Z"></path></g><g><path class="water" style="fill:lightblue;stroke:lightblue;stroke-width:1;stroke-linejoin:round;stroke-linecap:round" d="M836.4888405333332,108.70439543272369L847.2891733333332,100.50588103558403L850.9358876444444,104.38053122279234L842.4890254222221,110.91311414609663Z"></path><path class="water" style="fill:lightblue;stroke:lightblue;stroke-width:1;stroke-linejoin:round;stroke-linecap:round" d="M829.9876693333334,123.43531803821679L831.6537400888888,119.76664954121225L833.1217464888888,120.47792323795147L834.4965461333334,117.87615604291204L836.2441728,118.88691546407063L833.3897159111109,122.29354024806526L834.3567359999998,125.5691281708423Z"></path><path class="riverbank" style="fill:lightblue;stroke:lightblue;stroke-width:1;stroke-linejoin:round;stroke-linecap:round" d="M612.2799900444444,45.491436398006044L604.1127480888888,81.88110911578406L603.6001109333333,81.80623484030366L603.6001109333333,45.491436398006044Z"></path><path class="riverbank" style="fill:lightblue;stroke:lightblue;stroke-width:1;stroke-linejoin:round;stroke-linecap:round" d="M604.1127480888888,81.88110911578406L612.2799900444444,45.491436398006044L652.8831829333333,52.36141634138767L653.5472810666666,49.197862969129346L680.6820977777776,53.44713017938193L702.5623836444444,63.293368428596295L703.5177528888889,61.0658073668601L705.6615082666665,61.83328704512678L711.4286762666667,67.4676898769103L760.2573653333334,85.02582276193425L758.5796437333332,88.71335911320057L760.3156195555555,90.67879075615201L768.774132622222,93.93578179331962L770.0207729777777,92.06394938402809L772.0946232888889,92.23241446935572L781.065773511111,95.93863792216871L780.8211057777778,98.10995327180717L783.5357525333334,95.67658224748448L786.8096398222222,98.1848261160776L789.768954311111,97.96020756301004L797.0973354666667,101.0112711887341L796.1070136888887,103.57565364649054L816.088211911111,116.32257904054131L814.9580799999998,118.41897143633105L827.6691512888889,124.5209414040437L828.4730595555554,122.85507049958687L848.3843527111111,131.57745960296597L850.9125859555554,126.82320707361214L849.5261354666667,131.9518090704223L859.604115911111,136.06964236753993L859.604115911111,187.18527244776487L845.0172586666667,182.22544986300636L843.0249642666666,187.20398870494682L839.9957447111111,185.931282292353L840.6714936888887,184.26553132361732L823.9175793777777,174.15865794708952L815.2610019555556,173.12924745725468L804.5771776,168.84314315288793L799.7420771555555,164.08909833885264L801.85088,161.24414546205662L791.0505471999999,149.62091703608166L780.2502143999999,141.72227206244133L767.7838108444444,136.16322925675195L766.9799025777776,137.58574871043675L750.5755136,130.0800600902876L742.6995427555554,128.33932985295542L699.4399573333333,105.54105104145128L682.4297244444443,98.12867148360237L643.9469852444444,87.88974831625819L644.5062257777778,85.88687328598462L637.0147327999999,84.87607475626282L636.886573511111,87.04741826932877L624.2454072888888,86.93510753288865ZM741.8723328,111.08157550846227L743.3636408888889,113.51490258215927L747.5928974222221,115.38668791472446L750.6570695111111,114.69412782043219L748.7113784888887,111.84901018079836L744.7733930666667,110.29542220046278ZM747.301626311111,98.37200819887221L748.3968056888888,100.43100839492399L753.0571434666665,102.49000361992512L756.0980138666667,101.8723055741284L754.8164209777777,99.47638164891396L750.2026865777777,97.4548156018136Z"></path><path class="water" style="fill:lightblue;stroke:lightblue;stroke-width:1;stroke-linejoin:round;stroke-linecap:round" d="M806.3947093333331,183.1425513071008L810.8220302222221,177.02228422963526L815.3891612444445,177.9019583464833L815.2610019555556,178.95007951417938L811.5094300444443,178.76291511463933L808.8879900444443,182.63720981706865L812.6978161777777,184.02221911249217L816.9503743999999,183.83505582541693L817.7659335111111,179.90461731492542L816.0183068444444,177.9581077276962L819.7698787555555,178.70676578697748L818.5115875555555,185.8938497217605Z"></path><path class="basin" style="fill:lightblue;stroke:lightblue;stroke-width:1;stroke-linejoin:round;stroke-linecap:round" d="M854.4311409777777,99.98177241208032L856.9710250666667,96.98685981542803L859.604115911111,96.81839566922281L859.604115911111,98.59662664344069Z"></path></g><g><path class="water" style="fill:lightblue;stroke:lightblue;stroke-width:1;stroke-linejoin:round;stroke-linecap:round" d="M1054.2664248888889,254.84185903519392L1063.2725276444444,250.51873557420913L1071.6378339555554,254.52370783884544L1080.6322858666667,272.5458503345726L1063.2725276444444,278.4034325196408Z"></path><path class="basin" style="fill:lightblue;stroke:lightblue;stroke-width:1;stroke-linejoin:round;stroke-linecap:round" d="M859.604115911111,96.81839566922281L898.1800618666667,95.30221685837023L899.7995292444444,92.00779434852302L900.9762645333333,92.49447120167315L900.3820714666666,95.20862548542209L919.5360597333332,94.47861242387444L919.5710122666667,95.86376488069072L859.604115911111,98.59662664344069Z"></path><path class="riverbank" style="fill:lightblue;stroke:lightblue;stroke-width:1;stroke-linejoin:round;stroke-linecap:round" d="M1064.5541205333334,52.34269712562673L1072.9427285333331,45.491436398006044L1115.6081208888888,45.491436398006044L1115.6081208888888,76.9019554631086L1110.5866069333333,79.2605055536842L1101.3125347555556,88.32027224090416L1102.2912056888888,95.43324476317503L1099.1687793777778,98.87739961594343Z"></path><path class="water" style="fill:lightblue;stroke:lightblue;stroke-width:1;stroke-linejoin:round;stroke-linecap:round" d="M1073.094189511111,142.7517204581527L1075.6457244444446,141.90944459056482L1078.0457984,146.30798717366997L1085.9800234666666,145.27854307019152L1094.6366008888888,150.05140980216675L1100.042592711111,156.84567990340292L1095.790034488889,156.90183067077305L1086.6091690666667,167.27094228903297L1087.9839687111112,172.34315133735072L1086.4693589333333,173.27897996956017L1084.523667911111,173.09181432507467Z"></path><path class="water" style="fill:lightblue;stroke:lightblue;stroke-width:1;stroke-linejoin:round;stroke-linecap:round" d="M891.7138432,149.15298986970447L894.1721713777778,147.29999576986302L895.9197980444444,147.86150955897756L897.2479943111109,150.9685458408203Z"></path><path class="basin" style="fill:lightblue;stroke:lightblue;stroke-width:1;stroke-linejoin:round;stroke-linecap:round" d="M940.3095153777778,68.0479750976665L943.8280703999999,67.37409544980619L948.4884081777777,67.24306323402561L940.344467911111,69.09623126999941Z"></path><path class="riverbank" style="fill:lightblue;stroke:lightblue;stroke-width:1;stroke-linejoin:round;stroke-linecap:round" d="M859.604115911111,136.06964236753993L897.2479943111109,150.9685458408203L901.8151253333333,151.9418319866527L902.4792234666666,149.99525858426932L907.9201678222222,152.3723235813668L908.7939811555556,149.80808783089742L909.8891605333333,150.18242929654662L908.8405845333333,153.30817412491888L918.9884700444444,156.35903976717964L919.6525681777778,154.24402364203706L923.1594723555554,155.030136442394L923.1128689777777,156.3964736337075L935.0899370666666,156.24673815781716L946.7640832,152.91511702199932L960.6751914666667,145.93364400649443L972.0464156444444,137.62318340095226L982.4739214222222,125.9434802752221L981.2039793777776,124.72683533513919L1010.4475989333333,99.19560887361877L1009.0611484444444,97.13660569500644L1013.0573880888887,93.24320428073406L1014.6419029333333,94.85297817445826L1017.9157902222221,93.44910576206166L1037.4892088888887,74.89905463007744L1040.0290929777777,67.18690656428225L1046.5768675555555,66.96227984700818L1051.9479068444443,62.35741911153309L1048.138080711111,61.402749749599025L1048.8254805333331,58.07075811398681L1055.3383025777775,59.43725064047612L1060.2316572444445,55.59983456286136L1059.777274311111,54.1958975372836L1064.5541205333334,52.34269712562673L1094.8230144,94.44117583951447L1085.3275761777777,103.31360031873919L1089.114100622222,107.60003393085208L1090.9898865777777,112.82234096806496L1089.9995648,113.68336343055125L1086.5159623111113,110.03337093733717L1083.1954716444443,112.95336618099827L1079.805075911111,108.83542127883993L1073.4786673777776,113.4587489584228L1068.6785194666666,120.15972192084882L1071.987359288889,131.70848193520214L1070.868878222222,132.5882027875632L1069.4358243555555,132.71922496450134L1067.2571164444444,127.0478180256905L1061.3268366222221,124.35248269652948L1056.002400711111,129.2939242940629L1059.194732088889,133.86098879820202L1036.7202531555554,154.63708013296127L1018.3468714666666,166.1292231780244L1003.2473770666667,173.6158780255355L998.8433578666666,174.364539896138L987.4371811555554,182.88052242365666L960.1742051555556,193.13702148047742L942.965907911111,195.532682324294L902.4442709333332,195.77599125250708L890.7118705777777,197.2171273266431L890.5837112888888,198.3213728008559L873.4103665777777,193.88566621718928L871.6627399111111,194.91505165665876L872.7229667555554,191.65844619530253L859.604115911111,187.18527244776487ZM1056.8878648888888,122.01277498377021L1057.3305969777778,122.46199936256744L1057.8082816,122.05021035764366L1057.365549511111,121.54483267094474Z"></path><path class="basin" style="fill:lightblue;stroke:lightblue;stroke-width:1;stroke-linejoin:round;stroke-linecap:round" d="M951.459373511111,67.1120309982216L964.7529870222222,66.53174514079001L965.0908615111111,66.83124756836332L951.4710243555554,67.69231646088883Z"></path><path class="water" style="fill:lightblue;stroke:lightblue;stroke-width:1;stroke-linejoin:round;stroke-linecap:round" d="M1069.4358243555555,132.71922496450134L1071.987359288889,131.70848193520214L1075.6457244444446,141.90944459056482L1074.4456874666666,142.77043769019656L1073.094189511111,142.7517204581527Z"></path><path class="riverbank" style="fill:lightblue;stroke:lightblue;stroke-width:1;stroke-linejoin:round;stroke-linecap:round" d="M1064.5774222222221,250.51873557420913L1068.713472,239.17745041300077L1075.7272803555556,235.54671009874437L1086.8771384888887,220.93001671636011L1076.9040156444444,235.75257723068353L1069.7736988444444,239.36460155714303Z"></path><path class="basin" style="fill:lightblue;stroke:lightblue;stroke-width:1;stroke-linejoin:round;stroke-linecap:round" d="M899.7995292444444,92.00779434852302L908.5143608888889,69.97601670527365L922.4021674666667,68.72185421362519L922.1225472,70.79964480130002L909.3299199999999,71.26761495647952L900.9762645333333,92.49447120167315Z"></path><path class="basin" style="fill:lightblue;stroke:lightblue;stroke-width:1;stroke-linejoin:round;stroke-linecap:round" d="M922.4021674666667,68.72185421362519L928.9848945777777,68.5159467626363L928.9848945777777,70.25679910019971L922.4604216888888,69.91986021550838Z"></path></g><g><path class="water" style="fill:lightblue;stroke:lightblue;stroke-width:1;stroke-linejoin:round;stroke-linecap:round" d="M1232.792314311111,133.50535760412458L1236.334171022222,131.72719940973911L1248.9636864,130.86619516229257L1250.7462656,132.75665986863896L1250.408391111111,133.93585850461386L1241.1925731555555,135.43325124750845L1233.8292394666666,135.0776207090821Z"></path><path class="riverbank" style="fill:lightblue;stroke:lightblue;stroke-width:1;stroke-linejoin:round;stroke-linecap:round" d="M1231.1611960888888,45.491436398006044L1238.9672618666666,49.10426653700415L1239.5498040888888,47.83135403692722L1241.1459697777777,48.37421401159372L1240.3537123555554,50.452054171357304L1242.5790236444445,53.016588650178164L1247.4374257777777,55.31904734263662L1259.216429511111,55.93677910498809L1259.9038293333333,62.39485710358713L1273.5935715555556,74.18774292175658L1277.3218417777778,70.05089201999363L1279.3257870222221,70.87452004349325L1289.9164046222222,88.09565108979587L1296.3243690666666,101.98461434338242L1297.8273279999999,108.79798532475252L1303.0236046222221,115.89206925034523L1310.4218908444443,141.1981887659058L1313.6258730666666,144.19294612435624L1313.427808711111,146.2892700190423L1326.3951985777776,149.86423906113487L1326.2087850666667,151.23058452783152L1315.420103111111,149.60219995433L1312.6122495999998,150.4631852884777L1308.2315320888888,168.4313765403349L1307.9053084444445,249.7888554255478L1303.303224888889,301.4965116158128L1247.2510122666665,301.4965116158128L1248.5908593777779,289.7816241752589L1230.6252572444444,294.8905325696105L1229.1106474666667,291.0354616694385L1246.318944711111,285.7581033529714L1248.8588287999999,283.47498077200726L1247.8335544888887,267.0438035959378L1244.2800469333333,266.6695134128677L1243.8373148444443,264.74191636941396L1244.6761756444444,252.07206817076076L1246.7034225777777,247.76764560083393L1244.8975416888889,247.26234239607584L1248.5792085333333,247.65535602567252L1250.0006115555555,230.54973810527008L1250.303533511111,221.73478355875704L1248.4627000888888,221.6786370598711L1246.1674837333333,207.13656931114383L1251.0258858666666,207.3424433004111L1252.9133226666665,177.63992785313167L1249.8724522666666,135.05890330811962L1251.561824711111,132.4197456735419L1249.5928319999998,130.37954020337202L1251.456967111111,127.53447488578968L1242.8935964444445,127.62806271191221L1242.9518506666666,125.5129753408255L1244.7344298666667,125.45682250743266L1244.3383011555557,123.13583548692986L1239.8643768888887,123.69736518373247L1239.7711701333333,121.88175116234925L1244.6528739555556,120.12228646373842L1233.6894293333332,95.95735618157778L1223.879418311111,86.09277654322796L1211.5761265777778,79.59744074882474L1210.0032625777776,80.87030583876185L1210.7605674666665,79.12947516399436L1206.3915008,77.16401690640487L1198.9699128888888,75.70395926828496L1194.3794801777776,89.44337710936088L1192.9347754666667,89.05029057362117L1196.3368220444445,74.69314867001958L1178.3246165333333,70.48142494959757L1147.5314346666667,68.983918169979L1115.6081208888888,76.9019554631086L1115.6081208888888,45.491436398006044Z"></path><path class="water" style="fill:lightblue;stroke:lightblue;stroke-width:1;stroke-linejoin:round;stroke-linecap:round" d="M1359.8680746666666,109.90234527538996L1361.5224945777777,108.53593360097148L1362.606023111111,109.9210632283939L1361.394335288889,111.2500368374167Z"></path><path class="water" style="fill:lightblue;stroke:lightblue;stroke-width:1;stroke-linejoin:round;stroke-linecap:round" d="M1157.7608760888888,177.92067480727565L1158.1919573333332,176.27362469176296L1165.368877511111,182.31903168803547L1163.1319153777777,182.31903168803547Z"></path><path class="water" style="fill:lightblue;stroke:lightblue;stroke-width:1;stroke-linejoin:round;stroke-linecap:round" d="M1170.1690254222221,211.08559807331767L1170.1923271111111,209.23273851373233L1177.2760405333333,198.9577170012053L1173.7108821333334,197.31070750695653L1173.4196110222222,194.42843324004207L1179.4780501333332,191.1905420902185L1178.8489045333333,184.67729029268958L1180.2819584,183.34843108733185L1181.283931022222,185.61310539208353L1180.2353550222222,192.21993078233209L1176.169210311111,193.79208566062152L1174.910919111111,196.09416436124593L1177.9750912,199.40690085664392Z"></path><path class="water" style="fill:lightblue;stroke:lightblue;stroke-width:1;stroke-linejoin:round;stroke-linecap:round" d="M1184.7209301333332,101.47922476695385L1185.6180451555556,97.77302539034281L1191.2221013333333,96.20069351606071L1191.9794062222222,93.74859873729292L1193.5289685333332,94.17911970522255L1192.8998229333333,96.46274902962614L1189.5793322666666,98.31585357815493L1190.0803185777777,102.09692309703678L1193.7037312,103.7253983693663L1192.3871857777776,105.33515247923788Z"></path><path class="water" style="fill:lightblue;stroke:lightblue;stroke-width:1;stroke-linejoin:round;stroke-linecap:round" d="M1169.9127068444443,159.35374389472418L1171.9632554666666,157.7815255386522L1173.0700856888889,160.40188785560895L1180.7130396444445,163.26556032407098L1182.355808711111,169.36720946396235L1178.4061724444443,169.8164089025231L1175.6798748444444,168.24420983262826L1175.2138410666666,162.83507422695402L1170.9962353777778,163.86449714086484ZM1176.5536881777778,164.23883243801538L1176.8682609777777,165.06236951297615L1177.532359111111,165.00621928297915L1177.3925489777778,163.80834683205467Z"></path></g><g><path class="riverbank" style="fill:lightblue;stroke:lightblue;stroke-width:1;stroke-linejoin:round;stroke-linecap:round" d="M-117.66871608888891,481.1295897131786L-71.7061347555557,478.4727926844498L-35.157435733333614,485.76960975234397L-13.079085511111089,492.22443436819594L11.457592888888712,494.6379649413284L44.138211555555245,489.642510382575L43.52071679999972,487.45348175184336L55.45118151111092,484.7592849576613L56.34829653333304,487.6592881017132L59.19110257777788,487.1354172952706L59.72704142222233,485.73219033691566L75.71199999999976,480.13796925428323L91.60375182222197,471.84947392647155L91.60375182222197,511.3266871876549L82.45783893333328,516.2658876685891L82.00345599999991,515.2930171085754L76.56251164444438,517.556810353999L75.8984135111109,516.2471786297392L67.32339199999979,519.5025452030823L63.956297955555556,520.9992612981005L62.31352888888864,523.8055968993576L34.63112248888888,531.4949091501767L32.95340088888884,533.5528641769197L33.1747669333331,537.7248850441538L28.246459733333268,537.8745535751805L27.827029333333257,532.243257007096L-5.482734933333404,532.3180917564314L-79.18597688888894,516.4155599641381L-113.54431715555552,516.7149044766556Z"></path><path class="riverbank" style="fill:lightblue;stroke:lightblue;stroke-width:1;stroke-linejoin:round;stroke-linecap:round" d="M-164.4002531555559,489.5676718894392L-117.66871608888891,481.1295897131786L-116.72499768888883,489.1186407940695L-121.39698631111128,490.1476700376952L-116.60848924444463,490.128960426664L-114.60454400000026,507.0609910337953L-119.3697393777777,508.1087078542914L-114.4880355555556,508.0525801999029L-113.54431715555552,516.7149044766556L-164.4002531555559,528.5015111591201Z"></path><path class="water" style="fill:lightblue;stroke:lightblue;stroke-width:1;stroke-linejoin:round;stroke-linecap:round" d="M-115.15213368888885,450.6694767351728L-112.83361564444454,445.149868128472L-111.48211768888905,445.9170023089973L-111.06268728888881,455.81484242726583Z"></path></g><g><path class="riverbank" style="fill:lightblue;stroke:lightblue;stroke-width:1;stroke-linejoin:round;stroke-linecap:round" d="M91.60375182222197,471.84947392647155L98.85057706666657,466.273871946265L129.81852159999994,432.4265664918348L132.59142257777785,428.70309379766695L130.96030435555554,427.58043552574236L144.25391786666637,405.89412999746855L149.54340124444434,400.95429047674406L158.14172444444466,384.20727317547426L166.20410879999986,367.3663655887358L171.9246734222222,346.91357186972164L175.2684657777777,301.4965116158128L215.98816711111112,301.4965116158128L207.65781333333325,350.0011705082143L194.44575573333327,393.28251330181956L186.59308657777774,406.8109910035273L178.53070222222232,435.12092855747323L176.7364721777776,437.2913806999568L173.31112391111083,435.40159078338183L161.05443555555576,453.8689623234095L163.5710179555556,455.7400009671692L148.18025244444425,474.7121010548435L137.48477724444433,484.347670809133L120.74251377777773,494.8063505406026L105.2119381333332,500.812081845128L91.60375182222197,511.3266871876549Z"></path></g><g></g><g><path class="water" style="fill:lightblue;stroke:lightblue;stroke-width:1;stroke-linejoin:round;stroke-linecap:round" d="M682.1268024888889,502.0468998645665L714.3646890666666,468.8371565765701L724.3145102222221,468.8558666551253L731.3749219555555,474.15080237493385L732.5633080888888,479.2211870503379L731.3865727999998,483.6554102029186L721.4600533333332,485.9567068053875L714.6909127111111,494.8811885737814L703.7857223111109,496.3966573374346L700.1390079999999,501.5417472543195L684.7831950222221,505.3210298992926ZM710.4616561777777,484.17928314604796L711.0908017777778,485.9192873984575L712.2209336888887,485.6012223698199L711.6966456888888,483.7676687176572Z"></path></g><g><path class="water" style="fill:lightblue;stroke:lightblue;stroke-width:1;stroke-linejoin:round;stroke-linecap:round" d="M974.7028081777778,314.4837546958588L979.8641322666666,305.74452210683376L983.6739584,306.62406348541845L985.4099342222222,311.2837463003816L983.5807516444444,314.03463143494446L991.724691911111,318.67556039756164L993.7635896888888,321.538701559999L988.4391537777777,333.4402833923232L982.2409045333333,332.9350309347501ZM978.2213631999999,315.4007139529567L981.157376,318.6007069051266L981.1107726222222,321.5199882503366L983.9302769777778,321.48256162926555L985.3749816888889,316.4486661833944L980.5631829333332,313.75392927625217ZM981.6117589333332,325.3000684818253L984.1283413333333,329.0052793825744L987.0410524444444,328.64972953975666L986.9128931555555,323.22289775451645ZM980.4466744888889,309.01940562203526L981.7865215999999,311.3960274999263L983.0331619555556,311.0030432365602L982.5787790222221,308.2895755273057Z"></path></g><g><path class="riverbank" style="fill:lightblue;stroke:lightblue;stroke-width:1;stroke-linejoin:round;stroke-linecap:round" d="M1303.303224888889,301.4965116158128L1302.6158250666667,307.2603268965613L1304.3284992,316.0182573873317L1321.0358101333331,319.23696138325613L1320.977555911111,323.31646411214024L1313.7540323555554,323.8030090071261L1308.7441692444445,326.1421632816782L1308.2431829333332,327.82635038753506L1319.7425664,363.77359560865443L1330.5312483555556,389.33432791533414L1357.3048888888889,425.80289023998193L1371.6004750222223,438.61984437319916L1371.6004750222223,499.4462961968966L1366.2410865777777,495.9663393202936L1364.388602311111,499.0159797180677L1362.9555484444445,498.3237310135737L1364.4468565333332,494.8998980810866L1339.9101781333334,478.1921446269844L1339.5257002666667,479.2960264508147L1306.5305088,447.39513695507776L1292.3281294222222,429.4889537092531L1293.2368952888887,428.77793763019145L1288.4600490666667,421.72387758328114L1285.5007345777776,424.193740787101L1284.6735246222222,423.2768984626746L1287.9707136,420.6199212629581L1278.428672,403.48034835071303L1277.3334926222221,404.07911652792245L1277.927685688889,402.4886376330396L1268.9332337777778,385.87263375066686L1251.8414449777777,343.84467487584334L1247.9267612444444,319.92935542261694L1246.4005006222221,318.4884266539011L1240.0274887111111,318.8626941005932L1247.052947911111,314.63346239726525L1247.2510122666665,301.4965116158128Z"></path><path class="water" style="fill:lightblue;stroke:lightblue;stroke-width:1;stroke-linejoin:round;stroke-linecap:round" d="M1144.5837710222222,510.9150858570356L1148.323692088889,510.6905759565998L1154.754958222222,518.3051704366226L1148.358644622222,518.9786939494079ZM1147.647943111111,516.1723424707307L1150.0480170666667,515.9852520441636L1150.1412238222222,514.4885271526873L1148.3469937777777,513.9085455517052Z"></path></g><g><path class="water" style="fill:lightblue;stroke:lightblue;stroke-width:1;stroke-linejoin:round;stroke-linecap:round" d="M-164.4002531555559,612.4623407754116L-164.4002531555559,607.0186069867341L-162.86234168888927,609.5253478228115L-160.15934577777807,610.1426783909556L-157.60781084444466,607.6172323337523L-151.59597511111156,606.2516176480567L-149.52212480000026,602.3418320091441L-150.6872092444446,600.2092141094618L-154.98637084444454,598.3571995039238L-164.4002531555559,599.292560918373L-164.4002531555559,597.0851063342998L-155.42910293333352,594.5034996607574L-154.48538453333344,592.988205148722L-157.00196693333328,589.5460446531652L-163.20021617777797,590.4065860790433L-164.4002531555559,583.8402588953031L-160.9049998222224,583.7093059874605L-156.80390257777776,586.5154353296384L-146.6327153777779,583.6531833066838L-139.4557952,587.9372040069429L-138.7450936888888,592.4269842765061L-133.75853226666686,597.1786426611943L-139.37423928888893,600.6581867417553L-138.57033102222226,611.6953563302523L-130.5079466666666,615.4554442114895L-131.84779377777795,618.8226730271708L-145.71229866666704,628.1947232637322L-151.36295822222223,627.3529265521793L-154.6601472000002,633.1145407675067L-161.1962709333336,633.0210083794082L-164.4002531555559,636.6126447021961L-164.4002531555559,619.6831849253504L-162.41960960000006,622.6762630312005L-158.15540053333325,623.4619442943949L-151.537720888889,619.8702526149573L-152.70280533333334,615.1935480802786L-150.78041600000006,613.4538074517623L-148.74151822222234,612.7055308214622L-147.5647829333334,615.3432030221447L-144.0811804444445,616.9145783297718L-141.69275733333347,614.894238117151L-143.82486186666688,610.2923342185095L-142.89279431111117,606.7380012113135L-144.6637226666669,605.0917788015213L-152.08531057777805,609.0389658482745L-158.73794275555565,615.0813068560092L-164.4002531555559,615.3057892889483Z"></path></g><g><path class="water" style="fill:lightblue;stroke:lightblue;stroke-width:1;stroke-linejoin:round;stroke-linecap:round" d="M275.4657279999999,806.468554282561L275.9550634666666,804.8975280093728L280.8717198222221,803.2329851109535L281.24454684444436,805.3089875509031L283.66792248888896,805.7391495871125L279.7998421333332,805.6269334242679L277.1084970666666,808.2453067025635ZM276.4210972444441,806.1880140890134L277.3182122666667,807.4972008714685L278.40174079999997,806.0383926145732L277.35316480000006,805.4960145495133Z"></path></g><g></g><g></g><g><path class="water" style="fill:lightblue;stroke:lightblue;stroke-width:1;stroke-linejoin:round;stroke-linecap:round" d="M1097.0133731555557,787.1484707344789L1098.621189688889,786.0636902473634L1101.405741511111,789.6172763580689L1100.4969756444443,793.9563719633734L1098.0619491555556,793.0586298549315L1100.0775452444445,789.8417128786677L1097.1648341333334,789.280621465994Z"></path></g><g><path class="water" style="fill:lightblue;stroke:lightblue;stroke-width:1;stroke-linejoin:round;stroke-linecap:round" d="M1362.5594197333332,659.9392064027488L1366.4508017777778,660.0327358394861L1371.6004750222223,655.8987249395577L1371.6004750222223,659.546382655506L1367.056645688889,661.3421468799934ZM1371.6004750222223,672.0979472401086L1363.2118670222221,670.8446696549654L1363.2817720888888,669.3856277593877L1368.606208,668.3194032580359L1368.582906311111,666.9164742527064L1363.6895516444445,668.094934772118L1363.235168711111,666.486242229119L1371.6004750222223,665.7941293874756Z"></path></g><path class="waypath" style="fill:orange;stroke:darkorange;}" d="M-4704.458208142222,-2300.0816334572155L-4700.021566577778,-2306.206621259218L-4688.333439431111,-2311.3912147835363L-4684.965180302222,-2312.7089550266974L-4681.90799872,-2314.268846755149L-4669.271492835556,-2320.8275563617935L-4666.834136177777,-2328.3286496631335L-4670.169772942222,-2336.182718081167L-4674.770691413334,-2347.015970060951L-4637.771104711112,-2353.8283559301635L-4635.090245404445,-2342.6064388006926L-4634.7465454933335,-2341.4219325917074L-4628.434117973335,-2343.0025260301773L-4626.418521884444,-2343.727122103097L-4617.230665955556,-2342.6345966543304L-4612.348962133333,-2339.387063649716L-4601.08376064,-2350.6408508787863L-4597.959004160001,-2354.3276952587767L-4597.145775217779,-2358.5157746141776L-4597.645596444445,-2362.6400485994527L-4600.084118186666,-2364.1399602059973L-4605.208159573333,-2366.0791489651892L-4617.020950755556,-2368.8274356639013L-4633.396212622223,-2373.0155863482505L-4653.230610204445,-2377.387729774113L-4661.120562062222,-2379.87511207466L-4675.121381831112,-2377.500365797081L-4678.533914168889,-2377.3220254350454L-4683.04279096889,-2377.2337939010467L-4685.049066382222,-2375.9947988605127L-4688.896175217778,-2371.0782590422314L-4706.670703502224,-2375.5649055482354L-4708.487070151112,-2364.2225586685818L-4708.693290097778,-2353.3008586873766L-4708.676978915556,-2331.2326191947795L-4708.5208576,-2329.332930184086L-4707.749571697778,-2319.9603171041235L-4706.458658133333,-2304.269445973565L-4717.083063182223,-2299.644270092831L-4712.083685831111,-2282.144288578653L-4700.270894648889,-2286.1443062714534L-4704.458208142222,-2300.0816334572155"></path><path class="waypath" style="fill:orange;stroke:darkorange;}" d="M-3795.463984924445,2947.1692558098584L-3779.565242595555,2949.7232386089163L-3776.6350552177773,2934.0279701898107L-3764.278169600001,2936.2256609286414L-3763.436978631111,2931.2761847685324L-3763.298333582222,2930.4590427137446L-3756.0480130844444,2923.132713635452L-3738.6859246933336,2913.017164467834L-3730.1272143644446,2907.5059867828386L-3741.3306663822223,2896.123445361154L-3750.7410534400005,2888.147553595947L-3761.584494364445,2884.6064203643473L-3772.921931093334,2882.231352816685L-3782.3113466311115,2881.106318516424L-3782.645725866666,2881.0671381907305L-3792.145824426667,2881.0223606735235L-3799.808584817778,2883.2183219864964L-3809.44266808889,2887.653139142203L-3805.8134300444444,2892.4480144259287L-3804.065803377778,2898.6328041026136L-3801.779907697778,2916.645865647355L-3800.4365653333334,2924.892008471652L-3797.075296711111,2932.3302595530404L-3795.282231751112,2939.5445736683905L-3795.463984924445,2947.1692558098584"></path><path class="waypath" style="fill:orange;stroke:darkorange;}" d="M-1185.9544496355556,-1613.812090913998L-1185.2041352533333,-1616.2634832739132L-1182.9415412622225,-1619.110633369768L-1180.5985564444445,-1623.1863134085434L-1173.958740195556,-1634.3987542352406L-1170.0673581511114,-1641.724995528697L-1169.0665506133337,-1643.461845382466L-1166.96590336,-1648.242889892077L-1164.191837297778,-1655.5692502579186L-1163.1828741688892,-1659.4912985624978L-1144.5671549155559,-1663.0269721241202L-1140.4101336177782,-1664.1261288055684L-1135.397940337778,-1644.362157715601L-1131.6673399466667,-1621.8171228175052L-1130.0420471466673,-1602.673067894997L-1129.5841689600002,-1589.33043933101L-1137.6605343288893,-1590.3413508775411L-1153.7853030400001,-1590.2344455179991L-1153.7317091555556,-1592.200005849474L-1153.4730604088886,-1601.7184084457112L-1168.2696328533334,-1602.5511565110646L-1166.7690040888892,-1608.264130276977L-1185.9544496355556,-1613.812090913998"></path><path class="waypath" style="fill:orange;stroke:darkorange;}" d="M1534.294031928889,562.1242505579721L1547.6785220266665,589.1793789122021L1572.996972088889,576.8305085526081L1600.0467376355555,562.6405921122059L1601.5403758933332,552.7795369019732L1594.9821155555555,540.1551245680312L1592.0158105599999,533.6595035289647L1591.3517124266666,532.2264191873837L1591.2282134755555,532.0767496654298L1591.05112064,532.0973292263225L1573.8148613688888,541.1560295183444L1572.45986816,541.8894021199085L1558.1025325511112,549.6066138539463L1556.84657152,550.2670168522745L1551.8169019733332,552.9104945572326L1534.294031928889,562.1242505579721"></path><path class="waypath" style="fill:orange;stroke:darkorange;}" d="M-400.6455910400002,262.0750880353153L-426.1737563022225,265.04696357040666L-459.0361281422224,268.4960479515139L-455.1575620266667,294.9223461889196L-397.92045852444494,288.011277351412L-400.6455910400002,262.0750880353153"></path><path class="waypath" style="fill:orange;stroke:darkorange;}" d="M922.7295561955555,1303.6652747356566L921.2370830222221,1319.837253750069L918.1589299199999,1319.7157594421878L913.0779966577777,1319.5157610813621L906.7981915022222,1319.2391277584247L898.6519210666667,1317.9363331322093L891.1173199644445,1315.6129799620248L881.9376196266666,1312.4260693106335L881.7931491555555,1312.3699945303379L878.5705255822221,1311.2765355695738L881.8304318577776,1303.3456451563397L884.3015759644444,1298.3268843091791L887.978582471111,1290.2126912289532L889.6178562844442,1286.2125768773258L895.4525991822222,1270.2885713443393L898.401427911111,1260.828236768255L898.4363804444442,1260.7945898664184L899.4127212088888,1261.2581692837412L901.4772508444444,1262.7666699191323L911.9350488177777,1273.4251697032014L911.6927112533332,1273.8027570478152L912.1202972444444,1274.2364215145353L912.5210862933333,1274.668216519407L918.6133128533332,1279.647862608428L924.259312071111,1283.3451936538331L927.3106682311111,1285.3452598907752L939.2364726044443,1290.9659816941712L935.5932535466666,1300.7960809492506L928.568959431111,1300.865240782965L928.5491529955553,1303.7026583047118L922.7295561955555,1303.6652747356566"></path><path class="waypath" style="fill:orange;stroke:darkorange;}" d="M-448.8765917866667,267.4124792657094L-449.6979763199997,259.9996348115383L-439.3811535644445,258.8561683439184L-439.08522211555555,261.528621129808L-436.49290922666705,261.24041583994403L-423.91349248000006,259.84430312295444L-413.4428785777777,258.6839932278963L-413.5861839644449,257.39642169047147L-412.33604835555593,257.25793277530465L-412.7892662044444,253.17062819108833L-410.9332866844443,252.96476526279002L-411.4680604444445,248.54618624853902L-410.01170488888897,248.29166342283133L-409.49790264888884,252.9235926711699L-401.7291195733335,252.06271075410768L-400.6199591822226,262.06198780587874L-405.5692379022223,262.6159402099438L-407.0302537955556,262.8049576713238L-448.8765917866667,267.4124792657094"></path><path class="waypath" style="fill:orange;stroke:darkorange;}" d="M-393.26711125333327,286.3139117778046L-383.5538022400001,284.55104340519756L-383.71924423111113,283.7968639974715L-378.71637162666684,282.52055886550806L-372.1115079111114,280.72212566505186L-367.2030071466668,278.66543206060305L-366.8697929955558,279.74150076147635L-357.78912483555564,275.6879896770697L-358.6396364800005,273.82404182699975L-358.18175829333336,273.59385521372315L-358.73750357333347,272.28572035289835L-358.21438065777784,272.02559029171243L-358.9658601244448,270.3244500217261L-359.7185046755558,270.61826657073107L-368.9063606044449,250.54119341506157L-369.5611380622224,250.77138624968939L-370.05163861333335,249.82254221558105L-371.4893528177781,250.41018933581654L-371.6536297244445,250.01904846332036L-372.6672531911113,250.47569137776736L-372.9934768355556,249.91985960130114L-377.5547824355558,250.69839828426484L-380.2519529244448,251.4919081343105L-381.8609345422226,251.96539361344185L-390.94509795555587,254.63786798750516L-389.3431068444445,262.1649181781104L-391.22471822222246,262.80682913120836L-392.34552945777773,255.43886007671244L-396.47225856,256.0021741564851L-396.37322638222236,256.95101131661795L-396.86372693333374,257.01651285693515L-396.66799274666664,258.6839932278963L-396.4384711111111,258.7158081975067L-394.81783864888894,272.81908030237537L-394.7793908622223,273.15032473462634L-393.26711125333327,286.3139117778046"></path><path class="waypath" style="fill:orange;stroke:darkorange;}" d="M143.17271950222244,-169.0164274290437L145.5087138133331,-165.81836125871632L149.14843761777752,-168.47904661973007L149.8847709866668,-167.47169256501365L150.86926734222197,-168.19069608137943L152.22193038222213,-166.3407611779403L151.81531591111093,-166.0430493565509L154.92376120888866,-161.79083714389708L155.39445532444438,-162.1334848984843L157.65588423111103,-159.03842574800365L157.28305720888875,-158.76505748170894L161.17327416888884,-153.441883306019L163.76558705777757,-155.3367272869218L163.34266140444424,-155.91341976891272L166.24139150222186,-158.03295522846747L170.11413219555538,-152.73225408466533L166.48372906666668,-150.0791073194705L167.5451209955554,-148.6280248959083L166.11789255111103,-147.5851194402203L166.78665102222226,-146.66953562980052L162.74497308444415,-143.71495899697766L160.4159692799999,-146.90170811861753L159.2438943288887,-146.0441681118682L159.69361692444454,-145.43003518762998L157.1024691199998,-143.5352132198168L154.71987143111096,-141.79392796964385L154.21888511999987,-142.47920754738152L152.57495096888897,-141.27716012857854L154.73967786666663,-138.31511281745043L150.65139655111125,-135.32873545738403L149.8940916622223,-136.36413658037782L144.65820216888892,-132.5352182656061L140.8192489244443,-137.78711304953322L141.9330696533334,-138.60158091329504L142.41308444444417,-137.94626188126858L142.88144839111123,-138.287027714774L142.06355911111086,-139.40668784163427L143.02824903111082,-140.1125612857286L142.71134606222222,-140.5469452337129L139.2277435733331,-138.00055972510017L138.43548615111104,-139.08464497863315L137.4661358933331,-138.37690004520118L135.9713325511109,-140.42149812274147L136.78106623999997,-141.0131592870457L132.01121052444432,-147.53831042803358L131.34944255999972,-147.05524157336913L129.8325026133332,-149.12981828080956L133.575918933333,-151.8653463651426L131.02438399999983,-155.35545106232166L140.03048675555533,-161.93875610327814L137.60944127999983,-165.2510240750853L132.9980370488886,-161.88071195152588L133.19610140444456,-161.60921516548842L130.05037340444437,-159.30992171505932L128.7058659555555,-161.15047941391822L127.99166919111099,-160.6280826741131L128.1291491555553,-160.43897138896864L127.50233372444427,-159.9821086541051L128.4320711111111,-158.70888593129348L129.0740326399998,-159.17885468539316L129.97930325333323,-157.94120844325516L135.9258942577776,-162.2888934884686L136.74145336888887,-161.17107570765074L136.19269859555538,-160.77038426301442L136.39076295111113,-160.50076021975838L129.67172095999967,-155.59137067210395L128.17225728000017,-157.6434995549498L127.65029944888875,-157.26153358560987L127.37067918222215,-157.64537193754222L127.15746872888872,-157.48996419389732L125.32595598222224,-159.99521536857355L127.34388223999986,-161.4706582184881L126.49104042666659,-162.63715862424579L128.89577471999996,-164.39346561557613L129.80337550222202,-163.1520670155296L137.9135283199996,-169.08008929016069L148.39229781333324,-176.74014372646343L149.48631210666667,-175.2440778221935L147.77247288888907,-173.9914289144799L148.54142862222193,-172.94100277405232L143.17271950222244,-169.0164274290437"></path><path class="waypath" style="fill:orange;stroke:darkorange;}" d="M125.66383047111117,378.1801376718795L128.08487594666667,373.52830512146465L127.3846601955554,373.16341774666216L129.21267768888902,369.64926365192514L129.91405852444427,370.0141525303479L132.26752910222194,365.489519408904L144.643056071111,371.9097009606194L148.92823665777792,363.53220583312213L155.7719426844444,367.0314152771607L153.70857813333328,371.06578011624515L150.08866076444428,369.2151392449159L148.02180095999984,373.2551074094372L150.02924145777774,374.2824052021606L148.41676458666643,377.431654661661L147.6746057955554,378.88371110276785L149.96632689777766,380.09999359049834L149.17406947555537,381.6119238650426L148.32821816888872,383.22676722647157L147.8621843911112,383.91723813617136L147.6582946133335,384.15487975650467L147.38682993777775,384.20727317547426L146.98021546666655,384.0875167843187L146.8776880355556,383.8330343965208L146.9289517511113,383.49434816022404L145.7755181511111,383.0359052499989L143.69700750222228,387.4051368458895L141.39596572444452,386.46392953256145L141.48101688888892,386.20944785373285L134.46837361777784,382.68412031943444L125.66383047111117,378.1801376718795"></path><path class="waypath" style="fill:orange;stroke:darkorange;}" d="M-3781.5994800355556,-564.2983843649272L-3787.8501580800003,-565.111386479577L-3787.380629048889,-559.8175202648854L-3788.9558232177787,-559.5196710191667L-3790.143044266667,-558.2083862706786L-3802.0804994844448,-556.644213530235L-3800.952697742222,-538.3857531107496L-3797.0764617955565,-540.6673368187621L-3782.9754447644455,-541.467203816981L-3781.162573368889,-543.2355307112448L-3782.537373013334,-545.4234656742774L-3780.018460444444,-546.3319848387036L-3781.2872374044455,-556.6104948677821L-3781.162573368889,-562.423237283132L-3781.5994800355556,-564.2983843649272"></path><path class="waypath" style="fill:orange;stroke:darkorange;}" d="M456.0165341866666,67.62867226859089L456.1714904177775,65.13905747199897L456.49771406222203,61.10886112321168L456.6060669155554,59.74424318096135L469.4056846222222,60.89546422299463L469.45578325333327,60.33763698488474L470.40066673777756,60.4256164728431L471.3490454755554,60.52482737391256L471.30477226666653,61.088270196458325L484.14400284444446,61.9998862008797L484.0274944,63.17356697306968L483.2014495288888,71.5221906126244L483.17814783999984,72.13055124809034L484.99800974222217,72.2578389570117L484.5459569777777,77.90714784665033L482.32530602666657,77.6993707473157L482.49890360888867,74.7062517782906L477.5146723555554,74.20833353209309L460.9401810488887,72.71083329664543L456.48023779555547,72.36640787031502L456.6235431822222,69.60164003516547L455.9163369244443,69.54735540447291L456.0165341866666,67.62867226859089"></path><path class="waypath" style="fill:orange;stroke:darkorange;}" d="M-1145.6681597155557,-1631.7935085020727L-1145.5015526399998,-1631.020751760574L-1144.9854202311108,-1631.1314134841086L-1144.3050109155556,-1627.9822490412043L-1148.8022368711113,-1627.0106807051925L-1148.6472806400002,-1626.2941966580693L-1150.3984025600002,-1625.9153231384698L-1150.5312221866666,-1626.5248969533714L-1155.1053437155556,-1625.532698566909L-1155.9628458666666,-1629.4846184756607L-1157.2735658666666,-1629.1995244466234L-1157.8957209599998,-1632.0598471532576L-1156.9030690133336,-1632.2755440085893L-1158.0623280355558,-1637.6079627756262L-1159.00721152,-1637.4016427514143L-1160.5556087466666,-1644.510334211751L-1159.689951004444,-1644.697899433435L-1160.373855573334,-1647.8358717190567L-1161.2639800888892,-1647.6426788292592L-1162.3113910044449,-1652.444379169494L-1159.8332563911117,-1652.984572151443L-1159.707427271111,-1652.4087414499372L-1159.18546944,-1652.5231572911143L-1159.5431503644445,-1654.1606184743578L-1150.7409373866667,-1656.0850614141673L-1150.4147137422224,-1654.0199429914355L-1150.1840270222224,-1653.5116357733496L-1145.6681597155557,-1631.7935085020727"></path><path class="waypath" style="fill:orange;stroke:darkorange;}" d="M-1179.428811662222,-1618.5817154386314L-1163.2085060266672,-1614.3897711101454L-1159.8740343466666,-1613.5270021304023L-1161.3560217600002,-1607.7914862135658L-1180.9107990755556,-1612.84616548731L-1179.428811662222,-1618.5817154386314"></path><path class="waypath" style="fill:orange;stroke:darkorange;}" d="M502.4999082666666,-119.36349609377794L502.4160221866666,-118.71193644008599L502.2237832533333,-118.07161105796695L501.8591118222221,-117.453753689304L501.5258976711109,-117.17103728535585L501.0295716977778,-116.774111101171L500.0916787199999,-116.27233675529715L499.16077624888885,-115.94468575622886L498.43259847111085,-115.88664473511744L497.4003336533333,-116.08697988872882L496.8236168533333,-116.31914405152202L496.2469000533331,-116.6524120720569L495.5361985422221,-117.72336412279401L495.234441671111,-118.59585402498487L495.24026709333316,-119.51140769384801L495.5210524444444,-120.58049103338271L495.9696099555556,-121.3537517975783L496.2620461511108,-121.70200021530036L496.92614428444426,-122.36854059481993L497.36305095111106,-122.73925709910691L497.76034474666653,-122.9770399921108L498.47104625777774,-123.05005994881503L499.34369450666645,-125.47657283942681L500.2338190222222,-127.59603264881298L500.10216448000006,-128.52282989234664L501.2532679111109,-128.45542642264627L504.031994311111,-127.38446089427453L504.535310791111,-128.36368281953037L508.7575768177776,-128.4423201928148L510.42947299555544,-128.52657452959102L510.41432689777776,-132.15700819634367L511.57824625777766,-131.84432970150374L512.0256386844444,-133.08193806826603L515.744588231111,-131.63650154334027L518.9054623288889,-130.40638456586748L517.3081315555555,-126.31911365233827L515.7236167111109,-122.0090580782853L515.1736968533332,-120.51308819127735L514.9418450488888,-119.9176966509549L514.8463081244442,-119.6836592098698L514.7204790044445,-119.30358254152816L508.0829929244444,-119.35787919780705L507.1788873955554,-120.24160457553808L506.25031509333326,-121.44175003969576L505.9905012622221,-121.6008958213497L505.03746218666674,-118.8224019780755L502.65952483555566,-119.73421129165217L502.4999082666666,-119.36349609377794"></path><path class="waypath" style="fill:orange;stroke:darkorange;}" d="M-1652.6488302933335,112.13352237234358L-1656.0112639999998,115.95945340581238L-1656.5576886044446,116.58088481065352L-1657.093627448889,117.19108508713543L-1657.6423822222223,117.8143873725785L-1658.2319149511113,118.48635539226234L-1658.7515426133332,119.07596477866173L-1659.1068933688884,119.48026812216267L-1652.1455138133333,125.60094810591545L-1654.5455877688892,128.3318428331986L-1648.537247288889,133.6139187210938L-1641.8811198577778,126.04081179550849L-1642.5475481600001,125.45495074626524L-1641.841506986667,124.65383658302017L-1641.9743266133337,122.88501876953524L-1644.283523982222,120.85602111951448L-1643.6054448355562,120.08297923218925L-1652.6488302933335,112.13352237234358"></path><path class="waypath" style="fill:orange;stroke:darkorange;}" d="M-1145.625051591111,-1631.7466179032344L-1150.4147137422224,-1654.0199429914355L-1142.7857408000004,-1655.6611584050115L-1140.8109226666666,-1646.4816467564087L-1142.0808647111112,-1646.2078009732068L-1141.2128768000002,-1642.1713993647136L-1139.9033218844447,-1642.45274644054L-1137.9553006933334,-1633.3971685396973L-1145.625051591111,-1631.7466179032344"></path><path class="waypath" style="fill:orange;stroke:darkorange;}" d="M1563.0762780444445,571.5380808268674L1558.0675800177778,562.2084367022617L1559.8548195555554,561.2487141642487L1561.111945671111,563.5890882839449L1562.0032352711112,563.1120341281639L1561.282048,561.7669270528713L1563.2685169777778,560.7005680588773L1565.4192628622222,559.5462797165383L1566.124138951111,560.8577157836407L1567.4569955555555,560.1430675631855L1566.7928974222223,558.906462814426L1566.38861312,559.1234767880524L1565.7058736355555,557.8531959345564L1568.1071126755555,556.5642050348688L1568.8516016355554,557.950478187413L1568.3855678577777,558.2011670187348L1571.7188744533332,564.4103691271739L1572.0683997866665,564.2232892776374L1572.7080311466666,565.4149872156559L1572.3107373511111,565.6282579426188L1573.03658496,566.9808421011548L1573.8952521955555,568.578497528797L1574.7364431644444,570.1462173941545L1575.1954864355555,569.8992736444343L1575.8817211733333,571.177019697614L1573.4187326577778,572.4996625715867L1572.6940501333333,571.150828728918L1573.1297917155555,570.9169807586586L1572.3410295466667,569.4465432516299L1570.7343780977778,570.30897573533L1570.8264197688889,570.4810879705474L1568.3983837866667,571.785024102428L1568.5871274666667,572.1348602866055L1566.897755022222,573.0403179789428L1566.71367168,572.6979652866721L1564.3695217777777,573.956999375252L1563.5166799644444,572.3705787037034L1562.5997585066666,572.8625939206686L1562.8817089422223,573.3882828697097L1564.9252670577778,577.1934380597668L1563.2859932444444,578.0726996279554L1557.0714328177778,581.4101438010111L1554.9836014933333,577.5189520225395L1554.3078525155556,577.8818812367972L1553.331511751111,576.0634920755401L1561.79585024,571.519373000483L1562.0906166044444,572.0675121553941L1563.0762780444445,571.5380808268674"></path><path class="waypath" style="fill:orange;stroke:darkorange;}" d="M357.5354413511111,296.2753596109105L358.73081799111105,296.2809737698408L358.7389735822221,294.86246172816027L359.9623122488888,294.86994728585705L359.95765191111104,295.69897241238505L362.8319152355557,295.7158149011666L362.8272548977777,296.4100994190667L363.86651022222213,296.41571357729845L363.8595197155555,297.493631270132L367.08097820444436,297.51421649055555L367.18933105777774,279.84255757869687L363.8164115911111,279.8219719316112L363.8234020977777,278.6036750334315L362.757349831111,278.5961893325439L360.9071957333333,278.5849607817363L360.899040142222,279.921157316654L357.63680369777785,279.9024430938298L357.5354413511111,296.2753596109105"></path><path class="waypath" style="fill:orange;stroke:darkorange;}" d="M246.04385052444445,200.34644298942294L244.97197283555533,209.300115295453L257.60731363555556,210.8142199041322L258.6791913244442,201.85869189840741L246.04385052444445,200.34644298942294"></path><path class="waypath" style="fill:orange;stroke:darkorange;}" d="M2444.2284782933334,326.45093116664793L2453.384876942222,329.5442178098019L2456.4478839466665,319.9817527863197L2455.7604841244442,319.7309939444531L2456.1659335111112,318.5127540429821L2448.0417996799997,315.79369619034696L2444.2284782933334,326.45093116664793"></path><path class="waypath" style="fill:orange;stroke:darkorange;}" d="M1215.4884801422222,-1226.7025338464882L1222.7947246933334,-1234.3439772792626L1229.0419074844444,-1226.590049911174L1223.9434979555556,-1220.0753806658322L1215.4884801422222,-1226.7025338464882"></path><path class="waypath" style="fill:orange;stroke:darkorange;}" d="M-386.7589495466668,262.0750880353153L-384.3437294933335,261.3807755711023L-384.2353766399999,261.74945368850604L-378.8025878755559,260.1006939675426L-378.9109407288893,259.6683852724964L-376.6681531733334,259.0470581065165L-373.88476643555555,265.83110280695837L-378.5602503111113,267.31703532568645L-378.66743808000024,266.9932744309772L-380.3707915377779,267.5322520378977L-380.2892356266666,267.8840844586957L-385.2618160355555,269.2895412449725L-386.7589495466668,262.0750880353153"></path><path class="waypath" style="fill:orange;stroke:darkorange;}" d="M912.106316231111,1316.835404702928L912.0748589511111,1317.1195154014276L914.0205499733333,1317.3325983631657L914.0531723377777,1317.037272840389L914.297840071111,1317.063440929167L914.2722082133332,1317.2989536883542L917.1709383111111,1317.6185780438827L917.1546271288888,1317.7625024219742L920.6056072533332,1318.1400701560779L921.8953557333333,1306.4017476424342L918.6389447111111,1306.0447356229415L918.3080607288888,1309.0559684477048L917.4587141688888,1308.9625101088313L917.1860844088887,1311.437283470761L915.8334213688888,1311.2877505401848L915.8800247466665,1310.8634507086826L916.1037209599999,1308.8279300829163L915.2951523555555,1308.7400792211993L915.3242794666666,1308.4690499096178L913.0337234488888,1308.2167121977545L912.6958489599998,1311.2896197023802L912.4872988444444,1313.1830784899648L912.106316231111,1316.835404702928"></path></svg>
