<svg xmlns="http://www.w3.org/2000/svg" version="1.1" width="960" height="500"><g></g><g></g><g></g><g></g><g></g><g></g><g></g><g></g><g></g><g></g><g></g><g></g><path class="waypath" style="fill: none; stroke: orange; stroke-width: 5; }" d="M407.57835093333415,331.5425910335034L406.23617365333484,341.9675454925746L403.1603507200016,352.2127516064793L397.3256078222221,362.09846950508654L391.9941814044432,366.62193196825683L384.0529658311134,372.9727509152144L369.0466781866671,381.0011404491961L354.1522386488905,386.2435564342886L342.5013942044425,387.17221277207136L325.98515712000153,383.96685031428933L316.75768832000176,380.2522237095982L307.53021951999835,374.91993538104L296.1589953422226,357.7847025692463L291.3308854044444,343.82486413419247L291.4240921599994,329.1760054323822L295.9166577777796,312.070671999827L303.09357795555843,299.6984997726977L307.77255708444136,294.1265250891447L318.3981272177771,283.4618790168315L325.3886338844459,277.5304149482399L331.7453346133334,273.7258886601776L343.11655879111277,272.5575693529099L357.0789307733321,233.73336310312152L371.3209230222237,199.82200615294278L369.21445034666976,184.99325025640428L387.63210524444366,186.07170577161014L432.0917276444452,203.20715422555804L440.14479132444467,187.53960342146456L507.7010477511103,186.28140544891357L534.451386595556,184.93333606049418L534.209049031113,126.84639739245176L552.8317587911115,131.84925330989063L559.9900376177793,112.04751944169402L619.4932303644455,135.17450384050608L670.0672159288915,154.8563754800707L644.5099235555572,220.25271009653807L619.1576860444438,289.21359928138554L610.3589683200007,313.1491174735129L606.6493394488898,322.67538211867213L605.1207486577769,326.4199811760336L603.1074827377815,332.5012078694999L496.90770545777923,331.6324613690376L482.4420169955556,317.4928553253412L467.58486016000097,298.29052789881825L463.4278388622224,295.7441953923553L448.1792136533368,340.2000968847424L410.1322160355594,325.6111478675157L407.57835093333415,331.5425910335034"></path></svg>
