<svg xmlns="http://www.w3.org/2000/svg" version="1.1" width="960" height="500"><g><path class="path" style="fill:none;stroke:#ccc;stroke-linejoin:round;stroke-linecap:round;" d="M118.91702897777577,90.39211247302592L180.0420192711099,-33.499145762994885L183.4906692266668,-43.259597174823284L186.3800786488864,-55.89430230110884L186.93931918222006,-67.39129533991218L185.7835554133344,-82.90027524530888L181.7756649244402,-90.35537030361593L176.0341287822157,-94.3972910232842L149.91759587555498,-107.15180423669517"></path><path class="minor_road" style="fill:none;stroke:#ccc;stroke-linejoin:round;stroke-linecap:round;" d="M44.74309290666497,90.39211247302592L56.85997112888799,66.7696272842586L149.91759587555498,-107.15180423669517L179.7623990044449,-165.83469465002418"></path><path class="minor_road" style="fill:none;stroke:#ccc;stroke-linejoin:round;stroke-linecap:round;" d="M206.19583488000353,42.42854464426637L180.82495601777555,90.39211247302592"></path><path class="minor_road" style="fill:none;stroke:#ccc;stroke-linejoin:round;stroke-linecap:round;" d="M56.85997112888799,66.7696272842586L103.40742485332885,90.39211247302592"></path></g><g><path class="path" style="fill:none;stroke:#ccc;stroke-linejoin:round;stroke-linecap:round;" d="M273.1369267200025,90.39211247302592L297.79943423999794,41.02137125842273L257.08672341333295,19.85387323796749L223.15946439110485,90.39211247302592"></path><path class="path" style="fill:none;stroke:#ccc;stroke-linejoin:round;stroke-linecap:round;" d="M358.70072832000005,-24.876421496272087L316.19844778666084,-45.56498088501394L309.2825065244433,-50.7146705891937L306.4303798044457,-57.630826672539115L302.38520661333314,-66.82243347354233L298.3959574755536,-73.70865760557353L290.90213432888777,-78.31943570822477L275.98905344000013,-85.17572551220655L233.8409585777772,-104.21766633912921"></path><path class="path" style="fill:none;stroke:#ccc;stroke-linejoin:round;stroke-linecap:round;" d="M230.1499710577773,-161.13406607322395L390.7638522311099,-84.60686290822923"></path><path class="minor_road" style="fill:none;stroke:#ccc;stroke-linejoin:round;stroke-linecap:round;" d="M324.40064227555195,42.66806350462139L367.5553700977762,62.15889663435519L425.9960058311117,90.39211247302592"></path><path class="minor_road" style="fill:none;stroke:#ccc;stroke-linejoin:round;stroke-linecap:round;" d="M426.3874742044427,-152.36155973933637L432.3527065599992,-165.83469465002418"></path><path class="minor_road" style="fill:none;stroke:#ccc;stroke-linejoin:round;stroke-linecap:round;" d="M239.26559175111106,-20.086021469905972L206.19583488000353,42.42854464426637"></path><path class="minor_road" style="fill:none;stroke:#ccc;stroke-linejoin:round;stroke-linecap:round;" d="M219.39391146666458,-165.83469465002418L230.1499710577773,-161.13406607322395"></path><path class="major_road" style="fill:none;stroke:#ccc;stroke-linejoin:round;stroke-linecap:round;" d="M300.29737528888654,90.39211247302592L324.40064227555195,42.66806350462139L332.3977819022184,26.23107199370861"></path><path class="major_road" style="fill:none;stroke:#ccc;stroke-linejoin:round;stroke-linecap:round;" d="M400.2336585955527,-165.83469465002418L426.3874742044427,-152.36155973933637"></path><path class="major_road" style="fill:none;stroke:#ccc;stroke-linejoin:round;stroke-linecap:round;" d="M332.3977819022184,26.23107199370861L239.26559175111106,-20.086021469905972"></path><path class="major_road" style="fill:none;stroke:#ccc;stroke-linejoin:round;stroke-linecap:round;" d="M332.3977819022184,26.23107199370861L358.70072832000005,-24.876421496272087L390.7638522311099,-84.60686290822923L426.3874742044427,-152.36155973933637"></path><path class="major_road" style="fill:none;stroke:#ccc;stroke-linejoin:round;stroke-linecap:round;" d="M229.851709439994,-165.83469465002418L230.1499710577773,-161.13406607322395L233.8409585777772,-104.21766633912921L239.26559175111106,-20.086021469905972"></path></g><g><path class="minor_road" style="fill:none;stroke:#ccc;stroke-linejoin:round;stroke-linecap:round;" d="M718.1991844977747,-51.34341190196574L716.4096147911077,-56.79250453785062L718.1991844977747,-67.09189435653389"></path><path class="minor_road" style="fill:none;stroke:#ccc;stroke-linejoin:round;stroke-linecap:round;" d="M553.6333368888918,-165.83469465002418L678.9032163555494,-98.58891377039254L718.1991844977747,23.05744294449687"></path></g><g><path class="minor_road" style="fill:none;stroke:#ccc;stroke-linejoin:round;stroke-linecap:round;" d="M877.731867306662,-150.86454557441175L849.8630473955527,-159.90651365555823"></path><path class="minor_road" style="fill:none;stroke:#ccc;stroke-linejoin:round;stroke-linecap:round;" d="M766.6666973866631,-144.00822277925909L806.9692984888898,-144.60702812857926"></path><path class="path" style="fill:none;stroke:#ccc;stroke-linejoin:round;stroke-linecap:round;" d="M974.1822179555566,73.08692453056574L957.926959786666,90.39211247302592"></path><path class="path" style="fill:none;stroke:#ccc;stroke-linejoin:round;stroke-linecap:round;" d="M889.699614719997,90.39211247302592L954.3105376711101,-133.6488944273442L961.6925127111099,-165.83469465002418"></path><path class="path" style="fill:none;stroke:#ccc;stroke-linejoin:round;stroke-linecap:round;" d="M817.6507926755512,90.39211247302592L885.3934626133341,-148.76872601173818L889.5504839111127,-165.83469465002418"></path><path class="minor_road" style="fill:none;stroke:#ccc;stroke-linejoin:round;stroke-linecap:round;" d="M849.8630473955527,-159.90651365555823L843.4690639644432,-165.83469465002418"></path><path class="minor_road" style="fill:none;stroke:#ccc;stroke-linejoin:round;stroke-linecap:round;" d="M930.3191187911107,-136.07405441440642L903.1400288711084,-143.8285811766982L893.409243591108,-146.5830859579146L885.3934626133341,-148.76872601173818L877.731867306662,-150.86454557441175"></path><path class="minor_road" style="fill:none;stroke:#ccc;stroke-linejoin:round;stroke-linecap:round;" d="M764.3178871466662,90.39211247302592L745.6019706311126,32.87772668339312L718.1991844977747,-51.34341190196574M718.1991844977747,-67.09189435653389L728.880678684447,-129.03809764049947L750.6537767822228,-146.2238026931882L766.6666973866631,-144.00822277925909"></path><path class="minor_road" style="fill:none;stroke:#ccc;stroke-linejoin:round;stroke-linecap:round;" d="M806.9692984888898,-144.60702812857926L824.2125482666634,-153.4094697572291L834.9686078577724,-165.83469465002418"></path><path class="minor_road" style="fill:none;stroke:#ccc;stroke-linejoin:round;stroke-linecap:round;" d="M718.1991844977747,23.05744294449687L739.9349998933285,90.39211247302592"></path><path class="major_road" style="fill:none;stroke:#ccc;stroke-linejoin:round;stroke-linecap:round;" d="M936.8063089777716,-165.83469465002418L930.3191187911107,-136.07405441440642L873.8917489777778,67.12890493124723L865.6522717866683,90.39211247302592"></path><path class="major_road" style="fill:none;stroke:#ccc;stroke-linejoin:round;stroke-linecap:round;" d="M838.2122029511083,90.39211247302592L903.1400288711084,-143.8285811766982L907.5953117866593,-165.83469465002418"></path></g><g><path class="path" style="fill:none;stroke:#ccc;stroke-linejoin:round;stroke-linecap:round;" d="M206.19583488000353,138.20581350661814L201.14402872888604,136.1100380104035L164.42056703999697,121.37972116097808"></path><path class="path" style="fill:none;stroke:#ccc;stroke-linejoin:round;stroke-linecap:round;" d="M206.19583488000353,125.66109537892044L201.14402872888604,136.1100380104035L146.4130218666687,240.35950900800526L184.57186759110846,258.592605791986L206.19583488000353,218.74322807975113"></path><path class="path" style="fill:none;stroke:#ccc;stroke-linejoin:round;stroke-linecap:round;" d="M-27.52942535110924,331.31517477333546L-49.82448128000033,319.81850789673626"></path><path class="path" style="fill:none;stroke:#ccc;stroke-linejoin:round;stroke-linecap:round;" d="M188.28149646221937,311.82472599484026L88.56890936888522,265.2092079613358"></path><path class="path" style="fill:none;stroke:#ccc;stroke-linejoin:round;stroke-linecap:round;" d="M-34.24031175111304,244.1917546875775L-7.769593173336034,256.5567275546491L1.4019515733307344,257.72436364367604L11.188660906660516,257.72436364367604L20.378847004441923,254.3112732693553L28.991151217771403,247.96412048116326L45.63787775999663,233.5931976120919L51.39805525333213,226.13827540166676L58.2953551644423,215.21037004329264L115.80392334222051,96.67945904843509L118.91702897777577,90.39211247302592"></path><path class="path" style="fill:none;stroke:#ccc;stroke-linejoin:round;stroke-linecap:round;" d="M-27.52942535110924,331.31517477333546L-6.613829404446733,345.32672445103526L-5.551272391112434,346.614109698683"></path><path class="path" style="fill:none;stroke:#ccc;stroke-linejoin:round;stroke-linecap:round;" d="M23.75293155555846,300.6873141974211L42.41292401777537,327.5428320206702L50.80153201777648,334.0995223298669L63.44036807111115,342.15316958911717L81.70889216000069,346.614109698683"></path><path class="minor_road" style="fill:none;stroke:#ccc;stroke-linejoin:round;stroke-linecap:round;" d="M206.19583488000353,291.40613074973226L200.26788522666902,288.38225994445384"></path><path class="minor_road" style="fill:none;stroke:#ccc;stroke-linejoin:round;stroke-linecap:round;" d="M-49.82448128000033,274.5203485619277L-34.24031175111304,244.1917546875775L44.74309290666497,90.39211247302592"></path><path class="minor_road" style="fill:none;stroke:#ccc;stroke-linejoin:round;stroke-linecap:round;" d="M180.82495601777555,90.39211247302592L164.42056703999697,121.37972116097808L88.56890936888522,265.2092079613358L80.1057359644401,273.80180417746305L68.60402232888373,280.68785298615694L23.75293155555846,300.6873141974211L0.2834705066670722,313.4414463099092L-17.556302506669454,323.20164264179766L-27.52942535110924,331.31517477333546L-35.451999573331705,346.614109698683"></path><path class="minor_road" style="fill:none;stroke:#ccc;stroke-linejoin:round;stroke-linecap:round;" d="M103.40742485332885,90.39211247302592L115.80392334222051,96.67945904843509L164.42056703999697,121.37972116097808"></path><path class="major_road" style="fill:none;stroke:#ccc;stroke-linejoin:round;stroke-linecap:round;" d="M170.10617912888847,346.614109698683L188.28149646221937,311.82472599484026L200.26788522666902,288.38225994445384L206.19583488000353,276.67598149366677"></path><path class="major_road" style="fill:none;stroke:#ccc;stroke-linejoin:round;stroke-linecap:round;" d="M206.19583488000353,321.0160778108984L188.28149646221937,311.82472599484026"></path></g><g><path class="path" style="fill:none;stroke:#ccc;stroke-linejoin:round;stroke-linecap:round;" d="M264.3568503466631,161.49883950315416L241.87538090666567,152.9061725884676L206.19583488000353,138.20581350661814"></path><path class="path" style="fill:none;stroke:#ccc;stroke-linejoin:round;stroke-linecap:round;" d="M241.87538090666567,152.9061725884676L273.1369267200025,90.39211247302592M223.15946439110485,90.39211247302592L206.19583488000353,125.66109537892044M206.19583488000353,218.74322807975113L241.87538090666567,152.9061725884676"></path><path class="minor_road" style="fill:none;stroke:#ccc;stroke-linejoin:round;stroke-linecap:round;" d="M313.9242029511079,346.614109698683L206.19583488000353,291.40613074973226"></path><path class="minor_road" style="fill:none;stroke:#ccc;stroke-linejoin:round;stroke-linecap:round;" d="M425.9960058311117,90.39211247302592L462.1788683377781,107.84697702713311"></path><path class="major_road" style="fill:none;stroke:#ccc;stroke-linejoin:round;stroke-linecap:round;" d="M256.06144910222065,346.614109698683L206.19583488000353,321.0160778108984"></path><path class="major_road" style="fill:none;stroke:#ccc;stroke-linejoin:round;stroke-linecap:round;" d="M206.19583488000353,276.67598149366677L264.3568503466631,161.49883950315416L300.29737528888654,90.39211247302592"></path></g><g><path class="path" style="fill:none;stroke:#ccc;stroke-linejoin:round;stroke-linecap:round;" d="M679.8352839111067,330.3870587963611L711.6187875555588,281.6758510135114L718.1991844977747,276.8256782107055"></path><path class="path" style="fill:none;stroke:#ccc;stroke-linejoin:round;stroke-linecap:round;" d="M671.8008615822182,346.614109698683L679.8352839111067,330.3870587963611L654.799949368884,317.12397519126534L658.9010466133295,309.3397666234523L717.9009228800023,207.3961638584733L718.1991844977747,207.54586133174598"></path><path class="minor_road" style="fill:none;stroke:#ccc;stroke-linejoin:round;stroke-linecap:round;" d="M462.1788683377781,107.84697702713311L539.3913446399965,145.12187036313117"></path><path class="major_road" style="fill:none;stroke:#ccc;stroke-linejoin:round;stroke-linecap:round;" d="M715.4775472355541,346.614109698683L718.1991844977747,341.40468956157565"></path></g><g><path class="path" style="fill:none;stroke:#ccc;stroke-linejoin:round;stroke-linecap:round;" d="M957.926959786666,90.39211247302592L883.0632937244445,170.03162185288966L874.1713692444428,178.71409665979445L862.706938311112,173.32497502304614L859.1650815999965,172.45672744512558"></path><path class="path" style="fill:none;stroke:#ccc;stroke-linejoin:round;stroke-linecap:round;" d="M859.1650815999965,172.45672744512558L858.0279591822182,169.70228649303317"></path><path class="path" style="fill:none;stroke:#ccc;stroke-linejoin:round;stroke-linecap:round;" d="M858.0279591822182,169.70228649303317L882.6345426488842,114.91274776495993L889.699614719997,90.39211247302592"></path><path class="path" style="fill:none;stroke:#ccc;stroke-linejoin:round;stroke-linecap:round;" d="M718.1991844977747,276.8256782107055L747.0000719644413,255.62860650010407L762.1741317688902,227.2460351921618L806.2422857955571,138.23575315251946L807.6590284800004,125.66109537892044L817.6507926755512,90.39211247302592"></path><path class="path" style="fill:none;stroke:#ccc;stroke-linejoin:round;stroke-linecap:round;" d="M859.1650815999965,172.45672744512558L839.051063751107,221.13838554173708L833.5518651733328,218.77316754683852"></path><path class="path" style="fill:none;stroke:#ccc;stroke-linejoin:round;stroke-linecap:round;" d="M769.7798030222184,346.614109698683L833.5518651733328,218.77316754683852L858.0279591822182,169.70228649303317"></path><path class="path" style="fill:none;stroke:#ccc;stroke-linejoin:round;stroke-linecap:round;" d="M718.1991844977747,207.54586133174598L757.0477602133287,225.1203339099884L762.1741317688902,227.2460351921618"></path><path class="minor_road" style="fill:none;stroke:#ccc;stroke-linejoin:round;stroke-linecap:round;" d="M825.703856355558,135.54118460789323L807.6590284800004,125.66109537892044L779.1004785777804,115.99057687819004L766.6853387377778,97.6375306583941L764.3178871466662,90.39211247302592"></path><path class="minor_road" style="fill:none;stroke:#ccc;stroke-linejoin:round;stroke-linecap:round;" d="M739.9349998933285,90.39211247302592L744.744468480003,105.30210108868778"></path><path class="major_road" style="fill:none;stroke:#ccc;stroke-linejoin:round;stroke-linecap:round;" d="M718.1991844977747,341.40468956157565L825.703856355558,135.54118460789323L838.2122029511083,90.39211247302592"></path><path class="major_road" style="fill:none;stroke:#ccc;stroke-linejoin:round;stroke-linecap:round;" d="M865.6522717866683,90.39211247302592L846.1347771733308,145.48114595003426L775.6704699733345,283.23269624076784L744.7071857777773,346.614109698683"></path></g><g><path class="path" style="fill:none;stroke:#ccc;stroke-linejoin:round;stroke-linecap:round;" d="M95.67126414222002,485.50130784884095L167.8692169955575,504.5124871376902"></path><path class="path" style="fill:none;stroke:#ccc;stroke-linejoin:round;stroke-linecap:round;" d="M-5.551272391112434,346.614109698683L4.291360995557625,358.230510674417L14.133994382220408,370.92471074312925L24.386737493332475,377.81071055680513L89.33320476443987,409.21681348979473L128.0140083199949,427.62931878492236"></path><path class="path" style="fill:none;stroke:#ccc;stroke-linejoin:round;stroke-linecap:round;" d="M81.70889216000069,346.614109698683L82.39862215111498,346.7638056538999L98.48610815999564,349.0391839146614L112.28070798222325,351.9133453909308L156.03195903999222,373.4994762968272"></path><path class="minor_road" style="fill:none;stroke:#ccc;stroke-linejoin:round;stroke-linecap:round;" d="M-49.82448128000033,413.94718307070434L95.67126414222002,485.50130784884095"></path><path class="minor_road" style="fill:none;stroke:#ccc;stroke-linejoin:round;stroke-linecap:round;" d="M6.6774539377765905,601.9630770292133L-49.82448128000033,575.4074860159308"></path><path class="minor_road" style="fill:none;stroke:#ccc;stroke-linejoin:round;stroke-linecap:round;" d="M-35.451999573331705,346.614109698683L-49.82448128000033,374.3377719502896"></path><path class="major_road" style="fill:none;stroke:#ccc;stroke-linejoin:round;stroke-linecap:round;" d="M25.318805048886134,601.9630770292133L50.89473877333148,568.3120149578899L71.51207310221798,531.3676039408892L95.67126414222002,485.50130784884095L128.0140083199949,427.62931878492236L149.3956380444397,385.1457934975624L156.03195903999222,373.4994762968272L170.10617912888847,346.614109698683"></path></g><g><path class="path" style="fill:none;stroke:#ccc;stroke-linejoin:round;stroke-linecap:round;" d="M288.98207516444745,390.9839179199189L299.3653077333329,368.7990318406373"></path><path class="path" style="fill:none;stroke:#ccc;stroke-linejoin:round;stroke-linecap:round;" d="M380.00779264000084,365.4458475355059L373.6697332622207,377.1819889768958"></path><path class="minor_road" style="fill:none;stroke:#ccc;stroke-linejoin:round;stroke-linecap:round;" d="M462.1788683377781,419.72541711106896L373.6697332622207,377.1819889768958L313.9242029511079,346.614109698683"></path><path class="major_road" style="fill:none;stroke:#ccc;stroke-linejoin:round;stroke-linecap:round;" d="M462.1788683377781,452.3589209616184L299.3653077333329,368.7990318406373L256.06144910222065,346.614109698683"></path></g><g><path class="path" style="fill:none;stroke:#ccc;stroke-linejoin:round;stroke-linecap:round;" d="M568.2295148088888,601.9630770292133L577.2332873955565,590.0774355754256L610.5640231822181,528.5234190374613L638.8429528177767,456.07135131396353L630.9763026488872,450.08355991728604L627.7327075555513,442.74851187877357L629.0935261866653,434.8745579570532L638.0600160711074,416.2225501332432"></path><path class="path" style="fill:none;stroke:#ccc;stroke-linejoin:round;stroke-linecap:round;" d="M647.0451473066678,398.19923746958375L638.0600160711074,416.2225501332432"></path><path class="path" style="fill:none;stroke:#ccc;stroke-linejoin:round;stroke-linecap:round;" d="M567.0737510399995,506.21900114417076L578.2958444088872,482.6571133956313L582.9561821866664,472.9269699975848L617.1630614755522,409.45632591471076L627.434445937779,388.01994736865163L647.0451473066678,398.19923746958375L659.2552322844458,371.88276310265064L671.8008615822182,346.614109698683"></path><path class="path" style="fill:none;stroke:#ccc;stroke-linejoin:round;stroke-linecap:round;" d="M659.2552322844458,371.88276310265064L650.326025102222,367.661344403401"></path><path class="path" style="fill:none;stroke:#ccc;stroke-linejoin:round;stroke-linecap:round;" d="M615.2989263644413,348.29070426523685L650.326025102222,367.661344403401"></path><path class="path" style="fill:none;stroke:#ccc;stroke-linejoin:round;stroke-linecap:round;" d="M642.384809528885,601.9630770292133L718.1991844977747,450.02368198893964"></path><path class="path" style="fill:none;stroke:#ccc;stroke-linejoin:round;stroke-linecap:round;" d="M582.9561821866664,472.9269699975848L524.1800021333293,449.51471960172057"></path><path class="minor_road" style="fill:none;stroke:#ccc;stroke-linejoin:round;stroke-linecap:round;" d="M524.1800021333293,449.51471960172057L462.1788683377781,419.72541711106896"></path><path class="major_road" style="fill:none;stroke:#ccc;stroke-linejoin:round;stroke-linecap:round;" d="M647.1383540622228,546.4268046170473L618.2442598400012,532.7747267764062L610.5640231822181,528.5234190374613L567.0737510399995,506.21900114417076L462.1788683377781,452.3589209616184"></path><path class="major_road" style="fill:none;stroke:#ccc;stroke-linejoin:round;stroke-linecap:round;" d="M574.9404012088853,601.9630770292133L618.2442598400012,532.7747267764062L715.4775472355541,346.614109698683"></path><path class="major_road" style="fill:none;stroke:#ccc;stroke-linejoin:round;stroke-linecap:round;" d="M718.1991844977747,400.9236932396889L647.1383540622228,546.4268046170473L613.938107733331,601.9630770292133"></path></g><g><path class="path" style="fill:none;stroke:#ccc;stroke-linejoin:round;stroke-linecap:round;" d="M718.1991844977747,450.02368198893964L769.7798030222184,346.614109698683"></path><path class="major_road" style="fill:none;stroke:#ccc;stroke-linejoin:round;stroke-linecap:round;" d="M744.7071857777773,346.614109698683L718.1991844977747,400.9236932396889"></path></g><path class="waypath" style="fill:none;stroke:orange; stroke-width:5;stroke-linejoin:round; stroke-linecap:round}" d="M239.13510229333406,293.3821251746267L277.8718299022221,218.9528043679893L266.6683778844417,213.11460637114942L295.9166577777796,156.88814085535705L307.1387511466637,162.72636291012168L344.79428039110644,90.33223296701908L542.8027118933314,193.05513779446483L611.365601280002,59.01521575450897L720.8648977066659,115.00256685912609L687.8510648888878,179.55240428447723L629.9323869866639,149.9421503432095L596.8626301155527,214.58164097554982L628.9816780799993,231.01840565912426L603.1820481422183,281.40639701113105L591.3075074844419,304.6393000688404L627.975045119998,324.0998198725283L615.2989263644413,348.29070426523685L601.765305457775,374.1281980480999L594.3087650133348,385.17573260329664L591.0465285688915,388.97799852862954L586.7030937599993,389.8162932321429L580.1972622222202,387.9001909736544L578.5568233244448,383.8284727688879L579.3770427733361,378.4094929881394L560.922105173333,371.0744064245373L527.6659347911118,440.98211195878685L490.8492663466677,425.92279494553804L492.210084977778,421.8510880842805L380.00779264000084,365.4458475355059L239.13510229333406,293.3821251746267"></path><path class="center" style="fill:none; stroke:red; stroke-width:1;stroke-linejoin:round; stroke-linecap:round}" d="M480,250m0,4.5a4.5,4.5 0 1,1 0,-9a4.5,4.5 0 1,1 0,9z"></path><text class="place-label" transform="translate(480,250)" dy="1.2em">Tate Britain</text></svg>
