<svg xmlns="http://www.w3.org/2000/svg" version="1.1" width="1200" height="800"><g></g><g><path class="riverbank" style="fill:lightblue;stroke:lightblue;stroke-width:1;stroke-linejoin:round;stroke-linecap:round" d="M229.44489244444435,45.491436398006044L246.65318968888892,30.796606870368123L265.4460017777776,22.597343530505896L265.9003847111112,20.444555843481794L277.9706595555556,15.74584384530317L303.97534435555554,8.725807570619509L317.51362559999984,6.816347707761452L317.71168995555536,8.463725097477436L318.87677439999993,7.19075193896424L347.60775679999983,5.955217351089232L347.60775679999983,45.491436398006044Z"></path><path class="basin" style="fill:lightblue;stroke:lightblue;stroke-width:1;stroke-linejoin:round;stroke-linecap:round" d="M259.94680319999975,0.8258576471125707L262.8362126222221,-0.44712691148743033L265.3061916444444,5.094086124794558L262.42843306666646,6.385782637749799Z"></path></g><g><path class="riverbank" style="fill:lightblue;stroke:lightblue;stroke-width:1;stroke-linejoin:round;stroke-linecap:round" d="M347.60775679999983,5.955217351089232L465.05991964444434,6.629145529936068L496.6686606222222,11.926951278932393L496.2958335999999,13.836399699561298L499.0104803555555,15.521203579613939L507.131118933333,18.329202649882063L508.4942677333331,17.00008424243424L512.2225379555555,17.936083337059245L513.2711139555554,12.151592491427436L517.9431025777776,13.143757139216177L518.6538040888888,11.32790775608737L520.4480341333333,11.721030115499161L517.4537671111111,20.07015743071679L526.890951111111,25.068362697958946L533.683393422222,27.183699176530354L536.3747384888889,25.873314365628175L580.9275676444445,40.8115818600636L595.4095672888886,41.934749290696345L603.6001109333333,40.08152223599609L603.6001109333333,45.491436398006044L347.60775679999983,45.491436398006044Z"></path><path class="water" style="fill:lightblue;stroke:lightblue;stroke-width:1;stroke-linejoin:round;stroke-linecap:round" d="M544.3322652444442,-144.68109319510404L545.2526819555555,-145.95429497340228L548.5382200888887,-143.59512847464066L548.3984099555555,-143.20193469256628Z"></path><path class="water" style="fill:lightblue;stroke:lightblue;stroke-width:1;stroke-linejoin:round;stroke-linecap:round" d="M507.28257991111104,-180.7621211486403L508.8088405333333,-181.11788356560282L510.83608746666664,-174.32097463705577L509.18166755555535,-173.89031832048204Z"></path><path class="water" style="fill:lightblue;stroke:lightblue;stroke-width:1;stroke-linejoin:round;stroke-linecap:round" d="M518.8052650666666,-137.0793691930594L522.1374065777777,-148.7066641380079L524.059795911111,-147.99516649567522L521.6480711111112,-141.38575624290388L539.1592903111109,-134.982353807427L538.3786837333332,-133.07257642457262L525.6210090666666,-138.27766601450276L521.9393422222222,-138.37128302443307L520.9956238222221,-136.2555411051726Z"></path><path class="water" style="fill:lightblue;stroke:lightblue;stroke-width:1;stroke-linejoin:round;stroke-linecap:round" d="M523.4656028444442,-152.45139835588634L525.0850702222222,-156.53317738405894L527.4501916444444,-156.4208345800871L541.4195541333331,-152.07692419353407L561.0512270222223,-144.662369653699L559.0356309333331,-139.1389428949915L548.6896810666665,-143.08959364518523L550.6353720888887,-144.32534597918857L546.8838001777779,-146.8530267853057L545.0779192888888,-146.6470673282165L544.3322652444442,-144.68109319510404ZM540.918567822222,-151.4590421860339L541.1399338666665,-151.23435793095268L541.3496490666666,-151.38414742797613L541.1049813333332,-151.68372650106903ZM539.2408462222222,-152.1143716024235L539.4622122666665,-151.90841087477747L539.6719274666666,-152.0582004901953L539.4272597333334,-152.33905608963687ZM537.5281720888886,-152.69480664865114L537.7495381333333,-152.47012206772342L537.9592533333334,-152.61991178197786L537.7145855999997,-152.91949128871784ZM555.412218311111,-143.12704065965954L558.2317226666667,-142.02235443447717L559.3618545777776,-144.92449927062262L556.5423502222222,-146.02918925520498Z"></path></g><g><path class="riverbank" style="fill:lightblue;stroke:lightblue;stroke-width:1;stroke-linejoin:round;stroke-linecap:round" d="M603.6001109333333,40.08152223599609L613.1771050666667,41.036215464468114L612.2799900444444,45.491436398006044L603.6001109333333,45.491436398006044Z"></path><path class="riverbank" style="fill:lightblue;stroke:lightblue;stroke-width:1;stroke-linejoin:round;stroke-linecap:round" d="M612.2799900444444,45.491436398006044L612.9440881777776,42.327857542200945L614.2722844444445,44.8924164500786L616.9519786666666,45.491436398006044Z"></path><path class="water" style="fill:lightblue;stroke:lightblue;stroke-width:1;stroke-linejoin:round;stroke-linecap:round" d="M686.6007267555555,-158.6864173116628L687.8240654222222,-162.37502356269397L689.8047089777778,-161.73841017694212L688.6163228444443,-158.03108284506015Z"></path><path class="water" style="fill:lightblue;stroke:lightblue;stroke-width:1;stroke-linejoin:round;stroke-linecap:round" d="M830.8964351999999,-29.033618827699684L833.9373056,-30.568742425413802L835.2538510222222,-24.428264613845386L832.655712711111,-23.791754198842682Z"></path></g><g><path class="riverbank" style="fill:lightblue;stroke:lightblue;stroke-width:1;stroke-linejoin:round;stroke-linecap:round" d="M1072.9427285333331,45.491436398006044L1086.9120910222223,35.38291842408944L1102.034887111111,30.62812964944169L1115.6081208888888,29.579826195607893L1115.6081208888888,45.491436398006044Z"></path></g><g><path class="water" style="fill:lightblue;stroke:lightblue;stroke-width:1;stroke-linejoin:round;stroke-linecap:round" d="M1179.0935722666666,1.7431541661499068L1179.33824,-3.5359944015508518L1186.130682311111,-6.905680786236189L1188.6472647111111,-17.501559173571877L1198.4456248888887,-16.303432047949173L1196.511584711111,-10.631071785697713L1197.5019064888888,-9.63888063293416L1199.703916088889,-17.838532730937004L1201.8360206222221,-17.370513937203214L1201.0903665777778,-9.28318974620197L1213.5917226666666,-6.943121820571832L1221.4210901333333,-2.9556608678540215L1225.6270449777778,-9.676321787294L1226.7804785777776,-9.489116030861624L1228.5281052444443,2.6042887757066637L1208.8614798222222,12.376233644783497L1185.5714417777776,5.842895936220884L1185.5947434666666,1.481069547124207Z"></path><path class="water" style="fill:lightblue;stroke:lightblue;stroke-width:1;stroke-linejoin:round;stroke-linecap:round" d="M1198.1077504,21.88598820043262L1201.4049393777777,18.104563064640388L1202.3719594666666,18.984401102992706L1198.9932145777777,22.803262067725882Z"></path><path class="water" style="fill:lightblue;stroke:lightblue;stroke-width:1;stroke-linejoin:round;stroke-linecap:round" d="M1201.4049393777777,18.104563064640388L1205.7274026666666,11.608709459891543L1208.8614798222222,12.376233644783497L1202.3719594666666,18.984401102992706Z"></path><path class="water" style="fill:lightblue;stroke:lightblue;stroke-width:1;stroke-linejoin:round;stroke-linecap:round" d="M1188.2045326222224,31.096121846698225L1195.6028188444443,22.99046069534961L1198.9932145777777,22.803262067725882L1191.0356878222221,33.71687340573408Z"></path><path class="riverbank" style="fill:lightblue;stroke:lightblue;stroke-width:1;stroke-linejoin:round;stroke-linecap:round" d="M1115.6081208888888,29.579826195607893L1115.8644394666667,27.745292050763965L1143.453639111111,25.442758917226456L1143.954625422222,24.15109126700554L1174.176915911111,27.07138055784162L1183.299527111111,29.224151516333222L1184.814136888889,31.245879295747727L1188.2045326222224,31.096121846698225L1191.8395960888888,35.51395553466864L1192.8066161777779,34.10998544516042L1203.6652032,36.97408197633922L1206.7293752888888,32.96808806806803L1209.1061475555555,33.641994901699945L1209.3158627555554,38.378047351608984L1218.2287587555554,40.0066442907555L1231.1611960888888,45.491436398006044L1115.6081208888888,45.491436398006044Z"></path><path class="water" style="fill:lightblue;stroke:lightblue;stroke-width:1;stroke-linejoin:round;stroke-linecap:round" d="M1181.5519004444445,-8.74029341514688L1182.2159985777778,-9.582718904013745L1184.7791843555556,-9.432954312185757L1183.8238151111111,-7.897868758649565Z"></path><path class="water" style="fill:lightblue;stroke:lightblue;stroke-width:1;stroke-linejoin:round;stroke-linecap:round" d="M1204.0729827555556,-210.51560668915045L1206.1817855999998,-164.60317415487953L1205.6924501333333,-161.28903630864806L1204.3409521777776,-161.6822384307161L1204.7254300444442,-155.3535786847351L1205.8322602666667,-156.7765868420247L1211.9140010666665,-138.01553844078444L1231.9767551999998,-113.99376069777645L1235.6234695111111,-105.32511695928406L1235.833184711111,-100.34489928779658L1229.8796032,-80.42431944143027L1225.3357738666666,-72.2615094750654L1223.459987911111,-70.44548210303765L1222.5395712,-71.4377440023236L1219.6734634666666,-66.34539328876417L1221.28128,-66.5326115267817L1219.9647345777778,-62.91930679487996L1207.777951288889,-40.32245813240297L1203.0710101333334,-23.17396513337735L1201.8709731555555,-23.716870652046055L1200.8223971555556,-19.280032229376957L1202.2554510222221,-19.748052071081474L1201.8360206222221,-17.370513937203214L1199.703916088889,-17.838532730937004L1201.8476714666667,-28.62175686901901L1200.6942378666665,-34.83714939164929L1203.8166641777777,-37.32706332101952L1205.6458467555556,-44.29137246287428L1226.0348245333334,-79.63799031020608L1232.9670769777777,-96.9748436792288L1232.3029788444444,-105.96168823132757L1229.8796032,-112.21509011019953L1214.5936952888887,-130.09557903488167L1210.853774222222,-136.81724198779557L1206.4497550222222,-138.5023468559375L1204.0846336,-145.09301120985765L1201.1835733333332,-210.51560668915045Z"></path><path class="water" style="fill:lightblue;stroke:lightblue;stroke-width:1;stroke-linejoin:round;stroke-linecap:round" d="M1226.3144447999998,4.345275656320155L1228.1086748444445,3.165897835046053L1235.413754311111,8.987889963318594L1241.7984170666666,6.909948781016283L1253.0880853333333,-17.2394687209744L1263.6903537777778,-29.31443391321227L1302.8488419555556,-54.10140977613628L1303.2216689777777,-56.0671750997426L1352.7028053333333,-89.44843423750717L1354.0892558222222,-89.05526542116422L1371.6004750222223,-100.58829270862043L1371.6004750222223,-96.80634124821518L1342.1937436444443,-77.24156314320862L1344.3957532444444,-73.53460313437972L1342.6364757333333,-72.39256314642262L1340.1198933333333,-75.9122978526866L1261.4300899555556,-24.61547364969738L1255.8027320888887,-18.568642562022433L1246.0393244444444,5.468491112696938L1242.5091185777778,9.755416506784968L1235.6001678222221,12.057991993497126Z"></path></g><g><path class="water" style="fill:lightblue;stroke:lightblue;stroke-width:1;stroke-linejoin:round;stroke-linecap:round" d="M4.711753955555423,185.87513343594037L5.9350926222221005,180.8217212538002L8.836152888888591,177.56506198330317L22.54919679999989,174.7388705846388L27.011470222221988,171.2763054445386L41.866296888888655,166.93404172640294L91.60375182222197,144.38011810998432L91.60375182222197,150.5006194137968L87.04827164444418,156.69594450620934L87.04827164444418,159.07299082970712L89.42504391111106,160.06498457980342L91.60375182222197,157.31360284937546L91.60375182222197,162.68533988122363L87.5492579555555,162.44202151405625L83.80933688888854,166.95275842782576L81.67723235555536,165.19338670175057L79.80144640000003,167.19607550872024L67.80107662222235,164.2013989154948L42.052710400000024,172.81106578209437L24.925969066666767,180.95273602195084L19.927756799999997,186.32432418095414L12.8090908444442,185.9499985765433L10.17599999999993,189.69324722862802L5.259343644444016,188.86973393475637ZM6.680746666666437,183.57302715478L8.428373333333411,187.0729748972226L14.183890488888892,183.70404149999376L17.306316799999877,183.70404149999376L17.923811555555176,179.69873670302331L11.92362666666645,179.69873670302331Z"></path><path class="water" style="fill:lightblue;stroke:lightblue;stroke-width:1;stroke-linejoin:round;stroke-linecap:round" d="M-14.593695288888739,174.5517052609939L-12.811116088888866,171.2763054445386L-8.24398506666671,171.14528919022996L-12.042160355555552,171.85652004287113L-13.277149866666832,175.05705154128373Z"></path><path class="water" style="fill:lightblue;stroke:lightblue;stroke-width:1;stroke-linejoin:round;stroke-linecap:round" d="M-12.578099199999997,178.2762874828186L-8.593510400000014,177.471479636617L-6.251690666666946,174.23352411622182L-8.453700266666601,178.46345198934432Z"></path><path class="water" style="fill:lightblue;stroke:lightblue;stroke-width:1;stroke-linejoin:round;stroke-linecap:round" d="M-108.45289813333352,194.95248383120634L-104.82948551111122,192.31351151142735L-96.70884693333346,194.6904585758457L-84.70847715555533,191.9391885352088L-80.32775964444477,192.44452451413963L-69.70218951111133,202.569897141424L-67.32541724444445,206.68738952628337L-65.44963128888912,211.32890256494284L-67.45357653333349,217.18690514401533L-69.20120320000001,219.45148960791994L-74.08290702222212,217.3179143264424L-74.82856106666691,223.0635829626117L-78.95295999999985,223.5689005026361L-84.95314488888926,216.19497782411054L-84.82498559999999,213.44377714581788L-90.70866204444474,211.44119692232925L-92.0834616888892,209.064296536264L-91.32615680000026,205.0778266878333L-87.08524942222243,200.19297203444876L-88.70471680000014,198.0780645988416L-103.2100181333335,197.32942354178522ZM-89.0775438222222,209.70063272165135L-87.45807644444471,211.5722069873009L-77.4500010666668,214.08011006447487L-75.9586929777779,213.81809068494476L-73.8265884444445,208.07235977042L-80.19960035555573,201.20363391307183L-83.95117226666684,200.94161057821475L-88.07557120000001,203.44954491150565ZM-80.45591893333358,216.4382808584487L-79.22092942222207,218.30984034063295L-77.85778062222244,218.1226845770143L-79.32578702222213,215.20304935064632Z"></path></g><g><path class="riverbank" style="fill:lightblue;stroke:lightblue;stroke-width:1;stroke-linejoin:round;stroke-linecap:round" d="M175.2684657777777,301.4965116158128L187.15232711111116,199.63149269565474L186.4765781333333,196.16902860510163L187.71156764444413,194.50329762964975L229.38663822222225,196.46848551393487L215.98816711111112,301.4965116158128Z"></path><path class="riverbank" style="fill:lightblue;stroke:lightblue;stroke-width:1;stroke-linejoin:round;stroke-linecap:round" d="M186.5348323555554,185.83770086360164L192.75638328888863,137.1926843614783L193.2923221333333,135.24607729818672L194.4224540444443,135.91990332317073L194.7137251555555,133.1310088186292L193.4088305777775,133.50535760412458L194.6438200888888,125.23221113579348L201.47121493333316,95.80761009489652L214.33374719999983,71.86661637935322L213.66964906666658,70.23808027687483L218.73776639999983,60.39192220219411L224.12045653333325,52.23038181965239L225.46030364444437,53.16634225018788L228.78079431111087,48.842196471756324L227.14967608888878,49.01067009451799L229.44489244444435,45.491436398006044L347.60775679999983,45.491436398006044L347.60775679999983,53.65304126823321L338.11231857777784,55.07569834368769L337.3433628444445,51.12594719044864L335.67729208888886,50.05894966435153L304.46467982222225,58.35154442850035L275.97836515555537,71.71686606330331L259.98175573333333,85.83071784337517L249.9620295111108,100.69306260882877L239.46461866666664,125.86860986764077L229.38663822222225,196.46848551393487L224.48163271111093,196.33747312915511L224.42337848888883,191.3964199279435L223.9456938666665,196.31875707255676L218.66786133333335,196.1315964841051L218.60960711111102,191.15310975036118L218.07366826666657,196.07544829929247L212.25989688888853,195.81342338921968L212.20164266666643,190.83493479853496L211.64240213333323,195.77599125250708L205.53735964444445,195.45781802514102L205.52570879999985,190.55419209518004L204.97811911111103,195.42038587271236L199.1759985777776,195.17707684310153L199.14104604444424,190.29216548858676L198.59345635555565,195.17707684310153L193.25736959999995,194.8963355687447L193.25736959999995,189.99270641151816L192.68647822222215,194.84018730325624L187.71156764444413,194.50329762964975L188.0843946666664,186.81094722112175ZM240.31513031111103,95.05887926730793L241.49186559999998,95.97607444028836L242.08605866666653,94.08552820875775L241.21224533333339,93.72988042945508ZM234.88583679999988,106.06515624863096L236.1324771555553,107.01977561961394L236.76162275555544,105.05438163224608L235.82955519999996,104.68002035922837Z"></path><path class="water" style="fill:lightblue;stroke:lightblue;stroke-width:1;stroke-linejoin:round;stroke-linecap:round" d="M91.60375182222197,144.38011810998432L105.04882631111104,135.18992510566022L111.17717048888903,136.94935872161295L115.55788799999982,140.31847679358907L114.35785102222212,151.41775496909395L111.25872640000011,154.71194801526144L112.3772074666665,156.4900582927512L110.23345208888895,159.9152497483883L106.42362595555551,163.82706360216253L92.3028024888888,165.4367042843951L91.60375182222197,157.31360284937546L105.04882631111104,156.19058734795544L107.16927999999984,153.25202312134206L110.79269262222238,154.22530666156672L112.44711253333344,151.324169753585L110.67618417777749,146.5325929946266L111.0490112,142.1902033056831L109.17322524444421,141.0671678914223L105.4333041777777,143.57527827983722L98.80397368888862,143.9496224814793L91.60375182222197,150.5006194137968Z"></path><path class="water" style="fill:lightblue;stroke:lightblue;stroke-width:1;stroke-linejoin:round;stroke-linecap:round" d="M118.40069404444421,279.507572898292L119.50752426666645,289.6693401307566L118.6220600888887,289.6880541392602Z"></path><path class="water" style="fill:lightblue;stroke:lightblue;stroke-width:1;stroke-linejoin:round;stroke-linecap:round" d="M234.04697599999986,201.98970343510155L235.68974506666655,200.5485754244728L237.11114808888897,202.28915830084588L235.38682311111097,203.61798799817916Z"></path><path class="water" style="fill:lightblue;stroke:lightblue;stroke-width:1;stroke-linejoin:round;stroke-linecap:round" d="M129.34083697777783,60.05497942015063L130.99525688888866,57.34071326442063L133.98952391111084,59.13774561637547L132.38170737777773,61.92688208038453Z"></path><path class="water" style="fill:lightblue;stroke:lightblue;stroke-width:1;stroke-linejoin:round;stroke-linecap:round" d="M137.5546823111108,57.95844356250018L139.20910222222187,55.2441707351245L142.20336924444427,57.04120750457514L140.59555271111117,59.83035082486458Z"></path></g><g><path class="riverbank" style="fill:lightblue;stroke:lightblue;stroke-width:1;stroke-linejoin:round;stroke-linecap:round" d="M603.6001109333333,81.80623484030366L578.0265073777778,77.44479693449102L573.6341390222221,75.16111668839585L567.7038592000001,74.52468012040481L566.6669340444444,75.87242758460343L560.5036373333332,74.09414923179429L559.6414748444445,72.24099205550738L507.7136611555554,52.47373163048178L506.3854648888887,49.927914789062925L503.60091306666664,52.04318961012177L496.3191352888887,51.96831271494739L456.46159644444447,48.037266482249834L455.24990862222194,49.08554724918213L418.57305031111105,47.775196089060046L418.50314524444434,49.53481004049536L414.1340785777777,49.53481004049536L407.57465315555555,47.49440629268065L383.00302222222217,47.21361640386749L372.93669262222215,47.6628801812185L372.4823096888888,49.647125701303594L347.60775679999983,53.65304126823321L347.60775679999983,45.491436398006044L603.6001109333333,45.491436398006044Z"></path><path class="water" style="fill:lightblue;stroke:lightblue;stroke-width:1;stroke-linejoin:round;stroke-linecap:round" d="M469.60374897777774,285.4399636873277L473.21551075555544,285.383821381256L473.2388124444444,286.86223421187606L469.6270506666665,286.9183764209738Z"></path></g><g><path class="water" style="fill:lightblue;stroke:lightblue;stroke-width:1;stroke-linejoin:round;stroke-linecap:round" d="M836.4888405333332,108.70439543272369L847.2891733333332,100.50588103558403L850.9358876444444,104.38053122279234L842.4890254222221,110.91311414609663Z"></path><path class="water" style="fill:lightblue;stroke:lightblue;stroke-width:1;stroke-linejoin:round;stroke-linecap:round" d="M829.9876693333334,123.43531803821679L831.6537400888888,119.76664954121225L833.1217464888888,120.47792323795147L834.4965461333334,117.87615604291204L836.2441728,118.88691546407063L833.3897159111109,122.29354024806526L834.3567359999998,125.5691281708423Z"></path><path class="riverbank" style="fill:lightblue;stroke:lightblue;stroke-width:1;stroke-linejoin:round;stroke-linecap:round" d="M612.2799900444444,45.491436398006044L604.1127480888888,81.88110911578406L603.6001109333333,81.80623484030366L603.6001109333333,45.491436398006044Z"></path><path class="riverbank" style="fill:lightblue;stroke:lightblue;stroke-width:1;stroke-linejoin:round;stroke-linecap:round" d="M604.1127480888888,81.88110911578406L612.2799900444444,45.491436398006044L652.8831829333333,52.36141634138767L653.5472810666666,49.197862969129346L680.6820977777776,53.44713017938193L702.5623836444444,63.293368428596295L703.5177528888889,61.0658073668601L705.6615082666665,61.83328704512678L711.4286762666667,67.4676898769103L760.2573653333334,85.02582276193425L758.5796437333332,88.71335911320057L760.3156195555555,90.67879075615201L768.774132622222,93.93578179331962L770.0207729777777,92.06394938402809L772.0946232888889,92.23241446935572L781.065773511111,95.93863792216871L780.8211057777778,98.10995327180717L783.5357525333334,95.67658224748448L786.8096398222222,98.1848261160776L789.768954311111,97.96020756301004L797.0973354666667,101.0112711887341L796.1070136888887,103.57565364649054L816.088211911111,116.32257904054131L814.9580799999998,118.41897143633105L827.6691512888889,124.5209414040437L828.4730595555554,122.85507049958687L848.3843527111111,131.57745960296597L850.9125859555554,126.82320707361214L849.5261354666667,131.9518090704223L859.604115911111,136.06964236753993L859.604115911111,187.18527244776487L845.0172586666667,182.22544986300636L843.0249642666666,187.20398870494682L839.9957447111111,185.931282292353L840.6714936888887,184.26553132361732L823.9175793777777,174.15865794708952L815.2610019555556,173.12924745725468L804.5771776,168.84314315288793L799.7420771555555,164.08909833885264L801.85088,161.24414546205662L791.0505471999999,149.62091703608166L780.2502143999999,141.72227206244133L767.7838108444444,136.16322925675195L766.9799025777776,137.58574871043675L750.5755136,130.0800600902876L742.6995427555554,128.33932985295542L699.4399573333333,105.54105104145128L682.4297244444443,98.12867148360237L643.9469852444444,87.88974831625819L644.5062257777778,85.88687328598462L637.0147327999999,84.87607475626282L636.886573511111,87.04741826932877L624.2454072888888,86.93510753288865ZM741.8723328,111.08157550846227L743.3636408888889,113.51490258215927L747.5928974222221,115.38668791472446L750.6570695111111,114.69412782043219L748.7113784888887,111.84901018079836L744.7733930666667,110.29542220046278ZM747.301626311111,98.37200819887221L748.3968056888888,100.43100839492399L753.0571434666665,102.49000361992512L756.0980138666667,101.8723055741284L754.8164209777777,99.47638164891396L750.2026865777777,97.4548156018136Z"></path><path class="water" style="fill:lightblue;stroke:lightblue;stroke-width:1;stroke-linejoin:round;stroke-linecap:round" d="M806.3947093333331,183.1425513071008L810.8220302222221,177.02228422963526L815.3891612444445,177.9019583464833L815.2610019555556,178.95007951417938L811.5094300444443,178.76291511463933L808.8879900444443,182.63720981706865L812.6978161777777,184.02221911249217L816.9503743999999,183.83505582541693L817.7659335111111,179.90461731492542L816.0183068444444,177.9581077276962L819.7698787555555,178.70676578697748L818.5115875555555,185.8938497217605Z"></path><path class="basin" style="fill:lightblue;stroke:lightblue;stroke-width:1;stroke-linejoin:round;stroke-linecap:round" d="M854.4311409777777,99.98177241208032L856.9710250666667,96.98685981542803L859.604115911111,96.81839566922281L859.604115911111,98.59662664344069Z"></path></g><g><path class="water" style="fill:lightblue;stroke:lightblue;stroke-width:1;stroke-linejoin:round;stroke-linecap:round" d="M1054.2664248888889,254.84185903519392L1063.2725276444444,250.51873557420913L1071.6378339555554,254.52370783884544L1080.6322858666667,272.5458503345726L1063.2725276444444,278.4034325196408Z"></path><path class="basin" style="fill:lightblue;stroke:lightblue;stroke-width:1;stroke-linejoin:round;stroke-linecap:round" d="M859.604115911111,96.81839566922281L898.1800618666667,95.30221685837023L899.7995292444444,92.00779434852302L900.9762645333333,92.49447120167315L900.3820714666666,95.20862548542209L919.5360597333332,94.47861242387444L919.5710122666667,95.86376488069072L859.604115911111,98.59662664344069Z"></path><path class="riverbank" style="fill:lightblue;stroke:lightblue;stroke-width:1;stroke-linejoin:round;stroke-linecap:round" d="M1064.5541205333334,52.34269712562673L1072.9427285333331,45.491436398006044L1115.6081208888888,45.491436398006044L1115.6081208888888,76.9019554631086L1110.5866069333333,79.2605055536842L1101.3125347555556,88.32027224090416L1102.2912056888888,95.43324476317503L1099.1687793777778,98.87739961594343Z"></path><path class="water" style="fill:lightblue;stroke:lightblue;stroke-width:1;stroke-linejoin:round;stroke-linecap:round" d="M1073.094189511111,142.7517204581527L1075.6457244444446,141.90944459056482L1078.0457984,146.30798717366997L1085.9800234666666,145.27854307019152L1094.6366008888888,150.05140980216675L1100.042592711111,156.84567990340292L1095.790034488889,156.90183067077305L1086.6091690666667,167.27094228903297L1087.9839687111112,172.34315133735072L1086.4693589333333,173.27897996956017L1084.523667911111,173.09181432507467Z"></path><path class="water" style="fill:lightblue;stroke:lightblue;stroke-width:1;stroke-linejoin:round;stroke-linecap:round" d="M891.7138432,149.15298986970447L894.1721713777778,147.29999576986302L895.9197980444444,147.86150955897756L897.2479943111109,150.9685458408203Z"></path><path class="basin" style="fill:lightblue;stroke:lightblue;stroke-width:1;stroke-linejoin:round;stroke-linecap:round" d="M940.3095153777778,68.0479750976665L943.8280703999999,67.37409544980619L948.4884081777777,67.24306323402561L940.344467911111,69.09623126999941Z"></path><path class="riverbank" style="fill:lightblue;stroke:lightblue;stroke-width:1;stroke-linejoin:round;stroke-linecap:round" d="M859.604115911111,136.06964236753993L897.2479943111109,150.9685458408203L901.8151253333333,151.9418319866527L902.4792234666666,149.99525858426932L907.9201678222222,152.3723235813668L908.7939811555556,149.80808783089742L909.8891605333333,150.18242929654662L908.8405845333333,153.30817412491888L918.9884700444444,156.35903976717964L919.6525681777778,154.24402364203706L923.1594723555554,155.030136442394L923.1128689777777,156.3964736337075L935.0899370666666,156.24673815781716L946.7640832,152.91511702199932L960.6751914666667,145.93364400649443L972.0464156444444,137.62318340095226L982.4739214222222,125.9434802752221L981.2039793777776,124.72683533513919L1010.4475989333333,99.19560887361877L1009.0611484444444,97.13660569500644L1013.0573880888887,93.24320428073406L1014.6419029333333,94.85297817445826L1017.9157902222221,93.44910576206166L1037.4892088888887,74.89905463007744L1040.0290929777777,67.18690656428225L1046.5768675555555,66.96227984700818L1051.9479068444443,62.35741911153309L1048.138080711111,61.402749749599025L1048.8254805333331,58.07075811398681L1055.3383025777775,59.43725064047612L1060.2316572444445,55.59983456286136L1059.777274311111,54.1958975372836L1064.5541205333334,52.34269712562673L1094.8230144,94.44117583951447L1085.3275761777777,103.31360031873919L1089.114100622222,107.60003393085208L1090.9898865777777,112.82234096806496L1089.9995648,113.68336343055125L1086.5159623111113,110.03337093733717L1083.1954716444443,112.95336618099827L1079.805075911111,108.83542127883993L1073.4786673777776,113.4587489584228L1068.6785194666666,120.15972192084882L1071.987359288889,131.70848193520214L1070.868878222222,132.5882027875632L1069.4358243555555,132.71922496450134L1067.2571164444444,127.0478180256905L1061.3268366222221,124.35248269652948L1056.002400711111,129.2939242940629L1059.194732088889,133.86098879820202L1036.7202531555554,154.63708013296127L1018.3468714666666,166.1292231780244L1003.2473770666667,173.6158780255355L998.8433578666666,174.364539896138L987.4371811555554,182.88052242365666L960.1742051555556,193.13702148047742L942.965907911111,195.532682324294L902.4442709333332,195.77599125250708L890.7118705777777,197.2171273266431L890.5837112888888,198.3213728008559L873.4103665777777,193.88566621718928L871.6627399111111,194.91505165665876L872.7229667555554,191.65844619530253L859.604115911111,187.18527244776487ZM1056.8878648888888,122.01277498377021L1057.3305969777778,122.46199936256744L1057.8082816,122.05021035764366L1057.365549511111,121.54483267094474Z"></path><path class="basin" style="fill:lightblue;stroke:lightblue;stroke-width:1;stroke-linejoin:round;stroke-linecap:round" d="M951.459373511111,67.1120309982216L964.7529870222222,66.53174514079001L965.0908615111111,66.83124756836332L951.4710243555554,67.69231646088883Z"></path><path class="water" style="fill:lightblue;stroke:lightblue;stroke-width:1;stroke-linejoin:round;stroke-linecap:round" d="M1069.4358243555555,132.71922496450134L1071.987359288889,131.70848193520214L1075.6457244444446,141.90944459056482L1074.4456874666666,142.77043769019656L1073.094189511111,142.7517204581527Z"></path><path class="riverbank" style="fill:lightblue;stroke:lightblue;stroke-width:1;stroke-linejoin:round;stroke-linecap:round" d="M1064.5774222222221,250.51873557420913L1068.713472,239.17745041300077L1075.7272803555556,235.54671009874437L1086.8771384888887,220.93001671636011L1076.9040156444444,235.75257723068353L1069.7736988444444,239.36460155714303Z"></path><path class="basin" style="fill:lightblue;stroke:lightblue;stroke-width:1;stroke-linejoin:round;stroke-linecap:round" d="M899.7995292444444,92.00779434852302L908.5143608888889,69.97601670527365L922.4021674666667,68.72185421362519L922.1225472,70.79964480130002L909.3299199999999,71.26761495647952L900.9762645333333,92.49447120167315Z"></path><path class="basin" style="fill:lightblue;stroke:lightblue;stroke-width:1;stroke-linejoin:round;stroke-linecap:round" d="M922.4021674666667,68.72185421362519L928.9848945777777,68.5159467626363L928.9848945777777,70.25679910019971L922.4604216888888,69.91986021550838Z"></path></g><g><path class="water" style="fill:lightblue;stroke:lightblue;stroke-width:1;stroke-linejoin:round;stroke-linecap:round" d="M1232.792314311111,133.50535760412458L1236.334171022222,131.72719940973911L1248.9636864,130.86619516229257L1250.7462656,132.75665986863896L1250.408391111111,133.93585850461386L1241.1925731555555,135.43325124750845L1233.8292394666666,135.0776207090821Z"></path><path class="riverbank" style="fill:lightblue;stroke:lightblue;stroke-width:1;stroke-linejoin:round;stroke-linecap:round" d="M1231.1611960888888,45.491436398006044L1238.9672618666666,49.10426653700415L1239.5498040888888,47.83135403692722L1241.1459697777777,48.37421401159372L1240.3537123555554,50.452054171357304L1242.5790236444445,53.016588650178164L1247.4374257777777,55.31904734263662L1259.216429511111,55.93677910498809L1259.9038293333333,62.39485710358713L1273.5935715555556,74.18774292175658L1277.3218417777778,70.05089201999363L1279.3257870222221,70.87452004349325L1289.9164046222222,88.09565108979587L1296.3243690666666,101.98461434338242L1297.8273279999999,108.79798532475252L1303.0236046222221,115.89206925034523L1310.4218908444443,141.1981887659058L1313.6258730666666,144.19294612435624L1313.427808711111,146.2892700190423L1326.3951985777776,149.86423906113487L1326.2087850666667,151.23058452783152L1315.420103111111,149.60219995433L1312.6122495999998,150.4631852884777L1308.2315320888888,168.4313765403349L1307.9053084444445,249.7888554255478L1303.303224888889,301.4965116158128L1247.2510122666665,301.4965116158128L1248.5908593777779,289.7816241752589L1230.6252572444444,294.8905325696105L1229.1106474666667,291.0354616694385L1246.318944711111,285.7581033529714L1248.8588287999999,283.47498077200726L1247.8335544888887,267.0438035959378L1244.2800469333333,266.6695134128677L1243.8373148444443,264.74191636941396L1244.6761756444444,252.07206817076076L1246.7034225777777,247.76764560083393L1244.8975416888889,247.26234239607584L1248.5792085333333,247.65535602567252L1250.0006115555555,230.54973810527008L1250.303533511111,221.73478355875704L1248.4627000888888,221.6786370598711L1246.1674837333333,207.13656931114383L1251.0258858666666,207.3424433004111L1252.9133226666665,177.63992785313167L1249.8724522666666,135.05890330811962L1251.561824711111,132.4197456735419L1249.5928319999998,130.37954020337202L1251.456967111111,127.53447488578968L1242.8935964444445,127.62806271191221L1242.9518506666666,125.5129753408255L1244.7344298666667,125.45682250743266L1244.3383011555557,123.13583548692986L1239.8643768888887,123.69736518373247L1239.7711701333333,121.88175116234925L1244.6528739555556,120.12228646373842L1233.6894293333332,95.95735618157778L1223.879418311111,86.09277654322796L1211.5761265777778,79.59744074882474L1210.0032625777776,80.87030583876185L1210.7605674666665,79.12947516399436L1206.3915008,77.16401690640487L1198.9699128888888,75.70395926828496L1194.3794801777776,89.44337710936088L1192.9347754666667,89.05029057362117L1196.3368220444445,74.69314867001958L1178.3246165333333,70.48142494959757L1147.5314346666667,68.983918169979L1115.6081208888888,76.9019554631086L1115.6081208888888,45.491436398006044Z"></path><path class="water" style="fill:lightblue;stroke:lightblue;stroke-width:1;stroke-linejoin:round;stroke-linecap:round" d="M1359.8680746666666,109.90234527538996L1361.5224945777777,108.53593360097148L1362.606023111111,109.9210632283939L1361.394335288889,111.2500368374167Z"></path><path class="water" style="fill:lightblue;stroke:lightblue;stroke-width:1;stroke-linejoin:round;stroke-linecap:round" d="M1157.7608760888888,177.92067480727565L1158.1919573333332,176.27362469176296L1165.368877511111,182.31903168803547L1163.1319153777777,182.31903168803547Z"></path><path class="water" style="fill:lightblue;stroke:lightblue;stroke-width:1;stroke-linejoin:round;stroke-linecap:round" d="M1170.1690254222221,211.08559807331767L1170.1923271111111,209.23273851373233L1177.2760405333333,198.9577170012053L1173.7108821333334,197.31070750695653L1173.4196110222222,194.42843324004207L1179.4780501333332,191.1905420902185L1178.8489045333333,184.67729029268958L1180.2819584,183.34843108733185L1181.283931022222,185.61310539208353L1180.2353550222222,192.21993078233209L1176.169210311111,193.79208566062152L1174.910919111111,196.09416436124593L1177.9750912,199.40690085664392Z"></path><path class="water" style="fill:lightblue;stroke:lightblue;stroke-width:1;stroke-linejoin:round;stroke-linecap:round" d="M1184.7209301333332,101.47922476695385L1185.6180451555556,97.77302539034281L1191.2221013333333,96.20069351606071L1191.9794062222222,93.74859873729292L1193.5289685333332,94.17911970522255L1192.8998229333333,96.46274902962614L1189.5793322666666,98.31585357815493L1190.0803185777777,102.09692309703678L1193.7037312,103.7253983693663L1192.3871857777776,105.33515247923788Z"></path><path class="water" style="fill:lightblue;stroke:lightblue;stroke-width:1;stroke-linejoin:round;stroke-linecap:round" d="M1169.9127068444443,159.35374389472418L1171.9632554666666,157.7815255386522L1173.0700856888889,160.40188785560895L1180.7130396444445,163.26556032407098L1182.355808711111,169.36720946396235L1178.4061724444443,169.8164089025231L1175.6798748444444,168.24420983262826L1175.2138410666666,162.83507422695402L1170.9962353777778,163.86449714086484ZM1176.5536881777778,164.23883243801538L1176.8682609777777,165.06236951297615L1177.532359111111,165.00621928297915L1177.3925489777778,163.80834683205467Z"></path></g><g><path class="riverbank" style="fill:lightblue;stroke:lightblue;stroke-width:1;stroke-linejoin:round;stroke-linecap:round" d="M-117.66871608888891,481.1295897131786L-71.7061347555557,478.4727926844498L-35.157435733333614,485.76960975234397L-13.079085511111089,492.22443436819594L11.457592888888712,494.6379649413284L44.138211555555245,489.642510382575L43.52071679999972,487.45348175184336L55.45118151111092,484.7592849576613L56.34829653333304,487.6592881017132L59.19110257777788,487.1354172952706L59.72704142222233,485.73219033691566L75.71199999999976,480.13796925428323L91.60375182222197,471.84947392647155L91.60375182222197,511.3266871876549L82.45783893333328,516.2658876685891L82.00345599999991,515.2930171085754L76.56251164444438,517.556810353999L75.8984135111109,516.2471786297392L67.32339199999979,519.5025452030823L63.956297955555556,520.9992612981005L62.31352888888864,523.8055968993576L34.63112248888888,531.4949091501767L32.95340088888884,533.5528641769197L33.1747669333331,537.7248850441538L28.246459733333268,537.8745535751805L27.827029333333257,532.243257007096L-5.482734933333404,532.3180917564314L-79.18597688888894,516.4155599641381L-113.54431715555552,516.7149044766556Z"></path><path class="riverbank" style="fill:lightblue;stroke:lightblue;stroke-width:1;stroke-linejoin:round;stroke-linecap:round" d="M-164.4002531555559,489.5676718894392L-117.66871608888891,481.1295897131786L-116.72499768888883,489.1186407940695L-121.39698631111128,490.1476700376952L-116.60848924444463,490.128960426664L-114.60454400000026,507.0609910337953L-119.3697393777777,508.1087078542914L-114.4880355555556,508.0525801999029L-113.54431715555552,516.7149044766556L-164.4002531555559,528.5015111591201Z"></path><path class="water" style="fill:lightblue;stroke:lightblue;stroke-width:1;stroke-linejoin:round;stroke-linecap:round" d="M-115.15213368888885,450.6694767351728L-112.83361564444454,445.149868128472L-111.48211768888905,445.9170023089973L-111.06268728888881,455.81484242726583Z"></path></g><g><path class="riverbank" style="fill:lightblue;stroke:lightblue;stroke-width:1;stroke-linejoin:round;stroke-linecap:round" d="M91.60375182222197,471.84947392647155L98.85057706666657,466.273871946265L129.81852159999994,432.4265664918348L132.59142257777785,428.70309379766695L130.96030435555554,427.58043552574236L144.25391786666637,405.89412999746855L149.54340124444434,400.95429047674406L158.14172444444466,384.20727317547426L166.20410879999986,367.3663655887358L171.9246734222222,346.91357186972164L175.2684657777777,301.4965116158128L215.98816711111112,301.4965116158128L207.65781333333325,350.0011705082143L194.44575573333327,393.28251330181956L186.59308657777774,406.8109910035273L178.53070222222232,435.12092855747323L176.7364721777776,437.2913806999568L173.31112391111083,435.40159078338183L161.05443555555576,453.8689623234095L163.5710179555556,455.7400009671692L148.18025244444425,474.7121010548435L137.48477724444433,484.347670809133L120.74251377777773,494.8063505406026L105.2119381333332,500.812081845128L91.60375182222197,511.3266871876549Z"></path></g><g></g><g><path class="water" style="fill:lightblue;stroke:lightblue;stroke-width:1;stroke-linejoin:round;stroke-linecap:round" d="M682.1268024888889,502.0468998645665L714.3646890666666,468.8371565765701L724.3145102222221,468.8558666551253L731.3749219555555,474.15080237493385L732.5633080888888,479.2211870503379L731.3865727999998,483.6554102029186L721.4600533333332,485.9567068053875L714.6909127111111,494.8811885737814L703.7857223111109,496.3966573374346L700.1390079999999,501.5417472543195L684.7831950222221,505.3210298992926ZM710.4616561777777,484.17928314604796L711.0908017777778,485.9192873984575L712.2209336888887,485.6012223698199L711.6966456888888,483.7676687176572Z"></path></g><g><path class="water" style="fill:lightblue;stroke:lightblue;stroke-width:1;stroke-linejoin:round;stroke-linecap:round" d="M974.7028081777778,314.4837546958588L979.8641322666666,305.74452210683376L983.6739584,306.62406348541845L985.4099342222222,311.2837463003816L983.5807516444444,314.03463143494446L991.724691911111,318.67556039756164L993.7635896888888,321.538701559999L988.4391537777777,333.4402833923232L982.2409045333333,332.9350309347501ZM978.2213631999999,315.4007139529567L981.157376,318.6007069051266L981.1107726222222,321.5199882503366L983.9302769777778,321.48256162926555L985.3749816888889,316.4486661833944L980.5631829333332,313.75392927625217ZM981.6117589333332,325.3000684818253L984.1283413333333,329.0052793825744L987.0410524444444,328.64972953975666L986.9128931555555,323.22289775451645ZM980.4466744888889,309.01940562203526L981.7865215999999,311.3960274999263L983.0331619555556,311.0030432365602L982.5787790222221,308.2895755273057Z"></path></g><g><path class="riverbank" style="fill:lightblue;stroke:lightblue;stroke-width:1;stroke-linejoin:round;stroke-linecap:round" d="M1303.303224888889,301.4965116158128L1302.6158250666667,307.2603268965613L1304.3284992,316.0182573873317L1321.0358101333331,319.23696138325613L1320.977555911111,323.31646411214024L1313.7540323555554,323.8030090071261L1308.7441692444445,326.1421632816782L1308.2431829333332,327.82635038753506L1319.7425664,363.77359560865443L1330.5312483555556,389.33432791533414L1357.3048888888889,425.80289023998193L1371.6004750222223,438.61984437319916L1371.6004750222223,499.4462961968966L1366.2410865777777,495.9663393202936L1364.388602311111,499.0159797180677L1362.9555484444445,498.3237310135737L1364.4468565333332,494.8998980810866L1339.9101781333334,478.1921446269844L1339.5257002666667,479.2960264508147L1306.5305088,447.39513695507776L1292.3281294222222,429.4889537092531L1293.2368952888887,428.77793763019145L1288.4600490666667,421.72387758328114L1285.5007345777776,424.193740787101L1284.6735246222222,423.2768984626746L1287.9707136,420.6199212629581L1278.428672,403.48034835071303L1277.3334926222221,404.07911652792245L1277.927685688889,402.4886376330396L1268.9332337777778,385.87263375066686L1251.8414449777777,343.84467487584334L1247.9267612444444,319.92935542261694L1246.4005006222221,318.4884266539011L1240.0274887111111,318.8626941005932L1247.052947911111,314.63346239726525L1247.2510122666665,301.4965116158128Z"></path><path class="water" style="fill:lightblue;stroke:lightblue;stroke-width:1;stroke-linejoin:round;stroke-linecap:round" d="M1144.5837710222222,510.9150858570356L1148.323692088889,510.6905759565998L1154.754958222222,518.3051704366226L1148.358644622222,518.9786939494079ZM1147.647943111111,516.1723424707307L1150.0480170666667,515.9852520441636L1150.1412238222222,514.4885271526873L1148.3469937777777,513.9085455517052Z"></path></g><g><path class="water" style="fill:lightblue;stroke:lightblue;stroke-width:1;stroke-linejoin:round;stroke-linecap:round" d="M-164.4002531555559,612.4623407754116L-164.4002531555559,607.0186069867341L-162.86234168888927,609.5253478228115L-160.15934577777807,610.1426783909556L-157.60781084444466,607.6172323337523L-151.59597511111156,606.2516176480567L-149.52212480000026,602.3418320091441L-150.6872092444446,600.2092141094618L-154.98637084444454,598.3571995039238L-164.4002531555559,599.292560918373L-164.4002531555559,597.0851063342998L-155.42910293333352,594.5034996607574L-154.48538453333344,592.988205148722L-157.00196693333328,589.5460446531652L-163.20021617777797,590.4065860790433L-164.4002531555559,583.8402588953031L-160.9049998222224,583.7093059874605L-156.80390257777776,586.5154353296384L-146.6327153777779,583.6531833066838L-139.4557952,587.9372040069429L-138.7450936888888,592.4269842765061L-133.75853226666686,597.1786426611943L-139.37423928888893,600.6581867417553L-138.57033102222226,611.6953563302523L-130.5079466666666,615.4554442114895L-131.84779377777795,618.8226730271708L-145.71229866666704,628.1947232637322L-151.36295822222223,627.3529265521793L-154.6601472000002,633.1145407675067L-161.1962709333336,633.0210083794082L-164.4002531555559,636.6126447021961L-164.4002531555559,619.6831849253504L-162.41960960000006,622.6762630312005L-158.15540053333325,623.4619442943949L-151.537720888889,619.8702526149573L-152.70280533333334,615.1935480802786L-150.78041600000006,613.4538074517623L-148.74151822222234,612.7055308214622L-147.5647829333334,615.3432030221447L-144.0811804444445,616.9145783297718L-141.69275733333347,614.894238117151L-143.82486186666688,610.2923342185095L-142.89279431111117,606.7380012113135L-144.6637226666669,605.0917788015213L-152.08531057777805,609.0389658482745L-158.73794275555565,615.0813068560092L-164.4002531555559,615.3057892889483Z"></path></g><g><path class="water" style="fill:lightblue;stroke:lightblue;stroke-width:1;stroke-linejoin:round;stroke-linecap:round" d="M275.4657279999999,806.468554282561L275.9550634666666,804.8975280093728L280.8717198222221,803.2329851109535L281.24454684444436,805.3089875509031L283.66792248888896,805.7391495871125L279.7998421333332,805.6269334242679L277.1084970666666,808.2453067025635ZM276.4210972444441,806.1880140890134L277.3182122666667,807.4972008714685L278.40174079999997,806.0383926145732L277.35316480000006,805.4960145495133Z"></path></g><g></g><g></g><g><path class="water" style="fill:lightblue;stroke:lightblue;stroke-width:1;stroke-linejoin:round;stroke-linecap:round" d="M1097.0133731555557,787.1484707344789L1098.621189688889,786.0636902473634L1101.405741511111,789.6172763580689L1100.4969756444443,793.9563719633734L1098.0619491555556,793.0586298549315L1100.0775452444445,789.8417128786677L1097.1648341333334,789.280621465994Z"></path></g><g><path class="water" style="fill:lightblue;stroke:lightblue;stroke-width:1;stroke-linejoin:round;stroke-linecap:round" d="M1362.5594197333332,659.9392064027488L1366.4508017777778,660.0327358394861L1371.6004750222223,655.8987249395577L1371.6004750222223,659.546382655506L1367.056645688889,661.3421468799934ZM1371.6004750222223,672.0979472401086L1363.2118670222221,670.8446696549654L1363.2817720888888,669.3856277593877L1368.606208,668.3194032580359L1368.582906311111,666.9164742527064L1363.6895516444445,668.094934772118L1363.235168711111,666.486242229119L1371.6004750222223,665.7941293874756Z"></path></g><text class="place-label" transform="translate(470.456590791111,68.82480792072602)" dy="1em">24642569	Tate Modern</text><text class="place-label" transform="translate(140.7178865777778,375.4687548484653)" dy="1em">24553580 Tate Britain</text><text class="place-label" transform="translate(362.3623862044442,288.0487054408295)" dy="1em">8614496 Imperial War Museum</text><path class="center" style="fill:orange" d="M470.456590791111,68.82480792072602m0,4.5a4.5,4.5 0 1,1 0,-9a4.5,4.5 0 1,1 0,9z"></path><path class="center" style="fill:orange" d="M140.7178865777778,375.4687548484653m0,4.5a4.5,4.5 0 1,1 0,-9a4.5,4.5 0 1,1 0,9z"></path><path class="center" style="fill:orange" d="M362.3623862044442,288.0487054408295m0,4.5a4.5,4.5 0 1,1 0,-9a4.5,4.5 0 1,1 0,9z"></path></svg>
