<svg xmlns="http://www.w3.org/2000/svg" version="1.1" width="960" height="500"><g><path class="path" style="fill:none; stroke:#ccc; stroke-linejoin:round; stroke-linecap:round;" d="M-22.73859811555667,-29.950627399608493L-18.73070762666248,-33.36579090543091L-2.5127321600011783,-47.41590237058699L-7.5645383111113915,-59.488824212923646"></path><path class="path" style="fill:none; stroke:#ccc; stroke-linejoin:round; stroke-linecap:round;" d="M-10.379382328887004,-102.80763419531286L11.63605333333544,-76.2051951661706"></path><path class="path" style="fill:none; stroke:#ccc; stroke-linejoin:round; stroke-linecap:round;" d="M43.19586076444466,-102.80763419531286L44.44483128888896,-101.48949410021305"></path><path class="minor_road" style="fill:none; stroke:#ccc; stroke-linejoin:round; stroke-linecap:round;" d="M-7.5645383111113915,-59.488824212923646L11.63605333333544,-76.2051951661706L44.44483128888896,-101.48949410021305L54.54844359110939,-90.85450483858585L96.95751736888997,-45.31886989623308L109.39129856000363,-34.92358506470919L115.85984739555715,-22.82072740420699L119.10344248889305,-10.388347670435905L117.72398250666811,16.36369850113988L114.57359416888721,34.24829586409032L107.50852209778168,47.84896224550903L25.057826133335766,132.08891103602946L0.022491591109428555,153.4184314813465"></path><path class="minor_road" style="fill:none; stroke:#ccc; stroke-linejoin:round; stroke-linecap:round;" d="M96.95751736888997,-45.31886989623308L164.79339406222425,-99.3924533072859"></path><path class="minor_road" style="fill:none; stroke:#ccc; stroke-linejoin:round; stroke-linecap:round;" d="M54.54844359110939,-90.85450483858585L70.22581987555532,-102.80763419531286"></path></g><g><path class="path" style="fill:none; stroke:#ccc; stroke-linejoin:round; stroke-linecap:round;" d="M347.3108627911133,143.8021770939231L409.2001484800021,134.72514570318162"></path><path class="path" style="fill:none; stroke:#ccc; stroke-linejoin:round; stroke-linecap:round;" d="M316.4780680533331,-102.80763419531286L316.38486129778175,-101.54940955527127"></path><path class="minor_road" style="fill:none; stroke:#ccc; stroke-linejoin:round; stroke-linecap:round;" d="M309.65533354666695,26.788893783465028L330.8132670577761,23.793148834258318L342.74373176889276,23.52353174611926L353.55571541333484,24.212553165853024L368.30102414222347,27.957234136760235L452.7090619733317,57.73490067012608"></path><path class="minor_road" style="fill:none; stroke:#ccc; stroke-linejoin:round; stroke-linecap:round;" d="M313.38360376888886,56.626477628946304L254.29052074666834,61.869018252938986"></path><path class="major_road" style="fill:none; stroke:#ccc; stroke-linejoin:round; stroke-linecap:round;" d="M347.3108627911133,143.8021770939231L348.5225506133356,153.4184314813465"></path><path class="major_road" style="fill:none; stroke:#ccc; stroke-linejoin:round; stroke-linecap:round;" d="M316.38486129778175,-101.54940955527127L320.48595854222003,-59.63861239515245"></path><path class="major_road" style="fill:none; stroke:#ccc; stroke-linejoin:round; stroke-linecap:round;" d="M320.48595854222003,-59.63861239515245L324.1210220088906,-28.15317326784134L330.8132670577761,23.793148834258318L342.18449123555547,105.21726266853511L347.3108627911133,143.8021770939231"></path><path class="major_road" style="fill:none; stroke:#ccc; stroke-linejoin:round; stroke-linecap:round;" d="M316.1984477866681,-102.80763419531286L316.38486129778175,-101.54940955527127"></path><path class="major_road" style="fill:none; stroke:#ccc; stroke-linejoin:round; stroke-linecap:round;" d="M326.8426592711148,153.4184314813465L326.5443976533352,150.60245737805963L313.38360376888886,56.626477628946304L309.65533354666695,26.788893783465028L302.9817298488924,-26.83504038490355L292.3748010666677,-102.80763419531286"></path><path class="path" style="fill:none; stroke:#ccc; stroke-linejoin:round; stroke-linecap:round;" d="M369.7923322311108,-30.250203110277653L324.1210220088906,-28.15317326784134L302.9817298488924,-26.83504038490355"></path><path class="path" style="fill:none; stroke:#ccc; stroke-linejoin:round; stroke-linecap:round;" d="M369.9601043911098,153.4184314813465L366.3250409244465,125.16879259981215L405.56508501333155,120.58533560298383L436.60293461333276,33.58923238888383L356.9857240177771,4.500535564497113L369.7923322311108,-30.250203110277653L397.4374559288917,-102.80763419531286"></path></g><g><path class="path" style="fill:none; stroke:#ccc; stroke-linejoin:round; stroke-linecap:round;" d="M647.2129194666668,20.587700994685292L668.4454183822236,-42.92226173914969"></path><path class="path" style="fill:none; stroke:#ccc; stroke-linejoin:round; stroke-linecap:round;" d="M668.4454183822236,-42.92226173914969L505.33359616000234,-102.80763419531286"></path><path class="path" style="fill:none; stroke:#ccc; stroke-linejoin:round; stroke-linecap:round;" d="M745.2477849600036,57.3154973667115L647.2129194666668,20.587700994685292"></path></g><g><path class="path" style="fill:none; stroke:#ccc; stroke-linejoin:round; stroke-linecap:round;" d="M998.5091811555576,141.34568734653294L1001.2494597688892,142.48406069725752"></path><path class="path" style="fill:none; stroke:#ccc; stroke-linejoin:round; stroke-linecap:round;" d="M999.6090208711103,23.643361564725637L992.8794931200027,41.4680345505476"></path><path class="path" style="fill:none; stroke:#ccc; stroke-linejoin:round; stroke-linecap:round;" d="M992.8794931200027,41.4680345505476L997.6889617066699,43.235521864145994L996.8314595555566,45.7819014955312"></path><path class="path" style="fill:none; stroke:#ccc; stroke-linejoin:round; stroke-linecap:round;" d="M986.4295856355566,38.41237798333168L992.7117209600001,21.276722555980086L999.6090208711103,23.643361564725637"></path><path class="path" style="fill:none; stroke:#ccc; stroke-linejoin:round; stroke-linecap:round;" d="M845.4077644799981,11.390757717192173L840.7660680533336,23.313829574733973"></path><path class="minor_road" style="fill:none; stroke:#ccc; stroke-linejoin:round; stroke-linecap:round;" d="M890.445268764448,153.4184314813465L834.2602365155544,134.42557361349463L767.7851784533341,112.49687832593918"></path><path class="minor_road" style="fill:none; stroke:#ccc; stroke-linejoin:round; stroke-linecap:round;" d="M834.2602365155544,134.42557361349463L827.4561433599993,153.4184314813465"></path><path class="path" style="fill:none; stroke:#ccc; stroke-linejoin:round; stroke-linecap:round;" d="M840.7660680533336,23.313829574733973L832.1910465422225,45.93168851360679"></path><path class="path" style="fill:none; stroke:#ccc; stroke-linejoin:round; stroke-linecap:round;" d="M832.1910465422225,45.93168851360679L815.8052989155549,83.85770954936743"></path><path class="path" style="fill:none; stroke:#ccc; stroke-linejoin:round; stroke-linecap:round;" d="M994.0911809422214,153.4184314813465L994.8554763377797,150.69232889823616"></path><path class="path" style="fill:none; stroke:#ccc; stroke-linejoin:round; stroke-linecap:round;" d="M994.8554763377797,150.69232889823616L998.5091811555576,141.34568734653294L1001.2494597688892,133.85638660937548"></path><path class="path" style="fill:none; stroke:#ccc; stroke-linejoin:round; stroke-linecap:round;" d="M994.8554763377797,150.69232889823616L815.8052989155549,83.85770954936743L777.8701494044435,69.53810261562467"></path><path class="path" style="fill:none; stroke:#ccc; stroke-linejoin:round; stroke-linecap:round;" d="M777.8701494044435,69.53810261562467L745.2477849600036,57.3154973667115"></path></g><g><path class="path" style="fill:none; stroke:#ccc; stroke-linejoin:round; stroke-linecap:round;" d="M122.01149326222367,227.32256534136832L69.16326286222466,268.90282624959946"></path><path class="minor_road" style="fill:none; stroke:#ccc; stroke-linejoin:round; stroke-linecap:round;" d="M0.9918418488887255,243.8588226083666L79.86339840000073,176.30568881332874L122.01149326222367,227.32256534136832L181.2164243911102,300.4174640830606"></path><path class="minor_road" style="fill:none; stroke:#ccc; stroke-linejoin:round; stroke-linecap:round;" d="M0.022491591109428555,153.4184314813465L-2.9787659377761884,155.96479054167867L-16.922496568888164,164.17305063270032L-22.73859811555667,164.29287921637297"></path><path class="minor_road" style="fill:none; stroke:#ccc; stroke-linejoin:round; stroke-linecap:round;" d="M-22.73859811555667,269.2023954000324L-13.231509048888256,255.36229410022497L0.9918418488887255,243.8588226083666L-22.73859811555667,186.01179157942533"></path><path class="minor_road" style="fill:none; stroke:#ccc; stroke-linejoin:round; stroke-linecap:round;" d="M51.41669660444677,403.7382329348475L-22.73859811555667,325.8508021887392"></path><path class="major_road" style="fill:none; stroke:#ccc; stroke-linejoin:round; stroke-linecap:round;" d="M47.44608881777822,408.77094393223524L51.41669660444677,403.7382329348475"></path><path class="major_road" style="fill:none; stroke:#ccc; stroke-linejoin:round; stroke-linecap:round;" d="M51.41669660444677,403.7382329348475L78.83812408888843,380.3720503952354L136.4212576711143,337.1744639724493L181.2164243911102,300.4174640830606L233.2444353422252,292.53881145082414"></path></g><g><path class="major_road" style="fill:none; stroke:#ccc; stroke-linejoin:round; stroke-linecap:round;" d="M489.26475150222177,359.64201905205846L456.0458638222226,358.7433175612241L421.2611026488885,359.6719757672399"></path><path class="major_road" style="fill:none; stroke:#ccc; stroke-linejoin:round; stroke-linecap:round;" d="M426.0892125866667,284.03105976991355L441.468327253333,303.2633641157299L453.547922773334,316.47432381659746"></path><path class="major_road" style="fill:none; stroke:#ccc; stroke-linejoin:round; stroke-linecap:round;" d="M357.0789307733321,233.28400821983814L364.74052608000056,235.59069647081196L377.62169969777824,239.57497527636588"></path><path class="major_road" style="fill:none; stroke:#ccc; stroke-linejoin:round; stroke-linecap:round;" d="M364.94558094222157,215.72919910028577L377.62169969777824,239.57497527636588"></path><path class="major_road" style="fill:none; stroke:#ccc; stroke-linejoin:round; stroke-linecap:round;" d="M377.62169969777824,239.57497527636588L387.035582008888,244.93727347254753L396.1139200000034,250.35948347114027L403.6450258488876,257.0398828871548L411.6794481777797,265.3679098673165L420.4036004977788,275.3136044796556L426.0892125866667,284.03105976991355"></path><path class="major_road" style="fill:none; stroke:#ccc; stroke-linejoin:round; stroke-linecap:round;" d="M426.0892125866667,284.03105976991355L431.27150819555754,309.82391032390296L431.3087908977759,322.4656845461577L431.0478119822219,333.8492626808584"></path><path class="path" style="fill:none; stroke:#ccc; stroke-linejoin:round; stroke-linecap:round;" d="M300.3346579911122,408.77094393223524L310.94158677333326,392.80406275205314"></path><path class="path" style="fill:none; stroke:#ccc; stroke-linejoin:round; stroke-linecap:round;" d="M328.2221192533325,312.0407151784748L330.44044003555973,307.21766631118953L345.0552593066677,311.65127651393414"></path><path class="path" style="fill:none; stroke:#ccc; stroke-linejoin:round; stroke-linecap:round;" d="M352.62364785777754,301.70560838095844L345.0552593066677,311.65127651393414"></path><path class="path" style="fill:none; stroke:#ccc; stroke-linejoin:round; stroke-linecap:round;" d="M471.81644686222353,316.9236759599298L464.3226237155541,324.47278979606926L457.92864028444455,331.2130664791912L456.0458638222226,358.7433175612241"></path><path class="major_road" style="fill:none; stroke:#ccc; stroke-linejoin:round; stroke-linecap:round;" d="M233.2444353422252,292.53881145082414L273.1742094222209,286.5174807049334"></path><path class="major_road" style="fill:none; stroke:#ccc; stroke-linejoin:round; stroke-linecap:round;" d="M361.01225585777865,398.9751297365874L360.471656675556,408.77094393223524"></path><path class="major_road" style="fill:none; stroke:#ccc; stroke-linejoin:round; stroke-linecap:round;" d="M348.5225506133356,153.4184314813465L351.07641571555723,173.4298051763326L352.7541373155582,184.3641511630267L356.3892007822251,196.61659967713058L361.03089720888966,206.62225851602852L364.94558094222157,215.72919910028577"></path><path class="major_road" style="fill:none; stroke:#ccc; stroke-linejoin:round; stroke-linecap:round;" d="M453.547922773334,316.47432381659746L464.3226237155541,324.47278979606926L479.34755271111135,333.36995431408286L489.26475150222177,336.27576099708676"></path><path class="major_road" style="fill:none; stroke:#ccc; stroke-linejoin:round; stroke-linecap:round;" d="M314.44616078222316,239.5450182966888L323.72955363555593,212.9132378641516L327.6815200711135,198.8933370616287L329.3778830222218,186.34131964109838L328.7067943822258,170.88344937749207L326.8426592711148,153.4184314813465"></path><path class="major_road" style="fill:none; stroke:#ccc; stroke-linejoin:round; stroke-linecap:round;" d="M310.94158677333326,392.80406275205314L298.71286044444423,386.84268956258893L288.27370382222216,377.4962097797543L279.7732477155587,366.6818453669548L271.9252388977802,353.98019865714014L267.339466524445,338.6123886052519L265.9786478933347,324.323005836457L266.79886734222237,309.7939535006881L269.29680839111097,297.7213477306068L273.1742094222209,286.5174807049334"></path><path class="major_road" style="fill:none; stroke:#ccc; stroke-linejoin:round; stroke-linecap:round;" d="M273.1742094222209,286.5174807049334L279.49362744889004,276.7515356335789L286.5586995199992,266.86575590632856L293.344151324447,257.54915087483823L303.55961173333344,247.6334002558142L314.44616078222316,239.5450182966888"></path><path class="major_road" style="fill:none; stroke:#ccc; stroke-linejoin:round; stroke-linecap:round;" d="M421.2611026488885,359.6719757672399L408.2494395733338,372.9427942298353L397.5306626844467,380.4918770734221L387.9676495644453,387.2620827369392L375.8321299911113,393.0736725330353L361.01225585777865,398.9751297365874"></path><path class="major_road" style="fill:none; stroke:#ccc; stroke-linejoin:round; stroke-linecap:round;" d="M361.01225585777865,398.9751297365874L343.3775377066704,400.89235386811197L326.5630390044462,398.4059537742287L310.94158677333326,392.80406275205314"></path><path class="major_road" style="fill:none; stroke:#ccc; stroke-linejoin:round; stroke-linecap:round;" d="M314.44616078222316,239.5450182966888L328.35260871111313,234.63207283243537L340.39492152889216,232.56504037231207L348.6343987200016,231.9659004677087L357.0789307733321,233.28400821983814"></path><path class="major_road" style="fill:none; stroke:#ccc; stroke-linejoin:round; stroke-linecap:round;" d="M431.0478119822219,333.8492626808584L430.19030983111224,340.34988067112863L426.89079068444335,350.1457369569689L421.2611026488885,359.6719757672399"></path><path class="path" style="fill:none; stroke:#ccc; stroke-linejoin:round; stroke-linecap:round;" d="M374.117125688892,185.77213480323553L369.9601043911098,153.4184314813465"></path><path class="path" style="fill:none; stroke:#ccc; stroke-linejoin:round; stroke-linecap:round;" d="M451.01269902221975,316.2646261397749L471.81644686222353,316.9236759599298L482.4420169955556,317.4928553253412L489.26475150222177,317.70255297608674"></path><path class="path" style="fill:none; stroke:#ccc; stroke-linejoin:round; stroke-linecap:round;" d="M314.9494772622238,368.3893771599978L306.2998903466687,357.69483241066337L299.75677610666753,340.7393185161054L299.94318961777753,330.70380125008523L306.8032068266657,309.2247738111764L320.9892750222243,293.647215327248L352.62364785777754,301.70560838095844L369.7736908799998,306.0793067049235"></path><path class="path" style="fill:none; stroke:#ccc; stroke-linejoin:round; stroke-linecap:round;" d="M397.2324010666671,319.02065244689584L369.7736908799998,306.0793067049235"></path><path class="path" style="fill:none; stroke:#ccc; stroke-linejoin:round; stroke-linecap:round;" d="M359.5395891199987,375.48911231942475L347.981951431113,378.18521330691874L336.2938242844466,377.9755165874958L325.50048199110824,374.4106717761606L314.9494772622238,368.3893771599978"></path><path class="path" style="fill:none; stroke:#ccc; stroke-linejoin:round; stroke-linecap:round;" d="M397.2324010666671,319.02065244689584L397.0832702577791,342.56668056733906L392.16195356444223,354.75907356850803L382.24475477333544,365.33379379846156L359.5395891199987,375.48911231942475"></path><path class="path" style="fill:none; stroke:#ccc; stroke-linejoin:round; stroke-linecap:round;" d="M401.96730424888665,216.20851160027087L415.4636424533346,207.31127068214118L445.1406734222255,214.83048813417554"></path><path class="path" style="fill:none; stroke:#ccc; stroke-linejoin:round; stroke-linecap:round;" d="M359.5395891199987,375.48911231942475L372.66310030222303,408.77094393223524"></path><path class="path" style="fill:none; stroke:#ccc; stroke-linejoin:round; stroke-linecap:round;" d="M314.9494772622238,368.3893771599978L285.2165222399999,408.77094393223524"></path><path class="path" style="fill:none; stroke:#ccc; stroke-linejoin:round; stroke-linecap:round;" d="M369.7736908799998,306.0793067049235L401.96730424888665,216.20851160027087L374.117125688892,185.77213480323553"></path><path class="path" style="fill:none; stroke:#ccc; stroke-linejoin:round; stroke-linecap:round;" d="M451.01269902221975,316.2646261397749L397.2324010666671,319.02065244689584"></path></g><g><path class="minor_road" style="fill:none; stroke:#ccc; stroke-linejoin:round; stroke-linecap:round;" d="M643.4473665422229,319.7096589356661L627.695424853333,349.75629937276244L647.7162359466674,349.66642916202545L670.2722707911125,349.5765589531511L745.2477849600036,348.3483326546848"></path><path class="minor_road" style="fill:none; stroke:#ccc; stroke-linejoin:round; stroke-linecap:round;" d="M696.3328796444439,290.981054501608L684.5701870933335,293.3176898602396L667.0286756977766,304.1920260936022L643.4473665422229,319.7096589356661"></path><path class="major_road" style="fill:none; stroke:#ccc; stroke-linejoin:round; stroke-linecap:round;" d="M745.2477849600036,361.3795084450394L725.2828979200021,361.7389889732003L652.1528775111146,360.45085034891963L558.4428054755554,361.49933528900146L489.26475150222177,359.64201905205846"></path><path class="path" style="fill:none; stroke:#ccc; stroke-linejoin:round; stroke-linecap:round;" d="M622.1962262755587,396.6385124735534L603.5735165155565,393.7027619984001"></path><path class="path" style="fill:none; stroke:#ccc; stroke-linejoin:round; stroke-linecap:round;" d="M620.3507325155551,408.77094393223524L622.1962262755587,396.6385124735534L644.4726408533352,395.94950986653566"></path><path class="path" style="fill:none; stroke:#ccc; stroke-linejoin:round; stroke-linecap:round;" d="M615.0938715022203,323.12473406642675L618.1696944355535,308.23619851097465L600.0689425066666,307.3674504663795L596.4525203911144,339.36130762659013"></path><path class="path" style="fill:none; stroke:#ccc; stroke-linejoin:round; stroke-linecap:round;" d="M733.149548088888,319.8594429474324L732.553024853336,305.3902995362878L745.2477849600036,305.3902995362878"></path><path class="path" style="fill:none; stroke:#ccc; stroke-linejoin:round; stroke-linecap:round;" d="M641.0426322488893,408.77094393223524L644.4726408533352,395.94950986653566L652.1528775111146,360.45085034891963"></path><path class="minor_road" style="fill:none; stroke:#ccc; stroke-linejoin:round; stroke-linecap:round;" d="M720.4920706844459,338.79212917760015L723.0832184888895,311.0820969119668L715.3097750755587,299.00949228182435L696.3328796444439,290.981054501608"></path><path class="minor_road" style="fill:none; stroke:#ccc; stroke-linejoin:round; stroke-linecap:round;" d="M745.2477849600036,383.457587050274L725.2828979200021,361.7389889732003"></path><path class="major_road" style="fill:none; stroke:#ccc; stroke-linejoin:round; stroke-linecap:round;" d="M489.26475150222177,336.27576099708676L490.23410176000107,336.545371895656L515.2880776533348,340.289967155084L596.4525203911144,339.36130762659013L720.4920706844459,338.79212917760015L745.2477849600036,336.81498279236257"></path><path class="path" style="fill:none; stroke:#ccc; stroke-linejoin:round; stroke-linecap:round;" d="M729.7941048888897,319.8594429474324L733.149548088888,319.8594429474324L745.2477849600036,319.88939974829555"></path><path class="path" style="fill:none; stroke:#ccc; stroke-linejoin:round; stroke-linecap:round;" d="M489.26475150222177,317.70255297608674L556.1685606399988,319.6497453302145L606.6679808000008,322.70533891581"></path><path class="path" style="fill:none; stroke:#ccc; stroke-linejoin:round; stroke-linecap:round;" d="M582.8070513777784,387.0823428109288L603.5735165155565,393.7027619984001"></path><path class="path" style="fill:none; stroke:#ccc; stroke-linejoin:round; stroke-linecap:round;" d="M556.1685606399988,319.6497453302145L582.8070513777784,387.0823428109288"></path><path class="path" style="fill:none; stroke:#ccc; stroke-linejoin:round; stroke-linecap:round;" d="M606.6679808000008,322.70533891581L615.0938715022203,323.12473406642675L729.7941048888897,319.8594429474324"></path></g><g><path class="minor_road" style="fill:none; stroke:#ccc; stroke-linejoin:round; stroke-linecap:round;" d="M745.2477849600036,348.3483326546848L819.7386240000014,347.12010625191033L833.3281689600008,396.27903285622597L820.5029193955561,395.5900302324444"></path><path class="minor_road" style="fill:none; stroke:#ccc; stroke-linejoin:round; stroke-linecap:round;" d="M923.8505699555571,408.77094393223524L934.9794565688899,360.1812399234623"></path><path class="minor_road" style="fill:none; stroke:#ccc; stroke-linejoin:round; stroke-linecap:round;" d="M934.9794565688899,360.1812399234623L949.0723180088899,335.7065824214369"></path><path class="major_road" style="fill:none; stroke:#ccc; stroke-linejoin:round; stroke-linecap:round;" d="M1001.2494597688892,359.1926683150232L943.423988622224,360.9601144697517"></path><path class="major_road" style="fill:none; stroke:#ccc; stroke-linejoin:round; stroke-linecap:round;" d="M934.9794565688899,360.1812399234623L885.2443318044461,358.8931011464447L745.2477849600036,361.3795084450394"></path><path class="major_road" style="fill:none; stroke:#ccc; stroke-linejoin:round; stroke-linecap:round;" d="M905.339708302221,335.5268418099731L949.0723180088899,335.7065824214369L1001.2494597688892,334.9277064334601"></path><path class="major_road" style="fill:none; stroke:#ccc; stroke-linejoin:round; stroke-linecap:round;" d="M943.423988622224,360.9601144697517L934.9794565688899,360.1812399234623"></path><path class="path" style="fill:none; stroke:#ccc; stroke-linejoin:round; stroke-linecap:round;" d="M833.8501267911124,320.009226962924L834.1483884088921,309.6441693790257L850.813756302221,309.6441693790257L848.744566328889,335.4070147369057"></path><path class="path" style="fill:none; stroke:#ccc; stroke-linejoin:round; stroke-linecap:round;" d="M850.813756302221,309.6441693790257L873.2020189866707,260.4849306344986"></path><path class="path" style="fill:none; stroke:#ccc; stroke-linejoin:round; stroke-linecap:round;" d="M745.2477849600036,305.3902995362878L749.8149159822242,305.3902995362878L749.5166543644445,336.4555015992373"></path><path class="path" style="fill:none; stroke:#ccc; stroke-linejoin:round; stroke-linecap:round;" d="M956.6034238577777,269.0526108238846L961.4688164977779,271.7786897532642L974.4245555199996,228.9402435645461L994.8741176888907,240.1741148456931"></path><path class="path" style="fill:none; stroke:#ccc; stroke-linejoin:round; stroke-linecap:round;" d="M999.2921179022233,291.4903212133795L991.2390542222238,311.95084472186863L968.254268302222,298.5900963898748"></path><path class="path" style="fill:none; stroke:#ccc; stroke-linejoin:round; stroke-linecap:round;" d="M966.9307323733374,408.77094393223524L971.814766364445,403.438666742295"></path><path class="minor_road" style="fill:none; stroke:#ccc; stroke-linejoin:round; stroke-linecap:round;" d="M820.5029193955561,395.5900302324444L756.7122158933307,395.9195532333106L745.2477849600036,383.457587050274"></path><path class="minor_road" style="fill:none; stroke:#ccc; stroke-linejoin:round; stroke-linecap:round;" d="M1001.2494597688892,192.4825229216367L946.0710604800006,172.86061980947852L910.8202655288878,160.27862127684057L890.445268764448,153.4184314813465"></path><path class="minor_road" style="fill:none; stroke:#ccc; stroke-linejoin:round; stroke-linecap:round;" d="M827.4561433599993,153.4184314813465L798.0587326577806,235.59069647081196L873.2020189866707,260.4849306344986L910.8202655288878,160.27862127684057"></path><path class="minor_road" style="fill:none; stroke:#ccc; stroke-linejoin:round; stroke-linecap:round;" d="M949.0723180088899,335.7065824214369L968.254268302222,298.5900963898748L994.8741176888907,240.1741148456931L1001.2494597688892,219.7134837023914"></path><path class="major_road" style="fill:none; stroke:#ccc; stroke-linejoin:round; stroke-linecap:round;" d="M745.2477849600036,336.81498279236257L749.5166543644445,336.4555015992373L848.744566328889,335.4070147369057L905.339708302221,335.5268418099731"></path><path class="path" style="fill:none; stroke:#ccc; stroke-linejoin:round; stroke-linecap:round;" d="M745.2477849600036,319.88939974829555L833.8501267911124,320.009226962924L935.4641316977795,320.0990973711014"></path><path class="path" style="fill:none; stroke:#ccc; stroke-linejoin:round; stroke-linecap:round;" d="M878.5334454044423,401.6113128438592L876.781158400001,400.9522671159357L876.94893056,381.8998404741287L945.8660056177796,381.1209671217948L971.6469942044423,380.7914437651634L1001.2494597688892,380.7315304297954"></path><path class="path" style="fill:none; stroke:#ccc; stroke-linejoin:round; stroke-linecap:round;" d="M971.814766364445,403.438666742295L971.6469942044423,380.7914437651634"></path><path class="path" style="fill:none; stroke:#ccc; stroke-linejoin:round; stroke-linecap:round;" d="M898.3492016355558,408.77094393223524L878.5334454044423,401.6113128438592"></path><path class="path" style="fill:none; stroke:#ccc; stroke-linejoin:round; stroke-linecap:round;" d="M935.4641316977795,320.0990973711014L946.3320393955582,320.458578992635L1001.2494597688892,321.9863757789135"></path><path class="path" style="fill:none; stroke:#ccc; stroke-linejoin:round; stroke-linecap:round;" d="M935.4641316977795,320.0990973711014L956.6034238577777,269.0526108238846L982.4776192000027,199.1329936105758"></path><path class="path" style="fill:none; stroke:#ccc; stroke-linejoin:round; stroke-linecap:round;" d="M967.993289386668,408.77094393223524L960.6113143466682,405.8651526849717L959.5301159822229,408.77094393223524M970.1556861155586,408.77094393223524L971.814766364445,403.438666742295"></path><path class="path" style="fill:none; stroke:#ccc; stroke-linejoin:round; stroke-linecap:round;" d="M987.7904042666669,175.67658931948245L994.0911809422214,153.4184314813465"></path><path class="path" style="fill:none; stroke:#ccc; stroke-linejoin:round; stroke-linecap:round;" d="M982.4776192000027,199.1329936105758L987.7904042666669,175.67658931948245"></path><path class="path" style="fill:none; stroke:#ccc; stroke-linejoin:round; stroke-linecap:round;" d="M946.3320393955582,320.458578992635L945.8660056177796,381.1209671217948"></path></g><g><path class="path" style="fill:none; stroke:#ccc; stroke-linejoin:round; stroke-linecap:round;" d="M67.50418261333107,605.1650497801602L74.49468927999987,607.501631340012L89.92972799999916,613.4629081208259L112.20614257777561,612.8038726244122L141.97638030222151,608.9694836512208L161.643005724447,592.8830119334161"></path><path class="path" style="fill:none; stroke:#ccc; stroke-linejoin:round; stroke-linecap:round;" d="M194.3026528711125,598.4249084331095L217.0823839288896,603.0082049071789L233.2444353422252,601.5103957727551"></path><path class="path" style="fill:none; stroke:#ccc; stroke-linejoin:round; stroke-linecap:round;" d="M183.78893084444644,526.3501220606267L194.48906638222252,541.5679390840232L205.39425678222324,557.0553456805646"></path><path class="path" style="fill:none; stroke:#ccc; stroke-linejoin:round; stroke-linecap:round;" d="M176.388314453332,566.2519211620092L185.7649140622234,552.4420774690807L194.48906638222252,541.5679390840232L209.6072021333348,524.9122172109783"></path><path class="path" style="fill:none; stroke:#ccc; stroke-linejoin:round; stroke-linecap:round;" d="M233.2444353422252,539.3511715196073L216.59770879999996,539.6207784079015L213.65237532444735,549.7759672030807L205.39425678222324,557.0553456805646L194.48906638222252,558.043902952224L182.2789814044445,566.1620523687452"></path><path class="path" style="fill:none; stroke:#ccc; stroke-linejoin:round; stroke-linecap:round;" d="M162.351377066665,576.5868275761604L111.6282606933346,573.8008970487863L94.64598983111136,577.0062149167061L83.08835214222199,581.4696936812252L69.74114474666567,594.0812600143254L67.50418261333107,605.1650497801602L57.81068003555629,608.8197028152645L34.769970062221546,614.1518997419626"></path><path class="path" style="fill:none; stroke:#ccc; stroke-linejoin:round; stroke-linecap:round;" d="M216.59770879999996,539.6207784079015L212.2542739911114,527.278768863529L209.6072021333348,524.9122172109783L202.35571655111198,520.8681090157479L190.16427292444496,521.5571053121239L183.78893084444644,526.3501220606267L172.11944504889107,526.7994672991335"></path><path class="path" style="fill:none; stroke:#ccc; stroke-linejoin:round; stroke-linecap:round;" d="M182.2789814044445,566.1620523687452L195.16015502222217,573.5912033356726L198.96299064888808,582.5780740883201L198.40375011555443,590.9658147804439L194.3026528711125,598.4249084331095L188.54247537778065,602.85842400603L177.39494741333328,604.8355318401009L168.61487103999752,601.5403519552201L161.643005724447,592.8830119334161L160.2076216888927,584.8847032897174L162.351377066665,576.5868275761604L167.44046592000086,570.3259721565992L176.388314453332,566.2519211620092L182.2789814044445,566.1620523687452"></path><path class="path" style="fill:none; stroke:#ccc; stroke-linejoin:round; stroke-linecap:round;" d="M176.388314453332,566.2519211620092L172.11944504889107,526.7994672991335L169.54693859555846,505.7101816907525"></path><path class="minor_road" style="fill:none; stroke:#ccc; stroke-linejoin:round; stroke-linecap:round;" d="M-22.73859811555667,616.548392066732L13.537471146668395,616.0690936315805L34.769970062221546,614.1518997419626"></path><path class="minor_road" style="fill:none; stroke:#ccc; stroke-linejoin:round; stroke-linecap:round;" d="M233.2444353422252,469.49285237677395L223.66278087110913,469.702547699213L116.77327360000345,501.3665037639439L79.86339840000073,505.5004869326949L49.589844195557816,503.2238007020205L25.430653155555774,496.6034346483648"></path><path class="major_road" style="fill:none; stroke:#ccc; stroke-linejoin:round; stroke-linecap:round;" d="M37.69666218667044,664.9874028954655L38.16269596444545,647.9723586961627L34.769970062221546,614.1518997419626L33.42779278222224,593.6618731990457L30.22148039111198,551.1539568435401L25.430653155555774,496.6034346483648"></path><path class="major_road" style="fill:none; stroke:#ccc; stroke-linejoin:round; stroke-linecap:round;" d="M25.430653155555774,496.6034346483648L23.771572906665824,458.49882189556956L25.691632071113418,444.6888691429049L32.77534549333359,427.34402798861265L47.44608881777822,408.77094393223524"></path></g><g><path class="path" style="fill:none; stroke:#ccc; stroke-linejoin:round; stroke-linecap:round;" d="M282.6812984888893,412.24590996466577L289.57859839999946,425.00741557590663"></path><path class="path" style="fill:none; stroke:#ccc; stroke-linejoin:round; stroke-linecap:round;" d="M237.1777604266681,539.2613025587052L239.6943428266677,512.1807614192367"></path><path class="path" style="fill:none; stroke:#ccc; stroke-linejoin:round; stroke-linecap:round;" d="M233.2444353422252,601.5103957727551L234.97808099555914,601.3306586686522L242.49054549333232,596.3279748875648L248.10159217777982,589.3481794819236L250.87915349333343,565.5629271194339L250.87915349333343,539.0216519869864"></path><path class="path" style="fill:none; stroke:#ccc; stroke-linejoin:round; stroke-linecap:round;" d="M289.57859839999946,425.00741557590663L293.02724835555637,419.7650144845247L300.3346579911122,408.77094393223524"></path><path class="path" style="fill:none; stroke:#ccc; stroke-linejoin:round; stroke-linecap:round;" d="M349.6969557333323,536.8947529867291L325.16493767111024,538.6022634804249L293.269585920003,540.8489874806255L289.22441272889046,532.0118709281087L285.2351635911109,529.0461932439357L273.69616725333253,528.2673282939941L268.0851205688923,531.8620892465115L264.20771953777876,538.8119577374309L250.87915349333343,539.0216519869864L237.1777604266681,539.2613025587052L233.2444353422252,539.3511715196073"></path><path class="path" style="fill:none; stroke:#ccc; stroke-linejoin:round; stroke-linecap:round;" d="M264.20771953777876,538.8119577374309L265.21435249778006,548.4878463335335L271.9252388977802,555.3777937795967L286.2790792533342,554.7786680534482L291.92740864000007,548.4878463335335L293.269585920003,540.8489874806255"></path><path class="minor_road" style="fill:none; stroke:#ccc; stroke-linejoin:round; stroke-linecap:round;" d="M318.4913339733321,575.2088405061513L346.248305777779,577.6352959070355L334.48561322666865,589.3481794819236L326.3766254933362,607.7712368816137L324.1210220088906,623.7079103719443L323.0025409422233,640.4833360388875L326.6376044088902,655.0419923141599L332.32321649777805,664.9874028954655"></path><path class="minor_road" style="fill:none; stroke:#ccc; stroke-linejoin:round; stroke-linecap:round;" d="M357.1721375288871,471.82945717312396L291.89012593777807,468.14481096714735L233.2444353422252,469.49285237677395"></path><path class="major_road" style="fill:none; stroke:#ccc; stroke-linejoin:round; stroke-linecap:round;" d="M357.1721375288871,471.82945717312396L351.5797321955579,510.2036401666701L349.6969557333323,536.8947529867291L346.248305777779,577.6352959070355L338.82904803555357,664.9874028954655"></path><path class="major_road" style="fill:none; stroke:#ccc; stroke-linejoin:round; stroke-linecap:round;" d="M360.471656675556,408.77094393223524L358.92442453333206,437.07990872859955L357.1721375288871,471.82945717312396"></path><path class="path" style="fill:none; stroke:#ccc; stroke-linejoin:round; stroke-linecap:round;" d="M385.4324258133347,441.24386790394783L358.92442453333206,437.07990872859955"></path><path class="path" style="fill:none; stroke:#ccc; stroke-linejoin:round; stroke-linecap:round;" d="M285.2165222399999,408.77094393223524L282.6812984888893,412.24590996466577"></path><path class="path" style="fill:none; stroke:#ccc; stroke-linejoin:round; stroke-linecap:round;" d="M372.66310030222303,408.77094393223524L385.4324258133347,441.24386790394783"></path></g><g><path class="path" style="fill:none; stroke:#ccc; stroke-linejoin:round; stroke-linecap:round;" d="M638.4514844444457,418.5068379212171L641.0426322488893,408.77094393223524"></path><path class="path" style="fill:none; stroke:#ccc; stroke-linejoin:round; stroke-linecap:round;" d="M682.6687692800006,630.4779953546822L707.9278000355589,636.5890426319093L720.8089736533329,637.9370674006641L729.2907884088891,637.0383842326701L737.7912445155562,633.5335193332285L745.2477849600036,628.6207157392055"></path><path class="path" style="fill:none; stroke:#ccc; stroke-linejoin:round; stroke-linecap:round;" d="M511.83942769777786,614.7210667096078L509.21099719111226,637.0683403369039L506.54528398222465,654.4728270340711L503.9914188799994,664.9874028954655"></path><path class="path" style="fill:none; stroke:#ccc; stroke-linejoin:round; stroke-linecap:round;" d="M552.1979528533338,616.1589620932937L545.2633702400017,613.732513545081L511.83942769777786,614.7210667096078"></path><path class="path" style="fill:none; stroke:#ccc; stroke-linejoin:round; stroke-linecap:round;" d="M559.4307970844457,626.9431726410985L552.1979528533338,616.1589620932937L613.1365296355543,447.6246086396277L615.7836014933346,438.4878662843257L620.3507325155551,408.77094393223524"></path><path class="minor_road" style="fill:none; stroke:#ccc; stroke-linejoin:round; stroke-linecap:round;" d="M715.6639607466677,551.0341316666454L696.7802720711115,546.2710798885673L669.3215618844442,543.2754489928484L659.9076795733308,545.1327402312309L652.8426075022253,563.4360322579741L635.9162606933351,607.2619819734246"></path><path class="minor_road" style="fill:none; stroke:#ccc; stroke-linejoin:round; stroke-linecap:round;" d="M574.6421395911129,587.34111318551L635.9162606933351,607.2619819734246L678.6981614933356,622.5695771686733L682.6687692800006,630.4779953546822L682.2400182044439,637.9969796072692L674.5038574933351,664.9874028954655"></path><path class="minor_road" style="fill:none; stroke:#ccc; stroke-linejoin:round; stroke-linecap:round;" d="M545.1701634844467,664.9874028954655L559.4307970844457,626.9431726410985L574.6421395911129,587.34111318551"></path><path class="minor_road" style="fill:none; stroke:#ccc; stroke-linejoin:round; stroke-linecap:round;" d="M574.6421395911129,587.34111318551L638.4514844444457,418.5068379212171"></path><path class="path" style="fill:none; stroke:#ccc; stroke-linejoin:round; stroke-linecap:round;" d="M511.83942769777786,614.7210667096078L502.2018491733361,600.2522359732538"></path></g><g><path class="minor_road" style="fill:none; stroke:#ccc; stroke-linejoin:round; stroke-linecap:round;" d="M839.9085659022239,664.9874028954655L840.4491650844466,663.2799082193524L843.6741188266678,653.394408531487L850.1240263111104,635.1511494014412L872.0276138666668,566.0721835847944L886.0272685511118,522.9950105138123L901.387741866667,477.67096739821136L908.3968898844469,456.97104039415717L922.0237175466682,416.79931240715086L923.8505699555571,408.77094393223524"></path><path class="path" style="fill:none; stroke:#ccc; stroke-linejoin:round; stroke-linecap:round;" d="M764.4670179555542,625.5951467864215L830.5506076444472,648.8111289814115"></path><path class="path" style="fill:none; stroke:#ccc; stroke-linejoin:round; stroke-linecap:round;" d="M957.423643306669,475.0347989946604L996.123088213335,489.5936318039894L1001.2494597688892,491.54079961963"></path><path class="path" style="fill:none; stroke:#ccc; stroke-linejoin:round; stroke-linecap:round;" d="M1001.2494597688892,542.7062790449709L994.8927590400017,540.2798174396157L1000.9698395022206,523.9236575458199L984.9569188977766,517.8125598002225L996.123088213335,489.5936318039894"></path><path class="path" style="fill:none; stroke:#ccc; stroke-linejoin:round; stroke-linecap:round;" d="M963.3888756622218,412.66530236415565L966.9307323733374,408.77094393223524"></path><path class="path" style="fill:none; stroke:#ccc; stroke-linejoin:round; stroke-linecap:round;" d="M954.2173309155587,414.40278499759734L963.3888756622218,412.66530236415565"></path><path class="path" style="fill:none; stroke:#ccc; stroke-linejoin:round; stroke-linecap:round;" d="M830.5506076444472,648.8111289814115L843.6741188266678,653.394408531487"></path><path class="path" style="fill:none; stroke:#ccc; stroke-linejoin:round; stroke-linecap:round;" d="M908.3968898844469,456.97104039415717L957.423643306669,475.0347989946604"></path><path class="path" style="fill:none; stroke:#ccc; stroke-linejoin:round; stroke-linecap:round;" d="M745.2477849600036,628.6207157392055L745.3596330666696,628.5308473594487L751.1757346133345,620.9819017499685"></path><path class="path" style="fill:none; stroke:#ccc; stroke-linejoin:round; stroke-linecap:round;" d="M751.1757346133345,620.9819017499685L764.4670179555542,625.5951467864215"></path><path class="minor_road" style="fill:none; stroke:#ccc; stroke-linejoin:round; stroke-linecap:round;" d="M937.8875073422241,543.4252305496484L900.3251848533328,529.3158003371209"></path><path class="minor_road" style="fill:none; stroke:#ccc; stroke-linejoin:round; stroke-linecap:round;" d="M850.1240263111104,635.1511494014412L850.291798471113,641.0225458126515L851.2425073777777,644.557364879176L855.0639843555582,648.0622269492596L860.0225837511134,649.919503916055L866.9012423111126,651.9864731449634"></path><path class="minor_road" style="fill:none; stroke:#ccc; stroke-linejoin:round; stroke-linecap:round;" d="M899.3931172977791,571.4643097259104L900.3251848533328,529.3158003371209L901.387741866667,477.67096739821136"></path><path class="minor_road" style="fill:none; stroke:#ccc; stroke-linejoin:round; stroke-linecap:round;" d="M880.2298083555543,644.4674966018647L879.4282302577776,648.212007354945L879.0926859377796,650.9080544598401L879.4282302577776,652.6455067489296L881.8516059022222,656.5098395105451"></path><path class="minor_road" style="fill:none; stroke:#ccc; stroke-linejoin:round; stroke-linecap:round;" d="M866.9012423111126,651.9864731449634L868.0570060800019,652.3459460325539L881.8516059022222,656.5098395105451L905.3024256000026,664.9874028954655"></path><path class="minor_road" style="fill:none; stroke:#ccc; stroke-linejoin:round; stroke-linecap:round;" d="M845.3704817777798,664.9874028954655L853.8336551822249,657.0790047124028L858.2330140444465,653.9336177930236L862.48324209778,652.4657703191042L868.0570060800019,652.3459460325539"></path><path class="minor_road" style="fill:none; stroke:#ccc; stroke-linejoin:round; stroke-linecap:round;" d="M872.0276138666668,566.0721835847944L881.3110067199996,562.4474753774703L891.4519017244456,564.5144578628242L899.3931172977791,571.4643097259104L900.4929570133354,578.7436766214669L899.3931172977791,586.5023391284049L885.3748212622231,631.077117761597L880.2298083555543,644.4674966018647L874.4696308622224,649.3503384198993L871.6734281955578,650.7582740746439L866.9012423111126,651.9864731449634"></path><path class="path" style="fill:none; stroke:#ccc; stroke-linejoin:round; stroke-linecap:round;" d="M927.9143844977771,415.9904844481498L954.2173309155587,414.40278499759734"></path><path class="path" style="fill:none; stroke:#ccc; stroke-linejoin:round; stroke-linecap:round;" d="M922.0237175466682,416.79931240715086L904.4449234488893,410.9877327121794"></path><path class="path" style="fill:none; stroke:#ccc; stroke-linejoin:round; stroke-linecap:round;" d="M904.4449234488893,410.9877327121794L898.3492016355558,408.77094393223524"></path><path class="path" style="fill:none; stroke:#ccc; stroke-linejoin:round; stroke-linecap:round;" d="M954.2173309155587,414.40278499759734L967.4340488533344,420.2143632285297L970.9945469155573,409.9692081809044L969.931989902223,409.54981570877135M969.931989902223,409.54981570877135L967.993289386668,408.77094393223524M959.5301159822229,408.77094393223524L957.311795200003,414.8221773225814L967.0798631822217,418.7165340259671L969.931989902223,409.54981570877135M969.931989902223,409.54981570877135L970.1556861155586,408.77094393223524"></path></g><path class="waypath" style="fill:none; stroke:orange; stroke-width:5; stroke-linejoin:round; stroke-linecap: round}" d="M407.57835093333415,331.5425910335034L406.23617365333484,341.9675454925746L403.1603507200016,352.2127516064793L397.3256078222221,362.09846950508654L391.9941814044432,366.62193196825683L384.0529658311134,372.9727509152144L369.0466781866671,381.0011404491961L354.1522386488905,386.2435564342886L342.5013942044425,387.17221277207136L325.98515712000153,383.96685031428933L316.75768832000176,380.2522237095982L307.53021951999835,374.91993538104L296.1589953422226,357.7847025692463L291.3308854044444,343.82486413419247L291.4240921599994,329.1760054323822L295.9166577777796,312.070671999827L303.09357795555843,299.6984997726977L307.77255708444136,294.1265250891447L318.3981272177771,283.4618790168315L325.3886338844459,277.5304149482399L331.7453346133334,273.7258886601776L343.11655879111277,272.5575693529099L357.0789307733321,233.73336310312152L371.3209230222237,199.82200615294278L369.21445034666976,184.99325025640428L387.63210524444366,186.07170577161014L432.0917276444452,203.20715422555804L440.14479132444467,187.53960342146456L507.7010477511103,186.28140544891357L534.451386595556,184.93333606049418L534.209049031113,126.84639739245176L552.8317587911115,131.84925330989063L559.9900376177793,112.04751944169402L619.4932303644455,135.17450384050608L670.0672159288915,154.8563754800707L644.5099235555572,220.25271009653807L619.1576860444438,289.21359928138554L610.3589683200007,313.1491174735129L606.6493394488898,322.67538211867213L605.1207486577769,326.4199811760336L603.1074827377815,332.5012078694999L496.90770545777923,331.6324613690376L482.4420169955556,317.4928553253412L467.58486016000097,298.29052789881825L463.4278388622224,295.7441953923553L448.1792136533368,340.2000968847424L410.1322160355594,325.6111478675157L407.57835093333415,331.5425910335034"></path></svg>
